<?xml version="1.0" encoding="UTF-8"?><svg id="Layer_2" xmlns="http://www.w3.org/2000/svg" viewBox="0 0 381.3 207.38"><path id="red-1" d="M106.61,42.03h21.49v125.94h-21.49c-5.52,0-10-4.48-10-10V52.03c0-5.52,4.48-10,10-10Z" fill="#b43429"/><rect id="red-2" x="128.09" y="42.03" width="31.49" height="125.94" fill="#d75140"/><rect id="yellow" x="159.58" y="42.03" width="31.49" height="125.94" fill="#f0be42"/><rect id="green" x="191.06" y="42.03" width="31.49" height="125.94" fill="#58a55b"/><rect id="blue" x="222.55" y="42.03" width="31.49" height="125.94" fill="#5382eb"/><path id="violet" d="M254.04,42.03h21.49c5.52,0,10,4.48,10,10v105.94c0,5.52-4.48,10-10,10h-21.49V42.03h0Z" fill="#5338aa"/><path id="bracket-left" d="M65.71,181.21c-10.26,0-17.83-2.75-22.71-8.27-4.88-5.51-6.87-13.52-5.99-24.03l2.09-24.7c.38-4.43-.07-7.66-1.33-9.69-1.27-2.02-3.68-3.04-7.22-3.04h-5.32v-16.15h5.32c3.54,0,5.95-1.04,7.22-3.14,1.26-2.09,1.71-5.29,1.33-9.59l-2.09-24.13c-.89-10.51,1.11-18.53,5.99-24.04,4.87-5.51,12.44-8.26,22.71-8.26h10.64v16.53h-9.12c-5.32,0-8.9,1.17-10.74,3.51-1.84,2.34-2.5,6.17-2,11.5l1.71,21.09c.5,5.32.28,9.82-.67,13.49-.95,3.67-2.92,6.71-5.89,9.12-2.98,2.41-7.25,4.37-12.83,5.89v-7.22c5.57,1.27,9.85,3.07,12.83,5.42,2.97,2.34,4.94,5.35,5.89,9.02.95,3.68,1.17,8.17.67,13.49l-1.71,21.66c-.38,5.32.31,9.15,2.09,11.5,1.77,2.34,5.32,3.51,10.64,3.51h9.12v16.53h-10.64.01Z" fill="#e6e7ec"/><path id="bracket-right" d="M315.59,181.21h-10.64v-16.53h9.12c5.32,0,8.86-1.17,10.64-3.51,1.77-2.34,2.47-6.18,2.09-11.5l-1.71-21.66c-.38-5.32-.13-9.81.76-13.49.88-3.67,2.82-6.68,5.79-9.02s7.25-4.15,12.83-5.42v7.22c-5.58-1.52-9.85-3.48-12.83-5.89-2.98-2.41-4.91-5.45-5.79-9.12-.89-3.67-1.14-8.17-.76-13.49l1.71-21.09c.5-5.32-.16-9.15-2-11.5-1.84-2.34-5.42-3.51-10.73-3.51h-9.12v-16.53h10.64c10.26,0,17.86,2.75,22.8,8.26s6.9,13.52,5.89,24.04l-2.09,24.13c-.38,4.31.06,7.5,1.33,9.59,1.26,2.09,3.67,3.14,7.22,3.14h5.32v16.15h-5.32c-3.55,0-5.96,1.02-7.22,3.04-1.27,2.03-1.71,5.26-1.33,9.69l2.09,24.7c.88,10.51-1.11,18.52-5.99,24.03s-12.44,8.27-22.7,8.27Z" fill="#e6e7ec"/></svg>