<?xml version="1.0" encoding="UTF-8"?><svg id="Layer_1" xmlns="http://www.w3.org/2000/svg" viewBox="0 0 1221.92 175.76"><defs><style>.cls-1{fill:#fabd05;}.cls-2{fill:#e7e8ed;}.cls-3{fill:#ea4336;}.cls-4{fill:#c5221e;}.cls-5{fill:#4285f4;}.cls-6{fill:#34a852;}.cls-7{fill:#5837b2;}</style></defs><g id="logo_white"><g id="rainbow"><path id="Rectangle_17" class="cls-4" d="m91.55,26.35h21.49v125.94h-21.49c-5.52,0-10-4.48-10-10V36.35c0-5.52,4.48-10,10-10Z"/><rect id="Rectangle_18" class="cls-3" x="113.03" y="26.35" width="31.49" height="125.94"/><rect id="Rectangle_19" class="cls-1" x="144.52" y="26.35" width="31.49" height="125.94"/><rect id="Rectangle_20" class="cls-6" x="176" y="26.35" width="31.49" height="125.94"/><rect id="Rectangle_21" class="cls-5" x="207.49" y="26.35" width="31.49" height="125.94"/><path id="Rectangle_22" class="cls-7" d="m238.98,26.35h21.49c5.52,0,10,4.48,10,10v105.94c0,5.52-4.48,10-10,10h-21.49V26.35h0Z"/></g><path class="cls-2" d="m469.75,138.85c-9,0-17.13-2.09-24.42-6.27-7.29-4.18-13.02-9.88-17.19-17.1-4.18-7.22-6.27-15.26-6.27-24.13s2.09-17.07,6.27-24.23c4.18-7.15,9.91-12.83,17.19-17,7.28-4.18,15.42-6.27,24.42-6.27,7.09,0,13.71,1.36,19.85,4.08,6.14,2.72,11.37,6.62,15.67,11.68l-13.68,13.87c-2.66-3.17-5.86-5.54-9.6-7.12-3.74-1.58-7.82-2.38-12.25-2.38-5.2,0-9.79,1.17-13.77,3.51-3.99,2.35-7.1,5.54-9.31,9.6-2.22,4.05-3.33,8.8-3.33,14.25s1.11,10.04,3.33,14.15c2.21,4.12,5.32,7.35,9.31,9.69,3.99,2.34,8.58,3.51,13.77,3.51,4.43,0,8.52-.79,12.25-2.38,3.73-1.58,6.94-3.96,9.6-7.12l13.68,13.87c-4.31,5.07-9.53,8.96-15.67,11.69-6.15,2.72-12.76,4.08-19.85,4.08Z"/><path class="cls-2" d="m562.09,138.85c-8.87,0-16.91-2.12-24.13-6.37-7.22-4.24-12.95-9.98-17.19-17.2-4.25-7.22-6.36-15.26-6.36-24.13s2.12-16.84,6.36-23.94c4.24-7.09,9.98-12.76,17.19-17,7.22-4.24,15.26-6.36,24.13-6.36s17.1,2.09,24.32,6.27c7.22,4.18,12.95,9.85,17.19,17,4.24,7.16,6.36,15.17,6.36,24.04s-2.12,16.91-6.36,24.13c-4.25,7.22-9.97,12.95-17.19,17.2-7.22,4.25-15.33,6.37-24.32,6.37Zm0-20.14c5.19,0,9.78-1.17,13.77-3.51,3.99-2.34,7.09-5.61,9.31-9.79,2.21-4.18,3.32-8.93,3.32-14.25s-1.14-10-3.42-14.06c-2.28-4.05-5.39-7.25-9.31-9.6-3.93-2.34-8.49-3.51-13.68-3.51s-9.6,1.17-13.58,3.51c-3.99,2.35-7.1,5.54-9.31,9.6-2.22,4.05-3.33,8.74-3.33,14.06s1.11,10.07,3.33,14.25c2.21,4.18,5.32,7.44,9.31,9.79,3.99,2.34,8.52,3.51,13.58,3.51Z"/><path class="cls-2" d="m665.45,138.85c-8.24,0-15.67-2.09-22.33-6.27s-11.91-9.85-15.77-17c-3.87-7.15-5.79-15.17-5.79-24.04s1.93-17.07,5.79-24.22c3.86-7.16,9.12-12.85,15.77-17.1,6.65-4.24,14.09-6.36,22.33-6.36,6.96,0,13.14,1.49,18.52,4.46,5.38,2.98,9.66,7.06,12.83,12.25,3.17,5.2,4.75,11.08,4.75,17.67v26.22c0,6.59-1.55,12.48-4.66,17.67-3.1,5.2-7.38,9.28-12.82,12.25-5.45,2.98-11.66,4.47-18.62,4.47Zm3.42-19.76c5.19,0,9.72-1.17,13.58-3.51,3.86-2.34,6.87-5.61,9.02-9.79,2.15-4.18,3.23-8.99,3.23-14.44s-1.08-10.26-3.23-14.44c-2.16-4.18-5.16-7.44-9.02-9.79-3.87-2.34-8.39-3.51-13.58-3.51s-9.53,1.17-13.4,3.51c-3.87,2.35-6.91,5.61-9.12,9.79-2.22,4.18-3.32,9-3.32,14.44s1.11,10.26,3.32,14.44c2.21,4.18,5.25,7.44,9.12,9.79,3.86,2.35,8.33,3.51,13.4,3.51Zm45.41,17.86h-20.9v-24.51l3.61-22.23-3.61-22.04V.15h20.9v136.8Z"/><path class="cls-2" d="m779.83,138.85c-9.12,0-17.32-2.06-24.6-6.18-7.29-4.11-13.05-9.78-17.29-17-4.25-7.22-6.37-15.32-6.37-24.32s2.09-17.07,6.27-24.23c4.18-7.15,9.85-12.83,17-17,7.16-4.18,15.11-6.27,23.85-6.27s15.99,1.96,22.51,5.89c6.52,3.93,11.65,9.31,15.39,16.15,3.74,6.84,5.61,14.63,5.61,23.37,0,1.52-.09,3.07-.29,4.66-.19,1.59-.47,3.33-.85,5.23h-74.86v-17.1h64.03l-7.79,6.84c-.26-5.57-1.33-10.26-3.23-14.06-1.9-3.8-4.59-6.71-8.08-8.74-3.49-2.02-7.76-3.04-12.82-3.04-5.32,0-9.95,1.14-13.87,3.42-3.93,2.28-6.97,5.48-9.12,9.6-2.16,4.12-3.23,9.02-3.23,14.72s1.14,10.71,3.42,15.01c2.28,4.31,5.51,7.63,9.69,9.98,4.18,2.34,8.99,3.51,14.44,3.51,4.69,0,9.03-.82,13.02-2.47,3.99-1.65,7.38-4.05,10.17-7.22l13.3,13.49c-4.44,5.2-9.82,9.12-16.15,11.78-6.33,2.66-13.05,3.99-20.14,3.99Z"/><path class="cls-2" d="m868.75,138.85c-5.07,0-9.95-.67-14.63-2-4.69-1.33-9-3.23-12.92-5.7-3.93-2.47-7.35-5.48-10.26-9.03l13.3-13.3c3.16,3.68,6.81,6.43,10.92,8.26,4.11,1.84,8.77,2.76,13.96,2.76,4.68,0,8.23-.7,10.64-2.09,2.4-1.39,3.61-3.42,3.61-6.08s-1.14-4.94-3.42-6.46c-2.28-1.52-5.22-2.82-8.83-3.89-3.61-1.07-7.41-2.18-11.4-3.33-3.99-1.14-7.79-2.69-11.4-4.66-3.61-1.96-6.55-4.65-8.83-8.07s-3.42-7.85-3.42-13.3c0-5.82,1.36-10.83,4.08-15.01,2.72-4.18,6.58-7.41,11.59-9.69,5-2.28,10.99-3.42,17.96-3.42,7.34,0,13.84,1.3,19.47,3.89,5.63,2.6,10.36,6.49,14.16,11.69l-13.3,13.3c-2.66-3.29-5.7-5.76-9.12-7.41-3.42-1.64-7.35-2.47-11.78-2.47-4.18,0-7.41.63-9.69,1.9-2.28,1.27-3.42,3.11-3.42,5.51,0,2.54,1.14,4.5,3.42,5.89,2.28,1.4,5.22,2.6,8.83,3.61,3.61,1.02,7.41,2.12,11.4,3.33,3.99,1.21,7.79,2.85,11.4,4.94s6.55,4.88,8.83,8.36c2.28,3.49,3.42,8.01,3.42,13.58,0,8.87-3.11,15.9-9.31,21.09-6.21,5.2-14.63,7.79-25.27,7.79Z"/><path class="cls-2" d="m920.61,174.95V45.75h20.9v24.51l-3.61,22.23,3.61,22.04v60.42h-20.9Zm48.83-36.1c-6.97,0-13.17-1.49-18.62-4.47-5.45-2.97-9.72-7.06-12.83-12.25-3.1-5.19-4.65-11.08-4.65-17.67v-26.22c0-6.58,1.58-12.47,4.75-17.67,3.16-5.19,7.47-9.28,12.92-12.25,5.44-2.97,11.59-4.46,18.43-4.46,8.23,0,15.67,2.12,22.33,6.36,6.65,4.25,11.9,9.95,15.77,17.1,3.86,7.16,5.79,15.23,5.79,24.22s-1.93,16.88-5.79,24.04c-3.87,7.16-9.12,12.83-15.77,17-6.65,4.18-14.09,6.27-22.33,6.27Zm-3.42-19.76c5.06,0,9.53-1.17,13.39-3.51,3.86-2.34,6.9-5.61,9.12-9.79,2.21-4.18,3.33-8.99,3.33-14.44s-1.11-10.26-3.33-14.44c-2.22-4.18-5.26-7.44-9.12-9.79-3.87-2.34-8.33-3.51-13.39-3.51s-9.57,1.17-13.49,3.51c-3.93,2.35-6.97,5.61-9.12,9.79-2.16,4.18-3.23,9-3.23,14.44s1.07,10.26,3.23,14.44c2.15,4.18,5.19,7.44,9.12,9.79,3.92,2.35,8.42,3.51,13.49,3.51Z"/><path class="cls-2" d="m1073.18,138.85c-9.12,0-17.32-2.06-24.6-6.18-7.29-4.11-13.05-9.78-17.29-17-4.25-7.22-6.37-15.32-6.37-24.32s2.09-17.07,6.27-24.23c4.18-7.15,9.85-12.83,17-17,7.16-4.18,15.11-6.27,23.85-6.27s15.99,1.96,22.51,5.89c6.52,3.93,11.65,9.31,15.39,16.15,3.74,6.84,5.61,14.63,5.61,23.37,0,1.52-.09,3.07-.29,4.66-.19,1.59-.47,3.33-.85,5.23h-74.86v-17.1h64.03l-7.79,6.84c-.26-5.57-1.33-10.26-3.23-14.06-1.9-3.8-4.59-6.71-8.08-8.74-3.49-2.02-7.76-3.04-12.82-3.04-5.32,0-9.95,1.14-13.87,3.42-3.93,2.28-6.97,5.48-9.12,9.6-2.16,4.12-3.23,9.02-3.23,14.72s1.14,10.71,3.42,15.01c2.28,4.31,5.51,7.63,9.69,9.98,4.18,2.34,8.99,3.51,14.44,3.51,4.69,0,9.03-.82,13.02-2.47,3.99-1.65,7.38-4.05,10.17-7.22l13.3,13.49c-4.44,5.2-9.82,9.12-16.15,11.78-6.33,2.66-13.05,3.99-20.14,3.99Z"/><path class="cls-2" d="m1174.26,138.85c-9,0-17.13-2.09-24.42-6.27-7.29-4.18-13.01-9.88-17.2-17.1-4.18-7.22-6.27-15.26-6.27-24.13s2.09-17.07,6.27-24.23c4.18-7.15,9.91-12.83,17.2-17,7.28-4.18,15.42-6.27,24.42-6.27,7.09,0,13.71,1.36,19.85,4.08,6.14,2.72,11.37,6.62,15.68,11.68l-13.68,13.87c-2.66-3.17-5.86-5.54-9.59-7.12-3.74-1.58-7.82-2.38-12.25-2.38-5.2,0-9.79,1.17-13.78,3.51-3.99,2.35-7.09,5.54-9.31,9.6-2.22,4.05-3.33,8.8-3.33,14.25s1.11,10.04,3.33,14.15c2.21,4.12,5.32,7.35,9.31,9.69,3.99,2.34,8.58,3.51,13.78,3.51,4.43,0,8.52-.79,12.25-2.38,3.73-1.58,6.93-3.96,9.59-7.12l13.68,13.87c-4.31,5.07-9.53,8.96-15.68,11.69-6.14,2.72-12.76,4.08-19.85,4.08Z"/><path class="cls-2" d="m50.65,165.53c-10.26,0-17.83-2.75-22.71-8.27-4.88-5.51-6.87-13.52-5.99-24.03l2.09-24.7c.38-4.43-.07-7.66-1.33-9.69-1.27-2.02-3.68-3.04-7.22-3.04h-5.32v-16.15h5.32c3.54,0,5.95-1.04,7.22-3.14,1.26-2.09,1.71-5.29,1.33-9.59l-2.09-24.13c-.89-10.51,1.11-18.53,5.99-24.04,4.87-5.51,12.44-8.26,22.71-8.26h10.64v16.53h-9.12c-5.32,0-8.9,1.17-10.74,3.51-1.84,2.34-2.5,6.17-2,11.5l1.71,21.09c.5,5.32.28,9.82-.67,13.49-.95,3.67-2.92,6.71-5.89,9.12-2.98,2.41-7.25,4.37-12.83,5.89v-7.22c5.57,1.27,9.85,3.07,12.83,5.42,2.97,2.34,4.94,5.35,5.89,9.02.95,3.68,1.17,8.17.67,13.49l-1.71,21.66c-.38,5.32.31,9.15,2.09,11.5,1.77,2.34,5.32,3.51,10.64,3.51h9.12v16.53h-10.64Z"/><path class="cls-2" d="m300.53,165.53h-10.64v-16.53h9.12c5.32,0,8.86-1.17,10.64-3.51,1.77-2.34,2.47-6.18,2.09-11.5l-1.71-21.66c-.38-5.32-.13-9.81.76-13.49.88-3.67,2.82-6.68,5.79-9.02,2.97-2.34,7.25-4.15,12.83-5.42v7.22c-5.58-1.52-9.85-3.48-12.83-5.89-2.98-2.41-4.91-5.45-5.79-9.12-.89-3.67-1.14-8.17-.76-13.49l1.71-21.09c.5-5.32-.16-9.15-2-11.5-1.84-2.34-5.42-3.51-10.73-3.51h-9.12V10.49h10.64c10.26,0,17.86,2.75,22.8,8.26s6.9,13.52,5.89,24.04l-2.09,24.13c-.38,4.31.06,7.5,1.33,9.59,1.26,2.09,3.67,3.14,7.22,3.14h5.32v16.15h-5.32c-3.55,0-5.96,1.02-7.22,3.04-1.27,2.03-1.71,5.26-1.33,9.69l2.09,24.7c.88,10.51-1.11,18.52-5.99,24.03-4.88,5.51-12.44,8.27-22.7,8.27Z"/></g></svg>