<?xml version="1.0" encoding="UTF-8"?><svg id="Layer_1" xmlns="http://www.w3.org/2000/svg" xmlns:xlink="http://www.w3.org/1999/xlink" viewBox="0 0 546.14 377.02"><defs><clipPath id="clippath"><polygon points="100.8 190.1 64.06 171.82 67.48 166.17 102.47 187.35 100.8 190.1" fill="none"/></clipPath></defs><rect width="546.14" height="377.02" fill="#fff"/><rect x="214.1" y="169.93" width="24.66" height="11.96" rx="5.98" ry="5.98" fill="#f7c7b7"/><path d="M128.57,252.19l-29.03-66.03c-2.68-6.11-9.27-9.12-14.71-6.73h0c-5.44,2.39-7.67,9.28-4.99,15.38l29.03,66.03c2.7,6.13,9.33,9.14,14.77,6.7h0c5.4-2.42,7.59-9.28,4.92-15.36Z" fill="#c69c6d"/><path d="M64.99,260.87l12.18-71.09c1.13-6.57-2.71-12.72-8.56-13.72h0c-5.86-1-11.52,3.51-12.64,10.09l-12.18,71.09c-1.13,6.6,2.74,12.77,8.63,13.73h0c5.84.95,11.45-3.56,12.57-10.1Z" fill="#c69c6d"/><path d="M117.34,333.98l12.18-71.09c1.13-6.57-2.71-12.72-8.56-13.72h0c-5.86-1-11.52,3.51-12.64,10.09l-12.18,71.09c-1.13,6.6,2.74,12.77,8.63,13.73h0c5.84.95,11.45-3.56,12.57-10.1Z" fill="#c69c6d"/><path d="M52.38,334.26l12.18-71.09c1.13-6.57-2.71-12.72-8.56-13.72h0c-5.86-1-11.52,3.51-12.64,10.09l-12.18,71.09c-1.13,6.6,2.74,12.77,8.63,13.73h0c5.84.95,11.45-3.56,12.57-10.1Z" fill="#c69c6d"/><rect x="28.99" y="323.67" width="35.76" height="20.53" rx="10.27" ry="10.27" transform="translate(93.75 667.88) rotate(180)" fill="#754c24"/><rect x="90.93" y="323.67" width="38.65" height="20.53" rx="10.27" ry="10.27" transform="translate(220.5 667.88) rotate(-180)" fill="#754c24"/><rect x="141.99" y="88.97" width="15.2" height="26" rx="5.82" ry="5.82" transform="translate(124.27 281.23) rotate(-116.24)" fill="#f7c7b7"/><path d="M154.64,100.11h0c6.68,15.19,24.79,22.36,41.77,16.55l56.29-19.26c4.69-2.06,6.96-7.25,5.05-11.59l-22.87-52.02c-1.91-4.33-7.26-6.18-11.95-4.11l-52.24,28.46c-15.77,8.59-22.72,26.78-16.05,41.97Z" fill="#f7c7b7"/><circle cx="185.86" cy="46.42" r="10.58" fill="#f7c7b7"/><circle cx="76.25" cy="187.47" r="20.11" fill="#c69c6d"/><path d="M68.56,172.65l26.67,13.15c3.31,2.2,5.15,3.91,8,.41l43.08-52.81c4.69-5.66,6.38-12.82,3.49-14.78l-36.1-24.41c-2.9-1.96-8.91,2.28-12.41,8.74l-31.94,58.93c-2.61,4.82-2.93,9.31-.78,10.77Z" fill="#d9eef9"/><rect x="117.13" y="83.73" width="24.89" height="58.48" rx="12.44" ry="12.44" transform="translate(279.72 29.26) rotate(109.78)" fill="#d9eef9"/><rect x="144.79" y="112.6" width="24.89" height="78.17" rx="12.44" ry="12.44" transform="translate(-57.53 111.6) rotate(-33.4)" fill="#d9eef9"/><rect x="179.05" y="147.35" width="23.16" height="57.13" rx="11.58" ry="11.58" transform="translate(14.71 366.54) rotate(-90)" fill="#d9eef9"/><rect x="126.41" y="105.4" width="24.71" height="9.7" rx="4.85" ry="4.85" transform="translate(83.77 -58.23) rotate(33.45)" fill="#d9eef9"/><path d="M210.94,72.08c.22,3.98-.62,7.91-2.55,11.44h2.88c-1.42-3.26-3.13-6.38-5.1-9.33-.5-.75-1.47-1.07-2.28-.6-.74.43-1.1,1.53-.6,2.28,1.98,2.95,3.68,6.07,5.1,9.33.51,1.17,2.33,1.01,2.88,0,2.19-4,3.26-8.57,3-13.12-.05-.9-.73-1.67-1.67-1.67-.86,0-1.72.76-1.67,1.67h0Z" fill="#db8e73"/><path d="M172.83,81.21c.22,3.98-.62,7.91-2.55,11.44-.43.79-.19,1.82.6,2.28s1.85.19,2.28-.6c2.19-4,3.26-8.57,3-13.12-.05-.9-.73-1.67-1.67-1.67-.86,0-1.72.76-1.67,1.67h0Z" fill="#db8e73"/><path d="M191.81,95.51l-1.51-3.74,13.39-1.97c.98-.14,1.52,1.11.73,1.72l-7.06,5.48c-1.89,1.47-4.66.72-5.55-1.5Z" fill="#db8e73"/><circle cx="223.18" cy="104.45" r="17.16" fill="#fff" stroke="#4b4b4b" stroke-miterlimit="10" stroke-width="3.34"/><rect x="204.66" y="116.08" width="7.79" height="18.9" rx="3.89" ry="3.89" transform="translate(95.18 -89.87) rotate(31.2)" fill="#4b4b4b"/><circle cx="201.69" cy="138.26" r="11.06" fill="#f7c7b7"/><circle cx="221.69" cy="113.05" r="4.74" fill="#4b4b4b"/><path d="M247.12,99.43c21.49-4.43,35.57-25.45,12.66-42.86-22.9-17.41-.22-.17-.32-.25-7.17-5.47-15.1-18.3-19.52-26.11-2.03-3.58-6.73-4.94-10.77-3.13l-6.74,3.03,22.91,69.68,1.78-.37Z" fill="#c69c6d"/><circle cx="126.25" cy="133.33" r="1.97" fill="#b3d1eb"/><circle cx="119.63" cy="142.4" r="1.97" fill="#b3d1eb"/><circle cx="113" cy="151.46" r="1.97" fill="#b3d1eb"/><circle cx="106.37" cy="160.53" r="1.97" fill="#b3d1eb"/><circle cx="99.75" cy="169.59" r="1.97" fill="#b3d1eb"/><g clip-path="url(#clippath)"><rect x="62.81" y="176.28" width="40.9" height="6.61" transform="translate(105.02 -17.16) rotate(31.18)" fill="#754c24"/><rect x="87.3" y="181.14" width="8.07" height="6.61" transform="translate(108.7 -20.64) rotate(31.18)" fill="#c9c9c9"/><rect x="80.13" y="175.09" width="2.31" height="6.61" transform="translate(104.11 -16.31) rotate(31.18)" fill="#c69c6d"/><rect x="68.87" y="168.27" width="2.31" height="6.61" transform="translate(98.96 -11.47) rotate(31.18)" fill="#c69c6d"/></g><rect x="156.7" y="94.2" width="23.16" height="65.38" rx="11.58" ry="11.58" transform="translate(344.63 11.46) rotate(109.78)" fill="#d9eef9"/><rect x="213.41" y="165.46" width="37.51" height="4.83" rx="2.42" ry="2.42" fill="#4b4b4b"/><rect x="165.09" y="272.03" width="5.89" height="5.89" fill="#387f79"/><path d="M170.7,336.93c-.99,0-1.84-.14-2.56-.42-.71-.28-1.25-.69-1.64-1.22-.38-.54-.57-1.18-.57-1.91s.18-1.31.55-1.8c.38-.51.92-.9,1.63-1.17.72-.27,1.58-.41,2.6-.41s1.86.14,2.58.41c.72.27,1.27.66,1.64,1.17.39.49.58,1.1.58,1.8s-.19,1.37-.58,1.91c-.39.53-.94.94-1.66,1.22-.72.28-1.57.42-2.56.42ZM170.7,335.85c1.1,0,1.95-.22,2.56-.67.62-.45.94-1.05.94-1.82s-.31-1.37-.94-1.8c-.61-.45-1.47-.67-2.56-.67s-1.95.22-2.56.67c-.61.44-.92,1.04-.92,1.8s.31,1.37.92,1.82c.61.45,1.47.67,2.56.67ZM170.7,330.73c-.92,0-1.7-.12-2.35-.37-.64-.25-1.13-.6-1.47-1.06-.34-.47-.51-1.03-.51-1.68,0-.68.18-1.27.53-1.75.37-.49.87-.87,1.52-1.13.65-.26,1.41-.39,2.28-.39s1.63.13,2.28.39c.66.26,1.17.64,1.54,1.13.37.48.55,1.07.55,1.75,0,.65-.17,1.21-.51,1.68-.34.46-.84.81-1.5,1.06-.65.25-1.43.37-2.35.37ZM170.7,329.88c.97,0,1.72-.2,2.26-.6.54-.4.81-.94.81-1.61,0-.71-.28-1.25-.85-1.64-.55-.4-1.3-.6-2.23-.6s-1.67.2-2.23.6c-.55.39-.83.93-.83,1.63s.27,1.23.8,1.63c.54.4,1.3.6,2.26.6Z"/><path d="M170.62,309.06c-.99,0-1.94-.13-2.84-.39-.91-.27-1.64-.62-2.19-1.04l.97-2.16c.53.38,1.15.69,1.87.94.73.24,1.47.35,2.21.35.57,0,1.02-.05,1.36-.16.35-.12.61-.28.78-.48.16-.2.25-.43.25-.69,0-.33-.13-.59-.39-.78-.26-.2-.6-.36-1.02-.48-.42-.13-.9-.25-1.41-.35-.51-.12-1.02-.26-1.54-.42-.51-.16-.97-.38-1.4-.64-.42-.26-.77-.6-1.04-1.02-.26-.42-.39-.97-.39-1.63,0-.71.19-1.35.57-1.93.39-.59.97-1.05,1.73-1.4.78-.35,1.75-.53,2.92-.53.78,0,1.54.09,2.3.28.75.18,1.42.45,2,.81l-.88,2.17c-.58-.33-1.15-.57-1.73-.72-.58-.16-1.14-.25-1.7-.25s-1.01.06-1.36.19c-.35.13-.61.3-.76.51-.15.2-.23.44-.23.71,0,.32.13.58.39.78.26.19.6.34,1.02.46.42.12.89.24,1.4.35.52.12,1.03.25,1.54.41.52.15.99.36,1.41.62.42.26.77.6,1.02,1.02.27.42.41.96.41,1.61,0,.7-.19,1.33-.58,1.91-.39.58-.97,1.04-1.75,1.4-.77.35-1.74.53-2.92.53Z"/><path d="M196,308.85v-12.37h2.37l5.27,8.73h-1.25l5.18-8.73h2.35l.04,12.37h-2.69l-.02-8.25h.49l-4.13,6.94h-1.29l-4.22-6.94h.6v8.25h-2.69Z"/><rect x="194.54" y="266.14" width="11.78" height="11.78" fill="#387f79"/><path d="M197.61,336.82v-11.84l.57.6h-3.48v-1.13h4.19v12.37h-1.27ZM206.91,336.93c-1.1,0-2.02-.24-2.77-.72-.75-.49-1.33-1.2-1.71-2.12-.39-.93-.58-2.04-.58-3.34,0-1.4.24-2.57.71-3.52.48-.95,1.15-1.67,2-2.16.85-.48,1.83-.72,2.95-.72.55,0,1.08.05,1.59.16.51.11.95.28,1.34.51l-.51,1.02c-.32-.21-.68-.36-1.1-.44-.41-.09-.85-.14-1.31-.14-1.33,0-2.4.42-3.2,1.27-.79.85-1.18,2.11-1.18,3.8,0,.26.01.58.04.97.04.38.11.75.21,1.13l-.44-.34c.13-.61.38-1.13.76-1.55.38-.44.85-.77,1.41-.99.57-.22,1.18-.34,1.86-.34.82,0,1.55.15,2.17.46.62.31,1.11.74,1.47,1.29.35.55.53,1.21.53,1.96s-.18,1.44-.55,2.01c-.37.57-.87,1.01-1.52,1.33-.64.31-1.35.46-2.16.46ZM206.86,335.85c.59,0,1.11-.11,1.55-.32.46-.22.82-.54,1.08-.94.26-.41.39-.89.39-1.43,0-.81-.28-1.46-.85-1.94-.55-.48-1.31-.72-2.26-.72-.64,0-1.19.12-1.66.35-.47.24-.84.56-1.11.97-.27.4-.41.86-.41,1.38,0,.45.12.88.37,1.29.25.4.61.73,1.1.99.49.25,1.1.37,1.8.37Z"/><rect x="229.88" y="260.25" width="17.67" height="17.67" fill="#387f79"/><path d="M230.56,336.82v-.9l5.14-5.04c.47-.46.82-.86,1.06-1.2.24-.35.39-.68.48-.99s.12-.59.12-.87c0-.72-.25-1.28-.74-1.7-.48-.41-1.2-.62-2.16-.62-.73,0-1.38.11-1.94.34-.55.22-1.03.57-1.43,1.04l-.9-.78c.48-.57,1.1-1,1.86-1.31.75-.31,1.6-.46,2.53-.46.84,0,1.56.14,2.17.41.61.26,1.08.64,1.41,1.15.34.51.51,1.1.51,1.78,0,.4-.06.8-.18,1.18-.11.39-.31.8-.6,1.24-.28.42-.7.91-1.25,1.45l-4.72,4.63-.35-.49h7.67v1.13h-8.68ZM240.23,333.57v-.92l6.56-8.2h1.41l-6.5,8.2-.69-.21h9.95v1.13h-10.73ZM247.21,336.82v-3.25l.04-1.13v-2.86h1.24v7.24h-1.27Z"/><path d="M270.36,308.85v-12.37h2.86v10.04h6.2v2.33h-9.06Z"/><rect x="268.9" y="254.36" width="23.56" height="23.56" fill="#387f79"/><path d="M273.51,336.93c-.9,0-1.74-.14-2.54-.42-.79-.29-1.43-.68-1.91-1.17l.62-1.01c.4.41.94.75,1.61,1.02.68.27,1.43.41,2.23.41,1.02,0,1.81-.22,2.35-.67.55-.45.83-1.05.83-1.8s-.27-1.35-.81-1.8c-.53-.45-1.37-.67-2.53-.67h-.88v-.94l3.82-4.79.18.49h-6.89v-1.13h7.95v.9l-3.82,4.79-.62-.41h.48c1.48,0,2.59.33,3.32.99.74.66,1.11,1.51,1.11,2.54,0,.7-.16,1.32-.49,1.87s-.83.99-1.5,1.31c-.66.32-1.49.48-2.49.48ZM279.47,336.82v-.9l5.14-5.04c.47-.46.82-.86,1.06-1.2.24-.35.39-.68.48-.99s.12-.59.12-.87c0-.72-.25-1.28-.74-1.7-.48-.41-1.2-.62-2.16-.62-.73,0-1.38.11-1.94.34-.55.22-1.03.57-1.43,1.04l-.9-.78c.48-.57,1.1-1,1.86-1.31.75-.31,1.6-.46,2.53-.46.84,0,1.56.14,2.17.41.61.26,1.08.64,1.41,1.15.34.51.51,1.1.51,1.78,0,.4-.06.8-.18,1.18-.11.39-.31.8-.6,1.24-.28.42-.7.91-1.25,1.45l-4.72,4.63-.35-.49h7.67v1.13h-8.68Z"/><rect x="310.13" y="248.47" width="29.45" height="29.45" fill="#387f79"/><path d="M310.83,333.57v-.92l6.56-8.2h1.41l-6.5,8.2-.69-.21h9.95v1.13h-10.73ZM317.81,336.82v-3.25l.04-1.13v-2.86h1.24v7.24h-1.27ZM327.66,336.93c-.95,0-1.8-.25-2.54-.74-.74-.51-1.33-1.23-1.75-2.16-.42-.94-.64-2.07-.64-3.39s.21-2.44.64-3.38c.42-.94,1.01-1.66,1.75-2.16.74-.51,1.59-.76,2.54-.76s1.8.25,2.54.76c.74.49,1.33,1.21,1.75,2.16.44.93.65,2.06.65,3.38s-.22,2.45-.65,3.39c-.42.93-1.01,1.65-1.75,2.16-.74.49-1.59.74-2.54.74ZM327.66,335.76c.73,0,1.37-.19,1.91-.58.54-.4.97-.98,1.27-1.73.31-.77.46-1.7.46-2.81s-.15-2.04-.46-2.79c-.31-.77-.73-1.34-1.27-1.73-.54-.4-1.18-.6-1.91-.6s-1.34.2-1.89.6c-.55.39-.98.97-1.29,1.73-.31.75-.46,1.68-.46,2.79s.15,2.04.46,2.81c.31.75.74,1.33,1.29,1.73.55.39,1.18.58,1.89.58Z"/><path d="M357.3,308.85l5.32-7.33v2.09l-5.09-7.12h3.25l3.52,4.97-1.36.02,3.46-4.98h3.11l-5.05,7v-2.05l5.35,7.42h-3.3l-3.64-5.25h1.31l-3.59,5.25h-3.29ZM370.93,308.85v-12.37h2.86v10.04h6.2v2.33h-9.06Z"/><rect x="357.25" y="242.58" width="35.34" height="35.34" fill="#387f79"/><path d="M357.96,333.57v-.92l6.56-8.2h1.41l-6.5,8.2-.69-.21h9.95v1.13h-10.73ZM364.93,336.82v-3.25l.04-1.13v-2.86h1.24v7.24h-1.27ZM374.72,336.93c-.99,0-1.84-.14-2.56-.42-.71-.28-1.25-.69-1.64-1.22-.38-.54-.57-1.18-.57-1.91s.18-1.31.55-1.8c.38-.51.92-.9,1.63-1.17.72-.27,1.58-.41,2.6-.41s1.86.14,2.58.41c.72.27,1.27.66,1.64,1.17.39.49.58,1.1.58,1.8s-.19,1.37-.58,1.91c-.39.53-.94.94-1.66,1.22-.72.28-1.57.42-2.56.42ZM374.72,335.85c1.1,0,1.95-.22,2.56-.67.62-.45.94-1.05.94-1.82s-.31-1.37-.94-1.8c-.61-.45-1.47-.67-2.56-.67s-1.95.22-2.56.67c-.61.44-.92,1.04-.92,1.8s.31,1.37.92,1.82,1.47.67,2.56.67ZM374.72,330.73c-.92,0-1.7-.12-2.35-.37-.64-.25-1.12-.6-1.47-1.06-.34-.47-.51-1.03-.51-1.68,0-.68.18-1.27.53-1.75.37-.49.87-.87,1.52-1.13s1.41-.39,2.28-.39,1.63.13,2.28.39c.66.26,1.17.64,1.54,1.13.37.48.55,1.07.55,1.75,0,.65-.17,1.21-.51,1.68-.34.46-.84.81-1.5,1.06-.65.25-1.43.37-2.35.37ZM374.72,329.88c.97,0,1.72-.2,2.26-.6s.81-.94.81-1.61c0-.71-.28-1.25-.85-1.64-.55-.4-1.3-.6-2.23-.6s-1.67.2-2.23.6c-.55.39-.83.93-.83,1.63s.27,1.23.8,1.63c.54.4,1.3.6,2.26.6Z"/><rect x="410.26" y="236.69" width="41.23" height="41.23" fill="#387f79"/><path d="M415.08,336.93c-.88,0-1.73-.14-2.53-.42-.8-.29-1.44-.68-1.91-1.17l.62-1.01c.39.41.92.75,1.59,1.02.68.27,1.42.41,2.21.41,1.05,0,1.84-.23,2.39-.69.55-.47.83-1.08.83-1.84,0-.53-.13-.98-.39-1.36-.25-.39-.67-.69-1.27-.9-.6-.21-1.43-.32-2.47-.32h-2.63l.64-6.2h6.77v1.13h-6.26l.65-.62-.55,5.2-.65-.64h2.31c1.25,0,2.25.15,3,.46.75.31,1.3.74,1.63,1.29.34.54.51,1.18.51,1.91s-.16,1.33-.49,1.91c-.33.57-.82,1.01-1.48,1.34s-1.5.49-2.51.49ZM426.26,336.93c-1.1,0-2.02-.24-2.77-.72-.75-.49-1.33-1.2-1.71-2.12-.39-.93-.58-2.04-.58-3.34,0-1.4.24-2.57.71-3.52.48-.95,1.15-1.67,2-2.16.85-.48,1.83-.72,2.95-.72.55,0,1.08.05,1.59.16.51.11.95.28,1.34.51l-.51,1.02c-.32-.21-.68-.36-1.1-.44-.41-.09-.85-.14-1.31-.14-1.33,0-2.4.42-3.2,1.27-.79.85-1.18,2.11-1.18,3.8,0,.26.01.58.04.97.04.38.11.75.21,1.13l-.44-.34c.13-.61.38-1.13.76-1.55.38-.44.85-.77,1.41-.99.57-.22,1.18-.34,1.86-.34.82,0,1.55.15,2.17.46s1.11.74,1.47,1.29c.35.55.53,1.21.53,1.96s-.18,1.44-.55,2.01c-.37.57-.87,1.01-1.52,1.33-.64.31-1.35.46-2.16.46ZM426.2,335.85c.59,0,1.11-.11,1.55-.32.46-.22.82-.54,1.08-.94.26-.41.39-.89.39-1.43,0-.81-.28-1.46-.85-1.94-.55-.48-1.31-.72-2.26-.72-.64,0-1.19.12-1.66.35-.47.24-.84.56-1.11.97-.27.4-.41.86-.41,1.38,0,.45.12.88.37,1.29.25.4.61.73,1.1.99.49.25,1.1.37,1.8.37Z"/><path d="M470.63,308.85v-12.37h2.37l5.27,8.73h-1.25l5.18-8.73h2.35l.04,12.37h-2.69l-.02-8.25h.49l-4.13,6.94h-1.29l-4.22-6.94h.6v8.25h-2.69ZM492.03,308.99c-1.08,0-2.04-.21-2.86-.64-.81-.42-1.44-1-1.89-1.73-.45-.74-.67-1.58-.67-2.53s.22-1.8.65-2.53c.45-.74,1.05-1.32,1.82-1.73.77-.42,1.63-.64,2.6-.64s1.77.2,2.51.6c.75.39,1.35.95,1.78,1.7.44.73.65,1.61.65,2.63,0,.11,0,.23-.02.37-.01.13-.02.25-.04.37h-7.72v-1.61h6.27l-1.06.48c0-.49-.1-.92-.3-1.29-.2-.37-.48-.65-.83-.85-.35-.21-.77-.32-1.24-.32s-.89.11-1.25.32c-.35.2-.63.49-.83.87-.2.37-.3.8-.3,1.31v.42c0,.52.11.98.34,1.38.24.39.56.69.97.9.42.2.92.3,1.48.3.51,0,.95-.08,1.33-.23.39-.15.74-.38,1.06-.69l1.47,1.59c-.44.49-.98.88-1.64,1.15-.66.26-1.42.39-2.28.39ZM502.93,312.42c-.9,0-1.76-.11-2.6-.34-.82-.21-1.51-.54-2.07-.97l1.1-1.98c.4.33.91.59,1.52.78.62.2,1.24.3,1.84.3.98,0,1.68-.22,2.12-.65.45-.44.67-1.08.67-1.94v-1.43l.18-2.39-.04-2.4v-2.05h2.62v7.92c0,1.77-.46,3.07-1.38,3.91-.92.84-2.24,1.25-3.96,1.25ZM502.5,308.39c-.88,0-1.68-.19-2.4-.57-.71-.39-1.28-.92-1.71-1.61-.42-.7-.64-1.5-.64-2.42s.21-1.74.64-2.42c.44-.7,1.01-1.23,1.71-1.61.72-.38,1.52-.57,2.4-.57.8,0,1.51.16,2.12.49.61.32,1.09.82,1.43,1.5.34.67.51,1.54.51,2.6s-.17,1.91-.51,2.6c-.34.67-.82,1.17-1.43,1.5-.61.33-1.32.49-2.12.49ZM503.05,306.13c.48,0,.91-.09,1.29-.28.38-.2.67-.48.88-.83s.32-.76.32-1.22-.11-.88-.32-1.22c-.21-.35-.51-.62-.88-.81-.38-.2-.81-.3-1.29-.3s-.91.1-1.29.3c-.38.19-.68.46-.9.81-.21.34-.32.75-.32,1.22s.11.87.32,1.22c.22.35.52.63.9.83.38.19.81.28,1.29.28ZM516.66,308.85v-1.86l-.18-.41v-3.32c0-.59-.18-1.05-.55-1.38-.35-.33-.9-.49-1.64-.49-.51,0-1.01.08-1.5.25-.48.15-.9.37-1.24.64l-.99-1.93c.52-.37,1.14-.65,1.87-.85.73-.2,1.47-.3,2.23-.3,1.45,0,2.57.34,3.37,1.02.8.68,1.2,1.75,1.2,3.2v5.42h-2.58ZM513.76,308.99c-.74,0-1.38-.12-1.91-.37-.53-.26-.94-.61-1.22-1.04-.28-.44-.42-.92-.42-1.47s.14-1.06.41-1.48c.28-.42.72-.75,1.33-.99.6-.25,1.38-.37,2.35-.37h2.53v1.61h-2.23c-.65,0-1.1.11-1.34.32-.24.21-.35.48-.35.8,0,.35.14.64.41.85.28.2.67.3,1.15.3s.87-.11,1.24-.32c.37-.22.63-.55.8-.97l.42,1.27c-.2.61-.57,1.08-1.1,1.4s-1.21.48-2.05.48Z"/><rect x="469.16" y="230.8" width="47.12" height="47.12" fill="#387f79"/><path d="M475.15,336.93c-1.1,0-2.02-.24-2.77-.72-.75-.49-1.33-1.2-1.71-2.12-.39-.93-.58-2.04-.58-3.34,0-1.4.24-2.57.71-3.52.48-.95,1.15-1.67,2-2.16.85-.48,1.83-.72,2.95-.72.55,0,1.08.05,1.59.16.51.11.95.28,1.34.51l-.51,1.02c-.32-.21-.68-.36-1.1-.44-.41-.09-.85-.14-1.31-.14-1.33,0-2.4.42-3.2,1.27-.79.85-1.18,2.11-1.18,3.8,0,.26.01.58.04.97.04.38.11.75.21,1.13l-.44-.34c.13-.61.38-1.13.76-1.55.38-.44.85-.77,1.41-.99.57-.22,1.18-.34,1.86-.34.82,0,1.55.15,2.17.46s1.11.74,1.47,1.29c.35.55.53,1.21.53,1.96s-.18,1.44-.55,2.01c-.37.57-.87,1.01-1.52,1.33-.64.31-1.35.46-2.16.46ZM475.1,335.85c.59,0,1.11-.11,1.55-.32.46-.22.82-.54,1.08-.94.26-.41.39-.89.39-1.43,0-.81-.28-1.46-.85-1.94-.55-.48-1.31-.72-2.26-.72-.64,0-1.19.12-1.66.35s-.84.56-1.11.97c-.27.4-.41.86-.41,1.38,0,.45.12.88.37,1.29.25.4.61.73,1.1.99.49.25,1.1.37,1.8.37ZM480.63,333.57v-.92l6.56-8.2h1.41l-6.5,8.2-.69-.21h9.95v1.13h-10.73ZM487.61,336.82v-3.25l.04-1.13v-2.86h1.24v7.24h-1.27Z"/></svg>