<svg width="1834" height="1009" viewBox="0 0 1834 1009" fill="none" xmlns="http://www.w3.org/2000/svg">
<g clip-path="url(#clip0_4012_18138)">
<rect width="1834" height="1009" fill="#E6EBF1"/>
<circle cx="327.5" cy="327.5" r="327.5" transform="matrix(-1 0 0 1 758 -171)" fill="#038179"/>
<circle cx="230.5" cy="230.5" r="230.5" transform="matrix(-1 0 0 1 1778 794)" fill="#038179"/>
<circle cx="40" cy="40" r="40" transform="matrix(-1 0 0 1 1565 149)" fill="#4D5D6E"/>
<ellipse cx="21" cy="20.5" rx="21" ry="20.5" transform="matrix(-1 0 0 1 1484 108)" fill="#EC033E"/>
<circle cx="40" cy="40" r="40" transform="matrix(-0.707084 -0.70713 -0.70713 0.707084 658.988 920.57)" fill="#038179"/>
<ellipse cx="21" cy="20.5" rx="21" ry="20.5" transform="matrix(-0.707084 -0.70713 -0.70713 0.707084 700 961.584)" fill="#4D5D6E"/>
<ellipse cx="15.5" cy="15" rx="15.5" ry="15" transform="matrix(-1 0 0 1 546 518)" fill="#EC033E"/>
</g>
<defs>
<clipPath id="clip0_4012_18138">
<rect width="1834" height="1009" fill="white"/>
</clipPath>
</defs>
</svg>
