<svg width="1834" height="1009" viewBox="0 0 1834 1009" fill="none" xmlns="http://www.w3.org/2000/svg">
<rect width="1834" height="1009" fill="#E6EBF1"/>
<circle cx="104.5" cy="104.5" r="104.5" transform="matrix(-1 0 0 1 390 345)" fill="#038179"/>
<circle cx="110" cy="110" r="110" transform="matrix(-1 0 0 1 1700 284)" fill="#038179"/>
<circle cx="40" cy="40" r="40" transform="matrix(-0.156838 -0.987624 -0.987624 0.156838 1330.56 668.908)" fill="#4D5D6E"/>
<ellipse cx="21" cy="20.5" rx="21" ry="20.5" transform="matrix(-0.156838 -0.987624 -0.987624 0.156838 1358.35 582.48)" fill="#EC033E"/>
<circle cx="40" cy="40" r="40" transform="matrix(-0.707084 -0.70713 -0.70713 0.707084 520.137 610.57)" fill="#038179"/>
<circle cx="40" cy="40" r="40" transform="matrix(-0.707084 -0.70713 -0.70713 0.707084 1328.14 184.57)" fill="#038179"/>
<ellipse cx="21" cy="20.5" rx="21" ry="20.5" transform="matrix(-0.707084 -0.70713 -0.70713 0.707084 561.148 651.584)" fill="#4D5D6E"/>
<ellipse cx="21" cy="20.5" rx="21" ry="20.5" transform="matrix(-0.707084 -0.70713 -0.70713 0.707084 1369.15 225.584)" fill="#4D5D6E"/>
<ellipse cx="15.5" cy="15" rx="15.5" ry="15" transform="matrix(-1 0 0 1 464 484)" fill="#EC033E"/>
</svg>
