<?xml version="1.0" encoding="UTF-8"?><svg id="Layer_3" xmlns="http://www.w3.org/2000/svg" xmlns:xlink="http://www.w3.org/1999/xlink" viewBox="0 0 1380.64 1363.13"><defs><clipPath id="clippath"><circle cx="690.32" cy="672.25" r="631.43" fill="none"/></clipPath><clipPath id="clippath-1"><path d="M805.23,1195.07c-125.98,42.45-222.79-8.32-223.42-10.26,4.33-18.66,11.86-34.16,11.86-34.16,0,0,79.82,51.66,207.12,11.68l4.44,32.74Z" fill="none"/></clipPath><clipPath id="clippath-2"><path d="M659.54,693.22c.82-24.67,21.49-44.01,46.16-43.19,24.67.82,44.01,21.49,43.19,46.16-.82,24.67-19.92-3.23-44.59-4.05-24.67-.82-45.58,25.75-44.76,1.07Z" fill="none"/></clipPath></defs><g clip-path="url(#clippath)"><circle cx="690.32" cy="672.25" r="631.43" fill="#181e31"/><circle cx="690.32" cy="672.25" r="536.04" fill="#fff"/><line x1="699.23" y1="1073.92" x2="699.23" y2="1148.03" fill="none" opacity=".5" stroke="#616878" stroke-linecap="round" stroke-miterlimit="10" stroke-width="16.31"/><line x1="699.23" y1="183" x2="699.23" y2="255.98" fill="none" opacity=".5" stroke="#616878" stroke-linecap="round" stroke-miterlimit="10" stroke-width="16.31"/><line x1="290.82" y1="665.52" x2="216.71" y2="665.52" fill="none" opacity=".5" stroke="#616878" stroke-linecap="round" stroke-miterlimit="10" stroke-width="16.31"/><line x1="1181.74" y1="665.52" x2="1108.77" y2="665.52" fill="none" opacity=".5" stroke="#616878" stroke-linecap="round" stroke-miterlimit="10" stroke-width="16.31"/><line x1="364.58" y1="431.41" x2="303.85" y2="388.93" fill="none" opacity=".5" stroke="#616878" stroke-linecap="round" stroke-miterlimit="10" stroke-width="16.31"/><line x1="1094.6" y1="942.1" x2="1034.8" y2="900.27" fill="none" opacity=".5" stroke="#616878" stroke-linecap="round" stroke-miterlimit="10" stroke-width="16.31"/><line x1="524.45" y1="296.39" x2="492.74" y2="229.42" fill="none" opacity=".5" stroke="#616878" stroke-linecap="round" stroke-miterlimit="10" stroke-width="16.31"/><line x1="905.71" y1="1101.62" x2="874.48" y2="1035.66" fill="none" opacity=".5" stroke="#616878" stroke-linecap="round" stroke-miterlimit="10" stroke-width="16.31"/><line x1="905.87" y1="313.24" x2="943.36" y2="249.32" fill="none" opacity=".5" stroke="#616878" stroke-linecap="round" stroke-miterlimit="10" stroke-width="16.31"/><line x1="455.09" y1="1081.71" x2="492.02" y2="1018.77" fill="none" opacity=".5" stroke="#616878" stroke-linecap="round" stroke-miterlimit="10" stroke-width="16.31"/><line x1="1051.02" y1="458.06" x2="1114.85" y2="420.41" fill="none" opacity=".5" stroke="#616878" stroke-linecap="round" stroke-miterlimit="10" stroke-width="16.31"/><line x1="283.6" y1="910.62" x2="346.46" y2="873.55" fill="none" opacity=".5" stroke="#616878" stroke-linecap="round" stroke-miterlimit="10" stroke-width="16.31"/><line x1="699.23" y1="665.52" x2="699.23" y2="192.53" fill="none" stroke="#616878" stroke-linecap="round" stroke-miterlimit="10" stroke-width="37.79"/><line x1="699.23" y1="665.52" x2="834.44" y2="665.52" fill="none" stroke="#616878" stroke-linecap="round" stroke-miterlimit="10" stroke-width="37.79"/><path d="M811.95,1254.16c0,57.24-49.61,55.21-104.75,62.83-5.11.71-10.34,1.07-15.65,1.07-10.11,0-19.9-1.32-29.23-3.81-48.38-12.89-105.43-3.42-98.74-55.44,2.53-19.71,20.23-93.98,29.87-110.63,19.58-33.85,56.18-56.63,98.1-56.63,46.91,0,92.16,27.91,109.36,68.55,0,0,11.04,78.41,11.04,94.04Z" fill="#c49a6d"/><path d="M727.07,1631.72l-30.58-366.62c-2.83-33.9,20.75-63.54,52.67-66.2h0c31.92-2.66,60.08,22.66,62.91,56.56l30.58,366.62c2.84,34.06-20.97,63.79-53.05,66.23h0c-31.78,2.43-59.71-22.85-62.53-56.59Z" fill="#c49a6d"/><rect x="673.76" y="721.17" width="62.64" height="107.13" rx="23.99" ry="23.99" fill="#f6c7b7"/><rect x="491.79" y="637.59" width="102.54" height="315" rx="51.27" ry="51.27" transform="translate(-380.79 523.83) rotate(-39.3)" fill="#d7ecf7"/><path d="M702.04,749.45h0c-68.35-.04-125.41-56.48-131.62-130.21l-20.57-244.26c.01-21.13,15.84-38.25,35.35-38.24l234.14.13c19.51.01,35.32,17.15,35.31,38.28l-20.84,244.24c-6.29,73.72-63.41,130.1-131.76,130.06Z" fill="#f6c7b7"/><circle cx="540.9" cy="489.42" r="43.58" fill="#f6c7b7"/><circle cx="865.56" cy="489.42" r="43.58" fill="#f6c7b7"/><path d="M774.98,1192.72l-142.96-.95c-19.86-.13-36.44-14.05-38.45-32.3l-30.48-275.6c-3.59-29.71,9.45-57.63,26.91-57.63h217.7c17.46,0,30.5,27.93,26.91,57.63l-32.71,270.87c-2.67,22.13-13.9,37.98-26.91,37.98Z" fill="#d7ecf7"/><rect x="655.5" y="797.6" width="99.87" height="41.12" rx="20.56" ry="20.56" fill="#d7ecf7"/><circle cx="698.01" cy="891.51" r="7.89" fill="#b3d1eb"/><circle cx="695.99" cy="936.45" r="7.89" fill="#b3d1eb"/><circle cx="693.97" cy="981.38" r="7.89" fill="#b3d1eb"/><circle cx="691.95" cy="1026.32" r="7.89" fill="#b3d1eb"/><circle cx="689.93" cy="1071.25" r="7.89" fill="#b3d1eb"/><g clip-path="url(#clippath-1)"><path d="M839.54,1220.47c-88.3,36.36-279.41,10.04-279.41,10.04l2.46-120.5s132.93,32.33,260.23-7.65l16.73,118.11Z" fill="#754c24"/><polygon points="761.57 1170.07 750.55 1172.02 759.2 1218.22 770.22 1216.27 761.57 1170.07" fill="#c49a6d"/><polygon points="637.98 1162.89 626.97 1160.9 618.14 1207.07 629.15 1209.06 637.98 1162.89" fill="#c49a6d"/><polygon points="714.05 1174.26 669.25 1174.26 664.07 1221.22 710.65 1224.42 714.05 1174.26" fill="#c7c7c7"/></g><rect x="512.23" y="1265.51" width="112.28" height="782.07" transform="translate(219.32 -59.66) rotate(7.44)" fill="#c49a6d"/><path d="M702.51,633.69h0c-8.6,0-15.56-8.56-15.56-19.11l9.38-34.11c1.44-5.25,8.83-5.43,10.52-.25l10.91,33.37c.22.67.34,1.38.3,2.08-.46,10.05-7.25,18.02-15.55,18.02Z" fill="#db8e73"/><path d="M852.98,399.99c10.26-89.81-53.23-172-149.97-104.81-96.75,67.19-.93.63-1.38.95-30.34,21-90.22,35.49-126.15,42.73-16.47,3.32-27.75,19.96-25.88,38.13l3.12,30.27,299.41.17.85-7.43Z" fill="#c49a6d"/><rect x="808.55" y="653.64" width="102.54" height="296.89" rx="49.82" ry="49.82" transform="translate(1017.09 1967.39) rotate(-140.7)" fill="#d7ecf7"/><rect x="849.63" y="489.89" width="95.44" height="285.22" rx="47.72" ry="47.72" transform="translate(-145.35 288.9) rotate(-16.94)" fill="#d7ecf7"/><path d="M635.95,523.83c13.78-.13,35.47,6.61,41.32,17.53-2.04.08-25.85-4.3-43.62,5.88" fill="none" stroke="#db8e73" stroke-linecap="round" stroke-linejoin="round" stroke-width="11.98"/><path d="M769.58,528.27c-13.74-1.04-35.84,4.24-42.4,14.75,2.03.21,26.08-2.57,43.14,8.76" fill="none" stroke="#db8e73" stroke-linecap="round" stroke-linejoin="round" stroke-width="11.98"/><g clip-path="url(#clippath-2)"><path d="M659.54,693.22c.82-24.67,21.49-44.01,46.16-43.19,24.67.82,44.01,21.49,43.19,46.16-.82,24.67-19.92-3.23-44.59-4.05-24.67-.82-45.58,25.75-44.76,1.07Z" fill="#bb2f36"/><ellipse cx="704.25" cy="693.6" rx="16.07" ry="22.38" transform="translate(-12.38 1374.4) rotate(-88.09)" fill="#e8896d"/></g><rect x="451.23" y="490.35" width="95.44" height="264.29" rx="47.72" ry="47.72" transform="translate(794.88 1363.35) rotate(-163.06)" fill="#d7ecf7"/><path d="M950.74,440.97c4.12,1.38,8.68-.63,10.39-4.7l16.55-39.3c1.8-4.27-.2-9.18-4.47-10.98l-39.3-16.55c-.2-.08-.39-.16-.59-.22-4.12-1.38-8.67.63-10.39,4.69l-16.55,39.3c-1.8,4.26.21,9.18,4.47,10.98l39.3,16.55c.2.08.39.16.59.22" fill="#ea8f9b"/><path d="M973.16,365.11c1.95.65,4.19.22,5.77-1.31l20.69-20.13c2.25-2.18,2.3-5.77.11-8.02l-20.12-20.69c-.65-.67-1.43-1.15-2.26-1.42-1.95-.66-4.19-.22-5.76,1.31l-20.69,20.12c-2.25,2.19-2.3,5.78-.11,8.03l20.13,20.69c.65.67,1.43,1.14,2.26,1.42" fill="#ea8f9b" opacity=".75"/><path d="M1007.81,407.32c.77.26,1.62.29,2.46.04l19.99-5.89c2.17-.64,3.41-2.92,2.77-5.09l-5.89-19.99c-.39-1.33-1.4-2.31-2.63-2.73-.77-.26-1.62-.29-2.46-.04l-19.99,5.89c-2.17.64-3.41,2.92-2.77,5.09l5.9,19.99c.39,1.33,1.4,2.31,2.62,2.73" fill="#ea8f9b" opacity=".5"/><path d="M522.79,389.1c1.02-4.23-1.39-8.59-5.6-9.94l-40.61-13.02c-4.41-1.42-9.13,1.01-10.54,5.42l-13.02,40.6c-.06.2-.12.41-.17.61-1.02,4.23,1.39,8.58,5.59,9.93l40.61,13.02c4.41,1.41,9.13-1.02,10.54-5.43l13.02-40.61c.06-.2.12-.41.17-.61" fill="#ea8f9b"/><path d="M445.25,373.46c.48-2-.15-4.19-1.82-5.63l-21.87-18.83c-2.37-2.05-5.95-1.78-8,.6l-18.83,21.87c-.61.71-1.02,1.52-1.22,2.38-.48,2,.15,4.19,1.82,5.63l21.87,18.84c2.38,2.05,5.96,1.78,8.01-.6l18.84-21.87c.61-.71,1.01-1.52,1.22-2.37" fill="#ea8f9b" opacity=".75"/><path d="M484.24,335.22c.19-.79.15-1.64-.17-2.46l-7.63-19.39c-.83-2.11-3.21-3.14-5.31-2.31l-19.39,7.63c-1.29.51-2.18,1.6-2.48,2.86-.19.79-.15,1.64.17,2.45l7.63,19.39c.83,2.1,3.21,3.14,5.31,2.31l19.39-7.63c1.29-.51,2.18-1.6,2.48-2.85" fill="#ea8f9b" opacity=".5"/></g></svg>