<?xml version="1.0" encoding="UTF-8"?><svg id="Layer_1" xmlns="http://www.w3.org/2000/svg" xmlns:xlink="http://www.w3.org/1999/xlink" viewBox="0 0 1143.61 1219.93"><defs><clipPath id="clippath"><path d="M906.04,607.22s26.02.53,30.24.68c4.22.15,12.52-2.33,6.7-23.96-5.83-21.62-14.12-20.26-17.1-17.6-1.25,1.12-4.91,9.41-10.11,14.06-7.15,6.39-16.15,9.41-16.15,9.41-2.76,2.47-3.93,6.26-3.03,9.85h0c1.09,4.35,4.96,7.44,9.44,7.55Z" fill="none"/></clipPath></defs><path d="M892.98,663.09c116.41,4.62,40.94,137.97,167.36,321.61,8.14,11.82,19.43,21.01,32.41,27.13,20.54,9.67,9.71,27.29,1.58,33.16-42.21,30.45-228.5,18.21-286.88-42.38-97.53-121.19-12.19-344.82,85.52-339.5Z" fill="#ea8f9b"/><path d="M934.31,1006.29l-49.59-135.95c-3.39-13.56,16.54-37.67,28.62-40.69h0c12.08-3.02,24.62,5.52,28.01,19.08l36.69,146.62c3.41,13.62-3.71,27.11-15.87,30.06h0c-12.04,2.92-24.49-5.62-27.86-19.11Z" fill="#181e31"/><path d="M953.08,1162.59l-17.53-150.12c-1.62-13.88,7.09-26.3,19.45-27.75h0c12.36-1.44,23.7,8.64,25.32,22.52l17.53,150.12c1.63,13.95-7.17,26.41-19.6,27.77h0c-12.32,1.35-23.56-8.72-25.18-22.54Z" fill="#181e31"/><rect x="880.12" y="614.77" width="31.85" height="54.48" rx="12.2" ry="12.2" transform="translate(82.13 -101.37) rotate(6.79)" fill="#ffc5b4"/><path d="M897.22,629.04h0c-34.51-4.11-59.95-36.02-58.68-73.62l4.22-124.58c1.27-10.67,10.29-18.37,20.14-17.2l118.23,14.07c9.85,1.17,16.81,10.77,15.54,21.44l-25.13,122.09c-7.59,36.85-39.8,61.91-74.32,57.8Z" fill="#ffc5b4"/><circle cx="833.4" cy="516.02" r="22.16" fill="#ffc5b4"/><circle cx="985.77" cy="533.69" r="22.16" fill="#ffc5b4"/><g clip-path="url(#clippath)"><polygon points="898.44 607.05 953.73 611.6 939.93 552.97 895.14 593.84 898.44 607.05" fill="#bb2f36"/><ellipse cx="934.61" cy="595.84" rx="14.09" ry="10.12" transform="translate(-116.7 244.74) rotate(-14.05)" fill="#e8896d"/><rect x="895.35" y="598.23" width="50.34" height="9.79" transform="translate(1838.32 1210.38) rotate(-179.74)" fill="#fff"/></g><path d="M839.06,537.47l1.53-42.4,28.29,3.27c3.77-2.04,8.08-3.22,12.67-3.27,7.03-.07,13.46,2.53,18.34,6.85l6.68,6.7,8.35-4.97c4.05-2.47,8.81-3.92,13.9-3.97,7.54-.07,14.39,2.92,19.38,7.81l35.62,4.11-8.6,41.77-31.16-3.64c-4.22,2.78-9.26,4.42-14.69,4.48-7.9.08-15.05-3.22-20.08-8.54l-4.99-6.31-6.38,4.98c-4.44,3.25-9.89,5.2-15.81,5.25-8.39.08-15.94-3.64-21-9.55l-22.04-2.57Z" fill="#181e31"/><circle cx="929.08" cy="526.94" r="18.33" fill="#fff"/><circle cx="926.51" cy="526.49" r="9.09" fill="#3d3d3d"/><circle cx="881.82" cy="523.74" r="18.33" fill="#fff"/><circle cx="885.12" cy="523.71" r="9.09" fill="#3d3d3d"/><path d="M944.98,548.09l15.65-6.67-7.21-16.91s-8.09-1.11-23.07,5.28c-14.98,6.39-19.78,13-19.78,13l34.41,5.31Z" fill="#181e31"/><path d="M852.29,530.2l9.75,8.21s23.08,6.45,35.55,3.65c-2.09-3.27-5.99-8.26-12.94-14.12-12.45-10.49-20.52-11.8-20.52-11.8l-11.84,14.06Z" fill="#181e31"/><path d="M945.11,855.5c0,30.66-24.86,55.52-55.52,55.52-30.66,0-55.52-24.86-55.52-55.52,0-30.66,24.86-55.52,55.52-55.52,30.66,0,55.52,24.86,55.52,55.52Z" fill="#181e31"/><rect x="960.16" y="643" width="52.14" height="169.32" rx="26.07" ry="26.07" transform="translate(2178.17 442.29) rotate(130.12)" fill="#181e31"/><rect x="942.46" y="1156.99" width="72.88" height="43.02" rx="21.51" ry="21.51" fill="#636a7a"/><path d="M928.91,851.61l-71.28-.49c-9.9-.07-18.17-7.19-19.17-16.52l-15.2-140.95c-1.79-15.19,4.71-29.48,13.42-29.48h108.54c8.7,0,15.2,14.28,13.42,29.48l-16.31,138.53c-1.33,11.32-6.93,19.43-13.42,19.43Z" fill="#181e31"/><rect x="868.94" y="651.94" width="48.1" height="22.29" rx="11.14" ry="11.14" transform="translate(1785.97 1326.17) rotate(-180)" fill="#181e31"/><path d="M842.13,439.15c-.67-45.97,35.94-84.29,81.94-45.32,46,38.97.44.37.66.55,14.43,12.18,44.28,22.59,62.26,28.1,8.25,2.52,13.16,11.53,11.28,20.62l-3.14,15.16-152.94-15.3-.06-3.8Z" fill="#cd9965"/><path d="M899.34,575.81h0c4.34.52,8.37-3.38,9.01-8.71l-2.68-17.79c-.41-2.74-4.13-3.27-5.3-.76l-7.52,16.19c-.15.32-.25.68-.28,1.03-.37,5.1,2.57,9.54,6.77,10.04Z" fill="#e8896d"/><rect x="761.88" y="573.76" width="52.14" height="169.32" rx="26.07" ry="26.07" transform="translate(1799.18 480.07) rotate(130.12)" fill="#181e31"/><path d="M841.83,1003.29l54.21-138.08c3.39-13.56-21.17-35.54-33.24-38.56h0c-12.08-3.02-24.62,5.52-28.01,19.08l-36.69,146.62c-3.41,13.62,3.71,27.11,15.87,30.06h0c12.04,2.92,24.49-5.62,27.86-19.11Z" fill="#181e31"/><path d="M823.06,1159.59l17.53-150.12c1.62-13.88-7.09-26.3-19.45-27.75h0c-12.36-1.44-23.7,8.64-25.32,22.52l-17.53,150.12c-1.63,13.95,7.17,26.41,19.6,27.77h0c12.32,1.35,23.56-8.72,25.18-22.54Z" fill="#181e31"/><rect x="760.81" y="1156.99" width="72.88" height="43.02" rx="21.51" ry="21.51" transform="translate(1594.5 2357.01) rotate(180)" fill="#636a7a"/><path d="M880.84,735.37v24.93s19.56,11.4,19.56,11.4c0,0-2.38,7.33-13.53,7.33-19.16,0-17.79-21.59-17.79-21.59v-15s11.76-7.07,11.76-7.07Z" fill="#454c5c" stroke="#ea8f9b" stroke-miterlimit="10" stroke-width="3.86"/><path d="M881.27,746.51l21.43,12.59,19.65-11.24s5.15,5.73-.42,15.38c-9.58,16.59-25.14,6.02-25.14,6.02l-15.4-9.04-.11-13.72Z" fill="#454c5c" stroke="#ea8f9b" stroke-miterlimit="10" stroke-width="3.86"/><path d="M890.53,751.96l21.54-12.41.55-22.63s7.57-1.45,12.95,8.32c9.25,16.78-7.85,24.64-7.85,24.64l-15.83,8.73-11.36-6.63Z" fill="#454c5c" stroke="#ea8f9b" stroke-miterlimit="10" stroke-width="3.86"/><path d="M900.11,746.3l.5-25.05-19.33-11.79s2.53-7.28,13.68-7.06c19.16.38,17.41,19.11,17.41,19.11l-.36,18.08-11.9,6.71Z" fill="#454c5c" stroke="#ea8f9b" stroke-miterlimit="10" stroke-width="3.86"/><path d="M900.07,735.39l-21.52-12.7-19.9,10.79s-5.02-5.84.77-15.37c9.96-16.37,25.27-5.45,25.27-5.45l15.45,9.39-.07,13.34Z" fill="#454c5c" stroke="#ea8f9b" stroke-miterlimit="10" stroke-width="3.86"/><path d="M890.27,729.78l-21.81,12.59-.1,22.64s-7.54,1.6-13.11-8.06c-9.58-16.59,7.35-24.79,7.35-24.79l15.66-9.04,12.01,6.65Z" fill="#454c5c" stroke="#ea8f9b" stroke-miterlimit="10" stroke-width="3.86"/><circle cx="944.98" cy="851.61" r="22.16" fill="#ffc5b4"/><circle cx="691.12" cy="505.41" r="22.16" fill="#ffc5b4"/><rect x="977.13" y="729.41" width="48.53" height="136.99" rx="24.27" ry="24.27" transform="translate(1145.29 2070.21) rotate(-135)" fill="#181e31"/><rect x="693.72" y="500.9" width="50.73" height="143.19" rx="25.36" ry="25.36" transform="translate(-176.61 366.19) rotate(-25.55)" fill="#181e31"/><rect x="99.4" y="134.66" width="692.39" height="159.22" rx="26.17" ry="26.17" fill="#373e4f" stroke="#616878" stroke-miterlimit="10" stroke-width="22.21"/><text transform="translate(143.67 241.75)" fill="#fff" font-family="Inconsolata-Bold, Inconsolata" font-size="87.29" font-variation-settings="&apos;wght&apos; 700, &apos;wdth&apos; 100" font-weight="700" opacity=".6"><tspan x="0" y="0">def</tspan></text><text transform="translate(321.73 241.75)" fill="#3cbbc4" font-family="Inconsolata-Bold, Inconsolata" font-size="87.29" font-variation-settings="&apos;wght&apos; 700, &apos;wdth&apos; 100" font-weight="700"><tspan x="0" y="0">sum</tspan></text><text transform="translate(459.6 241.75)" fill="#fff" font-family="Inconsolata-Bold, Inconsolata" font-size="87.29" font-variation-settings="&apos;wght&apos; 700, &apos;wdth&apos; 100" font-weight="700"><tspan x="0" y="0">(</tspan></text><text transform="translate(508.84 241.75)" fill="#fff" font-family="Inconsolata-Bold, Inconsolata" font-size="87.29" font-variation-settings="&apos;wght&apos; 700, &apos;wdth&apos; 100" font-weight="700" opacity=".6"><tspan x="0" y="0">a,b</tspan></text><text transform="translate(641.92 241.75)" fill="#fff" font-family="Inconsolata-Bold, Inconsolata" font-size="87.29" font-variation-settings="&apos;wght&apos; 700, &apos;wdth&apos; 100" font-weight="700"><tspan x="0" y="0">):</tspan></text><rect x="171.45" y="333.94" width="620.34" height="159.22" rx="24.77" ry="24.77" fill="#373e4f" stroke="#616878" stroke-miterlimit="10" stroke-width="21.02"/><text transform="translate(216 440.94)" fill="#ea8f9b" font-family="Inconsolata-Bold, Inconsolata" font-size="87.29" font-variation-settings="&apos;wght&apos; 700, &apos;wdth&apos; 100" font-weight="700"><tspan x="0" y="0">return</tspan></text><text transform="translate(535.95 440.94)" fill="#fff" font-family="Inconsolata-Bold, Inconsolata" font-size="87.29" font-variation-settings="&apos;wght&apos; 700, &apos;wdth&apos; 100" font-weight="700" opacity=".6"><tspan x="0" y="0">a</tspan></text><text transform="translate(607.31 440.94)" fill="#ea8f9b" font-family="Inconsolata-Bold, Inconsolata" font-size="87.29" font-variation-settings="&apos;wght&apos; 700, &apos;wdth&apos; 100" font-weight="700"><tspan x="0" y="0">+</tspan></text><text transform="translate(680.94 440.94)" fill="#fff" font-family="Inconsolata-Bold, Inconsolata" font-size="87.29" font-variation-settings="&apos;wght&apos; 700, &apos;wdth&apos; 100" font-weight="700" opacity=".6"><tspan x="0" y="0">b</tspan></text><path d="M107.44,484.21c-3.49-1.22-7.38.44-8.89,3.88l-14.49,33.24c-1.58,3.61.07,7.81,3.68,9.38l33.24,14.49c.17.07.33.14.5.2,3.49,1.22,7.38-.44,8.88-3.88l14.5-33.24c1.57-3.61-.08-7.81-3.69-9.38l-33.24-14.49c-.17-.07-.33-.14-.5-.2" fill="#ea8f9b"/><path d="M87.56,548.47c-1.65-.58-3.56-.23-4.92,1.05l-17.81,16.89c-1.93,1.83-2.02,4.89-.18,6.82l16.89,17.81c.55.58,1.2.99,1.91,1.24,1.65.58,3.56.23,4.91-1.05l17.81-16.89c1.93-1.84,2.01-4.89.18-6.82l-16.89-17.81c-.55-.58-1.2-.99-1.9-1.23" fill="#ea8f9b" opacity=".75"/><path d="M58.55,512.21c-.65-.23-1.38-.27-2.09-.06l-17.06,4.8c-1.85.52-2.93,2.45-2.41,4.3l4.79,17.06c.32,1.14,1.17,1.98,2.21,2.35.65.23,1.38.26,2.09.06l17.06-4.79c1.85-.52,2.93-2.45,2.41-4.3l-4.8-17.06c-.32-1.14-1.17-1.98-2.2-2.35" fill="#ea8f9b" opacity=".5"/><path d="M853.64,133.19c3.51,1.18,7.38-.53,8.84-3.99l14.07-33.42c1.53-3.63-.17-7.81-3.8-9.33l-33.42-14.07c-.17-.07-.33-.13-.5-.19-3.5-1.18-7.38.53-8.83,3.99l-14.07,33.42c-1.53,3.63.18,7.81,3.81,9.34l33.42,14.07c.17.07.33.13.5.19" fill="#ea8f9b"/><path d="M872.7,68.68c1.66.56,3.56.19,4.9-1.12l17.59-17.12c1.91-1.86,1.95-4.91.09-6.82l-17.11-17.59c-.55-.57-1.22-.97-1.92-1.21-1.66-.56-3.56-.19-4.9,1.12l-17.6,17.11c-1.91,1.86-1.95,4.91-.1,6.83l17.11,17.59c.55.57,1.21.97,1.92,1.21" fill="#ea8f9b" opacity=".75"/><path d="M902.17,104.57c.66.22,1.38.25,2.09.04l16.99-5.01c1.85-.54,2.9-2.48,2.36-4.33l-5.01-17c-.34-1.13-1.19-1.97-2.24-2.32-.65-.22-1.38-.25-2.09-.04l-17,5.01c-1.84.55-2.9,2.48-2.36,4.33l5.01,17c.33,1.13,1.19,1.97,2.23,2.32" fill="#ea8f9b" opacity=".5"/></svg>