<?xml version="1.0" encoding="UTF-8"?><svg id="Layer_2" xmlns="http://www.w3.org/2000/svg" viewBox="0 0 1383.92 966.13"><path d="M210.85,215.1c-.97,0-1.71-.27-2.24-.81-.52-.54-.78-1.3-.78-2.26v-35.59c0-1.01.26-1.77.78-2.29.52-.52,1.27-.78,2.24-.78s1.71.26,2.24.78c.52.52.78,1.29.78,2.29v35.59c0,.97-.25,1.72-.75,2.26-.5.54-1.26.81-2.26.81Z"/><path d="M225.65,215.1c-.93,0-1.65-.26-2.15-.78-.5-.52-.75-1.25-.75-2.18v-23.22c0-.97.25-1.7.75-2.21.5-.5,1.2-.75,2.09-.75s1.63.25,2.12.75c.48.5.73,1.24.73,2.21v4.53l-.64-1.05c.85-2.17,2.19-3.8,4-4.91,1.82-1.1,3.91-1.65,6.27-1.65s4.11.42,5.6,1.25c1.49.83,2.6,2.09,3.34,3.77s1.1,3.8,1.1,6.36v14.92c0,.93-.25,1.66-.75,2.18s-1.22.78-2.15.78-1.7-.26-2.21-.78c-.5-.52-.75-1.25-.75-2.18v-14.57c0-2.44-.47-4.22-1.42-5.34-.95-1.12-2.43-1.68-4.44-1.68-2.36,0-4.25.74-5.66,2.21-1.41,1.47-2.12,3.45-2.12,5.92v13.47c0,1.97-.99,2.96-2.96,2.96Z"/><path d="M266.12,215.21c-1.7,0-3.45-.19-5.25-.58-1.8-.39-3.45-1.04-4.96-1.97-.5-.35-.85-.73-1.04-1.16-.19-.42-.26-.86-.2-1.31.06-.44.23-.83.52-1.16.29-.33.66-.53,1.1-.61.44-.08.92.02,1.42.29,1.51.85,2.96,1.44,4.35,1.77,1.39.33,2.77.49,4.12.49,2.05,0,3.6-.37,4.64-1.1,1.04-.73,1.57-1.72,1.57-2.96,0-1.01-.35-1.79-1.04-2.35-.7-.56-1.74-1-3.13-1.31l-5.51-1.1c-2.4-.5-4.22-1.39-5.46-2.67-1.24-1.28-1.86-2.9-1.86-4.88,0-1.78.48-3.33,1.45-4.64.97-1.32,2.32-2.33,4.06-3.05,1.74-.72,3.75-1.07,6.04-1.07,1.7,0,3.31.21,4.82.64,1.51.43,2.9,1.06,4.18,1.92.5.27.83.63.99,1.07.15.45.18.88.09,1.31-.1.43-.3.8-.61,1.13-.31.33-.69.52-1.13.58-.45.06-.94-.05-1.48-.32-1.16-.74-2.31-1.26-3.45-1.57-1.14-.31-2.27-.46-3.4-.46-2.05,0-3.59.38-4.62,1.13s-1.54,1.77-1.54,3.05c0,.97.31,1.76.93,2.38s1.59,1.06,2.9,1.33l5.52,1.1c2.52.5,4.42,1.36,5.72,2.55,1.3,1.2,1.95,2.83,1.95,4.88,0,2.67-1.07,4.78-3.19,6.33-2.13,1.55-4.95,2.32-8.48,2.32Z"/><path d="M296.07,215.21c-2.32,0-4.28-.41-5.86-1.22-1.59-.81-2.77-2.01-3.54-3.6s-1.16-3.52-1.16-5.81v-13.7h-3.48c-.78,0-1.38-.2-1.8-.61-.43-.41-.64-.96-.64-1.66,0-.73.21-1.3.64-1.68.42-.39,1.02-.58,1.8-.58h3.48v-5.98c0-.97.26-1.7.78-2.21.52-.5,1.25-.75,2.18-.75s1.64.25,2.15.75c.5.5.75,1.24.75,2.21v5.98h6.79c.77,0,1.37.19,1.8.58.42.39.64.95.64,1.68s-.21,1.25-.64,1.66c-.43.41-1.03.61-1.8.61h-6.79v13.24c0,2.05.44,3.6,1.31,4.64s2.29,1.57,4.27,1.57c.7,0,1.31-.07,1.83-.2.52-.13.96-.22,1.31-.26.43,0,.77.15,1.04.44s.41.84.41,1.65c0,.58-.11,1.12-.32,1.63-.21.5-.59.83-1.13.99-.46.15-1.09.3-1.89.44-.79.13-1.5.2-2.12.2Z"/><path d="M308.15,215.1c-.97,0-1.7-.26-2.21-.78-.5-.52-.75-1.25-.75-2.18v-23.22c0-.97.25-1.7.75-2.21.5-.5,1.2-.75,2.09-.75s1.63.25,2.12.75c.48.5.73,1.24.73,2.21v4.24h-.58c.62-2.32,1.76-4.08,3.42-5.28,1.66-1.2,3.79-1.9,6.39-2.09.7-.04,1.25.14,1.65.52s.63.99.67,1.8c.08.81-.1,1.46-.52,1.95-.43.48-1.08.76-1.97.84l-1.1.12c-2.52.23-4.43,1.03-5.75,2.38-1.32,1.36-1.97,3.21-1.97,5.57v13.18c0,.93-.24,1.66-.73,2.18-.48.52-1.23.78-2.24.78Z"/><path d="M336.94,215.21c-2.28,0-4.19-.43-5.72-1.28-1.53-.85-2.67-2.12-3.42-3.8-.75-1.68-1.13-3.8-1.13-6.36v-14.86c0-1.01.25-1.75.75-2.24.5-.48,1.22-.73,2.15-.73s1.65.24,2.18.73c.52.48.78,1.23.78,2.24v14.92c0,2.28.46,3.97,1.39,5.05.93,1.08,2.4,1.63,4.41,1.63,2.21,0,4-.75,5.37-2.24,1.37-1.49,2.06-3.45,2.06-5.89v-13.47c0-1.01.25-1.75.75-2.24.5-.48,1.24-.73,2.21-.73s1.64.24,2.15.73c.5.48.75,1.23.75,2.24v23.22c0,1.97-.95,2.96-2.84,2.96-.89,0-1.59-.26-2.09-.78s-.75-1.25-.75-2.18v-4.93l.75,1.28c-.77,2.17-2.01,3.83-3.71,4.99-1.7,1.16-3.72,1.74-6.04,1.74Z"/><path d="M372.35,215.21c-2.9,0-5.41-.61-7.52-1.83-2.11-1.22-3.74-2.94-4.91-5.17s-1.74-4.85-1.74-7.87c0-2.24.33-4.27.99-6.07.66-1.8,1.6-3.32,2.82-4.56,1.22-1.24,2.71-2.2,4.47-2.87,1.76-.68,3.72-1.02,5.89-1.02,1.35,0,2.78.2,4.27.61,1.49.41,2.87,1.07,4.15,2,.5.31.82.69.96,1.13.14.45.15.9.06,1.36-.1.46-.31.86-.64,1.19s-.73.52-1.19.58c-.46.06-.97-.07-1.51-.38-.93-.66-1.88-1.13-2.84-1.42-.97-.29-1.9-.44-2.79-.44-1.39,0-2.62.22-3.69.67-1.06.45-1.96,1.08-2.7,1.92-.74.83-1.29,1.87-1.65,3.11-.37,1.24-.55,2.65-.55,4.24,0,3.17.75,5.66,2.24,7.46,1.49,1.8,3.61,2.7,6.36,2.7.89,0,1.82-.13,2.79-.41.97-.27,1.92-.73,2.84-1.39.54-.31,1.04-.42,1.51-.35.46.08.84.28,1.13.61.29.33.48.72.58,1.16.1.45.07.9-.09,1.36-.16.46-.48.85-.99,1.16-1.24.89-2.58,1.53-4.03,1.92-1.45.39-2.85.58-4.21.58Z"/><path d="M399.12,215.21c-2.32,0-4.28-.41-5.86-1.22-1.59-.81-2.77-2.01-3.54-3.6s-1.16-3.52-1.16-5.81v-13.7h-3.48c-.78,0-1.38-.2-1.8-.61-.43-.41-.64-.96-.64-1.66,0-.73.21-1.3.64-1.68.42-.39,1.02-.58,1.8-.58h3.48v-5.98c0-.97.26-1.7.78-2.21.52-.5,1.25-.75,2.18-.75s1.64.25,2.15.75c.5.5.75,1.24.75,2.21v5.98h6.79c.77,0,1.37.19,1.8.58.42.39.64.95.64,1.68s-.21,1.25-.64,1.66c-.43.41-1.03.61-1.8.61h-6.79v13.24c0,2.05.44,3.6,1.31,4.64s2.29,1.57,4.27,1.57c.7,0,1.31-.07,1.83-.2.52-.13.96-.22,1.31-.26.43,0,.77.15,1.04.44s.41.84.41,1.65c0,.58-.11,1.12-.32,1.63-.21.5-.59.83-1.13.99-.46.15-1.09.3-1.89.44-.79.13-1.5.2-2.12.2Z"/><path d="M420.25,215.21c-2.86,0-5.33-.6-7.4-1.8-2.07-1.2-3.69-2.9-4.85-5.11s-1.74-4.8-1.74-7.78c0-2.28.33-4.32.99-6.1.66-1.78,1.6-3.32,2.82-4.62,1.22-1.3,2.69-2.28,4.41-2.96,1.72-.68,3.65-1.02,5.78-1.02,2.83,0,5.27.6,7.34,1.8,2.07,1.2,3.69,2.89,4.85,5.08,1.16,2.19,1.74,4.79,1.74,7.81,0,2.25-.33,4.28-.99,6.1-.66,1.82-1.6,3.37-2.82,4.64-1.22,1.28-2.69,2.25-4.41,2.93-1.72.68-3.63,1.02-5.72,1.02ZM420.25,210.68c1.59,0,2.98-.39,4.18-1.16,1.2-.77,2.14-1.92,2.82-3.42.68-1.51,1.02-3.37,1.02-5.57,0-3.33-.74-5.84-2.21-7.55-1.47-1.7-3.41-2.55-5.81-2.55-1.62,0-3.04.38-4.24,1.13-1.2.75-2.14,1.89-2.82,3.4-.68,1.51-1.02,3.37-1.02,5.57,0,3.29.74,5.81,2.21,7.55s3.43,2.61,5.86,2.61Z"/><path d="M443.7,215.1c-.97,0-1.7-.26-2.21-.78-.5-.52-.75-1.25-.75-2.18v-23.22c0-.97.25-1.7.75-2.21.5-.5,1.2-.75,2.09-.75s1.63.25,2.12.75c.48.5.73,1.24.73,2.21v4.24h-.58c.62-2.32,1.76-4.08,3.42-5.28,1.66-1.2,3.79-1.9,6.39-2.09.7-.04,1.25.14,1.65.52s.63.99.67,1.8c.08.81-.1,1.46-.52,1.95-.43.48-1.08.76-1.97.84l-1.1.12c-2.52.23-4.43,1.03-5.75,2.38-1.32,1.36-1.97,3.21-1.97,5.57v13.18c0,.93-.24,1.66-.73,2.18-.48.52-1.23.78-2.24.78Z"/><path d="M472.03,215.21c-1.7,0-3.45-.19-5.25-.58-1.8-.39-3.45-1.04-4.96-1.97-.5-.35-.85-.73-1.04-1.16-.19-.42-.26-.86-.2-1.31.06-.44.23-.83.52-1.16.29-.33.66-.53,1.1-.61.44-.08.92.02,1.42.29,1.51.85,2.96,1.44,4.35,1.77,1.39.33,2.77.49,4.12.49,2.05,0,3.6-.37,4.64-1.1,1.04-.73,1.57-1.72,1.57-2.96,0-1.01-.35-1.79-1.04-2.35-.7-.56-1.74-1-3.13-1.31l-5.51-1.1c-2.4-.5-4.22-1.39-5.46-2.67-1.24-1.28-1.86-2.9-1.86-4.88,0-1.78.48-3.33,1.45-4.64.97-1.32,2.32-2.33,4.06-3.05,1.74-.72,3.75-1.07,6.04-1.07,1.7,0,3.31.21,4.82.64,1.51.43,2.9,1.06,4.18,1.92.5.27.83.63.99,1.07.15.45.18.88.09,1.31-.1.43-.3.8-.61,1.13-.31.33-.69.52-1.13.58-.45.06-.94-.05-1.48-.32-1.16-.74-2.31-1.26-3.45-1.57-1.14-.31-2.27-.46-3.4-.46-2.05,0-3.59.38-4.62,1.13s-1.54,1.77-1.54,3.05c0,.97.31,1.76.93,2.38s1.59,1.06,2.9,1.33l5.52,1.1c2.52.5,4.42,1.36,5.72,2.55,1.3,1.2,1.95,2.83,1.95,4.88,0,2.67-1.07,4.78-3.19,6.33-2.13,1.55-4.95,2.32-8.48,2.32Z"/><path d="M947.46,215.21c-4.14,0-7.68-.85-10.62-2.55-2.94-1.7-5.2-4.13-6.76-7.29-1.57-3.15-2.35-6.88-2.35-11.18,0-3.21.44-6.1,1.33-8.68.89-2.57,2.18-4.78,3.86-6.62,1.68-1.84,3.75-3.24,6.21-4.21,2.46-.97,5.23-1.45,8.33-1.45,2.28,0,4.48.31,6.59.93,2.11.62,3.94,1.51,5.49,2.67.66.43,1.09.94,1.31,1.54.21.6.25,1.17.12,1.71s-.4,1-.78,1.36c-.39.37-.88.57-1.48.61-.6.04-1.25-.17-1.95-.64-1.28-.97-2.69-1.68-4.24-2.15-1.55-.46-3.17-.7-4.88-.7-2.94,0-5.42.61-7.43,1.83-2.01,1.22-3.54,2.99-4.59,5.31s-1.57,5.15-1.57,8.48.52,6.16,1.57,8.5c1.04,2.34,2.57,4.12,4.59,5.34,2.01,1.22,4.49,1.83,7.43,1.83,1.7,0,3.34-.24,4.91-.73,1.57-.48,3.05-1.21,4.44-2.18.7-.43,1.33-.62,1.89-.58.56.04,1.04.23,1.42.58.39.35.65.78.78,1.31.13.52.12,1.07-.06,1.63-.17.56-.55,1.04-1.13,1.42-1.59,1.28-3.46,2.25-5.63,2.9-2.17.66-4.43.99-6.79.99Z"/><path d="M970.62,215.09c-.93,0-1.65-.26-2.15-.78-.5-.52-.75-1.25-.75-2.18v-35.82c0-.97.25-1.7.75-2.21.5-.5,1.22-.75,2.15-.75s1.65.25,2.18.75.78,1.24.78,2.21v16.08h-.81c.85-2.17,2.19-3.8,4-4.91,1.82-1.1,3.91-1.65,6.27-1.65s4.11.42,5.6,1.25c1.49.83,2.6,2.09,3.34,3.77s1.1,3.8,1.1,6.36v14.92c0,.93-.25,1.66-.75,2.18s-1.22.78-2.15.78-1.7-.26-2.21-.78c-.5-.52-.75-1.25-.75-2.18v-14.57c0-2.44-.47-4.22-1.42-5.34-.95-1.12-2.43-1.68-4.44-1.68-2.36,0-4.25.74-5.66,2.21-1.41,1.47-2.12,3.45-2.12,5.92v13.47c0,1.97-.99,2.96-2.96,2.96Z"/><path d="M1010.21,215.21c-1.97,0-3.74-.39-5.31-1.16s-2.8-1.82-3.69-3.13c-.89-1.32-1.33-2.81-1.33-4.47,0-2.09.53-3.75,1.6-4.96,1.06-1.22,2.82-2.09,5.28-2.61s5.78-.78,9.96-.78h2.73v3.6h-2.67c-2.79,0-4.99.14-6.62.41-1.63.27-2.78.73-3.45,1.36-.68.64-1.02,1.52-1.02,2.64,0,1.47.5,2.66,1.51,3.57,1.01.91,2.4,1.36,4.18,1.36,1.43,0,2.69-.34,3.77-1.02,1.08-.68,1.95-1.6,2.58-2.76s.96-2.5.96-4.01v-6.68c0-2.21-.46-3.79-1.39-4.76-.93-.97-2.46-1.45-4.59-1.45-1.24,0-2.53.16-3.86.46-1.33.31-2.72.83-4.15,1.57-.66.31-1.22.41-1.68.29s-.83-.38-1.1-.78c-.27-.41-.42-.85-.44-1.33-.02-.48.1-.96.35-1.42.25-.46.69-.81,1.31-1.04,1.7-.81,3.39-1.39,5.05-1.74,1.66-.35,3.23-.52,4.7-.52,2.59,0,4.73.41,6.42,1.22,1.68.81,2.93,2.05,3.74,3.72s1.22,3.81,1.22,6.44v14.92c0,.93-.23,1.66-.7,2.18-.46.52-1.14.78-2.03.78s-1.53-.26-2.03-.78c-.5-.52-.75-1.25-.75-2.18v-3.77h.52c-.31,1.43-.88,2.66-1.71,3.69-.83,1.03-1.87,1.81-3.11,2.35-1.24.54-2.65.81-4.24.81Z"/><path d="M1044.41,215.21c-2.32,0-4.28-.41-5.86-1.22-1.59-.81-2.77-2.01-3.54-3.6s-1.16-3.52-1.16-5.81v-13.7h-3.48c-.78,0-1.38-.2-1.8-.61-.43-.41-.64-.96-.64-1.66,0-.73.21-1.3.64-1.68.42-.39,1.02-.58,1.8-.58h3.48v-5.98c0-.97.26-1.7.78-2.21.52-.5,1.25-.75,2.18-.75s1.64.25,2.15.75c.5.5.75,1.24.75,2.21v5.98h6.79c.77,0,1.37.19,1.8.58.42.39.64.95.64,1.68s-.21,1.25-.64,1.66c-.43.41-1.03.61-1.8.61h-6.79v13.24c0,2.05.44,3.6,1.31,4.64s2.29,1.57,4.27,1.57c.7,0,1.31-.07,1.83-.2.52-.13.96-.22,1.31-.26.43,0,.77.15,1.04.44s.41.84.41,1.65c0,.58-.11,1.12-.32,1.63-.21.5-.59.83-1.13.99-.46.15-1.09.3-1.89.44-.79.13-1.5.2-2.12.2Z"/><path d="M1088.64,215.21c-4.45,0-8.21-.84-11.26-2.53s-5.37-4.09-6.94-7.23c-1.57-3.13-2.35-6.87-2.35-11.2,0-3.25.45-6.16,1.36-8.74.91-2.57,2.22-4.78,3.95-6.62,1.72-1.84,3.83-3.24,6.33-4.21,2.5-.97,5.33-1.45,8.5-1.45,2.32,0,4.61.3,6.85.9,2.24.6,4.3,1.58,6.15,2.93.54.39.89.83,1.04,1.33.15.5.16,1.02.03,1.54-.14.52-.39.98-.75,1.36-.37.39-.81.62-1.33.7s-1.09-.08-1.71-.46c-1.51-1.04-3.1-1.81-4.76-2.29-1.66-.48-3.5-.73-5.51-.73-3.02,0-5.56.62-7.63,1.86-2.07,1.24-3.63,3.03-4.67,5.37s-1.57,5.18-1.57,8.5c0,5.15,1.22,9.06,3.66,11.73,2.44,2.67,6.06,4.01,10.86,4.01,1.74,0,3.45-.16,5.14-.49s3.3-.8,4.85-1.42l-1.22,3.02v-13.53h-7.49c-.78,0-1.38-.2-1.83-.61-.45-.41-.67-.98-.67-1.71s.22-1.29.67-1.65c.44-.37,1.05-.55,1.83-.55h10.04c.81,0,1.43.21,1.86.64.43.43.64,1.04.64,1.86v14.63c0,.7-.13,1.29-.38,1.77-.25.48-.67.84-1.25,1.07-1.67.66-3.62,1.19-5.86,1.6-2.25.41-4.43.61-6.56.61Z"/><path d="M1114.94,215.09c-.97,0-1.71-.27-2.24-.81-.52-.54-.78-1.3-.78-2.26v-35.18c0-1.01.27-1.77.81-2.29.54-.52,1.3-.78,2.26-.78h13.88c4.41,0,7.82,1.09,10.22,3.28,2.4,2.19,3.6,5.25,3.6,9.2s-1.2,7.07-3.6,9.26c-2.4,2.19-5.81,3.28-10.22,3.28h-10.91v13.24c0,.97-.25,1.72-.75,2.26-.5.54-1.26.81-2.26.81ZM1117.96,193.96h10.04c2.9,0,5.1-.65,6.59-1.95,1.49-1.3,2.23-3.22,2.23-5.78s-.75-4.42-2.23-5.72c-1.49-1.3-3.69-1.95-6.59-1.95h-10.04v15.38Z"/><path d="M1161.09,215.09c-.97,0-1.71-.27-2.24-.81-.52-.54-.78-1.3-.78-2.26v-33.21h-12.31c-.81,0-1.45-.22-1.92-.67-.46-.44-.7-1.07-.7-1.89s.23-1.43.7-1.86c.46-.43,1.1-.64,1.92-.64h30.59c.85,0,1.51.21,1.97.64.46.43.7,1.04.7,1.86s-.23,1.44-.7,1.89c-.46.45-1.12.67-1.97.67h-12.31v33.21c0,.97-.24,1.72-.73,2.26-.48.54-1.23.81-2.23.81Z"/><rect x="56.68" y="270.42" width="263.3" height="263.3" fill="#fff257"/><path d="M158.53,413.88c-.67,0-1.18-.19-1.54-.56-.36-.37-.54-.89-.54-1.56v-22.88h-8.48c-.56,0-1-.15-1.32-.46-.32-.31-.48-.74-.48-1.3s.16-.99.48-1.28c.32-.29.76-.44,1.32-.44h21.08c.59,0,1.04.15,1.36.44.32.29.48.72.48,1.28s-.16.99-.48,1.3-.77.46-1.36.46h-8.48v22.88c0,.67-.17,1.19-.5,1.56-.33.37-.85.56-1.54.56Z"/><path d="M177.13,389.72c-.8,0-1.42-.2-1.86-.6-.44-.4-.66-.96-.66-1.68s.22-1.31.66-1.7c.44-.39,1.06-.58,1.86-.58s1.42.19,1.86.58c.44.39.66.95.66,1.7s-.22,1.28-.66,1.68c-.44.4-1.06.6-1.86.6ZM177.13,413.84c-.64,0-1.13-.19-1.48-.58-.35-.39-.52-.93-.52-1.62v-15.6c0-.69.17-1.23.52-1.6.35-.37.84-.56,1.48-.56s1.14.19,1.5.56c.36.37.54.91.54,1.6v15.6c0,.69-.17,1.23-.52,1.62-.35.39-.85.58-1.52.58Z"/><path d="M193.17,413.96c-1.6,0-2.95-.28-4.04-.84-1.09-.56-1.91-1.39-2.44-2.48-.53-1.09-.8-2.43-.8-4v-9.44h-2.4c-.53,0-.95-.14-1.24-.42-.29-.28-.44-.66-.44-1.14,0-.51.15-.89.44-1.16s.71-.4,1.24-.4h2.4v-4.12c0-.67.18-1.17.54-1.52.36-.35.86-.52,1.5-.52s1.13.17,1.48.52c.35.35.52.85.52,1.52v4.12h4.68c.53,0,.95.13,1.24.4.29.27.44.65.44,1.16,0,.48-.15.86-.44,1.14-.29.28-.71.42-1.24.42h-4.68v9.12c0,1.41.3,2.48.9,3.2.6.72,1.58,1.08,2.94,1.08.48,0,.9-.05,1.26-.14.36-.09.66-.15.9-.18.29,0,.53.1.72.3.19.2.28.58.28,1.14,0,.4-.07.77-.22,1.12-.15.35-.41.57-.78.68-.32.11-.75.21-1.3.3-.55.09-1.03.14-1.46.14Z"/><path d="M206.09,413.96c-2.08,0-3.65-.61-4.7-1.82-1.05-1.21-1.58-2.97-1.58-5.26v-19.72c0-.67.17-1.17.52-1.52.35-.35.84-.52,1.48-.52s1.14.17,1.5.52c.36.35.54.85.54,1.52v19.48c0,1.33.27,2.33.82,2.98.55.65,1.34.98,2.38.98.24,0,.45,0,.64-.02s.37-.03.56-.06c.32-.03.55.06.68.26.13.2.2.61.2,1.22,0,.56-.12.99-.36,1.3-.24.31-.63.5-1.16.58-.24.03-.49.05-.76.06s-.52.02-.76.02Z"/><path d="M221.01,413.96c-2.13,0-3.97-.41-5.5-1.22-1.53-.81-2.72-1.97-3.56-3.48-.84-1.51-1.26-3.3-1.26-5.38s.41-3.8,1.24-5.32c.83-1.52,1.96-2.71,3.4-3.56,1.44-.85,3.08-1.28,4.92-1.28,1.36,0,2.57.22,3.64.66,1.07.44,1.98,1.08,2.74,1.92s1.33,1.86,1.72,3.06.58,2.55.58,4.04c0,.45-.13.79-.4,1.02s-.67.34-1.2.34h-13.44v-2.48h12.32l-.68.56c0-1.33-.19-2.47-.58-3.4-.39-.93-.96-1.65-1.72-2.14-.76-.49-1.7-.74-2.82-.74-1.25,0-2.31.29-3.18.88-.87.59-1.53,1.4-1.98,2.44-.45,1.04-.68,2.25-.68,3.64v.24c0,2.35.55,4.11,1.66,5.3s2.71,1.78,4.82,1.78c.8,0,1.65-.11,2.54-.32.89-.21,1.74-.57,2.54-1.08.45-.27.86-.39,1.22-.36.36.03.65.15.88.36.23.21.37.48.42.8.05.32,0,.65-.16.98-.16.33-.44.63-.84.9-.91.61-1.96,1.07-3.16,1.38-1.2.31-2.36.46-3.48.46Z"/><rect x="56.68" y="549.92" width="263.3" height="263.3" fill="#fff257"/><path d="M137.31,693.38c-.67,0-1.18-.19-1.54-.56-.36-.37-.54-.89-.54-1.56v-22.88h-8.48c-.56,0-1-.15-1.32-.46-.32-.31-.48-.74-.48-1.3s.16-.99.48-1.28c.32-.29.76-.44,1.32-.44h21.08c.59,0,1.04.15,1.36.44.32.29.48.72.48,1.28s-.16.99-.48,1.3-.77.46-1.36.46h-8.48v22.88c0,.67-.17,1.19-.5,1.56-.33.37-.85.56-1.54.56Z"/><path d="M155.91,693.38c-.64,0-1.13-.18-1.48-.54-.35-.36-.52-.86-.52-1.5v-24.68c0-.67.17-1.17.52-1.52.35-.35.84-.52,1.48-.52s1.14.17,1.5.52c.36.35.54.85.54,1.52v11.08h-.56c.59-1.49,1.51-2.62,2.76-3.38,1.25-.76,2.69-1.14,4.32-1.14s2.83.29,3.86.86,1.79,1.44,2.3,2.6.76,2.62.76,4.38v10.28c0,.64-.17,1.14-.52,1.5-.35.36-.84.54-1.48.54s-1.17-.18-1.52-.54c-.35-.36-.52-.86-.52-1.5v-10.04c0-1.68-.33-2.91-.98-3.68-.65-.77-1.67-1.16-3.06-1.16-1.63,0-2.93.51-3.9,1.52-.97,1.01-1.46,2.37-1.46,4.08v9.28c0,1.36-.68,2.04-2.04,2.04Z"/><path d="M186.11,693.46c-2.13,0-3.97-.41-5.5-1.22-1.53-.81-2.72-1.97-3.56-3.48-.84-1.51-1.26-3.3-1.26-5.38s.41-3.8,1.24-5.32c.83-1.52,1.96-2.71,3.4-3.56,1.44-.85,3.08-1.28,4.92-1.28,1.36,0,2.57.22,3.64.66,1.07.44,1.98,1.08,2.74,1.92s1.33,1.86,1.72,3.06.58,2.55.58,4.04c0,.45-.13.79-.4,1.02s-.67.34-1.2.34h-13.44v-2.48h12.32l-.68.56c0-1.33-.19-2.47-.58-3.4-.39-.93-.96-1.65-1.72-2.14-.76-.49-1.7-.74-2.82-.74-1.25,0-2.31.29-3.18.88-.87.59-1.53,1.4-1.98,2.44-.45,1.04-.68,2.25-.68,3.64v.24c0,2.35.55,4.11,1.66,5.3s2.71,1.78,4.82,1.78c.8,0,1.65-.11,2.54-.32.89-.21,1.74-.57,2.54-1.08.45-.27.86-.39,1.22-.36.36.03.65.15.88.36.23.21.37.48.42.8.05.32,0,.65-.16.98-.16.33-.44.63-.84.9-.91.61-1.96,1.07-3.16,1.38-1.2.31-2.36.46-3.48.46Z"/><path d="M200.51,693.38c-.64,0-1.13-.18-1.48-.54-.35-.36-.52-.86-.52-1.5v-16c0-.67.17-1.17.52-1.52.35-.35.83-.52,1.44-.52s1.13.17,1.46.52c.33.35.5.85.5,1.52v3.28l-.44-.88c.53-1.41,1.36-2.52,2.48-3.32,1.12-.8,2.47-1.2,4.04-1.2s2.95.39,3.96,1.16,1.71,1.96,2.08,3.56h-.56c.51-1.47,1.37-2.62,2.6-3.46s2.65-1.26,4.28-1.26c1.49,0,2.72.29,3.68.86s1.68,1.44,2.16,2.6c.48,1.16.72,2.62.72,4.38v10.28c0,.64-.18,1.14-.54,1.5s-.86.54-1.5.54-1.13-.18-1.48-.54c-.35-.36-.52-.86-.52-1.5v-10.08c0-1.65-.29-2.87-.86-3.64-.57-.77-1.51-1.16-2.82-1.16-1.47,0-2.63.51-3.48,1.52-.85,1.01-1.28,2.41-1.28,4.2v9.16c0,.64-.17,1.14-.52,1.5-.35.36-.84.54-1.48.54s-1.14-.18-1.5-.54-.54-.86-.54-1.5v-10.08c0-1.65-.28-2.87-.84-3.64-.56-.77-1.49-1.16-2.8-1.16-1.47,0-2.62.51-3.46,1.52-.84,1.01-1.26,2.41-1.26,4.2v9.16c0,1.36-.68,2.04-2.04,2.04Z"/><path d="M242.23,693.46c-2.13,0-3.97-.41-5.5-1.22-1.53-.81-2.72-1.97-3.56-3.48-.84-1.51-1.26-3.3-1.26-5.38s.41-3.8,1.24-5.32c.83-1.52,1.96-2.71,3.4-3.56,1.44-.85,3.08-1.28,4.92-1.28,1.36,0,2.57.22,3.64.66,1.07.44,1.98,1.08,2.74,1.92s1.33,1.86,1.72,3.06.58,2.55.58,4.04c0,.45-.13.79-.4,1.02s-.67.34-1.2.34h-13.44v-2.48h12.32l-.68.56c0-1.33-.19-2.47-.58-3.4-.39-.93-.96-1.65-1.72-2.14-.76-.49-1.7-.74-2.82-.74-1.25,0-2.31.29-3.18.88-.87.59-1.53,1.4-1.98,2.44-.45,1.04-.68,2.25-.68,3.64v.24c0,2.35.55,4.11,1.66,5.3s2.71,1.78,4.82,1.78c.8,0,1.65-.11,2.54-.32.89-.21,1.74-.57,2.54-1.08.45-.27.86-.39,1.22-.36.36.03.65.15.88.36.23.21.37.48.42.8.05.32,0,.65-.16.98-.16.33-.44.63-.84.9-.91.61-1.96,1.07-3.16,1.38-1.2.31-2.36.46-3.48.46Z"/><rect x="332.33" y="270.42" width="263.3" height="263.3" fill="#fff257"/><path d="M378.3,413.88c-.67,0-1.18-.19-1.54-.56-.36-.37-.54-.89-.54-1.56v-24.56c0-.69.18-1.21.54-1.56.36-.35.87-.52,1.54-.52s1.18.17,1.54.52c.36.35.54.87.54,1.56v10.88h.08l12.28-11.88c.4-.37.78-.65,1.14-.82.36-.17.77-.26,1.22-.26.61,0,1.06.15,1.34.46s.39.67.34,1.1-.28.84-.68,1.24l-12.76,12.16.08-2.04,13.28,12.8c.48.45.73.92.76,1.4.03.48-.12.87-.44,1.18-.32.31-.77.46-1.36.46-.53,0-.96-.11-1.28-.32-.32-.21-.69-.52-1.12-.92l-12.8-12.2h-.08v11.32c0,.67-.17,1.19-.52,1.56s-.87.56-1.56.56Z"/><path d="M410.18,413.96c-2.13,0-3.97-.41-5.5-1.22-1.53-.81-2.72-1.97-3.56-3.48-.84-1.51-1.26-3.3-1.26-5.38s.41-3.8,1.24-5.32c.83-1.52,1.96-2.71,3.4-3.56,1.44-.85,3.08-1.28,4.92-1.28,1.36,0,2.57.22,3.64.66,1.07.44,1.98,1.08,2.74,1.92s1.33,1.86,1.72,3.06.58,2.55.58,4.04c0,.45-.13.79-.4,1.02s-.67.34-1.2.34h-13.44v-2.48h12.32l-.68.56c0-1.33-.19-2.47-.58-3.4-.39-.93-.96-1.65-1.72-2.14-.76-.49-1.7-.74-2.82-.74-1.25,0-2.31.29-3.18.88-.87.59-1.53,1.4-1.98,2.44-.45,1.04-.68,2.25-.68,3.64v.24c0,2.35.55,4.11,1.66,5.3s2.71,1.78,4.82,1.78c.8,0,1.65-.11,2.54-.32.89-.21,1.74-.57,2.54-1.08.45-.27.86-.39,1.22-.36.36.03.65.15.88.36.23.21.37.48.42.8.05.32,0,.65-.16.98-.16.33-.44.63-.84.9-.91.61-1.96,1.07-3.16,1.38-1.2.31-2.36.46-3.48.46Z"/><path d="M426.81,421.08c-.48,0-.87-.13-1.18-.38-.31-.25-.48-.59-.52-1s.03-.86.22-1.34l2.72-6.12v1.72l-7.48-17.4c-.19-.48-.25-.93-.2-1.36.05-.43.25-.77.6-1.02.35-.25.81-.38,1.4-.38.51,0,.91.12,1.2.36.29.24.56.65.8,1.24l6.04,14.92h-1.12l6.12-14.92c.24-.61.52-1.03.84-1.26s.76-.34,1.32-.34c.48,0,.86.13,1.14.38.28.25.45.59.52,1,.07.41,0,.86-.22,1.34l-10,23c-.27.61-.57,1.03-.9,1.24-.33.21-.77.32-1.3.32Z"/><path d="M451.25,413.88c-.56,0-1.05-.14-1.46-.42-.41-.28-.74-.73-.98-1.34l-5.88-15.56c-.21-.53-.28-1.01-.2-1.42.08-.41.29-.74.62-.98.33-.24.77-.36,1.3-.36.48,0,.87.11,1.18.34s.57.66.78,1.3l5.24,14.76h-.96l5.44-14.92c.19-.51.44-.88.76-1.12.32-.24.73-.36,1.24-.36s.93.12,1.26.36c.33.24.58.61.74,1.12l5.32,14.92h-.88l5.32-14.84c.21-.61.49-1.03.82-1.24.33-.21.71-.32,1.14-.32.53,0,.94.13,1.22.4.28.27.44.61.48,1.02.04.41-.03.86-.22,1.34l-5.88,15.56c-.24.59-.57,1.03-.98,1.32-.41.29-.89.44-1.42.44-.56,0-1.05-.15-1.46-.44-.41-.29-.74-.73-.98-1.32l-5.6-15.16h2l-5.56,15.16c-.21.59-.53,1.03-.94,1.32-.41.29-.9.44-1.46.44Z"/><path d="M486.1,413.96c-1.97,0-3.67-.41-5.1-1.24-1.43-.83-2.54-2-3.34-3.52-.8-1.52-1.2-3.31-1.2-5.36,0-1.57.23-2.97.68-4.2.45-1.23,1.1-2.29,1.94-3.18s1.85-1.57,3.04-2.04,2.51-.7,3.98-.7c1.95,0,3.63.41,5.06,1.24s2.54,1.99,3.34,3.5,1.2,3.3,1.2,5.38c0,1.55-.23,2.95-.68,4.2-.45,1.25-1.1,2.32-1.94,3.2s-1.85,1.55-3.04,2.02c-1.19.47-2.5.7-3.94.7ZM486.1,410.84c1.09,0,2.05-.27,2.88-.8.83-.53,1.47-1.32,1.94-2.36s.7-2.32.7-3.84c0-2.29-.51-4.03-1.52-5.2-1.01-1.17-2.35-1.76-4-1.76-1.12,0-2.09.26-2.92.78-.83.52-1.47,1.3-1.94,2.34-.47,1.04-.7,2.32-.7,3.84,0,2.27.51,4,1.52,5.2,1.01,1.2,2.36,1.8,4.04,1.8Z"/><path d="M502.25,413.88c-.67,0-1.17-.18-1.52-.54-.35-.36-.52-.86-.52-1.5v-16c0-.67.17-1.17.52-1.52.35-.35.83-.52,1.44-.52s1.13.17,1.46.52c.33.35.5.85.5,1.52v2.92h-.4c.43-1.6,1.21-2.81,2.36-3.64,1.15-.83,2.61-1.31,4.4-1.44.48-.03.86.09,1.14.36.28.27.43.68.46,1.24.05.56-.07,1.01-.36,1.34-.29.33-.75.53-1.36.58l-.76.08c-1.73.16-3.05.71-3.96,1.64-.91.93-1.36,2.21-1.36,3.84v9.08c0,.64-.17,1.14-.5,1.5-.33.36-.85.54-1.54.54Z"/><path d="M522.29,413.96c-1.71,0-3.21-.41-4.5-1.22-1.29-.81-2.3-1.99-3.02-3.52-.72-1.53-1.08-3.33-1.08-5.38s.36-3.91,1.08-5.4c.72-1.49,1.73-2.65,3.02-3.48,1.29-.83,2.79-1.24,4.5-1.24s3.18.42,4.42,1.26,2.07,1.97,2.5,3.38h-.44v-11.2c0-.67.17-1.17.52-1.52.35-.35.84-.52,1.48-.52s1.14.17,1.5.52c.36.35.54.85.54,1.52v24.68c0,.64-.17,1.14-.52,1.5-.35.36-.84.54-1.48.54s-1.13-.18-1.48-.54c-.35-.36-.52-.86-.52-1.5v-3.52l.44.88c-.43,1.44-1.26,2.59-2.5,3.46-1.24.87-2.73,1.3-4.46,1.3ZM523.33,410.84c1.09,0,2.05-.27,2.88-.8.83-.53,1.47-1.32,1.94-2.36s.7-2.32.7-3.84c0-2.29-.51-4.03-1.52-5.2-1.01-1.17-2.35-1.76-4-1.76-1.12,0-2.09.26-2.92.78-.83.52-1.47,1.3-1.94,2.34-.47,1.04-.7,2.32-.7,3.84,0,2.27.51,4,1.52,5.2,1.01,1.2,2.36,1.8,4.04,1.8Z"/><path d="M545.33,413.96c-1.17,0-2.38-.13-3.62-.4-1.24-.27-2.38-.72-3.42-1.36-.35-.24-.59-.51-.72-.8-.13-.29-.18-.59-.14-.9s.16-.57.36-.8c.2-.23.45-.37.76-.42.31-.05.63.01.98.2,1.04.59,2.04.99,3,1.22.96.23,1.91.34,2.84.34,1.41,0,2.48-.25,3.2-.76.72-.51,1.08-1.19,1.08-2.04,0-.69-.24-1.23-.72-1.62-.48-.39-1.2-.69-2.16-.9l-3.8-.76c-1.65-.35-2.91-.96-3.76-1.84-.85-.88-1.28-2-1.28-3.36,0-1.23.33-2.29,1-3.2.67-.91,1.6-1.61,2.8-2.1s2.59-.74,4.16-.74c1.17,0,2.28.15,3.32.44,1.04.29,2,.73,2.88,1.32.35.19.57.43.68.74.11.31.13.61.06.9-.07.29-.21.55-.42.78-.21.23-.47.36-.78.4-.31.04-.65-.03-1.02-.22-.8-.51-1.59-.87-2.38-1.08-.79-.21-1.57-.32-2.34-.32-1.41,0-2.47.26-3.18.78-.71.52-1.06,1.22-1.06,2.1,0,.67.21,1.21.64,1.64.43.43,1.09.73,2,.92l3.8.76c1.73.35,3.05.93,3.94,1.76.89.83,1.34,1.95,1.34,3.36,0,1.84-.73,3.29-2.2,4.36-1.47,1.07-3.41,1.6-5.84,1.6Z"/><rect x="332.33" y="549.92" width="263.3" height="263.3" fill="#fff257"/><path d="M395.67,693.46c-2.85,0-5.29-.59-7.32-1.76-2.03-1.17-3.58-2.85-4.66-5.02-1.08-2.17-1.62-4.74-1.62-7.7,0-2.21.31-4.21.92-5.98.61-1.77,1.5-3.29,2.66-4.56,1.16-1.27,2.59-2.23,4.28-2.9,1.69-.67,3.61-1,5.74-1,1.57,0,3.09.21,4.54.64,1.45.43,2.71,1.04,3.78,1.84.45.29.75.65.9,1.06.15.41.17.81.08,1.18-.09.37-.27.69-.54.94-.27.25-.61.39-1.02.42-.41.03-.86-.12-1.34-.44-.88-.67-1.85-1.16-2.92-1.48-1.07-.32-2.19-.48-3.36-.48-2.03,0-3.73.42-5.12,1.26s-2.44,2.06-3.16,3.66c-.72,1.6-1.08,3.55-1.08,5.84s.36,4.25,1.08,5.86c.72,1.61,1.77,2.84,3.16,3.68s3.09,1.26,5.12,1.26c1.17,0,2.3-.17,3.38-.5,1.08-.33,2.1-.83,3.06-1.5.48-.29.91-.43,1.3-.4.39.03.71.16.98.4.27.24.45.54.54.9s.08.73-.04,1.12-.38.71-.78.98c-1.09.88-2.39,1.55-3.88,2s-3.05.68-4.68.68Z"/><path d="M416.72,693.46c-1.97,0-3.67-.41-5.1-1.24-1.43-.83-2.54-2-3.34-3.52-.8-1.52-1.2-3.31-1.2-5.36,0-1.57.23-2.97.68-4.2.45-1.23,1.1-2.29,1.94-3.18s1.85-1.57,3.04-2.04,2.51-.7,3.98-.7c1.95,0,3.63.41,5.06,1.24s2.54,1.99,3.34,3.5,1.2,3.3,1.2,5.38c0,1.55-.23,2.95-.68,4.2-.45,1.25-1.1,2.32-1.94,3.2s-1.85,1.55-3.04,2.02c-1.19.47-2.5.7-3.94.7ZM416.72,690.34c1.09,0,2.05-.27,2.88-.8.83-.53,1.47-1.32,1.94-2.36s.7-2.32.7-3.84c0-2.29-.51-4.03-1.52-5.2-1.01-1.17-2.35-1.76-4-1.76-1.12,0-2.09.26-2.92.78-.83.52-1.47,1.3-1.94,2.34-.47,1.04-.7,2.32-.7,3.84,0,2.27.51,4,1.52,5.2,1.01,1.2,2.36,1.8,4.04,1.8Z"/><path d="M432.83,693.38c-.64,0-1.13-.18-1.48-.54-.35-.36-.52-.86-.52-1.5v-16c0-.67.17-1.17.52-1.52.35-.35.83-.52,1.44-.52s1.13.17,1.46.52c.33.35.5.85.5,1.52v3.12l-.44-.72c.59-1.49,1.51-2.62,2.76-3.38,1.25-.76,2.69-1.14,4.32-1.14s2.83.29,3.86.86,1.79,1.44,2.3,2.6.76,2.62.76,4.38v10.28c0,.64-.17,1.14-.52,1.5-.35.36-.84.54-1.48.54s-1.17-.18-1.52-.54c-.35-.36-.52-.86-.52-1.5v-10.04c0-1.68-.33-2.91-.98-3.68-.65-.77-1.67-1.16-3.06-1.16-1.63,0-2.93.51-3.9,1.52-.97,1.01-1.46,2.37-1.46,4.08v9.28c0,1.36-.68,2.04-2.04,2.04Z"/><path d="M462.47,693.46c-2,0-3.73-.42-5.18-1.26-1.45-.84-2.58-2.03-3.38-3.56-.8-1.53-1.2-3.34-1.2-5.42,0-1.55.23-2.94.68-4.18.45-1.24,1.1-2.29,1.94-3.14.84-.85,1.87-1.51,3.08-1.98,1.21-.47,2.57-.7,4.06-.7.93,0,1.91.14,2.94.42s1.98.74,2.86,1.38c.35.21.57.47.66.78.09.31.11.62.04.94-.07.32-.21.59-.44.82s-.5.36-.82.4c-.32.04-.67-.05-1.04-.26-.64-.45-1.29-.78-1.96-.98s-1.31-.3-1.92-.3c-.96,0-1.81.15-2.54.46s-1.35.75-1.86,1.32c-.51.57-.89,1.29-1.14,2.14-.25.85-.38,1.83-.38,2.92,0,2.19.51,3.9,1.54,5.14s2.49,1.86,4.38,1.86c.61,0,1.25-.09,1.92-.28s1.32-.51,1.96-.96c.37-.21.72-.29,1.04-.24.32.05.58.19.78.42.2.23.33.49.4.8.07.31.05.62-.06.94s-.33.59-.68.8c-.85.61-1.78,1.05-2.78,1.32s-1.97.4-2.9.4Z"/><path d="M481.31,693.46c-2.13,0-3.97-.41-5.5-1.22-1.53-.81-2.72-1.97-3.56-3.48-.84-1.51-1.26-3.3-1.26-5.38s.41-3.8,1.24-5.32c.83-1.52,1.96-2.71,3.4-3.56,1.44-.85,3.08-1.28,4.92-1.28,1.36,0,2.57.22,3.64.66,1.07.44,1.98,1.08,2.74,1.92s1.33,1.86,1.72,3.06.58,2.55.58,4.04c0,.45-.13.79-.4,1.02s-.67.34-1.2.34h-13.44v-2.48h12.32l-.68.56c0-1.33-.19-2.47-.58-3.4-.39-.93-.96-1.65-1.72-2.14-.76-.49-1.7-.74-2.82-.74-1.25,0-2.31.29-3.18.88-.87.59-1.53,1.4-1.98,2.44-.45,1.04-.68,2.25-.68,3.64v.24c0,2.35.55,4.11,1.66,5.3s2.71,1.78,4.82,1.78c.8,0,1.65-.11,2.54-.32.89-.21,1.74-.57,2.54-1.08.45-.27.86-.39,1.22-.36.36.03.65.15.88.36.23.21.37.48.42.8.05.32,0,.65-.16.98-.16.33-.44.63-.84.9-.91.61-1.96,1.07-3.16,1.38-1.2.31-2.36.46-3.48.46Z"/><path d="M495.63,700.58c-.64,0-1.13-.17-1.48-.52-.35-.35-.52-.85-.52-1.52v-23.2c0-.67.17-1.17.52-1.52.35-.35.83-.52,1.44-.52s1.13.17,1.48.52c.35.35.52.85.52,1.52v3.48l-.44-.84c.43-1.44,1.27-2.59,2.52-3.46,1.25-.87,2.73-1.3,4.44-1.3s3.25.41,4.54,1.24c1.29.83,2.29,1.99,3,3.48.71,1.49,1.06,3.29,1.06,5.4s-.35,3.85-1.06,5.38c-.71,1.53-1.7,2.71-2.98,3.52-1.28.81-2.8,1.22-4.56,1.22s-3.15-.43-4.4-1.28c-1.25-.85-2.09-1.99-2.52-3.4h.48v9.76c0,.67-.18,1.17-.54,1.52-.36.35-.86.52-1.5.52ZM503.11,690.34c1.12,0,2.09-.27,2.92-.8.83-.53,1.47-1.32,1.92-2.36.45-1.04.68-2.32.68-3.84,0-2.29-.5-4.03-1.5-5.2-1-1.17-2.34-1.76-4.02-1.76-1.09,0-2.06.26-2.9.78-.84.52-1.49,1.3-1.94,2.34-.45,1.04-.68,2.32-.68,3.84,0,2.27.51,4,1.52,5.2,1.01,1.2,2.35,1.8,4,1.8Z"/><path d="M525.39,693.46c-1.6,0-2.95-.28-4.04-.84-1.09-.56-1.91-1.39-2.44-2.48-.53-1.09-.8-2.43-.8-4v-9.44h-2.4c-.53,0-.95-.14-1.24-.42-.29-.28-.44-.66-.44-1.14,0-.51.15-.89.44-1.16s.71-.4,1.24-.4h2.4v-4.12c0-.67.18-1.17.54-1.52.36-.35.86-.52,1.5-.52s1.13.17,1.48.52c.35.35.52.85.52,1.52v4.12h4.68c.53,0,.95.13,1.24.4.29.27.44.65.44,1.16,0,.48-.15.86-.44,1.14-.29.28-.71.42-1.24.42h-4.68v9.12c0,1.41.3,2.48.9,3.2.6.72,1.58,1.08,2.94,1.08.48,0,.9-.05,1.26-.14.36-.09.66-.15.9-.18.29,0,.53.1.72.3.19.2.28.58.28,1.14,0,.4-.07.77-.22,1.12-.15.35-.41.57-.78.68-.32.11-.75.21-1.3.3-.55.09-1.03.14-1.46.14Z"/><path d="M538.51,693.46c-1.17,0-2.38-.13-3.62-.4-1.24-.27-2.38-.72-3.42-1.36-.35-.24-.59-.51-.72-.8-.13-.29-.18-.59-.14-.9s.16-.57.36-.8c.2-.23.45-.37.76-.42.31-.05.63.01.98.2,1.04.59,2.04.99,3,1.22.96.23,1.91.34,2.84.34,1.41,0,2.48-.25,3.2-.76.72-.51,1.08-1.19,1.08-2.04,0-.69-.24-1.23-.72-1.62-.48-.39-1.2-.69-2.16-.9l-3.8-.76c-1.65-.35-2.91-.96-3.76-1.84-.85-.88-1.28-2-1.28-3.36,0-1.23.33-2.29,1-3.2.67-.91,1.6-1.61,2.8-2.1s2.59-.74,4.16-.74c1.17,0,2.28.15,3.32.44,1.04.29,2,.73,2.88,1.32.35.19.57.43.68.74.11.31.13.61.06.9-.07.29-.21.55-.42.78-.21.23-.47.36-.78.4-.31.04-.65-.03-1.02-.22-.8-.51-1.59-.87-2.38-1.08-.79-.21-1.57-.32-2.34-.32-1.41,0-2.47.26-3.18.78-.71.52-1.06,1.22-1.06,2.1,0,.67.21,1.21.64,1.64.43.43,1.09.73,2,.92l3.8.76c1.73.35,3.05.93,3.94,1.76.89.83,1.34,1.95,1.34,3.36,0,1.84-.73,3.29-2.2,4.36-1.47,1.07-3.41,1.6-5.84,1.6Z"/><rect x="792.71" y="270.42" width="263.3" height="263.3" fill="#ffc35a"/><path d="M822.92,413.88c-.67,0-1.18-.19-1.54-.56-.36-.37-.54-.89-.54-1.56v-24.52c0-.69.18-1.22.54-1.58s.87-.54,1.54-.54,1.18.18,1.54.54c.36.36.54.89.54,1.58v24.52c0,.67-.17,1.19-.52,1.56s-.87.56-1.56.56Z"/><path d="M833.12,413.88c-.64,0-1.13-.18-1.48-.54-.35-.36-.52-.86-.52-1.5v-16c0-.67.17-1.17.52-1.52.35-.35.83-.52,1.44-.52s1.13.17,1.46.52c.33.35.5.85.5,1.52v3.12l-.44-.72c.59-1.49,1.51-2.62,2.76-3.38,1.25-.76,2.69-1.14,4.32-1.14s2.83.29,3.86.86,1.79,1.44,2.3,2.6.76,2.62.76,4.38v10.28c0,.64-.17,1.14-.52,1.5-.35.36-.84.54-1.48.54s-1.17-.18-1.52-.54c-.35-.36-.52-.86-.52-1.5v-10.04c0-1.68-.33-2.91-.98-3.68-.65-.77-1.67-1.16-3.06-1.16-1.63,0-2.93.51-3.9,1.52-.97,1.01-1.46,2.37-1.46,4.08v9.28c0,1.36-.68,2.04-2.04,2.04Z"/><path d="M860.99,413.96c-1.17,0-2.38-.13-3.62-.4-1.24-.27-2.38-.72-3.42-1.36-.35-.24-.59-.51-.72-.8-.13-.29-.18-.59-.14-.9s.16-.57.36-.8c.2-.23.45-.37.76-.42.31-.05.63.01.98.2,1.04.59,2.04.99,3,1.22.96.23,1.91.34,2.84.34,1.41,0,2.48-.25,3.2-.76.72-.51,1.08-1.19,1.08-2.04,0-.69-.24-1.23-.72-1.62-.48-.39-1.2-.69-2.16-.9l-3.8-.76c-1.65-.35-2.91-.96-3.76-1.84-.85-.88-1.28-2-1.28-3.36,0-1.23.33-2.29,1-3.2.67-.91,1.6-1.61,2.8-2.1s2.59-.74,4.16-.74c1.17,0,2.28.15,3.32.44,1.04.29,2,.73,2.88,1.32.35.19.57.43.68.74.11.31.13.61.06.9-.07.29-.21.55-.42.78-.21.23-.47.36-.78.4-.31.04-.65-.03-1.02-.22-.8-.51-1.59-.87-2.38-1.08-.79-.21-1.57-.32-2.34-.32-1.41,0-2.47.26-3.18.78-.71.52-1.06,1.22-1.06,2.1,0,.67.21,1.21.64,1.64.43.43,1.09.73,2,.92l3.8.76c1.73.35,3.05.93,3.94,1.76.89.83,1.34,1.95,1.34,3.36,0,1.84-.73,3.29-2.2,4.36-1.47,1.07-3.41,1.6-5.84,1.6Z"/><path d="M881.64,413.96c-1.6,0-2.95-.28-4.04-.84-1.09-.56-1.91-1.39-2.44-2.48-.53-1.09-.8-2.43-.8-4v-9.44h-2.4c-.53,0-.95-.14-1.24-.42-.29-.28-.44-.66-.44-1.14,0-.51.15-.89.44-1.16s.71-.4,1.24-.4h2.4v-4.12c0-.67.18-1.17.54-1.52.36-.35.86-.52,1.5-.52s1.13.17,1.48.52c.35.35.52.85.52,1.52v4.12h4.68c.53,0,.95.13,1.24.4.29.27.44.65.44,1.16,0,.48-.15.86-.44,1.14-.29.28-.71.42-1.24.42h-4.68v9.12c0,1.41.3,2.48.9,3.2.6.72,1.58,1.08,2.94,1.08.48,0,.9-.05,1.26-.14.36-.09.66-.15.9-.18.29,0,.53.1.72.3.19.2.28.58.28,1.14,0,.4-.07.77-.22,1.12-.15.35-.41.57-.78.68-.32.11-.75.21-1.3.3-.55.09-1.03.14-1.46.14Z"/><path d="M889.95,413.88c-.67,0-1.17-.18-1.52-.54-.35-.36-.52-.86-.52-1.5v-16c0-.67.17-1.17.52-1.52.35-.35.83-.52,1.44-.52s1.13.17,1.46.52c.33.35.5.85.5,1.52v2.92h-.4c.43-1.6,1.21-2.81,2.36-3.64,1.15-.83,2.61-1.31,4.4-1.44.48-.03.86.09,1.14.36.28.27.43.68.46,1.24.05.56-.07,1.01-.36,1.34-.29.33-.75.53-1.36.58l-.76.08c-1.73.16-3.05.71-3.96,1.64-.91.93-1.36,2.21-1.36,3.84v9.08c0,.64-.17,1.14-.5,1.5-.33.36-.85.54-1.54.54Z"/><path d="M909.79,413.96c-1.57,0-2.89-.29-3.94-.88-1.05-.59-1.84-1.46-2.36-2.62-.52-1.16-.78-2.62-.78-4.38v-10.24c0-.69.17-1.21.52-1.54.35-.33.84-.5,1.48-.5s1.14.17,1.5.5c.36.33.54.85.54,1.54v10.28c0,1.57.32,2.73.96,3.48.64.75,1.65,1.12,3.04,1.12,1.52,0,2.75-.51,3.7-1.54.95-1.03,1.42-2.38,1.42-4.06v-9.28c0-.69.17-1.21.52-1.54.35-.33.85-.5,1.52-.5s1.13.17,1.48.5c.35.33.52.85.52,1.54v16c0,1.36-.65,2.04-1.96,2.04-.61,0-1.09-.18-1.44-.54-.35-.36-.52-.86-.52-1.5v-3.4l.52.88c-.53,1.49-1.39,2.64-2.56,3.44-1.17.8-2.56,1.2-4.16,1.2Z"/><path d="M934.19,413.96c-2,0-3.73-.42-5.18-1.26-1.45-.84-2.58-2.03-3.38-3.56-.8-1.53-1.2-3.34-1.2-5.42,0-1.55.23-2.94.68-4.18.45-1.24,1.1-2.29,1.94-3.14.84-.85,1.87-1.51,3.08-1.98,1.21-.47,2.57-.7,4.06-.7.93,0,1.91.14,2.94.42s1.98.74,2.86,1.38c.35.21.57.47.66.78.09.31.11.62.04.94-.07.32-.21.59-.44.82s-.5.36-.82.4c-.32.04-.67-.05-1.04-.26-.64-.45-1.29-.78-1.96-.98s-1.31-.3-1.92-.3c-.96,0-1.81.15-2.54.46s-1.35.75-1.86,1.32c-.51.57-.89,1.29-1.14,2.14-.25.85-.38,1.83-.38,2.92,0,2.19.51,3.9,1.54,5.14s2.49,1.86,4.38,1.86c.61,0,1.25-.09,1.92-.28s1.32-.51,1.96-.96c.37-.21.72-.29,1.04-.24.32.05.58.19.78.42.2.23.33.49.4.8.07.31.05.62-.06.94s-.33.59-.68.8c-.85.61-1.78,1.05-2.78,1.32s-1.97.4-2.9.4Z"/><path d="M952.63,413.96c-1.6,0-2.95-.28-4.04-.84-1.09-.56-1.91-1.39-2.44-2.48-.53-1.09-.8-2.43-.8-4v-9.44h-2.4c-.53,0-.95-.14-1.24-.42-.29-.28-.44-.66-.44-1.14,0-.51.15-.89.44-1.16s.71-.4,1.24-.4h2.4v-4.12c0-.67.18-1.17.54-1.52.36-.35.86-.52,1.5-.52s1.13.17,1.48.52c.35.35.52.85.52,1.52v4.12h4.68c.53,0,.95.13,1.24.4.29.27.44.65.44,1.16,0,.48-.15.86-.44,1.14-.29.28-.71.42-1.24.42h-4.68v9.12c0,1.41.3,2.48.9,3.2.6.72,1.58,1.08,2.94,1.08.48,0,.9-.05,1.26-.14.36-.09.66-.15.9-.18.29,0,.53.1.72.3.19.2.28.58.28,1.14,0,.4-.07.77-.22,1.12-.15.35-.41.57-.78.68-.32.11-.75.21-1.3.3-.55.09-1.03.14-1.46.14Z"/><path d="M961.27,389.72c-.8,0-1.42-.2-1.86-.6-.44-.4-.66-.96-.66-1.68s.22-1.31.66-1.7c.44-.39,1.06-.58,1.86-.58s1.42.19,1.86.58c.44.39.66.95.66,1.7s-.22,1.28-.66,1.68c-.44.4-1.06.6-1.86.6ZM961.27,413.84c-.64,0-1.13-.19-1.48-.58-.35-.39-.52-.93-.52-1.62v-15.6c0-.69.17-1.23.52-1.6.35-.37.84-.56,1.48-.56s1.14.19,1.5.56c.36.37.54.91.54,1.6v15.6c0,.69-.17,1.23-.52,1.62-.35.39-.85.58-1.52.58Z"/><path d="M977.47,413.96c-1.97,0-3.67-.41-5.1-1.24-1.43-.83-2.54-2-3.34-3.52-.8-1.52-1.2-3.31-1.2-5.36,0-1.57.23-2.97.68-4.2.45-1.23,1.1-2.29,1.94-3.18s1.85-1.57,3.04-2.04,2.51-.7,3.98-.7c1.95,0,3.63.41,5.06,1.24s2.54,1.99,3.34,3.5,1.2,3.3,1.2,5.38c0,1.55-.23,2.95-.68,4.2-.45,1.25-1.1,2.32-1.94,3.2s-1.85,1.55-3.04,2.02c-1.19.47-2.5.7-3.94.7ZM977.47,410.84c1.09,0,2.05-.27,2.88-.8.83-.53,1.47-1.32,1.94-2.36s.7-2.32.7-3.84c0-2.29-.51-4.03-1.52-5.2-1.01-1.17-2.35-1.76-4-1.76-1.12,0-2.09.26-2.92.78-.83.52-1.47,1.3-1.94,2.34-.47,1.04-.7,2.32-.7,3.84,0,2.27.51,4,1.52,5.2,1.01,1.2,2.36,1.8,4.04,1.8Z"/><path d="M993.59,413.88c-.64,0-1.13-.18-1.48-.54-.35-.36-.52-.86-.52-1.5v-16c0-.67.17-1.17.52-1.52.35-.35.83-.52,1.44-.52s1.13.17,1.46.52c.33.35.5.85.5,1.52v3.12l-.44-.72c.59-1.49,1.51-2.62,2.76-3.38,1.25-.76,2.69-1.14,4.32-1.14s2.83.29,3.86.86,1.79,1.44,2.3,2.6.76,2.62.76,4.38v10.28c0,.64-.17,1.14-.52,1.5-.35.36-.84.54-1.48.54s-1.17-.18-1.52-.54c-.35-.36-.52-.86-.52-1.5v-10.04c0-1.68-.33-2.91-.98-3.68-.65-.77-1.67-1.16-3.06-1.16-1.63,0-2.93.51-3.9,1.52-.97,1.01-1.46,2.37-1.46,4.08v9.28c0,1.36-.68,2.04-2.04,2.04Z"/><path d="M1021.47,413.96c-1.17,0-2.38-.13-3.62-.4-1.24-.27-2.38-.72-3.42-1.36-.35-.24-.59-.51-.72-.8-.13-.29-.18-.59-.14-.9s.16-.57.36-.8c.2-.23.45-.37.76-.42.31-.05.63.01.98.2,1.04.59,2.04.99,3,1.22.96.23,1.91.34,2.84.34,1.41,0,2.48-.25,3.2-.76.72-.51,1.08-1.19,1.08-2.04,0-.69-.24-1.23-.72-1.62-.48-.39-1.2-.69-2.16-.9l-3.8-.76c-1.65-.35-2.91-.96-3.76-1.84-.85-.88-1.28-2-1.28-3.36,0-1.23.33-2.29,1-3.2.67-.91,1.6-1.61,2.8-2.1s2.59-.74,4.16-.74c1.17,0,2.28.15,3.32.44,1.04.29,2,.73,2.88,1.32.35.19.57.43.68.74.11.31.13.61.06.9-.07.29-.21.55-.42.78-.21.23-.47.36-.78.4-.31.04-.65-.03-1.02-.22-.8-.51-1.59-.87-2.38-1.08-.79-.21-1.57-.32-2.34-.32-1.41,0-2.47.26-3.18.78-.71.52-1.06,1.22-1.06,2.1,0,.67.21,1.21.64,1.64.43.43,1.09.73,2,.92l3.8.76c1.73.35,3.05.93,3.94,1.76.89.83,1.34,1.95,1.34,3.36,0,1.84-.73,3.29-2.2,4.36-1.47,1.07-3.41,1.6-5.84,1.6Z"/><rect x="1071.64" y="270.42" width="263.3" height="263.3" fill="#ffc35a"/><path d="M1139.57,413.96c-1.23,0-2.43-.09-3.6-.28-1.17-.19-2.28-.47-3.32-.86-1.04-.39-1.97-.86-2.8-1.42-.4-.29-.67-.63-.82-1-.15-.37-.19-.74-.12-1.1.07-.36.22-.67.46-.94.24-.27.53-.43.88-.5.35-.07.73.05,1.16.34,1.2.77,2.47,1.34,3.8,1.7,1.33.36,2.79.54,4.36.54,2.27,0,3.94-.41,5.02-1.22s1.62-1.87,1.62-3.18c0-1.07-.39-1.91-1.16-2.54s-2.07-1.13-3.88-1.5l-4.28-.88c-2.53-.53-4.42-1.41-5.66-2.64s-1.86-2.88-1.86-4.96c0-1.25.26-2.4.78-3.44.52-1.04,1.25-1.94,2.18-2.7.93-.76,2.05-1.34,3.36-1.74s2.73-.6,4.28-.6c1.65,0,3.21.21,4.66.64,1.45.43,2.75,1.08,3.9,1.96.35.24.58.54.7.9.12.36.15.71.08,1.06s-.22.64-.46.88-.55.38-.92.42c-.37.04-.79-.09-1.24-.38-1.04-.69-2.1-1.19-3.18-1.5s-2.27-.46-3.58-.46-2.45.2-3.42.6c-.97.4-1.72.96-2.24,1.68-.52.72-.78,1.57-.78,2.56,0,1.12.36,2.01,1.08,2.68.72.67,1.92,1.17,3.6,1.52l4.24.88c2.67.56,4.65,1.43,5.96,2.6,1.31,1.17,1.96,2.73,1.96,4.68,0,1.25-.25,2.38-.76,3.38s-1.23,1.86-2.16,2.58-2.06,1.27-3.38,1.66c-1.32.39-2.81.58-4.46.58Z"/><path d="M1163.09,413.96c-1.97,0-3.67-.41-5.1-1.24-1.43-.83-2.54-2-3.34-3.52-.8-1.52-1.2-3.31-1.2-5.36,0-1.57.23-2.97.68-4.2.45-1.23,1.1-2.29,1.94-3.18s1.85-1.57,3.04-2.04,2.51-.7,3.98-.7c1.95,0,3.63.41,5.06,1.24s2.54,1.99,3.34,3.5,1.2,3.3,1.2,5.38c0,1.55-.23,2.95-.68,4.2-.45,1.25-1.1,2.32-1.94,3.2s-1.85,1.55-3.04,2.02c-1.19.47-2.5.7-3.94.7ZM1163.09,410.84c1.09,0,2.05-.27,2.88-.8.83-.53,1.47-1.32,1.94-2.36s.7-2.32.7-3.84c0-2.29-.51-4.03-1.52-5.2-1.01-1.17-2.35-1.76-4-1.76-1.12,0-2.09.26-2.92.78-.83.52-1.47,1.3-1.94,2.34-.47,1.04-.7,2.32-.7,3.84,0,2.27.51,4,1.52,5.2,1.01,1.2,2.36,1.8,4.04,1.8Z"/><path d="M1183.49,413.96c-2.08,0-3.65-.61-4.7-1.82-1.05-1.21-1.58-2.97-1.58-5.26v-19.72c0-.67.17-1.17.52-1.52.35-.35.84-.52,1.48-.52s1.14.17,1.5.52c.36.35.54.85.54,1.52v19.48c0,1.33.27,2.33.82,2.98.55.65,1.34.98,2.38.98.24,0,.45,0,.64-.02s.37-.03.56-.06c.32-.03.55.06.68.26.13.2.2.61.2,1.22,0,.56-.12.99-.36,1.3-.24.31-.63.5-1.16.58-.24.03-.49.05-.76.06s-.52.02-.76.02Z"/><path d="M1196.41,413.96c-1.57,0-2.89-.29-3.94-.88-1.05-.59-1.84-1.46-2.36-2.62-.52-1.16-.78-2.62-.78-4.38v-10.24c0-.69.17-1.21.52-1.54.35-.33.84-.5,1.48-.5s1.14.17,1.5.5c.36.33.54.85.54,1.54v10.28c0,1.57.32,2.73.96,3.48.64.75,1.65,1.12,3.04,1.12,1.52,0,2.75-.51,3.7-1.54.95-1.03,1.42-2.38,1.42-4.06v-9.28c0-.69.17-1.21.52-1.54.35-.33.85-.5,1.52-.5s1.13.17,1.48.5c.35.33.52.85.52,1.54v16c0,1.36-.65,2.04-1.96,2.04-.61,0-1.09-.18-1.44-.54-.35-.36-.52-.86-.52-1.5v-3.4l.52.88c-.53,1.49-1.39,2.64-2.56,3.44-1.17.8-2.56,1.2-4.16,1.2Z"/><path d="M1220.53,413.96c-1.6,0-2.95-.28-4.04-.84-1.09-.56-1.91-1.39-2.44-2.48-.53-1.09-.8-2.43-.8-4v-9.44h-2.4c-.53,0-.95-.14-1.24-.42-.29-.28-.44-.66-.44-1.14,0-.51.15-.89.44-1.16s.71-.4,1.24-.4h2.4v-4.12c0-.67.18-1.17.54-1.52.36-.35.86-.52,1.5-.52s1.13.17,1.48.52c.35.35.52.85.52,1.52v4.12h4.68c.53,0,.95.13,1.24.4.29.27.44.65.44,1.16,0,.48-.15.86-.44,1.14-.29.28-.71.42-1.24.42h-4.68v9.12c0,1.41.3,2.48.9,3.2.6.72,1.58,1.08,2.94,1.08.48,0,.9-.05,1.26-.14.36-.09.66-.15.9-.18.29,0,.53.1.72.3.19.2.28.58.28,1.14,0,.4-.07.77-.22,1.12-.15.35-.41.57-.78.68-.32.11-.75.21-1.3.3-.55.09-1.03.14-1.46.14Z"/><path d="M1229.17,389.72c-.8,0-1.42-.2-1.86-.6-.44-.4-.66-.96-.66-1.68s.22-1.31.66-1.7c.44-.39,1.06-.58,1.86-.58s1.42.19,1.86.58c.44.39.66.95.66,1.7s-.22,1.28-.66,1.68c-.44.4-1.06.6-1.86.6ZM1229.17,413.84c-.64,0-1.13-.19-1.48-.58-.35-.39-.52-.93-.52-1.62v-15.6c0-.69.17-1.23.52-1.6.35-.37.84-.56,1.48-.56s1.14.19,1.5.56c.36.37.54.91.54,1.6v15.6c0,.69-.17,1.23-.52,1.62-.35.39-.85.58-1.52.58Z"/><path d="M1245.37,413.96c-1.97,0-3.67-.41-5.1-1.24-1.43-.83-2.54-2-3.34-3.52-.8-1.52-1.2-3.31-1.2-5.36,0-1.57.23-2.97.68-4.2.45-1.23,1.1-2.29,1.94-3.18s1.85-1.57,3.04-2.04,2.51-.7,3.98-.7c1.95,0,3.63.41,5.06,1.24s2.54,1.99,3.34,3.5,1.2,3.3,1.2,5.38c0,1.55-.23,2.95-.68,4.2-.45,1.25-1.1,2.32-1.94,3.2s-1.85,1.55-3.04,2.02c-1.19.47-2.5.7-3.94.7ZM1245.37,410.84c1.09,0,2.05-.27,2.88-.8.83-.53,1.47-1.32,1.94-2.36s.7-2.32.7-3.84c0-2.29-.51-4.03-1.52-5.2-1.01-1.17-2.35-1.76-4-1.76-1.12,0-2.09.26-2.92.78-.83.52-1.47,1.3-1.94,2.34-.47,1.04-.7,2.32-.7,3.84,0,2.27.51,4,1.52,5.2,1.01,1.2,2.36,1.8,4.04,1.8Z"/><path d="M1261.48,413.88c-.64,0-1.13-.18-1.48-.54-.35-.36-.52-.86-.52-1.5v-16c0-.67.17-1.17.52-1.52.35-.35.83-.52,1.44-.52s1.13.17,1.46.52c.33.35.5.85.5,1.52v3.12l-.44-.72c.59-1.49,1.51-2.62,2.76-3.38,1.25-.76,2.69-1.14,4.32-1.14s2.83.29,3.86.86,1.79,1.44,2.3,2.6.76,2.62.76,4.38v10.28c0,.64-.17,1.14-.52,1.5-.35.36-.84.54-1.48.54s-1.17-.18-1.52-.54c-.35-.36-.52-.86-.52-1.5v-10.04c0-1.68-.33-2.91-.98-3.68-.65-.77-1.67-1.16-3.06-1.16-1.63,0-2.93.51-3.9,1.52-.97,1.01-1.46,2.37-1.46,4.08v9.28c0,1.36-.68,2.04-2.04,2.04Z"/><rect x="792.71" y="549.92" width="263.3" height="263.3" fill="#ffc35a"/><path d="M842.35,669.46c-1.47,0-2.95-.21-4.44-.62-1.49-.41-2.85-1.06-4.08-1.94-.4-.24-.67-.55-.8-.92-.13-.37-.16-.74-.08-1.1.08-.36.25-.66.5-.9.25-.24.57-.38.94-.42.37-.04.77.07,1.2.34,1.04.67,2.11,1.17,3.22,1.52,1.11.35,2.26.52,3.46.52s2.28-.23,3.16-.68c.88-.45,1.55-1.09,2.02-1.9.47-.81.7-1.77.7-2.86,0-1.68-.49-3.05-1.48-4.12s-2.36-1.6-4.12-1.6c-1.01,0-1.96.18-2.84.54-.88.36-1.72.95-2.52,1.78-.19.21-.43.41-.74.58-.31.17-.65.26-1.02.26-.56,0-.99-.15-1.28-.44s-.44-.69-.44-1.2v-13.56c0-.59.16-1.04.48-1.36.32-.32.77-.48,1.36-.48h13.4c.59,0,1.04.15,1.36.44.32.29.48.72.48,1.28s-.16.99-.48,1.3c-.32.31-.77.46-1.36.46h-11.2v10.16h-1.12c.72-1.01,1.67-1.8,2.86-2.36,1.19-.56,2.5-.84,3.94-.84,1.79,0,3.33.37,4.64,1.12,1.31.75,2.32,1.79,3.04,3.14s1.08,2.91,1.08,4.7-.4,3.41-1.2,4.78c-.8,1.37-1.93,2.45-3.4,3.22s-3.21,1.16-5.24,1.16Z"/><path d="M869.83,669.38c-.67,0-1.18-.19-1.54-.56-.36-.37-.54-.89-.54-1.56v-24.24c0-.69.19-1.22.56-1.58.37-.36.89-.54,1.56-.54h9.56c3.04,0,5.39.75,7.04,2.26,1.65,1.51,2.48,3.62,2.48,6.34s-.83,4.87-2.48,6.38-4,2.26-7.04,2.26h-7.52v9.12c0,.67-.17,1.19-.52,1.56s-.87.56-1.56.56ZM871.91,654.82h6.92c2,0,3.51-.45,4.54-1.34,1.03-.89,1.54-2.22,1.54-3.98s-.51-3.05-1.54-3.94c-1.03-.89-2.54-1.34-4.54-1.34h-6.92v10.6Z"/><path d="M894.63,669.38c-.67,0-1.17-.18-1.52-.54-.35-.36-.52-.86-.52-1.5v-16c0-.67.17-1.17.52-1.52.35-.35.83-.52,1.44-.52s1.13.17,1.46.52c.33.35.5.85.5,1.52v2.92h-.4c.43-1.6,1.21-2.81,2.36-3.64,1.15-.83,2.61-1.31,4.4-1.44.48-.03.86.09,1.14.36.28.27.43.68.46,1.24.05.56-.07,1.01-.36,1.34-.29.33-.75.53-1.36.58l-.76.08c-1.73.16-3.05.71-3.96,1.64-.91.93-1.36,2.21-1.36,3.84v9.08c0,.64-.17,1.14-.5,1.5-.33.36-.85.54-1.54.54Z"/><path d="M915.71,669.46c-1.97,0-3.67-.41-5.1-1.24-1.43-.83-2.54-2-3.34-3.52-.8-1.52-1.2-3.31-1.2-5.36,0-1.57.23-2.97.68-4.2.45-1.23,1.1-2.29,1.94-3.18s1.85-1.57,3.04-2.04,2.51-.7,3.98-.7c1.95,0,3.63.41,5.06,1.24s2.54,1.99,3.34,3.5,1.2,3.3,1.2,5.38c0,1.55-.23,2.95-.68,4.2-.45,1.25-1.1,2.32-1.94,3.2s-1.85,1.55-3.04,2.02c-1.19.47-2.5.7-3.94.7ZM915.71,666.34c1.09,0,2.05-.27,2.88-.8.83-.53,1.47-1.32,1.94-2.36s.7-2.32.7-3.84c0-2.29-.51-4.03-1.52-5.2-1.01-1.17-2.35-1.76-4-1.76-1.12,0-2.09.26-2.92.78-.83.52-1.47,1.3-1.94,2.34-.47,1.04-.7,2.32-.7,3.84,0,2.27.51,4,1.52,5.2,1.01,1.2,2.36,1.8,4.04,1.8Z"/><path d="M940.31,669.46c-1.71,0-3.19-.43-4.44-1.3-1.25-.87-2.09-2.02-2.52-3.46l.44-.72v3.36c0,.64-.17,1.14-.52,1.5-.35.36-.83.54-1.44.54s-1.13-.18-1.48-.54c-.35-.36-.52-.86-.52-1.5v-24.68c0-.67.17-1.17.52-1.52.35-.35.84-.52,1.48-.52s1.14.17,1.5.52c.36.35.54.85.54,1.52v11.2h-.48c.43-1.41,1.27-2.54,2.52-3.38,1.25-.84,2.72-1.26,4.4-1.26s3.28.41,4.56,1.24,2.27,1.99,2.98,3.48c.71,1.49,1.06,3.29,1.06,5.4s-.35,3.85-1.06,5.38c-.71,1.53-1.71,2.71-3,3.52-1.29.81-2.81,1.22-4.54,1.22ZM939.31,666.34c1.12,0,2.09-.27,2.92-.8.83-.53,1.47-1.32,1.92-2.36.45-1.04.68-2.32.68-3.84,0-2.29-.5-4.03-1.5-5.2-1-1.17-2.34-1.76-4.02-1.76-1.09,0-2.06.26-2.9.78-.84.52-1.49,1.3-1.94,2.34-.45,1.04-.68,2.32-.68,3.84,0,2.27.51,4,1.52,5.2,1.01,1.2,2.35,1.8,4,1.8Z"/><path d="M959.75,669.46c-2.08,0-3.65-.61-4.7-1.82-1.05-1.21-1.58-2.97-1.58-5.26v-19.72c0-.67.17-1.17.52-1.52.35-.35.84-.52,1.48-.52s1.14.17,1.5.52c.36.35.54.85.54,1.52v19.48c0,1.33.27,2.33.82,2.98.55.65,1.34.98,2.38.98.24,0,.45,0,.64-.02s.37-.03.56-.06c.32-.03.55.06.68.26.13.2.2.61.2,1.22,0,.56-.12.99-.36,1.3-.24.31-.63.5-1.16.58-.24.03-.49.05-.76.06s-.52.02-.76.02Z"/><path d="M974.67,669.46c-2.13,0-3.97-.41-5.5-1.22-1.53-.81-2.72-1.97-3.56-3.48-.84-1.51-1.26-3.3-1.26-5.38s.41-3.8,1.24-5.32c.83-1.52,1.96-2.71,3.4-3.56,1.44-.85,3.08-1.28,4.92-1.28,1.36,0,2.57.22,3.64.66,1.07.44,1.98,1.08,2.74,1.92s1.33,1.86,1.72,3.06.58,2.55.58,4.04c0,.45-.13.79-.4,1.02s-.67.34-1.2.34h-13.44v-2.48h12.32l-.68.56c0-1.33-.19-2.47-.58-3.4-.39-.93-.96-1.65-1.72-2.14-.76-.49-1.7-.74-2.82-.74-1.25,0-2.31.29-3.18.88-.87.59-1.53,1.4-1.98,2.44-.45,1.04-.68,2.25-.68,3.64v.24c0,2.35.55,4.11,1.66,5.3s2.71,1.78,4.82,1.78c.8,0,1.65-.11,2.54-.32.89-.21,1.74-.57,2.54-1.08.45-.27.86-.39,1.22-.36.36.03.65.15.88.36.23.21.37.48.42.8.05.32,0,.65-.16.98-.16.33-.44.63-.84.9-.91.61-1.96,1.07-3.16,1.38-1.2.31-2.36.46-3.48.46Z"/><path d="M989.07,669.38c-.64,0-1.13-.18-1.48-.54-.35-.36-.52-.86-.52-1.5v-16c0-.67.17-1.17.52-1.52.35-.35.83-.52,1.44-.52s1.13.17,1.46.52c.33.35.5.85.5,1.52v3.28l-.44-.88c.53-1.41,1.36-2.52,2.48-3.32,1.12-.8,2.47-1.2,4.04-1.2s2.95.39,3.96,1.16,1.71,1.96,2.08,3.56h-.56c.51-1.47,1.37-2.62,2.6-3.46s2.65-1.26,4.28-1.26c1.49,0,2.72.29,3.68.86s1.68,1.44,2.16,2.6c.48,1.16.72,2.62.72,4.38v10.28c0,.64-.18,1.14-.54,1.5s-.86.54-1.5.54-1.13-.18-1.48-.54c-.35-.36-.52-.86-.52-1.5v-10.08c0-1.65-.29-2.87-.86-3.64-.57-.77-1.51-1.16-2.82-1.16-1.47,0-2.63.51-3.48,1.52-.85,1.01-1.28,2.41-1.28,4.2v9.16c0,.64-.17,1.14-.52,1.5-.35.36-.84.54-1.48.54s-1.14-.18-1.5-.54-.54-.86-.54-1.5v-10.08c0-1.65-.28-2.87-.84-3.64-.56-.77-1.49-1.16-2.8-1.16-1.47,0-2.62.51-3.46,1.52-.84,1.01-1.26,2.41-1.26,4.2v9.16c0,1.36-.68,2.04-2.04,2.04Z"/><path d="M883.22,717.38c-.67,0-1.18-.19-1.54-.56-.36-.37-.54-.89-.54-1.56v-22.88h-8.48c-.56,0-1-.15-1.32-.46-.32-.31-.48-.74-.48-1.3s.16-.99.48-1.28c.32-.29.76-.44,1.32-.44h21.08c.59,0,1.04.15,1.36.44.32.29.48.72.48,1.28s-.16.99-.48,1.3-.77.46-1.36.46h-8.48v22.88c0,.67-.17,1.19-.5,1.56-.33.37-.85.56-1.54.56Z"/><path d="M899.9,724.58c-.48,0-.87-.13-1.18-.38-.31-.25-.48-.59-.52-1s.03-.86.22-1.34l2.72-6.12v1.72l-7.48-17.4c-.19-.48-.25-.93-.2-1.36.05-.43.25-.77.6-1.02.35-.25.81-.38,1.4-.38.51,0,.91.12,1.2.36.29.24.56.65.8,1.24l6.04,14.92h-1.12l6.12-14.92c.24-.61.52-1.03.84-1.26s.76-.34,1.32-.34c.48,0,.86.13,1.14.38.28.25.45.59.52,1,.07.41,0,.86-.22,1.34l-10,23c-.27.61-.57,1.03-.9,1.24-.33.21-.77.32-1.3.32Z"/><path d="M918.09,724.58c-.64,0-1.13-.17-1.48-.52-.35-.35-.52-.85-.52-1.52v-23.2c0-.67.17-1.17.52-1.52.35-.35.83-.52,1.44-.52s1.13.17,1.48.52c.35.35.52.85.52,1.52v3.48l-.44-.84c.43-1.44,1.27-2.59,2.52-3.46,1.25-.87,2.73-1.3,4.44-1.3s3.25.41,4.54,1.24c1.29.83,2.29,1.99,3,3.48.71,1.49,1.06,3.29,1.06,5.4s-.35,3.85-1.06,5.38c-.71,1.53-1.7,2.71-2.98,3.52-1.28.81-2.8,1.22-4.56,1.22s-3.15-.43-4.4-1.28c-1.25-.85-2.09-1.99-2.52-3.4h.48v9.76c0,.67-.18,1.17-.54,1.52-.36.35-.86.52-1.5.52ZM925.57,714.34c1.12,0,2.09-.27,2.92-.8.83-.53,1.47-1.32,1.92-2.36.45-1.04.68-2.32.68-3.84,0-2.29-.5-4.03-1.5-5.2-1-1.17-2.34-1.76-4.02-1.76-1.09,0-2.06.26-2.9.78-.84.52-1.49,1.3-1.94,2.34-.45,1.04-.68,2.32-.68,3.84,0,2.27.51,4,1.52,5.2,1.01,1.2,2.35,1.8,4,1.8Z"/><path d="M948.89,717.46c-2.13,0-3.97-.41-5.5-1.22-1.53-.81-2.72-1.97-3.56-3.48-.84-1.51-1.26-3.3-1.26-5.38s.41-3.8,1.24-5.32c.83-1.52,1.96-2.71,3.4-3.56,1.44-.85,3.08-1.28,4.92-1.28,1.36,0,2.57.22,3.64.66,1.07.44,1.98,1.08,2.74,1.92s1.33,1.86,1.72,3.06.58,2.55.58,4.04c0,.45-.13.79-.4,1.02s-.67.34-1.2.34h-13.44v-2.48h12.32l-.68.56c0-1.33-.19-2.47-.58-3.4-.39-.93-.96-1.65-1.72-2.14-.76-.49-1.7-.74-2.82-.74-1.25,0-2.31.29-3.18.88-.87.59-1.53,1.4-1.98,2.44-.45,1.04-.68,2.25-.68,3.64v.24c0,2.35.55,4.11,1.66,5.3s2.71,1.78,4.82,1.78c.8,0,1.65-.11,2.54-.32.89-.21,1.74-.57,2.54-1.08.45-.27.86-.39,1.22-.36.36.03.65.15.88.36.23.21.37.48.42.8.05.32,0,.65-.16.98-.16.33-.44.63-.84.9-.91.61-1.96,1.07-3.16,1.38-1.2.31-2.36.46-3.48.46Z"/><path d="M968.05,717.46c-1.17,0-2.38-.13-3.62-.4-1.24-.27-2.38-.72-3.42-1.36-.35-.24-.59-.51-.72-.8-.13-.29-.18-.59-.14-.9s.16-.57.36-.8c.2-.23.45-.37.76-.42.31-.05.63.01.98.2,1.04.59,2.04.99,3,1.22.96.23,1.91.34,2.84.34,1.41,0,2.48-.25,3.2-.76.72-.51,1.08-1.19,1.08-2.04,0-.69-.24-1.23-.72-1.62-.48-.39-1.2-.69-2.16-.9l-3.8-.76c-1.65-.35-2.91-.96-3.76-1.84-.85-.88-1.28-2-1.28-3.36,0-1.23.33-2.29,1-3.2.67-.91,1.6-1.61,2.8-2.1s2.59-.74,4.16-.74c1.17,0,2.28.15,3.32.44,1.04.29,2,.73,2.88,1.32.35.19.57.43.68.74.11.31.13.61.06.9-.07.29-.21.55-.42.78-.21.23-.47.36-.78.4-.31.04-.65-.03-1.02-.22-.8-.51-1.59-.87-2.38-1.08-.79-.21-1.57-.32-2.34-.32-1.41,0-2.47.26-3.18.78-.71.52-1.06,1.22-1.06,2.1,0,.67.21,1.21.64,1.64.43.43,1.09.73,2,.92l3.8.76c1.73.35,3.05.93,3.94,1.76.89.83,1.34,1.95,1.34,3.36,0,1.84-.73,3.29-2.2,4.36-1.47,1.07-3.41,1.6-5.84,1.6Z"/><rect x="1071.64" y="549.92" width="263.3" height="263.3" fill="#ffc35a"/><path d="M1129.85,693.46c-1.89,0-3.56-.25-5-.74-1.44-.49-2.65-1.23-3.62-2.22s-1.71-2.21-2.22-3.68-.76-3.16-.76-5.08v-15.04c0-.69.18-1.21.54-1.56.36-.35.87-.52,1.54-.52s1.18.17,1.54.52c.36.35.54.87.54,1.56v14.96c0,2.75.63,4.8,1.9,6.16s3.11,2.04,5.54,2.04,4.31-.68,5.56-2.04c1.25-1.36,1.88-3.41,1.88-6.16v-14.96c0-.69.18-1.21.54-1.56.36-.35.86-.52,1.5-.52s1.17.17,1.52.52c.35.35.52.87.52,1.56v15.04c0,2.56-.43,4.71-1.3,6.46-.87,1.75-2.15,3.06-3.86,3.94-1.71.88-3.83,1.32-6.36,1.32Z"/><path d="M1149.33,693.38c-.64,0-1.13-.18-1.48-.54-.35-.36-.52-.86-.52-1.5v-16c0-.67.17-1.17.52-1.52.35-.35.83-.52,1.44-.52s1.13.17,1.46.52c.33.35.5.85.5,1.52v3.12l-.44-.72c.59-1.49,1.51-2.62,2.76-3.38,1.25-.76,2.69-1.14,4.32-1.14s2.83.29,3.86.86c1.03.57,1.79,1.44,2.3,2.6s.76,2.62.76,4.38v10.28c0,.64-.17,1.14-.52,1.5s-.84.54-1.48.54-1.17-.18-1.52-.54-.52-.86-.52-1.5v-10.04c0-1.68-.33-2.91-.98-3.68-.65-.77-1.67-1.16-3.06-1.16-1.63,0-2.93.51-3.9,1.52s-1.46,2.37-1.46,4.08v9.28c0,1.36-.68,2.04-2.04,2.04Z"/><path d="M1172.37,669.22c-.8,0-1.42-.2-1.86-.6-.44-.4-.66-.96-.66-1.68s.22-1.31.66-1.7c.44-.39,1.06-.58,1.86-.58s1.42.19,1.86.58c.44.39.66.95.66,1.7s-.22,1.28-.66,1.68c-.44.4-1.06.6-1.86.6ZM1172.37,693.34c-.64,0-1.13-.19-1.48-.58-.35-.39-.52-.93-.52-1.62v-15.6c0-.69.17-1.23.52-1.6.35-.37.84-.56,1.48-.56s1.14.19,1.5.56c.36.38.54.91.54,1.6v15.6c0,.69-.17,1.23-.52,1.62-.35.39-.85.58-1.52.58Z"/><path d="M1188.41,693.46c-1.6,0-2.95-.28-4.04-.84-1.09-.56-1.91-1.38-2.44-2.48s-.8-2.43-.8-4v-9.44h-2.4c-.53,0-.95-.14-1.24-.42-.29-.28-.44-.66-.44-1.14,0-.51.15-.89.44-1.16.29-.27.71-.4,1.24-.4h2.4v-4.12c0-.67.18-1.17.54-1.52.36-.35.86-.52,1.5-.52s1.13.17,1.48.52c.35.35.52.85.52,1.52v4.12h4.68c.53,0,.95.13,1.24.4.29.27.44.65.44,1.16,0,.48-.15.86-.44,1.14-.29.28-.71.42-1.24.42h-4.68v9.12c0,1.41.3,2.48.9,3.2.6.72,1.58,1.08,2.94,1.08.48,0,.9-.04,1.26-.14.36-.09.66-.15.9-.18.29,0,.53.1.72.3s.28.58.28,1.14c0,.4-.07.77-.22,1.12-.15.35-.41.57-.78.68-.32.11-.75.21-1.3.3-.55.09-1.03.14-1.46.14Z"/><path d="M1213.57,693.46c-1.6,0-2.95-.28-4.04-.84-1.09-.56-1.91-1.38-2.44-2.48s-.8-2.43-.8-4v-9.44h-2.4c-.53,0-.95-.14-1.24-.42-.29-.28-.44-.66-.44-1.14,0-.51.15-.89.44-1.16.29-.27.71-.4,1.24-.4h2.4v-4.12c0-.67.18-1.17.54-1.52.36-.35.86-.52,1.5-.52s1.13.17,1.48.52c.35.35.52.85.52,1.52v4.12h4.68c.53,0,.95.13,1.24.4.29.27.44.65.44,1.16,0,.48-.15.86-.44,1.14-.29.28-.71.42-1.24.42h-4.68v9.12c0,1.41.3,2.48.9,3.2.6.72,1.58,1.08,2.94,1.08.48,0,.9-.04,1.26-.14.36-.09.66-.15.9-.18.29,0,.53.1.72.3s.28.58.28,1.14c0,.4-.07.77-.22,1.12-.15.35-.41.57-.78.68-.32.11-.75.21-1.3.3-.55.09-1.03.14-1.46.14Z"/><path d="M1228.81,693.46c-2.13,0-3.97-.41-5.5-1.22-1.53-.81-2.72-1.97-3.56-3.48-.84-1.51-1.26-3.3-1.26-5.38s.41-3.8,1.24-5.32c.83-1.52,1.96-2.71,3.4-3.56,1.44-.85,3.08-1.28,4.92-1.28,1.36,0,2.57.22,3.64.66,1.07.44,1.98,1.08,2.74,1.92s1.33,1.86,1.72,3.06c.39,1.2.58,2.55.58,4.04,0,.45-.13.79-.4,1.02s-.67.34-1.2.34h-13.44v-2.48h12.32l-.68.56c0-1.33-.19-2.47-.58-3.4-.39-.93-.96-1.65-1.72-2.14-.76-.49-1.7-.74-2.82-.74-1.25,0-2.31.29-3.18.88-.87.59-1.53,1.4-1.98,2.44-.45,1.04-.68,2.25-.68,3.64v.24c0,2.35.55,4.11,1.66,5.3,1.11,1.19,2.71,1.78,4.82,1.78.8,0,1.65-.11,2.54-.32.89-.21,1.74-.57,2.54-1.08.45-.27.86-.38,1.22-.36.36.03.65.15.88.36.23.21.37.48.42.8s0,.65-.16.98c-.16.33-.44.63-.84.9-.91.62-1.96,1.07-3.16,1.38-1.2.31-2.36.46-3.48.46Z"/><path d="M1247.97,693.46c-1.17,0-2.38-.13-3.62-.4-1.24-.27-2.38-.72-3.42-1.36-.35-.24-.59-.51-.72-.8-.13-.29-.18-.59-.14-.9s.16-.57.36-.8c.2-.22.45-.37.76-.42.31-.05.63.01.98.2,1.04.59,2.04.99,3,1.22.96.23,1.91.34,2.84.34,1.41,0,2.48-.25,3.2-.76.72-.51,1.08-1.19,1.08-2.04,0-.69-.24-1.23-.72-1.62-.48-.38-1.2-.69-2.16-.9l-3.8-.76c-1.65-.35-2.91-.96-3.76-1.84-.85-.88-1.28-2-1.28-3.36,0-1.23.33-2.29,1-3.2.67-.91,1.6-1.61,2.8-2.1,1.2-.49,2.59-.74,4.16-.74,1.17,0,2.28.15,3.32.44s2,.73,2.88,1.32c.35.19.57.43.68.74.11.31.13.61.06.9-.07.29-.21.55-.42.78-.21.23-.47.36-.78.4-.31.04-.65-.03-1.02-.22-.8-.51-1.59-.87-2.38-1.08-.79-.21-1.57-.32-2.34-.32-1.41,0-2.47.26-3.18.78-.71.52-1.06,1.22-1.06,2.1,0,.67.21,1.21.64,1.64.43.43,1.09.73,2,.92l3.8.76c1.73.35,3.05.93,3.94,1.76s1.34,1.95,1.34,3.36c0,1.84-.73,3.29-2.2,4.36-1.47,1.07-3.41,1.6-5.84,1.6Z"/><path d="M1268.61,693.46c-1.6,0-2.95-.28-4.04-.84-1.09-.56-1.91-1.38-2.44-2.48s-.8-2.43-.8-4v-9.44h-2.4c-.53,0-.95-.14-1.24-.42-.29-.28-.44-.66-.44-1.14,0-.51.15-.89.44-1.16.29-.27.71-.4,1.24-.4h2.4v-4.12c0-.67.18-1.17.54-1.52.36-.35.86-.52,1.5-.52s1.13.17,1.48.52c.35.35.52.85.52,1.52v4.12h4.68c.53,0,.95.13,1.24.4.29.27.44.65.44,1.16,0,.48-.15.86-.44,1.14-.29.28-.71.42-1.24.42h-4.68v9.12c0,1.41.3,2.48.9,3.2.6.72,1.58,1.08,2.94,1.08.48,0,.9-.04,1.26-.14.36-.09.66-.15.9-.18.29,0,.53.1.72.3s.28.58.28,1.14c0,.4-.07.77-.22,1.12-.15.35-.41.57-.78.68-.32.11-.75.21-1.3.3-.55.09-1.03.14-1.46.14Z"/><path d="M1281.73,693.46c-1.17,0-2.38-.13-3.62-.4-1.24-.27-2.38-.72-3.42-1.36-.35-.24-.59-.51-.72-.8-.13-.29-.18-.59-.14-.9s.16-.57.36-.8c.2-.22.45-.37.76-.42.31-.05.63.01.98.2,1.04.59,2.04.99,3,1.22.96.23,1.91.34,2.84.34,1.41,0,2.48-.25,3.2-.76.72-.51,1.08-1.19,1.08-2.04,0-.69-.24-1.23-.72-1.62-.48-.38-1.2-.69-2.16-.9l-3.8-.76c-1.65-.35-2.91-.96-3.76-1.84-.85-.88-1.28-2-1.28-3.36,0-1.23.33-2.29,1-3.2.67-.91,1.6-1.61,2.8-2.1,1.2-.49,2.59-.74,4.16-.74,1.17,0,2.28.15,3.32.44s2,.73,2.88,1.32c.35.19.57.43.68.74.11.31.13.61.06.9-.07.29-.21.55-.42.78-.21.23-.47.36-.78.4-.31.04-.65-.03-1.02-.22-.8-.51-1.59-.87-2.38-1.08-.79-.21-1.57-.32-2.34-.32-1.41,0-2.47.26-3.18.78-.71.52-1.06,1.22-1.06,2.1,0,.67.21,1.21.64,1.64.43.43,1.09.73,2,.92l3.8.76c1.73.35,3.05.93,3.94,1.76s1.34,1.95,1.34,3.36c0,1.84-.73,3.29-2.2,4.36-1.47,1.07-3.41,1.6-5.84,1.6Z"/></svg>