<?xml version="1.0" encoding="UTF-8"?><svg id="Layer_2" xmlns="http://www.w3.org/2000/svg" xmlns:xlink="http://www.w3.org/1999/xlink" viewBox="0 0 810.83 1191.93"><defs><clipPath id="clippath"><path d="M359.16,265.53s22.78-13.72,43.05,9.47c14.88,17.03-5.69,27.3-10.22,22.56-1.22-1.27-7.29-7.63-14.09-10.38-8.77-3.54-18.88-2.94-18.88-2.94-3.47-1.4-5.87-4.6-6.24-8.32h0c-.45-4.51,2.16-8.77,6.39-10.4Z" fill="none"/></clipPath></defs><rect x="233.6" y="514.71" width="348.07" height="43.02" rx="6.73" ry="6.73" fill="#fff"/><path d="M574.94,516.71c2.61,0,4.73,2.12,4.73,4.73v29.57c0,2.61-2.12,4.73-4.73,4.73H240.33c-2.61,0-4.73-2.12-4.73-4.73v-29.57c0-2.61,2.12-4.73,4.73-4.73h334.61M574.94,512.71H240.33c-4.82,0-8.73,3.91-8.73,8.73v29.57c0,4.82,3.91,8.73,8.73,8.73h334.61c4.82,0,8.73-3.91,8.73-8.73v-29.57c0-4.82-3.91-8.73-8.73-8.73h0Z" fill="#a7acb5"/><rect x="290.57" y="525.06" width="16.8" height="184.78" rx="2.83" ry="2.83" fill="#ea8f9b"/><rect x="510.75" y="525.06" width="16.8" height="189.58" rx="2.86" ry="2.86" fill="#ea8f9b"/><rect x="268.6" y="697.83" width="280.93" height="16.81" rx="3.31" ry="3.31" fill="#181e31"/><path d="M346.28,544.85c-1.61,0-3.04-.35-4.29-1.06-1.24-.7-2.2-1.7-2.88-2.98-.67-1.28-1.01-2.78-1.01-4.49,0-1.28.19-2.45.58-3.5.38-1.05.94-1.95,1.66-2.7.72-.75,1.58-1.32,2.6-1.71,1.01-.39,2.12-.59,3.35-.59,1.64,0,3.08.35,4.31,1.04,1.23.7,2.18,1.68,2.87,2.96.68,1.28,1.02,2.77,1.02,4.47,0,1.3-.19,2.47-.58,3.52s-.94,1.95-1.67,2.71-1.59,1.33-2.6,1.73c-1,.39-2.12.59-3.36.59ZM346.28,541.78c.92,0,1.71-.22,2.36-.66.65-.44,1.15-1.06,1.5-1.88.35-.81.53-1.79.53-2.91,0-1.72-.39-3.06-1.16-4-.77-.95-1.85-1.42-3.23-1.42-.91,0-1.69.21-2.35.63-.66.42-1.16,1.04-1.5,1.84-.34.81-.52,1.79-.52,2.95,0,1.71.39,3.04,1.16,4s1.84,1.44,3.21,1.44Z"/><path d="M359.11,544.81c-.58,0-1.03-.16-1.34-.48-.31-.32-.47-.78-.47-1.37v-13.03c0-.61.16-1.07.48-1.39.32-.31.77-.47,1.35-.47h5.73c1.83,0,3.25.47,4.26,1.41s1.51,2.23,1.51,3.88-.5,2.96-1.51,3.91-2.43,1.42-4.26,1.42h-3.92v4.27c0,.59-.15,1.05-.46,1.37-.31.32-.76.48-1.37.48ZM360.94,535.84h3.31c.94,0,1.66-.21,2.15-.62s.74-1.04.74-1.87-.25-1.42-.74-1.83c-.49-.41-1.21-.61-2.15-.61h-3.31v4.93Z"/><path d="M374.79,544.62c-.61,0-1.08-.16-1.41-.49-.33-.33-.49-.81-.49-1.43v-12.71c0-.63.16-1.1.49-1.43.33-.33.8-.49,1.41-.49h8.2c.47,0,.83.12,1.07.36.24.24.36.59.36,1.04s-.12.83-.36,1.07c-.24.24-.6.36-1.07.36h-6.6v3.88h6.08c.48,0,.85.12,1.08.36.23.24.35.6.35,1.07s-.12.8-.35,1.04c-.23.24-.6.36-1.08.36h-6.08v4.16h6.6c.47,0,.83.12,1.07.36.24.24.36.6.36,1.07s-.12.8-.36,1.04c-.24.24-.6.36-1.07.36h-8.2Z"/><path d="M388.91,544.81c-.58,0-1.03-.16-1.34-.48-.31-.32-.47-.78-.47-1.37v-13.03c0-.61.16-1.07.48-1.39.32-.31.77-.47,1.35-.47h5.73c1.83,0,3.25.45,4.26,1.34s1.51,2.14,1.51,3.73c0,1.03-.23,1.92-.68,2.68-.45.75-1.11,1.33-1.97,1.74-.86.41-1.9.61-3.12.61l.21-.38h.94c.66,0,1.23.16,1.73.47.49.31.91.8,1.26,1.46l1.48,2.72c.23.39.34.77.32,1.14s-.17.67-.43.89c-.27.23-.66.34-1.17.34s-.94-.11-1.26-.32c-.32-.21-.61-.54-.86-1l-2.28-4.13c-.22-.45-.5-.75-.83-.9-.34-.15-.76-.22-1.26-.22h-1.76v4.72c0,.59-.15,1.05-.46,1.37-.31.32-.76.48-1.37.48ZM390.74,535.58h3.29c.96,0,1.68-.2,2.17-.59.49-.39.74-.98.74-1.76s-.25-1.35-.74-1.74c-.49-.39-1.22-.59-2.17-.59h-3.29v4.67Z"/><path d="M403.56,544.81c-.44,0-.79-.1-1.07-.29s-.44-.47-.5-.81c-.06-.34,0-.73.19-1.15l6.04-13.2c.25-.52.55-.89.9-1.13.35-.23.75-.35,1.19-.35s.85.12,1.2.35c.34.24.64.61.89,1.13l6.04,13.2c.2.44.28.83.22,1.16-.05.34-.22.6-.49.8s-.61.29-1.02.29c-.53,0-.94-.12-1.23-.36-.29-.24-.54-.63-.76-1.16l-1.41-3.26,1.46,1.01h-9.79l1.46-1.01-1.39,3.26c-.25.53-.5.92-.75,1.16-.25.24-.63.36-1.15.36ZM410.28,531.94l-3.03,7.19-.63-.94h7.35l-.61.94-3.03-7.19h-.05Z"/><path d="M424.7,544.81c-.58,0-1.03-.16-1.34-.48-.31-.32-.47-.78-.47-1.37v-11.88h-4.13c-.5,0-.88-.13-1.15-.4-.27-.27-.4-.64-.4-1.13s.13-.83.4-1.09c.27-.26.65-.39,1.15-.39h11.93c.48,0,.86.13,1.13.39.27.26.4.62.4,1.09s-.13.86-.4,1.13c-.27.27-.64.4-1.13.4h-4.16v11.88c0,.59-.15,1.05-.46,1.37-.31.32-.76.48-1.37.48Z"/><path d="M440.48,544.85c-1.61,0-3.04-.35-4.29-1.06-1.24-.7-2.2-1.7-2.88-2.98-.67-1.28-1.01-2.78-1.01-4.49,0-1.28.19-2.45.58-3.5.38-1.05.94-1.95,1.66-2.7.72-.75,1.58-1.32,2.6-1.71,1.01-.39,2.12-.59,3.35-.59,1.64,0,3.08.35,4.31,1.04,1.23.7,2.18,1.68,2.87,2.96.68,1.28,1.02,2.77,1.02,4.47,0,1.3-.19,2.47-.58,3.52s-.94,1.95-1.67,2.71-1.59,1.33-2.6,1.73c-1,.39-2.12.59-3.36.59ZM440.48,541.78c.92,0,1.71-.22,2.36-.66.65-.44,1.15-1.06,1.5-1.88.35-.81.53-1.79.53-2.91,0-1.72-.39-3.06-1.16-4-.77-.95-1.85-1.42-3.23-1.42-.91,0-1.69.21-2.35.63-.66.42-1.16,1.04-1.5,1.84-.34.81-.52,1.79-.52,2.95,0,1.71.39,3.04,1.16,4s1.84,1.44,3.21,1.44Z"/><path d="M453.3,544.81c-.58,0-1.03-.16-1.34-.48-.31-.32-.47-.78-.47-1.37v-13.03c0-.61.16-1.07.48-1.39.32-.31.77-.47,1.35-.47h5.73c1.83,0,3.25.45,4.26,1.34s1.51,2.14,1.51,3.73c0,1.03-.23,1.92-.68,2.68-.45.75-1.11,1.33-1.97,1.74-.86.41-1.9.61-3.12.61l.21-.38h.94c.66,0,1.23.16,1.73.47.49.31.91.8,1.26,1.46l1.48,2.72c.23.39.34.77.32,1.14s-.17.67-.43.89c-.27.23-.66.34-1.17.34s-.94-.11-1.26-.32c-.32-.21-.61-.54-.86-1l-2.28-4.13c-.22-.45-.5-.75-.83-.9-.34-.15-.76-.22-1.26-.22h-1.76v4.72c0,.59-.15,1.05-.46,1.37-.31.32-.76.48-1.37.48ZM455.13,535.58h3.29c.96,0,1.68-.2,2.17-.59.49-.39.74-.98.74-1.76s-.25-1.35-.74-1.74c-.49-.39-1.22-.59-2.17-.59h-3.29v4.67Z"/><path d="M473.69,544.85c-.66,0-1.33-.05-2.02-.14-.69-.09-1.33-.23-1.94-.42-.6-.19-1.15-.42-1.63-.7-.36-.19-.61-.43-.75-.74-.14-.3-.19-.61-.14-.93.05-.31.16-.59.34-.83.18-.24.43-.4.74-.47.31-.07.65-.01,1.01.18.66.34,1.37.6,2.13.78.76.17,1.51.26,2.27.26,1.13,0,1.94-.17,2.44-.52.5-.34.75-.78.75-1.31,0-.47-.18-.83-.53-1.09-.35-.26-.96-.47-1.82-.65l-2.65-.56c-1.5-.33-2.62-.87-3.33-1.63-.72-.76-1.08-1.76-1.08-3,0-.78.16-1.5.48-2.15.32-.65.77-1.21,1.36-1.67.59-.46,1.3-.81,2.13-1.06.83-.24,1.75-.36,2.75-.36.86,0,1.71.1,2.56.3.85.2,1.6.51,2.25.92.3.19.5.42.62.71.12.28.16.58.12.88-.04.31-.16.56-.35.78s-.44.35-.74.41-.66,0-1.08-.21c-.5-.27-1.04-.46-1.63-.58-.59-.12-1.19-.18-1.8-.18-.66,0-1.22.09-1.68.26-.46.17-.81.41-1.04.72-.23.3-.35.67-.35,1.09s.16.8.48,1.08c.32.28.89.51,1.7.68l2.63.56c1.55.33,2.7.86,3.46,1.58.76.73,1.14,1.69,1.14,2.88,0,.78-.16,1.49-.49,2.12-.33.63-.79,1.17-1.37,1.62-.59.45-1.29.79-2.11,1.03-.82.24-1.76.36-2.81.36Z"/><path d="M197.99,576.51h409.62c4.79,0,8.68,3.89,8.68,8.68v36.2c0,4.79-3.89,8.68-8.68,8.68H197.99c-4.79,0-8.68-3.89-8.68-8.68v-36.2c0-4.79,3.89-8.68,8.68-8.68Z" fill="#fff"/><path d="M607.61,578.51c3.68,0,6.68,3,6.68,6.68v36.2c0,3.68-3,6.68-6.68,6.68H197.99c-3.68,0-6.68-3-6.68-6.68v-36.2c0-3.68,3-6.68,6.68-6.68h409.63M607.61,574.51H197.99c-5.9,0-10.68,4.78-10.68,10.68v36.2c0,5.9,4.78,10.68,10.68,10.68h409.63c5.9,0,10.68-4.78,10.68-10.68v-36.2c0-5.9-4.78-10.68-10.68-10.68h0Z" fill="#a7acb5"/><path d="M307.18,614.27c-.74,0-1.31-.21-1.71-.61-.4-.41-.6-.99-.6-1.75v-16.85c0-.78.2-1.37.6-1.77.4-.4.97-.6,1.71-.6s1.34.2,1.74.6.6.99.6,1.77v16.85c0,.76-.19,1.34-.58,1.75-.39.41-.97.61-1.75.61Z" fill="#181e31"/><path d="M315.93,614.27c-.7,0-1.23-.18-1.6-.55-.37-.37-.55-.91-.55-1.63v-17.09c0-.76.18-1.33.55-1.72.37-.39.86-.58,1.48-.58.54,0,.95.1,1.24.3.29.2.62.53,1,.99l10.51,13.41h-.84v-12.54c0-.68.19-1.21.57-1.59.38-.38.93-.57,1.65-.57.68,0,1.2.19,1.57.57.37.38.55.91.55,1.59v17.3c0,.66-.17,1.18-.51,1.56-.34.38-.8.57-1.38.57s-1-.1-1.33-.31c-.33-.21-.69-.54-1.09-1l-10.48-13.41h.81v12.54c0,.72-.18,1.26-.55,1.63-.37.37-.9.55-1.6.55Z" fill="#181e31"/><path d="M338.74,614.04c-.78,0-1.38-.21-1.8-.63-.42-.42-.63-1.03-.63-1.83v-16.2c0-.8.21-1.41.63-1.83.42-.42,1.02-.63,1.8-.63h5.84c3.59,0,6.38.91,8.35,2.74s2.96,4.43,2.96,7.8c0,1.68-.25,3.17-.76,4.49s-1.25,2.42-2.22,3.32c-.97.9-2.15,1.58-3.53,2.05-1.39.47-2.99.7-4.8.7h-5.84ZM340.95,610.23h3.32c1.14,0,2.13-.14,2.98-.43.85-.29,1.55-.71,2.11-1.26s.98-1.25,1.26-2.1c.28-.85.42-1.84.42-2.98,0-2.28-.56-3.97-1.68-5.07s-2.81-1.66-5.09-1.66h-3.32v13.5Z" fill="#181e31"/><path d="M361.91,614.04c-.78,0-1.38-.21-1.8-.63-.42-.42-.63-1.03-.63-1.83v-16.2c0-.8.21-1.41.63-1.83.42-.42,1.02-.63,1.8-.63h10.45c.6,0,1.05.15,1.36.46.31.31.46.75.46,1.33s-.15,1.05-.46,1.36c-.31.31-.76.46-1.36.46h-8.41v4.94h7.75c.62,0,1.08.15,1.38.46s.45.76.45,1.36-.15,1.02-.45,1.33-.76.46-1.38.46h-7.75v5.3h8.41c.6,0,1.05.15,1.36.46.31.31.46.76.46,1.36s-.15,1.02-.46,1.33c-.31.31-.76.46-1.36.46h-10.45Z" fill="#181e31"/><path d="M379.75,614.27c-.7,0-1.23-.18-1.6-.55-.37-.37-.55-.91-.55-1.63v-17.09c0-.76.18-1.33.55-1.72.37-.39.86-.58,1.48-.58.54,0,.95.1,1.24.3.29.2.62.53,1,.99l10.51,13.41h-.84v-12.54c0-.68.19-1.21.57-1.59.38-.38.93-.57,1.65-.57.68,0,1.2.19,1.57.57.37.38.55.91.55,1.59v17.3c0,.66-.17,1.18-.51,1.56-.34.38-.8.57-1.38.57s-1-.1-1.33-.31c-.33-.21-.69-.54-1.09-1l-10.48-13.41h.81v12.54c0,.72-.18,1.26-.55,1.63-.37.37-.9.55-1.6.55Z" fill="#181e31"/><path d="M407.47,614.27c-.74,0-1.31-.21-1.71-.61-.4-.41-.6-.99-.6-1.75v-15.15h-5.27c-.64,0-1.13-.17-1.47-.51-.34-.34-.51-.82-.51-1.44s.17-1.06.51-1.39c.34-.33.83-.49,1.47-.49h15.21c.62,0,1.1.16,1.44.49.34.33.51.79.51,1.39s-.17,1.1-.51,1.44-.82.51-1.44.51h-5.3v15.15c0,.76-.19,1.34-.58,1.75-.39.41-.97.61-1.75.61Z" fill="#181e31"/><path d="M417.26,614.27c-.56,0-1.01-.12-1.36-.37s-.56-.59-.64-1.03c-.08-.44,0-.93.24-1.47l7.69-16.82c.32-.66.7-1.14,1.15-1.44.45-.3.95-.45,1.51-.45s1.09.15,1.53.45c.44.3.82.78,1.14,1.44l7.69,16.82c.26.56.35,1.05.28,1.48-.07.43-.28.77-.63,1.02-.35.25-.78.37-1.3.37-.68,0-1.2-.15-1.57-.46-.37-.31-.69-.8-.97-1.48l-1.8-4.16,1.86,1.29h-12.48l1.86-1.29-1.77,4.16c-.32.68-.64,1.17-.96,1.48-.32.31-.81.46-1.47.46ZM425.82,597.87l-3.86,9.16-.81-1.2h9.37l-.78,1.2-3.86-9.16h-.06Z" fill="#181e31"/><path d="M444.2,614.27c-.74,0-1.31-.21-1.71-.61-.4-.41-.6-.99-.6-1.75v-15.15h-5.27c-.64,0-1.13-.17-1.47-.51-.34-.34-.51-.82-.51-1.44s.17-1.06.51-1.39c.34-.33.83-.49,1.47-.49h15.21c.62,0,1.1.16,1.44.49.34.33.51.79.51,1.39s-.17,1.1-.51,1.44-.82.51-1.44.51h-5.3v15.15c0,.76-.19,1.34-.58,1.75-.39.41-.97.61-1.75.61Z" fill="#181e31"/><path d="M458.09,614.27c-.74,0-1.31-.21-1.71-.61-.4-.41-.6-.99-.6-1.75v-16.85c0-.78.2-1.37.6-1.77.4-.4.97-.6,1.71-.6s1.34.2,1.74.6.6.99.6,1.77v16.85c0,.76-.19,1.34-.58,1.75-.39.41-.97.61-1.75.61Z" fill="#181e31"/><path d="M474.46,614.33c-2.06,0-3.88-.45-5.46-1.35s-2.81-2.17-3.67-3.8c-.86-1.64-1.29-3.54-1.29-5.72,0-1.64.24-3.12.73-4.46s1.19-2.49,2.11-3.44c.92-.96,2.02-1.69,3.31-2.18,1.29-.5,2.71-.75,4.27-.75,2.1,0,3.93.44,5.49,1.33,1.57.89,2.78,2.15,3.65,3.77s1.3,3.53,1.3,5.7c0,1.66-.24,3.15-.73,4.49-.49,1.34-1.2,2.49-2.13,3.46-.93.97-2.03,1.7-3.31,2.2-1.28.5-2.7.75-4.28.75ZM474.46,610.41c1.18,0,2.18-.28,3.01-.84s1.47-1.36,1.92-2.4c.45-1.04.67-2.28.67-3.71,0-2.2-.49-3.9-1.48-5.1-.99-1.21-2.36-1.81-4.12-1.81-1.16,0-2.16.27-2.99.81-.84.54-1.48,1.32-1.92,2.35-.44,1.03-.66,2.28-.66,3.76,0,2.18.49,3.88,1.48,5.1.99,1.23,2.35,1.84,4.09,1.84Z" fill="#181e31"/><path d="M490.66,614.27c-.7,0-1.23-.18-1.6-.55-.37-.37-.55-.91-.55-1.63v-17.09c0-.76.18-1.33.55-1.72.37-.39.86-.58,1.48-.58.54,0,.95.1,1.24.3.29.2.62.53,1,.99l10.51,13.41h-.84v-12.54c0-.68.19-1.21.57-1.59.38-.38.93-.57,1.65-.57.68,0,1.2.19,1.57.57.37.38.55.91.55,1.59v17.3c0,.66-.17,1.18-.51,1.56-.34.38-.8.57-1.38.57s-1-.1-1.33-.31c-.33-.21-.69-.54-1.09-1l-10.48-13.41h.81v12.54c0,.72-.18,1.26-.55,1.63-.37.37-.9.55-1.6.55Z" fill="#181e31"/><rect x="259.49" y="589.63" width="20.56" height="226.21" rx="3.46" ry="3.46" fill="#ea8f9b"/><rect x="529.03" y="589.63" width="20.56" height="232.08" rx="3.5" ry="3.5" fill="#ea8f9b"/><rect x="232.59" y="801.13" width="343.91" height="20.57" rx="4.05" ry="4.05" fill="#181e31"/><path d="M99.1,875.94c-1.3,0-2.52-.6-3.11-1.52l-11.35-17.81c-.59-.93-.37-1.74-.09-2.26.44-.81,1.52-1.67,3.2-1.67h633.19c1.79,0,2.89.98,3.28,1.82.22.47.46,1.41-.38,2.41l-15.13,17.81c-.65.77-1.73,1.23-2.89,1.23H99.1Z" fill="#fff"/><path d="M720.94,854.68c.79,0,1.18.32,1.32.46.14.15.17.26.17.28,0,.01-.03.08-.12.19l-15.13,17.81c-.2.24-.69.52-1.37.52H99.1c-.68,0-1.23-.3-1.42-.6l-11.35-17.81c-.05-.08-.06-.12-.06-.12,0-.12.41-.73,1.48-.73h633.19M720.94,850.68H87.75c-4.17,0-6.81,3.86-4.8,7.01l11.35,17.81c.96,1.51,2.8,2.45,4.8,2.45h606.71c1.74,0,3.38-.72,4.42-1.93l15.13-17.81c2.65-3.12.07-7.52-4.42-7.52h0Z" fill="#a7acb5"/><path d="M331.49,870.32c-1.2,0-2.45-.03-3.74-.09-1.3-.06-2.53-.15-3.71-.26-1.18-.12-2.28-.26-3.29-.44-.74-.12-1.31-.27-1.7-.46-.39-.19-.62-.38-.67-.58-.05-.19.04-.37.27-.52.23-.15.62-.25,1.18-.29.56-.04,1.21,0,1.96.11,1.37.21,2.79.37,4.27.48,1.48.11,2.91.16,4.3.16,2.09,0,3.54-.11,4.35-.32.81-.21,1.13-.49.94-.82-.16-.29-.62-.52-1.37-.68-.75-.16-1.98-.29-3.66-.4l-5.23-.35c-2.98-.21-5.32-.54-7.01-1.02-1.7-.47-2.83-1.09-3.37-1.86-.34-.49-.34-.93,0-1.34.35-.4,1.01-.75,1.97-1.04.97-.29,2.23-.51,3.78-.66,1.55-.15,3.33-.23,5.32-.23,1.71,0,3.45.06,5.2.19,1.75.13,3.34.32,4.78.57.65.12,1.13.26,1.45.44.32.18.49.36.51.55.02.19-.13.35-.44.48-.31.13-.75.22-1.31.26-.56.04-1.29,0-2.18-.13-1.07-.17-2.2-.29-3.39-.36-1.19-.07-2.39-.11-3.58-.11-1.29,0-2.35.05-3.19.16-.84.11-1.42.25-1.76.45-.34.19-.42.42-.25.68s.63.5,1.36.67c.73.17,1.91.32,3.55.42l5.26.35c3.08.21,5.47.53,7.15.99,1.67.45,2.69,1.05,3.06,1.79.24.49.16.93-.26,1.32-.41.39-1.08.73-2.02,1.01-.93.28-2.11.49-3.53.64-1.42.15-3.08.23-5,.23Z" fill="#181e31"/><path d="M357.79,870.29c-1.06,0-1.91-.1-2.56-.3-.65-.2-1.06-.49-1.21-.87l-1.72-4.22,1.95,1.3-12.79-4.91c-.59-.2-.92-.43-.97-.66-.05-.24.16-.44.66-.61.49-.17,1.26-.26,2.28-.26.75,0,1.45.06,2.11.17.66.11,1.32.29,1.99.55l8.69,3.37h-1.49l6.18-3.37c.51-.25,1.03-.44,1.57-.55.54-.11,1.2-.17,1.98-.17,1,0,1.8.08,2.4.23.6.16.95.35,1.05.59.09.24-.08.48-.54.74l-9.03,4.88.92-1.3,1.48,4.22c.27.78-.7,1.17-2.93,1.17Z" fill="#181e31"/><path d="M379.32,870.29c-1,0-1.78-.09-2.35-.27-.57-.18-.89-.45-.97-.8l-1.85-8.34c-.08-.37.14-.65.68-.84.53-.19,1.29-.28,2.25-.28.84,0,1.5.05,1.97.15.47.1,1.02.26,1.65.48l16.59,6.54h-1.23l-.32-6.12c-.02-.33.26-.59.85-.77.58-.18,1.44-.28,2.56-.28,1.06,0,1.88.09,2.45.28.58.18.86.44.86.77v8.44c-.01.32-.26.57-.74.76-.49.18-1.14.28-1.97.28s-1.44-.05-1.91-.15c-.48-.1-1.01-.27-1.59-.49l-16.26-6.54h1.23l1.04,6.12c.06.35-.16.62-.66.8-.5.18-1.25.27-2.25.27Z" fill="#181e31"/><path d="M419.01,870.29c-1.06,0-1.86-.1-2.41-.3-.55-.2-.8-.48-.76-.85l.85-7.39h-8.1c-.98,0-1.73-.08-2.25-.25-.52-.17-.77-.4-.77-.7s.28-.52.81-.68c.53-.16,1.3-.24,2.29-.24h23.71c.96,0,1.69.08,2.18.24.49.16.69.39.62.68s-.4.54-.97.7c-.56.17-1.32.25-2.27.25h-8.14l-1.27,7.39c-.06.37-.39.66-.98.85-.59.2-1.44.3-2.56.3Z" fill="#181e31"/><path d="M433.03,870.29c-.8,0-1.44-.06-1.91-.18-.47-.12-.74-.29-.8-.5-.06-.21.11-.45.52-.72l13.9-8.21c.6-.32,1.28-.55,2.03-.7.75-.15,1.56-.22,2.44-.22s1.67.07,2.3.22c.63.15,1.12.38,1.49.7l7.87,8.21c.24.27.26.51.05.72-.21.21-.59.38-1.15.5-.56.12-1.21.18-1.95.18-.97,0-1.69-.08-2.15-.23-.46-.15-.82-.39-1.08-.72l-1.74-2.03,2.45.63h-18.24l2.91-.63-3.19,2.03c-.56.33-1.08.57-1.59.72-.5.15-1.22.23-2.16.23ZM448.23,862.29l-7.34,4.47-1.01-.58h13.89l-1.4.58-4.05-4.47h-.09Z" fill="#181e31"/><path d="M465.83,870.29c-.86,0-1.52-.08-2-.23-.48-.16-.7-.35-.66-.59.04-.24.41-.48,1.12-.74l12.14-4.28-.61,1.01-7.29-4.13c-.46-.24-.59-.49-.38-.73.2-.24.65-.44,1.34-.6.69-.16,1.49-.23,2.39-.23.78,0,1.42.06,1.94.17.51.11.99.29,1.44.55l5.5,3.34h-2.26l9.73-3.34c.76-.25,1.47-.44,2.12-.55.65-.11,1.38-.17,2.19-.17.93,0,1.65.08,2.15.23.5.15.69.35.59.59-.1.24-.57.49-1.4.75l-12.46,4.13.65-1.01,6.83,4.28c.36.25.42.5.17.74-.25.24-.71.44-1.38.59-.67.16-1.45.23-2.34.23-.69,0-1.25-.06-1.7-.18-.45-.12-.87-.3-1.28-.55l-5.29-3.46h2.26l-9.62,3.46c-.69.25-1.34.44-1.95.55-.61.12-1.26.18-1.94.18Z" fill="#181e31"/><path d="M273.83,964.98h-24.86c-1.74,0-3.16-1.22-3.16-2.72l-57.91-101.69c0-1.5,1.41-2.72,3.16-2.72h24.86c1.74,0,3.16,1.22,3.16,2.72l57.91,101.69c0,1.5-1.41,2.72-3.16,2.72Z" fill="#ea8f9b"/><path d="M566.51,967.76h-24.78c-1.76,0-3.2-1.24-3.2-2.76l57.91-104.4c0-1.52,1.43-2.76,3.2-2.76h24.78c1.76,0,3.2,1.24,3.2,2.76l-57.91,104.4c0,1.52-1.43,2.76-3.2,2.76Z" fill="#ea8f9b"/><path d="M661.37,967.76H154.15c-.76,0-1.45-.37-1.8-.95l-3.72-6.26c-.69-1.16.29-2.54,1.8-2.54h514.66c1.51,0,2.49,1.38,1.8,2.54l-3.72,6.26c-.35.58-1.04.95-1.8.95Z" fill="#181e31"/><rect x="427.33" y="581.68" width="77.13" height="47.26" rx="23.63" ry="23.63" transform="translate(931.8 1210.62) rotate(180)" fill="#754c24"/><path d="M531.77,663.16l-60.34-157.69c-5.58-14.58-22.32-22.93-37.4-18.65h0c-15.07,4.28-22.77,19.58-17.19,34.16l60.34,157.69c5.61,14.65,22.47,23,37.58,18.6h0c14.97-4.36,22.56-19.59,17.01-34.1Z" fill="#c69c6d"/><path d="M615.03,819.16l-81.06-150.63c-7.5-13.93-25.24-20.56-39.64-14.8h0c-14.4,5.75-19.99,21.71-12.5,35.64l81.06,150.63c7.53,13.99,25.4,20.61,39.82,14.73h0c14.28-5.82,19.79-21.7,12.33-35.57Z" fill="#c69c6d"/><path d="M653.77,581.57l-143.8-100.99c-13.3-9.34-29.62-5.23-36.46,9.18h0c-6.84,14.41-1.6,33.66,11.69,43l143.8,100.99c13.36,9.38,29.76,5.19,36.54-9.35h0c6.72-14.4,1.46-33.53-11.78-42.82Z" fill="#c69c6d"/><path d="M640.93,579.17l-155.35-6.98c-14.36-.65-26.42,12.31-26.93,28.93h0c-.51,16.62,10.73,30.63,25.09,31.27l155.35,6.98c14.43.65,26.52-12.43,26.93-29.13h0c.41-16.55-10.8-30.43-25.1-31.07Z" fill="#c69c6d"/><rect x="560.15" y="833.24" width="86.28" height="47.26" rx="23.63" ry="23.63" transform="translate(1511.05 1380.44) rotate(155.12)" fill="#754c24"/><circle cx="467.42" cy="509.53" r="50.68" fill="#c69c6d"/><path d="M423,511.02l64.75-28.81c9-4,15.9-8.62,12.68-18.5l-51.11-155.18c-5.1-16.15-17.35-28.08-25.28-24.62l-98.93,43.12c-7.93,3.46-7.53,20.55.83,35.28l82.16,141.64c6.23,10.97,8.99,9.64,14.9,7.07Z" fill="#d9eef9"/><rect x="286.26" y="319.3" width="57.29" height="160.85" rx="28.64" ry="28.64" transform="translate(194.03 -94.58) rotate(24.49)" fill="#d9eef9"/><rect x="479.59" y="173.48" width="53.32" height="182.97" rx="26.66" ry="26.66" transform="translate(433.55 -301.79) rotate(55.06)" fill="#d9eef9"/><rect x="408.81" y="485.53" width="99.85" height="14.77" transform="translate(-164.79 238.71) rotate(-24.88)" fill="#754c24"/><rect x="464.46" y="478.31" width="19.69" height="14.77" transform="translate(-160.31 244.6) rotate(-24.88)" fill="#c9c9c9"/><rect x="497.65" y="466.63" width="3.7" height="14.77" transform="translate(-153.06 254.11) rotate(-24.88)" fill="#c69c6d"/><rect x="436.72" y="494.43" width="5.63" height="14.77" transform="translate(-170.32 231.46) rotate(-24.88)" fill="#c69c6d"/><circle cx="414.39" cy="357.13" r="4.86" fill="#a9d2ed"/><circle cx="426.05" cy="382.28" r="4.86" fill="#a9d2ed"/><circle cx="437.71" cy="407.43" r="4.86" fill="#a9d2ed"/><circle cx="449.37" cy="432.58" r="4.86" fill="#a9d2ed"/><circle cx="461.04" cy="457.73" r="4.86" fill="#a9d2ed"/><circle cx="618.17" cy="117.39" r="24.35" fill="#f7c7b7"/><circle cx="309.11" cy="574.67" r="24.35" fill="#f7c7b7"/><rect x="562.75" y="117.45" width="51.7" height="134.61" rx="25.85" ry="25.85" transform="translate(171.23 -269.55) rotate(30)" fill="#d9eef9"/><rect x="266.68" y="426.16" width="56.08" height="145.99" rx="28.04" ry="28.04" transform="translate(-46.02 30.21) rotate(-5.44)" fill="#d9eef9"/><path d="M394.91,315.28h0c-33.06,6.97-67.17-18.05-78.69-57.71l-32.12-110.88c-2.44-11.55,3.24-22.53,12.68-24.52l113.24-23.87c9.44-1.99,19.06,5.76,21.49,17.31l12.09,115.1c5.47,40.94-15.63,77.6-48.69,84.56Z" fill="#f7c7b7"/><circle cx="297.43" cy="218.03" r="24.35" fill="#f7c7b7"/><g clip-path="url(#clippath)"><polygon points="406.4 311.82 340.7 277.26 363.81 235.17 427.64 270.21 406.4 311.82" fill="#bc2f36"/><ellipse cx="377.21" cy="286.24" rx="10.21" ry="14.22" transform="translate(-29.4 528.9) rotate(-68.02)" fill="#e8896d"/></g><path d="M404,252.26h0c-4.81,1.11-9.81-2.76-11.18-8.66l.81-20.29c.12-3.12,4.23-4.18,5.85-1.51l10.43,17.23c.21.34.37.73.44,1.12,1.05,5.68-1.71,11.01-6.35,12.09Z" fill="#e8896d"/><circle cx="367.75" cy="203.64" r="18.24" fill="#fff"/><circle cx="371.08" cy="199.22" r="9.05" fill="#3d3d3d"/><circle cx="411.76" cy="193.86" r="18.24" fill="#fff"/><circle cx="407.54" cy="191.07" r="9.05" fill="#3d3d3d"/><path d="M432.47,123.17c-3.94-44.31-42.99-77.55-83.38-35.46-40.39,42.09-.39.4-.58.59-12.67,13.17-40.37,26.16-57.12,33.25-7.68,3.25-11.52,12.41-8.8,20.97l4.53,14.27,145.67-29.96-.33-3.67Z" fill="#c69c6d"/><polygon points="347.61 211.96 380.03 184.54 368.07 170.19 334.49 195.98 347.61 211.96" fill="#f7c7b7"/><rect x="46.58" y="734.98" width="707.46" height="91.02" rx="15.63" ry="15.63" fill="#fff"/><path d="M738.4,736.98c7.52,0,13.63,6.12,13.63,13.63v59.76c0,7.52-6.12,13.63-13.63,13.63H62.21c-7.52,0-13.63-6.12-13.63-13.63v-59.76c0-7.52,6.12-13.63,13.63-13.63h676.19M738.4,732.98H62.21c-9.74,0-17.63,7.89-17.63,17.63v59.76c0,9.74,7.89,17.63,17.63,17.63h676.19c9.74,0,17.63-7.89,17.63-17.63v-59.76c0-9.74-7.89-17.63-17.63-17.63h0Z" fill="#a7acb5"/><rect x="163.74" y="757.94" width="33.95" height="373.41" rx="5.71" ry="5.71" fill="#ea8f9b"/><rect x="608.68" y="757.94" width="33.95" height="383.11" rx="5.79" ry="5.79" fill="#ea8f9b"/><rect x="119.33" y="1107.09" width="567.71" height="33.96" rx="6.69" ry="6.69" fill="#181e31"/><path d="M324.85,800.05c-1.43,0-2.55-.41-3.34-1.22-.79-.81-1.19-1.94-1.19-3.37v-31.87c0-1.51.39-2.65,1.16-3.42.77-.77,1.88-1.16,3.31-1.16s2.59.39,3.37,1.16c.77.77,1.16,1.92,1.16,3.42v28.85h15.56c1.24,0,2.19.33,2.84.99.66.66.99,1.59.99,2.79s-.33,2.19-.99,2.84c-.66.66-1.61.99-2.84.99h-20.03Z" fill="#181e31"/><path d="M370.3,800.63c-3.99,0-7.52-.87-10.59-2.61-3.08-1.74-5.45-4.2-7.11-7.37-1.66-3.17-2.5-6.87-2.5-11.09,0-3.17.47-6.06,1.42-8.65.95-2.59,2.31-4.82,4.09-6.68,1.78-1.86,3.92-3.27,6.41-4.24,2.5-.97,5.25-1.45,8.27-1.45,4.06,0,7.61.86,10.65,2.58,3.04,1.72,5.4,4.16,7.08,7.31,1.68,3.16,2.53,6.84,2.53,11.06,0,3.21-.47,6.12-1.42,8.71-.95,2.59-2.32,4.83-4.12,6.71-1.8,1.88-3.94,3.3-6.42,4.27-2.48.97-5.24,1.45-8.3,1.45ZM370.3,793.03c2.28,0,4.23-.54,5.83-1.63,1.61-1.08,2.84-2.63,3.72-4.64.87-2.01,1.31-4.41,1.31-7.2,0-4.26-.96-7.56-2.87-9.9-1.92-2.34-4.58-3.51-7.98-3.51-2.25,0-4.18.52-5.81,1.57s-2.86,2.56-3.72,4.56c-.85,1.99-1.28,4.42-1.28,7.29,0,4.22.96,7.52,2.87,9.9,1.92,2.38,4.56,3.57,7.92,3.57Z" fill="#181e31"/><path d="M417.79,800.63c-4.61,0-8.5-.86-11.67-2.58-3.17-1.72-5.6-4.15-7.29-7.29-1.68-3.14-2.53-6.81-2.53-11.03,0-3.25.49-6.17,1.48-8.77.99-2.59,2.41-4.83,4.27-6.71,1.86-1.88,4.14-3.3,6.85-4.27,2.71-.97,5.77-1.45,9.17-1.45,2.09,0,4.18.21,6.27.64s4.1,1.2,6.04,2.32c.81.5,1.36,1.11,1.65,1.83.29.72.37,1.46.23,2.24-.14.77-.45,1.46-.93,2.06-.48.6-1.1,1-1.86,1.19-.75.19-1.62.04-2.58-.46-1.28-.7-2.64-1.22-4.09-1.57-1.45-.35-3.01-.52-4.67-.52-2.75,0-5.04.52-6.88,1.57-1.84,1.04-3.22,2.56-4.15,4.56s-1.39,4.44-1.39,7.34c0,4.37,1.05,7.68,3.16,9.93,2.11,2.25,5.23,3.37,9.38,3.37,1.35,0,2.78-.15,4.27-.44,1.49-.29,2.95-.67,4.38-1.13l-1.68,3.71v-11.2h-5.23c-1.16,0-2.05-.29-2.67-.87-.62-.58-.93-1.39-.93-2.44s.31-1.79.93-2.35c.62-.56,1.51-.84,2.67-.84h9.06c1.16,0,2.05.31,2.67.93.62.62.93,1.49.93,2.61v13.53c0,1.04-.2,1.91-.61,2.58-.41.68-1.06,1.17-1.94,1.48-1.74.62-3.7,1.11-5.86,1.48-2.17.37-4.32.55-6.44.55Z" fill="#181e31"/><path d="M445.08,800.51c-1.43,0-2.54-.4-3.31-1.19-.77-.79-1.16-1.92-1.16-3.4v-32.68c0-1.51.39-2.65,1.16-3.43.77-.77,1.88-1.16,3.31-1.16s2.59.39,3.37,1.16c.77.78,1.16,1.92,1.16,3.43v32.68c0,1.47-.38,2.6-1.13,3.4-.75.79-1.89,1.19-3.4,1.19Z" fill="#181e31"/><path d="M477.64,800.63c-4.37,0-8.14-.86-11.29-2.58-3.15-1.72-5.56-4.17-7.23-7.34-1.66-3.17-2.5-6.89-2.5-11.15,0-3.17.47-6.06,1.42-8.65.95-2.59,2.33-4.82,4.15-6.68,1.82-1.86,4.04-3.27,6.65-4.24,2.61-.97,5.54-1.45,8.79-1.45,2.01,0,4.01.23,5.98.7s3.7,1.14,5.17,2.03c.97.58,1.63,1.27,1.97,2.06.35.79.45,1.59.32,2.38-.14.79-.46,1.49-.99,2.09-.52.6-1.17.99-1.94,1.16-.77.17-1.65,0-2.61-.55-1.16-.7-2.37-1.2-3.63-1.51-1.26-.31-2.56-.46-3.92-.46-2.59,0-4.77.51-6.53,1.54-1.76,1.03-3.08,2.5-3.95,4.41-.87,1.92-1.31,4.31-1.31,7.17s.44,5.17,1.31,7.14c.87,1.97,2.19,3.47,3.95,4.5,1.76,1.03,3.94,1.54,6.53,1.54,1.24,0,2.51-.15,3.8-.46,1.3-.31,2.54-.79,3.74-1.45,1.01-.5,1.9-.69,2.67-.55.77.14,1.42.48,1.94,1.04.52.56.86,1.24,1.02,2.03.15.79.08,1.57-.23,2.32-.31.75-.89,1.4-1.74,1.94-1.47.97-3.23,1.71-5.28,2.24-2.05.52-4.14.78-6.27.78Z" fill="#181e31"/><path d="M666.6,207.07c1.16,2.5,4.07,3.72,6.7,2.74l25.32-9.52c2.75-1.03,4.14-4.1,3.11-6.85l-9.52-25.32c-.05-.13-.1-.25-.16-.37-1.16-2.5-4.07-3.72-6.69-2.74l-25.32,9.52c-2.75,1.03-4.14,4.1-3.1,6.85l9.52,25.32c.05.13.1.25.15.37" fill="#ea8f9b"/><path d="M711.32,184.31c.55,1.18,1.72,2.03,3.12,2.08l18.3.75c1.99.08,3.66-1.46,3.74-3.45l.75-18.29c.02-.59-.1-1.16-.33-1.66-.55-1.18-1.72-2.03-3.12-2.08l-18.29-.75c-1.99-.08-3.66,1.46-3.75,3.45l-.75,18.3c-.02.59.1,1.16.33,1.66" fill="#ea8f9b" opacity=".75"/><path d="M707,218.68c.22.47.57.88,1.05,1.15l11.43,6.63c1.24.72,2.83.3,3.55-.94l6.64-11.43c.44-.76.45-1.66.11-2.4-.22-.47-.57-.87-1.05-1.15l-11.43-6.64c-1.24-.72-2.83-.3-3.55.94l-6.64,11.44c-.44.76-.46,1.65-.11,2.4" fill="#ea8f9b" opacity=".5"/><path d="M103.76,896.84c-2.84-.57-5.68,1.15-6.47,3.99l-7.6,27.38c-.83,2.97.91,6.05,3.89,6.87l27.37,7.6c.14.04.27.07.41.1,2.84.56,5.68-1.15,6.47-3.98l7.6-27.38c.82-2.97-.92-6.05-3.89-6.87l-27.38-7.6c-.14-.04-.27-.07-.41-.1" fill="#ea8f9b"/><path d="M95.38,948.87c-1.34-.27-2.79.21-3.7,1.36l-11.96,15.06c-1.3,1.63-1.03,4.01.61,5.31l15.05,11.96c.49.39,1.04.64,1.61.75,1.34.27,2.79-.21,3.7-1.36l11.97-15.05c1.3-1.64,1.03-4.01-.61-5.31l-15.06-11.97c-.49-.39-1.04-.64-1.61-.75" fill="#ea8f9b" opacity=".75"/><path d="M68.9,923.92c-.53-.11-1.1-.05-1.63.18l-12.71,5.59c-1.38.61-2.01,2.22-1.4,3.6l5.59,12.71c.37.85,1.12,1.41,1.97,1.58.53.11,1.1.05,1.63-.18l12.71-5.59c1.38-.61,2-2.22,1.4-3.6l-5.59-12.71c-.37-.85-1.12-1.41-1.97-1.58" fill="#ea8f9b" opacity=".5"/></svg>