<?xml version="1.0" encoding="UTF-8"?><svg id="Layer_2" xmlns="http://www.w3.org/2000/svg" xmlns:xlink="http://www.w3.org/1999/xlink" viewBox="0 0 1902.43 1405.68"><defs><clipPath id="clippath"><path d="M1619.34,1072.24c-44.59,18.89-107.02,17.15-107.02,17.15l.9-24.4s36.12,8,100.41-12.78l5.71,20.02Z" fill="none"/></clipPath></defs><rect x="237.98" y="111.03" width="1469.86" height="1033.94" rx="25.96" ry="25.96" fill="#181e31"/><rect x="351.76" y="267.49" width="272.19" height="65.94" rx="8.63" ry="8.63" fill="#454c5c"/><rect x="643.28" y="268.18" width="73.3" height="65.94" rx="8.63" ry="8.63" fill="#454c5c"/><rect x="738.35" y="267.49" width="146.24" height="65.94" rx="8.63" ry="8.63" fill="#454c5c"/><rect x="1543.51" y="137.78" width="137.52" height="46.36" rx="9.13" ry="9.13" fill="#454c5c"/><rect x="1379.34" y="137.78" width="137.52" height="46.36" rx="9.13" ry="9.13" fill="#454c5c"/><rect x="351.76" y="384.12" width="191.27" height="21.81" rx="3.38" ry="3.38" fill="#454c5c"/><rect x="351.76" y="454.91" width="252.65" height="21.81" rx="3.88" ry="3.88" fill="#454c5c"/><rect x="556.87" y="384.12" width="191.27" height="21.81" rx="3.38" ry="3.38" fill="#454c5c"/><rect x="351.76" y="419.52" width="164.56" height="21.81" rx="3.13" ry="3.13" fill="#454c5c"/><rect x="529.15" y="419.52" width="394.12" height="21.81" rx="4.85" ry="4.85" fill="#454c5c"/><rect x="761.98" y="384.12" width="191.27" height="21.81" rx="3.38" ry="3.38" fill="#454c5c"/><rect x="351.76" y="531.54" width="1227.58" height="491.66" rx="13.42" ry="13.42" fill="#454c5c"/><rect x="389.29" y="630.66" width="556.78" height="294.18" rx="15.25" ry="15.25" fill="#181e31"/><rect x="986.74" y="630.66" width="556.78" height="294.18" rx="15.25" ry="15.25" fill="#181e31"/><line x1="351.76" y1="599.36" x2="1579.34" y2="599.36" fill="none" stroke="#616878" stroke-miterlimit="10" stroke-width="8.63"/><line x1="237.98" y1="216.79" x2="1707.84" y2="216.79" fill="none" stroke="#616878" stroke-miterlimit="10" stroke-width="8.63"/><rect x="389.29" y="553.62" width="95.41" height="21.81" rx="2.39" ry="2.39" fill="#616878"/><rect x="653.57" y="553.62" width="95.41" height="21.81" rx="2.39" ry="2.39" fill="#ea8f9b"/><rect x="917.84" y="553.62" width="95.41" height="21.81" rx="2.39" ry="2.39" fill="#616878"/><rect x="1182.97" y="553.62" width="95.41" height="21.81" rx="2.39" ry="2.39" fill="#616878"/><rect x="1448.1" y="553.62" width="95.41" height="21.81" rx="2.39" ry="2.39" fill="#616878"/><rect x="1405.99" y="951.63" width="137.52" height="46.36" rx="9.13" ry="9.13" fill="#ea8f9b"/><rect x="407.06" y="648.56" width="197.34" height="42.79" rx="5.51" ry="5.51" fill="#454c5c"/><rect x="407.06" y="709.47" width="215.1" height="42.79" rx="5.75" ry="5.75" fill="#454c5c"/><rect x="407.06" y="770.38" width="171.13" height="42.79" rx="5.13" ry="5.13" fill="#454c5c"/><rect x="407.06" y="831.28" width="197.34" height="42.79" rx="5.51" ry="5.51" fill="#454c5c"/><line x1="1037.99" y1="699.98" x2="1543.51" y2="699.98" fill="none" stroke="#323a49" stroke-miterlimit="10" stroke-width="8.63"/><line x1="1037.99" y1="761.32" x2="1543.51" y2="761.32" fill="none" stroke="#323a49" stroke-miterlimit="10" stroke-width="8.63"/><line x1="1037.99" y1="822.65" x2="1543.51" y2="822.65" fill="none" stroke="#323a49" stroke-miterlimit="10" stroke-width="8.63"/><line x1="1037.99" y1="883.99" x2="1543.51" y2="883.99" fill="none" stroke="#323a49" stroke-miterlimit="10" stroke-width="8.63"/><line x1="1037.99" y1="925.21" x2="1037.99" y2="631.03" fill="none" stroke="#323a49" stroke-miterlimit="10" stroke-width="8.63"/><line x1="1096.3" y1="925.21" x2="1096.3" y2="631.03" fill="none" stroke="#323a49" stroke-miterlimit="10" stroke-width="8.63"/><line x1="1154.6" y1="925.21" x2="1154.6" y2="631.03" fill="none" stroke="#323a49" stroke-miterlimit="10" stroke-width="8.63"/><line x1="1212.91" y1="925.21" x2="1212.91" y2="631.03" fill="none" stroke="#323a49" stroke-miterlimit="10" stroke-width="8.63"/><line x1="1271.22" y1="925.21" x2="1271.22" y2="631.03" fill="none" stroke="#323a49" stroke-miterlimit="10" stroke-width="8.63"/><line x1="1329.52" y1="925.21" x2="1329.52" y2="631.03" fill="none" stroke="#323a49" stroke-miterlimit="10" stroke-width="8.63"/><line x1="1387.83" y1="925.21" x2="1387.83" y2="631.03" fill="none" stroke="#323a49" stroke-miterlimit="10" stroke-width="8.63"/><line x1="1446.13" y1="925.21" x2="1446.13" y2="631.03" fill="none" stroke="#323a49" stroke-miterlimit="10" stroke-width="8.63"/><line x1="1504.44" y1="925.21" x2="1504.44" y2="631.03" fill="none" stroke="#323a49" stroke-miterlimit="10" stroke-width="8.63"/><path d="M1789,210.49c4.12,1.38,8.68-.63,10.39-4.7l16.55-39.3c1.8-4.27-.2-9.18-4.47-10.98l-39.3-16.55c-.2-.08-.39-.16-.59-.22-4.12-1.38-8.67.63-10.39,4.69l-16.55,39.3c-1.8,4.26.21,9.18,4.47,10.98l39.3,16.55c.2.08.39.16.59.22" fill="#ea8f9b"/><path d="M1811.42,134.63c1.95.65,4.19.22,5.77-1.31l20.69-20.13c2.25-2.18,2.3-5.77.11-8.02l-20.12-20.69c-.65-.67-1.43-1.15-2.26-1.42-1.95-.66-4.19-.22-5.76,1.31l-20.69,20.12c-2.25,2.19-2.3,5.78-.11,8.03l20.13,20.69c.65.67,1.43,1.14,2.26,1.42" fill="#ea8f9b" opacity=".75"/><path d="M1846.07,176.84c.77.26,1.62.29,2.46.04l19.99-5.89c2.17-.64,3.41-2.92,2.77-5.09l-5.89-19.99c-.39-1.33-1.4-2.31-2.63-2.73-.77-.26-1.62-.29-2.46-.04l-19.99,5.89c-2.17.64-3.41,2.92-2.77,5.09l5.9,19.99c.39,1.33,1.4,2.31,2.62,2.73" fill="#ea8f9b" opacity=".5"/><path d="M165.98,1027.65c-4.2-1.11-8.62,1.19-10.06,5.36l-13.96,40.29c-1.52,4.37.8,9.15,5.18,10.66l40.29,13.96c.2.07.4.13.61.18,4.2,1.11,8.61-1.19,10.06-5.36l13.96-40.3c1.51-4.37-.8-9.15-5.18-10.66l-40.29-13.96c-.2-.07-.4-.13-.6-.18" fill="#ea8f9b"/><path d="M148.54,1104.81c-1.99-.53-4.19.05-5.67,1.68l-19.34,21.43c-2.1,2.32-1.92,5.91.41,8.01l21.43,19.34c.69.63,1.5,1.05,2.35,1.27,1.99.53,4.19-.05,5.67-1.69l19.34-21.42c2.1-2.33,1.92-5.92-.41-8.02l-21.43-19.34c-.69-.63-1.5-1.05-2.34-1.27" fill="#ea8f9b" opacity=".75"/><path d="M111.22,1064.94c-.79-.21-1.64-.19-2.46.12l-19.56,7.18c-2.13.78-3.21,3.14-2.43,5.26l7.18,19.56c.48,1.3,1.55,2.22,2.8,2.55.78.21,1.64.19,2.46-.12l19.56-7.18c2.12-.78,3.21-3.14,2.43-5.26l-7.18-19.56c-.48-1.3-1.55-2.22-2.8-2.55" fill="#ea8f9b" opacity=".5"/><g id="logo_white"><g id="rainbow"><path id="Rectangle_17" d="M291.03,150.07h5.25v30.77h-5.25c-1.35,0-2.44-1.09-2.44-2.44v-25.89c0-1.35,1.09-2.44,2.44-2.44Z" fill="#b43429"/><rect id="Rectangle_18" x="296.28" y="150.07" width="7.69" height="30.77" fill="#d75140"/><rect id="Rectangle_19" x="303.97" y="150.07" width="7.69" height="30.77" fill="#f0be42"/><rect id="Rectangle_20" x="311.67" y="150.07" width="7.69" height="30.77" fill="#58a55b"/><rect id="Rectangle_21" x="319.36" y="150.07" width="7.69" height="30.77" fill="#5382eb"/><path id="Rectangle_22" d="M327.05,150.07h5.25c1.35,0,2.44,1.09,2.44,2.44v25.89c0,1.35-1.09,2.44-2.44,2.44h-5.25v-30.77h0Z" fill="#5338aa"/></g><path d="M383.44,177.56c-2.2,0-4.19-.51-5.97-1.53-1.78-1.02-3.18-2.41-4.2-4.18-1.02-1.76-1.53-3.73-1.53-5.9s.51-4.17,1.53-5.92c1.02-1.75,2.42-3.13,4.2-4.15,1.78-1.02,3.77-1.53,5.97-1.53,1.73,0,3.35.33,4.85,1,1.5.67,2.78,1.62,3.83,2.85l-3.34,3.39c-.65-.77-1.43-1.35-2.34-1.74-.91-.39-1.91-.58-2.99-.58-1.27,0-2.39.29-3.37.86-.97.57-1.73,1.35-2.27,2.34-.54.99-.81,2.15-.81,3.48s.27,2.45.81,3.46c.54,1.01,1.3,1.8,2.27,2.37.97.57,2.1.86,3.37.86,1.08,0,2.08-.19,2.99-.58.91-.39,1.69-.97,2.34-1.74l3.34,3.39c-1.05,1.24-2.33,2.19-3.83,2.86-1.5.67-3.12,1-4.85,1Z" fill="#e6e7ec"/><path d="M406,177.56c-2.17,0-4.13-.52-5.9-1.56-1.76-1.04-3.16-2.44-4.2-4.2-1.04-1.76-1.56-3.73-1.56-5.9s.52-4.12,1.56-5.85c1.04-1.73,2.44-3.12,4.2-4.15,1.76-1.04,3.73-1.56,5.9-1.56s4.18.51,5.94,1.53c1.76,1.02,3.16,2.41,4.2,4.15,1.04,1.75,1.56,3.71,1.56,5.87s-.52,4.13-1.56,5.9c-1.04,1.76-2.44,3.16-4.2,4.2-1.76,1.04-3.75,1.56-5.94,1.56ZM406,172.64c1.27,0,2.39-.29,3.37-.86.97-.57,1.73-1.37,2.27-2.39.54-1.02.81-2.18.81-3.48s-.28-2.44-.84-3.44c-.56-.99-1.32-1.77-2.27-2.34-.96-.57-2.07-.86-3.34-.86s-2.34.29-3.32.86c-.97.57-1.73,1.35-2.27,2.34-.54.99-.81,2.14-.81,3.44s.27,2.46.81,3.48c.54,1.02,1.3,1.82,2.27,2.39.97.57,2.08.86,3.32.86Z" fill="#e6e7ec"/><path d="M431.26,177.56c-2.01,0-3.83-.51-5.45-1.53s-2.91-2.41-3.85-4.15c-.94-1.75-1.42-3.71-1.42-5.87s.47-4.17,1.42-5.92c.94-1.75,2.23-3.14,3.85-4.18,1.62-1.04,3.44-1.56,5.45-1.56,1.7,0,3.21.36,4.53,1.09,1.32.73,2.36,1.73,3.13,2.99.77,1.27,1.16,2.71,1.16,4.32v6.41c0,1.61-.38,3.05-1.14,4.32-.76,1.27-1.8,2.27-3.13,2.99-1.33.73-2.85,1.09-4.55,1.09ZM432.09,172.73c1.27,0,2.37-.29,3.32-.86.94-.57,1.68-1.37,2.2-2.39.53-1.02.79-2.2.79-3.53s-.26-2.51-.79-3.53c-.53-1.02-1.26-1.82-2.2-2.39-.94-.57-2.05-.86-3.32-.86s-2.33.29-3.27.86c-.94.57-1.69,1.37-2.23,2.39-.54,1.02-.81,2.2-.81,3.53s.27,2.51.81,3.53c.54,1.02,1.28,1.82,2.23,2.39.94.57,2.03.86,3.27.86ZM443.19,177.09h-5.11v-5.99l.88-5.43-.88-5.39v-16.62h5.11v33.43Z" fill="#e6e7ec"/><path d="M459.2,177.56c-2.23,0-4.23-.5-6.01-1.51-1.78-1.01-3.19-2.39-4.22-4.15-1.04-1.76-1.56-3.74-1.56-5.94s.51-4.17,1.53-5.92c1.02-1.75,2.41-3.13,4.15-4.15,1.75-1.02,3.69-1.53,5.83-1.53s3.91.48,5.5,1.44c1.59.96,2.85,2.27,3.76,3.95.91,1.67,1.37,3.57,1.37,5.71,0,.37-.02.75-.07,1.14-.05.39-.12.81-.21,1.28h-18.29v-4.18h15.64l-1.9,1.67c-.06-1.36-.32-2.51-.79-3.44-.46-.93-1.12-1.64-1.97-2.14-.85-.49-1.9-.74-3.13-.74-1.3,0-2.43.28-3.39.84-.96.56-1.7,1.34-2.23,2.34-.53,1.01-.79,2.2-.79,3.6s.28,2.62.84,3.67c.56,1.05,1.35,1.86,2.37,2.44,1.02.57,2.2.86,3.53.86,1.14,0,2.21-.2,3.18-.6.97-.4,1.8-.99,2.48-1.76l3.25,3.3c-1.08,1.27-2.4,2.23-3.95,2.88-1.55.65-3.19.97-4.92.97Z" fill="#e6e7ec"/><path d="M480.93,177.56c-1.24,0-2.43-.16-3.57-.49-1.15-.32-2.2-.79-3.16-1.39-.96-.6-1.8-1.34-2.51-2.21l3.25-3.25c.77.9,1.66,1.57,2.67,2.02,1.01.45,2.14.67,3.41.67,1.14,0,2.01-.17,2.6-.51.59-.34.88-.84.88-1.49s-.28-1.21-.84-1.58c-.56-.37-1.28-.69-2.16-.95-.88-.26-1.81-.53-2.79-.81-.97-.28-1.9-.66-2.79-1.14-.88-.48-1.6-1.14-2.16-1.97s-.84-1.92-.84-3.25c0-1.42.33-2.65,1-3.67.67-1.02,1.61-1.81,2.83-2.37,1.22-.56,2.68-.84,4.39-.84,1.79,0,3.38.32,4.76.95,1.38.63,2.53,1.59,3.46,2.86l-3.25,3.25c-.65-.8-1.39-1.41-2.23-1.81-.84-.4-1.8-.6-2.88-.6-1.02,0-1.81.16-2.37.46-.56.31-.84.76-.84,1.35,0,.62.28,1.1.84,1.44.56.34,1.28.63,2.16.88.88.25,1.81.52,2.79.81.97.29,1.9.7,2.79,1.21s1.6,1.19,2.16,2.04c.56.85.84,1.96.84,3.32,0,2.17-.76,3.88-2.27,5.15-1.52,1.27-3.57,1.9-6.17,1.9Z" fill="#e6e7ec"/><path d="M493.6,186.38v-31.57h5.11v5.99l-.88,5.43.88,5.39v14.76h-5.11ZM505.53,177.56c-1.7,0-3.22-.36-4.55-1.09-1.33-.73-2.38-1.72-3.13-2.99-.76-1.27-1.14-2.71-1.14-4.32v-6.41c0-1.61.39-3.05,1.16-4.32.77-1.27,1.83-2.27,3.16-2.99,1.33-.73,2.83-1.09,4.5-1.09,2.01,0,3.83.52,5.45,1.56,1.62,1.04,2.91,2.43,3.85,4.18.94,1.75,1.42,3.72,1.42,5.92s-.47,4.12-1.42,5.87c-.94,1.75-2.23,3.13-3.85,4.15-1.62,1.02-3.44,1.53-5.45,1.53ZM504.7,172.73c1.24,0,2.33-.29,3.27-.86.94-.57,1.69-1.37,2.23-2.39.54-1.02.81-2.2.81-3.53s-.27-2.51-.81-3.53c-.54-1.02-1.28-1.82-2.23-2.39-.94-.57-2.04-.86-3.27-.86s-2.34.29-3.3.86c-.96.57-1.7,1.37-2.23,2.39-.53,1.02-.79,2.2-.79,3.53s.26,2.51.79,3.53c.53,1.02,1.27,1.82,2.23,2.39.96.57,2.06.86,3.3.86Z" fill="#e6e7ec"/><path d="M530.88,177.56c-2.23,0-4.23-.5-6.01-1.51-1.78-1.01-3.19-2.39-4.22-4.15-1.04-1.76-1.56-3.74-1.56-5.94s.51-4.17,1.53-5.92c1.02-1.75,2.41-3.13,4.15-4.15,1.75-1.02,3.69-1.53,5.83-1.53s3.91.48,5.5,1.44c1.59.96,2.85,2.27,3.76,3.95.91,1.67,1.37,3.57,1.37,5.71,0,.37-.02.75-.07,1.14-.05.39-.12.81-.21,1.28h-18.29v-4.18h15.64l-1.9,1.67c-.06-1.36-.32-2.51-.79-3.44-.46-.93-1.12-1.64-1.97-2.14-.85-.49-1.9-.74-3.13-.74-1.3,0-2.43.28-3.39.84-.96.56-1.7,1.34-2.23,2.34-.53,1.01-.79,2.2-.79,3.6s.28,2.62.84,3.67c.56,1.05,1.35,1.86,2.37,2.44,1.02.57,2.2.86,3.53.86,1.14,0,2.21-.2,3.18-.6.97-.4,1.8-.99,2.48-1.76l3.25,3.3c-1.08,1.27-2.4,2.23-3.95,2.88-1.55.65-3.19.97-4.92.97Z" fill="#e6e7ec"/><path d="M555.58,177.56c-2.2,0-4.19-.51-5.97-1.53-1.78-1.02-3.18-2.41-4.2-4.18-1.02-1.76-1.53-3.73-1.53-5.9s.51-4.17,1.53-5.92c1.02-1.75,2.42-3.13,4.2-4.15,1.78-1.02,3.77-1.53,5.97-1.53,1.73,0,3.35.33,4.85,1,1.5.67,2.78,1.62,3.83,2.85l-3.34,3.39c-.65-.77-1.43-1.35-2.34-1.74-.91-.39-1.91-.58-2.99-.58-1.27,0-2.39.29-3.37.86-.97.57-1.73,1.35-2.27,2.34-.54.99-.81,2.15-.81,3.48s.27,2.45.81,3.46c.54,1.01,1.3,1.8,2.27,2.37.97.57,2.1.86,3.37.86,1.08,0,2.08-.19,2.99-.58.91-.39,1.69-.97,2.34-1.74l3.34,3.39c-1.05,1.24-2.33,2.19-3.83,2.86-1.5.67-3.12,1-4.85,1Z" fill="#e6e7ec"/><path d="M281.04,184.08c-2.51,0-4.36-.67-5.55-2.02-1.19-1.35-1.68-3.3-1.46-5.87l.51-6.04c.09-1.08-.02-1.87-.32-2.37-.31-.49-.9-.74-1.76-.74h-1.3v-3.95h1.3c.87,0,1.45-.26,1.76-.77.31-.51.42-1.29.32-2.34l-.51-5.9c-.22-2.57.27-4.53,1.46-5.87,1.19-1.35,3.04-2.02,5.55-2.02h2.6v4.04h-2.23c-1.3,0-2.17.29-2.62.86-.45.57-.61,1.51-.49,2.81l.42,5.15c.12,1.3.07,2.4-.16,3.3-.23.9-.71,1.64-1.44,2.23-.73.59-1.77,1.07-3.13,1.44v-1.76c1.36.31,2.41.75,3.13,1.32.73.57,1.21,1.31,1.44,2.2.23.9.29,2,.16,3.3l-.42,5.29c-.09,1.3.08,2.24.51,2.81.43.57,1.3.86,2.6.86h2.23v4.04h-2.6Z" fill="#e6e7ec"/><path d="M342.09,184.08h-2.6v-4.04h2.23c1.3,0,2.17-.29,2.6-.86.43-.57.6-1.51.51-2.81l-.42-5.29c-.09-1.3-.03-2.4.19-3.3.22-.9.69-1.63,1.42-2.2.73-.57,1.77-1.01,3.13-1.32v1.76c-1.36-.37-2.41-.85-3.13-1.44-.73-.59-1.2-1.33-1.42-2.23-.22-.9-.28-2-.19-3.3l.42-5.15c.12-1.3-.04-2.24-.49-2.81-.45-.57-1.32-.86-2.62-.86h-2.23v-4.04h2.6c2.51,0,4.36.67,5.57,2.02s1.69,3.3,1.44,5.87l-.51,5.9c-.09,1.05.02,1.83.32,2.34.31.51.9.77,1.76.77h1.3v3.95h-1.3c-.87,0-1.46.25-1.76.74-.31.5-.42,1.28-.32,2.37l.51,6.04c.22,2.57-.27,4.53-1.46,5.87-1.19,1.35-3.04,2.02-5.55,2.02Z" fill="#e6e7ec"/></g><rect x="1755.75" y="1121.81" width="61.4" height="23.8" rx="5.67" ry="5.67" fill="#ffc5b4"/><path d="M1410.33,989.79l117.99,102.14c10.91,9.45,11.01,27.2.23,39.65h0c-10.78,12.46-28.37,14.9-39.28,5.45l-117.99-102.14c-10.96-9.49-11.01-27.35-.1-39.8h0c10.8-12.33,28.29-14.7,39.15-5.3Z" fill="#c69c6d"/><path d="M1622.07,1089.56c0,30.96-25.1,56.06-56.06,56.06s-56.06-25.1-56.06-56.06c11.47-15.28,25.1-56.06,56.06-56.06s56.06,25.1,56.06,56.06Z" fill="#c69c6d"/><path d="M1400.71,996.67l-46.34,115.52c-4.29,10.68-18.29,15.12-31.27,9.91h0c-12.99-5.21-20.04-18.09-15.75-28.77l46.34-115.52c4.31-10.73,18.41-15.15,31.43-9.84h0c12.9,5.26,19.86,18.08,15.6,28.71Z" fill="#c69c6d"/><path d="M1553.53,826.63h0c-37.95,0-69.64-35.17-73.11-81.13l-8.8-116.62h163.82s-8.8,116.62-8.8,116.62c-3.47,45.96-35.16,81.13-73.11,81.13Z" fill="#ffc5b4"/><rect x="1242.4" y="1100.4" width="116.8" height="53.09" rx="24.7" ry="24.7" fill="#754c24"/><path d="M1605.28,1069.32l-92.06-.67-17.61-172.47c-1.86-16.65,4.89-32.31,13.93-32.31h112.68c9.04,0,15.78,15.65,13.93,32.31l-16.93,151.84c-1.38,12.41-7.19,21.29-13.93,21.29Z" fill="#d9eef9"/><circle cx="1469.61" cy="697.17" r="27.35" fill="#ffc5b4"/><circle cx="1363.03" cy="1100.4" r="27.89" fill="#ffc5b4"/><rect x="1533.02" y="797.92" width="39.31" height="67.22" rx="15.06" ry="15.06" fill="#ffc5b4"/><g clip-path="url(#clippath)"><path d="M1619.34,1072.24c-44.59,18.89-107.02,17.15-107.02,17.15l.9-24.4s36.12,8,100.41-12.78l5.71,20.02Z" fill="#754c24"/><rect x="1574.67" y="1062.07" width="5.66" height="24.4" transform="translate(-166.89 299.89) rotate(-10.32)" fill="#c69c6d"/><rect x="1523.81" y="1065" width="22.63" height="24.4" fill="#c9c9c9"/></g><rect x="1413.96" y="829.97" width="64.34" height="220.1" rx="32.17" ry="32.17" transform="translate(1452.88 2664.8) rotate(-123.25)" fill="#d9eef9"/><rect x="1628.01" y="848.17" width="64.34" height="212.41" rx="32.17" ry="32.17" transform="translate(3558.81 704.92) rotate(142.62)" fill="#d9eef9"/><path d="M1388.36,1117.04l183.14-35.24c16.93-3.26,33.3,7.83,36.56,24.76h0c3.26,16.93-7.83,33.3-24.76,36.56l-183.14,35.24c-17.01,3.27-33.44-7.93-36.6-24.97h0c-3.13-16.88,7.95-33.12,24.8-36.36Z" fill="#c69c6d"/><path d="M1249.86,1279.82l115.82-146.17c10.71-13.52,30.35-15.79,43.87-5.08h0c13.52,10.71,15.79,30.35,5.08,43.87l-115.82,146.17c-10.76,13.58-30.52,15.8-44.03,4.95h0c-13.38-10.75-15.58-30.28-4.92-43.74Z" fill="#c69c6d"/><rect x="1341.57" y="955.32" width="59.89" height="141.54" rx="29.94" ry="29.94" transform="translate(2565.86 2253.86) rotate(-171.01)" fill="#d9eef9"/><rect x="1704.15" y="981.97" width="64.52" height="158.74" rx="32.26" ry="32.26" transform="translate(3770.47 996.91) rotate(146.75)" fill="#d9eef9"/><rect x="1184.71" y="1288.49" width="116.8" height="53.09" rx="26.54" ry="26.54" transform="translate(-164.86 178.26) rotate(-7.69)" fill="#754c24"/><rect x="1522.19" y="850.17" width="62.67" height="25.8" rx="12.9" ry="12.9" fill="#d9eef9"/><circle cx="1538.56" cy="904.31" r="4.95" fill="#a9d2ed"/><circle cx="1538.56" cy="932.54" r="4.95" fill="#a9d2ed"/><circle cx="1538.56" cy="960.77" r="4.95" fill="#a9d2ed"/><circle cx="1538.56" cy="988.99" r="4.95" fill="#a9d2ed"/><circle cx="1538.56" cy="1017.22" r="4.95" fill="#a9d2ed"/><path d="M1635.76,624.31c5.58-55.29-29.13-105.86-81.97-64.47-52.84,41.39-.51.39-.75.58-16.57,12.94-49.28,21.88-68.91,26.34-9,2.05-15.16,12.3-14.13,23.48l1.72,18.63h163.58l.46-4.57Z" fill="#c69c6d"/><path d="M1575.1,750.73h-7.1c-1.69,0-2.93-1.58-2.54-3.22l7.45-30.79c.6-2.5,4.14-2.57,4.84-.1l6.32,22.24c1.69,5.95-2.78,11.87-8.97,11.87Z" fill="#e8896d"/><circle cx="1553.25" cy="696.95" r="18.86" fill="#fff"/><circle cx="1550.73" cy="696.95" r="9.35" fill="#3d3d3d"/><circle cx="1599.87" cy="697.38" r="18.86" fill="#fff"/><circle cx="1596.27" cy="696.95" r="9.35" fill="#3d3d3d"/><path d="M1529.14,760.18s.96,27.56,29.66,26.61" fill="none" stroke="#e8896d" stroke-linecap="round" stroke-miterlimit="10" stroke-width="8.05"/></svg>