<?xml version="1.0" encoding="UTF-8"?><svg id="Layer_1" xmlns="http://www.w3.org/2000/svg" xmlns:xlink="http://www.w3.org/1999/xlink" viewBox="0 0 497.72 513.97"><defs><clipPath id="clippath"><circle cx="245.08" cy="278.95" r="163.96" fill="none"/></clipPath><clipPath id="clippath-1"><path d="M295.17,440.26c-43.19,14.56-76.38-2.85-76.6-3.52,1.48-6.4,4.07-11.71,4.07-11.71,0,0,27.37,17.71,71.01,4.01l1.52,11.23Z" fill="none"/></clipPath><clipPath id="clippath-2"><rect x="51.17" y="317.83" width="395.37" height="68.5" fill="none"/></clipPath></defs><g clip-path="url(#clippath)"><circle cx="245.08" cy="278.95" r="163.96" fill="#9b9b9b"/><rect x="252.27" y="245.01" width="25.94" height="44.36" rx="6.95" ry="6.95" transform="translate(-8.59 8.81) rotate(-1.87)" fill="#e0e0e0"/><rect x="170.03" y="252.62" width="42.46" height="130.44" rx="20.79" ry="20.79" transform="translate(-64.15 586.84) rotate(-105.45)" fill="#d3eef9"/><rect x="313.78" y="276.17" width="42.46" height="140.17" rx="20.79" ry="20.79" transform="translate(816.73 354.21) rotate(135)" fill="#d3eef9"/><path d="M297.42,461.17c0,19.56-16.95,18.87-35.79,21.47-1.75.24-3.53.37-5.35.37-3.45,0-6.8-.45-9.99-1.3-16.53-4.4-36.02-1.17-33.74-18.94.87-6.74,6.91-32.11,10.21-37.8,6.69-11.57,19.2-19.35,33.52-19.35,16.03,0,31.49,9.54,37.37,23.42,0,0,3.77,26.79,3.77,32.13Z" fill="#828282"/><path d="M268.41,590.18l-10.45-125.27c-.97-11.58,7.09-21.71,18-22.62h0c10.91-.91,20.53,7.74,21.5,19.33l10.45,125.27c.97,11.64-7.16,21.8-18.13,22.63h0c-10.86.83-20.4-7.81-21.36-19.34Z" fill="#cd9965"/><path d="M264.59,256.6h0c-28.29.93-52.68-21.65-56.26-52.07l-11.88-100.81c-.29-8.75,6.03-16.05,14.1-16.31l96.9-3.17c8.07-.26,14.85,6.61,15.14,15.36l-5.26,101.37c-1.59,30.59-24.45,54.71-52.74,55.64Z" fill="#ffc5b4"/><circle cx="199.36" cy="173.44" r="18.05" fill="#ffc5b4"/><circle cx="324.18" cy="168.99" r="18.05" fill="#ffc5b4"/><path d="M283.74,441.78l-48.7-3.52c-6.77-.49-12.05-6.6-12.25-14.19l-3.08-114.55c-.43-12.36,4.75-23.61,10.7-23.23l74.2,4.76c5.95.38,9.65,12.21,7.64,24.41l-18.34,111.22c-1.5,9.09-5.75,15.39-10.18,15.11Z" fill="#c8c8c8"/><rect x="244.7" y="276.66" width="41.35" height="17.03" rx="8.51" ry="8.51" transform="translate(13.08 -11.63) rotate(2.57)" fill="#c8c8c8"/><circle cx="262.31" cy="315.54" r="3.27" fill="#5b5b5b"/><circle cx="261.47" cy="334.15" r="3.27" fill="#5b5b5b"/><circle cx="260.63" cy="352.76" r="3.27" fill="#5b5b5b"/><circle cx="259.8" cy="371.37" r="3.27" fill="#5b5b5b"/><circle cx="258.96" cy="389.97" r="3.27" fill="#5b5b5b"/><g clip-path="url(#clippath-1)"><path d="M306.93,448.97c-30.27,12.47-95.8,3.44-95.8,3.44l.84-41.31s45.57,11.08,89.22-2.62l5.73,40.49Z" fill="#353535"/><polygon points="280.2 431.69 276.42 432.36 279.39 448.2 283.17 447.53 280.2 431.69" fill="#828282"/><polygon points="237.83 429.23 234.05 428.55 231.02 444.37 234.8 445.06 237.83 429.23" fill="#828282"/><polygon points="263.91 433.13 248.55 433.13 246.77 449.23 262.74 450.32 263.91 433.13" fill="#828282"/></g><rect x="195" y="465.05" width="38.37" height="267.23" transform="translate(79.33 -22.7) rotate(7.44)" fill="#cd9965"/><circle cx="297.42" cy="440.22" r="21.58" fill="#ffc5b4"/><rect x="324.22" y="349.07" width="39.52" height="111.55" rx="19.76" ry="19.76" transform="translate(215.96 920.45) rotate(-125.7)" fill="#d3eef9"/><rect x="230.99" y="146.76" width="29" height="48.47" rx="10.15" ry="10.15" transform="translate(-5.46 8.12) rotate(-1.87)" fill="#fff"/><rect x="241.15" y="158.03" width="13.6" height="23.91" rx="4.76" ry="4.76" transform="translate(-5.42 8.2) rotate(-1.87)" fill="#4b4b4b"/><rect x="265.08" y="145.64" width="29" height="48.47" rx="10.15" ry="10.15" transform="translate(-5.4 9.23) rotate(-1.87)" fill="#fff"/><rect x="269.55" y="157.1" width="13.6" height="23.91" rx="4.76" ry="4.76" transform="translate(-5.38 9.12) rotate(-1.87)" fill="#4b4b4b"/><path d="M264.29,212.84h0c-3.56.12-6.56-3.33-6.7-7.69l3.41-14.25c.53-2.19,3.58-2.37,4.35-.25l4.97,13.66c.1.27.16.57.15.86-.05,4.16-2.75,7.56-6.19,7.67Z" fill="#e8896d"/><path d="M291.62,214.69c3.79,9.49-.84,20.26-10.33,24.05-9.49,3.79-20.26-.84-24.05-10.33s8.09-2.09,17.58-5.87c9.49-3.79,13.01-17.34,16.8-7.84Z" fill="#fff"/><path d="M322.25,109.9c3.01-37.31-24.4-70.45-63.51-41.31-39.12,29.14-.37.27-.56.41-12.27,9.11-36.85,15.93-51.62,19.42-6.77,1.6-11.21,8.64-10.18,16.14l1.71,12.48,123.91-4.05.25-3.09Z" fill="#cd9965"/></g><path d="M330.12,431.83c-1.9,9.67-11.92,15.25-21.09,11.66-1.34-.52-2.26-.4-3.45.41-11.66,7.89-23.36,15.72-35.08,23.52-.97.65-1.31,1.31-1.26,2.47.38,10.19-7.5,18-17.66,17.56-.86-.04-1.76-.13-2.55-.45-.59-.24-1.32-.81-1.43-1.34-.11-.53.32-1.41.79-1.78,1.9-1.45,3.88-2.82,5.9-4.1.96-.61,1.24-1.28,1.13-2.37-.23-2.18-.37-4.37-.46-6.56-.04-1.11-.52-1.75-1.5-2.21-2.12-1-4.18-2.13-6.32-3.08-.52-.23-1.4-.16-1.9.14-1.97,1.17-3.82,2.56-5.81,3.69-.69.4-1.81.64-2.47.36-1.01-.44-.84-1.57-.61-2.58,2.45-10.31,13.41-15.84,23.1-11.53,1.44.64,2.41.58,3.7-.29,11.58-7.82,23.19-15.6,34.84-23.32,1.06-.7.98-1.48.94-2.45-.46-10.46,9.07-18.48,19.21-16.18,8.36,1.9,13.62,9.99,11.97,18.41ZM318.06,421.09c-2.44.19-4.72.3-6.99.58-.58.07-1.3.56-1.59,1.07-.98,1.72-1.89,3.49-2.65,5.32-.26.63-.27,1.63.06,2.2,1.08,1.9,2.33,3.7,3.6,5.48.27.37.9.7,1.36.69,2.18-.08,4.37-.22,6.53-.49.58-.07,1.29-.58,1.58-1.1,1.04-1.86,1.97-3.79,2.84-5.73.2-.46.21-1.23-.04-1.63-1.16-1.85-2.42-3.64-3.68-5.43-.27-.38-.7-.66-1.02-.95Z" fill="#c8c8c8"/><rect x="170.03" y="252.62" width="42.46" height="130.44" rx="20.79" ry="20.79" transform="translate(-64.15 586.84) rotate(-105.45)" fill="#c8c8c8"/><rect x="313.78" y="276.17" width="42.46" height="140.17" rx="20.79" ry="20.79" transform="translate(816.73 354.21) rotate(135)" fill="#c8c8c8"/><rect x="116.59" y="239.47" width="39.52" height="113.65" rx="19.76" ry="19.76" transform="translate(361.09 532.68) rotate(161.16)" fill="#8bd9cb"/><path d="M264.59,256.6h0c-28.29.93-52.68-21.65-56.26-52.07l-11.88-100.81c-.29-8.75,6.03-16.05,14.1-16.31l96.9-3.17c8.07-.26,14.85,6.61,15.14,15.36l-5.26,101.37c-1.59,30.59-24.45,54.71-52.74,55.64Z" fill="#e0e0e0"/><circle cx="199.36" cy="173.44" r="18.05" fill="#e0e0e0"/><circle cx="324.18" cy="168.99" r="18.05" fill="#e0e0e0"/><circle cx="297.42" cy="440.22" r="21.58" fill="#e0e0e0"/><rect x="324.22" y="349.07" width="39.52" height="111.55" rx="19.76" ry="19.76" transform="translate(215.96 920.45) rotate(-125.7)" fill="#c8c8c8"/><path d="M264.29,212.84h0c-3.56.12-6.56-3.33-6.7-7.69l3.41-14.25c.53-2.19,3.58-2.37,4.35-.25l4.97,13.66c.1.27.16.57.15.86-.05,4.16-2.75,7.56-6.19,7.67Z" fill="#a8a8a8"/><path d="M291.62,214.69c3.79,9.49-.84,20.26-10.33,24.05-9.49,3.79-20.26-.84-24.05-10.33s8.09-2.09,17.58-5.87c9.49-3.79,13.01-17.34,16.8-7.84Z" fill="#fff"/><path d="M322.25,109.9c3.01-37.31-24.4-70.45-63.51-41.31-39.12,29.14-.37.27-.56.41-12.27,9.11-36.85,15.93-51.62,19.42-6.77,1.6-11.21,8.64-10.18,16.14l1.71,12.48,123.91-4.05.25-3.09Z" fill="#cd9965"/><circle cx="244.38" cy="170.87" r="15.25" fill="#fff"/><circle cx="247.69" cy="171.12" r="7.56" fill="#3d3d3d"/><circle cx="282.06" cy="169.99" r="15.25" fill="#fff"/><circle cx="278.76" cy="170.45" r="7.56" fill="#3d3d3d"/><rect x="119.28" y="207.14" width="16.7" height="48.21" rx="8.35" ry="8.35" transform="translate(43.33 481.56) rotate(-132.49)" fill="#e0e0e0"/><rect x="99.19" y="204.58" width="28.05" height="55.74" rx="8.07" ry="8.07" transform="translate(295.43 415.88) rotate(161.16)" fill="#e0e0e0"/><path d="M129.52,170.98c-.96.96-1.86,1.91-2.8,2.8-.88.83-2.45.44-3.07-.1-2.31-2.01-4.64-3.99-6.93-6.03-1.13-1.01-2.23-2.07-3.28-3.16-.8-.84-.48-2.56.27-3.37,1.58-1.72,3.04-3.54,4.58-5.3,1.09-1.25,2.25-2.44,3.34-3.69,1.82-2.08,3.6-4.2,5.42-6.29,1.04-1.19,2.11-2.35,3.17-3.53.89-.99,1.82-1.94,2.64-2.99,1.09-1.4,2.87-1.49,4.05-.41,1.34,1.22,2.73,2.39,4.1,3.59,1.88,1.65,3.75,3.3,5.63,4.95.96.84,1.19,2.66.17,3.64-.79.76-1.42,1.69-2.15,2.59,2.28,1.95,4.51,3.83,6.7,5.75,1.13.98,2.18,2.05,3.3,3.05,1.09.98,2.22,1.91,3.32,2.87,1.33,1.16,2.65,2.32,3.99,3.48,1.64,1.42,3.3,2.81,4.93,4.25,1.12.99,2.19,2.05,3.3,3.05.97.87,1.94,1.74,2.97,2.52,1.22.93,1.57,2.1,1.37,3.58-.4,2.98-.06,5.87.94,8.73.95,2.74,2.51,5.03,4.47,7.11,1.21,1.29.79,2.83-.06,3.81-1.14,1.32-2.28,2.64-3.46,3.93-.68.74-1.38,1.46-2.16,2.08-.78.61-2.16.45-2.88-.19-1.26-1.12-2.54-2.22-3.8-3.34-2.13-1.9-4.25-3.81-6.39-5.7-1.67-1.47-3.37-2.92-5.05-4.37-.49-.42-.98-.84-1.44-1.25-1.18,1.34-2.33,2.63-3.47,3.95-1.4,1.62-2.78,3.27-4.19,4.88-1.1,1.25-2.26,2.44-3.35,3.69-1.81,2.07-3.57,4.18-5.37,6.25-1.47,1.68-3,3.31-4.47,4.99-1.83,2.09-3.61,4.22-5.44,6.31-1.4,1.6-2.88,3.13-4.28,4.73-1.06,1.21-2.04,2.49-3.1,3.7-1.01,1.15-2.09,2.23-3.1,3.37-1.06,1.21-2.06,2.47-3.11,3.69-1.02,1.17-2.1,2.3-3.13,3.47-2.17,2.45-4.33,4.91-6.48,7.38-1.38,1.59-2.71,3.21-4.09,4.8-2.06,2.37-4.14,4.73-6.21,7.08-1.95,2.21-3.9,4.44-5.88,6.62-1.09,1.2-2.67,1.25-3.98.09-1.68-1.5-3.33-3.04-5.02-4.52-1.98-1.73-4.03-3.37-5.98-5.14-.91-.83-1.35-2.23-.41-3.43.94-1.2,1.99-2.31,2.98-3.47,1.01-1.18,2.01-2.37,3.03-3.55,2.12-2.45,4.24-4.9,6.38-7.33,1.82-2.06,3.7-4.08,5.52-6.14,2.3-2.61,4.56-5.27,6.85-7.89,2.07-2.38,4.16-4.75,6.24-7.11,1.42-1.61,2.87-3.2,4.29-4.81,2.08-2.36,4.16-4.73,6.24-7.1,1.63-1.86,3.24-3.72,4.87-5.58,2.07-2.37,4.16-4.73,6.23-7.1,1.62-1.86,3.24-3.72,4.86-5.58,1.68-1.92,3.36-3.84,5.04-5.76,1.02-1.17,2.03-2.33,3-3.53.1-.12-.03-.6-.19-.75-1.79-1.62-3.61-3.21-5.42-4.81-1.17-1.04-2.33-2.1-3.5-3.15-.17-.15-.41-.24-.53-.31Z" fill="#353535"/><path d="M129.52,170.98c-.96.96-1.86,1.91-2.8,2.8-.88.83-2.45.44-3.07-.1-2.31-2.01-4.64-3.99-6.93-6.03-1.13-1.01-2.23-2.07-3.28-3.16-.8-.84-.48-2.56.27-3.37,1.58-1.72,3.04-3.54,4.58-5.3,1.09-1.25,2.25-2.44,3.34-3.69,1.82-2.08,3.6-4.2,5.42-6.29,1.04-1.19,2.11-2.35,3.17-3.53.89-.99,1.82-1.94,2.64-2.99,1.09-1.4,2.87-1.49,4.05-.41,1.34,1.22,2.73,2.39,4.1,3.59,1.88,1.65,3.75,3.3,5.63,4.95.96.84,1.19,2.66.17,3.64-.79.76-1.42,1.69-2.15,2.59,2.28,1.95,4.51,3.83,6.7,5.75,1.13.98,2.18,2.05,3.3,3.05,1.09.98,2.22,1.91,3.32,2.87,1.33,1.16,2.65,2.32,3.99,3.48,1.64,1.42,3.3,2.81,4.93,4.25,1.12.99,2.19,2.05,3.3,3.05.97.87,1.94,1.74,2.97,2.52,1.22.93,1.57,2.1,1.37,3.58-.4,2.98-.06,5.87.94,8.73.95,2.74,2.51,5.03,4.47,7.11,1.21,1.29.79,2.83-.06,3.81-1.14,1.32-2.28,2.64-3.46,3.93-.68.74-1.38,1.46-2.16,2.08-.78.61-2.16.45-2.88-.19-1.26-1.12-2.54-2.22-3.8-3.34-2.13-1.9-4.25-3.81-6.39-5.7-1.67-1.47-3.37-2.92-5.05-4.37-.49-.42-.98-.84-1.44-1.25,0,0-15.57-13.64-15.73-13.79-1.79-1.62-3.61-3.21-5.42-4.81-1.17-1.04-2.33-2.1-3.5-3.15-.17-.15-.41-.24-.53-.31Z" fill="#c8c8c8"/><rect x="106.83" y="203.31" width="14.26" height="19.94" rx="4.44" ry="4.44" transform="translate(290.69 378.34) rotate(161.16)" fill="#e0e0e0"/><rect x="94.75" y="207.64" width="14.26" height="27.09" rx="4.9" ry="4.9" transform="translate(269.73 397.61) rotate(161.16)" fill="#e0e0e0"/><rect x="116.59" y="239.47" width="39.52" height="113.65" rx="19.76" ry="19.76" transform="translate(361.09 532.68) rotate(161.16)" fill="#c8c8c8"/><path d="M256.88,33.34c-14.62-1.23-40.09,9.06-53.41,45.95-3.55-.74-7.58,1.77-9.19,9.13-3.85-1.3-12.06,16.19,2.49,30.68,8.3,8.26,28.21,15.56,55.66,23.15,27.27,7.54,47.56,11.36,60.02,8.45,17.84-5,22.81-23.62,17.34-24.59.79-3.95,3.29-10.87-3.14-12.77,0,0,11.54-49.27-22.46-66.91,3.77-8.14-45.08-20.67-47.33-13.08Z" fill="#e2bd23"/><path d="M256.88,33.34c-14.62-1.23-40.09,9.06-53.41,45.95-3.55-.74-7.58,1.77-9.19,9.13-3.85-1.3-10.78,12.72,3.77,27.21,8.3,8.26,27.82,15.84,55.27,23.42,27.27,7.54,36.63,9.17,55.32,8.96s26.63-20.94,21.16-21.91c.79-3.95,3.29-10.87-3.14-12.77,0,0,11.54-49.27-22.46-66.91,3.77-8.14-45.08-20.67-47.33-13.08Z" fill="#ffdc31"/><path d="M252.1,49.82l-15.05,54.48c-.82,2.96-3.75,4.81-6.77,4.26-9.52-1.74-28.21-7.25-27.19-23.64.04-.66.92-.86,1.24-.28,4.73,8.39,14.39,13.23,20.55,15.58,3.04,1.16,6.45-.37,7.62-3.41l18.35-47.41c.3-.78,1.48-.39,1.26.42Z" fill="#e2bd23"/><path d="M216.87,115.73c-.67-.06-.64-1.05.03-1.07,9.83-.37,26.78,1.34,40.03,5s29.05,11.33,38.21,16.39c.59.33.16,1.22-.47.97-14.56-5.95-25.19-9.11-38.73-12.85-13.36-3.69-26.52-7.29-39.06-8.43Z" fill="#e2bd23"/><path d="M299.27,62.86l-15.05,54.48c-.82,2.96.75,6.06,3.63,7.13,9.06,3.39,27.94,8.26,35.48-6.32.3-.59-.35-1.21-.92-.88-8.36,4.77-19.14,3.96-25.64,2.82-3.21-.56-5.34-3.63-4.79-6.84l8.6-50.1c.14-.83-1.07-1.1-1.29-.29Z" fill="#e2bd23"/><g clip-path="url(#clippath-2)"><rect x="51.17" y="317.83" width="395.37" height="68.5" fill="#fff"/><polygon points="42.99 394.6 36.71 389.64 73.1 303.53 79.38 308.49 42.99 394.6" fill="#e0e0e0"/><polygon points="28.01 393.19 21.73 388.24 58.12 302.13 64.4 307.08 28.01 393.19" fill="#e0e0e0"/><polygon points="57.91 394.6 51.63 389.64 88.02 303.53 94.3 308.49 57.91 394.6" fill="#e0e0e0"/><polygon points="72.83 394.6 66.55 389.64 102.95 303.53 109.22 308.49 72.83 394.6" fill="#e0e0e0"/><polygon points="87.75 394.6 81.47 389.64 117.87 303.53 124.15 308.49 87.75 394.6" fill="#e0e0e0"/><polygon points="102.67 394.6 96.4 389.64 132.79 303.53 139.07 308.49 102.67 394.6" fill="#e0e0e0"/><polygon points="117.6 394.6 111.32 389.64 147.71 303.53 153.99 308.49 117.6 394.6" fill="#e0e0e0"/><polygon points="132.52 394.6 126.24 389.64 162.63 303.53 168.91 308.49 132.52 394.6" fill="#e0e0e0"/><polygon points="147.44 394.6 141.16 389.64 177.55 303.53 183.83 308.49 147.44 394.6" fill="#e0e0e0"/><polygon points="162.36 394.6 156.08 389.64 192.47 303.53 198.75 308.49 162.36 394.6" fill="#e0e0e0"/><polygon points="177.28 394.6 171 389.64 207.39 303.53 213.67 308.49 177.28 394.6" fill="#e0e0e0"/><polygon points="192.2 394.6 185.92 389.64 222.31 303.53 228.59 308.49 192.2 394.6" fill="#e0e0e0"/><polygon points="207.12 394.6 200.84 389.64 237.23 303.53 243.51 308.49 207.12 394.6" fill="#e0e0e0"/><polygon points="222.04 394.6 215.76 389.64 252.15 303.53 258.43 308.49 222.04 394.6" fill="#e0e0e0"/><polygon points="236.96 394.6 230.68 389.64 267.08 303.53 273.35 308.49 236.96 394.6" fill="#e0e0e0"/><polygon points="251.88 394.6 245.6 389.64 282 303.53 288.28 308.49 251.88 394.6" fill="#e0e0e0"/><polygon points="266.8 394.6 260.53 389.64 296.92 303.53 303.2 308.49 266.8 394.6" fill="#e0e0e0"/><polygon points="281.73 394.6 275.45 389.64 311.84 303.53 318.12 308.49 281.73 394.6" fill="#e0e0e0"/><polygon points="296.65 394.6 290.37 389.64 326.76 303.53 333.04 308.49 296.65 394.6" fill="#e0e0e0"/><polygon points="311.57 394.6 305.29 389.64 341.68 303.53 347.96 308.49 311.57 394.6" fill="#e0e0e0"/><polygon points="326.49 394.6 320.21 389.64 356.6 303.53 362.88 308.49 326.49 394.6" fill="#e0e0e0"/><polygon points="341.41 394.6 335.13 389.64 371.52 303.53 377.8 308.49 341.41 394.6" fill="#e0e0e0"/><polygon points="356.33 394.6 350.05 389.64 386.44 303.53 392.72 308.49 356.33 394.6" fill="#e0e0e0"/><polygon points="371.25 394.6 364.97 389.64 401.36 303.53 407.64 308.49 371.25 394.6" fill="#e0e0e0"/><polygon points="386.17 394.6 379.89 389.64 416.28 303.53 422.56 308.49 386.17 394.6" fill="#e0e0e0"/><polygon points="401.09 394.6 394.81 389.64 431.2 303.53 437.48 308.49 401.09 394.6" fill="#e0e0e0"/><polygon points="416.01 394.6 409.73 389.64 446.13 303.53 452.41 308.49 416.01 394.6" fill="#e0e0e0"/><polygon points="430.93 394.6 424.66 389.64 461.05 303.53 467.33 308.49 430.93 394.6" fill="#e0e0e0"/><polygon points="445.45 395.53 439.17 390.58 475.56 304.47 481.84 309.42 445.45 395.53" fill="#e0e0e0"/></g><rect x="60.48" y="327.01" width="376.75" height="50.14" fill="#fff"/><text transform="translate(74.02 359.54)" font-family="Nunito-ExtraBold, Nunito" font-size="22.52" font-variation-settings="&apos;wght&apos; 800" font-weight="700"><tspan x="0" y="0">IM</tspan><tspan x="26.42" y="0" letter-spacing="-.02em">A</tspan><tspan x="43" y="0">GE UNDER </tspan><tspan x="166.33" y="0" letter-spacing="-.02em">C</tspan><tspan x="181.19" y="0">ON</tspan><tspan x="216.08" y="0" letter-spacing="-.01em">S</tspan><tspan x="230.18" y="0">TRU</tspan><tspan x="276.82" y="0" letter-spacing="0em">C</tspan><tspan x="292" y="0">TION</tspan></text></svg>