<?xml version="1.0" encoding="UTF-8"?><svg id="Layer_1" xmlns="http://www.w3.org/2000/svg" xmlns:xlink="http://www.w3.org/1999/xlink" viewBox="0 0 239.3 239.3"><defs><style>.cls-1{fill:none;}.cls-2{fill:#019ca7;}.cls-3{fill:#3d3d3d;}.cls-4{clip-path:url(#clippath-1);}.cls-5{fill:#7c4a1a;}.cls-6{fill:#ffc5b4;}.cls-7{fill:#fff;}.cls-8{fill:#cd9965;}.cls-9{opacity:.15;}.cls-10{fill:#e8896d;}.cls-11{fill:#d3eef9;}.cls-12{fill:#8bd9cb;}.cls-13{fill:#4b4b4b;}.cls-14{fill:#c8c8c8;}.cls-15{clip-path:url(#clippath);}</style><clipPath id="clippath"><circle class="cls-1" cx="118.56" cy="132.61" r="82.3"/></clipPath><clipPath id="clippath-1"><path class="cls-1" d="M143.7,213.58c-21.68,7.31-38.34-1.43-38.45-1.77.74-3.21,2.04-5.88,2.04-5.88,0,0,13.74,8.89,35.65,2.01l.76,5.64Z"/></clipPath></defs><g class="cls-15"><circle class="cls-9" cx="118.56" cy="132.61" r="82.3"/><rect class="cls-6" x="122.16" y="115.57" width="13.02" height="22.27" rx="3.49" ry="3.49" transform="translate(-4.07 4.27) rotate(-1.87)"/><rect class="cls-11" x="80.88" y="119.39" width="21.31" height="65.48" rx="10.44" ry="10.44" transform="translate(-30.71 280.88) rotate(-105.45)"/><rect class="cls-11" x="153.04" y="131.22" width="21.31" height="70.36" rx="10.44" ry="10.44" transform="translate(397.11 168.3) rotate(135)"/><path class="cls-8" d="M144.83,224.08c0,9.82-8.51,9.47-17.97,10.78-.88.12-1.77.18-2.68.18-1.73,0-3.41-.23-5.01-.65-8.3-2.21-18.08-.59-16.94-9.51.43-3.38,3.47-16.12,5.12-18.98,3.36-5.81,9.64-9.71,16.83-9.71,8.05,0,15.81,4.79,18.76,11.76,0,0,1.89,13.45,1.89,16.13Z"/><path class="cls-8" d="M130.27,288.84l-5.25-62.88c-.49-5.81,3.56-10.9,9.03-11.36h0c5.47-.46,10.31,3.89,10.79,9.7l5.25,62.88c.49,5.84-3.6,10.94-9.1,11.36h0c-5.45.42-10.24-3.92-10.72-9.71Z"/><path class="cls-6" d="M128.35,121.39h0c-14.2.46-26.44-10.87-28.24-26.14l-5.96-50.6c-.14-4.39,3.03-8.06,7.08-8.19l48.64-1.59c4.05-.13,7.46,3.32,7.6,7.71l-2.64,50.88c-.8,15.36-12.27,27.46-26.47,27.93Z"/><circle class="cls-6" cx="95.61" cy="79.65" r="9.06"/><circle class="cls-6" cx="158.26" cy="77.41" r="9.06"/><path class="cls-12" d="M137.96,214.35l-24.45-1.77c-3.4-.25-6.05-3.31-6.15-7.12l-1.55-57.5c-.22-6.2,2.38-11.85,5.37-11.66l37.25,2.39c2.99.19,4.85,6.13,3.84,12.25l-9.2,55.83c-.75,4.56-2.88,7.73-5.11,7.58Z"/><rect class="cls-12" x="118.37" y="131.46" width="20.76" height="8.55" rx="4.27" ry="4.27" transform="translate(6.23 -5.65) rotate(2.57)"/><circle class="cls-2" cx="127.2" cy="150.98" r="1.64"/><circle class="cls-2" cx="126.78" cy="160.32" r="1.64"/><circle class="cls-2" cx="126.36" cy="169.66" r="1.64"/><circle class="cls-2" cx="125.94" cy="179" r="1.64"/><circle class="cls-2" cx="125.52" cy="188.34" r="1.64"/><g class="cls-4"><path class="cls-5" d="M149.6,217.95c-15.2,6.26-48.09,1.73-48.09,1.73l.42-20.74s22.88,5.56,44.79-1.32l2.88,20.33Z"/><polygon class="cls-8" points="136.19 209.28 134.29 209.62 135.78 217.57 137.67 217.23 136.19 209.28"/><polygon class="cls-8" points="114.92 208.04 113.02 207.7 111.5 215.65 113.4 215.99 114.92 208.04"/><polygon class="cls-14" points="128.01 210 120.3 210 119.4 218.08 127.42 218.63 128.01 210"/></g><rect class="cls-8" x="93.42" y="226.02" width="19.26" height="134.14" transform="translate(38.83 -10.88) rotate(7.44)"/><circle class="cls-6" cx="144.83" cy="213.56" r="10.83"/><rect class="cls-11" x="158.28" y="167.81" width="19.84" height="56" rx="9.92" ry="9.92" transform="translate(107.35 446.67) rotate(-125.7)"/><rect class="cls-7" x="111.48" y="66.25" width="14.56" height="24.33" rx="5.09" ry="5.09" transform="translate(-2.5 3.92) rotate(-1.87)"/><rect class="cls-13" x="116.58" y="71.91" width="6.83" height="12" rx="2.39" ry="2.39" transform="translate(-2.48 3.96) rotate(-1.87)"/><rect class="cls-7" x="128.59" y="65.69" width="14.56" height="24.33" rx="5.09" ry="5.09" transform="translate(-2.47 4.48) rotate(-1.87)"/><rect class="cls-13" x="130.84" y="71.44" width="6.83" height="12" rx="2.39" ry="2.39" transform="translate(-2.46 4.43) rotate(-1.87)"/><path class="cls-10" d="M128.2,99.43h0c-1.79.06-3.29-1.67-3.36-3.86l1.71-7.15c.26-1.1,1.8-1.19,2.18-.12l2.5,6.86c.05.14.08.28.08.43-.03,2.09-1.38,3.79-3.11,3.85Z"/><path class="cls-7" d="M141.92,100.35c1.9,4.77-.42,10.17-5.19,12.07-4.77,1.9-10.17-.42-12.07-5.19-1.9-4.77,4.06-1.05,8.83-2.95,4.77-1.9,6.53-8.7,8.43-3.94Z"/><path class="cls-8" d="M157.29,47.75c1.51-18.73-12.25-35.36-31.88-20.74-19.63,14.63-.19.14-.28.21-6.16,4.57-18.5,8-25.91,9.75-3.4.8-5.63,4.34-5.11,8.1l.86,6.27,62.2-2.03.12-1.55Z"/></g><rect class="cls-12" x="80.88" y="119.39" width="21.31" height="65.48" rx="10.44" ry="10.44" transform="translate(-30.71 280.88) rotate(-105.45)"/><rect class="cls-12" x="153.04" y="131.22" width="21.31" height="70.36" rx="10.44" ry="10.44" transform="translate(397.11 168.3) rotate(135)"/><rect class="cls-12" x="54.06" y="112.79" width="19.84" height="57.05" rx="9.92" ry="9.92" transform="translate(170.17 254.39) rotate(161.16)"/><path class="cls-6" d="M128.35,121.39h0c-14.2.46-26.44-10.87-28.24-26.14l-5.96-50.6c-.14-4.39,3.03-8.06,7.08-8.19l48.64-1.59c4.05-.13,7.46,3.32,7.6,7.71l-2.64,50.88c-.8,15.36-12.27,27.46-26.47,27.93Z"/><circle class="cls-6" cx="95.61" cy="79.65" r="9.06"/><circle class="cls-6" cx="158.26" cy="77.41" r="9.06"/><circle class="cls-6" cx="144.83" cy="213.56" r="10.83"/><rect class="cls-12" x="158.28" y="167.81" width="19.84" height="56" rx="9.92" ry="9.92" transform="translate(107.35 446.67) rotate(-125.7)"/><path class="cls-10" d="M128.2,99.43h0c-1.79.06-3.29-1.67-3.36-3.86l1.71-7.15c.26-1.1,1.8-1.19,2.18-.12l2.5,6.86c.05.14.08.28.08.43-.03,2.09-1.38,3.79-3.11,3.85Z"/><path class="cls-7" d="M141.92,100.35c1.9,4.77-.42,10.17-5.19,12.07-4.77,1.9-10.17-.42-12.07-5.19-1.9-4.77,4.06-1.05,8.83-2.95,4.77-1.9,6.53-8.7,8.43-3.94Z"/><path class="cls-8" d="M157.29,47.75c1.51-18.73-12.25-35.36-31.88-20.74-19.63,14.63-.19.14-.28.21-6.16,4.57-18.5,8-25.91,9.75-3.4.8-5.63,4.34-5.11,8.1l.86,6.27,62.2-2.03.12-1.55Z"/><circle class="cls-7" cx="118.21" cy="78.36" r="7.65"/><circle class="cls-3" cx="119.87" cy="78.48" r="3.8"/><circle class="cls-7" cx="137.12" cy="77.91" r="7.65"/><circle class="cls-3" cx="135.46" cy="78.15" r="3.8"/><rect class="cls-6" x="50.9" y="84.7" width="8.38" height="24.2" rx="4.19" ry="4.19" transform="translate(133.74 175.65) rotate(164.72)"/><rect class="cls-6" x="42.14" y="83.96" width="8.38" height="24.2" rx="4.19" ry="4.19" transform="translate(131.1 160.78) rotate(153.11)"/><rect class="cls-6" x="38.71" y="91.92" width="8.38" height="26.24" rx="4.19" ry="4.19" transform="translate(142.63 159.16) rotate(140.7)"/><rect class="cls-6" x="55.41" y="96.56" width="8.38" height="24.2" rx="4.19" ry="4.19" transform="translate(19.73 226.01) rotate(-132.49)"/><rect class="cls-6" x="45.32" y="95.28" width="14.08" height="27.98" rx="4.05" ry="4.05" transform="translate(137.21 195.77) rotate(161.16)"/><rect class="cls-12" x="54.06" y="112.79" width="19.84" height="57.05" rx="9.92" ry="9.92" transform="translate(170.17 254.39) rotate(161.16)"/></svg>