<?xml version="1.0" encoding="UTF-8"?><svg id="Layer_1" xmlns="http://www.w3.org/2000/svg" xmlns:xlink="http://www.w3.org/1999/xlink" viewBox="0 0 292 268"><defs><style>.cls-1,.cls-2{fill:none;}.cls-3{fill:#ffcb05;}.cls-4,.cls-5,.cls-6{fill:#156fc6;}.cls-4,.cls-7,.cls-8,.cls-9{opacity:.2;}.cls-5,.cls-10,.cls-11,.cls-12,.cls-13{opacity:.5;}.cls-14{fill:#595bd4;}.cls-15{fill:#53d86a;}.cls-16,.cls-12,.cls-9{fill:#00274c;}.cls-17,.cls-13{fill:#fdbc45;}.cls-18{fill:#3d3d3d;}.cls-10,.cls-7,.cls-19{fill:#1a1a1a;}.cls-20{fill:#fe9526;}.cls-21{fill:#569ed8;}.cls-22{fill:#7c4a1a;}.cls-23{fill:#3cabdb;}.cls-24{fill:#ffc5b4;}.cls-25,.cls-26{fill:#fff;}.cls-27{fill:#cd9965;}.cls-26{font-family:Nunito-Bold, Nunito;font-size:20.42px;font-variation-settings:'wght' 700;font-weight:700;}.cls-2{stroke:#fff;stroke-linecap:round;stroke-miterlimit:10;stroke-width:8.83px;}.cls-28{fill:#e8896d;}.cls-8,.cls-11,.cls-29{fill:#082d1f;}.cls-30{fill:#fd3d39;}.cls-31{fill:#4b4b4b;}.cls-32{fill:#c8c8c8;}.cls-33{clip-path:url(#clippath);}</style><clipPath id="clippath"><circle class="cls-1" cx="139.76" cy="153.88" r="80.86"/></clipPath></defs><g class="cls-33"><circle class="cls-16" cx="139.76" cy="153.88" r="80.86"/><path class="cls-27" d="M138.13,295.98l4.6-63.44c.43-5.87-3.47-10.93-8.69-11.31h0c-5.23-.38-9.81,4.07-10.23,9.94l-4.6,63.44c-.43,5.89,3.5,10.97,8.75,11.31h0c5.2.34,9.75-4.1,10.17-9.94Z"/><path class="cls-27" d="M164.81,294.44l-5.48-63.37c-.51-5.86-5.15-10.24-10.37-9.79h0c-5.22.45-9.04,5.57-8.53,11.43l5.48,63.37c.51,5.89,5.19,10.28,10.43,9.79h0c5.19-.49,8.98-5.59,8.47-11.42Z"/><rect class="cls-24" x="134.59" y="133.67" width="13.41" height="22.93" rx="3.49" ry="3.49" transform="translate(282.12 290.73) rotate(-179.82)"/><path class="cls-24" d="M141.47,139.66h0c14.63.05,26.89-11.99,28.27-27.76l4.6-52.26c.01-4.52-3.36-8.2-7.53-8.21l-50.11-.16c-4.18-.01-7.57,3.64-7.59,8.16l4.26,52.29c1.29,15.78,13.47,27.9,28.1,27.94Z"/><circle class="cls-24" cx="173.9" cy="95.7" r="9.33"/><circle class="cls-24" cx="109.34" cy="95.3" r="9.33"/><circle class="cls-27" cx="141.62" cy="234.73" r="17.74"/><path class="cls-21" d="M127.19,230.86l25.24-.21c3.51-.03,6.43-.11,6.79-4.07l5.38-59.86c.63-6.45-1.67-12.52-4.75-12.52h-38.43c-3.08,0-5.38,6.07-4.75,12.52l7.07,59.76c.47,4.81,1.16,4.38,3.46,4.38Z"/><rect class="cls-21" x="102" y="151.3" width="21.95" height="51.57" rx="10.73" ry="10.73" transform="translate(127.47 -32.47) rotate(36.49)"/><rect class="cls-21" x="158.07" y="151.41" width="21.95" height="56.39" rx="10.73" ry="10.73" transform="translate(-70.95 122.72) rotate(-33.4)"/><rect class="cls-21" x="93.19" y="178.88" width="20.43" height="40.43" rx="10.21" ry="10.21"/><rect class="cls-21" x="130.54" y="150.2" width="21.98" height="9.05" rx="4.53" ry="4.53"/><circle class="cls-16" cx="140.63" cy="170.93" r="1.74"/><circle class="cls-16" cx="140.63" cy="180.83" r="1.74"/><circle class="cls-16" cx="140.63" cy="190.74" r="1.74"/><circle class="cls-16" cx="140.63" cy="200.64" r="1.74"/><circle class="cls-16" cx="140.63" cy="210.54" r="1.74"/><rect class="cls-22" x="123.73" y="226.48" width="35.46" height="5.83"/><rect class="cls-32" x="137.25" y="226.48" width="6.99" height="5.83"/><rect class="cls-27" x="150.79" y="226.48" width="2" height="5.83"/><rect class="cls-27" x="128.61" y="226.48" width="2" height="5.83"/><path class="cls-27" d="M174.27,60.95c2.21-19.22-11.52-36.81-32.42-22.41-20.9,14.39-.2.14-.3.2-6.55,4.5-19.49,7.61-27.25,9.16-3.56.71-5.99,4.28-5.59,8.16l.68,6.48h64.69s.18-1.59.18-1.59Z"/><rect class="cls-24" x="211.87" y="132.2" width="7.17" height="20.69" rx="3.58" ry="3.58" transform="translate(117.06 -96.32) rotate(34.12)"/><rect class="cls-24" x="219.15" y="134.02" width="7.17" height="20.69" rx="3.58" ry="3.58" transform="translate(170.62 -115.9) rotate(45.73)"/><rect class="cls-24" x="219.45" y="141.36" width="7.17" height="22.44" rx="3.58" ry="3.58" transform="translate(234.92 -117.39) rotate(58.14)"/><rect class="cls-24" x="204.94" y="140.55" width="7.17" height="20.69" rx="3.58" ry="3.58" transform="translate(-46.83 118.52) rotate(-28.66)"/><rect class="cls-24" x="208.19" y="141.42" width="12.04" height="23.92" rx="2.79" ry="2.79" transform="translate(138.44 -98.95) rotate(37.68)"/><rect class="cls-21" x="181.84" y="151.7" width="20.43" height="57.66" rx="10.21" ry="10.21" transform="translate(217.79 442.85) rotate(-138.83)"/><rect class="cls-24" x="97.39" y="208.8" width="10.87" height="23.5" rx="5.43" ry="5.43"/><path class="cls-24" d="M108.08,214.85h0c3,0,5.43,2.44,5.43,5.43v7.61c0,2.44-1.98,4.41-4.41,4.41h-4.72c-.96,0-1.74-.78-1.74-1.74v-10.28c0-3,2.44-5.43,5.43-5.43Z"/><rect class="cls-25" x="126.67" y="82.17" width="14.99" height="25.05" rx="7.5" ry="7.5" transform="translate(-.87 1.24) rotate(-.53)"/><rect class="cls-31" x="131.94" y="88.02" width="7.03" height="12.36" rx="3.52" ry="3.52" transform="translate(-.86 1.25) rotate(-.53)"/><rect class="cls-25" x="144.3" y="82" width="14.99" height="25.05" rx="7.5" ry="7.5" transform="translate(-.86 1.4) rotate(-.53)"/><rect class="cls-31" x="146.62" y="87.89" width="7.03" height="12.36" rx="3.52" ry="3.52" transform="translate(-.86 1.39) rotate(-.53)"/><path class="cls-28" d="M143.38,116.55h0c-1.84.02-3.35-1.8-3.37-4.06l1.94-7.32c.3-1.13,1.88-1.18,2.25-.08l2.4,7.12c.05.14.07.3.07.45-.08,2.15-1.51,3.87-3.29,3.89Z"/><path class="cls-2" d="M144.61,125.77c-2.64,1.06-5.68,1.12-8.51-.08-3.07-1.3-5.25-3.83-6.21-6.76"/></g><path class="cls-24" d="M141.47,139.66h0c14.63.05,26.89-11.99,28.27-27.76l4.6-52.26c.01-4.52-3.36-8.2-7.53-8.21l-50.11-.16c-4.18-.01-7.57,3.64-7.59,8.16l4.26,52.29c1.29,15.78,13.47,27.9,28.1,27.94Z"/><circle class="cls-24" cx="173.9" cy="95.7" r="9.33"/><circle class="cls-24" cx="109.34" cy="95.3" r="9.33"/><path class="cls-27" d="M174.27,60.95c2.21-19.22-11.52-36.81-32.42-22.41-20.9,14.39-.2.14-.3.2-6.55,4.5-19.49,7.61-27.25,9.16-3.56.71-5.99,4.28-5.59,8.16l.68,6.48h64.69s.18-1.59.18-1.59Z"/><rect class="cls-24" x="211.87" y="132.2" width="7.17" height="20.69" rx="3.58" ry="3.58" transform="translate(117.06 -96.32) rotate(34.12)"/><rect class="cls-24" x="219.15" y="134.02" width="7.17" height="20.69" rx="3.58" ry="3.58" transform="translate(170.62 -115.9) rotate(45.73)"/><rect class="cls-24" x="219.45" y="141.36" width="7.17" height="22.44" rx="3.58" ry="3.58" transform="translate(234.92 -117.39) rotate(58.14)"/><rect class="cls-24" x="204.94" y="140.55" width="7.17" height="20.69" rx="3.58" ry="3.58" transform="translate(-46.83 118.52) rotate(-28.66)"/><rect class="cls-24" x="208.19" y="141.42" width="12.04" height="23.92" rx="2.79" ry="2.79" transform="translate(138.44 -98.95) rotate(37.68)"/><rect class="cls-21" x="181.84" y="151.7" width="20.43" height="57.66" rx="10.21" ry="10.21" transform="translate(217.79 442.85) rotate(-138.83)"/><rect class="cls-24" x="97.39" y="208.8" width="10.87" height="23.5" rx="5.43" ry="5.43"/><path class="cls-24" d="M108.08,214.85h0c3,0,5.43,2.44,5.43,5.43v7.61c0,2.44-1.98,4.41-4.41,4.41h-4.72c-.96,0-1.74-.78-1.74-1.74v-10.28c0-3,2.44-5.43,5.43-5.43Z"/><path class="cls-2" d="M144.61,125.77c-2.64,1.06-5.68,1.12-8.51-.08-3.07-1.3-5.25-3.83-6.21-6.76"/><circle class="cls-25" cx="133.15" cy="95.21" r="7.65"/><circle class="cls-18" cx="134.81" cy="95.39" r="3.8"/><circle class="cls-25" cx="152.07" cy="95.39" r="7.65"/><circle class="cls-18" cx="150.41" cy="95.57" r="3.8"/><path class="cls-24" d="M139.13,114.34l-21.46-9.76,2.98-6.55s4.62-2.04,12.12,1.6,9.34,8.17,9.34,8.17l-2.98,6.55Z"/><path class="cls-28" d="M143.38,116.55h0c-1.84.02-3.35-1.8-3.37-4.06l1.94-7.32c.3-1.13,1.88-1.18,2.25-.08l2.4,7.12c.05.14.07.3.07.45-.08,2.15-1.51,3.87-3.29,3.89Z"/><rect class="cls-19" x="32.59" y="43.08" width="31.73" height="31.73" rx="5.11" ry="5.11" transform="translate(-18.53 22.4) rotate(-21.96)"/><path class="cls-20" d="M50.93,54.04l-3.36,1.35-3.36,1.35c-1.85.75-3.97-.15-4.71-2h0c-.75-1.85.15-3.97,2-4.71l3.36-1.35,3.36-1.35c1.85-.75,3.97.15,4.71,2h0c.75,1.85-.15,3.97-2,4.71Z"/><path class="cls-30" d="M47.57,55.39l-3.36,1.35c-1.85.75-3.97-.15-4.71-2h0c-.75-1.85.15-3.97,2-4.71l3.36-1.35"/><path class="cls-14" d="M50.28,62.11l-3.36,1.35c-1.85.75-3.97-.15-4.71-2h0c-.75-1.85.15-3.97,2-4.71l3.36-1.35"/><circle class="cls-23" cx="52.29" cy="57.4" r="3.62"/><path class="cls-15" d="M48.28,63.2h3.62v3.62c0,2-1.62,3.62-3.62,3.62h0c-2,0-3.62-1.62-3.62-3.62h0c0-2,1.62-3.62,3.62-3.62Z" transform="translate(-21.49 22.91) rotate(-21.96)"/><rect class="cls-29" x="227.51" y="207.94" width="31.73" height="31.73" rx="5.11" ry="5.11" transform="translate(31.03 -29.63) rotate(7.44)"/><text class="cls-26" transform="translate(232.26 230.07) rotate(7.44)"><tspan x="0" y="0">dj</tspan></text><rect class="cls-10" x="27.29" y="80.08" width="10.56" height="10.56" rx="2.14" ry="2.14" transform="translate(-25.82 15.09) rotate(-18.84)"/><rect class="cls-7" x="40.33" y="92.05" width="7.11" height="7.11" rx="1.3" ry="1.3" transform="translate(-5.89 2.93) rotate(-3.59)"/><rect class="cls-12" x="59.75" y="248.79" width="10.56" height="10.56" rx="2.14" ry="2.14" transform="translate(-78.57 34.61) rotate(-18.84)"/><rect class="cls-9" x="72.79" y="243.42" width="7.11" height="7.11" rx="1.3" ry="1.3" transform="translate(-15.3 5.26) rotate(-3.59)"/><rect class="cls-11" x="210.9" y="227.13" width="10.56" height="10.56" rx="2.14" ry="2.14" transform="translate(-63.47 82.27) rotate(-18.84)"/><rect class="cls-8" x="219.48" y="241.54" width="7.11" height="7.11" rx="1.3" ry="1.3" transform="translate(-14.9 14.43) rotate(-3.59)"/><rect class="cls-5" x="218.28" y="25.86" width="10.56" height="10.56" rx="2.14" ry="2.14" transform="translate(1.92 73.86) rotate(-18.84)"/><rect class="cls-4" x="210.36" y="39.81" width="7.11" height="7.11" rx="1.3" ry="1.3" transform="translate(-2.29 13.47) rotate(-3.59)"/><rect class="cls-16" x="31.71" y="214.21" width="31.73" height="31.73" rx="5.11" ry="5.11" transform="translate(-44.51 13.93) rotate(-11.39)"/><polygon class="cls-3" points="35.21 224.53 36.08 228.84 37.69 228.52 39.06 235.3 37.44 235.62 38.32 239.97 46.4 238.35 45.54 234.09 43.89 234.42 43.02 230.08 48.58 235.09 51.78 228.22 52.65 232.56 51 232.89 51.88 237.24 59.94 235.62 59.07 231.3 57.44 231.62 56.06 224.78 57.69 224.45 56.83 220.18 50.51 221.45 47.24 228.44 41.58 223.25 35.21 224.53"/><rect class="cls-6" x="220.11" y="43.08" width="31.73" height="31.73" rx="5.11" ry="5.11" transform="translate(17.32 -47.59) rotate(11.95)"/><rect class="cls-25" x="225.3" y="47.24" width="8.76" height="21.27" rx="2.26" ry="2.26" transform="translate(16.96 -46.31) rotate(11.95)"/><rect class="cls-25" x="238.99" y="50.04" width="8.76" height="12.7" rx="2.26" ry="2.26" transform="translate(16.95 -49.17) rotate(11.95)"/><path class="cls-17" d="M20.25,146.71l-5.87-1.24,2.51-11.88c.13-.62-.64-1.01-1.06-.55l-12.04,13.07c-.33.35-.14.93.33,1.03l5.87,1.24-2.51,11.88c-.13.62.64,1.01,1.06.55l12.04-13.07c.33-.35.14-.93-.33-1.03Z"/><path class="cls-13" d="M28.53,160.89l-3.31-.7,1.42-6.7c.07-.35-.36-.57-.6-.31l-6.79,7.37c-.18.2-.08.52.18.58l3.31.7-1.42,6.7c-.07.35.36.57.6.31l6.79-7.37c.18-.2.08-.52-.18-.58Z"/><path class="cls-13" d="M268.45,158.84l-3.31-.7,1.42-6.7c.07-.35-.36-.57-.6-.31l-6.79,7.37c-.18.2-.08.52.18.58l3.31.7-1.42,6.7c-.07.35.36.57.6.31l6.79-7.37c.18-.2.08-.52-.18-.58Z"/><path class="cls-17" d="M285.17,140.82l-5.87-1.24,2.51-11.88c.13-.62-.64-1.01-1.06-.55l-12.04,13.07c-.33.35-.14.93.33,1.03l5.87,1.24-2.51,11.88c-.13.62.64,1.01,1.06.55l12.04-13.07c.33-.35.14-.93-.33-1.03Z"/></svg>