<?xml version="1.0" encoding="UTF-8"?><svg id="Layer_1" xmlns="http://www.w3.org/2000/svg" xmlns:xlink="http://www.w3.org/1999/xlink" viewBox="0 0 292 268"><defs><style>.cls-1,.cls-2,.cls-3,.cls-4{fill:none;}.cls-5{fill:#f8db75;}.cls-6{fill:#019ca7;}.cls-7{fill:#3cbbc4;}.cls-2,.cls-8{stroke:#b5b5b5;stroke-miterlimit:10;stroke-width:1.5px;}.cls-2,.cls-3,.cls-4{stroke-linecap:round;}.cls-9{opacity:.2;}.cls-9,.cls-10,.cls-11,.cls-12{fill:#41821e;}.cls-10{opacity:.5;}.cls-11{opacity:.6;}.cls-13{fill:#fdbc45;}.cls-14{font-family:MinionConceptRoman-Bold, 'Minion Variable Concept';font-size:14.62px;font-variation-settings:'wght' 700, 'opsz' 11;}.cls-14,.cls-8,.cls-15,.cls-16{fill:#fff;}.cls-14,.cls-16{font-weight:700;}.cls-17{fill:#156fc6;}.cls-18{fill:#3d3d3d;}.cls-3{stroke-width:3.04px;}.cls-3,.cls-4{stroke:#e8896d;stroke-linejoin:round;}.cls-4{stroke-width:2.73px;}.cls-19{fill:#bc2f36;}.cls-20{clip-path:url(#clippath-1);}.cls-21{clip-path:url(#clippath-3);}.cls-22{clip-path:url(#clippath-4);}.cls-23{clip-path:url(#clippath-2);}.cls-24{clip-path:url(#clippath-7);}.cls-25{clip-path:url(#clippath-6);}.cls-26{clip-path:url(#clippath-8);}.cls-27{clip-path:url(#clippath-5);}.cls-28{fill:#a6c43f;}.cls-29{fill:#7c4a1a;}.cls-30{fill:#ffc5b4;}.cls-31{fill:#cd9965;}.cls-32{fill:#ffc500;}.cls-33{fill:#e04983;}.cls-34{fill:#e8896d;}.cls-35{fill:#d3eef9;}.cls-16{font-family:Nunito-Bold, Nunito;font-size:16.94px;font-variation-settings:'wght' 700;}.cls-36{fill:#8bd9cb;}.cls-37{fill:#4b4b4b;}.cls-38{fill:#c8c8c8;}.cls-39{clip-path:url(#clippath);}.cls-40{fill:#f7b000;}</style><clipPath id="clippath"><circle class="cls-1" cx="143.36" cy="165.55" r="88.46"/></clipPath><clipPath id="clippath-1"><path class="cls-1" d="M118.75,119.99s-9.46,3.6-10.98,4.21c-1.52.61-4.89.78-5.59-7.9s2.52-9.27,3.96-8.68,12.69,5.16,12.69,5.16c1.33.54,2.26,1.78,2.4,3.21h0c.17,1.74-.84,3.37-2.47,4Z"/></clipPath><clipPath id="clippath-2"><path class="cls-1" d="M118.75,119.99s-9.46,3.6-10.98,4.21c-1.52.61-4.89.78-5.59-7.9s2.52-9.27,3.96-8.68,12.69,5.16,12.69,5.16c1.33.54,2.26,1.78,2.4,3.21h0c.17,1.74-.84,3.37-2.47,4Z"/></clipPath><clipPath id="clippath-3"><circle class="cls-1" cx="35.31" cy="158.19" r="9.14"/></clipPath><clipPath id="clippath-4"><path class="cls-1" d="M38.1,167.18c-2.41.81-4.26-.16-4.27-.2.08-.36.23-.65.23-.65,0,0,1.53.99,3.96.22l.08.63Z"/></clipPath><clipPath id="clippath-5"><circle class="cls-1" cx="153.11" cy="50.51" r="9.14"/></clipPath><clipPath id="clippath-6"><path class="cls-1" d="M155.9,59.5c-2.41.81-4.26-.16-4.27-.2.08-.36.23-.65.23-.65,0,0,1.53.99,3.96.22l.08.63Z"/></clipPath><clipPath id="clippath-7"><circle class="cls-1" cx="202.39" cy="218.74" r="9.14"/></clipPath><clipPath id="clippath-8"><path class="cls-1" d="M205.18,227.74c-2.41.81-4.26-.16-4.27-.2.08-.36.23-.65.23-.65,0,0,1.53.99,3.96.22l.08.63Z"/></clipPath></defs><g class="cls-39"><circle class="cls-12" cx="143.36" cy="165.55" r="88.46"/><path class="cls-31" d="M120.51,296.06l14.32-64.11c1.32-5.93-1.88-11.69-7.16-12.87h0c-5.28-1.18-10.63,2.67-11.96,8.6l-14.32,64.11c-1.33,5.96,1.91,11.74,7.23,12.88h0c5.26,1.13,10.58-2.71,11.89-8.61Z"/><path class="cls-31" d="M164.35,294.46l-5.66-65.44c-.52-6.05-5.32-10.58-10.71-10.11h0c-5.39.47-9.34,5.75-8.81,11.8l5.66,65.44c.53,6.08,5.36,10.62,10.77,10.11h0c5.36-.5,9.27-5.77,8.75-11.8Z"/><circle class="cls-31" cx="136.96" cy="233.22" r="21.76"/><path class="cls-28" d="M118.9,230.75l38.13-10.04-7.91-67.12c-.62-6.68-4.65-12.23-8.32-11.46l-45.72,9.64c-3.67.77-5.11,7.48-2.98,13.84l19.4,58c1.59,4.74,4.68,7.72,7.41,7.14Z"/><rect class="cls-28" x="77.91" y="149.74" width="22.66" height="63.63" rx="11.06" ry="11.06" transform="translate(83.29 -20.66) rotate(24.49)"/><rect class="cls-28" x="153.92" y="125.76" width="21.09" height="67.8" rx="10.55" ry="10.55" transform="translate(366.34 51.08) rotate(107.58)"/><rect class="cls-30" x="111.34" y="130.24" width="13.84" height="21.14" rx="3.49" ry="3.49" transform="translate(-26.51 27.43) rotate(-11.91)"/><rect class="cls-32" x="242.67" y="12.17" width="11.99" height="83.08" rx="6" ry="6" transform="translate(8.35 137.18) rotate(-31.34)"/><rect class="cls-32" x="147.7" y="88.08" width="11.99" height="44.08" rx="6" ry="6" transform="translate(-34.85 96.01) rotate(-31.34)"/><rect class="cls-32" x="183.24" y="98.1" width="11.99" height="29.17" rx="3.95" ry="3.95" transform="translate(-31 114.87) rotate(-31.34)"/><polygon class="cls-40" points="259.88 83.64 163.87 115.43 153.65 98.64 225.94 27.92 259.88 83.64"/><rect class="cls-29" x="112.75" y="225.46" width="45.43" height="6.02" transform="translate(-45.4 33.96) rotate(-12.25)"/><rect class="cls-38" x="131.03" y="225.48" width="8.65" height="6.02" transform="translate(-45.41 33.94) rotate(-12.25)"/><rect class="cls-31" x="147.49" y="222.58" width="2.48" height="6.02" transform="translate(-44.49 36.71) rotate(-12.25)"/><rect class="cls-31" x="120.66" y="228.41" width="2.48" height="6.02" transform="translate(-46.34 31.14) rotate(-12.25)"/><circle class="cls-30" cx="108.96" cy="227.45" r="9.63"/><circle class="cls-30" cx="197.13" cy="124.32" r="9.63"/><rect class="cls-28" x="108.15" y="142.14" width="22.7" height="9.35" rx="4.67" ry="4.67" transform="translate(-28.44 28.71) rotate(-12.25)"/><circle class="cls-11" cx="122.14" cy="163.36" r="1.79"/><circle class="cls-11" cx="124.31" cy="173.35" r="1.79"/><circle class="cls-11" cx="126.48" cy="183.34" r="1.79"/><circle class="cls-11" cx="128.65" cy="193.34" r="1.79"/><circle class="cls-11" cx="130.82" cy="203.33" r="1.79"/><path class="cls-30" d="M118.75,137.31h0c-13.06,2.84-26.61-6.98-31.27-22.64l-15.41-51.89c-.99-4.56,1.23-8.92,4.96-9.73l44.74-9.72c3.73-.81,7.55,2.23,8.54,6.8l7.5,53.61c2.26,16.18-6,30.73-19.06,33.57Z"/><circle class="cls-30" cx="79.91" cy="98.89" r="9.63"/><path class="cls-31" d="M130.26,49.99c-2.95-17.56-19.45-29.67-34.11-11.68-14.66,17.99-.14.17-.21.25-4.6,5.63-15.15,11.63-21.56,14.96-2.94,1.53-4.17,5.29-2.82,8.63l2.24,5.56,56.7-16.27-.24-1.45Z"/><path class="cls-3" d="M101.55,85.42c3.11-.99,8.55-.75,10.72,1.68-.46.16-6.19.68-9.43,4.57"/><g class="cls-20"><polygon class="cls-19" points="121.51 118.94 101.86 127.84 99.24 104.56 120.99 113.67 121.51 118.94"/><ellipse class="cls-34" cx="106.8" cy="119.56" rx="5.48" ry="3.93" transform="translate(-11.16 11) rotate(-5.6)"/><rect class="cls-15" x="103.12" y="118.48" width="19.57" height="3.81" transform="translate(-34.25 45.65) rotate(-19.91)"/></g><path class="cls-34" d="M123.47,100.28l-3.3,1.61-2.65-12.04c-.19-.89.91-1.45,1.52-.78l5.43,6.07c1.45,1.62.95,4.19-1.01,5.14Z"/><path class="cls-4" d="M126.37,77.22c-2.54.9-5.69,3.95-5.41,6.94.38-.12,4.21-2.76,8.73-1.54"/><rect class="cls-28" x="178.71" y="126.26" width="22.66" height="51.4" rx="11.06" ry="11.06" transform="translate(39.06 -38.86) rotate(13)"/><rect class="cls-28" x="77.74" y="187.43" width="21.09" height="44.15" rx="10.55" ry="10.55" transform="translate(-122.28 123.79) rotate(-45)"/></g><rect class="cls-5" x="242.67" y="12.17" width="11.99" height="83.08" rx="6" ry="6" transform="translate(8.35 137.18) rotate(-31.34)"/><rect class="cls-5" x="147.7" y="88.08" width="11.99" height="44.08" rx="6" ry="6" transform="translate(-34.85 96.01) rotate(-31.34)"/><rect class="cls-5" x="183.24" y="98.1" width="11.99" height="29.17" rx="3.95" ry="3.95" transform="translate(-31 114.87) rotate(-31.34)"/><polygon class="cls-13" points="259.88 83.64 163.87 115.43 153.65 98.64 225.94 27.92 259.88 83.64"/><circle class="cls-30" cx="197.13" cy="124.32" r="9.63"/><path class="cls-30" d="M118.75,137.31h0c-13.06,2.84-26.61-6.98-31.27-22.64l-15.41-51.89c-.99-4.56,1.23-8.92,4.96-9.73l44.74-9.72c3.73-.81,7.55,2.23,8.54,6.8l7.5,53.61c2.26,16.18-6,30.73-19.06,33.57Z"/><circle class="cls-30" cx="79.91" cy="98.89" r="9.63"/><path class="cls-31" d="M130.26,49.99c-2.95-17.56-19.45-29.67-34.11-11.68-14.66,17.99-.14.17-.21.25-4.6,5.63-15.15,11.63-21.56,14.96-2.94,1.53-4.17,5.29-2.82,8.63l2.24,5.56,56.7-16.27-.24-1.45Z"/><path class="cls-3" d="M101.55,85.42c3.11-.99,8.55-.75,10.72,1.68-.46.16-6.19.68-9.43,4.57"/><g class="cls-23"><polygon class="cls-19" points="121.51 118.94 101.86 127.84 99.24 104.56 120.99 113.67 121.51 118.94"/><ellipse class="cls-34" cx="106.8" cy="119.56" rx="5.48" ry="3.93" transform="translate(-11.16 11) rotate(-5.6)"/><rect class="cls-15" x="103.12" y="118.48" width="19.57" height="3.81" transform="translate(-34.25 45.65) rotate(-19.91)"/></g><path class="cls-34" d="M123.47,100.28l-3.3,1.61-2.65-12.04c-.19-.89.91-1.45,1.52-.78l5.43,6.07c1.45,1.62.95,4.19-1.01,5.14Z"/><path class="cls-4" d="M126.37,77.22c-2.54.9-5.69,3.95-5.41,6.94.38-.12,4.21-2.76,8.73-1.54"/><rect class="cls-28" x="178.71" y="126.26" width="22.66" height="51.4" rx="11.06" ry="11.06" transform="translate(39.06 -38.86) rotate(13)"/><rect class="cls-8" x="20.38" y="140.19" width="82.03" height="33.84" rx="5.05" ry="5.05"/><line class="cls-2" x1="52.37" y1="147.41" x2="73.87" y2="147.41"/><line class="cls-2" x1="52.37" y1="152.65" x2="73.87" y2="152.65"/><line class="cls-2" x1="52.37" y1="157.88" x2="95.38" y2="157.88"/><line class="cls-2" x1="52.37" y1="163.11" x2="95.38" y2="163.11"/><line class="cls-2" x1="52.37" y1="168.35" x2="95.38" y2="168.35"/><g class="cls-21"><circle class="cls-7" cx="35.31" cy="158.19" r="9.14"/><rect class="cls-30" x="35.71" y="156.3" width="1.45" height="2.47" rx=".72" ry=".72" transform="translate(-5.13 1.28) rotate(-1.87)"/><rect class="cls-35" x="31.13" y="156.72" width="2.37" height="7.27" rx="1.18" ry="1.18" transform="translate(-113.65 234.21) rotate(-105.45)"/><rect class="cls-35" x="39.14" y="158.03" width="2.37" height="7.81" rx="1.18" ry="1.18" transform="translate(183.35 247.94) rotate(135)"/><path class="cls-31" d="M38.23,168.35c0,1.09-.94,1.05-2,1.2-.1.01-.2.02-.3.02-.19,0-.38-.03-.56-.07-.92-.25-2.01-.07-1.88-1.06.05-.38.39-1.79.57-2.11.37-.64,1.07-1.08,1.87-1.08.89,0,1.76.53,2.08,1.31,0,0,.21,1.49.21,1.79Z"/><path class="cls-31" d="M36.61,175.54l-.58-6.98c-.05-.65.4-1.21,1-1.26h0c.61-.05,1.14.43,1.2,1.08l.58,6.98c.05.65-.4,1.21-1.01,1.26h0c-.61.05-1.14-.44-1.19-1.08Z"/><path class="cls-31" d="M35.18,188.23l1.47-12.58c-.02-.72.45-1.32,1.05-1.34h0c.6-.02,1.11.55,1.14,1.26l-1.47,12.58c.02.72-.45,1.32-1.06,1.34h0c-.6.01-1.11-.55-1.13-1.26Z"/><path class="cls-30" d="M36.4,156.94h0c-1.58.05-2.94-1.21-3.14-2.9l-.66-5.62c-.02-.49.34-.89.79-.91l5.4-.18c.45-.01.83.37.84.86l-.29,5.65c-.09,1.71-1.36,3.05-2.94,3.1Z"/><circle class="cls-30" cx="32.76" cy="152.31" r="1.01"/><circle class="cls-30" cx="39.72" cy="152.06" r="1.01"/><path class="cls-36" d="M37.47,167.27l-2.71-.2c-.38-.03-.67-.37-.68-.79l-.17-6.39c-.02-.69.26-1.32.6-1.29l4.14.27c.33.02.54.68.43,1.36l-1.02,6.2c-.08.51-.32.86-.57.84Z"/><rect class="cls-36" x="35.29" y="158.06" width="2.31" height=".95" rx=".47" ry=".47" transform="translate(7.16 -1.48) rotate(2.57)"/><circle class="cls-6" cx="36.27" cy="160.23" r=".18"/><circle class="cls-6" cx="36.23" cy="161.27" r=".18"/><circle class="cls-6" cx="36.18" cy="162.3" r=".18"/><circle class="cls-6" cx="36.13" cy="163.34" r=".18"/><circle class="cls-6" cx="36.09" cy="164.38" r=".18"/><g class="cls-22"><path class="cls-29" d="M38.76,167.67c-1.69.69-5.34.19-5.34.19l.05-2.3s2.54.62,4.97-.15l.32,2.26Z"/><polygon class="cls-31" points="37.27 166.7 37.06 166.74 37.23 167.62 37.44 167.59 37.27 166.7"/><polygon class="cls-31" points="34.91 166.57 34.7 166.53 34.53 167.41 34.74 167.45 34.91 166.57"/><polygon class="cls-38" points="36.36 166.78 35.51 166.78 35.41 167.68 36.3 167.74 36.36 166.78"/></g><polygon class="cls-31" points="31.96 188.35 29.84 188.07 33.49 168.49 35.62 168.76 31.96 188.35"/><rect class="cls-29" x="28.56" y="187.88" width="3.74" height="1.95" rx=".98" ry=".98"/><rect class="cls-29" x="34.83" y="187.88" width="2.76" height="1.95" rx=".98" ry=".98"/><circle class="cls-30" cx="38.23" cy="167.18" r="1.2"/><rect class="cls-35" x="39.72" y="162.1" width="2.2" height="6.22" rx="1.1" ry="1.1" transform="translate(-69.51 294.77) rotate(-125.7)"/><rect class="cls-15" x="34.53" y="150.82" width="1.62" height="2.7" rx=".81" ry=".81" transform="translate(-4.96 1.24) rotate(-1.87)"/><rect class="cls-37" x="35.09" y="151.45" width=".76" height="1.33" rx=".38" ry=".38" transform="translate(-4.95 1.24) rotate(-1.87)"/><rect class="cls-15" x="36.43" y="150.76" width="1.62" height="2.7" rx=".81" ry=".81" transform="translate(-4.95 1.3) rotate(-1.87)"/><rect class="cls-37" x="36.68" y="151.4" width=".76" height="1.33" rx=".38" ry=".38" transform="translate(-4.95 1.29) rotate(-1.87)"/><path class="cls-34" d="M36.38,154.5h0c-.2,0-.37-.19-.37-.43l.19-.79c.03-.12.2-.13.24-.01l.28.76s0,.03,0,.05c0,.23-.15.42-.34.43Z"/><path class="cls-15" d="M37.91,154.61c.21.53-.05,1.13-.58,1.34s-1.13-.05-1.34-.58.45-.12.98-.33.73-.97.94-.44Z"/><path class="cls-31" d="M39.61,148.77c.17-2.08-1.36-3.93-3.54-2.3s-.02.02-.03.02c-.68.51-2.05.89-2.88,1.08-.38.09-.62.48-.57.9l.1.7,6.91-.23v-.17Z"/></g><rect class="cls-36" x="31.13" y="156.72" width="2.37" height="7.27" rx="1.18" ry="1.18" transform="translate(-113.65 234.21) rotate(-105.45)"/><rect class="cls-36" x="39.14" y="158.03" width="2.37" height="7.81" rx="1.18" ry="1.18" transform="translate(183.35 247.94) rotate(135)"/><rect class="cls-36" x="28.15" y="155.99" width="2.2" height="6.33" rx="1.1" ry="1.1" transform="translate(108.34 300.34) rotate(161.16)"/><path class="cls-30" d="M36.4,156.94h0c-1.58.05-2.94-1.21-3.14-2.9l-.66-5.62c-.02-.49.34-.89.79-.91l5.4-.18c.45-.01.83.37.84.86l-.29,5.65c-.09,1.71-1.36,3.05-2.94,3.1Z"/><circle class="cls-30" cx="32.76" cy="152.31" r="1.01"/><circle class="cls-30" cx="39.72" cy="152.06" r="1.01"/><circle class="cls-30" cx="38.23" cy="167.18" r="1.2"/><rect class="cls-36" x="39.72" y="162.1" width="2.2" height="6.22" rx="1.1" ry="1.1" transform="translate(-69.51 294.77) rotate(-125.7)"/><path class="cls-34" d="M36.38,154.5h0c-.2,0-.37-.19-.37-.43l.19-.79c.03-.12.2-.13.24-.01l.28.76s0,.03,0,.05c0,.23-.15.42-.34.43Z"/><path class="cls-15" d="M37.91,154.61c.21.53-.05,1.13-.58,1.34s-1.13-.05-1.34-.58.45-.12.98-.33.73-.97.94-.44Z"/><path class="cls-31" d="M39.61,148.77c.17-2.08-1.36-3.93-3.54-2.3s-.02.02-.03.02c-.68.51-2.05.89-2.88,1.08-.38.09-.62.48-.57.9l.1.7,6.91-.23v-.17Z"/><circle class="cls-15" cx="35.27" cy="152.16" r=".85"/><circle class="cls-18" cx="35.46" cy="152.18" r=".42"/><circle class="cls-15" cx="37.37" cy="152.12" r=".85"/><circle class="cls-18" cx="37.19" cy="152.14" r=".42"/><rect class="cls-30" x="27.8" y="152.87" width=".93" height="2.69" rx=".47" ry=".47" transform="translate(96.18 295.52) rotate(164.72)"/><rect class="cls-30" x="26.83" y="152.79" width=".93" height="2.69" rx=".47" ry=".47" transform="translate(121.34 279.26) rotate(153.11)"/><rect class="cls-30" x="26.45" y="153.67" width=".93" height="2.91" rx=".47" ry=".47" transform="translate(146 258.12) rotate(140.7)"/><rect class="cls-30" x="28.3" y="154.19" width=".93" height="2.69" rx=".47" ry=".47" transform="translate(-66.48 281.8) rotate(-132.49)"/><rect class="cls-30" x="27.18" y="154.04" width="1.56" height="3.11" rx=".78" ry=".78" transform="translate(104.68 293.83) rotate(161.16)"/><rect x="78.05" y="134.48" width="19.73" height="19.73" rx="2.55" ry="2.55"/><text class="cls-14" transform="translate(81.42 149.46)"><tspan x="0" y="0">M</tspan></text><rect class="cls-8" x="138.18" y="32.51" width="82.03" height="33.84" rx="5.05" ry="5.05"/><line class="cls-2" x1="170.16" y1="39.73" x2="191.67" y2="39.73"/><line class="cls-2" x1="170.16" y1="44.97" x2="191.67" y2="44.97"/><line class="cls-2" x1="170.16" y1="50.2" x2="213.17" y2="50.2"/><line class="cls-2" x1="170.16" y1="55.43" x2="213.17" y2="55.43"/><line class="cls-2" x1="170.16" y1="60.67" x2="213.17" y2="60.67"/><g class="cls-27"><circle class="cls-7" cx="153.11" cy="50.51" r="9.14"/><rect class="cls-30" x="153.51" y="48.62" width="1.45" height="2.47" rx=".72" ry=".72" transform="translate(-1.55 5.07) rotate(-1.87)"/><rect class="cls-35" x="148.92" y="49.04" width="2.37" height="7.27" rx="1.18" ry="1.18" transform="translate(139.32 211.39) rotate(-105.45)"/><rect class="cls-35" x="156.94" y="50.35" width="2.37" height="7.81" rx="1.18" ry="1.18" transform="translate(308.3 -19.18) rotate(135)"/><path class="cls-31" d="M156.03,60.67c0,1.09-.94,1.05-2,1.2-.1.01-.2.02-.3.02-.19,0-.38-.03-.56-.07-.92-.25-2.01-.07-1.88-1.06.05-.38.39-1.79.57-2.11.37-.64,1.07-1.08,1.87-1.08.89,0,1.76.53,2.08,1.31,0,0,.21,1.49.21,1.79Z"/><path class="cls-31" d="M154.41,67.86l-.58-6.98c-.05-.65.4-1.21,1-1.26h0c.61-.05,1.14.43,1.2,1.08l.58,6.98c.05.65-.4,1.21-1.01,1.26h0c-.61.05-1.14-.44-1.19-1.08Z"/><path class="cls-31" d="M155.13,84.73l-.69-16.75c-.02-.72.45-1.32,1.05-1.34h0c.6-.02,1.11.55,1.14,1.26l.69,16.75c.02.72-.45,1.32-1.06,1.34h0c-.6.01-1.11-.55-1.13-1.26Z"/><path class="cls-30" d="M154.2,49.26h0c-1.58.05-2.94-1.21-3.14-2.9l-.66-5.62c-.02-.49.34-.89.79-.91l5.4-.18c.45-.01.83.37.84.86l-.29,5.65c-.09,1.71-1.36,3.05-2.94,3.1Z"/><circle class="cls-30" cx="150.56" cy="44.63" r="1.01"/><circle class="cls-30" cx="157.52" cy="44.38" r="1.01"/><path class="cls-36" d="M155.26,59.59l-2.71-.2c-.38-.03-.67-.37-.68-.79l-.17-6.39c-.02-.69.26-1.32.6-1.29l4.14.27c.33.02.54.68.43,1.36l-1.02,6.2c-.08.51-.32.86-.57.84Z"/><rect class="cls-36" x="153.09" y="50.38" width="2.31" height=".95" rx=".47" ry=".47" transform="translate(2.44 -6.88) rotate(2.57)"/><circle class="cls-6" cx="154.07" cy="52.55" r=".18"/><circle class="cls-6" cx="154.02" cy="53.59" r=".18"/><circle class="cls-6" cx="153.98" cy="54.62" r=".18"/><circle class="cls-6" cx="153.93" cy="55.66" r=".18"/><circle class="cls-6" cx="153.88" cy="56.7" r=".18"/><g class="cls-25"><path class="cls-29" d="M156.56,59.99c-1.69.69-5.34.19-5.34.19l.05-2.3s2.54.62,4.97-.15l.32,2.26Z"/><polygon class="cls-31" points="155.07 59.02 154.86 59.06 155.02 59.94 155.23 59.91 155.07 59.02"/><polygon class="cls-31" points="152.7 58.89 152.49 58.85 152.32 59.73 152.54 59.77 152.7 58.89"/><polygon class="cls-38" points="154.16 59.1 153.3 59.1 153.2 60 154.09 60.06 154.16 59.1"/></g><polygon class="cls-31" points="151.92 84.84 149.8 84.56 151.29 60.81 153.41 61.08 151.92 84.84"/><rect class="cls-29" x="148.52" y="84.37" width="3.74" height="1.95" rx=".98" ry=".98"/><rect class="cls-29" x="154.79" y="84.37" width="2.76" height="1.95" rx=".98" ry=".98"/><circle class="cls-30" cx="156.03" cy="59.5" r="1.2"/><rect class="cls-35" x="157.52" y="54.42" width="2.2" height="6.22" rx="1.1" ry="1.1" transform="translate(204.47 219.91) rotate(-125.7)"/><rect class="cls-15" x="152.32" y="43.14" width="1.62" height="2.7" rx=".81" ry=".81" transform="translate(-1.37 5.03) rotate(-1.87)"/><rect class="cls-37" x="152.89" y="43.77" width=".76" height="1.33" rx=".38" ry=".38" transform="translate(-1.37 5.03) rotate(-1.87)"/><rect class="cls-15" x="154.22" y="43.08" width="1.62" height="2.7" rx=".81" ry=".81" transform="translate(-1.37 5.09) rotate(-1.87)"/><rect class="cls-37" x="154.47" y="43.72" width=".76" height="1.33" rx=".38" ry=".38" transform="translate(-1.37 5.09) rotate(-1.87)"/><path class="cls-34" d="M154.18,46.82h0c-.2,0-.37-.19-.37-.43l.19-.79c.03-.12.2-.13.24-.01l.28.76s0,.03,0,.05c0,.23-.15.42-.34.43Z"/><path class="cls-15" d="M155.7,46.93c.21.53-.05,1.13-.58,1.34s-1.13-.05-1.34-.58.45-.12.98-.33.73-.97.94-.44Z"/><path class="cls-31" d="M157.41,41.09c.17-2.08-1.36-3.93-3.54-2.3s-.02.02-.03.02c-.68.51-2.05.89-2.88,1.08-.38.09-.62.48-.57.9l.1.7,6.91-.23v-.17Z"/></g><rect class="cls-36" x="148.92" y="49.04" width="2.37" height="7.27" rx="1.18" ry="1.18" transform="translate(139.32 211.39) rotate(-105.45)"/><rect class="cls-36" x="156.94" y="50.35" width="2.37" height="7.81" rx="1.18" ry="1.18" transform="translate(308.3 -19.18) rotate(135)"/><rect class="cls-36" x="145.95" y="48.31" width="2.2" height="6.33" rx="1.1" ry="1.1" transform="translate(302.84 52.7) rotate(161.16)"/><path class="cls-30" d="M154.2,49.26h0c-1.58.05-2.94-1.21-3.14-2.9l-.66-5.62c-.02-.49.34-.89.79-.91l5.4-.18c.45-.01.83.37.84.86l-.29,5.65c-.09,1.71-1.36,3.05-2.94,3.1Z"/><circle class="cls-30" cx="150.56" cy="44.63" r="1.01"/><circle class="cls-30" cx="157.52" cy="44.38" r="1.01"/><circle class="cls-30" cx="156.03" cy="59.5" r="1.2"/><rect class="cls-36" x="157.52" y="54.42" width="2.2" height="6.22" rx="1.1" ry="1.1" transform="translate(204.47 219.91) rotate(-125.7)"/><path class="cls-34" d="M154.18,46.82h0c-.2,0-.37-.19-.37-.43l.19-.79c.03-.12.2-.13.24-.01l.28.76s0,.03,0,.05c0,.23-.15.42-.34.43Z"/><path class="cls-15" d="M155.7,46.93c.21.53-.05,1.13-.58,1.34s-1.13-.05-1.34-.58.45-.12.98-.33.73-.97.94-.44Z"/><path class="cls-31" d="M157.41,41.09c.17-2.08-1.36-3.93-3.54-2.3s-.02.02-.03.02c-.68.51-2.05.89-2.88,1.08-.38.09-.62.48-.57.9l.1.7,6.91-.23v-.17Z"/><circle class="cls-15" cx="153.07" cy="44.48" r=".85"/><circle class="cls-18" cx="153.25" cy="44.5" r=".42"/><circle class="cls-15" cx="155.17" cy="44.44" r=".85"/><circle class="cls-18" cx="154.99" cy="44.46" r=".42"/><rect class="cls-30" x="145.6" y="45.19" width=".93" height="2.69" rx=".47" ry=".47" transform="translate(299.22 52.92) rotate(164.72)"/><rect class="cls-30" x="144.62" y="45.11" width=".93" height="2.69" rx=".47" ry=".47" transform="translate(295.5 22.27) rotate(153.11)"/><rect class="cls-30" x="144.24" y="45.99" width=".93" height="2.91" rx=".47" ry=".47" transform="translate(286.74 -7.5) rotate(140.7)"/><rect class="cls-30" x="146.1" y="46.51" width=".93" height="2.69" rx=".47" ry=".47" transform="translate(210.28 188.24) rotate(-132.49)"/><rect class="cls-30" x="144.98" y="46.36" width="1.56" height="3.11" rx=".78" ry=".78" transform="translate(299.18 46.19) rotate(161.16)"/><rect class="cls-17" x="195.85" y="26.8" width="19.73" height="19.73" rx="2.55" ry="2.55"/><text class="cls-16" transform="translate(198.98 43.06)"><tspan x="0" y="0">in</tspan></text><rect class="cls-8" x="187.46" y="200.75" width="82.03" height="33.84" rx="5.05" ry="5.05"/><line class="cls-2" x1="219.45" y1="207.97" x2="240.95" y2="207.97"/><line class="cls-2" x1="219.45" y1="213.2" x2="240.95" y2="213.2"/><line class="cls-2" x1="219.45" y1="218.44" x2="262.46" y2="218.44"/><line class="cls-2" x1="219.45" y1="223.67" x2="262.46" y2="223.67"/><line class="cls-2" x1="219.45" y1="228.9" x2="262.46" y2="228.9"/><g class="cls-24"><circle class="cls-7" cx="202.39" cy="218.74" r="9.14"/><rect class="cls-30" x="202.79" y="216.85" width="1.45" height="2.47" rx=".72" ry=".72" transform="translate(-7.02 6.77) rotate(-1.87)"/><rect class="cls-35" x="198.21" y="217.28" width="2.37" height="7.27" rx="1.18" ry="1.18" transform="translate(39.57 471.94) rotate(-105.45)"/><rect class="cls-35" x="206.22" y="218.59" width="2.37" height="7.81" rx="1.18" ry="1.18" transform="translate(511.39 233.17) rotate(135)"/><path class="cls-31" d="M205.31,228.9c0,1.09-.94,1.05-2,1.2-.1.01-.2.02-.3.02-.19,0-.38-.03-.56-.07-.92-.25-2.01-.07-1.88-1.06.05-.38.39-1.79.57-2.11.37-.64,1.07-1.08,1.87-1.08.89,0,1.76.53,2.08,1.31,0,0,.21,1.49.21,1.79Z"/><path class="cls-31" d="M203.69,236.09l-.58-6.98c-.05-.65.4-1.21,1-1.26h0c.61-.05,1.14.43,1.2,1.08l.58,6.98c.05.65-.4,1.21-1.01,1.26h0c-.61.05-1.14-.44-1.19-1.08Z"/><path class="cls-31" d="M203.98,243.98l-.25-7.77c-.02-.72.45-1.32,1.05-1.34h0c.6-.02,1.11.55,1.14,1.26l.25,7.77c.02.72-.45,1.32-1.06,1.34h0c-.6.01-1.11-.55-1.13-1.26Z"/><path class="cls-30" d="M203.48,217.5h0c-1.58.05-2.94-1.21-3.14-2.9l-.66-5.62c-.02-.49.34-.89.79-.91l5.4-.18c.45-.01.83.37.84.86l-.29,5.65c-.09,1.71-1.36,3.05-2.94,3.1Z"/><circle class="cls-30" cx="199.84" cy="212.86" r="1.01"/><circle class="cls-30" cx="206.8" cy="212.62" r="1.01"/><path class="cls-36" d="M204.55,227.82l-2.71-.2c-.38-.03-.67-.37-.68-.79l-.17-6.39c-.02-.69.26-1.32.6-1.29l4.14.27c.33.02.54.68.43,1.36l-1.02,6.2c-.08.51-.32.86-.57.84Z"/><rect class="cls-36" x="202.37" y="218.62" width="2.31" height=".95" rx=".47" ry=".47" transform="translate(10.05 -8.92) rotate(2.57)"/><circle class="cls-6" cx="203.35" cy="220.78" r=".18"/><circle class="cls-6" cx="203.31" cy="221.82" r=".18"/><circle class="cls-6" cx="203.26" cy="222.86" r=".18"/><circle class="cls-6" cx="203.21" cy="223.9" r=".18"/><circle class="cls-6" cx="203.17" cy="224.93" r=".18"/><g class="cls-26"><path class="cls-29" d="M205.84,228.22c-1.69.69-5.34.19-5.34.19l.05-2.3s2.54.62,4.97-.15l.32,2.26Z"/><polygon class="cls-31" points="204.35 227.26 204.14 227.3 204.3 228.18 204.52 228.14 204.35 227.26"/><polygon class="cls-31" points="201.99 227.12 201.78 227.08 201.61 227.97 201.82 228 201.99 227.12"/><polygon class="cls-38" points="203.44 227.34 202.59 227.34 202.49 228.24 203.38 228.3 203.44 227.34"/></g><rect class="cls-31" x="199.6" y="229.12" width="2.14" height="14.9" transform="translate(32.33 -24) rotate(7.44)"/><rect class="cls-29" x="197.37" y="243.62" width="3.74" height="1.95" rx=".98" ry=".98"/><rect class="cls-29" x="203.63" y="243.62" width="2.76" height="1.95" rx=".98" ry=".98"/><circle class="cls-30" cx="205.31" cy="227.73" r="1.2"/><rect class="cls-35" x="206.8" y="222.65" width="2.2" height="6.22" rx="1.1" ry="1.1" transform="translate(145.9 526.34) rotate(-125.7)"/><rect class="cls-15" x="201.61" y="211.38" width="1.62" height="2.7" rx=".81" ry=".81" transform="translate(-6.85 6.73) rotate(-1.87)"/><rect class="cls-37" x="202.17" y="212" width=".76" height="1.33" rx=".38" ry=".38" transform="translate(-6.84 6.74) rotate(-1.87)"/><rect class="cls-15" x="203.51" y="211.31" width="1.62" height="2.7" rx=".81" ry=".81" transform="translate(-6.84 6.79) rotate(-1.87)"/><rect class="cls-37" x="203.76" y="211.95" width=".76" height="1.33" rx=".38" ry=".38" transform="translate(-6.84 6.79) rotate(-1.87)"/><path class="cls-34" d="M203.46,215.06h0c-.2,0-.37-.19-.37-.43l.19-.79c.03-.12.2-.13.24-.01l.28.76s0,.03,0,.05c0,.23-.15.42-.34.43Z"/><path class="cls-15" d="M204.99,215.16c.21.53-.05,1.13-.58,1.34s-1.13-.05-1.34-.58.45-.12.98-.33.73-.97.94-.44Z"/><path class="cls-31" d="M206.69,209.32c.17-2.08-1.36-3.93-3.54-2.3s-.02.02-.03.02c-.68.51-2.05.89-2.88,1.08-.38.09-.62.48-.57.9l.1.7,6.91-.23v-.17Z"/></g><rect class="cls-36" x="198.21" y="217.28" width="2.37" height="7.27" rx="1.18" ry="1.18" transform="translate(39.57 471.94) rotate(-105.45)"/><rect class="cls-36" x="206.22" y="218.59" width="2.37" height="7.81" rx="1.18" ry="1.18" transform="translate(511.39 233.17) rotate(135)"/><rect class="cls-36" x="195.23" y="216.54" width="2.2" height="6.33" rx="1.1" ry="1.1" transform="translate(453.1 364.25) rotate(161.16)"/><path class="cls-30" d="M203.48,217.5h0c-1.58.05-2.94-1.21-3.14-2.9l-.66-5.62c-.02-.49.34-.89.79-.91l5.4-.18c.45-.01.83.37.84.86l-.29,5.65c-.09,1.71-1.36,3.05-2.94,3.1Z"/><circle class="cls-30" cx="199.84" cy="212.86" r="1.01"/><circle class="cls-30" cx="206.8" cy="212.62" r="1.01"/><circle class="cls-30" cx="205.31" cy="227.73" r="1.2"/><rect class="cls-36" x="206.8" y="222.65" width="2.2" height="6.22" rx="1.1" ry="1.1" transform="translate(145.9 526.34) rotate(-125.7)"/><path class="cls-34" d="M203.46,215.06h0c-.2,0-.37-.19-.37-.43l.19-.79c.03-.12.2-.13.24-.01l.28.76s0,.03,0,.05c0,.23-.15.42-.34.43Z"/><path class="cls-15" d="M204.99,215.16c.21.53-.05,1.13-.58,1.34s-1.13-.05-1.34-.58.45-.12.98-.33.73-.97.94-.44Z"/><path class="cls-31" d="M206.69,209.32c.17-2.08-1.36-3.93-3.54-2.3s-.02.02-.03.02c-.68.51-2.05.89-2.88,1.08-.38.09-.62.48-.57.9l.1.7,6.91-.23v-.17Z"/><circle class="cls-15" cx="202.35" cy="212.72" r=".85"/><circle class="cls-18" cx="202.54" cy="212.73" r=".42"/><circle class="cls-15" cx="204.45" cy="212.67" r=".85"/><circle class="cls-18" cx="204.27" cy="212.7" r=".42"/><rect class="cls-30" x="194.88" y="213.42" width=".93" height="2.69" rx=".47" ry=".47" transform="translate(440.39 370.45) rotate(164.72)"/><rect class="cls-30" x="193.91" y="213.34" width=".93" height="2.69" rx=".47" ry=".47" transform="translate(464.82 318.26) rotate(153.11)"/><rect class="cls-30" x="193.53" y="214.23" width=".93" height="2.91" rx=".47" ry=".47" transform="translate(480.72 259.7) rotate(140.7)"/><rect class="cls-30" x="195.38" y="214.74" width=".93" height="2.69" rx=".47" ry=".47" transform="translate(168.81 506.46) rotate(-132.49)"/><rect class="cls-30" x="194.26" y="214.6" width="1.56" height="3.11" rx=".78" ry=".78" transform="translate(449.44 357.74) rotate(161.16)"/><rect class="cls-33" x="245.13" y="195.04" width="19.73" height="19.73" rx="2.55" ry="2.55"/><rect class="cls-10" x="36.59" y="184.16" width="10.56" height="10.56" rx="2.14" ry="2.14" transform="translate(-38.81 365.88) rotate(-142.96)"/><rect class="cls-9" x="31.37" y="199.16" width="7.11" height="7.11" rx="1.3" ry="1.3" transform="translate(-104.09 354.34) rotate(-127.71)"/><rect class="cls-10" x="209.43" y="243.41" width="10.56" height="10.56" rx="2.14" ry="2.14" transform="translate(-52.35 440.06) rotate(-84.82)"/><rect class="cls-9" x="196.2" y="246.24" width="7.11" height="7.11" rx="1.3" ry="1.3" transform="translate(-104.05 349.77) rotate(-69.57)"/><rect class="cls-10" x="142.25" y="14.61" width="10.56" height="10.56" rx="2.14" ry="2.14" transform="translate(82.6 153.85) rotate(-71.82)"/><rect class="cls-9" x="129.17" y="14.05" width="7.11" height="7.11" rx="1.3" ry="1.3" transform="translate(44.9 118.66) rotate(-56.57)"/><g id="nrDsj4.tif"><path class="cls-15" d="M248.58,205.28c0-.25,0-.5,0-.75,0-.04.02-.09.02-.13.04-.28.06-.56.12-.83.34-1.54,1.13-2.8,2.38-3.75,1.56-1.18,3.32-1.58,5.24-1.18,1.54.32,2.78,1.12,3.74,2.37,1.03,1.34,1.46,2.87,1.3,4.54-.13,1.36-.66,2.56-1.57,3.59-.99,1.12-2.23,1.82-3.71,2.09-.24.04-.49.07-.73.1h-.75s-.06-.02-.1-.02c-1-.07-1.94-.36-2.8-.88-1.66-1.02-2.69-2.49-3.05-4.41-.04-.24-.07-.49-.1-.73ZM251.64,209.1c1.51,1.26,3.8,1.55,5.58.7-.22-1.33-.6-2.61-1.08-3.87-1.24.22-3.6,1.88-4.5,3.17ZM250.9,208.38c.64-.78,1.36-1.47,2.18-2.05.82-.58,1.7-1.05,2.68-1.36-.19-.4-.37-.78-.55-1.18-1.82.61-3.68.87-5.58.9-.07,1.25.37,2.66,1.27,3.69ZM252.83,199.97c-1.59.76-2.62,1.97-3.08,3.68,1.7-.04,3.34-.27,4.96-.79-.56-1.01-1.18-1.97-1.88-2.9ZM256.18,203.41c.19.42.38.83.57,1.24.01.03.08.04.12.04,1.13-.2,2.26-.19,3.39.03.04,0,.08,0,.12.01-.05-1.21-.45-2.27-1.2-3.21-.89.81-1.9,1.42-2.99,1.9ZM255.73,202.48c.73-.24,2.26-1.19,2.72-1.71-.85-.7-1.82-1.11-2.91-1.23-.55-.06-1.1-.04-1.62.09.6.95,1.2,1.9,1.81,2.85ZM258.17,209.26c1.17-.89,1.89-2.04,2.14-3.47-1.05-.23-2.09-.29-3.15-.11.44,1.17.78,2.34,1.01,3.58Z"/></g></svg>