<?xml version="1.0" encoding="UTF-8"?><svg id="Layer_1" xmlns="http://www.w3.org/2000/svg" xmlns:xlink="http://www.w3.org/1999/xlink" viewBox="0 0 295.31 268.72"><defs><style>.cls-1{fill:none;}.cls-2,.cls-3,.cls-4{fill:#ffdc31;}.cls-2,.cls-5,.cls-6,.cls-7,.cls-8,.cls-9{opacity:.2;}.cls-3,.cls-10,.cls-11,.cls-12,.cls-13,.cls-14{opacity:.5;}.cls-15,.cls-16{fill:#fff;}.cls-15,.cls-17{font-size:13.18px;}.cls-15,.cls-17,.cls-18{font-family:Nunito-Bold, Nunito;font-variation-settings:'wght' 700;font-weight:700;}.cls-10,.cls-5,.cls-19{fill:#8f3aba;}.cls-6,.cls-11,.cls-20{fill:#156fc6;}.cls-21{fill:#595bd4;}.cls-22{fill:#019ca7;}.cls-23{fill:#53d86a;}.cls-24{fill:#3cbbc4;}.cls-25{fill:#3d3d3d;}.cls-12,.cls-7,.cls-26{fill:#1a1a1a;}.cls-27,.cls-18{fill:#fe9526;}.cls-28{clip-path:url(#clippath-1);}.cls-29{fill:#7c4a1a;}.cls-30{fill:#3cabdb;}.cls-31{fill:#ffc5b4;}.cls-32{fill:#cd9965;}.cls-33,.cls-8,.cls-13{fill:#3975a7;}.cls-34{fill:#ffda4b;}.cls-14,.cls-9,.cls-35{fill:#301805;}.cls-36{fill:#e8896d;}.cls-37{fill:#d3eef9;}.cls-38{letter-spacing:-.01em;}.cls-18{font-size:20.42px;}.cls-39{fill:#8bd9cb;}.cls-40{fill:#fd3d39;}.cls-41{fill:#4b4b4b;}.cls-42{fill:#c8c8c8;}.cls-43{clip-path:url(#clippath);}</style><clipPath id="clippath"><circle class="cls-1" cx="146.56" cy="134.02" r="82.3"/></clipPath><clipPath id="clippath-1"><path class="cls-1" d="M171.7,215c-21.68,7.31-38.34-1.43-38.45-1.77.74-3.21,2.04-5.88,2.04-5.88,0,0,13.74,8.89,35.65,2.01l.76,5.64Z"/></clipPath></defs><g class="cls-43"><circle class="cls-24" cx="146.56" cy="134.02" r="82.3"/><rect class="cls-31" x="150.17" y="116.99" width="13.02" height="22.27" rx="3.49" ry="3.49" transform="translate(-4.1 5.19) rotate(-1.87)"/><rect class="cls-37" x="108.89" y="120.81" width="21.31" height="65.48" rx="10.44" ry="10.44" transform="translate(3.39 309.67) rotate(-105.45)"/><rect class="cls-37" x="181.04" y="132.63" width="21.31" height="70.36" rx="10.44" ry="10.44" transform="translate(445.92 150.92) rotate(135)"/><path class="cls-32" d="M172.83,225.49c0,9.82-8.51,9.47-17.97,10.78-.88.12-1.77.18-2.68.18-1.73,0-3.41-.23-5.01-.65-8.3-2.21-18.08-.59-16.94-9.51.43-3.38,3.47-16.12,5.12-18.98,3.36-5.81,9.64-9.71,16.83-9.71,8.05,0,15.81,4.79,18.76,11.76,0,0,1.89,13.45,1.89,16.13Z"/><path class="cls-32" d="M158.27,290.25l-5.25-62.88c-.49-5.81,3.56-10.9,9.03-11.36h0c5.47-.46,10.31,3.89,10.79,9.7l5.25,62.88c.49,5.84-3.6,10.94-9.1,11.36h0c-5.45.42-10.24-3.92-10.72-9.71Z"/><path class="cls-31" d="M156.36,122.81h0c-14.2.46-26.44-10.87-28.24-26.14l-5.96-50.6c-.14-4.39,3.03-8.06,7.08-8.19l48.64-1.59c4.05-.13,7.46,3.32,7.6,7.71l-2.64,50.88c-.8,15.36-12.27,27.46-26.47,27.93Z"/><circle class="cls-31" cx="123.61" cy="81.06" r="9.06"/><circle class="cls-31" cx="186.27" cy="78.83" r="9.06"/><path class="cls-39" d="M165.97,215.76l-24.45-1.77c-3.4-.25-6.05-3.31-6.15-7.12l-1.55-57.5c-.22-6.2,2.38-11.85,5.37-11.66l37.25,2.39c2.99.19,4.85,6.13,3.84,12.25l-9.2,55.83c-.75,4.56-2.88,7.73-5.11,7.58Z"/><rect class="cls-39" x="146.37" y="132.87" width="20.76" height="8.55" rx="4.27" ry="4.27" transform="translate(6.32 -6.9) rotate(2.57)"/><circle class="cls-22" cx="155.21" cy="152.39" r="1.64"/><circle class="cls-22" cx="154.79" cy="161.73" r="1.64"/><circle class="cls-22" cx="154.37" cy="171.07" r="1.64"/><circle class="cls-22" cx="153.95" cy="180.42" r="1.64"/><circle class="cls-22" cx="153.53" cy="189.76" r="1.64"/><g class="cls-28"><path class="cls-29" d="M177.61,219.37c-15.2,6.26-48.09,1.73-48.09,1.73l.42-20.74s22.88,5.56,44.79-1.32l2.88,20.33Z"/><polygon class="cls-32" points="164.19 210.7 162.29 211.03 163.78 218.98 165.68 218.65 164.19 210.7"/><polygon class="cls-32" points="142.92 209.46 141.02 209.12 139.5 217.06 141.4 217.41 142.92 209.46"/><polygon class="cls-42" points="156.01 211.42 148.3 211.42 147.41 219.5 155.43 220.05 156.01 211.42"/></g><rect class="cls-32" x="121.42" y="227.44" width="19.26" height="134.14" transform="translate(39.24 -14.49) rotate(7.44)"/><circle class="cls-31" cx="172.83" cy="214.98" r="10.83"/><rect class="cls-37" x="186.29" y="169.23" width="19.84" height="56" rx="9.92" ry="9.92" transform="translate(150.55 471.65) rotate(-125.7)"/><rect class="cls-16" x="139.49" y="67.67" width="14.56" height="24.33" rx="5.09" ry="5.09" transform="translate(-2.53 4.84) rotate(-1.87)"/><rect class="cls-41" x="144.59" y="73.33" width="6.83" height="12" rx="2.39" ry="2.39" transform="translate(-2.51 4.88) rotate(-1.87)"/><rect class="cls-16" x="156.6" y="67.11" width="14.56" height="24.33" rx="5.09" ry="5.09" transform="translate(-2.5 5.4) rotate(-1.87)"/><rect class="cls-41" x="158.85" y="72.86" width="6.83" height="12" rx="2.39" ry="2.39" transform="translate(-2.49 5.35) rotate(-1.87)"/><path class="cls-36" d="M156.2,100.84h0c-1.79.06-3.29-1.67-3.36-3.86l1.71-7.15c.26-1.1,1.8-1.19,2.18-.12l2.5,6.86c.05.14.08.28.08.43-.03,2.09-1.38,3.79-3.11,3.85Z"/><path class="cls-16" d="M169.92,101.77c1.9,4.77-.42,10.17-5.19,12.07-4.77,1.9-10.17-.42-12.07-5.19s4.06-1.05,8.83-2.95c4.77-1.9,6.53-8.7,8.43-3.94Z"/><path class="cls-32" d="M185.3,49.17c1.51-18.73-12.25-35.36-31.88-20.74-19.63,14.63-.19.14-.28.21-6.16,4.57-18.5,8-25.91,9.75-3.4.8-5.63,4.34-5.11,8.1l.86,6.27,62.2-2.03.12-1.55Z"/></g><rect class="cls-39" x="108.89" y="120.81" width="21.31" height="65.48" rx="10.44" ry="10.44" transform="translate(3.39 309.67) rotate(-105.45)"/><rect class="cls-39" x="181.04" y="132.63" width="21.31" height="70.36" rx="10.44" ry="10.44" transform="translate(445.92 150.92) rotate(135)"/><rect class="cls-39" x="82.06" y="114.21" width="19.84" height="57.05" rx="9.92" ry="9.92" transform="translate(225.13 248.11) rotate(161.16)"/><path class="cls-31" d="M156.36,122.81h0c-14.2.46-26.44-10.87-28.24-26.14l-5.96-50.6c-.14-4.39,3.03-8.06,7.08-8.19l48.64-1.59c4.05-.13,7.46,3.32,7.6,7.71l-2.64,50.88c-.8,15.36-12.27,27.46-26.47,27.93Z"/><circle class="cls-31" cx="123.61" cy="81.06" r="9.06"/><circle class="cls-31" cx="186.27" cy="78.83" r="9.06"/><circle class="cls-31" cx="172.83" cy="214.98" r="10.83"/><rect class="cls-39" x="186.29" y="169.23" width="19.84" height="56" rx="9.92" ry="9.92" transform="translate(150.55 471.65) rotate(-125.7)"/><path class="cls-36" d="M156.2,100.84h0c-1.79.06-3.29-1.67-3.36-3.86l1.71-7.15c.26-1.1,1.8-1.19,2.18-.12l2.5,6.86c.05.14.08.28.08.43-.03,2.09-1.38,3.79-3.11,3.85Z"/><path class="cls-16" d="M169.92,101.77c1.9,4.77-.42,10.17-5.19,12.07-4.77,1.9-10.17-.42-12.07-5.19s4.06-1.05,8.83-2.95c4.77-1.9,6.53-8.7,8.43-3.94Z"/><path class="cls-32" d="M185.3,49.17c1.51-18.73-12.25-35.36-31.88-20.74-19.63,14.63-.19.14-.28.21-6.16,4.57-18.5,8-25.91,9.75-3.4.8-5.63,4.34-5.11,8.1l.86,6.27,62.2-2.03.12-1.55Z"/><circle class="cls-16" cx="146.21" cy="79.77" r="7.65"/><circle class="cls-25" cx="147.87" cy="79.9" r="3.8"/><circle class="cls-16" cx="165.13" cy="79.33" r="7.65"/><circle class="cls-25" cx="163.47" cy="79.56" r="3.8"/><rect class="cls-31" x="78.9" y="86.12" width="8.38" height="24.2" rx="4.19" ry="4.19" transform="translate(189.13 171.06) rotate(164.72)"/><rect class="cls-31" x="70.15" y="85.38" width="8.38" height="24.2" rx="4.19" ry="4.19" transform="translate(184.72 150.8) rotate(153.11)"/><rect class="cls-31" x="66.71" y="93.34" width="8.38" height="26.24" rx="4.19" ry="4.19" transform="translate(193.21 143.93) rotate(140.7)"/><rect class="cls-31" x="83.41" y="97.98" width="8.38" height="24.2" rx="4.19" ry="4.19" transform="translate(65.61 249.03) rotate(-132.49)"/><rect class="cls-31" x="73.33" y="96.69" width="14.08" height="27.98" rx="4.05" ry="4.05" transform="translate(192.18 189.48) rotate(161.16)"/><rect class="cls-39" x="82.06" y="114.21" width="19.84" height="57.05" rx="9.92" ry="9.92" transform="translate(225.13 248.11) rotate(161.16)"/><rect class="cls-26" x="51.41" y="20.14" width="31.73" height="31.73" rx="5.11" ry="5.11" transform="translate(12.02 -16.62) rotate(15.45)"/><path class="cls-27" d="M72.48,33.46l-3.7-1.02-3.7-1.02c-2.04-.56-3.24-2.68-2.68-4.72h0c.56-2.04,2.68-3.24,4.72-2.68l3.7,1.02,3.7,1.02c2.04.56,3.24,2.68,2.68,4.72h0c-.56,2.04-2.68,3.24-4.72,2.68Z"/><path class="cls-40" d="M68.78,32.44l-3.7-1.02c-2.04-.56-3.24-2.68-2.68-4.72h0c.56-2.04,2.68-3.24,4.72-2.68l3.7,1.02"/><path class="cls-21" d="M66.74,39.83l-3.7-1.02c-2.04-.56-3.24-2.68-2.68-4.72h0c.56-2.04,2.68-3.24,4.72-2.68l3.7,1.02"/><circle class="cls-30" cx="71.46" cy="37.16" r="3.84"/><path class="cls-23" d="M66.74,39.83l-1.02,3.7c-.56,2.04-2.68,3.24-4.72,2.68h0c-2.04-.56-3.24-2.68-2.68-4.72h0c.56-2.04,2.68-3.24,4.72-2.68l3.7,1.02"/><path class="cls-33" d="M236.15,215.59c-7.95,1.15-7.38,5.11-7.38,5.11l.34,2.37,7.67-1.11.14.99-7.67,1.11-3.37.5s-3.96.57-2.81,8.53c1.15,7.95,5.11,7.38,5.11,7.38l3.37-.49-.67-4.59c-.27-1.86,1.02-3.58,2.87-3.85l8.86-1.28c2.04-.29,3.45-2.19,3.15-4.22l-.62-4.27-.49-3.37s-.57-3.96-8.53-2.81Z"/><path class="cls-34" d="M249.67,222.13l-3.37.49.5,3.43c.36,2.5-1.37,4.82-3.87,5.18l-8.88,1.29c-1.39.2-2.35,1.49-2.15,2.87l.79,5.44.49,3.37s.57,3.96,8.53,2.81,7.38-5.11,7.38-5.11l-.34-2.35-7.94,1.15-.14-.99,7.93-1.18,3.37-.49s3.96-.57,2.81-8.53c-1.15-7.95-5.11-7.38-5.11-7.38Z"/><circle class="cls-16" cx="232.09" cy="220.01" r="1.2"/><circle class="cls-16" cx="245.02" cy="242.6" r="1.2"/><rect class="cls-19" x="248" y="118.16" width="31.73" height="31.73" rx="5.11" ry="5.11" transform="translate(31.19 -48.86) rotate(11.24)"/><text class="cls-15" transform="translate(249.99 144.2) rotate(11.24)"><tspan class="cls-38" x="0" y="0">C</tspan><tspan x="8.76" y="0">SS</tspan></text><rect class="cls-35" x="16.9" y="121.82" width="31.73" height="31.73" rx="5.11" ry="5.11" transform="translate(-21.91 7.14) rotate(-9.34)"/><text class="cls-18" transform="translate(23.94 146.89) rotate(-9.34)"><tspan x="0" y="0">Ai</tspan></text><rect class="cls-4" x="58.58" y="216.34" width="31.73" height="31.73" rx="5.11" ry="5.11" transform="translate(46.69 -10.06) rotate(11.24)"/><text class="cls-17" transform="translate(71.85 245.21) rotate(11.24)"><tspan x="0" y="0">JS</tspan></text><circle class="cls-20" cx="232.63" cy="36.5" r="18.24"/><path class="cls-16" d="M232.64,20.43v1.2c6.66,0,12.54,4.49,14.32,10.91,1.06,3.83.56,7.84-1.4,11.29-1.96,3.45-5.14,5.94-8.97,7-1.3.36-2.63.54-3.97.54-6.66,0-12.54-4.49-14.32-10.91-1.06-3.83-.56-7.84,1.4-11.29,1.96-3.45,5.14-5.94,8.97-7,1.3-.36,2.63-.54,3.97-.54v-1.2M232.64,20.43c-1.42,0-2.86.19-4.29.58-8.55,2.36-13.57,11.21-11.21,19.77,1.97,7.12,8.43,11.79,15.48,11.79,1.42,0,2.86-.19,4.29-.58,8.55-2.36,13.57-11.21,11.21-19.77-1.97-7.12-8.43-11.79-15.48-11.79h0Z"/><circle class="cls-16" cx="230.21" cy="27.92" r="2.61"/><path class="cls-16" d="M239.46,29c-.28-.55-.96-.77-1.51-.49,0,0-4.79,2.74-6.64,3.25s-7.36.62-7.36.62c-.62.04-1.09.58-1.05,1.2.04.62.58,1.09,1.2,1.05l5.33-.23,1.53,5.53h0l.88,7.42c.07.62.63,1.06,1.25.98.62-.07,1.06-.63.98-1.25l-.92-7.76.65-.18,3.19,7.13c.25.57.92.82,1.48.57s.82-.92.57-1.48l-3.08-6.88-1.51-5.47s0,0,0,0l4.51-2.48c.55-.28.77-.96.49-1.51Z"/><rect class="cls-12" x="35.03" y="44.65" width="10.56" height="10.56" rx="2.14" ry="2.14" transform="translate(-13.96 15.69) rotate(-18.84)"/><rect class="cls-7" x="48.08" y="56.62" width="7.11" height="7.11" rx="1.3" ry="1.3" transform="translate(-3.66 3.35) rotate(-3.59)"/><rect class="cls-11" x="242.42" y="55.11" width="10.56" height="10.56" rx="2.14" ry="2.14" transform="translate(-6.23 83.23) rotate(-18.84)"/><rect class="cls-6" x="234.17" y="66.17" width="7.11" height="7.11" rx="1.3" ry="1.3" transform="translate(-3.9 15.01) rotate(-3.59)"/><rect class="cls-10" x="252.36" y="154.76" width="10.56" height="10.56" rx="2.14" ry="2.14" transform="translate(96.94 -97.19) rotate(26.16)"/><rect class="cls-13" x="255.51" y="237.32" width="10.56" height="10.56" rx="2.14" ry="2.14" transform="translate(133.66 -90.12) rotate(26.16)"/><rect class="cls-5" x="269.19" y="158.17" width="7.11" height="7.11" rx="1.3" ry="1.3" transform="translate(175.17 -139.98) rotate(41.41)"/><rect class="cls-8" x="260.31" y="225.84" width="7.11" height="7.11" rx="1.3" ry="1.3" transform="translate(217.71 -117.19) rotate(41.41)"/><rect class="cls-14" x="36.72" y="156.44" width="10.56" height="10.56" rx="2.14" ry="2.14" transform="translate(-49.98 22.23) rotate(-18.84)"/><rect class="cls-3" x="42.15" y="221.56" width="10.56" height="10.56" rx="2.14" ry="2.14" transform="translate(-70.71 27.47) rotate(-18.84)"/><rect class="cls-9" x="26.76" y="166.18" width="7.11" height="7.11" rx="1.3" ry="1.3" transform="translate(-10.56 2.23) rotate(-3.59)"/><rect class="cls-2" x="46.12" y="236.92" width="7.11" height="7.11" rx="1.3" ry="1.3" transform="translate(-14.95 3.58) rotate(-3.59)"/></svg>