<?xml version="1.0" encoding="UTF-8"?><svg id="Layer_1" xmlns="http://www.w3.org/2000/svg" xmlns:xlink="http://www.w3.org/1999/xlink" viewBox="0 0 239.27 239.27"><defs><style>.cls-1,.cls-2{fill:none;}.cls-3{fill:#f8db75;}.cls-4{fill:#fdbc45;}.cls-5{fill:#3d3d3d;}.cls-6{fill:#7c4a1a;}.cls-7{fill:#ffc5b4;}.cls-8{fill:#fff;}.cls-9{fill:#cd9965;}.cls-2{stroke:#fff;stroke-linecap:round;stroke-miterlimit:10;stroke-width:8.83px;}.cls-10{opacity:.15;}.cls-11{fill:#e8896d;}.cls-12{fill:#4b4b4b;}.cls-13{fill:#c8c8c8;}.cls-14{clip-path:url(#clippath);}.cls-15{fill:#ffc26d;}</style><clipPath id="clippath"><circle class="cls-1" cx="116.63" cy="137.66" r="80.86"/></clipPath></defs><g class="cls-14"><circle class="cls-10" cx="116.63" cy="137.66" r="80.86"/><path class="cls-9" d="M115,279.76l4.6-63.44c.43-5.87-3.47-10.93-8.69-11.31h0c-5.23-.38-9.81,4.07-10.23,9.94l-4.6,63.44c-.43,5.89,3.5,10.97,8.75,11.31h0c5.2.34,9.75-4.1,10.17-9.94Z"/><path class="cls-9" d="M141.68,278.22l-5.48-63.37c-.51-5.86-5.15-10.24-10.37-9.79h0c-5.22.45-9.04,5.57-8.53,11.43l5.48,63.37c.51,5.89,5.19,10.28,10.43,9.79h0c5.19-.49,8.98-5.59,8.47-11.42Z"/><rect class="cls-7" x="111.46" y="117.45" width="13.41" height="22.93" rx="3.49" ry="3.49" transform="translate(235.92 258.21) rotate(-179.82)"/><path class="cls-7" d="M118.34,123.44h0c14.63.05,26.89-11.99,28.27-27.76l4.6-52.26c.01-4.52-3.36-8.2-7.53-8.21l-50.11-.16c-4.18-.01-7.57,3.64-7.59,8.16l4.26,52.29c1.29,15.78,13.47,27.9,28.1,27.94Z"/><circle class="cls-7" cx="150.77" cy="79.48" r="9.33"/><circle class="cls-7" cx="86.22" cy="79.08" r="9.33"/><circle class="cls-9" cx="118.5" cy="218.51" r="17.74"/><path class="cls-3" d="M104.06,214.64l25.24-.21c3.51-.03,6.43-.11,6.79-4.07l5.38-59.86c.63-6.45-1.67-12.52-4.75-12.52h-38.43c-3.08,0-5.38,6.07-4.75,12.52l7.07,59.76c.47,4.81,1.16,4.38,3.46,4.38Z"/><rect class="cls-3" x="78.87" y="135.08" width="21.95" height="51.57" rx="10.73" ry="10.73" transform="translate(113.29 -21.89) rotate(36.49)"/><rect class="cls-3" x="134.95" y="135.19" width="21.95" height="56.39" rx="10.73" ry="10.73" transform="translate(-65.84 107.31) rotate(-33.4)"/><rect class="cls-3" x="70.06" y="162.66" width="20.43" height="40.43" rx="10.21" ry="10.21"/><rect class="cls-3" x="107.41" y="133.98" width="21.98" height="9.05" rx="4.53" ry="4.53"/><circle class="cls-4" cx="117.5" cy="154.71" r="1.74"/><circle class="cls-4" cx="117.5" cy="164.61" r="1.74"/><circle class="cls-4" cx="117.5" cy="174.52" r="1.74"/><circle class="cls-4" cx="117.5" cy="184.42" r="1.74"/><circle class="cls-4" cx="117.5" cy="194.32" r="1.74"/><rect class="cls-6" x="100.6" y="210.26" width="35.46" height="5.83"/><rect class="cls-13" x="114.12" y="210.26" width="6.99" height="5.83"/><rect class="cls-9" x="127.67" y="210.26" width="2" height="5.83"/><rect class="cls-9" x="105.49" y="210.26" width="2" height="5.83"/><path class="cls-9" d="M151.15,44.73c2.21-19.22-11.52-36.81-32.42-22.41-20.9,14.39-.2.14-.3.2-6.55,4.5-19.49,7.61-27.25,9.16-3.56.71-5.99,4.28-5.59,8.16l.68,6.48h64.69s.18-1.59.18-1.59Z"/><rect class="cls-7" x="188.74" y="115.98" width="7.17" height="20.69" rx="3.58" ry="3.58" transform="translate(103.98 -86.14) rotate(34.12)"/><rect class="cls-7" x="196.03" y="117.8" width="7.17" height="20.69" rx="3.58" ry="3.58" transform="translate(152.02 -104.24) rotate(45.73)"/><rect class="cls-7" x="196.32" y="125.14" width="7.17" height="22.44" rx="3.58" ry="3.58" transform="translate(210.22 -105.4) rotate(58.14)"/><rect class="cls-7" x="181.82" y="124.33" width="7.17" height="20.69" rx="3.58" ry="3.58" transform="translate(-41.88 105.44) rotate(-28.66)"/><rect class="cls-7" x="185.06" y="125.2" width="12.04" height="23.92" rx="2.79" ry="2.79" transform="translate(123.7 -88.19) rotate(37.68)"/><rect class="cls-15" x="158.71" y="135.48" width="20.43" height="57.66" rx="10.21" ry="10.21" transform="translate(187.94 399.2) rotate(-138.83)"/><rect class="cls-7" x="74.26" y="192.58" width="10.87" height="23.5" rx="5.43" ry="5.43"/><path class="cls-7" d="M84.95,198.63h0c3,0,5.43,2.44,5.43,5.43v7.61c0,2.44-1.98,4.41-4.41,4.41h-4.72c-.96,0-1.74-.78-1.74-1.74v-10.28c0-3,2.44-5.43,5.43-5.43Z"/><rect class="cls-8" x="103.55" y="65.95" width="14.99" height="25.05" rx="7.5" ry="7.5" transform="translate(-.72 1.03) rotate(-.53)"/><rect class="cls-12" x="108.81" y="71.8" width="7.03" height="12.36" rx="3.52" ry="3.52" transform="translate(-.71 1.04) rotate(-.53)"/><rect class="cls-8" x="121.18" y="65.78" width="14.99" height="25.05" rx="7.5" ry="7.5" transform="translate(-.72 1.19) rotate(-.53)"/><rect class="cls-12" x="123.5" y="71.67" width="7.03" height="12.36" rx="3.52" ry="3.52" transform="translate(-.71 1.17) rotate(-.53)"/><path class="cls-11" d="M120.25,100.33h0c-1.84.02-3.35-1.8-3.37-4.06l1.94-7.32c.3-1.13,1.88-1.18,2.25-.08l2.4,7.12c.05.14.07.3.07.45-.08,2.15-1.51,3.87-3.29,3.89Z"/><path class="cls-2" d="M121.49,109.55c-2.64,1.06-5.68,1.12-8.51-.08-3.07-1.3-5.25-3.83-6.21-6.76"/></g><path class="cls-7" d="M118.34,123.44h0c14.63.05,26.89-11.99,28.27-27.76l4.6-52.26c.01-4.52-3.36-8.2-7.53-8.21l-50.11-.16c-4.18-.01-7.57,3.64-7.59,8.16l4.26,52.29c1.29,15.78,13.47,27.9,28.1,27.94Z"/><circle class="cls-7" cx="150.77" cy="79.48" r="9.33"/><circle class="cls-7" cx="86.22" cy="79.08" r="9.33"/><path class="cls-9" d="M151.15,44.73c2.21-19.22-11.52-36.81-32.42-22.41-20.9,14.39-.2.14-.3.2-6.55,4.5-19.49,7.61-27.25,9.16-3.56.71-5.99,4.28-5.59,8.16l.68,6.48h64.69s.18-1.59.18-1.59Z"/><rect class="cls-7" x="188.74" y="115.98" width="7.17" height="20.69" rx="3.58" ry="3.58" transform="translate(103.98 -86.14) rotate(34.12)"/><rect class="cls-7" x="196.03" y="117.8" width="7.17" height="20.69" rx="3.58" ry="3.58" transform="translate(152.02 -104.24) rotate(45.73)"/><rect class="cls-7" x="196.32" y="125.14" width="7.17" height="22.44" rx="3.58" ry="3.58" transform="translate(210.22 -105.4) rotate(58.14)"/><rect class="cls-7" x="181.82" y="124.33" width="7.17" height="20.69" rx="3.58" ry="3.58" transform="translate(-41.88 105.44) rotate(-28.66)"/><rect class="cls-7" x="185.06" y="125.2" width="12.04" height="23.92" rx="2.79" ry="2.79" transform="translate(123.7 -88.19) rotate(37.68)"/><rect class="cls-3" x="158.71" y="135.48" width="20.43" height="57.66" rx="10.21" ry="10.21" transform="translate(187.94 399.2) rotate(-138.83)"/><rect class="cls-7" x="74.26" y="192.58" width="10.87" height="23.5" rx="5.43" ry="5.43"/><path class="cls-7" d="M84.95,198.63h0c3,0,5.43,2.44,5.43,5.43v7.61c0,2.44-1.98,4.41-4.41,4.41h-4.72c-.96,0-1.74-.78-1.74-1.74v-10.28c0-3,2.44-5.43,5.43-5.43Z"/><path class="cls-2" d="M121.49,109.55c-2.64,1.06-5.68,1.12-8.51-.08-3.07-1.3-5.25-3.83-6.21-6.76"/><circle class="cls-8" cx="110.03" cy="78.99" r="7.65"/><circle class="cls-5" cx="111.68" cy="79.17" r="3.8"/><circle class="cls-8" cx="128.95" cy="79.17" r="7.65"/><circle class="cls-5" cx="127.28" cy="79.35" r="3.8"/><path class="cls-7" d="M116,98.12l-21.46-9.76,2.98-6.55s4.62-2.04,12.12,1.6,9.34,8.17,9.34,8.17l-2.98,6.55Z"/><path class="cls-11" d="M120.25,100.33h0c-1.84.02-3.35-1.8-3.37-4.06l1.94-7.32c.3-1.13,1.88-1.18,2.25-.08l2.4,7.12c.05.14.07.3.07.45-.08,2.15-1.51,3.87-3.29,3.89Z"/></svg>