<?xml version="1.0" encoding="UTF-8"?><svg id="Layer_1" xmlns="http://www.w3.org/2000/svg" xmlns:xlink="http://www.w3.org/1999/xlink" viewBox="0 0 292.86 268.72"><defs><style>.cls-1,.cls-2,.cls-3,.cls-4{fill:none;}.cls-5,.cls-6,.cls-7{fill:#a6c43f;}.cls-5,.cls-8,.cls-9,.cls-10,.cls-11{opacity:.5;}.cls-6,.cls-12,.cls-13,.cls-14,.cls-15{opacity:.2;}.cls-16{fill:#f8db75;}.cls-8,.cls-12,.cls-17{fill:#8f3aba;}.cls-13,.cls-9,.cls-18{fill:#156fc6;}.cls-19{fill:#595bd4;}.cls-20{fill:#ed908e;}.cls-21{fill:#53d86a;}.cls-22{fill:#fdbc45;}.cls-23,.cls-24,.cls-3,.cls-25,.cls-26,.cls-4{stroke-miterlimit:10;}.cls-23,.cls-27,.cls-25,.cls-26{fill:#fff;}.cls-23,.cls-4{stroke:#c491e2;}.cls-28{fill:#3d3d3d;}.cls-10,.cls-14,.cls-29{fill:#1a1a1a;}.cls-2{stroke:#e8896d;stroke-linecap:round;stroke-linejoin:round;stroke-width:2.55px;}.cls-30{fill:#bc2f36;}.cls-31{fill:#1471c5;}.cls-32,.cls-33{fill:#fe9526;}.cls-34{clip-path:url(#clippath-1);}.cls-35{clip-path:url(#clippath-2);}.cls-24,.cls-25{stroke:#000;stroke-width:.5px;}.cls-36{fill:#7c4a1a;}.cls-37{fill:#3cabdb;}.cls-38{fill:#ffc5b4;}.cls-39{fill:#cd9965;}.cls-3{stroke:#8f3aba;}.cls-11,.cls-15,.cls-40{fill:#301805;}.cls-26{stroke:#156fc6;}.cls-41{fill:#e8896d;}.cls-42{fill:#ef483d;}.cls-33{font-family:Nunito-Bold, Nunito;font-size:20.42px;font-variation-settings:'wght' 700;font-weight:700;}.cls-43{fill:#fd3d39;}.cls-44{fill:#4b4b4b;}.cls-45{fill:#c8c8c8;}.cls-46{clip-path:url(#clippath);}</style><clipPath id="clippath"><circle class="cls-1" cx="146.43" cy="143.13" r="83.1"/></clipPath><clipPath id="clippath-1"><path class="cls-1" d="M155.19,114.41s-9.15,2.4-10.63,2.82-4.62.24-4.41-7.9c.22-8.14,3.26-8.36,4.54-7.67.56.3,2.31,3.02,4.64,4.27,3,1.61,6.64,1.79,6.64,1.79,1.19.64,1.92,1.88,1.91,3.22h0c-.01,1.63-1.12,3.05-2.7,3.47Z"/></clipPath><clipPath id="clippath-2"><path class="cls-1" d="M155.19,114.41s-9.15,2.4-10.63,2.82-4.62.24-4.41-7.9c.22-8.14,3.26-8.36,4.54-7.67.56.3,2.31,3.02,4.64,4.27,3,1.61,6.64,1.79,6.64,1.79,1.19.64,1.92,1.88,1.91,3.22h0c-.01,1.63-1.12,3.05-2.7,3.47Z"/></clipPath></defs><g class="cls-46"><circle class="cls-42" cx="146.43" cy="143.13" r="83.1"/><path class="cls-39" d="M116.89,274.94l25.46-55.88c2.35-5.17.53-11.06-4.07-13.15h0c-4.6-2.1-10.24.39-12.6,5.56l-25.46,55.88c-2.36,5.19-.51,11.11,4.13,13.18h0c4.6,2.05,10.2-.44,12.54-5.59Z"/><path class="cls-39" d="M194.86,257.25l-35.7-49.96c-3.3-4.62-9.31-5.98-13.43-3.04h0c-4.12,2.94-4.77,9.07-1.47,13.69l35.7,49.96c3.32,4.64,9.37,5.99,13.48,3h0c4.07-2.96,4.71-9.06,1.42-13.65Z"/><path class="cls-39" d="M93.09,333.67l23.05-56.92c2.13-5.26.06-11.07-4.63-12.97h0c-4.69-1.9-10.22.83-12.35,6.09l-23.05,56.92c-2.14,5.29-.04,11.12,4.69,12.99h0c4.68,1.85,10.17-.88,12.29-6.11Z"/><path class="cls-39" d="M183.77,325.3l12.72-60.08c1.18-5.56-1.88-10.91-6.83-11.96h0c-4.95-1.05-9.91,2.61-11.09,8.16l-12.72,60.08c-1.18,5.58,1.91,10.95,6.89,11.97h0c4.93,1.01,9.86-2.65,11.03-8.17Z"/><rect class="cls-38" x="142.87" y="118.35" width="12.94" height="22.14" rx="3.49" ry="3.49" transform="translate(268.64 286.96) rotate(-168.05)"/><circle class="cls-39" cx="143.32" cy="214.71" r="17.12"/><path class="cls-20" d="M129.39,212.84l24.36-.2c3.39-.03,6.21-2.91,6.55-6.69l5.2-57.05c.61-6.15-1.61-11.93-4.59-11.93h-37.1c-2.98,0-5.2,5.78-4.59,11.93l5.58,56.07c.46,4.58,2.37,7.86,4.59,7.86Z"/><rect class="cls-20" x="111.29" y="136.5" width="21.19" height="44.6" rx="10.12" ry="10.12" transform="translate(46.7 -26.73) rotate(15.45)"/><rect class="cls-20" x="162.91" y="133.4" width="21.19" height="65.22" rx="10.12" ry="10.12" transform="translate(-62.73 122.93) rotate(-33.4)"/><rect class="cls-36" x="125.12" y="207.93" width="36.02" height="5.62" transform="translate(2.3 -1.54) rotate(.62)"/><rect class="cls-45" x="143.87" y="207.93" width="6.86" height="5.62" transform="translate(2.3 -1.59) rotate(.62)"/><rect class="cls-39" x="155.74" y="208.05" width="1.96" height="5.62" transform="translate(2.3 -1.69) rotate(.62)"/><rect class="cls-39" x="135.4" y="207.81" width="1.96" height="5.62" transform="translate(2.3 -1.47) rotate(.62)"/><rect class="cls-20" x="171.94" y="173.7" width="17.97" height="37.45" rx="8.98" ry="8.98" transform="translate(186.16 456.49) rotate(-137.9)"/><rect class="cls-20" x="137.06" y="132.46" width="21.22" height="8.74" rx="4.37" ry="4.37"/><circle class="cls-42" cx="146.8" cy="152.47" r="1.68"/><circle class="cls-42" cx="146.8" cy="162.03" r="1.68"/><circle class="cls-42" cx="146.8" cy="171.59" r="1.68"/><circle class="cls-42" cx="146.8" cy="181.15" r="1.68"/><circle class="cls-42" cx="146.8" cy="190.71" r="1.68"/><path class="cls-38" d="M161.41,76.97h-24.15s0-7.48,0-7.48c0,0,3.45-3.91,11.98-3.7,8.53.21,12.18,3.7,12.18,3.7v7.48Z"/><path class="cls-38" d="M149.96,126.42h0c14.12.15,26.04-11.37,27.5-26.59l4.83-50.42c.05-4.37-3.18-7.94-7.21-7.98l-48.37-.53c-4.03-.04-7.34,3.46-7.38,7.83l3.73,50.51c1.13,15.24,12.79,27.03,26.91,27.18Z"/><circle class="cls-38" cx="119.28" cy="83.36" r="9.01"/><path class="cls-39" d="M182.07,51.36c2.12-16.54-11.07-31.68-31.15-19.29-20.08,12.39-.19.12-.29.17-6.3,3.87-18.73,6.55-26.19,7.88-3.42.61-5.76,3.68-5.37,7.03l.65,5.58h62.17s.18-1.37.18-1.37Z"/><g class="cls-34"><polygon class="cls-30" points="157.86 113.7 138.71 120.02 138.6 98.12 157.91 108.75 157.86 113.7"/><ellipse class="cls-41" cx="144.13" cy="112.82" rx="3.68" ry="5.12" transform="translate(30.04 255.94) rotate(-89.49)"/><rect class="cls-27" x="140.58" y="112.41" width="18.3" height="3.56" transform="translate(-22.92 39.02) rotate(-13.8)"/></g><path class="cls-2" d="M171.58,77.92c-2.52.09-6.18,1.94-6.76,4.68.38,0,4.52-1.29,8.22,1.06"/><rect class="cls-27" x="141.78" y="68.18" width="14.47" height="24.18" rx="5.09" ry="5.09" transform="translate(-2.54 4.91) rotate(-1.87)"/><rect class="cls-44" x="143.91" y="74.37" width="6.79" height="11.93" rx="2.39" ry="2.39" transform="translate(-2.55 4.86) rotate(-1.87)"/><path class="cls-38" d="M160.47,103.01l-31-14.1,2.98-6.55s5.98-1.42,16.85,3.75,14.15,10.35,14.15,10.35l-2.98,6.55Z"/><path class="cls-41" d="M161.81,98.2l-3.39.52.99-11.48c.07-.84,1.22-1.04,1.57-.27l3.16,6.93c.85,1.85-.32,4-2.33,4.31Z"/><circle class="cls-38" cx="165.09" cy="209.95" r="8.7"/></g><rect class="cls-38" x="84.48" y="136.56" width="8.97" height="19.81" rx="2.81" ry="2.81"/><rect class="cls-38" x="76.08" y="135.22" width="8.97" height="23.73" rx="2.81" ry="2.81" transform="translate(-66.52 227.66) rotate(-90)"/><rect class="cls-38" x="79.14" y="145.93" width="8.97" height="17.62" rx="2.81" ry="2.81" transform="translate(-71.12 238.37) rotate(-90)"/><path class="cls-38" d="M149.96,126.42h0c14.12.15,26.04-11.37,27.5-26.59l4.83-50.42c.05-4.37-3.18-7.94-7.21-7.98l-48.37-.53c-4.03-.04-7.34,3.46-7.38,7.83l3.73,50.51c1.13,15.24,12.79,27.03,26.91,27.18Z"/><circle class="cls-38" cx="119.28" cy="83.36" r="9.01"/><path class="cls-39" d="M182.07,51.36c2.12-16.54-11.07-31.68-31.15-19.29-20.08,12.39-.19.12-.29.17-6.3,3.87-18.73,6.55-26.19,7.88-3.42.61-5.76,3.68-5.37,7.03l.65,5.58h62.17s.18-1.37.18-1.37Z"/><g class="cls-35"><polygon class="cls-30" points="157.86 113.7 138.71 120.02 138.6 98.12 157.91 108.75 157.86 113.7"/><ellipse class="cls-41" cx="144.13" cy="112.82" rx="3.68" ry="5.12" transform="translate(30.04 255.94) rotate(-89.49)"/><rect class="cls-27" x="140.58" y="112.41" width="18.3" height="3.56" transform="translate(-22.92 39.02) rotate(-13.8)"/></g><path class="cls-2" d="M171.58,77.92c-2.52.09-6.18,1.94-6.76,4.68.38,0,4.52-1.29,8.22,1.06"/><circle class="cls-27" cx="147.3" cy="82.44" r="7.09"/><circle class="cls-28" cx="145.83" cy="82.6" r="3.52"/><path class="cls-38" d="M160.47,103.01l-31-14.1,2.98-6.55s5.98-1.42,16.85,3.75,14.15,10.35,14.15,10.35l-2.98,6.55Z"/><path class="cls-41" d="M161.81,98.2l-3.39.52.99-11.48c.07-.84,1.22-1.04,1.57-.27l3.16,6.93c.85,1.85-.32,4-2.33,4.31Z"/><path class="cls-38" d="M161.41,79.97h-24.15s0-7.48,0-7.48c0,0,3.45-3.91,11.98-3.7,8.53.21,12.18,3.7,12.18,3.7v7.48Z"/><rect class="cls-20" x="94.42" y="144.99" width="19.72" height="37.98" rx="9.86" ry="9.86" transform="translate(-88.89 185.19) rotate(-63.81)"/><rect class="cls-29" x="224.8" y="33.57" width="31.73" height="31.73" rx="5.11" ry="5.11" transform="translate(21.86 -62.32) rotate(15.45)"/><path class="cls-32" d="M245.94,46.86l-3.75-1.04-3.75-1.04c-2.07-.57-3.29-2.71-2.71-4.79h0c.57-2.07,2.71-3.29,4.79-2.71l3.75,1.04,3.75,1.04c2.07.57,3.29,2.71,2.71,4.79h0c-.57,2.07-2.71,3.29-4.79,2.71Z"/><path class="cls-43" d="M242.19,45.82l-3.75-1.04c-2.07-.57-3.29-2.71-2.71-4.79h0c.57-2.07,2.71-3.29,4.79-2.71l3.75,1.04"/><path class="cls-19" d="M240.12,53.32l-3.75-1.04c-2.07-.57-3.29-2.71-2.71-4.79h0c.57-2.07,2.71-3.29,4.79-2.71l3.75,1.04"/><circle class="cls-37" cx="244.91" cy="50.61" r="3.89"/><path class="cls-21" d="M240.12,53.32l-1.04,3.75c-.57,2.07-2.71,3.29-4.79,2.71h0c-2.07-.57-3.29-2.71-2.71-4.79h0c.57-2.07,2.71-3.29,4.79-2.71l3.75,1.04"/><rect class="cls-10" x="208.43" y="58.09" width="10.56" height="10.56" rx="2.14" ry="2.14" transform="translate(-9.01 72.41) rotate(-18.84)"/><rect class="cls-14" x="221.48" y="70.05" width="7.11" height="7.11" rx="1.3" ry="1.3" transform="translate(-4.16 14.22) rotate(-3.59)"/><rect class="cls-40" x="46.11" y="31.85" width="31.73" height="31.73" rx="5.11" ry="5.11" transform="translate(-6.92 10.69) rotate(-9.34)"/><text class="cls-33" transform="translate(53.16 56.92) rotate(-9.34)"><tspan x="0" y="0">Ai</tspan></text><rect class="cls-11" x="65.93" y="66.47" width="10.56" height="10.56" rx="2.14" ry="2.14" transform="translate(-19.36 26.84) rotate(-18.84)"/><rect class="cls-15" x="55.97" y="76.21" width="7.11" height="7.11" rx="1.3" ry="1.3" transform="translate(-4.87 3.88) rotate(-3.59)"/><rect class="cls-9" x="27.07" y="167.26" width="10.56" height="10.56" rx="2.14" ry="2.14" transform="translate(-53.99 19.69) rotate(-18.84)"/><rect class="cls-13" x="11.33" y="175.52" width="7.11" height="7.11" rx="1.3" ry="1.3" transform="translate(-11.17 1.28) rotate(-3.59)"/><rect class="cls-8" x="91.25" y="235.38" width="10.56" height="10.56" rx="2.14" ry="2.14" transform="translate(-126.97 109.21) rotate(-37.68)"/><rect class="cls-12" x="84.51" y="248.45" width="7.11" height="7.11" rx="1.3" ry="1.3" transform="translate(-89.48 52.66) rotate(-22.43)"/><rect class="cls-5" x="222.63" y="247.8" width="10.56" height="10.56" rx="2.14" ry="2.14" transform="translate(-112.03 273.8) rotate(-51.48)"/><rect class="cls-6" x="211.26" y="242.23" width="7.11" height="7.11" rx="1.3" ry="1.3" transform="translate(-103.73 174.48) rotate(-36.23)"/><rect class="cls-10" x="261.2" y="160.01" width="10.56" height="10.56" rx="2.14" ry="2.14" transform="translate(379.65 457.74) rotate(-142.96)"/><rect class="cls-14" x="255.98" y="175.01" width="7.11" height="7.11" rx="1.3" ry="1.3" transform="translate(277.01 493.11) rotate(-127.71)"/><polygon class="cls-29" points="277.02 154.71 261.88 153.69 250.52 163.75 251.38 122.9 277.02 154.71"/><rect class="cls-18" x="14.6" y="122.94" width="26.25" height="26.25" rx="4.19" ry="4.19" transform="translate(17.85 -2.45) rotate(7.44)"/><rect class="cls-26" x="26.17" y="135.7" width="26.25" height="26.25" rx="4.19" ry="4.19" transform="translate(19.61 -3.84) rotate(7.44)"/><rect class="cls-4" x="52.09" y="216.92" width="29.67" height="29.67" transform="translate(-58.72 25.84) rotate(-15.28)"/><line class="cls-23" x1="81.31" y1="227.72" x2="85.94" y2="226.46"/><rect class="cls-23" x="75.92" y="212.16" width="2.82" height="2.82" rx=".62" ry=".62" transform="translate(-53.56 27.94) rotate(-15.28)"/><rect class="cls-23" x="47.3" y="219.95" width="2.82" height="2.82" rx=".62" ry=".62" transform="translate(-56.62 20.67) rotate(-15.28)"/><rect class="cls-23" x="55.28" y="248.86" width="2.82" height="2.82" rx=".62" ry=".62" transform="translate(-63.96 23.79) rotate(-15.28)"/><rect class="cls-23" x="83.74" y="240.75" width="2.82" height="2.82" rx=".62" ry=".62" transform="translate(-60.82 31.01) rotate(-15.28)"/><circle class="cls-23" cx="86.58" cy="226.28" r="1.52"/><circle class="cls-3" cx="66.82" cy="231.8" r="14.82"/><rect class="cls-42" x="217.28" y="215.84" width="12.31" height="12.31" rx="2.52" ry="2.52" transform="translate(-46.51 59.72) rotate(-13.8)"/><rect class="cls-22" x="231.43" y="212.37" width="12.31" height="12.31" rx="2.52" ry="2.52" transform="translate(-45.27 62.99) rotate(-13.8)"/><rect class="cls-16" x="245.59" y="208.89" width="12.31" height="12.31" rx="2.52" ry="2.52" transform="translate(-44.03 66.27) rotate(-13.8)"/><rect class="cls-7" x="220.84" y="230.3" width="12.31" height="12.31" rx="2.52" ry="2.52" transform="translate(-49.86 60.98) rotate(-13.8)"/><rect class="cls-31" x="234.99" y="226.83" width="12.31" height="12.31" rx="2.52" ry="2.52" transform="translate(-48.62 64.26) rotate(-13.8)"/><rect class="cls-17" x="249.14" y="223.35" width="12.31" height="12.31" rx="2.52" ry="2.52" transform="translate(-47.38 67.53) rotate(-13.8)"/><path class="cls-25" d="M236.62,217.47c-.31.92.19,1.92,1.11,2.23s1.92-.19,2.23-1.11c.19-.58.07-1.18-.27-1.63l.73.25,3.58-10.64-3.21-1.08-3.58,10.64.61.21c-.54.15-1.01.56-1.2,1.14Z"/><path class="cls-24" d="M245.19,206.08h0c.15-.44-.09-.92-.53-1.06l-.06-.02.75-2.23c.29-.87-.08-1.86-.92-2.24-.96-.43-2.06.07-2.39,1.04l-.78,2.31-.18-.06c-.44-.15-.92.09-1.06.53h0c-.15.44.09.92.53,1.06l3.58,1.21c.44.15.92-.09,1.06-.53Z"/></svg>