<?xml version="1.0" encoding="UTF-8"?><svg id="Layer_1" xmlns="http://www.w3.org/2000/svg" xmlns:xlink="http://www.w3.org/1999/xlink" viewBox="0 0 292.86 268.72"><defs><clipPath id="clippath"><circle cx="148.85" cy="133.9" r="86.34" fill="none"/></clipPath><clipPath id="clippath-1"><path d="M157.95,104.05s-9.51,2.5-11.04,2.93c-1.53.43-4.8.25-4.58-8.2.23-8.45,3.39-8.69,4.72-7.97.58.31,2.4,3.13,4.82,4.43,3.12,1.67,6.9,1.86,6.9,1.86,1.23.66,2,1.95,1.98,3.35h0c-.02,1.7-1.16,3.17-2.8,3.61Z" fill="none"/></clipPath><clipPath id="clippath-2"><path d="M157.95,104.05s-9.51,2.5-11.04,2.93c-1.53.43-4.8.25-4.58-8.2.23-8.45,3.39-8.69,4.72-7.97.58.31,2.4,3.13,4.82,4.43,3.12,1.67,6.9,1.86,6.9,1.86,1.23.66,2,1.95,1.98,3.35h0c-.02,1.7-1.16,3.17-2.8,3.61Z" fill="none"/></clipPath></defs><g clip-path="url(#clippath)"><circle cx="148.85" cy="133.9" r="86.34" fill="#ef483d"/><path d="M118.15,270.83l26.45-58.06c2.45-5.37.55-11.49-4.23-13.66h0c-4.78-2.18-10.64.41-13.09,5.78l-26.45,58.06c-2.46,5.39-.53,11.54,4.29,13.69h0c4.78,2.13,10.6-.46,13.03-5.8Z" fill="#cd9965"/><path d="M199.16,252.45l-37.09-51.9c-3.43-4.8-9.68-6.21-13.95-3.16h0c-4.28,3.06-4.96,9.42-1.53,14.22l37.09,51.9c3.45,4.82,9.73,6.22,14,3.12h0c4.23-3.07,4.89-9.41,1.48-14.19Z" fill="#cd9965"/><path d="M93.43,331.85l23.95-59.13c2.21-5.47.06-11.5-4.81-13.47h0c-4.87-1.97-10.61.86-12.83,6.33l-23.95,59.13c-2.22,5.49-.04,11.55,4.87,13.5h0c4.86,1.93,10.57-.91,12.77-6.35Z" fill="#cd9965"/><path d="M187.64,323.15l13.21-62.41c1.22-5.77-1.96-11.33-7.1-12.42h0c-5.14-1.09-10.3,2.71-11.52,8.48l-13.21,62.41c-1.23,5.8,1.99,11.38,7.16,12.43h0c5.12,1.04,10.24-2.75,11.46-8.49Z" fill="#cd9965"/><rect x="145.14" y="108.15" width="13.45" height="23" rx="3.63" ry="3.63" transform="translate(275.66 268.15) rotate(-168.05)" fill="#ffc5b4"/><circle cx="145.61" cy="208.26" r="17.79" fill="#cd9965"/><path d="M131.14,206.31l25.31-.21c3.52-.03,6.45-3.02,6.81-6.95l5.4-59.27c.64-6.39-1.67-12.4-4.76-12.4h-38.55c-3.09,0-5.4,6.01-4.76,12.4l5.79,58.25c.47,4.76,2.46,8.17,4.76,8.17Z" fill="#ed908e"/><rect x="112.33" y="127.01" width="22.01" height="46.33" rx="10.51" ry="10.51" transform="translate(44.45 -27.43) rotate(15.45)" fill="#ed908e"/><rect x="165.96" y="123.79" width="22.01" height="67.76" rx="10.51" ry="10.51" transform="translate(-57.57 123.46) rotate(-33.4)" fill="#ed908e"/><rect x="126.71" y="201.21" width="37.42" height="5.84" transform="translate(2.23 -1.57) rotate(.62)" fill="#7c4a1a"/><rect x="146.19" y="201.21" width="7.13" height="5.84" transform="translate(2.23 -1.62) rotate(.62)" fill="#c8c8c8"/><rect x="158.52" y="201.33" width="2.04" height="5.84" transform="translate(2.23 -1.72) rotate(.62)" fill="#cd9965"/><rect x="137.38" y="201.09" width="2.04" height="5.84" transform="translate(2.23 -1.49) rotate(.62)" fill="#cd9965"/><rect x="175.35" y="165.65" width="18.67" height="38.9" rx="9.33" ry="9.33" transform="translate(197.61 446.26) rotate(-137.9)" fill="#ed908e"/><rect x="139.11" y="122.81" width="22.05" height="9.08" rx="4.54" ry="4.54" fill="#ed908e"/><circle cx="149.22" cy="143.6" r="1.74" fill="#ef483d"/><circle cx="149.22" cy="153.53" r="1.74" fill="#ef483d"/><circle cx="149.22" cy="163.46" r="1.74" fill="#ef483d"/><circle cx="149.22" cy="173.39" r="1.74" fill="#ef483d"/><circle cx="149.22" cy="183.32" r="1.74" fill="#ef483d"/><path d="M164.41,65.16h-25.09s0-7.77,0-7.77c0,0,3.58-4.06,12.44-3.85s12.65,3.85,12.65,3.85v7.77Z" fill="#ffc5b4"/><path d="M152.51,116.53h0c14.67.16,27.06-11.82,28.57-27.62l5.02-52.38c.05-4.54-3.31-8.25-7.49-8.3l-50.26-.55c-4.19-.05-7.62,3.59-7.67,8.13l3.87,52.47c1.17,15.84,13.29,28.08,27.96,28.24Z" fill="#ffc5b4"/><circle cx="120.64" cy="71.8" r="9.36" fill="#ffc5b4"/><path d="M185.87,38.55c2.2-17.19-11.5-32.91-32.37-20.04-20.86,12.87-.2.12-.3.18-6.54,4.02-19.46,6.8-27.21,8.19-3.55.64-5.98,3.82-5.58,7.3l.68,5.79h64.59s.18-1.42.18-1.42Z" fill="#cd9965"/><g clip-path="url(#clippath-1)"><polygon points="160.72 103.32 140.82 109.88 140.7 87.13 160.77 98.17 160.72 103.32" fill="#bc2f36"/><ellipse cx="146.45" cy="102.4" rx="3.82" ry="5.32" transform="translate(42.76 247.94) rotate(-89.49)" fill="#e8896d"/><rect x="142.76" y="101.98" width="19.01" height="3.7" transform="translate(-20.37 39.32) rotate(-13.8)" fill="#fff"/></g><path d="M174.98,66.14c-2.62.1-6.42,2.02-7.02,4.87.39,0,4.7-1.34,8.54,1.1" fill="none" stroke="#e8896d" stroke-linecap="round" stroke-linejoin="round" stroke-width="2.65"/><rect x="144.01" y="56.03" width="15.03" height="25.13" rx="5.29" ry="5.29" transform="translate(-2.16 4.99) rotate(-1.87)" fill="#fff"/><rect x="146.23" y="62.45" width="7.05" height="12.39" rx="2.48" ry="2.48" transform="translate(-2.16 4.93) rotate(-1.87)" fill="#4b4b4b"/><path d="M163.43,92.21l-32.21-14.65,3.1-6.81s6.22-1.47,17.5,3.89c11.29,5.36,14.7,10.76,14.7,10.76l-3.1,6.81Z" fill="#ffc5b4"/><path d="M164.82,87.21l-3.52.54,1.03-11.93c.08-.88,1.27-1.08,1.63-.28l3.28,7.2c.88,1.93-.33,4.16-2.42,4.48Z" fill="#e8896d"/><circle cx="168.23" cy="203.31" r="9.04" fill="#ffc5b4"/></g><rect x="84.48" y="127.06" width="9.32" height="20.58" rx="2.92" ry="2.92" fill="#ffc5b4"/><rect x="75.76" y="125.68" width="9.32" height="24.65" rx="2.92" ry="2.92" transform="translate(-57.58 218.42) rotate(-90)" fill="#ffc5b4"/><rect x="78.93" y="136.8" width="9.32" height="18.31" rx="2.92" ry="2.92" transform="translate(-62.36 229.55) rotate(-90)" fill="#ffc5b4"/><path d="M152.51,116.53h0c14.67.16,27.06-11.82,28.57-27.62l5.02-52.38c.05-4.54-3.31-8.25-7.49-8.3l-50.26-.55c-4.19-.05-7.62,3.59-7.67,8.13l3.87,52.47c1.17,15.84,13.29,28.08,27.96,28.24Z" fill="#ffc5b4"/><circle cx="120.64" cy="71.8" r="9.36" fill="#ffc5b4"/><path d="M185.87,38.55c2.2-17.19-11.5-32.91-32.37-20.04-20.86,12.87-.2.12-.3.18-6.54,4.02-19.46,6.8-27.21,8.19-3.55.64-5.98,3.82-5.58,7.3l.68,5.79h64.59s.18-1.42.18-1.42Z" fill="#cd9965"/><g clip-path="url(#clippath-2)"><polygon points="160.72 103.32 140.82 109.88 140.7 87.13 160.77 98.17 160.72 103.32" fill="#bc2f36"/><ellipse cx="146.45" cy="102.4" rx="3.82" ry="5.32" transform="translate(42.76 247.94) rotate(-89.49)" fill="#e8896d"/><rect x="142.76" y="101.98" width="19.01" height="3.7" transform="translate(-20.37 39.32) rotate(-13.8)" fill="#fff"/></g><path d="M174.98,66.14c-2.62.1-6.42,2.02-7.02,4.87.39,0,4.7-1.34,8.54,1.1" fill="none" stroke="#e8896d" stroke-linecap="round" stroke-linejoin="round" stroke-width="2.65"/><circle cx="149.75" cy="70.84" r="7.36" fill="#fff"/><circle cx="148.22" cy="71.01" r="3.65" fill="#3d3d3d"/><path d="M163.43,92.21l-32.21-14.65,3.1-6.81s6.22-1.47,17.5,3.89c11.29,5.36,14.7,10.76,14.7,10.76l-3.1,6.81Z" fill="#ffc5b4"/><path d="M164.82,87.21l-3.52.54,1.03-11.93c.08-.88,1.27-1.08,1.63-.28l3.28,7.2c.88,1.93-.33,4.16-2.42,4.48Z" fill="#e8896d"/><path d="M164.41,68.28h-25.09s0-7.77,0-7.77c0,0,3.58-4.06,12.44-3.85,8.86.22,12.65,3.85,12.65,3.85v7.77Z" fill="#ffc5b4"/><rect x="94.81" y="135.82" width="20.49" height="39.46" rx="10.24" ry="10.24" transform="translate(-80.89 181.18) rotate(-63.81)" fill="#ed908e"/><rect x="230.27" y="20.07" width="32.96" height="32.96" rx="5.31" ry="5.31" transform="translate(18.65 -64.4) rotate(15.45)" fill="#1a1a1a"/><path d="M252.23,33.88l-3.9-1.08-3.9-1.08c-2.15-.59-3.41-2.82-2.82-4.97h0c.59-2.15,2.82-3.41,4.97-2.82l3.9,1.08,3.9,1.08c2.15.59,3.41,2.82,2.82,4.97h0c-.59,2.15-2.82,3.41-4.97,2.82Z" fill="#fe9526"/><path d="M248.33,32.8l-3.9-1.08c-2.15-.59-3.41-2.82-2.82-4.97h0c.59-2.15,2.82-3.41,4.97-2.82l3.9,1.08" fill="#fd3d39"/><path d="M246.18,40.59l-3.9-1.08c-2.15-.59-3.41-2.82-2.82-4.97h0c.59-2.15,2.82-3.41,4.97-2.82l3.9,1.08" fill="#595bd4"/><circle cx="251.15" cy="37.77" r="4.04" fill="#3cabdb"/><path d="M246.18,40.59l-1.08,3.9c-.59,2.15-2.82,3.41-4.97,2.82h0c-2.15-.59-3.41-2.82-2.82-4.97h0c.59-2.15,2.82-3.41,4.97-2.82l3.9,1.08" fill="#53d86a"/><rect x="213.26" y="45.54" width="10.97" height="10.97" rx="2.22" ry="2.22" transform="translate(-4.76 73.38) rotate(-18.84)" fill="#1a1a1a" opacity=".5"/><rect x="226.81" y="57.97" width="7.38" height="7.38" rx="1.35" ry="1.35" transform="translate(-3.41 14.54) rotate(-3.59)" fill="#1a1a1a" opacity=".2"/><rect x="44.62" y="18.28" width="32.96" height="32.96" rx="5.31" ry="5.31" transform="translate(-4.83 10.38) rotate(-9.34)" fill="#301805"/><path d="M53.74,44.2c-.33.06-.62.02-.84-.1-.23-.12-.38-.31-.47-.56-.08-.25-.08-.55,0-.89l3.51-13.16c.12-.43.29-.76.52-.98.23-.22.51-.35.85-.41.32-.05.62-.01.91.12.29.13.55.39.8.76l7.56,11.33c.21.3.31.58.31.85,0,.27-.08.5-.25.68-.17.18-.42.29-.74.35-.39.06-.71.02-.96-.13-.25-.15-.49-.41-.72-.77l-1.88-2.94,1.25.55-8.83,1.45,1.01-.92-.82,3.38c-.12.43-.25.76-.42.97-.17.21-.43.35-.79.41ZM57.77,31.19l-1.78,7.45-.65-.58,6.99-1.15-.41.76-4.1-6.49h-.04Z" fill="#fe9526"/><path d="M68.16,28.99c-.49.08-.89.02-1.2-.18-.31-.2-.5-.52-.58-.95-.07-.45,0-.81.24-1.09.23-.28.59-.46,1.08-.54.5-.08.91-.03,1.21.17.3.19.49.51.57.96.07.43,0,.79-.23,1.08-.23.29-.59.47-1.09.56ZM70.21,41.46c-.42.07-.76,0-1.02-.22-.26-.21-.43-.54-.51-.99l-1.26-7.68c-.08-.46-.02-.83.16-1.11.18-.28.48-.46.9-.52.42-.07.76,0,1.04.21.27.21.44.54.52,1l1.26,7.68c.07.45.02.81-.16,1.1-.18.29-.49.47-.92.54Z" fill="#fe9526"/><rect x="65.21" y="54.25" width="10.97" height="10.97" rx="2.22" ry="2.22" transform="translate(-15.5 26.03) rotate(-18.84)" fill="#301805" opacity=".5"/><rect x="54.87" y="64.37" width="7.38" height="7.38" rx="1.35" ry="1.35" transform="translate(-4.14 3.8) rotate(-3.59)" fill="#301805" opacity=".2"/><rect x="24.84" y="158.96" width="10.97" height="10.97" rx="2.22" ry="2.22" transform="translate(-51.48 18.6) rotate(-18.84)" fill="#156fc6" opacity=".5"/><rect x="8.49" y="167.54" width="7.38" height="7.38" rx="1.35" ry="1.35" transform="translate(-10.69 1.1) rotate(-3.59)" fill="#156fc6" opacity=".2"/><rect x="91.52" y="229.73" width="10.97" height="10.97" rx="2.22" ry="2.22" transform="translate(-123.55 108.36) rotate(-37.68)" fill="#8f3aba" opacity=".5"/><rect x="84.52" y="243.31" width="7.38" height="7.38" rx="1.35" ry="1.35" transform="translate(-87.56 52.34) rotate(-22.43)" fill="#8f3aba" opacity=".2"/><rect x="228.01" y="242.63" width="10.97" height="10.97" rx="2.22" ry="2.22" transform="translate(-106.04 276.3) rotate(-51.48)" fill="#a6c43f" opacity=".5"/><rect x="216.2" y="236.85" width="7.38" height="7.38" rx="1.35" ry="1.35" transform="translate(-99.65 176.47) rotate(-36.23)" fill="#a6c43f" opacity=".2"/><rect x="268.08" y="151.43" width="10.97" height="10.97" rx="2.22" ry="2.22" transform="translate(397.43 446.94) rotate(-142.96)" fill="#1a1a1a" opacity=".5"/><rect x="262.65" y="167.01" width="7.38" height="7.38" rx="1.35" ry="1.35" transform="translate(294.21 485.83) rotate(-127.71)" fill="#1a1a1a" opacity=".2"/><polygon points="284.52 145.92 268.79 144.86 256.99 155.32 257.87 112.88 284.52 145.92" fill="#1a1a1a"/><rect x="11.89" y="112.91" width="27.27" height="27.27" rx="4.35" ry="4.35" transform="translate(16.6 -2.24) rotate(7.44)" fill="#156fc6"/><rect x="23.91" y="126.17" width="27.27" height="27.27" rx="4.35" ry="4.35" transform="translate(18.42 -3.68) rotate(7.44)" fill="#fff" stroke="#156fc6" stroke-miterlimit="10" stroke-width="1.04"/><rect x="50.83" y="210.56" width="30.82" height="30.82" transform="translate(-57.22 25.45) rotate(-15.28)" fill="none" stroke="#c491e2" stroke-miterlimit="10" stroke-width="1.04"/><line x1="81.19" y1="221.78" x2="86" y2="220.46" fill="#fff" stroke="#c491e2" stroke-miterlimit="10" stroke-width="1.04"/><rect x="75.6" y="205.6" width="2.92" height="2.92" rx=".64" ry=".64" transform="translate(-51.85 27.63) rotate(-15.28)" fill="#fff" stroke="#c491e2" stroke-miterlimit="10" stroke-width="1.04"/><rect x="45.85" y="213.7" width="2.92" height="2.92" rx=".64" ry=".64" transform="translate(-55.04 20.08) rotate(-15.28)" fill="#fff" stroke="#c491e2" stroke-miterlimit="10" stroke-width="1.04"/><rect x="54.15" y="243.73" width="2.92" height="2.92" rx=".64" ry=".64" transform="translate(-62.66 23.33) rotate(-15.28)" fill="#fff" stroke="#c491e2" stroke-miterlimit="10" stroke-width="1.04"/><rect x="83.71" y="235.31" width="2.92" height="2.92" rx=".64" ry=".64" transform="translate(-59.4 30.82) rotate(-15.28)" fill="#fff" stroke="#c491e2" stroke-miterlimit="10" stroke-width="1.04"/><circle cx="86.66" cy="220.28" r="1.58" fill="#fff" stroke="#c491e2" stroke-miterlimit="10" stroke-width="1.04"/><circle cx="66.13" cy="226.01" r="15.4" fill="none" stroke="#8f3aba" stroke-miterlimit="10" stroke-width="1.04"/><rect x="222.45" y="209.43" width="12.79" height="12.79" rx="2.61" ry="2.61" transform="translate(-44.88 60.83) rotate(-13.8)" fill="#ef483d"/><rect x="237.16" y="205.82" width="12.79" height="12.79" rx="2.61" ry="2.61" transform="translate(-43.6 64.23) rotate(-13.8)" fill="#fdbc45"/><rect x="251.86" y="202.21" width="12.79" height="12.79" rx="2.61" ry="2.61" transform="translate(-42.31 67.63) rotate(-13.8)" fill="#f8db75"/><rect x="226.14" y="224.46" width="12.79" height="12.79" rx="2.61" ry="2.61" transform="translate(-48.36 62.14) rotate(-13.8)" fill="#a6c43f"/><rect x="240.85" y="220.84" width="12.79" height="12.79" rx="2.61" ry="2.61" transform="translate(-47.07 65.54) rotate(-13.8)" fill="#1471c5"/><rect x="255.55" y="217.23" width="12.79" height="12.79" rx="2.61" ry="2.61" transform="translate(-45.79 68.95) rotate(-13.8)" fill="#8f3aba"/><path d="M242.54,211.13c-.32.96.19,1.99,1.15,2.32s1.99-.19,2.32-1.15c.2-.6.08-1.23-.28-1.69l.76.26,3.72-11.06-3.34-1.12-3.72,11.06.63.21c-.57.16-1.05.58-1.25,1.18Z" fill="#fff" stroke="#000" stroke-miterlimit="10" stroke-width=".52"/><path d="M251.44,199.29h0c.15-.46-.09-.95-.55-1.1l-.07-.02.78-2.32c.3-.91-.09-1.94-.96-2.33-1-.45-2.14.07-2.48,1.09l-.81,2.4-.19-.06c-.46-.15-.95.09-1.1.55h0c-.15.46.09.95.55,1.1l3.72,1.25c.46.15.95-.09,1.1-.55Z" stroke="#000" stroke-miterlimit="10" stroke-width=".52"/></svg>