<?xml version="1.0" encoding="UTF-8"?><svg id="Layer_1" xmlns="http://www.w3.org/2000/svg" xmlns:xlink="http://www.w3.org/1999/xlink" viewBox="0 0 239.27 239.27"><defs><style>.cls-1,.cls-2{fill:none;}.cls-3{fill:#ed908e;}.cls-4{fill:#3d3d3d;}.cls-2{stroke:#e8896d;stroke-linecap:round;stroke-linejoin:round;stroke-width:2.55px;}.cls-5{fill:#bc2f36;}.cls-6{clip-path:url(#clippath-1);}.cls-7{clip-path:url(#clippath-2);}.cls-8{fill:#7c4a1a;}.cls-9{fill:#ffc5b4;}.cls-10{fill:#fff;}.cls-11{fill:#cd9965;}.cls-12{opacity:.15;}.cls-13{fill:#e8896d;}.cls-14{fill:#ef483d;}.cls-15{fill:#4b4b4b;}.cls-16{fill:#c8c8c8;}.cls-17{clip-path:url(#clippath);}</style><clipPath id="clippath"><circle class="cls-1" cx="122.39" cy="135.59" r="83.1"/></clipPath><clipPath id="clippath-1"><path class="cls-1" d="M131.15,106.87s-9.15,2.4-10.63,2.82-4.62.24-4.41-7.9c.22-8.14,3.26-8.36,4.54-7.67.56.3,2.31,3.02,4.64,4.27,3,1.61,6.64,1.79,6.64,1.79,1.19.64,1.92,1.88,1.91,3.22h0c-.01,1.63-1.12,3.05-2.7,3.47Z"/></clipPath><clipPath id="clippath-2"><path class="cls-1" d="M131.15,106.87s-9.15,2.4-10.63,2.82-4.62.24-4.41-7.9c.22-8.14,3.26-8.36,4.54-7.67.56.3,2.31,3.02,4.64,4.27,3,1.61,6.64,1.79,6.64,1.79,1.19.64,1.92,1.88,1.91,3.22h0c-.01,1.63-1.12,3.05-2.7,3.47Z"/></clipPath></defs><g class="cls-17"><circle class="cls-12" cx="122.39" cy="135.59" r="83.1"/><rect class="cls-9" x="52.42" y="138.44" width="10.2" height="21.1" transform="translate(-96.97 108.51) rotate(-54.21)"/><rect class="cls-9" x="47.03" y="127.64" width="8.97" height="19.81" rx="2.81" ry="2.81"/><rect class="cls-9" x="38.64" y="126.3" width="8.97" height="23.73" rx="2.81" ry="2.81" transform="translate(-95.05 181.29) rotate(-90)"/><rect class="cls-9" x="41.69" y="137.01" width="8.97" height="17.62" rx="2.81" ry="2.81" transform="translate(-99.65 192) rotate(-90)"/><path class="cls-11" d="M92.84,267.4l25.46-55.88c2.35-5.17.53-11.06-4.07-13.15h0c-4.6-2.1-10.24.39-12.6,5.56l-25.46,55.88c-2.36,5.19-.51,11.11,4.13,13.18h0c4.6,2.05,10.2-.44,12.54-5.59Z"/><path class="cls-11" d="M170.81,249.71l-35.7-49.96c-3.3-4.62-9.31-5.98-13.43-3.04h0c-4.12,2.94-4.77,9.07-1.47,13.69l35.7,49.96c3.32,4.64,9.37,5.99,13.48,3h0c4.07-2.96,4.71-9.06,1.42-13.65Z"/><rect class="cls-9" x="118.82" y="110.81" width="12.94" height="22.14" rx="3.49" ry="3.49" transform="translate(222.63 267.06) rotate(-168.05)"/><circle class="cls-11" cx="119.27" cy="207.17" r="17.12"/><path class="cls-3" d="M105.34,205.3l24.36-.2c3.39-.03,6.21-2.91,6.55-6.69l5.2-57.05c.61-6.15-1.61-11.93-4.59-11.93h-37.1c-2.98,0-5.2,5.78-4.59,11.93l5.58,56.07c.46,4.58,2.37,7.86,4.59,7.86Z"/><rect class="cls-3" x="86.6" y="128.87" width="21.19" height="49.44" rx="10.12" ry="10.12" transform="translate(44.42 -20.34) rotate(15.45)"/><rect class="cls-3" x="138.86" y="125.86" width="21.19" height="65.22" rx="10.12" ry="10.12" transform="translate(-62.55 108.44) rotate(-33.4)"/><rect class="cls-8" x="101.08" y="200.39" width="36.02" height="5.62" transform="translate(2.22 -1.28) rotate(.62)"/><rect class="cls-16" x="119.83" y="200.39" width="6.86" height="5.62" transform="translate(2.22 -1.33) rotate(.62)"/><rect class="cls-11" x="131.7" y="200.51" width="1.96" height="5.62" transform="translate(2.22 -1.43) rotate(.62)"/><rect class="cls-11" x="111.35" y="200.27" width="1.96" height="5.62" transform="translate(2.22 -1.21) rotate(.62)"/><rect class="cls-3" x="147.9" y="166.16" width="17.97" height="37.45" rx="8.98" ry="8.98" transform="translate(149.33 427.23) rotate(-137.9)"/><rect class="cls-3" x="113.01" y="124.92" width="21.22" height="8.74" rx="4.37" ry="4.37"/><circle class="cls-14" cx="122.75" cy="144.93" r="1.68"/><circle class="cls-14" cx="122.75" cy="154.49" r="1.68"/><circle class="cls-14" cx="122.75" cy="164.05" r="1.68"/><circle class="cls-14" cx="122.75" cy="173.61" r="1.68"/><circle class="cls-14" cx="122.75" cy="183.17" r="1.68"/><path class="cls-9" d="M137.37,69.43h-24.15s0-7.48,0-7.48c0,0,3.45-3.91,11.98-3.7,8.53.21,12.18,3.7,12.18,3.7v7.48Z"/><path class="cls-9" d="M125.91,118.88h0c14.12.15,26.04-11.37,27.5-26.59l4.83-50.42c.05-4.37-3.18-7.94-7.21-7.98l-48.37-.53c-4.03-.04-7.34,3.46-7.38,7.83l3.73,50.51c1.13,15.24,12.79,27.03,26.91,27.18Z"/><circle class="cls-9" cx="95.23" cy="75.82" r="9.01"/><path class="cls-11" d="M158.02,43.82c2.12-16.54-11.07-31.68-31.15-19.29-20.08,12.39-.19.12-.29.17-6.3,3.87-18.73,6.55-26.19,7.88-3.42.61-5.76,3.68-5.37,7.03l.65,5.58h62.17s.18-1.37.18-1.37Z"/><g class="cls-6"><polygon class="cls-5" points="133.82 106.16 114.66 112.48 114.55 90.58 133.86 101.21 133.82 106.16"/><ellipse class="cls-13" cx="120.08" cy="105.28" rx="3.68" ry="5.12" transform="translate(13.74 224.42) rotate(-89.49)"/><rect class="cls-10" x="116.53" y="104.87" width="18.3" height="3.56" transform="translate(-21.81 33.06) rotate(-13.8)"/></g><path class="cls-2" d="M147.54,70.38c-2.52.09-6.18,1.94-6.76,4.68.38,0,4.52-1.29,8.22,1.06"/><rect class="cls-10" x="117.73" y="60.64" width="14.47" height="24.18" rx="5.09" ry="5.09" transform="translate(-2.31 4.12) rotate(-1.87)"/><rect class="cls-15" x="119.86" y="66.83" width="6.79" height="11.93" rx="2.39" ry="2.39" transform="translate(-2.31 4.07) rotate(-1.87)"/><path class="cls-9" d="M136.43,95.47l-31-14.1,2.98-6.55s5.98-1.42,16.85,3.75,14.15,10.35,14.15,10.35l-2.98,6.55Z"/><path class="cls-13" d="M137.76,90.66l-3.39.52.99-11.48c.07-.84,1.22-1.04,1.57-.27l3.16,6.93c.85,1.85-.32,4-2.33,4.31Z"/><circle class="cls-9" cx="141.04" cy="202.41" r="8.7"/></g><rect class="cls-9" x="47.03" y="127.64" width="8.97" height="19.81" rx="2.81" ry="2.81"/><rect class="cls-9" x="38.64" y="126.3" width="8.97" height="23.73" rx="2.81" ry="2.81" transform="translate(-95.05 181.29) rotate(-90)"/><rect class="cls-9" x="41.69" y="137.01" width="8.97" height="17.62" rx="2.81" ry="2.81" transform="translate(-99.65 192) rotate(-90)"/><path class="cls-9" d="M125.91,118.88h0c14.12.15,26.04-11.37,27.5-26.59l4.83-50.42c.05-4.37-3.18-7.94-7.21-7.98l-48.37-.53c-4.03-.04-7.34,3.46-7.38,7.83l3.73,50.51c1.13,15.24,12.79,27.03,26.91,27.18Z"/><circle class="cls-9" cx="95.23" cy="75.82" r="9.01"/><path class="cls-11" d="M158.02,43.82c2.12-16.54-11.07-31.68-31.15-19.29-20.08,12.39-.19.12-.29.17-6.3,3.87-18.73,6.55-26.19,7.88-3.42.61-5.76,3.68-5.37,7.03l.65,5.58h62.17s.18-1.37.18-1.37Z"/><g class="cls-7"><polygon class="cls-5" points="133.82 106.16 114.66 112.48 114.55 90.58 133.86 101.21 133.82 106.16"/><ellipse class="cls-13" cx="120.08" cy="105.28" rx="3.68" ry="5.12" transform="translate(13.74 224.42) rotate(-89.49)"/><rect class="cls-10" x="116.53" y="104.87" width="18.3" height="3.56" transform="translate(-21.81 33.06) rotate(-13.8)"/></g><path class="cls-2" d="M147.54,70.38c-2.52.09-6.18,1.94-6.76,4.68.38,0,4.52-1.29,8.22,1.06"/><circle class="cls-10" cx="123.25" cy="74.9" r="7.09"/><circle class="cls-4" cx="121.79" cy="75.06" r="3.52"/><path class="cls-9" d="M136.43,95.47l-31-14.1,2.98-6.55s5.98-1.42,16.85,3.75,14.15,10.35,14.15,10.35l-2.98,6.55Z"/><path class="cls-13" d="M137.76,90.66l-3.39.52.99-11.48c.07-.84,1.22-1.04,1.57-.27l3.16,6.93c.85,1.85-.32,4-2.33,4.31Z"/><path class="cls-9" d="M137.37,72.43h-24.15s0-7.48,0-7.48c0,0,3.45-3.91,11.98-3.7,8.53.21,12.18,3.7,12.18,3.7v7.48Z"/><rect class="cls-3" x="68.31" y="132.51" width="19.72" height="55.66" rx="9.86" ry="9.86" transform="translate(-100.21 159.72) rotate(-63.81)"/></svg>