<?xml version="1.0" encoding="UTF-8"?><svg id="Layer_1" xmlns="http://www.w3.org/2000/svg" xmlns:xlink="http://www.w3.org/1999/xlink" viewBox="0 0 292 268"><defs><style>.cls-1{fill:#88e119;}.cls-2,.cls-3,.cls-4{fill:none;}.cls-5{fill:#ffcb05;}.cls-6{fill:#ffc100;}.cls-7{fill:#4285f4;}.cls-8{fill:#c5221e;}.cls-9{fill:#777;}.cls-10{fill:#a9d2ed;}.cls-3{stroke:#002548;stroke-width:.06px;}.cls-3,.cls-4,.cls-11{stroke-miterlimit:10;}.cls-12{fill:#002654;}.cls-13{fill:#c1c1c1;}.cls-14,.cls-15,.cls-16{fill:#58cb05;}.cls-17,.cls-18,.cls-19{fill:#00274c;}.cls-20{fill:#0047a0;}.cls-21{fill:#101524;}.cls-22,.cls-23,.cls-24{fill:#ce1126;}.cls-22,.cls-25,.cls-15,.cls-26,.cls-19{opacity:.2;}.cls-23,.cls-27,.cls-16,.cls-28,.cls-18{opacity:.5;}.cls-29{fill:#3d3d3d;}.cls-27,.cls-25,.cls-30{fill:#cd2e3a;}.cls-31{fill:#002548;}.cls-32{fill:#bc2f36;}.cls-33{clip-path:url(#clippath-1);}.cls-34{clip-path:url(#clippath-3);}.cls-35{clip-path:url(#clippath-4);}.cls-36{clip-path:url(#clippath-2);}.cls-37{clip-path:url(#clippath-5);}.cls-38{fill:#b1b7c2;}.cls-39{fill:#7c4a1a;}.cls-40{fill:#fabd05;}.cls-41{fill:#34a852;}.cls-42{fill:#ffc5b4;}.cls-43,.cls-11{fill:#fff;}.cls-44{fill:#cd9965;}.cls-45{fill:#ea4336;}.cls-26,.cls-28,.cls-46{fill:#5837b2;}.cls-47{fill:#ffc500;}.cls-4{stroke:#4b4b4b;stroke-width:2.85px;}.cls-48{opacity:.8;}.cls-49{fill:#00b2fb;}.cls-50{fill:#f38f00;}.cls-51{fill:#e8896d;}.cls-52{fill:#d3eef9;}.cls-53{fill:#122431;}.cls-11{stroke:#c1c1c1;stroke-width:.59px;}.cls-54{fill:#f7114b;}.cls-55{fill:#4b4b4b;}.cls-56{fill:#c8c8c8;}.cls-57{clip-path:url(#clippath);}</style><clipPath id="clippath"><circle class="cls-2" cx="145.18" cy="155.42" r="80.86"/></clipPath><clipPath id="clippath-1"><circle class="cls-47" cx="145.18" cy="155.42" r="80.86"/></clipPath><clipPath id="clippath-2"><path class="cls-2" d="M155.93,63.24c-5.99,1.5-10.16.48-11.71-2.32-1.55-2.8.51-5.59,2.36-5.75,0,0,4.88.34,7.94-1.06s6.3-3.65,6.3-3.65c4.76-2.05,6.1,4.49,5.93,6.63s-4.83,4.66-10.82,6.15Z"/></clipPath><clipPath id="clippath-3"><path class="cls-2" d="M155.93,103.24c-5.99,1.5-10.16.48-11.71-2.32-1.55-2.8.51-5.59,2.36-5.75,0,0,4.88.34,7.94-1.06s6.3-3.65,6.3-3.65c4.76-2.05,6.1,4.49,5.93,6.63s-4.83,4.66-10.82,6.15Z"/></clipPath><clipPath id="clippath-4"><rect class="cls-2" x="208.56" y="42.92" width="41.85" height="29.31" rx="3.84" ry="3.84" transform="translate(47 -93.01) rotate(25.44)"/></clipPath><clipPath id="clippath-5"><path class="cls-2" d="M272.98,160.04l-3.07,1.8-2.83-2.18c-6.57-5.07-10.19-13.07-9.66-21.35l.34-5.33,1.4-.26c8.38-1.57,17.03-1.01,25.14,1.64l1.3.42-.35,5.37c-.53,8.26-5.14,15.72-12.28,19.91Z"/></clipPath></defs><rect class="cls-11" x="32.72" y="45.03" width="45.51" height="31.87" rx="3.84" ry="3.84" transform="translate(-19.58 26.89) rotate(-23.28)"/><path class="cls-30" d="M60.7,60.52c-1.38,1.58-3.77,1.74-5.35.36s-3.97-1.22-5.34.36c-.12.13-.22.27-.31.42-.05.07-.09.14-.14.21-.06.1-.11.21-.17.32,0,.03-.02.05-.02.07-.04.09-.08.18-.1.27-.01.02-.02.05-.02.07-.03.09-.06.18-.08.28,0,.02-.01.04-.01.07-.03.09-.04.19-.06.29-.01.09-.02.19-.02.28,0,.07-.01.15,0,.22,0,.16,0,.33.03.49,0,.07.02.14.03.2.02.1.04.2.07.3.03.11.06.22.1.33.04.11.09.23.14.34.05.12.11.23.18.33.06.11.13.21.21.31s.16.19.24.29c-2.88-2.79-3.11-7.38-.44-10.43s7.55-3.48,10.7-.72c1.58,1.38,1.74,3.78.36,5.35Z"/><path class="cls-20" d="M61.06,65.87c-2.67,3.05-7.25,3.44-10.4.96-.1-.08-.21-.16-.3-.24s-.19-.17-.28-.27c-.09-.1-.17-.19-.24-.29-.08-.1-.15-.21-.21-.31-.07-.11-.13-.21-.18-.33-.05-.11-.1-.22-.14-.34-.04-.11-.08-.22-.1-.33-.03-.1-.05-.2-.07-.3-.01-.07-.03-.13-.03-.2-.02-.16-.03-.33-.03-.49,0-.07,0-.15,0-.22,0-.1.01-.19.02-.28.01-.1.03-.19.06-.29,0-.02,0-.05.01-.07.02-.1.05-.19.08-.28,0-.02,0-.05.02-.07.03-.09.06-.18.1-.27,0-.03.02-.05.02-.07.05-.11.11-.22.17-.32.04-.07.09-.14.14-.21.09-.15.2-.29.31-.42,1.38-1.58,3.77-1.74,5.34-.36s3.98,1.22,5.35-.36,1.22-3.97-.36-5.35c3.16,2.76,3.48,7.55.72,10.71Z"/><rect x="39.69" y="57.96" width="7.84" height="1.33" transform="translate(-21.37 92.03) rotate(-80.56)"/><rect x="37.73" y="57.64" width="7.84" height="1.33" transform="translate(-22.69 89.82) rotate(-80.56)"/><rect x="35.77" y="57.31" width="7.84" height="1.33" transform="translate(-24.01 87.62) rotate(-80.56)"/><rect x="44.88" y="70.07" width="7.84" height="1.33" transform="translate(52.24 156.6) rotate(-147.69)"/><rect x="42.75" y="73.43" width="7.84" height="1.33" transform="translate(46.52 161.66) rotate(-147.69)"/><rect x="48.9" y="71.81" width="1.33" height="3.52" transform="translate(-39.11 76.14) rotate(-57.69)"/><rect x="45.24" y="69.5" width="1.33" height="3.51" transform="translate(-38.85 71.97) rotate(-57.69)"/><rect x="65.87" y="60.27" width="3.52" height="1.33" transform="translate(-3.46 117.79) rotate(-80.67)"/><rect x="65.18" y="64.54" width="3.51" height="1.33" transform="translate(-8.27 120.68) rotate(-80.67)"/><rect x="67.82" y="60.59" width="3.52" height="1.33" transform="translate(-2.15 119.98) rotate(-80.67)"/><rect x="67.12" y="64.87" width="3.51" height="1.33" transform="translate(-6.95 122.87) rotate(-80.67)"/><rect x="69.8" y="60.92" width="3.52" height="1.33" transform="translate(-.82 122.21) rotate(-80.67)"/><rect x="69.1" y="65.2" width="3.51" height="1.33" transform="translate(-5.62 125.09) rotate(-80.67)"/><rect x="59.08" y="48.55" width="7.84" height="1.33" transform="translate(90.1 124.42) rotate(-147.8)"/><rect x="65.26" y="46.89" width="1.34" height="3.55" transform="translate(-10.38 78.52) rotate(-57.8)"/><rect x="61.57" y="44.56" width="1.34" height="3.54" transform="translate(-10.14 74.31) rotate(-57.8)"/><rect x="63.1" y="50.3" width="1.34" height="3.55" transform="translate(-14.28 78.29) rotate(-57.8)"/><rect x="59.41" y="47.98" width="1.34" height="3.54" transform="translate(-14.04 74.08) rotate(-57.8)"/><g class="cls-57"><circle class="cls-47" cx="145.18" cy="155.42" r="80.86"/><g class="cls-33"><circle class="cls-47" cx="145.18" cy="155.42" r="80.86"/></g><rect class="cls-55" x="117.15" y="211.44" width="24.62" height="7.86" rx="3.93" ry="3.93"/><path class="cls-44" d="M178.5,197.2l-14.6-59.79c-1.35-5.53-6.44-9.04-11.36-7.83h0c-4.92,1.2-7.82,6.66-6.47,12.19l14.6,59.79c1.36,5.55,6.48,9.06,11.42,7.82h0c4.89-1.23,7.76-6.67,6.41-12.17Z"/><path class="cls-44" d="M178.97,263.59v-61.54c0-5.69-4.11-10.3-9.18-10.3h0c-5.07,0-9.18,4.61-9.18,10.3v61.54c0,5.72,4.15,10.34,9.24,10.3h0c5.05-.04,9.12-4.64,9.12-10.3Z"/><rect class="cls-42" x="139.89" y="66.75" width="12.97" height="22.18" rx="3.49" ry="3.49" transform="translate(292.5 156.15) rotate(-179.82)"/><path class="cls-42" d="M146.68,72.54h0c14.15,0,25.97-11.68,27.27-26.95l4.29-50.58c0-4.38-3.28-7.92-7.32-7.92h-48.48c-4.04,0-7.32,3.55-7.32,7.92l4.29,50.58c1.29,15.27,13.12,26.95,27.27,26.95Z"/><circle class="cls-42" cx="177.92" cy="29.91" r="9.03"/><circle class="cls-42" cx="115.46" cy="29.72" r="9.03"/><circle class="cls-44" cx="146.68" cy="139.02" r="17.16"/><rect class="cls-52" x="108.98" y="83.89" width="21.23" height="49.89" rx="10.4" ry="10.4" transform="translate(84.32 -48.97) rotate(35.09)"/><rect class="cls-52" x="160.75" y="83.89" width="21.23" height="49.89" rx="10.4" ry="10.4" transform="translate(374.16 99.36) rotate(144.91)"/><rect class="cls-44" x="125.36" y="128.69" width="17.16" height="38.28" rx="8.58" ry="8.58" transform="translate(68.88 -40.74) rotate(23.14)"/><rect class="cls-44" x="120.94" y="150.09" width="17.16" height="50.47" rx="8.58" ry="8.58"/><rect class="cls-9" x="94.29" y="151.92" width="102.77" height="7.35" rx="3.55" ry="3.55"/><rect class="cls-9" x="94.29" y="151.92" width="6.54" height="16.37" rx="3.27" ry="3.27"/><rect class="cls-9" x="141.77" y="151.92" width="6.54" height="70.7" rx="2.3" ry="2.3"/><rect class="cls-9" x="128.49" y="215.76" width="6.54" height="59.05" rx="3.27" ry="3.27"/><rect class="cls-9" x="155.05" y="215.76" width="6.54" height="59.05" rx="3.27" ry="3.27"/><rect class="cls-9" x="190.81" y="151.92" width="6.54" height="16.37" rx="3.27" ry="3.27"/><rect class="cls-9" x="128.49" y="215.76" width="33.11" height="7.93" rx="3.76" ry="3.76"/><rect class="cls-55" x="140.03" y="228.05" width="10.24" height="93.51" rx="3.6" ry="3.6"/><rect class="cls-39" x="117.15" y="191.8" width="24.75" height="17.52" rx="8.76" ry="8.76" transform="translate(259.04 401.13) rotate(-180)"/><rect class="cls-39" x="157.42" y="265.13" width="24.75" height="17.52" rx="6.15" ry="6.15" transform="translate(339.58 547.78) rotate(180)"/><path class="cls-52" d="M164.07,135.18l4.86-40.69c.61-4.06-1.61-7.88-4.6-7.88h-37.18c-2.98,0-5.21,3.82-4.6,7.88l6.29,40.69c.46,3.03,34.88,2.49,35.23,0Z"/><circle class="cls-42" cx="110.22" cy="153.4" r="9.03"/><circle class="cls-42" cx="181.25" cy="155.59" r="9.03"/><rect class="cls-52" x="99.83" y="112.81" width="19.76" height="39.11" rx="9.88" ry="9.88"/><rect class="cls-52" x="171.37" y="112.81" width="19.76" height="39.11" rx="9.88" ry="9.88" transform="translate(362.5 264.72) rotate(-180)"/><rect class="cls-39" x="128.84" y="135.18" width="35.23" height="2.82"/><rect class="cls-56" x="142.27" y="135.18" width="6.95" height="2.82"/><rect class="cls-44" x="155.73" y="135.18" width="1.99" height="2.82"/><rect class="cls-44" x="133.69" y="135.18" width="1.99" height="2.82"/><rect class="cls-43" x="132.25" y="17.42" width="14.5" height="24.24" rx="5.09" ry="5.09" transform="translate(-.27 1.29) rotate(-.53)"/><rect class="cls-55" x="137.34" y="23.09" width="6.8" height="11.96" rx="2.39" ry="2.39" transform="translate(-.26 1.3) rotate(-.53)"/><rect class="cls-43" x="149.31" y="17.27" width="14.5" height="24.24" rx="5.09" ry="5.09" transform="translate(-.26 1.44) rotate(-.53)"/><rect class="cls-55" x="151.55" y="22.96" width="6.8" height="11.96" rx="2.39" ry="2.39" transform="translate(-.26 1.43) rotate(-.53)"/><path class="cls-42" d="M169.93,48.41h-43.23s0-15.85,0-15.85c0,0,15.21.49,21.62,4.13,8.1-6.79,21.62-4.13,21.62-4.13v15.85Z"/><path class="cls-51" d="M148.41,50.69h0c-1.78.02-3.24-1.74-3.26-3.92l1.87-7.08c.29-1.09,1.82-1.14,2.18-.07l2.33,6.89c.05.14.07.29.07.43-.07,2.08-1.46,3.75-3.18,3.76Z"/><g class="cls-36"><path class="cls-32" d="M155.93,63.24c-5.99,1.5-10.16.48-11.71-2.32-1.55-2.8.51-5.59,2.36-5.75,0,0,4.88.34,7.94-1.06s6.3-3.65,6.3-3.65c1.79-1.04,4.16-.45,4.55,1.13,0,0,1.54,3.36,1.38,5.5s-4.83,4.66-10.82,6.15Z"/><rect class="cls-51" x="141.14" y="54.03" width="11.53" height="11.53" rx="4.05" ry="4.05"/><rect class="cls-43" x="141.88" y="49.94" width="25.81" height="7.92"/></g><polygon class="cls-42" points="126.69 6.17 126.69 13.22 147.26 23.36 166.76 14.76 166.76 6.17 126.69 6.17"/><rect class="cls-52" x="135.95" y="81.98" width="19.58" height="9.07" rx="3.19" ry="3.19"/><circle class="cls-10" cx="146.83" cy="99.02" r="1.68"/><circle class="cls-10" cx="146.83" cy="106.92" r="1.47"/><circle class="cls-10" cx="146.83" cy="115.29" r="1.09"/><circle class="cls-10" cx="146.68" cy="122.32" r=".95"/><circle class="cls-10" cx="146.83" cy="129.35" r=".85"/><path class="cls-49" d="M165.83,13.39h0c-.99,0-1.81-.95-1.81-2.18s1.58-5.97,1.58-5.97c0,0,2,4.73,2,5.93s-.78,2.2-1.77,2.21Z"/><path class="cls-49" d="M170.31,19.32h0c-.99,0-1.81-.95-1.81-2.18s1.58-5.97,1.58-5.97c0,0,2,4.73,2,5.93s-.78,2.2-1.77,2.21Z"/><path class="cls-4" d="M115.58.39l3.83,45.21c1.29,15.27,13.12,26.95,27.27,26.95h0c14.15,0,25.97-11.68,27.27-26.95L177.78.39"/><rect class="cls-55" x="141.04" y="71.9" width="10.56" height="4.39" rx="1.54" ry="1.54"/><path class="cls-55" d="M185.79-1.56c0-21.05-17.06-38.11-38.11-38.11S109.56-22.61,109.56-1.56c.15,8.79,76.23,10,76.23,0Z"/><path class="cls-9" d="M171.22-31.52V-11.12c0,2.71-2.2,4.91-4.91,4.91s-4.91-2.2-4.91-4.91v-26c-2.82-1.09-5.81-1.85-8.91-2.24.07.32.1.66.1,1V-8.77c0,2.71-2.2,4.91-4.91,4.91s-4.91-2.2-4.91-4.91v-29.6c0-.34.04-.68.1-1-2.99.38-5.88,1.1-8.62,2.13V-11.12c0,2.71-2.2,4.91-4.91,4.91s-4.91-2.2-4.91-4.91v-20.63c-9.03,6.97-14.86,17.9-14.86,30.19.15,8.79,76.23,10,76.23,0,0-12.16-5.7-22.98-14.57-29.96Z"/></g><path class="cls-42" d="M146.68,112.54h0c14.15,0,25.97-11.68,27.27-26.95l4.29-50.58c0-4.38-3.28-7.92-7.32-7.92h-48.48c-4.04,0-7.32,3.55-7.32,7.92l4.29,50.58c1.29,15.27,13.12,26.95,27.27,26.95Z"/><circle class="cls-42" cx="177.92" cy="69.91" r="9.03"/><circle class="cls-42" cx="115.46" cy="69.72" r="9.03"/><circle class="cls-43" cx="138.85" cy="68.35" r="7.65"/><circle class="cls-29" cx="140.5" cy="68.53" r="3.8"/><circle class="cls-43" cx="157.77" cy="68.53" r="7.65"/><circle class="cls-29" cx="156.1" cy="68.7" r="3.8"/><path class="cls-42" d="M169.93,88.41h-43.23s0-15.85,0-15.85c0,0,15.21.49,21.62,4.13,8.1-6.79,21.62-4.13,21.62-4.13v15.85Z"/><path class="cls-51" d="M148.41,90.69h0c-1.78.02-3.24-1.74-3.26-3.92l1.87-7.08c.29-1.09,1.82-1.14,2.18-.07l2.33,6.89c.05.14.07.29.07.43-.07,2.08-1.46,3.75-3.18,3.76Z"/><g class="cls-34"><path class="cls-32" d="M155.93,103.24c-5.99,1.5-10.16.48-11.71-2.32-1.55-2.8.51-5.59,2.36-5.75,0,0,4.88.34,7.94-1.06s6.3-3.65,6.3-3.65c1.79-1.04,4.16-.45,4.55,1.13,0,0,1.54,3.36,1.38,5.5s-4.83,4.66-10.82,6.15Z"/><rect class="cls-51" x="141.14" y="94.03" width="11.53" height="11.53" rx="4.05" ry="4.05"/><rect class="cls-43" x="141.88" y="89.94" width="25.81" height="7.92"/></g><rect class="cls-55" x="141.04" y="111.9" width="10.56" height="4.39" rx="2.2" ry="2.2"/><path class="cls-4" d="M115.58,40.39l3.83,45.21c1.29,15.27,13.12,26.95,27.27,26.95h0c14.15,0,25.97-11.68,27.27-26.95l3.83-45.21"/><path class="cls-55" d="M185.79,38.44C185.79,17.39,168.72.32,147.68.32s-38.11,17.06-38.11,38.11c.15,8.79,76.23,10,76.23,0Z"/><path class="cls-9" d="M171.22,8.48v20.4c0,2.71-2.2,4.91-4.91,4.91s-4.91-2.2-4.91-4.91V2.88c-2.82-1.09-5.81-1.85-8.91-2.24.07.32.1.66.1,1v29.6c0,2.71-2.2,4.91-4.91,4.91s-4.91-2.2-4.91-4.91V1.64c0-.34.04-.68.1-1-2.99.38-5.88,1.1-8.62,2.13v26.11c0,2.71-2.2,4.91-4.91,4.91s-4.91-2.2-4.91-4.91V8.25c-9.03,6.97-14.86,17.9-14.86,30.19.15,8.79,76.23,10,76.23,0,0-12.16-5.7-22.98-14.57-29.96Z"/><polygon class="cls-42" points="126.69 49.32 126.69 56.38 147.26 66.51 166.76 57.92 166.76 49.32 126.69 49.32"/><path class="cls-49" d="M165.8,53.39h0c-.99,0-1.8-.97-1.79-2.2s1.63-5.95,1.63-5.95c0,0,1.96,4.75,1.95,5.95s-.8,2.2-1.79,2.2Z"/><path class="cls-49" d="M170.31,59.32h0c-.99,0-1.81-.95-1.81-2.18s1.58-5.97,1.58-5.97c0,0,2,4.73,2,5.93s-.78,2.2-1.77,2.21Z"/><g class="cls-35"><path class="cls-43" d="M240.27,78.26c-.53,0-1.05-.12-1.53-.35l-30.87-14.69c-.86-.41-1.51-1.13-1.83-2.03-.32-.9-.27-1.87.14-2.73l9.3-19.54c.59-1.24,1.85-2.03,3.22-2.03.53,0,1.05.12,1.53.35l30.87,14.69c1.78.84,2.53,2.98,1.69,4.75l-9.3,19.54c-.59,1.24-1.85,2.03-3.22,2.03h0Z"/><path class="cls-13" d="M218.7,37.17c.49,0,.97.11,1.41.32l30.87,14.69c.79.38,1.4,1.04,1.69,1.87.29.83.25,1.72-.13,2.52l-9.3,19.54c-.54,1.14-1.71,1.88-2.98,1.88-.49,0-.97-.11-1.41-.32l-30.87-14.69c-1.64-.78-2.34-2.75-1.56-4.39l9.3-19.54c.54-1.14,1.71-1.88,2.98-1.88M218.7,36.63c-1.43,0-2.81.81-3.47,2.19l-9.3,19.54c-.91,1.91-.1,4.2,1.82,5.11l30.87,14.69c.53.25,1.09.37,1.65.37,1.43,0,2.81-.81,3.47-2.19l9.3-19.54c.91-1.91.1-4.2-1.82-5.11l-30.87-14.69c-.53-.25-1.09-.37-1.65-.37h0Z"/><rect class="cls-12" x="209.9" y="36.97" width="14.15" height="29.31" transform="translate(43.23 -88.21) rotate(25.44)"/><rect class="cls-24" x="234.92" y="48.87" width="14.15" height="29.31" transform="translate(50.77 -97.81) rotate(25.44)"/></g><path class="cls-43" d="M284.31,134.34c-2.55-.83-5.16-1.46-7.79-1.88v-.07s3.39-3.46,3.39-3.46c.22-.23.25-.58.06-.84l-2.9-3.89-3.02-.57c-1.09-.21-2.2-.28-3.3-.21l-3.07.18-3.38,3.49c-.22.23-.24.59-.05.84l2.9,3.86v.07c-2.66.07-5.33.36-7.97.85l-1.4.26-.34,5.33c-.54,8.28,3.08,16.29,9.66,21.35l2.83,2.18,3.07-1.8c7.15-4.18,11.75-11.64,12.28-19.91l.35-5.37-1.3-.42Z"/><path class="cls-3" d="M284.31,134.34c-2.55-.83-5.16-1.46-7.79-1.88v-.07s3.39-3.46,3.39-3.46c.22-.23.25-.58.06-.84l-2.9-3.89-3.02-.57c-1.09-.21-2.2-.28-3.3-.21l-3.07.18-3.38,3.49c-.22.23-.24.59-.05.84l2.9,3.86v.07c-2.66.07-5.33.36-7.97.85l-1.4.26-.34,5.33c-.54,8.28,3.08,16.29,9.66,21.35l2.83,2.18,3.07-1.8c7.15-4.18,11.75-11.64,12.28-19.91l.35-5.37-1.3-.42Z"/><path class="cls-38" d="M271.53,123.39c.84,0,1.68.08,2.51.24l3.02.57,2.9,3.89c.19.26.17.61-.06.84l-3.37,3.46v.07c2.62.42,5.23,1.05,7.78,1.88l1.3.42-.35,5.37c-.53,8.26-5.14,15.72-12.28,19.91l-3.07,1.8-2.83-2.18c-6.57-5.07-10.19-13.07-9.66-21.35l.35-5.33,1.4-.26c2.64-.5,5.31-.78,7.97-.85v-.07s-2.9-3.86-2.9-3.86c-.19-.26-.17-.61.05-.84l3.38-3.49,3.07-.18c.26-.02.53-.02.79-.02M271.53,120.79c-.31,0-.63,0-.94.03l-3.07.18-1.01.06-.7.73-3.38,3.49c-1.12,1.15-1.23,2.92-.26,4.21l.09.13c-1.2.14-2.39.32-3.57.54l-1.4.26-1.98.37-.13,2.01-.35,5.33c-.59,9.16,3.39,17.97,10.66,23.58l2.83,2.18,1.39,1.07,1.51-.88,3.07-1.8c7.9-4.63,12.97-12.84,13.56-21.98l.35-5.37.13-2.01-1.91-.62-1.3-.42c-1.14-.37-2.3-.71-3.47-1l.12-.12c1.12-1.15,1.24-2.91.28-4.2l-2.9-3.89-.6-.81-.99-.19-3.02-.57c-.99-.19-1.99-.28-3-.28h0Z"/><g class="cls-37"><rect class="cls-54" x="256.65" y="130.82" width="1.95" height="37.95" transform="translate(10.2 -16.31) rotate(3.7)"/><rect class="cls-54" x="260.54" y="131.07" width="1.95" height="37.95" transform="translate(10.23 -16.56) rotate(3.7)"/><rect class="cls-54" x="264.42" y="131.33" width="1.95" height="37.95" transform="translate(10.25 -16.81) rotate(3.7)"/><rect class="cls-54" x="274.84" y="131.97" width="1.95" height="37.95" transform="translate(10.31 -17.48) rotate(3.7)"/><rect class="cls-54" x="278.72" y="132.22" width="1.95" height="37.95" transform="translate(10.34 -17.73) rotate(3.7)"/><rect class="cls-54" x="282.64" y="131.95" width="1.95" height="37.95" transform="translate(10.33 -17.98) rotate(3.7)"/><rect class="cls-38" x="261.61" y="152.48" width="17.65" height="3.44" transform="translate(99.11 414.12) rotate(-86.3)"/><path class="cls-31" d="M269.9,145.97l2.14.14-1.05,16.32-2.14-.14,1.05-16.32M268.69,144.59l-.08,1.29-1.05,16.32-.08,1.29,1.29.08,2.14.14,1.29.08.08-1.29,1.05-16.32.08-1.29-1.29-.08-2.14-.14-1.29-.08h0Z"/></g><path class="cls-31" d="M268.54,131.83c5.34,0,10.66.84,15.77,2.51l1.3.42-.35,5.37c-.53,8.26-5.14,15.72-12.28,19.91l-3.07,1.8-2.83-2.18c-6.57-5.07-10.19-13.07-9.66-21.35l.35-5.33,1.4-.26c3.1-.58,6.24-.87,9.37-.87M268.54,130.53h0c-3.21,0-6.45.3-9.61.89l-1.4.26-.99.19-.06,1.01-.35,5.33c-.56,8.73,3.23,17.13,10.16,22.47l2.83,2.18.69.53.75-.44,3.07-1.8c7.53-4.41,12.36-12.24,12.92-20.94l.35-5.37.06-1-.96-.31-1.3-.42c-5.23-1.71-10.67-2.57-16.17-2.57h0Z"/><path class="cls-43" d="M267.31,146.46l-.8-14.44-2.78-3.7c-.39-.51-.34-1.22.11-1.68l3.55-3.67,3.32-.2c.28-.02.55-.02.83-.02.88,0,1.77.08,2.63.25l3.27.62,3.05,4.1c.38.51.34,1.22-.11,1.68l-3.24,3.32-2.72,14.21-7.1-.46Z"/><path class="cls-31" d="M271.53,123.39c.84,0,1.68.08,2.51.24l3.02.57,2.9,3.89c.19.26.17.61-.06.84l-3.37,3.46-2.65,13.84-5.96-.39-.78-14.06-2.9-3.86c-.19-.26-.17-.61.05-.84l3.38-3.49,3.07-.18c.26-.02.53-.02.79-.02M271.53,122.09c-.29,0-.58,0-.87.03l-3.07.18-.5.03-.35.36-3.38,3.49c-.67.69-.74,1.75-.16,2.52l2.66,3.55.76,13.67.06,1.15,1.15.07,5.96.39,1.14.07.22-1.12,2.58-13.46,3.1-3.18c.67-.69.74-1.75.17-2.52l-2.9-3.89-.3-.41-.5-.09-3.02-.57c-.91-.17-1.83-.26-2.75-.26h0Z"/><g id="rainbow"><path id="Rectangle_17" class="cls-8" d="M13.92,135.95l2.73-.48h0l2.81,15.99h0l-2.73.48c-.7.12-1.37-.34-1.49-1.05l-2.37-13.45c-.12-.7.34-1.37,1.05-1.49Z"/><rect id="Rectangle_18" class="cls-45" x="18.02" y="134.99" width="4.06" height="16.23" transform="translate(-24.51 5.64) rotate(-9.98)"/><rect id="Rectangle_19" class="cls-40" x="22.02" y="134.29" width="4.06" height="16.23" transform="translate(-24.33 6.33) rotate(-9.98)"/><rect id="Rectangle_20" class="cls-41" x="26.02" y="133.58" width="4.06" height="16.23" transform="translate(-24.14 7.01) rotate(-9.98)"/><rect id="Rectangle_21" class="cls-7" x="30.01" y="132.88" width="4.06" height="16.23" transform="translate(-23.96 7.69) rotate(-9.98)"/><path id="Rectangle_22" class="cls-46" d="M32.63,132.65l2.73-.48c.7-.12,1.37.34,1.49,1.05l2.37,13.45c.12.7-.34,1.37-1.05,1.49l-2.73.48h0l-2.81-15.99h0Z"/></g><path class="cls-21" d="M11.84,154.53c-1.3.23-2.32.05-3.07-.54-.74-.59-1.17-1.56-1.3-2.92l-.29-3.18c-.05-.57-.18-.97-.39-1.2-.21-.23-.53-.3-.98-.22l-.68.12-.36-2.05.68-.12c.45-.08.73-.27.85-.56.11-.29.1-.71-.05-1.25l-.8-3.02c-.35-1.31-.27-2.38.22-3.18.5-.81,1.4-1.33,2.7-1.56l1.35-.24.37,2.1-1.16.2c-.68.12-1.1.35-1.28.69-.18.34-.18.84,0,1.5l.69,2.64c.18.66.26,1.24.22,1.73-.04.49-.22.92-.54,1.29-.32.37-.82.72-1.5,1.03l-.16-.92c.74.04,1.32.17,1.75.4.43.23.75.57.95,1.01.2.45.33,1.01.39,1.7l.27,2.79c.07.68.24,1.15.52,1.41.28.26.75.33,1.43.21l1.16-.2.37,2.1-1.35.24Z"/><path class="cls-21" d="M43.81,148.9l-1.35.24-.37-2.1,1.16-.2c.68-.12,1.1-.35,1.27-.68.17-.34.18-.84,0-1.51l-.7-2.71c-.17-.67-.24-1.24-.21-1.73.03-.49.21-.91.53-1.28.33-.36.83-.69,1.51-.97l.16.92c-.74-.07-1.33-.22-1.76-.46-.43-.24-.74-.58-.94-1.03-.19-.45-.33-1.01-.4-1.7l-.25-2.72c-.05-.69-.22-1.16-.51-1.41-.29-.26-.77-.33-1.44-.21l-1.16.2-.37-2.1,1.35-.24c1.3-.23,2.33-.05,3.08.54s1.18,1.56,1.28,2.92l.27,3.11c.05.56.18.95.38,1.19.21.24.54.32.99.24l.68-.12.36,2.05-.68.12c-.45.08-.73.26-.85.55-.12.29-.1.71.05,1.26l.82,3.09c.35,1.31.27,2.38-.22,3.18-.5.81-1.39,1.33-2.7,1.56Z"/><rect class="cls-14" x="38.74" y="218.1" width="31.73" height="31.73" rx="4.31" ry="4.31" transform="translate(-50.75 18.04) rotate(-12.87)"/><path class="cls-1" d="M68.79,233.31c.37,1.49.14,3.07-.68,4.36-.72,1.14-1.93,2.29-3.93,2.75-3.15.72-6.42-1.65-8.11-3.17-.58-.51-1.48-.33-1.8.38-.96,2.11-3.07,5.75-6.38,6.51-1.77.4-3.14.04-4.16-.55-1.33-.78-2.25-2.1-2.59-3.61l-1.11-4.84c-.63-2.75,1.08-4.77,1.41-5.22-.31-.92.11-1.97.11-1.97.02-.35.41-.55.71-.37.48.29,1.1.6,1.52.52-.12-.83.32-2.18.32-2.18.04-.3.36-.47.63-.35,0,0,5.26,4.52,8.61,3.76s6.19-7.13,6.19-7.13c.2-.23.56-.2.73.06,0,0,.8.78.93,1.49.24.15.82-.5,1.23-1.01.21-.26.6-.22.77.06,0,0,.77.9,1.13,2.28.95.26,2.76,1.22,3.28,3.4l1.19,4.83Z"/><rect class="cls-43" x="57.48" y="226.59" width="8.75" height="11.43" rx="4.06" ry="4.06" transform="translate(-50.2 19.62) rotate(-12.87)"/><rect class="cls-43" x="42.43" y="230.03" width="8.79" height="11.43" rx="4.07" ry="4.07" transform="translate(-51.34 16.35) rotate(-12.87)"/><path class="cls-50" d="M55.91,240.77c-2.71.62-3.01-3.34-3.01-3.34l4.28-.98s1.44,3.7-1.27,4.32Z"/><path class="cls-6" d="M54.63,235.35c-2.63.6-2.33,3.24-2.33,3.24.04.16.2.27.37.23l2.73-.15,2.59-1.07c.16-.04.27-.2.23-.37,0,0-.95-2.49-3.59-1.89Z"/><path class="cls-53" d="M46.71,232.16c-.45.1-.82.34-1.1.67.52.07.96.44,1.08.98.16.69-.27,1.37-.96,1.53-.14.03-.28.03-.41.02l.43,1.86c.25,1.11,1.36,1.81,2.47,1.55s1.81-1.36,1.55-2.47l-.59-2.58c-.25-1.11-1.36-1.81-2.47-1.55Z"/><path class="cls-53" d="M60.4,229.03c-.45.1-.82.34-1.1.67.52.07.96.44,1.08.98.16.69-.27,1.37-.96,1.53-.14.03-.28.03-.41.02l.43,1.86c.25,1.11,1.36,1.81,2.47,1.55s1.81-1.36,1.55-2.47l-.59-2.58c-.25-1.11-1.36-1.81-2.47-1.55Z"/><g class="cls-48"><path class="cls-43" d="M53.69,236.31c-.11.08-.13.23-.05.34.08.11.23.13.34.05,0,0,.3-.23.85-.35s.97-.06.97-.06c.13.02.26-.07.28-.21.02-.13-.07-.26-.21-.28-.05,0-.53-.07-1.15.07-.63.14-.99.41-1.03.44"/></g><rect class="cls-17" x="217.26" y="218.03" width="31.73" height="31.73" rx="5.11" ry="5.11" transform="translate(-64.18 377.63) rotate(-70.9)"/><polygon class="cls-5" points="225.29 222.84 223.85 226.99 225.4 227.53 223.14 234.07 221.58 233.53 220.13 237.72 227.92 240.42 229.34 236.32 227.75 235.77 229.2 231.58 231.45 238.72 237.69 234.42 236.24 238.61 234.66 238.06 233.2 242.25 240.97 244.94 242.41 240.78 240.85 240.23 243.13 233.64 244.7 234.18 246.12 230.06 240.04 227.95 233.67 232.31 231.42 224.96 225.29 222.84"/><rect class="cls-16" x="76.83" y="242.4" width="10.56" height="10.56" rx="2.14" ry="2.14" transform="translate(-73.25 457.32) rotate(-125.12)"/><rect class="cls-15" x="69.24" y="255.72" width="7.11" height="7.11" rx="1.3" ry="1.3" transform="translate(-146.31 415.84) rotate(-109.86)"/><rect class="cls-28" x="27.36" y="154.42" width="10.56" height="10.56" rx="2.14" ry="2.14" transform="translate(-79.22 278.25) rotate(-125.12)"/><rect class="cls-26" x="19.9" y="165.93" width="7.11" height="7.11" rx="1.3" ry="1.3" transform="translate(-127.97 249.13) rotate(-109.86)"/><rect class="cls-27" x="20.66" y="75.37" width="10.56" height="10.56" rx="2.14" ry="2.14" transform="translate(-25.1 148.26) rotate(-125.12)"/><rect class="cls-25" x="32.75" y="86.94" width="7.11" height="7.11" rx="1.3" ry="1.3" transform="translate(-36.48 155.39) rotate(-109.86)"/><rect class="cls-18" x="201.41" y="244.18" width="10.56" height="10.56" rx="2.14" ry="2.14" transform="translate(121.55 562.02) rotate(-125.12)"/><rect class="cls-19" x="215.07" y="254.35" width="7.11" height="7.11" rx="1.3" ry="1.3" transform="translate(50.35 551.15) rotate(-109.86)"/><rect class="cls-18" x="249.15" y="160.44" width="10.56" height="10.56" rx="2.14" ry="2.14" transform="translate(25.29 364.94) rotate(-74.08)"/><rect class="cls-19" x="260.69" y="171.31" width="7.11" height="7.11" rx="1.3" ry="1.3" transform="translate(-22.14 310.45) rotate(-58.83)"/><rect class="cls-23" x="249.63" y="73.58" width="10.56" height="10.56" rx="2.14" ry="2.14" transform="translate(193.78 338.59) rotate(-93.95)"/><rect class="cls-22" x="239.24" y="83.9" width="7.11" height="7.11" rx="1.3" ry="1.3" transform="translate(109.43 308.39) rotate(-78.69)"/></svg>