<?xml version="1.0" encoding="UTF-8"?><svg id="Layer_1" xmlns="http://www.w3.org/2000/svg" xmlns:xlink="http://www.w3.org/1999/xlink" viewBox="0 0 243.85 268.9"><defs><style>.cls-1,.cls-2,.cls-3{fill:none;}.cls-4{fill:#f8db75;}.cls-5{fill:#41821e;opacity:.6;}.cls-6{fill:#fdbc45;}.cls-2{stroke-width:3.04px;}.cls-2,.cls-3{stroke:#e8896d;stroke-linecap:round;stroke-linejoin:round;}.cls-3{stroke-width:2.73px;}.cls-7{fill:#bc2f36;}.cls-8{clip-path:url(#clippath-1);}.cls-9{clip-path:url(#clippath-2);}.cls-10{fill:#a6c43f;}.cls-11{fill:#7c4a1a;}.cls-12{fill:#ffc5b4;}.cls-13{fill:#fff;}.cls-14{fill:#cd9965;}.cls-15{fill:#ffc500;}.cls-16{opacity:.15;}.cls-17{fill:#e8896d;}.cls-18{fill:#c8c8c8;}.cls-19{clip-path:url(#clippath);}.cls-20{fill:#f7b000;}</style><clipPath id="clippath"><circle class="cls-1" cx="101.76" cy="166.98" r="88.46"/></clipPath><clipPath id="clippath-1"><path class="cls-1" d="M77.15,121.42s-9.46,3.6-10.98,4.21c-1.52.61-4.89.78-5.59-7.9s2.52-9.27,3.96-8.68,12.69,5.16,12.69,5.16c1.33.54,2.26,1.78,2.4,3.21h0c.17,1.74-.84,3.37-2.47,4Z"/></clipPath><clipPath id="clippath-2"><path class="cls-1" d="M77.15,121.42s-9.46,3.6-10.98,4.21c-1.52.61-4.89.78-5.59-7.9s2.52-9.27,3.96-8.68,12.69,5.16,12.69,5.16c1.33.54,2.26,1.78,2.4,3.21h0c.17,1.74-.84,3.37-2.47,4Z"/></clipPath></defs><g class="cls-19"><circle class="cls-16" cx="101.76" cy="166.98" r="88.46"/><path class="cls-14" d="M78.91,297.49l14.32-64.11c1.32-5.93-1.88-11.69-7.16-12.87h0c-5.28-1.18-10.63,2.67-11.96,8.6l-14.32,64.11c-1.33,5.96,1.91,11.74,7.23,12.88h0c5.26,1.13,10.58-2.71,11.89-8.61Z"/><path class="cls-14" d="M122.75,295.89l-5.66-65.44c-.52-6.05-5.32-10.58-10.71-10.11h0c-5.39.47-9.34,5.75-8.81,11.8l5.66,65.44c.53,6.08,5.36,10.62,10.77,10.11h0c5.36-.5,9.27-5.77,8.75-11.8Z"/><circle class="cls-14" cx="95.36" cy="234.64" r="21.76"/><path class="cls-10" d="M77.3,232.18l38.13-10.04-7.91-67.12c-.62-6.68-4.65-12.23-8.32-11.46l-45.72,9.64c-3.67.77-5.11,7.48-2.98,13.84l19.4,58c1.59,4.74,4.68,7.72,7.41,7.14Z"/><rect class="cls-10" x="36.31" y="151.16" width="22.66" height="63.63" rx="11.06" ry="11.06" transform="translate(80.14 -3.29) rotate(24.49)"/><rect class="cls-10" x="112.33" y="127.18" width="21.09" height="67.8" rx="10.55" ry="10.55" transform="translate(313.54 92.59) rotate(107.58)"/><rect class="cls-12" x="69.74" y="131.67" width="13.84" height="21.14" rx="3.49" ry="3.49" transform="translate(-27.69 18.88) rotate(-11.91)"/><rect class="cls-15" x="201.08" y="13.6" width="11.99" height="83.08" rx="6" ry="6" transform="translate(1.54 115.76) rotate(-31.34)"/><rect class="cls-15" x="106.1" y="89.5" width="11.99" height="44.08" rx="6" ry="6" transform="translate(-41.66 74.58) rotate(-31.34)"/><rect class="cls-15" x="141.64" y="99.53" width="11.99" height="29.17" rx="3.95" ry="3.95" transform="translate(-37.81 93.44) rotate(-31.34)"/><polygon class="cls-20" points="218.28 85.07 122.27 116.85 112.05 100.06 184.34 29.35 218.28 85.07"/><rect class="cls-11" x="71.16" y="226.88" width="45.43" height="6.02" transform="translate(-46.65 25.16) rotate(-12.25)"/><rect class="cls-18" x="89.44" y="226.91" width="8.65" height="6.02" transform="translate(-46.66 25.14) rotate(-12.25)"/><rect class="cls-14" x="105.89" y="224.01" width="2.48" height="6.02" transform="translate(-45.74 27.91) rotate(-12.25)"/><rect class="cls-14" x="79.06" y="229.83" width="2.48" height="6.02" transform="translate(-47.59 22.35) rotate(-12.25)"/><circle class="cls-12" cx="67.36" cy="228.87" r="9.63"/><circle class="cls-12" cx="155.53" cy="125.75" r="9.63"/><rect class="cls-10" x="66.55" y="143.56" width="22.7" height="9.35" rx="4.67" ry="4.67" transform="translate(-29.69 19.91) rotate(-12.25)"/><circle class="cls-5" cx="80.54" cy="164.79" r="1.79"/><circle class="cls-5" cx="82.71" cy="174.78" r="1.79"/><circle class="cls-5" cx="84.88" cy="184.77" r="1.79"/><circle class="cls-5" cx="87.05" cy="194.76" r="1.79"/><circle class="cls-5" cx="89.22" cy="204.76" r="1.79"/><path class="cls-12" d="M77.15,138.73h0c-13.06,2.84-26.61-6.98-31.27-22.64l-15.41-51.89c-.99-4.56,1.23-8.92,4.96-9.73l44.74-9.72c3.73-.81,7.55,2.23,8.54,6.8l7.5,53.61c2.26,16.18-6,30.73-19.06,33.57Z"/><circle class="cls-12" cx="38.31" cy="100.32" r="9.63"/><path class="cls-14" d="M88.66,51.42c-2.95-17.56-19.45-29.67-34.11-11.68-14.66,17.99-.14.17-.21.25-4.6,5.63-15.15,11.63-21.56,14.96-2.94,1.53-4.17,5.29-2.82,8.63l2.24,5.56,56.7-16.27-.24-1.45Z"/><path class="cls-2" d="M59.95,86.85c3.11-.99,8.55-.75,10.72,1.68-.46.16-6.19.68-9.43,4.57"/><g class="cls-8"><polygon class="cls-7" points="79.91 120.37 60.26 129.26 57.65 105.98 79.4 115.09 79.91 120.37"/><ellipse class="cls-17" cx="65.2" cy="120.99" rx="5.48" ry="3.93" transform="translate(-11.5 6.94) rotate(-5.6)"/><rect class="cls-13" x="61.53" y="119.91" width="19.57" height="3.81" transform="translate(-37.22 31.57) rotate(-19.91)"/></g><path class="cls-17" d="M81.87,101.71l-3.3,1.61-2.65-12.04c-.19-.89.91-1.45,1.52-.78l5.43,6.07c1.45,1.62.95,4.19-1.01,5.14Z"/><path class="cls-3" d="M84.77,78.64c-2.54.9-5.69,3.95-5.41,6.94.38-.12,4.21-2.76,8.73-1.54"/><rect class="cls-10" x="137.11" y="127.69" width="22.66" height="51.4" rx="11.06" ry="11.06" transform="translate(38.31 -29.46) rotate(13)"/><rect class="cls-10" x="36.14" y="188.86" width="21.09" height="44.15" rx="10.55" ry="10.55" transform="translate(-135.48 94.8) rotate(-45)"/></g><rect class="cls-4" x="201.08" y="13.6" width="11.99" height="83.08" rx="6" ry="6" transform="translate(1.54 115.76) rotate(-31.34)"/><rect class="cls-4" x="106.1" y="89.5" width="11.99" height="44.08" rx="6" ry="6" transform="translate(-41.66 74.58) rotate(-31.34)"/><rect class="cls-4" x="141.64" y="99.53" width="11.99" height="29.17" rx="3.95" ry="3.95" transform="translate(-37.81 93.44) rotate(-31.34)"/><polygon class="cls-6" points="218.28 85.07 122.27 116.85 112.05 100.06 184.34 29.35 218.28 85.07"/><circle class="cls-12" cx="155.53" cy="125.75" r="9.63"/><path class="cls-12" d="M77.15,138.73h0c-13.06,2.84-26.61-6.98-31.27-22.64l-15.41-51.89c-.99-4.56,1.23-8.92,4.96-9.73l44.74-9.72c3.73-.81,7.55,2.23,8.54,6.8l7.5,53.61c2.26,16.18-6,30.73-19.06,33.57Z"/><circle class="cls-12" cx="38.31" cy="100.32" r="9.63"/><path class="cls-14" d="M88.66,51.42c-2.95-17.56-19.45-29.67-34.11-11.68-14.66,17.99-.14.17-.21.25-4.6,5.63-15.15,11.63-21.56,14.96-2.94,1.53-4.17,5.29-2.82,8.63l2.24,5.56,56.7-16.27-.24-1.45Z"/><path class="cls-2" d="M59.95,86.85c3.11-.99,8.55-.75,10.72,1.68-.46.16-6.19.68-9.43,4.57"/><g class="cls-9"><polygon class="cls-7" points="79.91 120.37 60.26 129.26 57.65 105.98 79.4 115.09 79.91 120.37"/><ellipse class="cls-17" cx="65.2" cy="120.99" rx="5.48" ry="3.93" transform="translate(-11.5 6.94) rotate(-5.6)"/><rect class="cls-13" x="61.53" y="119.91" width="19.57" height="3.81" transform="translate(-37.22 31.57) rotate(-19.91)"/></g><path class="cls-17" d="M81.87,101.71l-3.3,1.61-2.65-12.04c-.19-.89.91-1.45,1.52-.78l5.43,6.07c1.45,1.62.95,4.19-1.01,5.14Z"/><path class="cls-3" d="M84.77,78.64c-2.54.9-5.69,3.95-5.41,6.94.38-.12,4.21-2.76,8.73-1.54"/><rect class="cls-10" x="137.11" y="127.69" width="22.66" height="51.4" rx="11.06" ry="11.06" transform="translate(38.31 -29.46) rotate(13)"/></svg>