<?xml version="1.0" encoding="UTF-8"?><svg id="Layer_1" xmlns="http://www.w3.org/2000/svg" xmlns:xlink="http://www.w3.org/1999/xlink" viewBox="0 0 238.2 238.2"><defs><style>.cls-1{fill:none;}.cls-2{fill:#8f3aba;}.cls-3{fill:#3d3d3d;}.cls-4{fill:#f0d7ff;}.cls-5{fill:#7c4a1a;}.cls-6{fill:#ffc5b4;}.cls-7{fill:#fff;}.cls-8{fill:#cd9965;}.cls-9{fill:#cb69ff;}.cls-10{opacity:.6;}.cls-11{opacity:.15;}.cls-12{fill:#e8896d;}.cls-13{fill:#4b4b4b;}.cls-14{fill:#c8c8c8;}.cls-15{clip-path:url(#clippath);}</style><clipPath id="clippath"><circle class="cls-1" cx="119.35" cy="134.34" r="88.62"/></clipPath></defs><g class="cls-15"><circle class="cls-11" cx="119.35" cy="134.34" r="88.62"/><rect class="cls-6" x="40.67" y="120.78" width="29.57" height="11.12" rx="5.56" ry="5.56"/><rect class="cls-6" x="59.84" y="122.74" width="12.33" height="23.85" rx="1.97" ry="1.97" transform="translate(-58.49 51.05) rotate(-30)"/><circle class="cls-8" cx="117.34" cy="216.43" r="18.64"/><path class="cls-8" d="M113.18,284.84l4.84-66.68c.45-6.17-3.64-11.49-9.14-11.89h0c-5.49-.4-10.31,4.28-10.75,10.44l-4.84,66.68c-.45,6.2,3.68,11.53,9.2,11.89h0c5.47.36,10.24-4.31,10.69-10.45Z"/><path class="cls-8" d="M141.98,283.22l-5.76-66.61c-.53-6.16-5.41-10.77-10.9-10.29h0c-5.49.47-9.5,5.85-8.97,12.01l5.76,66.61c.54,6.19,5.46,10.81,10.96,10.29h0c5.46-.51,9.43-5.88,8.9-12.01Z"/><path class="cls-4" d="M98.32,209.5h37.74l5.43-64.56c.65-6.78-1.72-13.16-4.89-13.16h-39.58c-3.17,0-5.54,6.38-4.89,13.16l6.19,64.56Z"/><rect class="cls-4" x="81.72" y="131.15" width="23.07" height="54.2" rx="11.25" ry="11.25" transform="translate(45.52 -19.12) rotate(15.45)"/><rect class="cls-4" x="68.53" y="131.01" width="21.47" height="56.25" rx="10.73" ry="10.73" transform="translate(-68.95 60.95) rotate(-30)"/><rect class="cls-6" x="110.68" y="112.01" width="14.09" height="24.1" rx="3.49" ry="3.49" transform="translate(198.65 274.73) rotate(-164.74)"/><path class="cls-6" d="M119.4,118.55h0c14.83,4.05,30.56-4.82,36.29-20.44l18.96-51.78c1.25-4.59-1.17-9.24-5.4-10.4l-50.81-13.86c-4.23-1.16-8.68,1.63-9.93,6.21l-9.97,54.23c-3.01,16.37,6.04,31.99,20.87,36.04Z"/><circle class="cls-6" cx="164.33" cy="82.8" r="9.8"/><circle class="cls-6" cx="98.93" cy="64.74" r="9.8"/><path class="cls-8" d="M173.01,51.28c7.59-18.86-1.26-40.48-26.26-31.7-25,8.79-.24.08-.36.12-7.84,2.74-21.69,2.3-29.91,1.72-3.77-.27-7.21,2.67-7.89,6.72l-1.13,6.75,64.92,17.94.63-1.56Z"/><rect class="cls-7" x="116.25" y="55.95" width="15.76" height="26.33" rx="5.09" ry="5.09" transform="translate(22.02 -29.67) rotate(14.94)"/><rect class="cls-13" x="121.87" y="62.49" width="7.39" height="12.99" rx="2.39" ry="2.39" transform="translate(22.04 -30.05) rotate(14.94)"/><rect class="cls-7" x="134.15" y="60.73" width="15.76" height="26.33" rx="5.09" ry="5.09" transform="translate(23.86 -34.13) rotate(14.94)"/><rect class="cls-13" x="136.79" y="66.47" width="7.39" height="12.99" rx="2.39" ry="2.39" transform="translate(23.57 -33.76) rotate(14.94)"/><rect class="cls-6" x="112.97" y="55.1" width="45.67" height="12.98" transform="translate(21.31 -33.95) rotate(15.45)"/><rect class="cls-6" x="108.21" y="71.13" width="45.67" height="16.74" transform="translate(25.91 -32.03) rotate(15.45)"/><circle class="cls-12" cx="113.23" cy="98.25" r="4.26"/><path class="cls-12" d="M127.33,93.84h0c-1.87-.5-2.89-2.76-2.28-5.05l4.01-6.87c.62-1.06,2.23-.67,2.3.55l.44,7.89c0,.16,0,.32-.05.47-.68,2.16-2.62,3.5-4.42,3.02Z"/><rect class="cls-4" x="104.7" y="127.83" width="22.47" height="9.25" rx="2.99" ry="2.99"/><g class="cls-10"><circle class="cls-9" cx="115" cy="149.01" r="1.77"/><circle class="cls-9" cx="115" cy="159.13" r="1.77"/><circle class="cls-9" cx="115" cy="169.25" r="1.77"/><circle class="cls-9" cx="115" cy="179.37" r="1.77"/><circle class="cls-9" cx="115" cy="189.49" r="1.77"/><circle class="cls-2" cx="115" cy="149.01" r="1.77"/><circle class="cls-2" cx="115" cy="159.13" r="1.77"/><circle class="cls-2" cx="115" cy="169.25" r="1.77"/><circle class="cls-2" cx="115" cy="179.37" r="1.77"/><circle class="cls-2" cx="115" cy="189.49" r="1.77"/></g><rect class="cls-5" x="98.32" y="209.5" width="37.74" height="5.95"/><rect class="cls-14" x="113.5" y="209.5" width="7.19" height="5.95"/><rect class="cls-8" x="127.43" y="209.5" width="2.06" height="5.95"/><rect class="cls-8" x="104.62" y="209.5" width="2.06" height="5.95"/><rect class="cls-6" x="161.43" y="120.78" width="29.57" height="11.12" rx="5.56" ry="5.56" transform="translate(352.43 252.68) rotate(180)"/><rect class="cls-6" x="159.49" y="122.74" width="12.33" height="23.85" rx="1.97" ry="1.97" transform="translate(241.79 334.12) rotate(-150)"/><rect class="cls-4" x="126.88" y="131.15" width="23.07" height="54.2" rx="11.25" ry="11.25" transform="translate(313.98 273.91) rotate(164.55)"/><rect class="cls-4" x="141.66" y="131.01" width="21.47" height="56.25" rx="10.73" ry="10.73" transform="translate(204.81 373.14) rotate(-150)"/></g><path class="cls-6" d="M119.92,118.86h0c14.83,4.05,30.56-4.82,36.29-20.44l18.96-51.78c1.25-4.59-1.17-9.24-5.4-10.4l-50.81-13.86c-4.23-1.16-8.68,1.63-9.93,6.21l-9.97,54.23c-3.01,16.37,6.04,31.99,20.87,36.04Z"/><circle class="cls-6" cx="164.85" cy="83.11" r="9.8"/><circle class="cls-6" cx="99.45" cy="65.05" r="9.8"/><path class="cls-8" d="M173.53,51.59c7.59-18.86-1.26-40.48-26.26-31.7-25,8.79-.24.08-.36.12-7.84,2.74-21.69,2.3-29.91,1.72-3.77-.27-7.21,2.67-7.89,6.72l-1.13,6.75,64.92,17.94.63-1.56Z"/><circle class="cls-12" cx="113.75" cy="98.57" r="4.26"/><circle class="cls-7" cx="124.58" cy="67.11" r="7.65"/><circle class="cls-3" cx="126.13" cy="67.71" r="3.8"/><circle class="cls-7" cx="142.81" cy="72.16" r="7.65"/><circle class="cls-3" cx="141.16" cy="71.9" r="3.8"/><rect class="cls-6" x="108.73" y="71.44" width="45.67" height="16.74" transform="translate(26.01 -32.16) rotate(15.45)"/><rect class="cls-6" x="113.49" y="55.41" width="45.67" height="12.98" transform="translate(21.41 -34.07) rotate(15.45)"/><path class="cls-12" d="M127.84,94.15h0c-1.87-.5-2.89-2.76-2.28-5.05l4.01-6.87c.62-1.06,2.23-.67,2.3.55l.44,7.89c0,.16,0,.32-.05.47-.68,2.16-2.62,3.5-4.42,3.02Z"/></svg>