<?xml version="1.0" encoding="UTF-8"?><svg id="Layer_1" xmlns="http://www.w3.org/2000/svg" width="342.69" height="403.62" xmlns:xlink="http://www.w3.org/1999/xlink" viewBox="0 0 342.69 403.62"><defs><clipPath id="clippath"><path d="M169.98,126.86s-10.49-2.52-9.75-15c.55-9.16,9.42-6.27,9.38-3.61-.01.72-.07,4.28,1.12,7.01,1.53,3.52,4.62,6.23,4.62,6.23.6,1.39.39,3-.56,4.18h0c-1.15,1.43-3.12,1.92-4.81,1.19Z" fill="none"/></clipPath></defs><rect x="144.53" y="129.23" width="14.59" height="24.95" rx="5.59" ry="5.59" transform="translate(254.14 322.43) rotate(-162.54)" fill="#f7c7b7"/><path d="M153.53,137.58h0c14.47,6.63,32.03.23,40.5-14.78l28.08-49.7c2.05-4.47.36-9.63-3.77-11.53l-49.57-22.71c-4.13-1.89-9.14.2-11.19,4.67l-19.31,53.72c-5.83,16.21.78,33.69,15.26,40.33Z" fill="#f7c7b7"/><circle cx="141.67" cy="79.18" r="10.15" fill="#f7c7b7"/><g clip-path="url(#clippath)"><polygon points="172.84 128.1 151.49 120.3 166.68 100.85 176.34 123.75 172.84 128.1" fill="#ad3b3b"/><ellipse cx="161.31" cy="117.72" rx="4.15" ry="5.77" transform="translate(-31.53 169.61) rotate(-51.18)" fill="#db8e73"/><rect x="154.98" y="120.84" width="20.63" height="4.01" transform="translate(65.85 -57.5) rotate(24.51)" fill="#fff"/></g><path d="M201.05,216.15h0c-5.48,3.63-12.85,2.11-16.46-3.4l-28.01-42.69c-3.61-5.51-2.1-12.91,3.38-16.54h0c5.48-3.63,12.85-2.11,16.46,3.4l28.01,42.69c3.61,5.51,2.1,12.91-3.38,16.54Z" fill="#d9eef9"/><path d="M223.03,173.95h0c4.53,4.11,4.89,11.14.79,15.7l-21.74,24.18c-4.09,4.55-11.09,4.91-15.62.79h0c-4.53-4.11-4.89-11.14-.79-15.7l21.74-24.18c4.09-4.55,11.09-4.91,15.62-.79Z" fill="#d9eef9"/><path d="M131.15,238.08l27.46-.23c3.82-.03,7-3.32,7.39-7.63l5.86-65.13c.69-7.02-1.82-13.62-5.17-13.62h-41.82c-3.35,0-5.86,6.6-5.17,13.62l6.28,64.02c.51,5.23,2.67,8.98,5.17,8.98Z" fill="#d9eef9"/><path d="M176.88,303.6l-10.55-68.4c-.98-6.33-6.33-10.75-11.97-9.88h0c-5.63.87-9.41,6.7-8.44,13.03l10.55,68.4c.98,6.35,6.38,10.78,12.04,9.87h0c5.6-.91,9.34-6.72,8.37-13.02Z" fill="#c69c6d"/><path d="M162.42,378.3l14.33-67.71c1.33-6.26-2.12-12.29-7.7-13.47h0c-5.58-1.18-11.17,2.94-12.5,9.2l-14.33,67.71c-1.33,6.29,2.15,12.34,7.77,13.49h0c5.56,1.13,11.11-2.98,12.43-9.21Z" fill="#c69c6d"/><path d="M200.68,206.16l-59.69,14.53c-5.99,2.26-14.26,18.37-12.24,23.7h0c2.02,5.33,20.76,14.2,26.75,11.94l52.48-30.86c6.01-2.27,9.23-8.48,7.16-13.82h0c-2.05-5.29-8.51-7.75-14.47-5.49Z" fill="#c69c6d"/><path d="M188.85,286.17l25.98-64.15c2.4-5.93.07-12.48-5.22-14.62h0c-5.28-2.14-11.52.93-13.92,6.87l-25.98,64.15c-2.41,5.96-.04,12.53,5.28,14.64h0c5.28,2.09,11.46-.99,13.85-6.89Z" fill="#c69c6d"/><rect x="137.46" y="368" width="39.57" height="19.7" rx="9.85" ry="9.85" transform="translate(314.5 755.69) rotate(180)" fill="#754c24"/><rect x="163.18" y="275.77" width="40.88" height="19.7" rx="9.85" ry="9.85" transform="translate(259.78 616.51) rotate(-160.22)" fill="#754c24"/><circle cx="146.85" cy="239.08" r="19.3" fill="#c69c6d"/><rect x="110.07" y="150.86" width="23.88" height="56.11" rx="11.94" ry="11.94" transform="translate(52.06 -26.03) rotate(15.45)" fill="#d9eef9"/><path d="M122.01,180.66l26.16-13.59c5.45-2.83,12.16-.71,14.98,4.74h0c2.83,5.45.71,12.16-4.74,14.98l-34.82,18.09" fill="none" stroke="#b3d1eb" stroke-miterlimit="10" stroke-width="1.6"/><circle cx="167.06" cy="169.78" r="10.15" fill="#f7c7b7"/><circle cx="224" cy="171.16" r="10.15" fill="#f7c7b7"/><rect x="137.46" y="145.21" width="22.03" height="10.21" rx="5.1" ry="5.1" fill="#d9eef9"/><path d="M176.61,83.56c.11.08.22.16.32.24.22.16-.15-.12.06.04.19.15.38.3.56.46.37.31.73.64,1.07.97s.68.68,1.01,1.04c.3.33.72.83.91,1.07-.07-.09.1.14.12.16.08.11.16.22.24.32.14.2.28.39.41.6.27.4.52.81.77,1.23s.47.84.68,1.28c.11.22.21.44.31.66.04.1.09.2.13.29-.11-.25.08.21.09.21l1.97-1.97c-3.42-.97-6.92-1.61-10.45-1.96-.84-.08-1.64.79-1.6,1.6.04.94.71,1.51,1.6,1.6,1.63.16,3.07.36,4.73.68s3.27.7,4.87,1.16c1.08.31,2.44-.8,1.97-1.97-1.69-4.23-4.47-7.81-8.15-10.5-.68-.5-1.81-.14-2.19.57-.44.83-.15,1.66.57,2.19h0Z" fill="#db8e73"/><path d="M200.89,92.93l-7.65.23c-.68.02-1.39.48-1.54,1.18-.17.76.14,1.36.74,1.81-.29-.22.03.02.09.07.1.08.2.17.3.25.2.17.4.34.59.52.41.37.8.75,1.17,1.15s.7.78,1.03,1.19c.04.05.08.1.12.15-.1-.13-.12-.16-.05-.06.08.11.16.21.23.32.17.23.33.46.49.7.46.7,1.43,1.06,2.19.57.69-.45,1.07-1.45.57-2.19-1.4-2.11-3.12-3.9-5.13-5.43l-.81,2.98,7.65-.23c.84-.03,1.64-.72,1.6-1.6s-.7-1.63-1.6-1.6h0Z" fill="#db8e73"/><path d="M182.11,111.88l-3.69-1.16,6.7-11.13c.49-.82,1.75-.45,1.72.51l-.24,8.58c-.06,2.3-2.31,3.89-4.5,3.2Z" fill="#db8e73"/><path d="M220.15,76.81c11.88-17.38,7.59-41.27-19.83-38.02-27.42,3.25-.26.03-.39.04-8.59,1-22.62-2.57-30.88-5.01-3.79-1.12-7.94,1.07-9.52,5.02l-2.63,6.58,62.26,32.83.98-1.44Z" fill="#c69c6d"/><circle cx="149.25" cy="163.8" r="1.89" fill="#b3d1eb"/><circle cx="149.25" cy="196.12" r="1.89" fill="#b3d1eb"/><circle cx="149.25" cy="206.9" r="1.89" fill="#b3d1eb"/><rect x="17.95" y="152.25" width="52.4" height="235.45" rx="7.54" ry="7.54" fill="#05172e"/><path d="M49.15,139.65h-10.08l-1.92,4.65h-5.15l9.67-21.7h4.96l9.71,21.7h-5.27l-1.92-4.65ZM47.56,135.84l-3.44-8.31-3.44,8.31h6.88Z" fill="#05172e"/><path d="M44.04,178.09c0,2.86-2.34,4.66-5.3,4.66-3.86,0-6.26-2.42-6.26-6.94,0-4.84,2.92-7.54,7.14-7.54,1.48,0,2.92.34,3.9.96l-1.2,2.38c-.78-.52-1.68-.7-2.62-.7-2.34,0-3.84,1.38-3.94,4.06.82-.82,2-1.24,3.46-1.24,2.7,0,4.82,1.72,4.82,4.36ZM40.9,178.25c0-1.28-.94-2.1-2.38-2.1s-2.42.88-2.42,2.1.9,2.08,2.46,2.08c1.38,0,2.34-.8,2.34-2.08Z" fill="#fff"/><path d="M55.8,178.11c0,2.48-1.82,4.64-5.82,4.64-1.94,0-3.98-.54-5.34-1.5l1.28-2.48c1.06.8,2.52,1.26,3.98,1.26,1.62,0,2.62-.68,2.62-1.82s-.72-1.82-3.26-1.82h-3.58l.72-7.88h8.54v2.6h-5.84l-.22,2.66h1.14c4.14,0,5.78,1.86,5.78,4.34Z" fill="#fff"/><rect x="272.34" y="71.88" width="52.4" height="315.82" rx="8.74" ry="8.74" fill="#038179"/><path d="M307.66,57.01c0,3.75-2.98,5.92-8.68,5.92h-11.22v-21.7h10.6c5.43,0,8.22,2.26,8.22,5.64,0,2.17-1.12,3.85-2.88,4.78,2.42.78,3.97,2.64,3.97,5.36ZM292.74,45.01v5.12h4.99c2.45,0,3.78-.87,3.78-2.57s-1.33-2.54-3.78-2.54h-4.99ZM302.6,56.48c0-1.83-1.39-2.7-4-2.7h-5.86v5.36h5.86c2.6,0,4-.81,4-2.67Z" fill="#038179"/><path d="M298.43,95.56c0,2.64-2.36,4.3-5.92,4.3s-5.88-1.66-5.88-4.3c0-1.5.78-2.62,2.12-3.3-1.04-.64-1.62-1.62-1.62-2.88,0-2.46,2.2-4,5.38-4s5.42,1.54,5.42,4c0,1.26-.6,2.24-1.64,2.88,1.36.68,2.14,1.8,2.14,3.3ZM295.15,95.46c0-1.24-1.02-2-2.64-2s-2.6.76-2.6,2,1,2.02,2.6,2.02,2.64-.78,2.64-2.02ZM290.35,89.52c0,1.06.84,1.72,2.16,1.72s2.2-.66,2.2-1.72-.88-1.76-2.2-1.76-2.16.66-2.16,1.76Z" fill="#fff"/><path d="M311.09,92.32c0,4.84-2.9,7.54-7.14,7.54-1.48,0-2.9-.34-3.88-.96l1.2-2.38c.76.52,1.66.7,2.62.7,2.32,0,3.84-1.38,3.94-4.08-.82.82-2.02,1.26-3.48,1.26-2.7,0-4.82-1.72-4.82-4.36,0-2.86,2.34-4.66,5.3-4.66,3.88,0,6.26,2.42,6.26,6.94ZM307.47,89.88c0-1.2-.9-2.08-2.44-2.08-1.38,0-2.34.8-2.34,2.08s.94,2.1,2.38,2.1,2.4-.88,2.4-2.1Z" fill="#fff"/><rect x="258.52" y="49.54" width="15.78" height="15.78" rx="2.23" ry="2.23" transform="translate(405.16 -177.14) rotate(108.44)" fill="#038179" opacity=".75"/><rect x="242.98" y="44.63" width="10.68" height="10.68" rx="1.51" ry="1.51" transform="translate(450.02 -103.25) rotate(131.4)" fill="#038179" opacity=".5"/><rect x="257.18" y="34.24" width="7.71" height="7.71" rx="1.09" ry="1.09" transform="translate(203.86 -219.43) rotate(69.18)" fill="#038179" opacity=".25"/></svg>