<?xml version="1.0" encoding="UTF-8"?><svg id="Layer_1" xmlns="http://www.w3.org/2000/svg" xmlns:xlink="http://www.w3.org/1999/xlink" viewBox="0 0 386.46 413.07"><defs><style>.cls-1,.cls-2,.cls-3{fill:none;}.cls-4{fill:#ffc500;}.cls-4,.cls-5,.cls-6,.cls-7,.cls-8{opacity:.5;}.cls-9{fill:#b3d1eb;}.cls-10{fill:#d9eef9;}.cls-11{fill:#f0f2f6;}.cls-12{fill:#f7c7b7;}.cls-13{fill:#b1b5be;}.cls-14{opacity:.3;}.cls-14,.cls-15{fill:#05172e;}.cls-5{fill:#3cbbc4;}.cls-6{fill:#038179;}.cls-16{fill:#cf4654;}.cls-17{fill:#202121;}.cls-2{stroke:#202121;stroke-width:3px;}.cls-2,.cls-3{stroke-miterlimit:10;}.cls-18{fill:#3d3d3d;}.cls-19{clip-path:url(#clippath-1);}.cls-20{clip-path:url(#clippath-2);}.cls-21{fill:#c9c9c9;}.cls-22{fill:#fff;}.cls-23{fill:#db8e73;}.cls-7{fill:#ff7bac;}.cls-24{fill:#c69c6d;}.cls-25{fill:#122343;}.cls-26{fill:#754c24;}.cls-27{opacity:.25;}.cls-27,.cls-8{fill:#86a0bc;}.cls-3{stroke:#122343;stroke-width:.03px;}.cls-28{clip-path:url(#clippath);}</style><clipPath id="clippath"><path class="cls-1" d="M85.17,33.17h117.03c12.03,0,21.79,9.77,21.79,21.79v299.93c0,13.12-10.65,23.77-23.77,23.77h-113.08c-13.12,0-23.77-10.65-23.77-23.77V54.97c0-12.03,9.77-21.79,21.79-21.79Z" transform="translate(46.28 -25.51) rotate(12.08)"/></clipPath><clipPath id="clippath-1"><rect class="cls-1" x="56.41" y="101.42" width="160.27" height="277.38" transform="translate(53.28 -23.26) rotate(12.08)"/></clipPath><clipPath id="clippath-2"><path class="cls-1" d="M107.2,122.02l-1.62.66-1.22-1.27c-2.84-2.94-4.03-7.1-3.17-11.1l.55-2.57.7-.03c4.2-.16,8.37.73,12.13,2.6l.6.3-.55,2.59c-.85,3.99-3.63,7.29-7.41,8.82Z"/></clipPath></defs><path class="cls-12" d="M302.37,142.55c.68,3.21-1.38,6.37-4.59,7.05l-3.55.75c-3.21.68-6.37-1.38-7.05-4.59l-3.02-14.34c-.68-3.21,1.38-6.37,4.59-7.05l3.55-.75c3.21-.68,6.37,1.38,7.05,4.59"/><circle class="cls-12" cx="348.99" cy="137.51" r="10.8"/><path class="cls-24" d="M295.49,309.67l16.05-71.88c1.48-6.65-2.11-13.11-8.03-14.43h0c-5.92-1.32-11.92,2.99-13.41,9.64l-16.05,71.88c-1.49,6.68,2.15,13.16,8.1,14.45h0c5.9,1.27,11.86-3.04,13.34-9.66Z"/><path class="cls-24" d="M279.03,383.83l16.05-71.88c1.48-6.65-2.11-13.11-8.03-14.43h0c-5.92-1.32-11.92,2.99-13.41,9.64l-16.05,71.88c-1.49,6.68,2.15,13.16,8.1,14.45h0c5.9,1.27,11.86-3.04,13.34-9.66Z"/><path class="cls-24" d="M344.65,307.88l-6.35-73.38c-.59-6.79-5.96-11.86-12.01-11.34h0c-6.04.52-10.47,6.45-9.88,13.23l6.35,73.38c.59,6.82,6.01,11.9,12.08,11.33h0c6.01-.57,10.39-6.47,9.81-13.23Z"/><path class="cls-24" d="M344.7,383.75v-73.65c0-6.81-4.92-12.33-10.98-12.33h0c-6.07,0-10.98,5.52-10.98,12.33v73.65c0,6.84,4.96,12.38,11.06,12.33h0c6.04-.04,10.91-5.55,10.91-12.33Z"/><rect class="cls-26" x="244.27" y="379.68" width="38.27" height="20.97" rx="10.48" ry="10.48" transform="translate(526.81 780.33) rotate(-180)"/><rect class="cls-26" x="321.23" y="381.63" width="34.22" height="20.97" rx="10.48" ry="10.48" transform="translate(676.67 784.23) rotate(180)"/><circle class="cls-24" cx="313.94" cy="239.2" r="24.4"/><path class="cls-10" d="M293.69,236.43l33.62-7.33c4.67-1.02,8.42-2.48,7.95-7.07l-7.69-72.13c-.7-7.49-5.22-13.71-9.33-12.85l-51.27,10.81c-4.11.87-5.73,8.39-3.35,15.52l23.78,68.73c1.78,5.31,3.22,4.96,6.28,4.31Z"/><rect class="cls-10" x="247.11" y="145.52" width="25.41" height="71.35" rx="12.71" ry="12.71" transform="translate(98.49 -91.4) rotate(24.49)"/><rect class="cls-10" x="347.78" y="137.08" width="22.94" height="59.71" rx="11.28" ry="11.28" transform="translate(-34.93 127.56) rotate(-19.22)"/><rect class="cls-10" x="329.85" y="126.35" width="23.65" height="81.16" rx="11.83" ry="11.83" transform="translate(686.67 7) rotate(129.09)"/><path class="cls-12" d="M288.1,131.72h0c-14.66,3.09-29.8-8.01-34.9-25.6l-14.25-49.19c-1.08-5.12,1.44-9.99,5.62-10.88l50.23-10.59c4.19-.88,8.45,2.56,9.53,7.68l5.36,51.06c2.43,18.16-6.94,34.42-21.6,37.51Z"/><circle class="cls-12" cx="244.85" cy="88.58" r="10.8"/><rect class="cls-26" x="287.62" y="227" width="48.9" height="7.24" transform="translate(-40.86 69.34) rotate(-11.91)"/><rect class="cls-21" x="306.29" y="227.2" width="9.64" height="7.24" transform="translate(-40.92 69.15) rotate(-11.91)"/><rect class="cls-24" x="324.64" y="224.06" width="2.76" height="7.24" transform="translate(-39.96 72.15) rotate(-11.91)"/><rect class="cls-24" x="294.71" y="230.37" width="2.76" height="7.24" transform="translate(-41.9 66.11) rotate(-11.91)"/><circle class="cls-9" cx="298.88" cy="159.77" r="2.16"/><circle class="cls-9" cx="301.42" cy="171.8" r="2.16"/><circle class="cls-9" cx="303.95" cy="183.83" r="2.16"/><circle class="cls-9" cx="306.49" cy="195.87" r="2.16"/><circle class="cls-9" cx="309.03" cy="207.9" r="2.16"/><rect class="cls-10" x="281.87" y="136.64" width="25.14" height="11.65" rx="5.82" ry="5.82" transform="translate(-23.06 63.81) rotate(-11.91)"/><path class="cls-23" d="M290.8,99.11h0c-2.05.45-4.16-1.22-4.71-3.73l.44-8.62c.07-1.33,1.82-1.76,2.49-.61l4.35,7.37c.09.15.15.31.18.48.42,2.42-.78,4.67-2.76,5.11Z"/><path class="cls-24" d="M304.63,45.44c-1.85-19.69-19.28-34.38-37.15-15.58-17.87,18.8-.17.18-.25.27-5.61,5.88-17.89,11.72-25.33,14.91-3.41,1.46-5.09,5.54-3.87,9.34l2.04,6.34,64.7-13.64-.15-1.63Z"/><circle class="cls-22" cx="275.91" cy="81.74" r="7.86"/><circle class="cls-18" cx="278.93" cy="81.27" r="1.94"/><circle class="cls-22" cx="295.85" cy="77.78" r="7.86"/><circle class="cls-18" cx="292.96" cy="78.82" r="1.89"/><path class="cls-12" d="M282.02,95.95l-19.24-5.42,2.14-7.59s3.38-.92,10.11.98c6.73,1.9,9.13,4.44,9.13,4.44l-2.14,7.59Z"/><path class="cls-12" d="M262.51,77.8l15.94-12.06,4.76,6.29s-1.31,3.25-6.88,7.47c-5.57,4.22-9.06,4.6-9.06,4.6l-4.76-6.29Z"/><path class="cls-12" d="M282.78,64.77l22.64,2.66-.92,7.83s-3.62,1.39-11.53.46c-7.91-.93-11.11-3.12-11.11-3.12l.92-7.83Z"/><rect class="cls-12" x="180.25" y="209.66" width="82.74" height="128.45" rx="25.19" ry="25.19" transform="translate(381.02 588.09) rotate(-167.92)"/><rect class="cls-12" x="96.33" y="93.1" width="61.04" height="226.36" rx="30.52" ry="30.52" transform="translate(343.44 314.58) rotate(148.16)"/><rect class="cls-12" x="78" y="170.82" width="61.04" height="226.36" rx="30.52" ry="30.52" transform="translate(373.93 432.28) rotate(140.1)"/><rect class="cls-17" x="-37.1" y="118.29" width="361.64" height="174.91" rx="28.51" ry="28.51" transform="translate(-87.55 303.22) rotate(-77.92)"/><g class="cls-28"><rect class="cls-22" x="-30.19" y="125.29" width="347.89" height="160.62" transform="translate(-87.38 303.13) rotate(-77.92)"/><rect class="cls-8" x="99.7" y="60.12" width="146.55" height="19.24" rx="9.62" ry="9.62" transform="translate(18.43 -34.66) rotate(12.08)"/><rect class="cls-15" x="87.24" y="83.08" width="160.62" height="22.63" transform="translate(23.47 -32.98) rotate(12.08)"/><g class="cls-19"><rect class="cls-11" x="-2.15" y="159.98" width="277.38" height="160.27" transform="translate(-126.83 323.37) rotate(-77.92)"/><rect class="cls-22" x="81.15" y="104.04" width="160.27" height="40.93" transform="translate(29.63 -31) rotate(12.08)"/></g></g><rect x="150.38" y="40.95" width="53.77" height="15.52" rx="7.76" ry="7.76" transform="translate(14.12 -36.02) rotate(12.08)"/><path class="cls-22" d="M114.56,110.32c-1.18-.59-2.41-1.08-3.66-1.47v-.03s1.9-1.44,1.9-1.44c.12-.1.16-.27.09-.41l-1.13-2.1-1.43-.5c-.52-.18-1.05-.29-1.59-.34l-1.51-.13-1.9,1.46c-.12.1-.16.27-.09.41l1.14,2.09v.03c-1.31-.16-2.63-.21-3.95-.16l-.7.03-.55,2.57c-.86,4,.33,8.16,3.17,11.1l1.22,1.27,1.62-.66c3.78-1.53,6.56-4.83,7.41-8.82l.55-2.59-.6-.3Z"/><path class="cls-3" d="M114.56,110.32c-1.18-.59-2.41-1.08-3.66-1.47v-.03s1.9-1.44,1.9-1.44c.12-.1.16-.27.09-.41l-1.13-2.1-1.43-.5c-.52-.18-1.05-.29-1.59-.34l-1.51-.13-1.9,1.46c-.12.1-.16.27-.09.41l1.14,2.09v.03c-1.31-.16-2.63-.21-3.95-.16l-.7.03-.55,2.57c-.86,4,.33,8.16,3.17,11.1l1.22,1.27,1.62-.66c3.78-1.53,6.56-4.83,7.41-8.82l.55-2.59-.6-.3Z"/><path class="cls-13" d="M107.23,103.89l1.51.13c.54.05,1.08.16,1.59.34l1.43.5,1.13,2.1c.07.14.04.31-.09.41l-1.89,1.44v.03c1.24.39,2.47.89,3.65,1.47l.6.3-.55,2.59c-.85,3.99-3.63,7.29-7.41,8.82l-1.62.66-1.22-1.27c-2.84-2.94-4.03-7.1-3.17-11.1l.55-2.57.7-.03c.33-.01.65-.02.97-.02,1,0,1.99.06,2.97.18v-.03s-1.13-2.09-1.13-2.09c-.08-.14-.04-.31.09-.41l1.9-1.46M106.85,102.57l-.39.3-1.9,1.46c-.63.48-.81,1.34-.43,2.03l.04.07c-.25,0-.5-.01-.75-.01-.34,0-.68,0-1.02.02l-.7.03-.99.04-.21.97-.55,2.57c-.95,4.42.36,9,3.5,12.25l1.22,1.27.6.62.8-.32,1.62-.66c4.18-1.69,7.24-5.33,8.18-9.73l.55-2.59.21-.97-.89-.44-.6-.3c-.53-.26-1.07-.51-1.62-.74l.07-.05c.63-.48.81-1.33.44-2.03l-1.13-2.1-.24-.44-.47-.16-1.43-.5c-.61-.21-1.25-.35-1.9-.41l-1.51-.13-.5-.04h0Z"/><g class="cls-20"><rect class="cls-16" x="99.98" y="106.59" width=".96" height="18.69" transform="translate(26.49 -18.46) rotate(12.08)"/><rect class="cls-16" x="101.85" y="106.99" width=".96" height="18.69" transform="translate(26.62 -18.84) rotate(12.08)"/><rect class="cls-16" x="103.73" y="107.39" width=".96" height="18.69" transform="translate(26.74 -19.22) rotate(12.08)"/><rect class="cls-16" x="108.75" y="108.45" width=".96" height="18.69" transform="translate(27.07 -20.25) rotate(12.08)"/><rect class="cls-16" x="110.63" y="108.86" width=".96" height="18.69" transform="translate(27.2 -20.64) rotate(12.08)"/><rect class="cls-16" x="112.56" y="109" width=".96" height="18.69" transform="translate(27.27 -21.04) rotate(12.08)"/><rect class="cls-13" x="102.04" y="118.15" width="8.69" height="1.69" transform="translate(-32.25 198.12) rotate(-77.92)"/><path class="cls-25" d="M106.71,114.95l1.03.22-1.68,7.87-1.03-.22,1.69-7.87M106.22,114.19l-.13.62-1.69,7.87-.13.62.62.13,1.03.22.62.13.13-.62,1.68-7.87.13-.62-.62-.13-1.03-.22-.62-.13h0Z"/></g><path class="cls-25" d="M103.41,107.7c3.87,0,7.68.9,11.15,2.62l.6.3-.55,2.59c-.85,3.99-3.63,7.29-7.41,8.82l-1.62.66-1.22-1.27c-2.84-2.94-4.03-7.1-3.17-11.1l.55-2.57.7-.03c.33-.01.65-.02.98-.02M103.41,107.06h0c-.33,0-.67,0-1,.02l-.7.03-.5.02-.1.49-.55,2.57c-.9,4.21.35,8.57,3.34,11.67l1.22,1.27.3.31.4-.16,1.62-.66c3.98-1.61,6.9-5.07,7.8-9.27l.55-2.59.1-.48-.44-.22-.6-.3c-3.53-1.76-7.49-2.69-11.44-2.69h0Z"/><path class="cls-22" d="M105.41,115l.65-7.09-1.09-2c-.15-.28-.08-.62.17-.81l1.99-1.53,1.63.14c.56.05,1.13.17,1.67.36l1.55.54,1.19,2.21c.15.28.08.62-.17.81l-1.82,1.38-2.35,6.73-3.43-.73Z"/><path class="cls-25" d="M107.23,103.89l1.51.13c.54.05,1.08.16,1.59.34l1.43.5,1.13,2.1c.07.14.04.31-.09.41l-1.89,1.44-2.28,6.55-2.87-.62.63-6.91-1.14-2.09c-.08-.14-.04-.31.09-.41l1.9-1.46M107.04,103.23l-.2.15-1.9,1.46c-.38.29-.48.8-.26,1.22l1.04,1.92-.61,6.71-.05.56.55.12,2.87.62.55.12.19-.53,2.22-6.37,1.74-1.33c.38-.29.49-.8.26-1.22l-1.13-2.1-.12-.22-.23-.08-1.43-.5c-.56-.2-1.15-.32-1.75-.37l-1.51-.13-.25-.02h0Z"/><path class="cls-15" d="M120.05,123.86l4.12-10.71-2.48-.53,1.41-3.64,9.11,1.95-1.41,3.64-2.46-.53-4.12,10.71-4.17-.89Z"/><path class="cls-15" d="M137.28,112l-2.28,8.71,4.61-8.21,3.34.71-1.92,8.79,4.26-8.29,4.13.88-8.41,13.74-3.81-.82,2.03-9.29-4.89,8.68-3.81-.82,2.64-14.98,4.13.88Z"/><path class="cls-15" d="M150.87,114.91l4.15.89-5.54,14.36-4.15-.89,5.54-14.36Z"/><path class="cls-15" d="M157.5,116.33l3.5.75c3.77.81,5.66,1.89,4.98,5.05-.52,2.44-1.95,3.81-4.04,3.89l.44,6.9-4.4-.94.35-6.2-2.22,5.8-4.15-.89,5.54-14.36ZM159.42,123.67c1.27.27,2.14-.41,2.45-1.89.19-.88-.17-1.34-1.07-1.54-.08-.02-.19-.02-.3-.04l-1.32,3.42.23.05Z"/><path class="cls-15" d="M169.34,118.86l4.17.89-4.16,10.79,3.04.65-1.37,3.56-7.21-1.54,5.54-14.36Z"/><path class="cls-15" d="M176,135.83l-3.56-.76,6.6-14.13,4.86,1.04-1.64,7.85,4.2-7.3,4.84,1.04-4.45,14.59-3.59-.77,3.71-10.72-5.88,10.25-2.81-.6,2.19-11.06-4.47,10.58Z"/><path class="cls-15" d="M196.25,124.62l4.9,1.05-2.14,15.09-4.19-.9.49-2.18-2.46-.53-1.11,2.05-4.25-.91,8.77-13.67ZM196.04,134.69l1.22-5.49-2.89,5.14,1.67.36Z"/><path class="cls-15" d="M201.35,141.26l4.12-10.71-2.48-.53,1.41-3.64,9.11,1.95-1.41,3.64-2.46-.53-4.12,10.71-4.17-.89Z"/><path class="cls-15" d="M215.47,128.74l7.36,1.57-1.33,3.49-3.21-.69-.72,1.83,2.9.62-1.29,3.37-2.9-.62-.77,1.97,3.21.69-1.43,3.71-7.36-1.57,5.54-14.36Z"/><path class="cls-15" d="M120.05,123.86l4.12-10.71-2.48-.53,1.41-3.64,9.11,1.95-1.41,3.64-2.46-.53-4.12,10.71-4.17-.89Z"/><path class="cls-15" d="M137.28,112l-2.28,8.71,4.61-8.21,3.34.71-1.92,8.79,4.26-8.29,4.13.88-8.41,13.74-3.81-.82,2.03-9.29-4.89,8.68-3.81-.82,2.64-14.98,4.13.88Z"/><path class="cls-15" d="M150.87,114.91l4.15.89-5.54,14.36-4.15-.89,5.54-14.36Z"/><path class="cls-15" d="M157.5,116.33l3.5.75c3.77.81,5.66,1.89,4.98,5.05-.52,2.44-1.95,3.81-4.04,3.89l.44,6.9-4.4-.94.35-6.2-2.22,5.8-4.15-.89,5.54-14.36ZM159.42,123.67c1.27.27,2.14-.41,2.45-1.89.19-.88-.17-1.34-1.07-1.54-.08-.02-.19-.02-.3-.04l-1.32,3.42.23.05Z"/><path class="cls-15" d="M169.34,118.86l4.17.89-4.16,10.79,3.04.65-1.37,3.56-7.21-1.54,5.54-14.36Z"/><path class="cls-15" d="M176,135.83l-3.56-.76,6.6-14.13,4.86,1.04-1.64,7.85,4.2-7.3,4.84,1.04-4.45,14.59-3.59-.77,3.71-10.72-5.88,10.25-2.81-.6,2.19-11.06-4.47,10.58Z"/><path class="cls-15" d="M196.25,124.62l4.9,1.05-2.14,15.09-4.19-.9.49-2.18-2.46-.53-1.11,2.05-4.25-.91,8.77-13.67ZM196.04,134.69l1.22-5.49-2.89,5.14,1.67.36Z"/><path class="cls-15" d="M201.35,141.26l4.12-10.71-2.48-.53,1.41-3.64,9.11,1.95-1.41,3.64-2.46-.53-4.12,10.71-4.17-.89Z"/><path class="cls-15" d="M215.47,128.74l7.36,1.57-1.33,3.49-3.21-.69-.72,1.83,2.9.62-1.29,3.37-2.9-.62-.77,1.97,3.21.69-1.43,3.71-7.36-1.57,5.54-14.36Z"/><rect class="cls-22" x="77.39" y="152.69" width="146.55" height="42.54" rx="2.44" ry="2.44" transform="translate(39.75 -27.68) rotate(12.08)"/><rect class="cls-27" x="120.29" y="161.58" width="63.13" height="11.67" rx="1.57" ry="1.57" transform="translate(38.4 -28.08) rotate(12.08)"/><rect class="cls-27" x="117.67" y="175.54" width="36.35" height="7.94" rx="1.08" ry="1.08" transform="translate(40.58 -24.46) rotate(12.08)"/><rect class="cls-27" x="158.15" y="183.6" width="36.35" height="7.94" rx="1.08" ry="1.08" transform="translate(43.16 -32.75) rotate(12.08)"/><rect class="cls-6" x="87.07" y="151.1" width="24.21" height="24.21" rx="3.56" ry="3.56" transform="translate(36.36 -17.14) rotate(12.08)"/><path class="cls-14" d="M98.53,154.44c.1-.45-.19-.88-.63-.98s-.88.19-.98.63l-.29,1.34-1.34-.29c-1.18-.25-2.35.5-2.6,1.68l-.11.54-.34,1.61-1.83,8.57c-.25,1.18.5,2.35,1.68,2.6l10.71,2.29c1.18.25,2.35-.5,2.6-1.68l1.83-8.57.34-1.61.11-.54c.25-1.18-.5-2.35-1.68-2.6l-1.34-.29.29-1.34c.1-.45-.19-.88-.63-.98s-.88.19-.98.63l-.29,1.34-4.82-1.03.29-1.34ZM93.84,159.32l11.78,2.52-1.83,8.57c-.06.29-.36.48-.65.42l-10.71-2.29c-.29-.06-.48-.36-.42-.65l1.83-8.57Z"/><rect class="cls-22" x="40.76" y="201.47" width="146.55" height="42.54" rx="2.44" ry="2.44" transform="translate(26.76 -11.78) rotate(6.7)"/><rect class="cls-27" x="83.05" y="210.29" width="63.13" height="11.67" rx="1.57" ry="1.57" transform="translate(25.99 -11.89) rotate(6.7)"/><rect class="cls-27" x="81.63" y="225.7" width="36.35" height="7.94" rx="1.08" ry="1.08" transform="translate(27.47 -10.07) rotate(6.7)"/><rect class="cls-27" x="122.68" y="229.93" width="36.35" height="7.94" rx="1.08" ry="1.08" transform="translate(28.24 -14.83) rotate(6.7)"/><rect class="cls-7" x="49.66" y="204.77" width="24.21" height="24.21" rx="3.56" ry="3.56" transform="translate(25.72 -5.72) rotate(6.7)"/><path class="cls-14" d="M60.3,208.21c.05-.45-.27-.86-.72-.91s-.86.27-.91.72l-.16,1.36-1.36-.16c-1.2-.14-2.29.72-2.43,1.92l-.06.54-.19,1.63-1.02,8.7c-.14,1.2.72,2.29,1.92,2.43l10.88,1.28c1.2.14,2.29-.72,2.43-1.92l1.02-8.7.19-1.63.06-.54c.14-1.2-.72-2.29-1.92-2.43l-1.36-.16.16-1.36c.05-.45-.27-.86-.72-.91s-.86.27-.91.72l-.16,1.36-4.9-.57.16-1.36ZM56.09,213.5l11.97,1.41-1.02,8.7c-.04.3-.31.52-.61.48l-10.88-1.28c-.3-.04-.52-.31-.48-.61l1.02-8.7Z"/><rect class="cls-22" x="56.22" y="266.24" width="146.55" height="42.54" rx="2.44" ry="2.44" transform="translate(106.79 -27) rotate(20.12)"/><rect class="cls-27" x="100.02" y="275.37" width="63.13" height="11.67" rx="1.57" ry="1.57" transform="translate(104.75 -28.1) rotate(20.12)"/><rect class="cls-27" x="95.87" y="286.97" width="36.35" height="7.94" rx="1.08" ry="1.08" transform="translate(107.03 -21.47) rotate(20.12)"/><rect class="cls-27" x="134.82" y="300.61" width="36.35" height="7.94" rx="1.08" ry="1.08" transform="translate(114.1 -34.04) rotate(20.12)"/><rect class="cls-4" x="67.9" y="257.56" width="24.21" height="24.21" rx="3.56" ry="3.56" transform="translate(97.64 -11.06) rotate(20.12)"/><path class="cls-14" d="M80.59,260.89c.16-.43-.06-.9-.49-1.05s-.9.06-1.05.49l-.47,1.29-1.29-.47c-1.13-.42-2.4.17-2.81,1.3l-.19.51-.57,1.54-3.01,8.23c-.42,1.13.17,2.4,1.3,2.81l10.29,3.77c1.13.42,2.4-.17,2.81-1.3l3.01-8.23.57-1.54.19-.51c.42-1.13-.17-2.4-1.3-2.81l-1.29-.47.47-1.29c.16-.43-.06-.9-.49-1.05s-.9.06-1.05.49l-.47,1.29-4.63-1.7.47-1.29ZM75.27,265.07l11.32,4.15-3.01,8.23c-.1.28-.42.43-.7.33l-10.29-3.77c-.28-.1-.43-.42-.33-.7l3.01-8.23Z"/><rect class="cls-22" x="14.95" y="311.89" width="146.55" height="42.54" rx="2.44" ry="2.44" transform="translate(12.75 -3.12) rotate(2.18)"/><rect class="cls-27" x="56.71" y="320.68" width="63.13" height="11.67" rx="1.57" ry="1.57" transform="translate(12.49 -3.12) rotate(2.18)"/><rect class="cls-27" x="56.4" y="337.21" width="36.35" height="7.94" rx="1.08" ry="1.08" transform="translate(13.04 -2.59) rotate(2.18)"/><rect class="cls-27" x="97.66" y="338.19" width="36.35" height="7.94" rx="1.08" ry="1.08" transform="translate(13.11 -4.16) rotate(2.18)"/><rect class="cls-5" x="23.54" y="319.32" width="24.21" height="24.21" rx="3.56" ry="3.56" transform="translate(12.64 -1.12) rotate(2.18)"/><path class="cls-14" d="M33.51,322.9c.02-.46-.33-.84-.79-.85s-.84.33-.85.79l-.05,1.37-1.37-.05c-1.21-.05-2.23.9-2.27,2.11l-.02.55-.06,1.64-.33,8.76c-.05,1.21.9,2.23,2.11,2.27l10.95.42c1.21.05,2.23-.9,2.27-2.11l.33-8.76.06-1.64.02-.55c.05-1.21-.9-2.23-2.11-2.27l-1.37-.05.05-1.37c.02-.46-.33-.84-.79-.85s-.84.33-.85.79l-.05,1.37-4.93-.19.05-1.37ZM29.73,328.51l12.04.46-.33,8.76c-.01.3-.27.54-.57.53l-10.95-.42c-.3-.01-.54-.27-.53-.57l.33-8.76Z"/><path class="cls-12" d="M215.81,312.82l34.95,7.76,19.65-64.8c2.7-8.9,2.39-18.43-.87-27.14l-20.86-55.67s-9.32-8.38-25.37-.31c-16.05,8.07-20.06,57.43-1.15,79.96-18.97,36.47-6.35,60.21-6.35,60.21Z"/><polygon class="cls-2" points="177.26 161.92 172.43 166.94 177.26 169.15 177.26 173.96 185.92 179.51 185.92 170.84 194.37 169.15 193.23 161.92 182.41 167.99 180.62 155.85 177.26 161.92"/><polyline class="cls-2" points="170.17 34.58 166.12 62.83 179.75 89.57 179.75 127.42 185.55 141.04 180.62 155.85"/><polyline class="cls-2" points="185.75 180.04 186.6 201.81 170.76 225.74 181.86 259.79 173.51 312.47 184.95 327.84 170.76 345.49 192.15 363.19"/><polyline class="cls-2" points="172.43 166.94 147.96 161.52 143.68 186.1 120.05 185.99 114.04 213.5 81.42 230.42 71.66 205.85 50.38 259.79"/><path class="cls-2" d="M192.55,162.93l7.73-13.64s8.13,4.67,8.05,5.43,6.31-11.54,6.31-11.54l10.19,4.46"/><path class="cls-22" d="M291.82,112.13l-3.68.78c-2.65.56-5.09,1.85-7.04,3.72l-3.15,3.03c-.73.7-1.95.33-2.16-.66l-.54-2.56c-.09-.44.05-.89.37-1.2l4.31-4.14c1.95-1.87,4.39-3.16,7.04-3.72l3.68-.78c.7-.15,1.38.3,1.53,1l.63,3.01c.15.7-.3,1.38-1,1.53Z"/></svg>