<?xml version="1.0" encoding="UTF-8"?><svg id="Layer_1" xmlns="http://www.w3.org/2000/svg" viewBox="0 0 408.88 404.26"><defs><style>.cls-1{fill:#b3d1eb;}.cls-2{fill:#d9eef9;}.cls-3{fill:#f7c7b7;}.cls-4{fill:none;stroke-linecap:round;stroke-linejoin:round;}.cls-4,.cls-5{stroke:#05172e;stroke-width:.74px;}.cls-6{opacity:.75;}.cls-6,.cls-7,.cls-8,.cls-9{fill:#038179;}.cls-7,.cls-10{opacity:.5;}.cls-8{opacity:.25;}.cls-11{fill:#86a0bc;}.cls-12{fill:#3d3d3d;}.cls-13{fill:#c9c9c9;}.cls-14,.cls-5{fill:#fff;}.cls-15{fill:#db8e73;}.cls-16{fill:#c69c6d;}.cls-17{fill:#754c24;}.cls-18{fill:#05172e;}.cls-5{stroke-miterlimit:10;}</style></defs><path class="cls-16" d="M199.78,307.96l5.21-71.86c.48-6.65-3.93-12.38-9.84-12.81h0c-5.92-.43-11.11,4.61-11.59,11.25l-5.21,71.86c-.48,6.68,3.97,12.43,9.92,12.81h0c5.89.38,11.04-4.65,11.52-11.26Z"/><path class="cls-16" d="M230,306.21l-6.21-71.78c-.57-6.64-5.83-11.6-11.75-11.09h0c-5.91.51-10.24,6.31-9.67,12.94l6.21,71.78c.58,6.67,5.88,11.64,11.82,11.09h0c5.88-.55,10.17-6.33,9.6-12.94Z"/><path class="cls-16" d="M199.8,380.64v-72.05c0-6.66-4.81-12.06-10.75-12.06h0c-5.93,0-10.75,5.4-10.75,12.06v72.05c0,6.69,4.85,12.11,10.82,12.06h0c5.91-.04,10.67-5.43,10.67-12.06Z"/><path class="cls-16" d="M230.05,380.64v-72.05c0-6.66-4.78-12.06-10.68-12.06h0c-5.9,0-10.68,5.4-10.68,12.06v72.05c0,6.69,4.82,12.11,10.75,12.06h0c5.87-.04,10.61-5.43,10.61-12.06Z"/><rect class="cls-17" x="172.95" y="375.95" width="28.98" height="20.51" rx="10.25" ry="10.25" transform="translate(374.88 772.4) rotate(180)"/><rect class="cls-17" x="205.54" y="375.95" width="28.98" height="20.51" rx="10.25" ry="10.25" transform="translate(440.06 772.4) rotate(180)"/><rect class="cls-3" x="195.77" y="124.11" width="15.19" height="25.97" rx="5.82" ry="5.82" transform="translate(406.28 274.85) rotate(-179.82)"/><path class="cls-3" d="M203.56,130.89h0c16.57.05,30.45-13.58,32.03-31.45l5.21-59.2c.02-5.12-3.8-9.29-8.53-9.3l-56.76-.18c-4.73-.02-8.58,4.13-8.59,9.25l4.83,59.23c1.46,17.88,15.25,31.6,31.82,31.65Z"/><circle class="cls-3" cx="167.17" cy="80.65" r="10.57"/><path class="cls-5" d="M240.99,70.62h2.64v27.65c0,.73-.59,1.32-1.32,1.32h0c-.73,0-1.32-.59-1.32-1.32v-27.65h0Z" transform="translate(-13.59 63.36) rotate(-14.49)"/><rect class="cls-18" x="235.25" y="57.58" width="4.25" height="16.87" rx="2.12" ry="2.12" transform="translate(-8.97 61.51) rotate(-14.49)"/><polyline class="cls-4" points="237.78 60.69 239.07 60.36 240.95 67.63"/><circle class="cls-3" cx="240.3" cy="81.1" r="10.57"/><circle class="cls-16" cx="203.74" cy="238.58" r="20.09"/><path class="cls-2" d="M187.39,234.2l28.59-.23c3.97-.03,7.29-.12,7.69-4.61l6.1-67.81c.72-7.31-1.89-14.18-5.38-14.18h-43.53c-3.49,0-6.1,6.87-5.38,14.18l8,67.69c.53,5.45,1.32,4.97,3.92,4.97Z"/><rect class="cls-2" x="148.87" y="125.32" width="23.14" height="45.79" rx="11.57" ry="11.57"/><rect class="cls-2" x="191.18" y="142.83" width="24.9" height="10.25" rx="4.98" ry="4.98"/><circle class="cls-1" cx="202.61" cy="166.31" r="1.97"/><circle class="cls-1" cx="202.61" cy="177.53" r="1.97"/><circle class="cls-1" cx="202.61" cy="188.75" r="1.97"/><circle class="cls-1" cx="202.61" cy="199.96" r="1.97"/><circle class="cls-1" cx="202.61" cy="211.18" r="1.97"/><rect class="cls-17" x="183.47" y="229.23" width="40.16" height="6.6"/><rect class="cls-13" x="198.78" y="229.23" width="7.92" height="6.6"/><rect class="cls-16" x="214.12" y="229.23" width="2.27" height="6.6"/><rect class="cls-16" x="189" y="229.23" width="2.27" height="6.6"/><path class="cls-16" d="M240.72,41.74c2.5-21.77-13.05-41.69-36.72-25.39-23.67,16.3-.23.15-.34.23-7.42,5.1-22.08,8.62-30.87,10.37-4.03.81-6.79,4.84-6.33,9.25l.77,7.34h73.28s.21-1.8.21-1.8Z"/><rect class="cls-2" x="235.79" y="125.32" width="23.14" height="45.79" rx="11.57" ry="11.57" transform="translate(494.72 296.44) rotate(180)"/><circle class="cls-14" cx="195.51" cy="80.62" r="7.86"/><circle class="cls-12" cx="197.35" cy="80.83" r="3.9"/><circle class="cls-14" cx="215.84" cy="80.68" r="7.86"/><circle class="cls-12" cx="214.1" cy="80.62" r="3.9"/><rect class="cls-17" x="164.09" y="111.74" width="80.79" height="110.78" rx="3.38" ry="3.38"/><rect class="cls-14" x="169.76" y="118.28" width="69.05" height="97.64"/><path class="cls-13" d="M213.85,112.47c0-.15.02-.29.02-.44,0-4.58-3.71-8.29-8.29-8.29s-8.29,3.71-8.29,8.29c0,.15.01.29.02.44-4.75,1.91-8.12,6.55-8.12,11.99h0s32.78,0,32.78,0h0c0-5.44-3.36-10.08-8.12-11.99ZM205.57,114.85c-1.82,0-3.29-1.47-3.29-3.29s1.47-3.29,3.29-3.29,3.29,1.47,3.29,3.29-1.47,3.29-3.29,3.29Z"/><g class="cls-10"><path class="cls-11" d="M180.86,134.8v4.61h-4.61v-4.61h4.61M180.95,133.8h-4.8c-.5,0-.9.4-.9.9v4.8c0,.5.4.9.9.9h4.8c.5,0,.9-.4.9-.9v-4.8c0-.5-.4-.9-.9-.9h0Z"/><rect class="cls-11" x="186.69" y="133.75" width="46.56" height="6.61" rx=".95" ry=".95"/></g><g class="cls-10"><path class="cls-11" d="M180.89,145.94v4.61h-4.61v-4.61h4.61M180.99,144.94h-4.8c-.5,0-.9.4-.9.9v4.8c0,.5.4.9.9.9h4.8c.5,0,.9-.4.9-.9v-4.8c0-.5-.4-.9-.9-.9h0Z"/><rect class="cls-11" x="186.73" y="144.89" width="46.56" height="6.61" rx=".95" ry=".95"/></g><g class="cls-10"><path class="cls-11" d="M180.93,157.08v4.61h-4.61v-4.61h4.61M181.02,156.08h-4.8c-.5,0-.9.4-.9.9v4.8c0,.5.4.9.9.9h4.8c.5,0,.9-.4.9-.9v-4.8c0-.5-.4-.9-.9-.9h0Z"/><rect class="cls-11" x="186.76" y="156.03" width="46.56" height="6.61" rx=".95" ry=".95"/></g><g class="cls-10"><path class="cls-11" d="M180.96,168.22v4.61h-4.61v-4.61h4.61M181.06,167.22h-4.8c-.5,0-.9.4-.9.9v4.8c0,.5.4.9.9.9h4.8c.5,0,.9-.4.9-.9v-4.8c0-.5-.4-.9-.9-.9h0Z"/><rect class="cls-11" x="186.8" y="167.17" width="46.56" height="6.61" rx=".95" ry=".95"/></g><g class="cls-10"><path class="cls-11" d="M181,179.36v4.61h-4.61v-4.61h4.61M181.1,178.36h-4.8c-.5,0-.9.4-.9.9v4.8c0,.5.4.9.9.9h4.8c.5,0,.9-.4.9-.9v-4.8c0-.5-.4-.9-.9-.9h0Z"/><rect class="cls-11" x="186.84" y="178.31" width="46.56" height="6.61" rx=".95" ry=".95"/></g><g class="cls-10"><path class="cls-11" d="M181.03,190.5v4.61h-4.61v-4.61h4.61M181.13,189.5h-4.8c-.5,0-.9.4-.9.9v4.8c0,.5.4.9.9.9h4.8c.5,0,.9-.4.9-.9v-4.8c0-.5-.4-.9-.9-.9h0Z"/><rect class="cls-11" x="186.87" y="189.45" width="46.56" height="6.61" rx=".95" ry=".95"/></g><g class="cls-10"><path class="cls-11" d="M181.07,201.65v4.61h-4.61v-4.61h4.61M181.17,200.65h-4.8c-.5,0-.9.4-.9.9v4.8c0,.5.4.9.9.9h4.8c.5,0,.9-.4.9-.9v-4.8c0-.5-.4-.9-.9-.9h0Z"/><rect class="cls-11" x="186.91" y="200.59" width="46.56" height="6.61" rx=".95" ry=".95"/></g><path class="cls-3" d="M205.68,92.5h-21.71v-7.86s3.29-4.16,10.85-4.16,10.85,4.16,10.85,4.16v7.86Z"/><path class="cls-3" d="M227.28,92.55h-21.71v-7.86s3.29-4.16,10.85-4.16,10.85,4.16,10.85,4.16v7.86Z"/><path class="cls-15" d="M205.72,104.71h0c-2.08.02-3.79-2.04-3.82-4.59l2.19-8.29c.34-1.28,2.13-1.34,2.55-.09l2.72,8.06c.05.16.08.33.08.5-.09,2.44-1.71,4.39-3.73,4.4Z"/><rect class="cls-3" x="153.63" y="159.21" width="12.31" height="26.62" rx="6.16" ry="6.16"/><path class="cls-3" d="M165.74,166.06h0c3.4,0,6.16,2.76,6.16,6.16v9.17c0,2.46-1.99,4.45-4.45,4.45h-7.86v-13.62c0-3.4,2.76-6.16,6.16-6.16Z"/><rect class="cls-3" x="240.86" y="159.21" width="12.31" height="26.62" rx="6.16" ry="6.16" transform="translate(494.02 345.04) rotate(180)"/><path class="cls-3" d="M239.36,185.83h7.86s0-13.62,0-13.62c0-3.4-2.76-6.16-6.16-6.16h0c-3.4,0-6.16,2.76-6.16,6.16v9.17c0,2.46,1.99,4.45,4.45,4.45Z"/><path class="cls-9" d="M56.51,69.47c-4.11,1.56-6.19,6.18-4.62,10.3l14.18,37.3c1.56,4.11,6.18,6.19,10.3,4.62l37.3-14.18c4.11-1.56,6.19-6.18,4.62-10.3l-14.18-37.3c-1.56-4.11-6.18-6.19-10.3-4.62l-37.3,14.18ZM96.18,78l-9.25,20.59c-.68,1.51-2.45,2.19-3.95,1.5l-10.3-4.62c-1.51-.68-2.19-2.45-1.5-3.95s2.45-2.19,3.95-1.5l7.56,3.4,8.01-17.87c.68-1.51,2.45-2.19,3.95-1.5s2.19,2.45,1.5,3.95h.02Z"/><path class="cls-9" d="M330.58,157.04c-4.29-.99-8.58,1.69-9.57,5.98l-8.98,38.88c-.99,4.29,1.69,8.58,5.98,9.57l38.88,8.98c4.29.99,8.58-1.69,9.57-5.98l8.98-38.88c.99-4.29-1.69-8.58-5.98-9.57l-38.88-8.98ZM358.78,186.21l-19.14,11.96c-1.41.88-3.25.45-4.12-.95l-5.98-9.57c-.88-1.41-.45-3.25.95-4.12s3.25-.45,4.12.95l4.39,7.03,16.6-10.39c1.41-.88,3.25-.45,4.12.95s.45,3.25-.95,4.12h0Z"/><path class="cls-9" d="M68.35,284.64c-4.35-.69-8.44,2.28-9.13,6.63l-6.26,39.41c-.69,4.35,2.28,8.44,6.63,9.13l39.41,6.26c4.35.69,8.44-2.28,9.13-6.63l6.26-39.41c.69-4.35-2.28-8.44-6.63-9.13l-39.41-6.26ZM98.51,311.78l-18.27,13.26c-1.34.97-3.21.68-4.18-.66l-6.63-9.13c-.97-1.34-.68-3.21.66-4.18s3.21-.68,4.18.66l4.87,6.71,15.84-11.51c1.34-.97,3.21-.68,4.18.66s.68,3.21-.66,4.18h.01Z"/><rect class="cls-6" x="70.13" y="134.02" width="15.78" height="15.78" rx="2.23" ry="2.23" transform="translate(86.74 -19.8) rotate(31.89)"/><rect class="cls-7" x="61.22" y="152.43" width="10.68" height="10.68" rx="1.51" ry="1.51" transform="translate(157.23 12.51) rotate(54.85)"/><rect class="cls-8" x="54.12" y="138.78" width="7.71" height="7.71" rx="1.09" ry="1.09" transform="translate(-17.83 8.62) rotate(-7.37)"/><rect class="cls-6" x="109.83" y="268.92" width="15.78" height="15.78" rx="2.23" ry="2.23" transform="translate(-91.61 492.82) rotate(-112.86)"/><rect class="cls-7" x="130.9" y="265.13" width="10.68" height="10.68" rx="1.51" ry="1.51" transform="translate(-134.47 406.24) rotate(-89.9)"/><rect class="cls-8" x="130.66" y="283.93" width="7.71" height="7.71" rx="1.09" ry="1.09" transform="translate(118.86 605.07) rotate(-152.12)"/><rect class="cls-6" x="300.18" y="219.64" width="15.78" height="15.78" rx="2.23" ry="2.23" transform="translate(505.27 -100.78) rotate(84.54)"/><rect class="cls-7" x="283.17" y="222.7" width="10.68" height="10.68" rx="1.51" ry="1.51" transform="translate(592.76 21.47) rotate(107.5)"/><rect class="cls-8" x="291.47" y="208.18" width="7.71" height="7.71" rx="1.09" ry="1.09" transform="translate(238.19 -147.01) rotate(45.28)"/></svg>