<?xml version="1.0" encoding="UTF-8"?><svg id="Layer_1" xmlns="http://www.w3.org/2000/svg" xmlns:xlink="http://www.w3.org/1999/xlink" viewBox="0 0 250.48 408.86"><defs><clipPath id="clippath"><polygon points="75.78 170.01 39.04 151.73 42.46 146.08 77.45 167.26 75.78 170.01" fill="none"/></clipPath></defs><rect x="189.08" y="149.84" width="24.66" height="11.96" rx="5.98" ry="5.98" fill="#f7c7b7"/><path d="M103.55,232.1l-29.03-66.03c-2.68-6.11-9.27-9.12-14.71-6.73h0c-5.44,2.39-7.67,9.28-4.99,15.38l29.03,66.03c2.7,6.13,9.33,9.14,14.77,6.7h0c5.4-2.42,7.59-9.28,4.92-15.36Z" fill="#c69c6d"/><path d="M39.97,240.78l12.18-71.09c1.13-6.57-2.71-12.72-8.56-13.72h0c-5.86-1-11.52,3.51-12.64,10.09l-12.18,71.09c-1.13,6.6,2.74,12.77,8.63,13.73h0c5.84.95,11.45-3.56,12.57-10.1Z" fill="#c69c6d"/><path d="M92.32,313.88l12.18-71.09c1.13-6.57-2.71-12.72-8.56-13.72h0c-5.86-1-11.52,3.51-12.64,10.09l-12.18,71.09c-1.13,6.6,2.74,12.77,8.63,13.73h0c5.84.95,11.45-3.56,12.57-10.1Z" fill="#c69c6d"/><path d="M27.36,314.17l12.18-71.09c1.13-6.57-2.71-12.72-8.56-13.72h0c-5.86-1-11.52,3.51-12.64,10.09l-12.18,71.09c-1.13,6.6,2.74,12.77,8.63,13.73h0c5.84.95,11.45-3.56,12.57-10.1Z" fill="#c69c6d"/><rect x="3.98" y="303.58" width="35.76" height="20.53" rx="10.27" ry="10.27" transform="translate(43.71 627.69) rotate(180)" fill="#754c24"/><rect x="65.91" y="303.58" width="38.65" height="20.53" rx="10.27" ry="10.27" transform="translate(170.46 627.69) rotate(-180)" fill="#754c24"/><rect x="116.97" y="68.88" width="15.2" height="26" rx="5.82" ry="5.82" transform="translate(106.21 229.81) rotate(-116.24)" fill="#f7c7b7"/><path d="M129.63,80.02h0c6.68,15.19,24.79,22.36,41.77,16.55l56.29-19.26c4.69-2.06,6.96-7.25,5.05-11.59l-22.87-52.02c-1.91-4.33-7.26-6.18-11.95-4.11l-52.24,28.46c-15.77,8.59-22.72,26.78-16.05,41.97Z" fill="#f7c7b7"/><circle cx="160.84" cy="26.33" r="10.58" fill="#f7c7b7"/><circle cx="51.23" cy="167.38" r="20.11" fill="#c69c6d"/><path d="M43.54,152.55l26.67,13.15c3.31,2.2,5.15,3.91,8,.41l43.08-52.81c4.69-5.66,6.38-12.82,3.49-14.78l-36.1-24.41c-2.9-1.96-8.91,2.28-12.41,8.74l-31.94,58.93c-2.61,4.82-2.93,9.31-.78,10.77Z" fill="#d9eef9"/><rect x="92.11" y="63.64" width="24.89" height="58.48" rx="12.44" ry="12.44" transform="translate(227.33 25.91) rotate(109.78)" fill="#d9eef9"/><rect x="119.77" y="92.51" width="24.89" height="78.17" rx="12.44" ry="12.44" transform="translate(-50.6 94.51) rotate(-33.4)" fill="#d9eef9"/><rect x="154.03" y="127.26" width="23.16" height="57.13" rx="11.58" ry="11.58" transform="translate(9.78 321.43) rotate(-90)" fill="#d9eef9"/><rect x="101.39" y="85.31" width="24.71" height="9.7" rx="4.85" ry="4.85" transform="translate(68.55 -47.77) rotate(33.45)" fill="#d9eef9"/><path d="M185.92,51.99c.22,3.98-.62,7.91-2.55,11.44h2.88c-1.42-3.26-3.13-6.38-5.1-9.33-.5-.75-1.47-1.07-2.28-.6-.74.43-1.1,1.53-.6,2.28,1.98,2.95,3.68,6.07,5.1,9.33.51,1.17,2.33,1.01,2.88,0,2.19-4,3.26-8.57,3-13.12-.05-.9-.73-1.67-1.67-1.67-.86,0-1.72.76-1.67,1.67h0Z" fill="#db8e73"/><path d="M147.81,61.12c.22,3.98-.62,7.91-2.55,11.44-.43.79-.19,1.82.6,2.28s1.85.19,2.28-.6c2.19-4,3.26-8.57,3-13.12-.05-.9-.73-1.67-1.67-1.67-.86,0-1.72.76-1.67,1.67h0Z" fill="#db8e73"/><path d="M166.8,75.42l-1.51-3.74,13.39-1.97c.98-.14,1.52,1.11.73,1.72l-7.06,5.48c-1.89,1.47-4.66.72-5.55-1.5Z" fill="#db8e73"/><circle cx="198.17" cy="84.36" r="17.16" fill="#fff" stroke="#4b4b4b" stroke-miterlimit="10" stroke-width="3.34"/><rect x="179.64" y="95.99" width="7.79" height="18.9" rx="3.89" ry="3.89" transform="translate(81.16 -79.82) rotate(31.2)" fill="#4b4b4b"/><circle cx="176.67" cy="118.16" r="11.06" fill="#f7c7b7"/><circle cx="196.67" cy="92.96" r="4.74" fill="#4b4b4b"/><path d="M222.1,79.34c21.49-4.43,35.57-25.45,12.66-42.86-22.9-17.41-.22-.17-.32-.25-7.17-5.47-15.1-18.3-19.52-26.11-2.03-3.58-6.73-4.94-10.77-3.13l-6.74,3.03,22.91,69.68,1.78-.37Z" fill="#c69c6d"/><circle cx="101.23" cy="113.24" r="1.97" fill="#b3d1eb"/><circle cx="94.61" cy="122.3" r="1.97" fill="#b3d1eb"/><circle cx="87.98" cy="131.37" r="1.97" fill="#b3d1eb"/><circle cx="81.35" cy="140.43" r="1.97" fill="#b3d1eb"/><circle cx="74.73" cy="149.5" r="1.97" fill="#b3d1eb"/><g clip-path="url(#clippath)"><rect x="37.79" y="156.19" width="40.9" height="6.61" transform="translate(91 -7.11) rotate(31.18)" fill="#754c24"/><rect x="62.28" y="161.04" width="8.07" height="6.61" transform="translate(94.68 -10.59) rotate(31.18)" fill="#c9c9c9"/><rect x="55.11" y="154.99" width="2.31" height="6.61" transform="translate(90.09 -6.26) rotate(31.18)" fill="#c69c6d"/><rect x="43.85" y="148.18" width="2.31" height="6.61" transform="translate(84.94 -1.42) rotate(31.18)" fill="#c69c6d"/></g><rect x="131.69" y="74.1" width="23.16" height="65.38" rx="11.58" ry="11.58" transform="translate(292.23 8.11) rotate(109.78)" fill="#d9eef9"/><rect x="188.39" y="145.36" width="37.51" height="4.83" rx="2.42" ry="2.42" fill="#4b4b4b"/></svg>