<?xml version="1.0" encoding="UTF-8"?><svg id="Layer_1" xmlns="http://www.w3.org/2000/svg" xmlns:xlink="http://www.w3.org/1999/xlink" viewBox="0 0 502.6 441.89"><defs><clipPath id="clippath"><path d="M143.16,63.37h26.53c2.73,0,4.94,2.21,4.94,4.94v67.99c0,2.97-2.41,5.39-5.39,5.39h-25.63c-2.97,0-5.39-2.41-5.39-5.39v-67.99c0-2.73,2.21-4.94,4.94-4.94Z" transform="translate(-15.63 29.19) rotate(-10.16)" fill="none"/></clipPath><clipPath id="clippath-1"><rect x="138.67" y="78.97" width="37.36" height="62.88" transform="translate(-17 29.48) rotate(-10.16)" fill="none"/></clipPath><clipPath id="clippath-2"><path d="M136.67,80.77l-.14.14-.18-.08c-.42-.19-.73-.57-.81-1.03l-.05-.29.07-.03c.43-.2.91-.28,1.38-.25h.08s.05.3.05.3c.08.45-.07.92-.4,1.24Z" fill="none"/></clipPath><clipPath id="clippath-3"><path d="M338.79,65.44h25.91c2.66,0,4.83,2.16,4.83,4.83v66.4c0,2.9-2.36,5.26-5.26,5.26h-25.03c-2.9,0-5.26-2.36-5.26-5.26v-66.4c0-2.66,2.16-4.83,4.83-4.83Z" transform="translate(27.81 -68.19) rotate(11.53)" fill="none"/></clipPath><clipPath id="clippath-4"><rect x="331.5" y="80.47" width="36.49" height="61.41" transform="translate(29.26 -67.64) rotate(11.53)" fill="none"/></clipPath><clipPath id="clippath-5"><path d="M341.68,76.81l-.18.07-.14-.14c-.32-.32-.45-.78-.36-1.22l.06-.29h.08c.46-.03.93.07,1.35.27l.07.03-.06.29c-.09.44-.39.81-.81.98Z" fill="none"/></clipPath></defs><rect x="136.59" y="61.5" width="39.65" height="81.98" rx="6.46" ry="6.46" transform="translate(-15.62 29.19) rotate(-10.16)" fill="#202121"/><g clip-path="url(#clippath)"><rect x="138.2" y="63.03" width="36.41" height="78.86" transform="translate(-15.62 29.19) rotate(-10.16)" fill="#fff"/><rect x="134.27" y="69.27" width="33.22" height="4.36" rx="2.18" ry="2.18" transform="translate(-10.23 27.73) rotate(-10.16)" fill="#86a0bc" opacity=".5"/><rect x="133.66" y="74.52" width="36.41" height="5.13" transform="translate(-11.21 27.99) rotate(-10.16)" fill="#05172e"/><g clip-path="url(#clippath-1)"><rect x="138.67" y="78.97" width="37.36" height="62.88" transform="translate(-17 29.48) rotate(-10.16)" fill="#05172e"/><path d="M160.48,110.71l-6.75,1.21-.74,3.26-3.45.62,3.94-15.29,3.32-.59,9.03,12.96-3.53.63-1.83-2.8ZM158.97,108.41l-3.27-5-1.33,5.82,4.61-.83Z" fill="#fff"/></g></g><rect x="143.89" y="64.91" width="12.19" height="3.52" rx="1.76" ry="1.76" transform="translate(-9.41 27.49) rotate(-10.16)"/><path d="M136.94,79.23c-.15-.01-.3-.01-.45,0h0s.14-.24.14-.24c0-.02,0-.03,0-.05l-.21-.17h-.17c-.06.01-.12.02-.18.04l-.16.05-.14.23s0,.04,0,.05l.21.17h0c-.14.04-.28.09-.42.16l-.07.03.05.29c.08.46.38.84.81,1.03l.18.08.14-.14c.33-.32.48-.79.4-1.24l-.05-.3h-.08Z" fill="#fff"/><path d="M136.94,79.23c-.15-.01-.3-.01-.45,0h0s.14-.24.14-.24c0-.02,0-.03,0-.05l-.21-.17h-.17c-.06.01-.12.02-.18.04l-.16.05-.14.23s0,.04,0,.05l.21.17h0c-.14.04-.28.09-.42.16l-.07.03.05.29c.08.46.38.84.81,1.03l.18.08.14-.14c.33-.32.48-.79.4-1.24l-.05-.3h-.08Z" fill="none" stroke="#122343" stroke-miterlimit="10"/><path d="M136.42,78.78l.21.17s.02.03,0,.05l-.14.23h0c.08,0,.16,0,.24,0,.07,0,.14,0,.21,0h.08s.05.3.05.3c.08.45-.07.92-.4,1.24l-.14.14-.18-.08c-.42-.19-.73-.57-.81-1.03l-.05-.29.07-.03c.14-.06.28-.11.42-.15h0s-.21-.17-.21-.17c-.01-.01-.02-.03,0-.05l.14-.23.16-.05c.06-.02.12-.03.18-.03h.17M136.46,78.63h-.06s-.17.01-.17.01c-.07,0-.15.02-.22.04l-.16.05-.05.02-.03.05-.14.23c-.04.08-.03.17.04.23h0c-.06.03-.13.06-.19.08l-.07.03-.1.05.02.11.05.29c.09.5.42.93.89,1.14l.18.08.09.04.07-.07.14-.14c.37-.36.53-.87.44-1.37l-.05-.3-.02-.11h-.11s-.08-.01-.08-.01c-.07,0-.13,0-.2,0h0c.04-.09.03-.18-.04-.24l-.21-.17-.04-.04h0Z" fill="#b1b5be"/><g clip-path="url(#clippath-2)"><rect x="135.65" y="79.36" width=".11" height="2.12" transform="translate(-12.06 25.19) rotate(-10.16)" fill="#cf4654"/><rect x="135.87" y="79.33" width=".11" height="2.12" transform="translate(-12.04 25.23) rotate(-10.16)" fill="#cf4654"/><rect x="136.08" y="79.29" width=".11" height="2.12" transform="translate(-12.03 25.26) rotate(-10.16)" fill="#cf4654"/><rect x="136.65" y="79.18" width=".11" height="2.12" transform="translate(-12.01 25.36) rotate(-10.16)" fill="#cf4654"/><rect x="136.87" y="79.14" width=".11" height="2.12" transform="translate(-12 25.4) rotate(-10.16)" fill="#cf4654"/><rect x="137.07" y="79.08" width=".11" height="2.12" transform="translate(-11.98 25.44) rotate(-10.16)" fill="#cf4654"/><polygon points="136.28 80.06 136.43 79.99 136.63 80.92 136.49 80.99 136.45 80.99 136.28 80.06" fill="#b1b5be"/><path d="M136.44,80.03l.16.9-.12.02-.16-.9.12-.02M136.5,79.95h-.07s-.12.03-.12.03h-.07s.01.08.01.08l.16.9v.07s.08-.01.08-.01l.12-.02h.07s-.01-.08-.01-.08l-.16-.9v-.07h-.01Z" fill="#122343"/></g><path d="M136.74,79.22c.07,0,.14,0,.21,0h.08s.05.3.05.3c.08.45-.07.92-.4,1.24l-.14.14-.18-.08c-.42-.19-.73-.57-.81-1.03l-.05-.29.07-.03c.37-.17.77-.25,1.18-.25M136.74,79.15c-.42,0-.82.09-1.21.26l-.07.03-.05.02v.06s.06.29.06.29c.09.48.4.89.85,1.08l.18.08.04.02.04-.03.14-.14c.35-.34.51-.83.42-1.31l-.05-.3v-.06s-.07,0-.07,0h-.08c-.07-.01-.14-.01-.21-.01h0Z" fill="#122343"/><path d="M135.95,79.33l-.2-.15.12-.33.18-.07c.06-.02.12-.03.19-.03h.17s.24.17.24.17l-.12.33.05.76-.39.1-.24-.78Z" fill="#fff"/><path d="M136.42,78.78l.21.17s.02.03,0,.05l-.14.23.04.79-.33.06-.23-.75-.21-.17s-.02-.03,0-.05l.14-.23.16-.05c.06-.02.12-.03.18-.03h.17M136.44,78.7h-.03s-.17.01-.17.01c-.07,0-.13.02-.2.04l-.16.05h-.03s-.01.03-.01.03l-.14.23s-.02.1.02.14l.19.16.22.73.02.06h.06s.33-.07.33-.07h.06s0-.08,0-.08l-.04-.76.13-.21s.02-.1-.02-.14l-.21-.17-.02-.02h0Z" fill="#122343"/><path d="M138.1,80.41l-.03-1.3-.28.05v-.44s1.03-.19,1.03-.19v.44s-.27.05-.27.05l.03,1.3-.48.09Z" fill="#fff"/><path d="M139.4,78.43l.13,1.01.13-1.06.38-.07.18,1,.09-1.05.47-.08-.29,1.8-.44.08-.19-1.06-.14,1.12-.44.08-.37-1.68.47-.08Z" fill="#fff"/><path d="M140.95,78.15l.47-.08.04,1.74-.47.08-.04-1.74Z" fill="#fff"/><path d="M141.71,78.02l.4-.07c.43-.08.67-.04.74.32.05.28-.04.48-.26.58l.34.7-.5.09-.23-.67.02.7-.47.08-.04-1.74ZM142.22,78.71c.15-.03.21-.14.18-.3-.02-.1-.08-.13-.18-.12,0,0-.02,0-.03,0v.42s.03,0,.03,0Z" fill="#fff"/><path d="M143.06,77.78l.48-.09.03,1.31.35-.06v.43s-.81.15-.81.15l-.04-1.74Z" fill="#fff"/><path d="M144.48,79.27l-.41.07.09-1.77.55-.1.16.89.13-.95.55-.1.16,1.72-.41.07-.07-1.28-.18,1.33-.32.06-.24-1.25v1.3Z" fill="#fff"/><path d="M146.13,77.23l.56-.1.42,1.67-.48.09-.04-.25-.28.05-.03.26-.49.09.33-1.81ZM146.54,78.29l-.11-.63-.08.66.19-.03Z" fill="#fff"/><path d="M147.38,78.75l-.03-1.3-.28.05v-.44s1.03-.19,1.03-.19v.44s-.27.05-.27.05l.03,1.3-.48.09Z" fill="#fff"/><path d="M148.32,76.83l.84-.15v.42s-.36.07-.36.07v.22s.33-.06.33-.06v.41s-.32.06-.32.06v.24s.37-.07.37-.07v.45s-.83.15-.83.15l-.04-1.74Z" fill="#fff"/><path d="M138.1,80.41l-.03-1.3-.28.05v-.44s1.03-.19,1.03-.19v.44s-.27.05-.27.05l.03,1.3-.48.09Z" fill="#fff"/><path d="M139.4,78.43l.13,1.01.13-1.06.38-.07.18,1,.09-1.05.47-.08-.29,1.8-.44.08-.19-1.06-.14,1.12-.44.08-.37-1.68.47-.08Z" fill="#fff"/><path d="M140.95,78.15l.47-.08.04,1.74-.47.08-.04-1.74Z" fill="#fff"/><path d="M141.71,78.02l.4-.07c.43-.08.67-.04.74.32.05.28-.04.48-.26.58l.34.7-.5.09-.23-.67.02.7-.47.08-.04-1.74ZM142.22,78.71c.15-.03.21-.14.18-.3-.02-.1-.08-.13-.18-.12,0,0-.02,0-.03,0v.42s.03,0,.03,0Z" fill="#fff"/><path d="M143.06,77.78l.48-.09.03,1.31.35-.06v.43s-.81.15-.81.15l-.04-1.74Z" fill="#fff"/><path d="M144.48,79.27l-.41.07.09-1.77.55-.1.16.89.13-.95.55-.1.16,1.72-.41.07-.07-1.28-.18,1.33-.32.06-.24-1.25v1.3Z" fill="#fff"/><path d="M146.13,77.23l.56-.1.42,1.67-.48.09-.04-.25-.28.05-.03.26-.49.09.33-1.81ZM146.54,78.29l-.11-.63-.08.66.19-.03Z" fill="#fff"/><path d="M147.38,78.75l-.03-1.3-.28.05v-.44s1.03-.19,1.03-.19v.44s-.27.05-.27.05l.03,1.3-.48.09Z" fill="#fff"/><path d="M148.32,76.83l.84-.15v.42s-.36.07-.36.07v.22s.33-.06.33-.06v.41s-.32.06-.32.06v.24s.37-.07.37-.07v.45s-.83.15-.83.15l-.04-1.74Z" fill="#fff"/><rect x="165.01" y="73.05" width="2.91" height=".5" rx=".25" ry=".25" transform="translate(-10.32 30.5) rotate(-10.16)" fill="#fff"/><rect x="165.2" y="74.1" width="2.91" height=".5" rx=".25" ry=".25" transform="translate(-10.5 30.55) rotate(-10.16)" fill="#fff"/><rect x="165.39" y="75.15" width="2.91" height=".5" rx=".25" ry=".25" transform="translate(-10.68 30.6) rotate(-10.16)" fill="#fff"/><rect x="311.72" y="84.29" width="80.06" height="38.72" rx="6.31" ry="6.31" transform="translate(179.92 427.6) rotate(-78.47)" fill="#202121"/><g clip-path="url(#clippath-3)"><rect x="313.25" y="85.84" width="77.02" height="35.56" transform="translate(179.95 427.58) rotate(-78.47)" fill="#fff"/><rect x="341.72" y="71.35" width="32.45" height="4.26" rx="2.13" ry="2.13" transform="translate(21.9 -70.03) rotate(11.53)" fill="#86a0bc" opacity=".5"/><rect x="339.01" y="76.44" width="35.56" height="5.01" transform="translate(22.97 -69.69) rotate(11.53)" fill="#05172e"/><g clip-path="url(#clippath-4)"><rect x="331.5" y="80.47" width="36.49" height="61.41" transform="translate(29.26 -67.64) rotate(11.53)" fill="#038179"/><path d="M356.94,112.64c-.48,2.37-2.7,3.35-6.41,2.6l-7.3-1.49,2.8-13.73,6.9,1.41c3.53.72,5.05,2.52,4.62,4.66-.28,1.37-1.22,2.28-2.49,2.64,1.47.81,2.24,2.19,1.89,3.92ZM348.79,103.07l-.66,3.24,3.25.66c1.59.33,2.57-.05,2.79-1.13s-.54-1.79-2.13-2.11l-3.25-.66ZM353.72,111.64c.24-1.16-.56-1.89-2.25-2.24l-3.81-.78-.69,3.39,3.81.78c1.69.35,2.71.02,2.95-1.16Z" fill="#fff"/></g></g><rect x="352.89" y="67.09" width="11.91" height="3.44" rx="1.72" ry="1.72" transform="translate(20.98 -70.31) rotate(11.53)"/><path d="M342.48,75.51c-.13-.06-.27-.12-.41-.16h0s.21-.17.21-.17c.01-.01.02-.03,0-.04l-.13-.23-.16-.05c-.06-.02-.12-.03-.18-.04h-.17s-.21.15-.21.15c-.01.01-.02.03,0,.05l.13.23h0c-.14-.01-.29-.02-.44,0h-.08s-.06.29-.06.29c-.09.44.05.9.36,1.22l.14.14.18-.07c.42-.17.72-.54.81-.98l.06-.29-.07-.03Z" fill="#fff"/><path d="M342.48,75.51c-.13-.06-.27-.12-.41-.16h0s.21-.17.21-.17c.01-.01.02-.03,0-.04l-.13-.23-.16-.05c-.06-.02-.12-.03-.18-.04h-.17s-.21.15-.21.15c-.01.01-.02.03,0,.05l.13.23h0c-.14-.01-.29-.02-.44,0h-.08s-.06.29-.06.29c-.09.44.05.9.36,1.22l.14.14.18-.07c.42-.17.72-.54.81-.98l.06-.29-.07-.03Z" fill="none" stroke="#122343" stroke-miterlimit="10"/><path d="M341.66,74.81h.17c.06.02.12.03.18.05l.16.05.13.23s0,.03,0,.04l-.21.16h0c.14.05.28.1.41.16l.07.03-.06.29c-.09.44-.39.81-.81.98l-.18.07-.14-.14c-.32-.32-.45-.78-.36-1.22l.06-.29h.08s.09,0,.13,0c.1,0,.2,0,.3.02h0s-.13-.23-.13-.23c0-.02,0-.03,0-.05l.21-.16M341.62,74.66l-.04.03-.21.16c-.07.05-.09.15-.05.22h0s-.04,0-.05,0c-.05,0-.09,0-.14,0h-.08s-.11,0-.11,0l-.02.11-.06.29c-.1.49.05,1,.4,1.35l.14.14.07.07.09-.04.18-.07c.46-.19.8-.6.9-1.09l.06-.29.02-.11-.1-.05-.07-.03c-.06-.03-.12-.06-.18-.08h0c.07-.06.09-.15.05-.23l-.13-.23-.03-.05-.05-.02-.16-.05c-.07-.02-.14-.04-.21-.04h-.17s-.05-.02-.05-.02h0Z" fill="#b1b5be"/><g clip-path="url(#clippath-5)"><rect x="340.87" y="75.11" width=".11" height="2.07" transform="translate(22.09 -66.58) rotate(11.53)" fill="#cf4654"/><rect x="341.08" y="75.15" width=".11" height="2.07" transform="translate(22.1 -66.62) rotate(11.53)" fill="#cf4654"/><rect x="341.29" y="75.2" width=".11" height="2.07" transform="translate(22.11 -66.66) rotate(11.53)" fill="#cf4654"/><rect x="341.84" y="75.31" width=".11" height="2.07" transform="translate(22.15 -66.77) rotate(11.53)" fill="#cf4654"/><rect x="342.05" y="75.35" width=".11" height="2.07" transform="translate(22.16 -66.81) rotate(11.53)" fill="#cf4654"/><rect x="342.26" y="75.37" width=".11" height="2.07" transform="translate(22.17 -66.85) rotate(11.53)" fill="#cf4654"/><polygon points="341.43 76.94 341.58 76.02 341.73 76.02 341.58 76.97 341.43 76.94" fill="#b1b5be"/><path d="M341.61,76.03l.11.02-.18.87-.11-.02.18-.87M341.56,75.95v.07s-.19.87-.19.87v.07s.06.01.06.01l.11.02h.07s.01-.06.01-.06l.18-.87v-.07s-.06-.01-.06-.01l-.11-.02h-.07Z" fill="#122343"/></g><path d="M341.27,75.23c.42,0,.83.09,1.21.28l.07.03-.06.29c-.09.44-.39.81-.81.98l-.18.07-.14-.14c-.32-.32-.45-.78-.36-1.22l.06-.29h.08s.09,0,.13,0M341.27,75.16s-.09,0-.14,0h-.08s-.05,0-.05,0v.05s-.07.29-.07.29c-.1.47.05.95.38,1.29l.14.14.03.03.04-.02.18-.07c.44-.18.76-.57.85-1.03l.06-.29v-.05s-.04-.02-.04-.02l-.07-.03c-.38-.19-.81-.29-1.24-.29h0Z" fill="#122343"/><path d="M341.5,76.04l.03-.8-.12-.21.23-.25h.19c.06.01.12.02.19.04l.16.05.15.25-.23.25-.24.74-.35-.07Z" fill="#fff"/><path d="M341.66,74.81h.17c.06.02.12.03.18.05l.16.05.13.23s0,.03,0,.04l-.21.16-.25.73-.32-.07.06-.77-.13-.23s0-.03,0-.05l.21-.16M341.64,74.73l-.02.02-.21.16s-.05.09-.03.13l.12.21-.06.74v.06s.06.01.06.01l.32.06h.06s.02-.05.02-.05l.24-.71.19-.15s.05-.09.03-.13l-.13-.23v-.02s-.04,0-.04,0l-.16-.05c-.06-.02-.13-.03-.19-.04h-.17s-.03-.02-.03-.02h0Z" fill="#122343"/><path d="M343.1,77l.45-1.19-.28-.06.15-.4,1.01.21-.15.4-.27-.06-.45,1.19-.46-.09Z" fill="#fff"/><path d="M344.99,75.67l-.24.97.5-.91.37.08-.2.97.46-.92.46.09-.92,1.53-.42-.09.21-1.03-.53.97-.42-.09.28-1.66.46.09Z" fill="#fff"/><path d="M346.5,75.98l.46.09-.6,1.6-.46-.09.6-1.6Z" fill="#fff"/><path d="M347.24,76.13l.39.08c.42.09.63.2.56.55-.06.27-.21.42-.44.43l.06.76-.49-.1.03-.69-.24.64-.46-.09.6-1.6ZM347.46,76.94c.14.03.24-.05.27-.21.02-.1-.02-.15-.12-.17,0,0-.02,0-.03,0l-.14.38h.03Z" fill="#fff"/><path d="M348.55,76.4l.46.09-.45,1.2.34.07-.15.4-.8-.16.6-1.6Z" fill="#fff"/><path d="M349.31,78.27l-.4-.08.72-1.57.54.11-.17.87.46-.81.54.11-.48,1.62-.4-.08.4-1.19-.64,1.14-.31-.06.23-1.23-.48,1.18Z" fill="#fff"/><path d="M351.54,77.01l.54.11-.22,1.67-.46-.09.05-.24-.27-.06-.12.23-.47-.1.96-1.52ZM351.52,78.12l.13-.61-.31.57.18.04Z" fill="#fff"/><path d="M352.12,78.84l.45-1.19-.28-.06.15-.4,1.01.21-.15.4-.27-.06-.45,1.19-.46-.09Z" fill="#fff"/><path d="M353.67,77.44l.82.17-.14.39-.36-.07-.08.2.32.07-.14.37-.32-.07-.08.22.36.07-.15.41-.82-.17.6-1.6Z" fill="#fff"/><path d="M343.1,77l.45-1.19-.28-.06.15-.4,1.01.21-.15.4-.27-.06-.45,1.19-.46-.09Z" fill="#fff"/><path d="M344.99,75.67l-.24.97.5-.91.37.08-.2.97.46-.92.46.09-.92,1.53-.42-.09.21-1.03-.53.97-.42-.09.28-1.66.46.09Z" fill="#fff"/><path d="M346.5,75.98l.46.09-.6,1.6-.46-.09.6-1.6Z" fill="#fff"/><path d="M347.24,76.13l.39.08c.42.09.63.2.56.55-.06.27-.21.42-.44.43l.06.76-.49-.1.03-.69-.24.64-.46-.09.6-1.6ZM347.46,76.94c.14.03.24-.05.27-.21.02-.1-.02-.15-.12-.17,0,0-.02,0-.03,0l-.14.38h.03Z" fill="#fff"/><path d="M348.55,76.4l.46.09-.45,1.2.34.07-.15.4-.8-.16.6-1.6Z" fill="#fff"/><path d="M349.31,78.27l-.4-.08.72-1.57.54.11-.17.87.46-.81.54.11-.48,1.62-.4-.08.4-1.19-.64,1.14-.31-.06.23-1.23-.48,1.18Z" fill="#fff"/><path d="M351.54,77.01l.54.11-.22,1.67-.46-.09.05-.24-.27-.06-.12.23-.47-.1.96-1.52ZM351.52,78.12l.13-.61-.31.57.18.04Z" fill="#fff"/><path d="M352.12,78.84l.45-1.19-.28-.06.15-.4,1.01.21-.15.4-.27-.06-.45,1.19-.46-.09Z" fill="#fff"/><path d="M353.67,77.44l.82.17-.14.39-.36-.07-.08.2.32.07-.14.37-.32-.07-.08.22.36.07-.15.41-.82-.17.6-1.6Z" fill="#fff"/><rect x="371.16" y="79.36" width=".49" height="2.84" rx=".25" ry=".25" transform="translate(218.05 428.56) rotate(-78.47)" fill="#fff"/><rect x="370.96" y="80.38" width=".49" height="2.84" rx=".24" ry=".24" transform="translate(216.88 429.17) rotate(-78.47)" fill="#fff"/><rect x="370.75" y="81.4" width=".49" height="2.84" rx=".24" ry=".24" transform="translate(215.72 429.79) rotate(-78.47)" fill="#fff"/><rect x="140.71" y="151.93" width="31.41" height="11.82" rx="5.91" ry="5.91" fill="#f7c7b7"/><rect x="161.08" y="154.01" width="13.1" height="25.33" rx="3.14" ry="3.14" transform="translate(-60.88 106.15) rotate(-30)" fill="#f7c7b7"/><circle cx="254.1" cy="253.52" r="19.8" fill="#c49a6d"/><path d="M228.22,326.96l25.42-66.32c2.35-6.13-.17-12.8-5.63-14.89h0c-5.46-2.09-11.8,1.18-14.15,7.31l-25.42,66.32c-2.36,6.16.2,12.86,5.7,14.92h0c5.45,2.04,11.74-1.23,14.08-7.34Z" fill="#c49a6d"/><path d="M302.82,315.15l-29.33-64.68c-2.71-5.98-9.23-8.87-14.56-6.46h0c-5.33,2.42-7.45,9.22-4.74,15.2l29.33,64.68c2.72,6.01,9.29,8.89,14.62,6.43h0c5.28-2.44,7.37-9.22,4.67-15.17Z" fill="#c49a6d"/><path d="M232.63,395.99l-3.9-70.91c-.36-6.56-5.39-11.61-11.23-11.29h0c-5.84.32-10.28,5.9-9.92,12.45l3.9,70.91c.36,6.59,5.43,11.65,11.3,11.29h0c5.81-.36,10.21-5.92,9.85-12.45Z" fill="#c49a6d"/><path d="M296.17,394.6l8.64-70.49c.8-6.52-3.26-12.38-9.07-13.09h0c-5.81-.71-11.16,3.99-11.96,10.51l-8.64,70.49c-.8,6.55,3.3,12.43,9.14,13.1h0c5.78.67,11.09-4.03,11.89-10.52Z" fill="#c49a6d"/><rect x="204.07" y="393.03" width="32.05" height="20.22" rx="9.83" ry="9.83" transform="translate(440.19 806.27) rotate(180)" fill="#754c24"/><rect x="271.47" y="393.03" width="33.44" height="20.22" rx="9.83" ry="9.83" transform="translate(576.39 806.27) rotate(180)" fill="#754c24"/><path d="M233.9,246.17h40.09l5.77-68.57c.69-7.2-1.82-13.98-5.2-13.98h-42.04c-3.37,0-5.89,6.77-5.2,13.98l6.57,68.57Z" fill="#d7ecf7"/><rect x="201.63" y="153.26" width="24.5" height="78.11" rx="12.25" ry="12.25" transform="translate(231.07 -94.8) rotate(51.46)" fill="#d7ecf7"/><rect x="281.53" y="153.89" width="24.5" height="76.63" rx="12.14" ry="12.14" transform="translate(627.15 82.14) rotate(128.54)" fill="#d7ecf7"/><rect x="171.64" y="163.5" width="22.81" height="59.75" rx="11.4" ry="11.4" transform="translate(-72.16 117.43) rotate(-30)" fill="#d7ecf7"/><rect x="247.03" y="142.61" width="14.97" height="25.6" rx="5.57" ry="5.57" transform="translate(459.14 372.33) rotate(-164.74)" fill="#f7c7b7"/><path d="M256.29,149.55h0c15.76,4.3,32.47-5.12,38.54-21.72l20.14-55c1.33-4.87-1.24-9.82-5.74-11.04l-53.98-14.73c-4.5-1.23-9.22,1.73-10.55,6.6l-10.59,57.61c-3.2,17.39,6.42,33.98,22.17,38.28Z" fill="#f7c7b7"/><circle cx="304.02" cy="111.58" r="10.41" fill="#f7c7b7"/><circle cx="234.54" cy="92.4" r="10.41" fill="#f7c7b7"/><path d="M313.23,78.1c8.07-20.04-1.34-43-27.89-33.67-26.55,9.33-.25.09-.38.13-8.32,2.91-23.04,2.45-31.77,1.83-4.01-.28-7.66,2.84-8.38,7.14l-1.2,7.17,68.96,19.06.67-1.66Z" fill="#c49a6d"/><circle cx="249.73" cy="128" r="4.52" fill="#db8e73"/><circle cx="261.85" cy="94.3" r="8.19" fill="#fff"/><circle cx="263.51" cy="94.95" r="4.06" fill="#3d3d3d"/><circle cx="281.32" cy="99.88" r="8.19" fill="#fff"/><circle cx="279.55" cy="99.58" r="4.06" fill="#3d3d3d"/><rect x="249.46" y="82.16" width="48.51" height="13.79" transform="translate(33.61 -69.69) rotate(15.45)" fill="#f7c7b7"/><rect x="244.4" y="99.19" width="48.51" height="17.78" transform="translate(38.49 -67.65) rotate(15.45)" fill="#f7c7b7"/><path d="M264.71,123.31h0c-1.98-.53-3.07-2.93-2.42-5.37l4.26-7.3c.66-1.12,2.37-.71,2.44.59l.47,8.38c0,.17,0,.34-.06.5-.72,2.29-2.78,3.72-4.7,3.2Z" fill="#db8e73"/><rect x="240.67" y="159.41" width="23.86" height="9.83" rx="4.78" ry="4.78" fill="#d7ecf7"/><circle cx="251.62" cy="181.91" r="1.88" fill="#b3d1eb"/><circle cx="251.62" cy="192.66" r="1.88" fill="#b3d1eb"/><circle cx="251.62" cy="203.41" r="1.88" fill="#b3d1eb"/><circle cx="251.62" cy="214.16" r="1.88" fill="#b3d1eb"/><circle cx="251.62" cy="224.91" r="1.88" fill="#b3d1eb"/><rect x="233.9" y="246.17" width="40.09" height="6.32" fill="#754c24"/><rect x="250.03" y="246.17" width="7.64" height="6.32" fill="#c7c7c7"/><rect x="264.82" y="246.17" width="2.19" height="6.32" fill="#c49a6d"/><rect x="240.59" y="246.17" width="2.19" height="6.32" fill="#c49a6d"/><rect x="334.91" y="151.93" width="31.41" height="11.82" rx="5.91" ry="5.91" transform="translate(701.23 315.67) rotate(-180)" fill="#f7c7b7"/><rect x="332.85" y="154.01" width="13.1" height="25.33" rx="3.14" ry="3.14" transform="translate(549.99 480.72) rotate(-150)" fill="#f7c7b7"/><rect x="313.91" y="162.79" width="22.81" height="59.75" rx="11.4" ry="11.4" transform="translate(510.71 522.17) rotate(-150)" fill="#d7ecf7"/><rect x="111.59" y="136.36" width="15.78" height="15.78" rx="2.23" ry="2.23" transform="translate(94.23 -41.35) rotate(31.89)" fill="#05172e" opacity=".75"/><rect x="102.68" y="154.77" width="10.68" height="10.68" rx="1.51" ry="1.51" transform="translate(176.73 -20.39) rotate(54.85)" fill="#05172e" opacity=".5"/><rect x="95.57" y="141.13" width="7.71" height="7.71" rx="1.09" ry="1.09" transform="translate(-17.79 13.96) rotate(-7.37)" fill="#05172e" opacity=".25"/><rect x="375.68" y="136.83" width="15.78" height="15.78" rx="2.23" ry="2.23" transform="translate(76.11 415.89) rotate(-62.08)" fill="#038179" opacity=".75"/><rect x="394.84" y="149.71" width="10.68" height="10.68" rx="1.51" ry="1.51" transform="translate(-8.11 287.28) rotate(-39.12)" fill="#038179" opacity=".5"/><rect x="381.83" y="160.81" width="7.71" height="7.71" rx="1.09" ry="1.09" transform="translate(300.11 575.21) rotate(-101.35)" fill="#038179" opacity=".25"/></svg>