<?xml version="1.0" encoding="UTF-8"?><svg id="Layer_1" xmlns="http://www.w3.org/2000/svg" xmlns:xlink="http://www.w3.org/1999/xlink" viewBox="0 0 386.46 413.07"><defs><clipPath id="clippath"><path d="M286.23,113.82s-11.05,1.66-12.83,1.95-5.46-.31-4.17-9.83c1.29-9.52,4.9-9.4,6.31-8.43.6.41,2.61,3.74,5.08,5.43,3.39,2.33,7.39,3.12,7.39,3.12,1.31.9,2.01,2.45,1.83,4.03h0c-.22,1.91-1.7,3.44-3.6,3.73Z" fill="none"/></clipPath><clipPath id="clippath-1"><path d="M90.54,37.48h117.03c12.03,0,21.79,9.77,21.79,21.79v299.93c0,13.12-10.65,23.77-23.77,23.77h-113.08c-13.12,0-23.77-10.65-23.77-23.77V59.27c0-12.03,9.77-21.79,21.79-21.79Z" transform="translate(-67.56 70.62) rotate(-21.86)" fill="none"/></clipPath><clipPath id="clippath-2"><rect x="82.09" y="103.88" width="160.27" height="277.38" transform="translate(-78.66 77.85) rotate(-21.86)" fill="none"/></clipPath><clipPath id="clippath-3"><path d="M71.95,161l-.98,1.45-1.72-.37c-4-.85-7.3-3.64-8.83-7.43l-.98-2.44.57-.42c3.39-2.48,7.35-4.07,11.51-4.61l.67-.09.99,2.46c1.52,3.78,1.06,8.08-1.23,11.45Z" fill="none"/></clipPath><clipPath id="clippath-4"><rect x="-412.75" y="514.91" width="381.3" height="413.07" fill="none"/></clipPath><radialGradient id="radial-gradient" cx="-258.53" cy="657.68" fx="-258.53" fy="657.68" r="270.3" gradientUnits="userSpaceOnUse"><stop offset="0" stop-color="#000" stop-opacity="0"/><stop offset="1" stop-color="#000"/></radialGradient></defs><path d="M302.37,142.55c.68,3.21-1.38,6.37-4.59,7.05l-3.55.75c-3.21.68-6.37-1.38-7.05-4.59l-3.02-14.34c-.68-3.21,1.38-6.37,4.59-7.05l3.55-.75c3.21-.68,6.37,1.38,7.05,4.59" fill="#f7c7b7"/><path d="M295.49,309.67l16.05-71.88c1.48-6.65-2.11-13.11-8.03-14.43h0c-5.92-1.32-11.92,2.99-13.41,9.64l-16.05,71.88c-1.49,6.68,2.15,13.16,8.1,14.45h0c5.9,1.27,11.86-3.04,13.34-9.66Z" fill="#c69c6d"/><path d="M279.03,383.83l16.05-71.88c1.48-6.65-2.11-13.11-8.03-14.43h0c-5.92-1.32-11.92,2.99-13.41,9.64l-16.05,71.88c-1.49,6.68,2.15,13.16,8.1,14.45h0c5.9,1.27,11.86-3.04,13.34-9.66Z" fill="#c69c6d"/><path d="M344.65,307.88l-6.35-73.38c-.59-6.79-5.96-11.86-12.01-11.34h0c-6.04.52-10.47,6.45-9.88,13.23l6.35,73.38c.59,6.82,6.01,11.9,12.08,11.33h0c6.01-.57,10.39-6.47,9.81-13.23Z" fill="#c69c6d"/><path d="M344.7,383.75v-73.65c0-6.81-4.92-12.33-10.98-12.33h0c-6.07,0-10.98,5.52-10.98,12.33v73.65c0,6.84,4.96,12.38,11.06,12.33h0c6.04-.04,10.91-5.55,10.91-12.33Z" fill="#c69c6d"/><rect x="244.27" y="379.68" width="38.27" height="20.97" rx="10.48" ry="10.48" transform="translate(526.81 780.33) rotate(-180)" fill="#754c24"/><rect x="321.23" y="381.63" width="34.22" height="20.97" rx="10.48" ry="10.48" transform="translate(676.67 784.23) rotate(180)" fill="#754c24"/><circle cx="313.94" cy="239.2" r="24.4" fill="#c69c6d"/><path d="M293.69,236.43l33.62-7.33c4.67-1.02,8.42-2.48,7.95-7.07l-7.69-72.13c-.7-7.49-5.22-13.71-9.33-12.85l-51.27,10.81c-4.11.87-5.73,8.39-3.35,15.52l23.78,68.73c1.78,5.31,3.22,4.96,6.28,4.31Z" fill="#d9eef9"/><rect x="247.11" y="145.52" width="25.41" height="71.35" rx="12.71" ry="12.71" transform="translate(98.49 -91.4) rotate(24.49)" fill="#d9eef9"/><rect x="329.85" y="126.35" width="23.65" height="81.16" rx="11.83" ry="11.83" transform="translate(686.67 7) rotate(129.09)" fill="#d9eef9"/><path d="M288.1,131.72h0c-14.66,3.09-29.8-8.01-34.9-25.6l-14.25-49.19c-1.08-5.12,1.44-9.99,5.62-10.88l50.23-10.59c4.19-.88,8.45,2.56,9.53,7.68l5.36,51.06c2.43,18.16-6.94,34.42-21.6,37.51Z" fill="#f7c7b7"/><circle cx="244.85" cy="88.58" r="10.8" fill="#f7c7b7"/><rect x="287.62" y="227" width="48.9" height="7.24" transform="translate(-40.86 69.34) rotate(-11.91)" fill="#754c24"/><rect x="306.29" y="227.2" width="9.64" height="7.24" transform="translate(-40.92 69.15) rotate(-11.91)" fill="#c9c9c9"/><rect x="324.64" y="224.06" width="2.76" height="7.24" transform="translate(-39.96 72.15) rotate(-11.91)" fill="#c69c6d"/><rect x="294.71" y="230.37" width="2.76" height="7.24" transform="translate(-41.9 66.11) rotate(-11.91)" fill="#c69c6d"/><circle cx="298.88" cy="159.77" r="2.16" fill="#b3d1eb"/><circle cx="301.42" cy="171.8" r="2.16" fill="#b3d1eb"/><circle cx="303.95" cy="183.83" r="2.16" fill="#b3d1eb"/><circle cx="306.49" cy="195.87" r="2.16" fill="#b3d1eb"/><circle cx="309.03" cy="207.9" r="2.16" fill="#b3d1eb"/><circle cx="338.11" cy="231.5" r="10.8" fill="#f7c7b7"/><rect x="343.97" y="171.41" width="22.94" height="59.71" rx="11.47" ry="11.47" transform="translate(148.26 -150.76) rotate(30)" fill="#d9eef9"/><rect x="281.87" y="136.64" width="25.14" height="11.65" rx="5.82" ry="5.82" transform="translate(-23.06 63.81) rotate(-11.91)" fill="#d9eef9"/><path d="M290.8,99.11h0c-2.05.45-4.16-1.22-4.71-3.73l.44-8.62c.07-1.33,1.82-1.76,2.49-.61l4.35,7.37c.09.15.15.31.18.48.42,2.42-.78,4.67-2.76,5.11Z" fill="#db8e73"/><g clip-path="url(#clippath)"><polygon points="289.46 113.33 266.18 118.3 268.83 92.59 290.14 107.53 289.46 113.33" fill="#ad3b3b"/><ellipse cx="273.45" cy="110.55" rx="4.34" ry="6.04" transform="translate(131.76 369.24) rotate(-83.3)" fill="#db8e73"/><rect x="269.04" y="110.77" width="21.6" height="4.2" transform="translate(-12.48 38.06) rotate(-7.61)" fill="#fff"/></g><path d="M304.63,45.44c-1.85-19.69-19.28-34.38-37.15-15.58-17.87,18.8-.17.18-.25.27-5.61,5.88-17.89,11.72-25.33,14.91-3.41,1.46-5.09,5.54-3.87,9.34l2.04,6.34,64.7-13.64-.15-1.63Z" fill="#c69c6d"/><circle cx="275.91" cy="81.74" r="7.86" fill="#fff"/><circle cx="274.39" cy="81.74" r="3.9" fill="#3d3d3d"/><circle cx="295.85" cy="77.78" r="7.86" fill="#fff"/><circle cx="294.29" cy="78.82" r="3.9" fill="#3d3d3d"/><path d="M282.02,95.95l-19.24-5.42,2.14-7.59s3.38-.92,10.11.98c6.73,1.9,9.13,4.44,9.13,4.44l-2.14,7.59Z" fill="#f7c7b7"/><rect x="210.88" y="152.89" width="82.74" height="128.45" rx="25.19" ry="25.19" transform="translate(572.92 306.24) rotate(154.81)" fill="#f7c7b7"/><rect x="105.37" y="107.52" width="61.04" height="226.36" rx="30.52" ry="30.52" transform="translate(390.53 172.43) rotate(110.89)" fill="#f7c7b7"/><rect x="137.84" y="180.47" width="61.04" height="226.36" rx="30.52" ry="30.52" transform="translate(492.08 194.73) rotate(102.83)" fill="#f7c7b7"/><rect x="61.53" y="29.24" width="174.91" height="361.64" rx="28.51" ry="28.51" transform="translate(-67.5 70.58) rotate(-21.86)" fill="#202121"/><g clip-path="url(#clippath-1)"><rect x="68.63" y="35.98" width="160.62" height="347.89" transform="translate(-67.46 70.55) rotate(-21.86)" fill="#fff"/><rect x="26.28" y="93.06" width="160.62" height="22.63" transform="translate(-31.2 47.2) rotate(-21.86)" fill="#05172e"/><g clip-path="url(#clippath-2)"><rect x="82.09" y="103.88" width="160.27" height="277.38" transform="translate(-78.66 77.85) rotate(-21.86)" fill="#f0f2f6"/><rect x="38.07" y="112.39" width="160.27" height="40.93" transform="translate(-40.97 53.57) rotate(-21.86)" fill="#fff"/><rect x="63.73" y="158.54" width="146.55" height="42.54" rx="2.44" ry="2.44" transform="translate(-57.1 63.95) rotate(-21.86)" fill="#fff"/><path d="M82.86,192.73c-.17-.42-.65-.63-1.07-.46s-.63.65-.46,1.07l.51,1.27-1.27.51c-1.12.45-1.67,1.73-1.22,2.85l.2.51.61,1.53,3.26,8.13c.45,1.12,1.73,1.67,2.85,1.22l10.17-4.08c1.12-.45,1.67-1.73,1.22-2.85l-3.26-8.13-.61-1.53-.2-.51c-.45-1.12-1.73-1.67-2.85-1.22l-1.27.51-.51-1.27c-.17-.42-.65-.63-1.07-.46s-.63.65-.46,1.07l.51,1.27-4.58,1.84-.51-1.27ZM81.69,199.39l11.18-4.49,3.26,8.13c.11.28-.02.6-.3.71l-10.17,4.08c-.28.11-.6-.02-.71-.3l-3.26-8.13Z" fill="#05172e" opacity=".3"/><rect x="82.19" y="204.92" width="146.55" height="42.54" rx="2.44" ry="2.44" transform="translate(-73.04 74.15) rotate(-21.86)" fill="#fff"/><path d="M101.31,239.12c-.17-.42-.65-.63-1.07-.46s-.63.65-.46,1.07l.51,1.27-1.27.51c-1.12.45-1.67,1.73-1.22,2.85l.2.51.61,1.53,3.26,8.13c.45,1.12,1.73,1.67,2.85,1.22l10.17-4.08c1.12-.45,1.67-1.73,1.22-2.85l-3.26-8.13-.61-1.53-.2-.51c-.45-1.12-1.73-1.67-2.85-1.22l-1.27.51-.51-1.27c-.17-.42-.65-.63-1.07-.46s-.63.65-.46,1.07l.51,1.27-4.58,1.84-.51-1.27ZM100.15,245.78l11.18-4.49,3.26,8.13c.11.28-.02.6-.3.71l-10.17,4.08c-.28.11-.6-.02-.71-.3l-3.26-8.13Z" fill="#05172e" opacity=".3"/><rect x="100.65" y="251.31" width="146.55" height="42.54" rx="2.44" ry="2.44" transform="translate(-88.99 84.36) rotate(-21.86)" fill="#fff"/><path d="M119.77,285.5c-.17-.42-.65-.63-1.07-.46s-.63.65-.46,1.07l.51,1.27-1.27.51c-1.12.45-1.67,1.73-1.22,2.85l.2.51.61,1.53,3.26,8.13c.45,1.12,1.73,1.67,2.85,1.22l10.17-4.08c1.12-.45,1.67-1.73,1.22-2.85l-3.26-8.13-.61-1.53-.2-.51c-.45-1.12-1.73-1.67-2.85-1.22l-1.27.51-.51-1.27c-.17-.42-.65-.63-1.07-.46s-.63.65-.46,1.07l.51,1.27-4.58,1.84-.51-1.27ZM118.61,292.17l11.18-4.49,3.26,8.13c.11.28-.02.6-.3.71l-10.17,4.08c-.28.11-.6-.02-.71-.3l-3.26-8.13Z" fill="#05172e" opacity=".3"/><rect x="119.1" y="297.7" width="146.55" height="42.54" rx="2.44" ry="2.44" transform="translate(-104.93 94.57) rotate(-21.86)" fill="#fff"/><path d="M138.23,331.89c-.17-.42-.65-.63-1.07-.46s-.63.65-.46,1.07l.51,1.27-1.27.51c-1.12.45-1.67,1.73-1.22,2.85l.2.51.61,1.53,3.26,8.13c.45,1.12,1.73,1.67,2.85,1.22l10.17-4.08c1.12-.45,1.67-1.73,1.22-2.85l-3.26-8.13-.61-1.53-.2-.51c-.45-1.12-1.73-1.67-2.85-1.22l-1.27.51-.51-1.27c-.17-.42-.65-.63-1.07-.46s-.63.65-.46,1.07l.51,1.27-4.58,1.84-.51-1.27ZM137.07,338.55l11.18-4.49,3.26,8.13c.11.28-.02.6-.3.71l-10.17,4.08c-.28.11-.6-.02-.71-.3l-3.26-8.13Z" fill="#05172e" opacity=".3"/><rect x="137.56" y="344.08" width="146.55" height="42.54" rx="2.44" ry="2.44" transform="translate(-120.88 104.78) rotate(-21.86)" fill="#fff"/><path d="M156.4,47.57c-1.19,0-2.41.22-3.58.69l-118.15,47.4c-4.93,1.98-7.33,7.58-5.35,12.51,1.51,3.76,5.12,6.04,8.93,6.04,1.19,0,2.41-.22,3.58-.69l118.15-47.4c4.93-1.98,7.33-7.58,5.35-12.51-1.51-3.76-5.12-6.04-8.93-6.04" fill="#c2cfdd"/><path d="M160.59,157.02c-.19,0-.39.04-.58.11l-55.68,22.34c-.8.32-1.19,1.23-.87,2.04l3.18,7.92c.25.61.83.98,1.46.98.19,0,.39-.04.58-.11l55.68-22.34c.8-.32,1.19-1.23.87-2.04l-3.18-7.92c-.25-.61-.83-.98-1.45-.98" fill="#e1e7ee"/><path d="M142.5,182.29c-.13,0-.27.03-.4.08l-31.74,12.73c-.55.22-.82.85-.6,1.4l2.15,5.37c.17.42.57.68,1,.68.13,0,.27-.03.4-.08l31.74-12.73c.55-.22.82-.85.6-1.4l-2.15-5.37c-.17-.42-.57-.68-1-.68" fill="#e1e7ee"/><path d="M180.8,166.92c-.13,0-.27.03-.4.08l-31.74,12.73c-.55.22-.82.85-.6,1.4l2.15,5.37c.17.42.57.68,1,.68.13,0,.27-.03.4-.08l31.74-12.73c.55-.22.82-.85.6-1.4l-2.15-5.37c-.17-.42-.57-.68-1-.68" fill="#e1e7ee"/><path d="M179.05,203.41c-.19,0-.39.04-.58.11l-55.68,22.34c-.8.32-1.19,1.23-.87,2.04l3.18,7.92c.25.61.83.98,1.45.98.19,0,.39-.04.58-.11l55.68-22.34c.8-.32,1.19-1.23.87-2.04l-3.18-7.92c-.25-.61-.83-.98-1.45-.98" fill="#e1e7ee"/><path d="M160.95,228.68c-.13,0-.27.02-.4.08l-31.74,12.73c-.55.22-.82.85-.6,1.4l2.15,5.37c.17.42.57.68,1,.68.13,0,.27-.03.4-.08l31.74-12.73c.55-.22.82-.85.6-1.4l-2.15-5.37c-.17-.42-.57-.68-1-.68" fill="#e1e7ee"/><path d="M199.25,213.31c-.13,0-.27.02-.4.08l-31.74,12.73c-.55.22-.82.85-.6,1.4l2.15,5.37c.17.42.57.68,1,.68.13,0,.27-.02.4-.08l31.74-12.73c.55-.22.82-.85.6-1.4l-2.15-5.37c-.17-.42-.57-.68-1-.68" fill="#e1e7ee"/><path d="M197.51,249.8c-.19,0-.39.04-.58.11l-55.68,22.34c-.8.32-1.19,1.23-.87,2.04l3.18,7.92c.25.61.83.98,1.46.98.19,0,.39-.04.58-.11l55.68-22.34c.8-.32,1.19-1.23.87-2.04l-3.18-7.92c-.24-.61-.83-.98-1.45-.98" fill="#e1e7ee"/><path d="M179.41,275.06c-.13,0-.27.03-.4.08l-31.74,12.73c-.55.22-.82.85-.6,1.4l2.15,5.37c.17.42.57.68,1,.68.13,0,.27-.03.4-.08l31.74-12.73c.55-.22.82-.85.6-1.4l-2.15-5.37c-.17-.42-.57-.68-1-.68" fill="#e1e7ee"/><path d="M217.71,259.7c-.13,0-.27.02-.4.08l-31.74,12.73c-.55.22-.82.85-.6,1.4l2.16,5.37c.17.42.57.68,1,.68.13,0,.27-.02.4-.08l31.74-12.73c.55-.22.82-.85.6-1.4l-2.16-5.37c-.17-.42-.57-.68-1-.68" fill="#e1e7ee"/><path d="M215.97,296.18c-.19,0-.39.04-.58.11l-55.68,22.34c-.8.32-1.19,1.23-.87,2.04l3.18,7.92c.25.61.83.98,1.45.98.19,0,.39-.04.58-.11l55.68-22.34c.8-.32,1.19-1.23.87-2.04l-3.18-7.92c-.25-.61-.83-.98-1.46-.98" fill="#e1e7ee"/><path d="M197.87,321.45c-.13,0-.27.02-.4.08l-31.74,12.73c-.55.22-.82.85-.6,1.4l2.15,5.37c.17.42.57.68,1,.68.13,0,.27-.03.4-.08l31.74-12.73c.55-.22.82-.85.6-1.4l-2.16-5.37c-.17-.42-.57-.68-1-.68" fill="#e1e7ee"/><path d="M236.17,306.08c-.13,0-.27.03-.4.08l-31.74,12.73c-.55.22-.82.85-.6,1.4l2.15,5.37c.17.42.57.68,1,.68.13,0,.27-.03.4-.08l31.74-12.73c.55-.22.82-.85.6-1.4l-2.15-5.37c-.17-.42-.57-.68-1-.68" fill="#e1e7ee"/><path d="M234.42,342.57c-.19,0-.39.04-.58.11l-55.68,22.34c-.8.32-1.19,1.23-.87,2.04l3.18,7.92c.25.61.83.98,1.45.98.19,0,.39-.04.58-.11l55.68-22.34c.8-.32,1.19-1.23.87-2.04l-3.18-7.92c-.25-.61-.83-.98-1.46-.98" fill="#e1e7ee"/><path d="M216.33,367.84c-.13,0-.27.03-.4.08l-31.74,12.73c-.55.22-.82.85-.6,1.4l2.15,5.37c.17.42.57.68,1,.68.13,0,.27-.03.4-.08l31.74-12.73c.55-.22.82-.85.6-1.4l-2.15-5.37c-.17-.42-.57-.68-1-.68" fill="#e1e7ee"/><path d="M254.63,352.47c-.13,0-.27.03-.4.08l-31.74,12.73c-.55.22-.82.85-.6,1.4l2.16,5.37c.17.42.57.68,1,.68.13,0,.27-.03.4-.08l31.74-12.73c.55-.22.82-.85.6-1.4l-2.16-5.37c-.17-.42-.57-.68-1-.68" fill="#e1e7ee"/><path d="M93.03,184.97c-.44,0-.89.08-1.32.26l-15.86,6.36c-1.82.73-2.71,2.8-1.98,4.63l6.36,15.86c.56,1.39,1.89,2.24,3.31,2.24.44,0,.89-.08,1.32-.26l15.86-6.36c1.83-.73,2.71-2.8,1.98-4.63l-6.36-15.86c-.56-1.39-1.89-2.24-3.31-2.24" fill="#81c0bc"/><path d="M111.49,231.36c-.44,0-.89.08-1.33.26l-15.86,6.36c-1.82.73-2.71,2.81-1.98,4.63l6.36,15.86c.56,1.39,1.89,2.24,3.3,2.24.44,0,.89-.08,1.32-.26l15.86-6.36c1.82-.73,2.71-2.81,1.98-4.63l-6.36-15.86c-.56-1.39-1.89-2.24-3.3-2.24" fill="#ffbdd5"/><path d="M129.95,277.74c-.44,0-.89.08-1.32.26l-15.86,6.36c-1.82.73-2.71,2.81-1.98,4.63l6.36,15.86c.56,1.39,1.89,2.24,3.31,2.24.44,0,.89-.08,1.32-.26l15.86-6.36c1.82-.73,2.71-2.81,1.98-4.63l-6.36-15.86c-.56-1.39-1.89-2.24-3.31-2.24" fill="#ffe27f"/><path d="M148.41,324.13c-.44,0-.89.08-1.32.26l-15.86,6.36c-1.82.73-2.71,2.81-1.98,4.63l6.36,15.86c.56,1.39,1.89,2.24,3.31,2.24.44,0,.89-.08,1.32-.26l15.86-6.36c1.82-.73,2.71-2.81,1.98-4.63l-6.36-15.86c-.56-1.39-1.89-2.24-3.31-2.24" fill="#9ddde1"/><path d="M166.87,370.52c-.44,0-.89.08-1.33.26l-15.86,6.36c-1.82.73-2.71,2.81-1.98,4.63l6.36,15.86c.56,1.39,1.89,2.24,3.31,2.24.44,0,.89-.08,1.32-.26l15.86-6.36c1.82-.73,2.71-2.81,1.98-4.63l-6.36-15.86c-.56-1.39-1.89-2.24-3.3-2.24" fill="#ccafe1"/><path d="M156.69,378.28c-.17-.42-.65-.63-1.07-.46s-.63.65-.46,1.07l.51,1.27-1.27.51c-1.12.45-1.67,1.73-1.22,2.85l.2.51.61,1.53,3.26,8.13c.45,1.12,1.73,1.67,2.85,1.22l10.17-4.08c1.12-.45,1.67-1.73,1.22-2.85l-3.26-8.13-.61-1.53-.2-.51c-.45-1.12-1.73-1.67-2.85-1.22l-1.27.51-.51-1.27c-.17-.42-.65-.63-1.07-.46s-.63.65-.46,1.07l.51,1.27-4.58,1.84-.51-1.27ZM155.52,384.94l11.18-4.49,3.26,8.13c.11.28-.02.6-.3.71l-10.17,4.08c-.28.11-.6-.02-.71-.3l-3.26-8.13Z" fill="#05172e" opacity=".3"/><path d="M138.01,331.89c-.17-.42-.65-.63-1.07-.46s-.63.65-.46,1.07l.51,1.27-1.27.51c-1.12.45-1.67,1.73-1.22,2.85l.2.51.61,1.53,3.26,8.13c.45,1.12,1.73,1.67,2.85,1.22l10.17-4.08c1.12-.45,1.67-1.73,1.22-2.85l-3.26-8.13-.61-1.53-.2-.51c-.45-1.12-1.73-1.67-2.85-1.22l-1.27.51-.51-1.27c-.17-.42-.65-.63-1.07-.46s-.63.65-.46,1.07l.51,1.27-4.58,1.84-.51-1.27ZM136.84,338.56l11.18-4.49,3.26,8.13c.11.28-.02.6-.3.71l-10.17,4.08c-.28.11-.6-.02-.71-.3l-3.26-8.13Z" fill="#05172e" opacity=".3"/><path d="M119.55,285.51c-.17-.42-.65-.63-1.07-.46s-.63.65-.46,1.07l.51,1.27-1.27.51c-1.12.45-1.67,1.73-1.22,2.85l.2.51.61,1.53,3.26,8.13c.45,1.12,1.73,1.67,2.85,1.22l10.17-4.08c1.12-.45,1.67-1.73,1.22-2.85l-3.26-8.13-.61-1.53-.2-.51c-.45-1.12-1.73-1.67-2.85-1.22l-1.27.51-.51-1.27c-.17-.42-.65-.63-1.07-.46s-.63.65-.46,1.07l.51,1.27-4.58,1.84-.51-1.27ZM118.38,292.17l11.18-4.49,3.26,8.13c.11.28-.02.6-.3.71l-10.17,4.08c-.28.11-.6-.02-.71-.3l-3.26-8.13Z" fill="#05172e" opacity=".3"/><path d="M101.09,239.12c-.17-.42-.65-.63-1.07-.46s-.63.65-.46,1.07l.51,1.27-1.27.51c-1.12.45-1.67,1.73-1.22,2.85l.2.51.61,1.53,3.26,8.13c.45,1.12,1.73,1.67,2.85,1.22l10.17-4.08c1.12-.45,1.67-1.73,1.22-2.85l-3.26-8.13-.61-1.53-.2-.51c-.45-1.12-1.73-1.67-2.85-1.22l-1.27.51-.51-1.27c-.17-.42-.65-.63-1.07-.46s-.63.65-.46,1.07l.51,1.27-4.58,1.84-.51-1.27ZM99.93,245.78l11.18-4.49,3.26,8.13c.11.28-.02.6-.3.71l-10.17,4.08c-.28.11-.6-.02-.71-.3l-3.26-8.13Z" fill="#05172e" opacity=".3"/><path d="M82.63,192.73c-.17-.42-.65-.63-1.07-.46s-.63.65-.46,1.07l.51,1.27-1.27.51c-1.12.45-1.67,1.73-1.22,2.85l.2.51.61,1.53,3.26,8.13c.45,1.12,1.73,1.67,2.85,1.22l10.17-4.08c1.12-.45,1.67-1.73,1.22-2.85l-3.26-8.13-.61-1.53-.2-.51c-.45-1.12-1.73-1.67-2.85-1.22l-1.27.51-.51-1.27c-.17-.42-.65-.63-1.07-.46s-.63.65-.46,1.07l.51,1.27-4.58,1.84-.51-1.27ZM81.47,199.4l11.18-4.49,3.26,8.13c.11.28-.02.6-.3.71l-10.17,4.08c-.28.11-.6-.02-.71-.3l-3.26-8.13Z" fill="#05172e" opacity=".3"/></g></g><rect x="62.25" y="53.29" width="53.77" height="15.52" rx="7.76" ry="7.76" transform="translate(-16.32 37.58) rotate(-21.86)"/><path d="M152.65,48.24l-118.15,47.4c-4.93,1.98-7.33,7.58-5.35,12.51s7.58,7.33,12.51,5.35l118.15-47.4c4.93-1.98,7.33-7.58,5.35-12.51-1.98-4.93-7.58-7.33-12.51-5.35" fill="#c2cfdd"/><path d="M71.52,147.17c-1.31.17-2.6.45-3.86.82v-.03s.75-2.25.75-2.25c.05-.15-.01-.31-.15-.39l-2.12-1.11-1.46.39c-.53.14-1.04.34-1.51.61l-1.32.73-.76,2.27c-.05.15.02.31.16.38l2.11,1.1.02.03c-1.17.6-2.29,1.29-3.36,2.07l-.57.42.98,2.44c1.52,3.79,4.83,6.58,8.83,7.43l1.72.37.98-1.45c2.29-3.38,2.74-7.67,1.23-11.45l-.99-2.46-.67.09Z" fill="#fff"/><path d="M71.52,147.17c-1.31.17-2.6.45-3.86.82v-.03s.75-2.25.75-2.25c.05-.15-.01-.31-.15-.39l-2.12-1.11-1.46.39c-.53.14-1.04.34-1.51.61l-1.32.73-.76,2.27c-.05.15.02.31.16.38l2.11,1.1.02.03c-1.17.6-2.29,1.29-3.36,2.07l-.57.42.98,2.44c1.52,3.79,4.83,6.58,8.83,7.43l1.72.37.98-1.45c2.29-3.38,2.74-7.67,1.23-11.45l-.99-2.46-.67.09Z" fill="none" stroke="#122343" stroke-miterlimit="10" stroke-width=".03"/><path d="M66.15,144.21l2.11,1.11c.14.07.2.24.15.39l-.76,2.25v.03c1.27-.37,2.56-.65,3.87-.82l.67-.09.99,2.46c1.52,3.78,1.06,8.08-1.23,11.45l-.98,1.45-1.72-.37c-4-.85-7.3-3.64-8.83-7.43l-.98-2.44.57-.42c1.07-.78,2.19-1.47,3.36-2.07l-.02-.03-2.11-1.1c-.14-.07-.21-.24-.16-.38l.76-2.27,1.32-.73c.48-.26.99-.47,1.51-.61l1.46-.39M66.3,142.85l-.48.13-1.46.39c-.63.17-1.23.41-1.8.72l-1.32.73-.44.24-.16.47-.76,2.27c-.25.75.08,1.56.78,1.92l.07.04c-.5.32-.99.65-1.47,1l-.57.41-.8.59.37.92.98,2.44c1.68,4.19,5.33,7.26,9.75,8.21l1.72.37.84.18.48-.71.98-1.45c2.53-3.73,3.03-8.46,1.35-12.64l-.99-2.46-.37-.92-.98.13-.67.09c-.59.08-1.17.17-1.76.29l.03-.08c.25-.75-.07-1.56-.77-1.93l-2.11-1.11-.44-.23h0Z" fill="#b1b5be"/><g clip-path="url(#clippath-3)"><rect x="62.47" y="150.36" width=".96" height="18.69" transform="translate(-54.94 34.93) rotate(-21.86)" fill="#cf4654"/><rect x="64.25" y="149.65" width=".96" height="18.69" transform="translate(-54.55 35.54) rotate(-21.86)" fill="#cf4654"/><rect x="66.03" y="148.94" width=".96" height="18.69" transform="translate(-54.15 36.15) rotate(-21.86)" fill="#cf4654"/><rect x="70.8" y="147.01" width=".96" height="18.69" transform="translate(-53.09 37.78) rotate(-21.86)" fill="#cf4654"/><rect x="72.58" y="146.3" width=".96" height="18.69" transform="translate(-52.7 38.39) rotate(-21.86)" fill="#cf4654"/><rect x="74.26" y="145.34" width=".96" height="18.69" transform="translate(-52.22 38.95) rotate(-21.86)" fill="#cf4654"/><rect x="68.73" y="154.6" width="1.69" height="8.69" transform="translate(-54.14 37.3) rotate(-21.84)" fill="#b1b5be"/><path d="M68.57,155.01l3,7.47-.98.39-3-7.47.98-.39M68.92,154.18l-.59.24-.98.39-.59.24.24.59,3,7.47.24.59.59-.24.98-.39.59-.24-.24-.59-3-7.47-.24-.59h0Z" fill="#122343"/></g><path d="M72.19,147.09l.99,2.46c1.52,3.78,1.06,8.08-1.23,11.45l-.98,1.45-1.72-.37c-4-.85-7.3-3.64-8.83-7.43l-.98-2.44.57-.42c3.39-2.48,7.35-4.07,11.51-4.61l.67-.09M72.6,146.39l-.49.06-.67.09c-4.26.56-8.34,2.2-11.81,4.73l-.57.42-.4.29.19.46.98,2.44c1.6,4,5.07,6.92,9.29,7.82l1.72.37.42.09.24-.36.98-1.45c2.41-3.56,2.89-8.06,1.29-12.05l-.99-2.46-.18-.46h0Z" fill="#122343"/><path d="M63.12,149.92l-2.02-1.05c-.28-.14-.41-.47-.31-.77l.8-2.38,1.43-.79c.5-.28,1.03-.49,1.59-.64l1.58-.42,2.22,1.17c.28.15.41.47.31.77l-.73,2.16,1.81,6.89-3.25,1.3-3.42-6.24Z" fill="#fff"/><path d="M66.15,144.21l2.11,1.11c.14.07.2.24.15.39l-.76,2.25,1.76,6.71-2.73,1.09-3.33-6.08-2.11-1.1c-.14-.07-.21-.24-.16-.38l.76-2.27,1.32-.73c.48-.26.99-.47,1.51-.61l1.46-.39M66.22,143.53l-.24.06-1.46.39c-.58.15-1.14.38-1.66.67l-1.32.73-.22.12-.08.24-.76,2.27c-.15.45.05.93.47,1.15l1.94,1.01,3.24,5.91.27.5.53-.21,2.73-1.09.52-.21-.14-.55-1.71-6.52.7-2.07c.15-.45-.04-.94-.46-1.16l-2.11-1.11-.22-.12h0Z" fill="#122343"/><path d="M83.64,155.34l-2.56-11.19-2.35.94-.86-3.81,8.65-3.47.86,3.81-2.33.94,2.56,11.19-3.96,1.59Z" fill="#05172e"/><path d="M91.31,135.88l2.97,8.5-.76-9.39,3.17-1.27,3.31,8.36-1.09-9.25,3.92-1.57.69,16.1-3.62,1.45-3.5-8.84.79,9.93-3.62,1.45-6.17-13.9,3.92-1.57Z" fill="#05172e"/><path d="M104.21,130.71l3.94-1.58,3.42,15-3.94,1.58-3.42-15Z" fill="#05172e"/><path d="M110.5,128.18l3.32-1.33c3.58-1.44,5.75-1.59,6.95,1.41.93,2.31.51,4.25-1.18,5.48l4.22,5.47-4.17,1.67-3.18-5.34,1.4,6.05-3.94,1.58-3.42-15ZM116.19,133.21c1.21-.48,1.54-1.54.98-2.94-.33-.83-.89-1.02-1.74-.68-.08.03-.17.09-.27.13l.82,3.58.22-.09Z" fill="#05172e"/><path d="M121.74,123.68l3.96-1.59,2.57,11.28,2.89-1.16.85,3.72-6.85,2.75-3.42-15Z" fill="#05172e"/><path d="M136.73,134.04l-3.38,1.36-2.41-15.41,4.61-1.85,3.02,7.42-.59-8.4,4.59-1.84,4.45,14.59-3.4,1.37-2.91-10.96.85,11.79-2.67,1.07-4.36-10.4,2.2,11.27Z" fill="#05172e"/><path d="M147.28,113.43l4.65-1.87,6.65,13.71-3.98,1.6-.81-2.09-2.33.94.22,2.32-4.04,1.62-.36-16.23ZM152.72,121.9l-2.06-5.24.47,5.87,1.58-.64Z" fill="#05172e"/><path d="M160.79,124.38l-2.56-11.19-2.35.94-.86-3.81,8.65-3.47.86,3.81-2.33.94,2.56,11.19-3.96,1.59Z" fill="#05172e"/><path d="M165.52,106.11l6.98-2.8.84,3.64-3.05,1.22.43,1.92,2.75-1.1.81,3.51-2.75,1.1.46,2.07,3.05-1.22.89,3.87-6.98,2.8-3.42-15Z" fill="#05172e"/><path d="M83.64,155.34l-2.56-11.19-2.35.94-.86-3.81,8.65-3.47.86,3.81-2.33.94,2.56,11.19-3.96,1.59Z" fill="#05172e"/><path d="M91.31,135.88l2.97,8.5-.76-9.39,3.17-1.27,3.31,8.36-1.09-9.25,3.92-1.57.69,16.1-3.62,1.45-3.5-8.84.79,9.93-3.62,1.45-6.17-13.9,3.92-1.57Z" fill="#05172e"/><path d="M104.21,130.71l3.94-1.58,3.42,15-3.94,1.58-3.42-15Z" fill="#05172e"/><path d="M110.5,128.18l3.32-1.33c3.58-1.44,5.75-1.59,6.95,1.41.93,2.31.51,4.25-1.18,5.48l4.22,5.47-4.17,1.67-3.18-5.34,1.4,6.05-3.94,1.58-3.42-15ZM116.19,133.21c1.21-.48,1.54-1.54.98-2.94-.33-.83-.89-1.02-1.74-.68-.08.03-.17.09-.27.13l.82,3.58.22-.09Z" fill="#05172e"/><path d="M121.74,123.68l3.96-1.59,2.57,11.28,2.89-1.16.85,3.72-6.85,2.75-3.42-15Z" fill="#05172e"/><path d="M136.73,134.04l-3.38,1.36-2.41-15.41,4.61-1.85,3.02,7.42-.59-8.4,4.59-1.84,4.45,14.59-3.4,1.37-2.91-10.96.85,11.79-2.67,1.07-4.36-10.4,2.2,11.27Z" fill="#05172e"/><path d="M147.28,113.43l4.65-1.87,6.65,13.71-3.98,1.6-.81-2.09-2.33.94.22,2.32-4.04,1.62-.36-16.23ZM152.72,121.9l-2.06-5.24.47,5.87,1.58-.64Z" fill="#05172e"/><path d="M160.79,124.38l-2.56-11.19-2.35.94-.86-3.81,8.65-3.47.86,3.81-2.33.94,2.56,11.19-3.96,1.59Z" fill="#05172e"/><path d="M165.52,106.11l6.98-2.8.84,3.64-3.05,1.22.43,1.92,2.75-1.1.81,3.51-2.75,1.1.46,2.07,3.05-1.22.89,3.87-6.98,2.8-3.42-15Z" fill="#05172e"/><path d="M271.21,251.62l32.51-14.98-23.6-63.47c-3.24-8.71-9.26-16.12-17.13-21.07l-50.31-31.67s-12.49-1.03-20.38,15.11c-7.89,16.14,18.81,57.85,47.5,64.32,6.98,40.51,31.4,51.76,31.4,51.76Z" fill="#f7c7b7"/><path d="M203.44,41.63s-.08,0-.13,0l-11.31.63c-1.23.07-2.17,1.12-2.1,2.35l.63,11.31c.07,1.19,1.05,2.1,2.22,2.1.04,0,.08,0,.13,0l11.31-.63c1.23-.07,2.17-1.12,2.1-2.35l-.63-11.31c-.07-1.19-1.05-2.1-2.22-2.1" fill="#42a19b"/><path d="M196.05,23.85c-.62,0-1.2.38-1.42,1l-2.59,7.21c-.28.78.12,1.65.91,1.93l7.21,2.59c.17.06.34.09.51.09.62,0,1.2-.38,1.42-1l2.59-7.21c.28-.78-.12-1.65-.91-1.93l-7.21-2.59c-.17-.06-.34-.09-.51-.09" fill="#81c0bc"/><path d="M214.26,32.71c-.26,0-.52.09-.73.28l-4.08,3.74c-.44.4-.47,1.09-.07,1.54l3.73,4.08c.21.23.51.35.8.35.26,0,.53-.09.73-.29l4.08-3.74c.44-.41.47-1.09.07-1.54l-3.74-4.08c-.21-.23-.51-.35-.8-.35" fill="#c0dfdd"/><path d="M82.44,336.94c-1.15,0-2.13.89-2.22,2.06l-.84,11.29c-.09,1.23.83,2.29,2.05,2.39l11.29.84c.06,0,.11,0,.17,0,1.15,0,2.13-.89,2.22-2.06l.84-11.29c.09-1.23-.83-2.29-2.05-2.39l-11.29-.84c-.06,0-.11,0-.17,0" fill="#42a19b"/><path d="M83.21,357.93c-.55,0-1.07.3-1.34.82l-3.51,6.82c-.38.74-.09,1.65.65,2.03l6.81,3.51c.22.11.46.17.69.17.55,0,1.07-.3,1.34-.82l3.51-6.82c.38-.74.09-1.65-.65-2.03l-6.82-3.51c-.22-.11-.46-.17-.69-.17" fill="#81c0bc"/><path d="M70.92,350.23c-.22,0-.43.06-.62.2l-4.53,3.17c-.49.34-.61,1.02-.27,1.51l3.17,4.53c.21.3.55.46.89.46.22,0,.43-.06.62-.2l4.53-3.17c.49-.34.61-1.02.27-1.51l-3.17-4.53c-.21-.3-.55-.46-.89-.46" fill="#c0dfdd"/><g clip-path="url(#clippath-4)"><g opacity=".3"><rect x="-530.4" y="380.62" width="620.72" height="663.46"/></g><rect x="-530.4" y="380.62" width="620.72" height="663.46"/><circle cx="-258.53" cy="657.68" r="270.3" fill="url(#radial-gradient)"/></g></svg>