<?xml version="1.0" encoding="UTF-8"?><svg id="Layer_1" xmlns="http://www.w3.org/2000/svg" width="380.27" height="413.07" xmlns:xlink="http://www.w3.org/1999/xlink" viewBox="0 0 380.27 413.07"><defs><clipPath id="clippath"><rect x="-1.03" width="381.3" height="413.07" fill="none"/></clipPath><radialGradient id="radial-gradient" cx="153.19" cy="142.76" fx="153.19" fy="142.76" r="270.3" gradientUnits="userSpaceOnUse"><stop offset="0" stop-color="#000" stop-opacity="0"/><stop offset="1" stop-color="#000"/></radialGradient><linearGradient id="linear-gradient" x1="9.71" y1="135.37" x2="322.59" y2="135.37" gradientUnits="userSpaceOnUse"><stop offset="0" stop-color="#edaf00" stop-opacity="0"/><stop offset=".5" stop-color="#edaf00"/><stop offset="1" stop-color="#edaf00" stop-opacity="0"/></linearGradient></defs><g clip-path="url(#clippath)"><g opacity=".3"><rect x="-118.69" y="-134.29" width="620.72" height="663.46"/></g><rect x="-118.69" y="-134.29" width="620.72" height="663.46"/><circle cx="285.4" cy="245.43" r="10.08" fill="#f7c7b7"/><circle cx="163.3" cy="90.92" r="10.08" fill="#f7c7b7"/><rect x="254.05" y="300.22" width="21.18" height="33.88" rx="10.59" ry="10.59" fill="#754c24"/><path d="M214.24,303.86l19.38-66.67c1.79-6.17-1.21-12.46-6.7-14.05h0c-5.49-1.6-11.4,2.11-13.19,8.27l-19.38,66.67c-1.8,6.19,1.23,12.51,6.76,14.07h0c5.48,1.55,11.34-2.15,13.12-8.29Z" fill="#c69c6d"/><path d="M272.29,298.4l-18.29-66.98c-1.69-6.19-7.53-9.99-13.05-8.49h0c-5.52,1.51-8.62,7.75-6.93,13.94l18.29,66.98c1.7,6.22,7.59,10.02,13.12,8.47h0c5.48-1.54,8.54-7.76,6.86-13.92Z" fill="#c69c6d"/><path d="M213.91,373.05v-69.43c0-6.42-4.64-11.62-10.35-11.62h0c-5.72,0-10.35,5.2-10.35,11.62v69.43c0,6.45,4.68,11.67,10.42,11.62h0c5.69-.04,10.29-5.23,10.29-11.62Z" fill="#c69c6d"/><circle cx="234.65" cy="236.16" r="19.36" fill="#c69c6d"/><path d="M219.39,229.41l27.55-.23c3.83-.03,6.53,2.41,6.92-1.92l5.87-65.34c.69-7.04-1.82-13.66-5.18-13.66h-41.95c-3.36,0-5.88,6.62-5.18,13.66l6.45,63.76c.52,5.25,3.02,3.72,5.53,3.72Z" fill="#d9eef9"/><rect x="181.86" y="125.06" width="23.95" height="56.29" rx="11.98" ry="11.98" transform="translate(-35.76 244.47) rotate(-60)" fill="#d9eef9"/><rect x="252.66" y="143.98" width="23.95" height="61.54" rx="11.98" ry="11.98" transform="translate(-48.65 223.96) rotate(-42.36)" fill="#d9eef9"/><rect x="162.25" y="94.25" width="22.3" height="62.66" rx="11.15" ry="11.15" transform="translate(-26.95 50.1) rotate(-15.27)" fill="#d9eef9"/><rect x="270.02" y="180.75" width="22.3" height="62.93" rx="11.15" ry="11.15" transform="translate(586.9 387.2) rotate(172.74)" fill="#d9eef9"/><rect x="192.97" y="369.64" width="21.18" height="33.88" rx="10.59" ry="10.59" transform="translate(590.14 183.03) rotate(90)" fill="#754c24"/><rect x="213.8" y="225.3" width="40.13" height="5.91" fill="#754c24"/><rect x="229.1" y="225.3" width="7.91" height="5.91" fill="#c9c9c9"/><rect x="244.43" y="225.3" width="2.26" height="5.91" fill="#c69c6d"/><rect x="219.33" y="225.3" width="2.26" height="5.91" fill="#c69c6d"/><circle cx="233.06" cy="172.62" r="1.76" fill="#b3d1eb"/><circle cx="233.06" cy="182.67" r="1.76" fill="#b3d1eb"/><circle cx="233.06" cy="192.71" r="1.76" fill="#b3d1eb"/><circle cx="233.06" cy="202.76" r="1.76" fill="#b3d1eb"/><circle cx="233.06" cy="212.8" r="1.76" fill="#b3d1eb"/><path d="M226.66,162.54h0c15.63,3.26,31.38-6.92,36.32-23.48l16.38-54.87c1.01-4.83-1.79-9.5-6.25-10.43l-53.55-11.16c-4.46-.93-8.9,2.23-9.9,7.07l-6.91,56.85c-2.09,17.16,8.28,32.78,23.91,36.04Z" fill="#f7c7b7"/><circle cx="270.98" cy="122.65" r="10.18" fill="#f7c7b7"/><circle cx="202.04" cy="108.06" r="10.18" fill="#f7c7b7"/><path d="M278.11,88.44c6.4-19.93-4.45-41.49-29.66-30.64-25.22,10.86-.24.1-.36.15-7.91,3.39-22.29,3.95-30.85,3.96-3.93,0-7.26,3.27-7.65,7.48l-.65,7.02,68.65,13.67.53-1.65Z" fill="#c69c6d"/><path d="M231.43,138.54h0c-2.19-.61-3.35-3.28-2.6-5.96l4.8-8.01c.74-1.23,2.63-.76,2.69.68l.41,9.26c0,.18-.01.38-.07.55-.83,2.52-3.12,4.07-5.23,3.48Z" fill="#db8e73"/><circle cx="228.31" cy="111.48" r="7.81" fill="#fff"/><circle cx="227.2" cy="111.26" r="3.87" fill="#3d3d3d"/><circle cx="246.85" cy="116.84" r="7.81" fill="#fff"/><circle cx="245.81" cy="115.89" r="3.87" fill="#3d3d3d"/><path d="M233.55,101.08s-2.21,5.79-12.26,8.38c-10.04,2.59-14.29-1.13-14.29-1.13l-1.84-6.76,26.55-7.25,1.84,6.76Z" fill="#f7c7b7"/><path d="M265.15,125.7s-6.2-.08-12.1-8.6c-5.9-8.53-3.88-13.81-3.88-13.81l5.7-4.07,15.98,22.41-5.7,4.07Z" fill="#f7c7b7"/><circle cx="220.46" cy="137.68" r="5.26" fill="none"/><circle cx="219.45" cy="144.5" r="5.53" fill="#ad3b3b" stroke="#f7c7b7" stroke-miterlimit="10" stroke-width="1.69"/><circle cx="153.19" cy="142.76" r="270.3" fill="url(#radial-gradient)"/><polygon points="322.59 222.6 174.05 163.48 147.86 163.48 9.71 222.6 9.71 48.14 148.06 112.67 173.48 112.67 322.59 48.14 322.59 222.6" fill="url(#linear-gradient)" fill-opacity=".25"/><rect x="141.92" y="100.38" width="37.71" height="12.29" rx="6.14" ry="6.14" fill="#cf4654"/><rect x="141.72" y="163.48" width="37.71" height="12.29" rx="6.14" ry="6.14" fill="#cf4654"/><rect x="147.1" y="112.67" width="26.95" height="50.81" fill="rgba(237,175,0,.25)" stroke="#cf4654" stroke-miterlimit="10" stroke-width="3.42"/><path d="M148.67,101.41c0-6.62,5.37-11.99,11.99-11.99s11.99,5.37,11.99,11.99" fill="none" stroke="#cf4654" stroke-miterlimit="10" stroke-width="6.11"/><path d="M162.26,95.04l-5.09.23c-2.01.09-3.7-1.45-3.84-3.46-.21-2.97.47-7.1,5.04-9.7,7.01-3.01,14.36,2.47,10.45,3.51-2.49.67-3.38,4.26-3.69,6.77-.18,1.46-1.4,2.57-2.87,2.64Z" fill="#c49a90"/></g></svg>