<?xml version="1.0" encoding="UTF-8"?><svg id="Layer_1" xmlns="http://www.w3.org/2000/svg" width="640.86" height="382.34" xmlns:xlink="http://www.w3.org/1999/xlink" viewBox="0 0 640.86 382.34"><defs><clipPath id="clippath"><path d="M57.56,18.2h117.03c12.03,0,21.79,9.77,21.79,21.79v299.93c0,13.12-10.65,23.77-23.77,23.77H59.54c-13.12,0-23.77-10.65-23.77-23.77V40c0-12.03,9.77-21.79,21.79-21.79Z" fill="none"/></clipPath><clipPath id="clippath-1"><rect x="36.12" y="87.19" width="160.27" height="277.38" fill="none"/></clipPath><clipPath id="clippath-2"><rect x="36.12" y="87.19" width="160.27" height="277.38" fill="none"/></clipPath><clipPath id="clippath-3"><path d="M47.26,81.1l-.73.49-.73-.49c-1.7-1.14-2.71-3.05-2.71-5.09v-1.32s.34-.09.34-.09c2.03-.52,4.17-.52,6.2,0l.33.08v1.32c0,2.04-1.01,3.94-2.7,5.09Z" fill="none"/></clipPath><clipPath id="clippath-4"><path d="M463.92,21h117.03c12.03,0,21.79,9.77,21.79,21.79v299.93c0,13.12-10.65,23.77-23.77,23.77h-113.08c-13.12,0-23.77-10.65-23.77-23.77V42.79c0-12.03,9.77-21.79,21.79-21.79Z" fill="none"/></clipPath><clipPath id="clippath-5"><rect x="442.48" y="89.98" width="160.27" height="277.38" fill="none"/></clipPath><clipPath id="clippath-6"><rect x="442.48" y="89.98" width="160.27" height="277.38" fill="none"/></clipPath><clipPath id="clippath-7"><path d="M453.62,83.89l-.73.49-.73-.49c-1.7-1.14-2.71-3.05-2.71-5.09v-1.32s.34-.09.34-.09c2.03-.52,4.17-.52,6.2,0l.33.08v1.32c0,2.04-1.01,3.94-2.7,5.09Z" fill="none"/></clipPath></defs><g opacity=".4"><rect x="233.53" y="200.7" width="25" height="17.16" fill="#ffc500"/></g><g opacity=".4"><rect x="233.53" y="290.03" width="163" height="17.16" fill="#ffc500"/></g><rect x="28.62" y="9.95" width="174.91" height="361.64" rx="28.51" ry="28.51" fill="#202121"/><g clip-path="url(#clippath)"><rect x="35.77" y="16.68" width="160.62" height="347.89" fill="#fff"/><rect x="42.95" y="42.03" width="146.55" height="19.24" rx="9.62" ry="9.62" fill="#86a0bc" opacity=".5"/><rect x="35.77" y="65.58" width="160.62" height="22.63" fill="#05172e"/><g clip-path="url(#clippath-1)"><rect x="36.12" y="87.19" width="160.27" height="277.38" fill="#f0f2f6"/><rect x="42.51" y="137" width="146.55" height="135.21" rx="4.36" ry="4.36" fill="#fff"/><rect x="48.53" y="144.22" width="63.13" height="11.67" rx="1.57" ry="1.57" fill="#86a0bc" opacity=".25"/><rect x="48.5" y="162.08" width="134.27" height="15.51" rx="1.52" ry="1.52" fill="#fff" opacity=".25" stroke="#86a0bc" stroke-miterlimit="10" stroke-width=".84"/><rect x="48.97" y="192.27" width="63.13" height="11.67" rx="1.57" ry="1.57" fill="#86a0bc" opacity=".25"/><rect x="48.94" y="210.13" width="134.27" height="15.51" rx="1.52" ry="1.52" fill="#fff" opacity=".25" stroke="#86a0bc" stroke-miterlimit="10" stroke-width=".84"/><path d="M180.12,240.31H53.15c-1.47,0-2.66,1.19-2.66,2.66v18.9c0,1.47,1.19,2.66,2.66,2.66h126.97c1.47,0,2.66-1.19,2.66-2.66v-18.9c0-1.47-1.19-2.66-2.66-2.66" fill="#038179"/><path d="M98.62,254.82l.55-1.22c.59.43,1.47.73,2.31.73.96,0,1.35-.32,1.35-.75,0-1.31-4.07-.41-4.07-3.01,0-1.19.96-2.18,2.95-2.18.88,0,1.78.21,2.43.62l-.5,1.23c-.65-.37-1.32-.55-1.94-.55-.96,0-1.33.36-1.33.8,0,1.29,4.07.4,4.07,2.97,0,1.17-.97,2.17-2.97,2.17-1.11,0-2.23-.33-2.85-.81Z" fill="#fff"/><path d="M105.25,248.51c0-.49.39-.87.97-.87s.97.36.97.84c0,.52-.39.9-.97.9s-.97-.38-.97-.87ZM105.44,250.13h1.56v5.38h-1.56v-5.38Z" fill="#fff"/><path d="M114,250.13v4.48c0,2-1.08,2.92-3.02,2.92-1.02,0-2.01-.25-2.64-.74l.62-1.12c.46.37,1.21.61,1.9.61,1.1,0,1.58-.5,1.58-1.47v-.23c-.41.45-1,.67-1.7.67-1.49,0-2.69-1.03-2.69-2.6s1.2-2.6,2.69-2.6c.75,0,1.37.25,1.78.77v-.69h1.48ZM112.46,252.65c0-.79-.59-1.32-1.41-1.32s-1.42.53-1.42,1.32.6,1.32,1.42,1.32,1.41-.53,1.41-1.32Z" fill="#fff"/><path d="M120.95,252.43v3.08h-1.56v-2.84c0-.87-.4-1.27-1.09-1.27-.75,0-1.29.46-1.29,1.45v2.66h-1.56v-5.38h1.49v.63c.42-.46,1.05-.71,1.78-.71,1.27,0,2.23.74,2.23,2.38Z" fill="#fff"/><path d="M125.24,252.43v-3.92h1.62v3.86c0,1.33.58,1.88,1.56,1.88s1.56-.55,1.56-1.88v-3.86h1.6v3.92c0,2.06-1.18,3.2-3.17,3.2s-3.17-1.14-3.17-3.2Z" fill="#fff"/><path d="M138.93,252.82c0,1.69-1.17,2.77-2.68,2.77-.67,0-1.22-.21-1.62-.65v2.51h-1.56v-7.32h1.49v.62c.39-.47.97-.7,1.69-.7,1.51,0,2.68,1.08,2.68,2.77ZM137.35,252.82c0-.93-.59-1.49-1.37-1.49s-1.37.56-1.37,1.49.59,1.49,1.37,1.49,1.37-.56,1.37-1.49Z" fill="#fff"/><g clip-path="url(#clippath-2)"><rect x="36.12" y="87.19" width="160.27" height="40.93" fill="#fff"/></g><rect x="77.42" y="95.72" width="63.13" height="11.67" rx="1.57" ry="1.57" fill="#86a0bc" opacity=".25"/><rect x="77.69" y="112.47" width="36.35" height="7.94" rx="1.08" ry="1.08" fill="#86a0bc" opacity=".25"/><rect x="118.96" y="112.47" width="36.35" height="7.94" rx="1.08" ry="1.08" fill="#86a0bc" opacity=".25"/><rect x="44.49" y="96.36" width="24.21" height="24.21" rx="3.56" ry="3.56" fill="#038179" opacity=".5"/><path d="M54.13,100.02c0-.46-.37-.82-.82-.82s-.82.37-.82.82v1.37s-1.37,0-1.37,0c-1.21,0-2.19.98-2.19,2.19v.55s0,1.64,0,1.64v8.76c0,1.21.98,2.19,2.19,2.19h10.96c1.21,0,2.19-.98,2.19-2.19v-8.76s0-1.64,0-1.64v-.55c0-1.21-.98-2.19-2.19-2.19h-1.37s0-1.37,0-1.37c0-.46-.37-.82-.82-.82s-.82.37-.82.82v1.37s-4.93,0-4.93,0v-1.37ZM50.57,105.77h12.05s0,8.76,0,8.76c0,.3-.25.55-.55.55h-10.96c-.3,0-.55-.25-.55-.55v-8.76Z" fill="#05172e" opacity=".3"/></g></g><rect x="89.13" y="22.44" width="53.77" height="15.52" rx="7.76" ry="7.76"/><path d="M49.63,74.6c-.64-.16-1.29-.28-1.94-.34v-.02s.78-.9.78-.9c.05-.06.05-.15,0-.21l-.77-.91-.75-.09c-.27-.03-.54-.03-.81,0l-.75.09-.77.91c-.05.06-.05.15,0,.21l.77.9v.02c-.65.06-1.3.17-1.94.34l-.34.09v1.32c0,2.04,1.02,3.95,2.71,5.09l.73.49.73-.49c1.69-1.14,2.7-3.05,2.7-5.09v-1.32s-.33-.08-.33-.08Z" fill="#fff"/><path d="M49.63,74.6c-.64-.16-1.29-.28-1.94-.34v-.02s.78-.9.78-.9c.05-.06.05-.15,0-.21l-.77-.91-.75-.09c-.27-.03-.54-.03-.81,0l-.75.09-.77.91c-.05.06-.05.15,0,.21l.77.9v.02c-.65.06-1.3.17-1.94.34l-.34.09v1.32c0,2.04,1.02,3.95,2.71,5.09l.73.49.73-.49c1.69-1.14,2.7-3.05,2.7-5.09v-1.32s-.33-.08-.33-.08Z" fill="none" stroke="#122343" stroke-miterlimit="10" stroke-width=".02"/><path d="M46.53,72.11c.14,0,.27,0,.41.03l.75.09.77.91c.05.06.05.15,0,.21l-.77.9v.02c.65.06,1.3.17,1.94.34l.33.08v1.32c0,2.04-1.01,3.94-2.7,5.09l-.73.49-.73-.49c-1.7-1.14-2.71-3.05-2.71-5.09v-1.32l.34-.09c.64-.16,1.29-.28,1.95-.34v-.02s-.78-.9-.78-.9c-.05-.06-.05-.15,0-.21l.77-.91.75-.09c.14-.02.27-.03.41-.03M46.53,71.47c-.16,0-.32.01-.49.03l-.75.09-.25.03-.16.19-.77.91c-.26.3-.26.74,0,1.04l.03.03c-.29.05-.58.12-.87.19l-.34.09-.48.12v1.81c0,2.26,1.12,4.36,2.99,5.62l.73.49.36.24.36-.24.73-.49c1.87-1.26,2.98-3.36,2.98-5.62v-1.82l-.48-.12-.33-.08c-.29-.07-.58-.14-.87-.19l.03-.03c.26-.3.26-.74,0-1.04l-.77-.91-.16-.19-.25-.03-.75-.09c-.16-.02-.32-.03-.49-.03h0Z" fill="#b1b5be"/><g clip-path="url(#clippath-3)"><rect x="43.09" y="74.15" width=".48" height="9.34" fill="#cf4654"/><rect x="44.04" y="74.15" width=".48" height="9.34" fill="#cf4654"/><rect x="45" y="74.15" width=".48" height="9.34" fill="#cf4654"/><rect x="47.57" y="74.15" width=".48" height="9.34" fill="#cf4654"/><rect x="48.53" y="74.15" width=".48" height="9.34" fill="#cf4654"/><rect x="49.49" y="74.02" width=".48" height="9.34" fill="#cf4654"/><rect x="46.12" y="77.53" width=".85" height="4.34" fill="#b1b5be"/><path d="M46.81,77.69v4.03h-.53v-4.03h.53M47.13,77.37h-1.17v4.66h1.17v-4.66h0Z" fill="#122343"/></g><path d="M46.53,74.21c1.04,0,2.09.13,3.11.39l.33.08v1.32c0,2.04-1.01,3.94-2.7,5.09l-.73.49-.73-.49c-1.7-1.14-2.71-3.05-2.71-5.09v-1.32l.34-.09c1.02-.26,2.05-.39,3.09-.39M46.53,73.89c-1.07,0-2.14.13-3.17.4l-.34.09-.24.06v1.56c0,2.15,1.07,4.16,2.85,5.36l.73.49.18.12.18-.12.73-.49c1.78-1.2,2.84-3.2,2.84-5.35v-1.57l-.24-.06-.33-.08c-1.04-.27-2.11-.4-3.19-.4h0Z" fill="#122343"/><path d="M45.65,77.85l-.43-3.58-.74-.82c-.1-.12-.1-.29,0-.41l.81-.96.81-.1c.14-.02.28-.03.43-.03s.29,0,.43.03l.81.1.82.96c.1.12.1.29,0,.41l-.77.9-.41,3.5h-1.75Z" fill="#fff"/><path d="M46.53,72.11c.14,0,.27,0,.41.03l.75.09.77.91c.05.06.05.15,0,.21l-.77.9-.43,3.44h-1.47l-.42-3.44-.77-.9c-.05-.06-.05-.15,0-.21l.77-.91.75-.09c.14-.02.27-.03.41-.03M46.53,71.79c-.15,0-.3,0-.45.03l-.75.09-.12.02-.08.09-.77.91c-.15.18-.15.44,0,.62l.71.83.4,3.35.03.28h2.03l.03-.28.42-3.35.71-.83c.15-.18.16-.44,0-.62l-.77-.91-.08-.09-.12-.02-.75-.09c-.15-.02-.3-.03-.45-.03h0Z" fill="#122343"/><path d="M53.74,80.65l.9-5.67h-1.27s.31-1.93.31-1.93h4.66s-.31,1.93-.31,1.93h-1.26s-.9,5.67-.9,5.67h-2.13Z" fill="#fff"/><path d="M60.92,73.05l-.2,4.5,1.4-4.5h1.71s-.02,4.5-.02,4.5l1.22-4.5h2.11s-2.68,7.6-2.68,7.6h-1.95s.02-4.75.02-4.75l-1.48,4.75h-1.95s-.28-7.6-.28-7.6h2.11Z" fill="#fff"/><path d="M67.87,73.05h2.12s-1.2,7.6-1.2,7.6h-2.12s1.2-7.6,1.2-7.6Z" fill="#fff"/><path d="M71.26,73.05h1.79c1.93,0,2.96.33,2.96,1.95,0,1.25-.55,2.07-1.57,2.32l.94,3.33h-2.25s-.48-3.07-.48-3.07l-.48,3.07h-2.12s1.2-7.6,1.2-7.6ZM72.96,76.44c.65,0,1-.43,1-1.18,0-.45-.22-.64-.68-.64-.04,0-.1.01-.15.01l-.29,1.81h.12Z" fill="#fff"/><path d="M77.31,73.05h2.13s-.91,5.71-.91,5.71h1.56s-.3,1.89-.3,1.89h-3.69s1.2-7.6,1.2-7.6Z" fill="#fff"/><path d="M82.34,80.65h-1.82s1.75-7.6,1.75-7.6h2.48s.02,4.01.02,4.01l1.29-4.01h2.47s-.65,7.6-.65,7.6h-1.83s.69-5.63.69-5.63l-1.8,5.63h-1.44s-.09-5.64-.09-5.64l-1.08,5.64Z" fill="#fff"/><path d="M91.07,73.05h2.5s.53,7.6.53,7.6h-2.14s.01-1.12.01-1.12h-1.26s-.33,1.12-.33,1.12h-2.17s2.86-7.6,2.86-7.6ZM92.02,77.99l.02-2.81-.87,2.81h.85Z" fill="#fff"/><path d="M95.3,80.65l.9-5.67h-1.27s.31-1.93.31-1.93h4.66s-.31,1.93-.31,1.93h-1.26s-.9,5.67-.9,5.67h-2.13Z" fill="#fff"/><path d="M100.9,73.05h3.76s-.29,1.84-.29,1.84h-1.64s-.16.97-.16.97h1.48s-.28,1.78-.28,1.78h-1.48s-.17,1.04-.17,1.04h1.64s-.31,1.96-.31,1.96h-3.76s1.2-7.6,1.2-7.6Z" fill="#fff"/><path d="M53.74,80.65l.9-5.67h-1.27s.31-1.93.31-1.93h4.66s-.31,1.93-.31,1.93h-1.26s-.9,5.67-.9,5.67h-2.13Z" fill="#fff"/><path d="M60.92,73.05l-.2,4.5,1.4-4.5h1.71s-.02,4.5-.02,4.5l1.22-4.5h2.11s-2.68,7.6-2.68,7.6h-1.95s.02-4.75.02-4.75l-1.48,4.75h-1.95s-.28-7.6-.28-7.6h2.11Z" fill="#fff"/><path d="M67.87,73.05h2.12s-1.2,7.6-1.2,7.6h-2.12s1.2-7.6,1.2-7.6Z" fill="#fff"/><path d="M71.26,73.05h1.79c1.93,0,2.96.33,2.96,1.95,0,1.25-.55,2.07-1.57,2.32l.94,3.33h-2.25s-.48-3.07-.48-3.07l-.48,3.07h-2.12s1.2-7.6,1.2-7.6ZM72.96,76.44c.65,0,1-.43,1-1.18,0-.45-.22-.64-.68-.64-.04,0-.1.01-.15.01l-.29,1.81h.12Z" fill="#fff"/><path d="M77.31,73.05h2.13s-.91,5.71-.91,5.71h1.56s-.3,1.89-.3,1.89h-3.69s1.2-7.6,1.2-7.6Z" fill="#fff"/><path d="M82.34,80.65h-1.82s1.75-7.6,1.75-7.6h2.48s.02,4.01.02,4.01l1.29-4.01h2.47s-.65,7.6-.65,7.6h-1.83s.69-5.63.69-5.63l-1.8,5.63h-1.44s-.09-5.64-.09-5.64l-1.08,5.64Z" fill="#fff"/><path d="M91.07,73.05h2.5s.53,7.6.53,7.6h-2.14s.01-1.12.01-1.12h-1.26s-.33,1.12-.33,1.12h-2.17s2.86-7.6,2.86-7.6ZM92.02,77.99l.02-2.81-.87,2.81h.85Z" fill="#fff"/><path d="M95.3,80.65l.9-5.67h-1.27s.31-1.93.31-1.93h4.66s-.31,1.93-.31,1.93h-1.26s-.9,5.67-.9,5.67h-2.13Z" fill="#fff"/><path d="M100.9,73.05h3.76s-.29,1.84-.29,1.84h-1.64s-.16.97-.16.97h1.48s-.28,1.78-.28,1.78h-1.48s-.17,1.04-.17,1.04h1.64s-.31,1.96-.31,1.96h-3.76s1.2-7.6,1.2-7.6Z" fill="#fff"/><rect x="434.98" y="12.74" width="174.91" height="361.64" rx="28.51" ry="28.51" fill="#202121"/><g clip-path="url(#clippath-4)"><rect x="442.13" y="19.47" width="160.62" height="347.89" fill="#fff"/><rect x="449.3" y="44.83" width="146.55" height="19.24" rx="9.62" ry="9.62" fill="#86a0bc" opacity=".5"/><rect x="442.13" y="68.38" width="160.62" height="22.63" fill="#05172e"/><g clip-path="url(#clippath-5)"><rect x="442.48" y="89.98" width="160.27" height="277.38" fill="#f0f2f6"/><rect x="448.87" y="139.8" width="146.55" height="59.36" rx="2.89" ry="2.89" fill="#fff"/><rect x="491.43" y="147.02" width="63.13" height="11.67" rx="1.57" ry="1.57" fill="#86a0bc" opacity=".25"/><path d="M586.48,167.1h-126.97c-1.47,0-2.66,1.19-2.66,2.66v18.9c0,1.47,1.19,2.66,2.66,2.66h126.97c1.47,0,2.66-1.19,2.66-2.66v-18.9c0-1.47-1.19-2.66-2.66-2.66" fill="#038179"/><path d="M479.48,181.61l.55-1.22c.59.43,1.47.73,2.31.73.96,0,1.35-.32,1.35-.75,0-1.31-4.07-.41-4.07-3.01,0-1.19.96-2.18,2.95-2.18.88,0,1.78.21,2.43.62l-.5,1.23c-.65-.37-1.32-.55-1.94-.55-.96,0-1.33.36-1.33.8,0,1.29,4.07.4,4.07,2.97,0,1.17-.97,2.17-2.97,2.17-1.11,0-2.23-.33-2.85-.81Z" fill="#fff"/><path d="M489.77,182.04c-.32.23-.79.34-1.27.34-1.27,0-2.01-.65-2.01-1.93v-2.21h-.83v-1.2h.83v-1.31h1.56v1.31h1.34v1.2h-1.34v2.19c0,.46.25.71.67.71.23,0,.46-.07.63-.2l.42,1.1Z" fill="#fff"/><path d="M495.41,179.23v3.07h-1.46v-.67c-.29.49-.85.75-1.64.75-1.26,0-2.01-.7-2.01-1.63s.67-1.61,2.31-1.61h1.24c0-.67-.4-1.06-1.24-1.06-.57,0-1.16.19-1.55.5l-.56-1.09c.59-.42,1.46-.65,2.32-.65,1.64,0,2.59.76,2.59,2.39ZM493.85,180.6v-.55h-1.07c-.73,0-.96.27-.96.63,0,.39.33.65.88.65.52,0,.97-.24,1.15-.73Z" fill="#fff"/><path d="M500.16,176.85v1.44c-.13,0-.23-.02-.35-.02-.86,0-1.43.47-1.43,1.5v2.54h-1.56v-5.38h1.49v.71c.38-.52,1.02-.79,1.85-.79Z" fill="#fff"/><path d="M504.75,182.04c-.32.23-.79.34-1.27.34-1.27,0-2.01-.65-2.01-1.93v-2.21h-.83v-1.2h.83v-1.31h1.56v1.31h1.34v1.2h-1.34v2.19c0,.46.25.71.67.71.23,0,.46-.07.63-.2l.42,1.1Z" fill="#fff"/><path d="M513.03,182.3l-1.35-1.95h-1.49v1.95h-1.62v-7h3.03c1.87,0,3.04.97,3.04,2.54,0,1.05-.53,1.82-1.44,2.21l1.57,2.25h-1.74ZM511.51,176.63h-1.32v2.44h1.32c.99,0,1.49-.46,1.49-1.22s-.5-1.22-1.49-1.22Z" fill="#fff"/><path d="M521.05,180.05h-4.07c.15.67.72,1.08,1.54,1.08.57,0,.98-.17,1.35-.52l.83.9c-.5.57-1.25.87-2.22.87-1.86,0-3.07-1.17-3.07-2.77s1.23-2.77,2.87-2.77,2.8,1.06,2.8,2.79c0,.12-.02.29-.03.42ZM516.96,179.14h2.65c-.11-.68-.62-1.12-1.32-1.12s-1.22.43-1.33,1.12Z" fill="#fff"/><path d="M527.67,176.93v4.48c0,2-1.08,2.92-3.02,2.92-1.02,0-2.01-.25-2.64-.74l.62-1.12c.46.37,1.21.61,1.9.61,1.1,0,1.58-.5,1.58-1.47v-.23c-.41.45-1,.67-1.7.67-1.49,0-2.69-1.03-2.69-2.6s1.2-2.6,2.69-2.6c.75,0,1.37.25,1.78.77v-.69h1.48ZM526.13,179.44c0-.79-.59-1.32-1.41-1.32s-1.42.53-1.42,1.32.6,1.32,1.42,1.32,1.41-.53,1.41-1.32Z" fill="#fff"/><path d="M528.93,175.31c0-.49.39-.87.97-.87s.97.36.97.84c0,.52-.39.9-.97.9s-.97-.38-.97-.87ZM529.12,176.93h1.56v5.38h-1.56v-5.38Z" fill="#fff"/><path d="M531.61,181.8l.52-1.12c.48.31,1.21.52,1.87.52.72,0,.99-.19.99-.49,0-.88-3.25.02-3.25-2.13,0-1.02.92-1.74,2.49-1.74.74,0,1.56.17,2.07.47l-.52,1.11c-.53-.3-1.06-.4-1.55-.4-.7,0-1,.22-1,.5,0,.92,3.25.03,3.25,2.15,0,1-.93,1.71-2.54,1.71-.91,0-1.83-.25-2.33-.58Z" fill="#fff"/><path d="M540.91,182.04c-.32.23-.79.34-1.27.34-1.27,0-2.01-.65-2.01-1.93v-2.21h-.83v-1.2h.83v-1.31h1.56v1.31h1.34v1.2h-1.34v2.19c0,.46.25.71.67.71.23,0,.46-.07.63-.2l.42,1.1Z" fill="#fff"/><path d="M545.13,176.85v1.44c-.13,0-.23-.02-.35-.02-.86,0-1.43.47-1.43,1.5v2.54h-1.56v-5.38h1.49v.71c.38-.52,1.02-.79,1.85-.79Z" fill="#fff"/><path d="M550.79,179.23v3.07h-1.46v-.67c-.29.49-.85.75-1.64.75-1.26,0-2.01-.7-2.01-1.63s.67-1.61,2.31-1.61h1.24c0-.67-.4-1.06-1.24-1.06-.57,0-1.16.19-1.55.5l-.56-1.09c.59-.42,1.46-.65,2.32-.65,1.64,0,2.59.76,2.59,2.39ZM549.23,180.6v-.55h-1.07c-.73,0-.96.27-.96.63,0,.39.33.65.88.65.52,0,.97-.24,1.15-.73Z" fill="#fff"/><path d="M555.67,182.04c-.32.23-.79.34-1.27.34-1.27,0-2.01-.65-2.01-1.93v-2.21h-.83v-1.2h.83v-1.31h1.56v1.31h1.34v1.2h-1.34v2.19c0,.46.25.71.67.71.23,0,.46-.07.63-.2l.42,1.1Z" fill="#fff"/><path d="M556.36,175.31c0-.49.39-.87.97-.87s.97.36.97.84c0,.52-.39.9-.97.9s-.97-.38-.97-.87ZM556.55,176.93h1.56v5.38h-1.56v-5.38Z" fill="#fff"/><path d="M559.16,179.61c0-1.62,1.25-2.77,2.96-2.77s2.95,1.15,2.95,2.77-1.24,2.77-2.95,2.77-2.96-1.15-2.96-2.77ZM563.49,179.61c0-.93-.59-1.49-1.37-1.49s-1.38.56-1.38,1.49.6,1.49,1.38,1.49,1.37-.56,1.37-1.49Z" fill="#fff"/><path d="M571.61,179.22v3.08h-1.56v-2.84c0-.87-.4-1.27-1.09-1.27-.75,0-1.29.46-1.29,1.45v2.66h-1.56v-5.38h1.49v.63c.42-.46,1.05-.71,1.78-.71,1.27,0,2.23.74,2.23,2.38Z" fill="#fff"/><g clip-path="url(#clippath-6)"><rect x="442.48" y="89.98" width="160.27" height="40.93" fill="#fff"/></g><rect x="483.78" y="98.51" width="63.13" height="11.67" rx="1.57" ry="1.57" fill="#86a0bc" opacity=".25"/><rect x="484.05" y="115.26" width="36.35" height="7.94" rx="1.08" ry="1.08" fill="#86a0bc" opacity=".25"/><rect x="525.32" y="115.26" width="36.35" height="7.94" rx="1.08" ry="1.08" fill="#86a0bc" opacity=".25"/><rect x="450.84" y="99.15" width="24.21" height="24.21" rx="3.56" ry="3.56" fill="#038179" opacity=".5"/><path d="M460.48,102.82c0-.46-.37-.82-.82-.82s-.82.37-.82.82v1.37s-1.37,0-1.37,0c-1.21,0-2.19.98-2.19,2.19v.55s0,1.64,0,1.64v8.76c0,1.21.98,2.19,2.19,2.19h10.96c1.21,0,2.19-.98,2.19-2.19v-8.76s0-1.64,0-1.64v-.55c0-1.21-.98-2.19-2.19-2.19h-1.37s0-1.37,0-1.37c0-.46-.37-.82-.82-.82s-.82.37-.82.82v1.37s-4.93,0-4.93,0v-1.37ZM456.92,108.57h12.05s0,8.76,0,8.76c0,.3-.25.55-.55.55h-10.96c-.3,0-.55-.25-.55-.55v-8.76Z" fill="#05172e" opacity=".3"/></g></g><rect x="495.48" y="25.23" width="53.77" height="15.52" rx="7.76" ry="7.76"/><path d="M455.99,77.4c-.64-.16-1.29-.28-1.94-.34v-.02s.78-.9.78-.9c.05-.06.05-.15,0-.21l-.77-.91-.75-.09c-.27-.03-.54-.03-.81,0l-.75.09-.77.91c-.05.06-.05.15,0,.21l.77.9v.02c-.65.06-1.3.17-1.94.34l-.34.09v1.32c0,2.04,1.02,3.95,2.71,5.09l.73.49.73-.49c1.69-1.14,2.7-3.05,2.7-5.09v-1.32s-.33-.08-.33-.08Z" fill="#fff"/><path d="M455.99,77.4c-.64-.16-1.29-.28-1.94-.34v-.02s.78-.9.78-.9c.05-.06.05-.15,0-.21l-.77-.91-.75-.09c-.27-.03-.54-.03-.81,0l-.75.09-.77.91c-.05.06-.05.15,0,.21l.77.9v.02c-.65.06-1.3.17-1.94.34l-.34.09v1.32c0,2.04,1.02,3.95,2.71,5.09l.73.49.73-.49c1.69-1.14,2.7-3.05,2.7-5.09v-1.32s-.33-.08-.33-.08Z" fill="none" stroke="#122343" stroke-miterlimit="10" stroke-width=".02"/><path d="M452.89,74.9c.14,0,.27,0,.41.03l.75.09.77.91c.05.06.05.15,0,.21l-.77.9v.02c.65.06,1.3.17,1.94.34l.33.08v1.32c0,2.04-1.01,3.94-2.7,5.09l-.73.49-.73-.49c-1.7-1.14-2.71-3.05-2.71-5.09v-1.32l.34-.09c.64-.16,1.29-.28,1.95-.34v-.02s-.78-.9-.78-.9c-.05-.06-.05-.15,0-.21l.77-.91.75-.09c.14-.02.27-.03.41-.03M452.89,74.26c-.16,0-.32.01-.49.03l-.75.09-.25.03-.16.19-.77.91c-.26.3-.26.74,0,1.04l.03.03c-.29.05-.58.12-.87.19l-.34.09-.48.12v1.81c0,2.26,1.12,4.36,2.99,5.62l.73.49.36.24.36-.24.73-.49c1.87-1.26,2.98-3.36,2.98-5.62v-1.82l-.48-.12-.33-.08c-.29-.07-.58-.14-.87-.19l.03-.03c.26-.3.26-.74,0-1.04l-.77-.91-.16-.19-.25-.03-.75-.09c-.16-.02-.32-.03-.49-.03h0Z" fill="#b1b5be"/><g clip-path="url(#clippath-7)"><rect x="449.44" y="76.95" width=".48" height="9.34" fill="#cf4654"/><rect x="450.4" y="76.95" width=".48" height="9.34" fill="#cf4654"/><rect x="451.36" y="76.95" width=".48" height="9.34" fill="#cf4654"/><rect x="453.93" y="76.94" width=".48" height="9.34" fill="#cf4654"/><rect x="454.89" y="76.94" width=".48" height="9.34" fill="#cf4654"/><rect x="455.84" y="76.81" width=".48" height="9.34" fill="#cf4654"/><rect x="452.48" y="80.32" width=".85" height="4.34" fill="#b1b5be"/><path d="M453.16,80.48v4.03h-.53v-4.03h.53M453.48,80.16h-1.17v4.66h1.17v-4.66h0Z" fill="#122343"/></g><path d="M452.88,77.01c1.04,0,2.09.13,3.11.39l.33.08v1.32c0,2.04-1.01,3.94-2.7,5.09l-.73.49-.73-.49c-1.7-1.14-2.71-3.05-2.71-5.09v-1.32l.34-.09c1.02-.26,2.05-.39,3.09-.39M452.88,76.69c-1.07,0-2.14.13-3.17.4l-.34.09-.24.06v1.56c0,2.15,1.07,4.16,2.85,5.36l.73.49.18.12.18-.12.73-.49c1.78-1.2,2.84-3.2,2.84-5.35v-1.57l-.24-.06-.33-.08c-1.04-.27-2.11-.4-3.19-.4h0Z" fill="#122343"/><path d="M452.01,80.64l-.43-3.58-.74-.82c-.1-.12-.1-.29,0-.41l.81-.96.81-.1c.14-.02.28-.03.43-.03s.29,0,.43.03l.81.1.82.96c.1.12.1.29,0,.41l-.77.9-.41,3.5h-1.75Z" fill="#fff"/><path d="M452.89,74.9c.14,0,.27,0,.41.03l.75.09.77.91c.05.06.05.15,0,.21l-.77.9-.43,3.44h-1.47l-.42-3.44-.77-.9c-.05-.06-.05-.15,0-.21l.77-.91.75-.09c.14-.02.27-.03.41-.03M452.89,74.58c-.15,0-.3,0-.45.03l-.75.09-.12.02-.08.09-.77.91c-.15.18-.15.44,0,.62l.71.83.4,3.35.03.28h2.03l.03-.28.42-3.35.71-.83c.15-.18.16-.44,0-.62l-.77-.91-.08-.09-.12-.02-.75-.09c-.15-.02-.3-.03-.45-.03h0Z" fill="#122343"/><path d="M460.09,83.44l.9-5.67h-1.27s.31-1.93.31-1.93h4.66s-.31,1.93-.31,1.93h-1.26s-.9,5.67-.9,5.67h-2.13Z" fill="#fff"/><path d="M467.28,75.84l-.2,4.5,1.4-4.5h1.71s-.02,4.5-.02,4.5l1.22-4.5h2.11s-2.68,7.6-2.68,7.6h-1.95s.02-4.75.02-4.75l-1.48,4.75h-1.95s-.28-7.6-.28-7.6h2.11Z" fill="#fff"/><path d="M474.23,75.84h2.12s-1.2,7.6-1.2,7.6h-2.12s1.2-7.6,1.2-7.6Z" fill="#fff"/><path d="M477.61,75.84h1.79c1.93,0,2.96.33,2.96,1.95,0,1.25-.55,2.07-1.57,2.32l.94,3.33h-2.25s-.48-3.07-.48-3.07l-.48,3.07h-2.12s1.2-7.6,1.2-7.6ZM479.32,79.23c.65,0,1-.43,1-1.18,0-.45-.22-.64-.68-.64-.04,0-.1.01-.15.01l-.29,1.81h.12Z" fill="#fff"/><path d="M483.67,75.84h2.13s-.91,5.71-.91,5.71h1.56s-.3,1.89-.3,1.89h-3.69s1.2-7.6,1.2-7.6Z" fill="#fff"/><path d="M488.7,83.44h-1.82s1.75-7.6,1.75-7.6h2.48s.02,4.01.02,4.01l1.29-4.01h2.47s-.65,7.6-.65,7.6h-1.83s.69-5.63.69-5.63l-1.8,5.63h-1.44s-.09-5.64-.09-5.64l-1.08,5.64Z" fill="#fff"/><path d="M497.43,75.84h2.5s.53,7.6.53,7.6h-2.14s.01-1.12.01-1.12h-1.26s-.33,1.12-.33,1.12h-2.17s2.86-7.6,2.86-7.6ZM498.38,80.79l.02-2.81-.87,2.81h.85Z" fill="#fff"/><path d="M501.66,83.44l.9-5.67h-1.27s.31-1.93.31-1.93h4.66s-.31,1.93-.31,1.93h-1.26s-.9,5.67-.9,5.67h-2.13Z" fill="#fff"/><path d="M507.26,75.84h3.76s-.29,1.84-.29,1.84h-1.64s-.16.97-.16.97h1.48s-.28,1.78-.28,1.78h-1.48s-.17,1.04-.17,1.04h1.64s-.31,1.96-.31,1.96h-3.76s1.2-7.6,1.2-7.6Z" fill="#fff"/><path d="M460.09,83.44l.9-5.67h-1.27s.31-1.93.31-1.93h4.66s-.31,1.93-.31,1.93h-1.26s-.9,5.67-.9,5.67h-2.13Z" fill="#fff"/><path d="M467.28,75.84l-.2,4.5,1.4-4.5h1.71s-.02,4.5-.02,4.5l1.22-4.5h2.11s-2.68,7.6-2.68,7.6h-1.95s.02-4.75.02-4.75l-1.48,4.75h-1.95s-.28-7.6-.28-7.6h2.11Z" fill="#fff"/><path d="M474.23,75.84h2.12s-1.2,7.6-1.2,7.6h-2.12s1.2-7.6,1.2-7.6Z" fill="#fff"/><path d="M477.61,75.84h1.79c1.93,0,2.96.33,2.96,1.95,0,1.25-.55,2.07-1.57,2.32l.94,3.33h-2.25s-.48-3.07-.48-3.07l-.48,3.07h-2.12s1.2-7.6,1.2-7.6ZM479.32,79.23c.65,0,1-.43,1-1.18,0-.45-.22-.64-.68-.64-.04,0-.1.01-.15.01l-.29,1.81h.12Z" fill="#fff"/><path d="M483.67,75.84h2.13s-.91,5.71-.91,5.71h1.56s-.3,1.89-.3,1.89h-3.69s1.2-7.6,1.2-7.6Z" fill="#fff"/><path d="M488.7,83.44h-1.82s1.75-7.6,1.75-7.6h2.48s.02,4.01.02,4.01l1.29-4.01h2.47s-.65,7.6-.65,7.6h-1.83s.69-5.63.69-5.63l-1.8,5.63h-1.44s-.09-5.64-.09-5.64l-1.08,5.64Z" fill="#fff"/><path d="M497.43,75.84h2.5s.53,7.6.53,7.6h-2.14s.01-1.12.01-1.12h-1.26s-.33,1.12-.33,1.12h-2.17s2.86-7.6,2.86-7.6ZM498.38,80.79l.02-2.81-.87,2.81h.85Z" fill="#fff"/><path d="M501.66,83.44l.9-5.67h-1.27s.31-1.93.31-1.93h4.66s-.31,1.93-.31,1.93h-1.26s-.9,5.67-.9,5.67h-2.13Z" fill="#fff"/><path d="M507.26,75.84h3.76s-.29,1.84-.29,1.84h-1.64s-.16.97-.16.97h1.48s-.28,1.78-.28,1.78h-1.48s-.17,1.04-.17,1.04h1.64s-.31,1.96-.31,1.96h-3.76s1.2-7.6,1.2-7.6Z" fill="#fff"/><path d="M236.66,186.12c0-3.17,2.43-5.43,5.7-5.43,1.81,0,3.33.66,4.32,1.86l-1.56,1.44c-.71-.81-1.59-1.23-2.64-1.23-1.96,0-3.36,1.38-3.36,3.36s1.39,3.36,3.36,3.36c1.05,0,1.94-.42,2.64-1.25l1.56,1.44c-.99,1.22-2.5,1.88-4.33,1.88-3.25,0-5.68-2.26-5.68-5.43Z" fill="#cf4654"/><path d="M253.16,183.18v2.16c-.2-.02-.34-.03-.53-.03-1.29,0-2.14.71-2.14,2.25v3.81h-2.34v-8.07h2.23v1.06c.57-.78,1.53-1.18,2.78-1.18Z" fill="#cf4654"/><path d="M262.34,187.99h-6.1c.22,1,1.08,1.62,2.31,1.62.86,0,1.47-.25,2.03-.78l1.25,1.35c-.75.85-1.88,1.3-3.33,1.3-2.79,0-4.6-1.75-4.6-4.16s1.84-4.15,4.3-4.15,4.2,1.59,4.2,4.18c0,.18-.03.43-.04.63ZM256.21,186.63h3.97c-.17-1.02-.93-1.68-1.98-1.68s-1.83.65-2,1.68Z" fill="#cf4654"/><path d="M270.86,186.76v4.6h-2.19v-1c-.43.74-1.27,1.12-2.46,1.12-1.89,0-3.02-1.05-3.02-2.45s1-2.42,3.46-2.42h1.86c0-1-.6-1.59-1.86-1.59-.85,0-1.74.29-2.32.75l-.84-1.63c.89-.63,2.19-.97,3.48-.97,2.46,0,3.88,1.14,3.88,3.58ZM268.52,188.82v-.83h-1.61c-1.09,0-1.44.41-1.44.95,0,.58.5.97,1.32.97.78,0,1.45-.36,1.72-1.09Z" fill="#cf4654"/><path d="M278.18,190.98c-.48.34-1.19.51-1.91.51-1.91,0-3.01-.97-3.01-2.89v-3.32h-1.25v-1.8h1.25v-1.96h2.34v1.96h2.01v1.8h-2.01v3.29c0,.69.38,1.06,1,1.06.34,0,.69-.1.94-.3l.63,1.65Z" fill="#cf4654"/><path d="M287.11,187.99h-6.1c.22,1,1.08,1.62,2.31,1.62.86,0,1.47-.25,2.03-.78l1.25,1.35c-.75.85-1.88,1.3-3.33,1.3-2.79,0-4.61-1.75-4.61-4.16s1.85-4.15,4.31-4.15,4.2,1.59,4.2,4.18c0,.18-.03.43-.04.63ZM280.97,186.63h3.97c-.17-1.02-.93-1.68-1.98-1.68s-1.83.65-2,1.68Z" fill="#cf4654"/><path d="M300.1,186.76v4.6h-2.19v-1c-.43.74-1.27,1.12-2.46,1.12-1.89,0-3.02-1.05-3.02-2.45s1-2.42,3.46-2.42h1.86c0-1-.6-1.59-1.86-1.59-.85,0-1.74.29-2.32.75l-.84-1.63c.89-.63,2.19-.97,3.48-.97,2.46,0,3.88,1.14,3.88,3.58ZM297.76,188.82v-.83h-1.61c-1.09,0-1.44.41-1.44.95,0,.58.5.97,1.32.97.78,0,1.45-.36,1.72-1.09Z" fill="#cf4654"/><path d="M310.46,186.75v4.62h-2.34v-4.26c0-1.3-.6-1.91-1.63-1.91-1.12,0-1.93.69-1.93,2.17v3.99h-2.34v-8.07h2.23v.94c.63-.69,1.58-1.06,2.67-1.06,1.91,0,3.35,1.11,3.35,3.57Z" fill="#cf4654"/><path d="M323.96,186.76v4.6h-2.19v-1c-.43.74-1.27,1.12-2.46,1.12-1.89,0-3.02-1.05-3.02-2.45s1-2.42,3.46-2.42h1.86c0-1-.6-1.59-1.86-1.59-.85,0-1.74.29-2.32.75l-.84-1.63c.89-.63,2.19-.97,3.48-.97,2.46,0,3.88,1.14,3.88,3.58ZM321.62,188.82v-.83h-1.61c-1.09,0-1.44.41-1.44.95,0,.58.5.97,1.32.97.78,0,1.45-.36,1.72-1.09Z" fill="#cf4654"/><path d="M325.57,187.33c0-2.43,1.87-4.15,4.5-4.15,1.7,0,3.03.73,3.62,2.05l-1.82.97c-.43-.76-1.08-1.11-1.81-1.11-1.18,0-2.12.83-2.12,2.23s.93,2.24,2.12,2.24c.74,0,1.38-.33,1.81-1.11l1.82.99c-.58,1.29-1.92,2.04-3.62,2.04-2.62,0-4.5-1.72-4.5-4.16Z" fill="#cf4654"/><path d="M334.33,187.33c0-2.43,1.87-4.15,4.5-4.15,1.7,0,3.03.73,3.62,2.05l-1.82.97c-.43-.76-1.08-1.11-1.81-1.11-1.18,0-2.12.83-2.12,2.23s.93,2.24,2.12,2.24c.74,0,1.38-.33,1.81-1.11l1.82.99c-.58,1.29-1.92,2.04-3.62,2.04-2.62,0-4.5-1.72-4.5-4.16Z" fill="#cf4654"/><path d="M343.09,187.33c0-2.43,1.88-4.15,4.44-4.15s4.42,1.72,4.42,4.15-1.86,4.16-4.42,4.16-4.44-1.72-4.44-4.16ZM349.58,187.33c0-1.39-.88-2.23-2.05-2.23s-2.07.84-2.07,2.23.9,2.24,2.07,2.24,2.05-.84,2.05-2.24Z" fill="#cf4654"/><path d="M361.64,183.3v8.07h-2.22v-.96c-.61.71-1.51,1.08-2.5,1.08-2.02,0-3.45-1.14-3.45-3.63v-4.56h2.34v4.21c0,1.35.6,1.95,1.63,1.95s1.86-.69,1.86-2.17v-3.99h2.34Z" fill="#cf4654"/><path d="M372.07,186.75v4.62h-2.34v-4.26c0-1.3-.6-1.91-1.63-1.91-1.12,0-1.93.69-1.93,2.17v3.99h-2.34v-8.07h2.23v.94c.63-.69,1.58-1.06,2.67-1.06,1.91,0,3.35,1.11,3.35,3.57Z" fill="#cf4654"/><path d="M379.39,190.98c-.48.34-1.19.51-1.91.51-1.91,0-3.01-.97-3.01-2.89v-3.32h-1.25v-1.8h1.25v-1.96h2.34v1.96h2.01v1.8h-2.01v3.29c0,.69.38,1.06,1,1.06.34,0,.69-.1.94-.3l.63,1.65Z" fill="#cf4654"/><path d="M236.56,209.83c0-2.43,1.88-4.15,4.44-4.15s4.42,1.72,4.42,4.15-1.86,4.16-4.42,4.16-4.44-1.72-4.44-4.16ZM243.05,209.83c0-1.39-.88-2.23-2.05-2.23s-2.07.84-2.07,2.23.9,2.24,2.07,2.24,2.05-.84,2.05-2.24Z" fill="#cf4654"/><path d="M255.23,209.25v4.62h-2.34v-4.26c0-1.3-.6-1.91-1.63-1.91-1.12,0-1.93.69-1.93,2.17v3.99h-2.34v-8.07h2.23v.94c.63-.69,1.58-1.06,2.67-1.06,1.91,0,3.35,1.11,3.35,3.57Z" fill="#cf4654"/><path d="M266.8,213.48c-.48.34-1.19.51-1.91.51-1.91,0-3.01-.97-3.01-2.89v-3.32h-1.25v-1.8h1.25v-1.96h2.34v1.96h2.01v1.8h-2.01v3.29c0,.69.38,1.06,1,1.06.34,0,.69-.1.94-.3l.63,1.65Z" fill="#cf4654"/><path d="M276.37,209.25v4.62h-2.34v-4.26c0-1.3-.6-1.91-1.63-1.91-1.12,0-1.93.69-1.93,2.17v3.99h-2.34v-11.13h2.34v3.9c.63-.63,1.53-.96,2.56-.96,1.91,0,3.35,1.11,3.35,3.57Z" fill="#cf4654"/><path d="M286.43,210.49h-6.1c.22,1,1.08,1.62,2.31,1.62.86,0,1.47-.25,2.03-.78l1.25,1.35c-.75.85-1.88,1.3-3.33,1.3-2.79,0-4.6-1.75-4.6-4.16s1.84-4.15,4.3-4.15,4.2,1.59,4.2,4.18c0,.18-.03.43-.04.63ZM280.3,209.13h3.97c-.17-1.02-.93-1.68-1.98-1.68s-1.83.65-2,1.68Z" fill="#cf4654"/><path d="M291.68,209.83c0-2.43,1.87-4.15,4.5-4.15,1.7,0,3.03.73,3.62,2.05l-1.82.97c-.43-.76-1.08-1.11-1.81-1.11-1.18,0-2.12.83-2.12,2.23s.93,2.24,2.12,2.24c.74,0,1.38-.33,1.81-1.11l1.82.99c-.58,1.29-1.92,2.04-3.62,2.04-2.62,0-4.5-1.72-4.5-4.16Z" fill="#cf4654"/><path d="M300.44,209.83c0-2.43,1.88-4.15,4.44-4.15s4.42,1.72,4.42,4.15-1.86,4.16-4.42,4.16-4.44-1.72-4.44-4.16ZM306.94,209.83c0-1.39-.88-2.23-2.05-2.23s-2.07.84-2.07,2.23.9,2.24,2.07,2.24,2.05-.84,2.05-2.24Z" fill="#cf4654"/><path d="M319.12,209.25v4.62h-2.34v-4.26c0-1.3-.6-1.91-1.63-1.91-1.12,0-1.93.69-1.93,2.17v3.99h-2.34v-8.07h2.23v.94c.63-.69,1.58-1.06,2.67-1.06,1.91,0,3.35,1.11,3.35,3.57Z" fill="#cf4654"/><path d="M326.44,213.48c-.48.34-1.19.51-1.91.51-1.91,0-3.01-.97-3.01-2.89v-3.32h-1.25v-1.8h1.25v-1.96h2.34v1.96h2.01v1.8h-2.01v3.29c0,.69.38,1.06,1,1.06.34,0,.69-.1.94-.3l.63,1.65Z" fill="#cf4654"/><path d="M335.36,210.49h-6.1c.22,1,1.08,1.62,2.31,1.62.86,0,1.47-.25,2.03-.78l1.25,1.35c-.75.85-1.88,1.3-3.33,1.3-2.79,0-4.6-1.75-4.6-4.16s1.84-4.15,4.3-4.15,4.2,1.59,4.2,4.18c0,.18-.03.43-.04.63ZM329.23,209.13h3.97c-.17-1.02-.93-1.68-1.98-1.68s-1.83.65-2,1.68Z" fill="#cf4654"/><path d="M336.19,213.12l.78-1.68c.72.46,1.81.78,2.8.78,1.08,0,1.49-.28,1.49-.73,0-1.32-4.88.03-4.88-3.2,0-1.53,1.38-2.61,3.73-2.61,1.11,0,2.34.25,3.11.71l-.78,1.67c-.79-.45-1.59-.6-2.33-.6-1.05,0-1.5.33-1.5.75,0,1.38,4.88.04,4.88,3.22,0,1.5-1.39,2.57-3.81,2.57-1.37,0-2.75-.38-3.5-.87Z" fill="#cf4654"/><path d="M350.14,213.48c-.48.34-1.19.51-1.91.51-1.91,0-3.01-.97-3.01-2.89v-3.32h-1.25v-1.8h1.25v-1.96h2.34v1.96h2.01v1.8h-2.01v3.29c0,.69.38,1.06,1,1.06.34,0,.69-.1.94-.3l.63,1.65Z" fill="#cf4654"/><path d="M364.49,209.83c0,2.54-1.75,4.16-4.02,4.16-1,0-1.83-.32-2.43-.97v3.76h-2.34v-10.98h2.23v.93c.58-.71,1.46-1.05,2.54-1.05,2.26,0,4.02,1.62,4.02,4.15ZM362.12,209.83c0-1.39-.89-2.23-2.06-2.23s-2.05.84-2.05,2.23.88,2.24,2.05,2.24,2.06-.84,2.06-2.24Z" fill="#cf4654"/><path d="M373.06,209.26v4.6h-2.19v-1c-.43.74-1.27,1.12-2.46,1.12-1.89,0-3.02-1.05-3.02-2.45s1-2.42,3.46-2.42h1.86c0-1-.6-1.59-1.86-1.59-.85,0-1.74.29-2.32.75l-.84-1.63c.89-.63,2.19-.97,3.48-.97,2.46,0,3.88,1.14,3.88,3.58ZM370.72,211.32v-.83h-1.61c-1.09,0-1.44.41-1.44.95,0,.58.5.97,1.32.97.78,0,1.45-.36,1.72-1.09Z" fill="#cf4654"/><path d="M383.58,205.8v6.72c0,3-1.62,4.38-4.53,4.38-1.53,0-3.01-.38-3.96-1.11l.93-1.68c.69.55,1.82.92,2.85.92,1.65,0,2.37-.75,2.37-2.21v-.34c-.61.67-1.5,1-2.55,1-2.23,0-4.04-1.54-4.04-3.9s1.8-3.9,4.04-3.9c1.12,0,2.05.38,2.67,1.15v-1.03h2.22ZM381.27,209.58c0-1.18-.88-1.98-2.12-1.98s-2.13.79-2.13,1.98.9,1.98,2.13,1.98,2.12-.79,2.12-1.98Z" fill="#cf4654"/><path d="M393.62,210.49h-6.1c.22,1,1.08,1.62,2.31,1.62.86,0,1.47-.25,2.03-.78l1.25,1.35c-.75.85-1.88,1.3-3.33,1.3-2.79,0-4.61-1.75-4.61-4.16s1.85-4.15,4.31-4.15,4.2,1.59,4.2,4.18c0,.18-.03.43-.04.63ZM387.48,209.13h3.97c-.17-1.02-.93-1.68-1.98-1.68s-1.83.65-2,1.68Z" fill="#cf4654"/><path d="M244.24,278.11h-4.87l-.93,2.25h-2.49l4.68-10.5h2.4l4.7,10.5h-2.55l-.93-2.25ZM243.47,276.27l-1.67-4.02-1.67,4.02h3.33Z" fill="#cf4654"/><path d="M251.21,272.47h2.07v1.8h-2.01v6.09h-2.34v-6.09h-1.25v-1.8h1.25v-.36c0-1.81,1.11-3,3.12-3,.66,0,1.35.14,1.79.44l-.62,1.69c-.25-.18-.58-.28-.94-.28-.69,0-1.07.38-1.07,1.17v.34Z" fill="#cf4654"/><path d="M259.66,279.97c-.48.34-1.19.51-1.91.51-1.91,0-3.01-.97-3.01-2.89v-3.32h-1.25v-1.8h1.25v-1.96h2.34v1.96h2.01v1.8h-2.01v3.29c0,.69.38,1.06,1,1.06.34,0,.69-.1.94-.3l.63,1.65Z" fill="#cf4654"/><path d="M268.58,276.99h-6.1c.22,1,1.08,1.62,2.31,1.62.86,0,1.47-.25,2.03-.78l1.25,1.35c-.75.85-1.88,1.3-3.33,1.3-2.79,0-4.61-1.75-4.61-4.16s1.85-4.15,4.31-4.15,4.2,1.59,4.2,4.18c0,.18-.03.43-.04.63ZM262.45,275.62h3.97c-.17-1.02-.93-1.68-1.98-1.68s-1.83.65-2,1.68Z" fill="#cf4654"/><path d="M275.2,272.18v2.16c-.2-.02-.34-.03-.53-.03-1.29,0-2.14.71-2.14,2.25v3.81h-2.34v-8.07h2.23v1.06c.57-.78,1.53-1.18,2.78-1.18Z" fill="#cf4654"/><path d="M288.04,275.76v4.6h-2.19v-1c-.43.74-1.27,1.12-2.46,1.12-1.89,0-3.02-1.05-3.02-2.45s1-2.42,3.46-2.42h1.86c0-1-.6-1.59-1.86-1.59-.85,0-1.74.29-2.32.75l-.84-1.63c.89-.63,2.19-.97,3.48-.97,2.46,0,3.88,1.14,3.88,3.58ZM285.7,277.81v-.83h-1.61c-1.09,0-1.44.41-1.44.95,0,.58.5.97,1.32.97.78,0,1.45-.36,1.72-1.09Z" fill="#cf4654"/><path d="M289.64,276.33c0-2.43,1.88-4.15,4.5-4.15,1.7,0,3.03.73,3.62,2.05l-1.82.97c-.43-.76-1.08-1.11-1.81-1.11-1.18,0-2.12.83-2.12,2.23s.93,2.24,2.12,2.24c.74,0,1.38-.33,1.81-1.11l1.82.99c-.58,1.29-1.92,2.04-3.62,2.04-2.62,0-4.5-1.72-4.5-4.16Z" fill="#cf4654"/><path d="M298.4,276.33c0-2.43,1.87-4.15,4.5-4.15,1.7,0,3.03.73,3.62,2.05l-1.82.97c-.43-.76-1.08-1.11-1.81-1.11-1.18,0-2.12.83-2.12,2.23s.93,2.24,2.12,2.24c.74,0,1.38-.33,1.81-1.11l1.82.99c-.58,1.29-1.92,2.04-3.62,2.04-2.62,0-4.5-1.72-4.5-4.16Z" fill="#cf4654"/><path d="M307.16,276.33c0-2.43,1.87-4.15,4.44-4.15s4.42,1.72,4.42,4.15-1.86,4.16-4.42,4.16-4.44-1.72-4.44-4.16ZM313.66,276.33c0-1.39-.88-2.23-2.05-2.23s-2.07.84-2.07,2.23.9,2.24,2.07,2.24,2.05-.84,2.05-2.24Z" fill="#cf4654"/><path d="M325.72,272.3v8.07h-2.22v-.96c-.61.71-1.51,1.08-2.5,1.08-2.02,0-3.45-1.14-3.45-3.63v-4.56h2.34v4.21c0,1.35.6,1.95,1.63,1.95s1.86-.69,1.86-2.17v-3.99h2.34Z" fill="#cf4654"/><path d="M336.14,275.74v4.62h-2.34v-4.26c0-1.3-.6-1.91-1.63-1.91-1.12,0-1.93.69-1.93,2.17v3.99h-2.34v-8.07h2.23v.94c.63-.69,1.58-1.06,2.67-1.06,1.91,0,3.35,1.11,3.35,3.57Z" fill="#cf4654"/><path d="M343.46,279.97c-.48.34-1.19.51-1.91.51-1.91,0-3.01-.97-3.01-2.89v-3.32h-1.25v-1.8h1.25v-1.96h2.34v1.96h2.01v1.8h-2.01v3.29c0,.69.38,1.06,1,1.06.34,0,.69-.1.94-.3l.63,1.65Z" fill="#cf4654"/><path d="M348.25,279.61l.78-1.68c.72.46,1.81.78,2.8.78,1.08,0,1.49-.28,1.49-.73,0-1.32-4.88.03-4.88-3.2,0-1.53,1.38-2.61,3.73-2.61,1.11,0,2.34.25,3.11.71l-.78,1.67c-.79-.45-1.59-.6-2.33-.6-1.05,0-1.5.33-1.5.75,0,1.38,4.88.04,4.88,3.22,0,1.5-1.39,2.57-3.81,2.57-1.37,0-2.75-.38-3.5-.87Z" fill="#cf4654"/><path d="M364.85,276.99h-6.1c.22,1,1.08,1.62,2.31,1.62.86,0,1.47-.25,2.03-.78l1.25,1.35c-.75.85-1.88,1.3-3.33,1.3-2.79,0-4.61-1.75-4.61-4.16s1.85-4.15,4.31-4.15,4.2,1.59,4.2,4.18c0,.18-.03.43-.04.63ZM358.72,275.62h3.97c-.17-1.02-.93-1.68-1.98-1.68s-1.83.65-2,1.68Z" fill="#cf4654"/><path d="M371.66,279.97c-.48.34-1.19.51-1.91.51-1.91,0-3.01-.97-3.01-2.89v-3.32h-1.25v-1.8h1.25v-1.96h2.34v1.96h2.01v1.8h-2.01v3.29c0,.69.38,1.06,1,1.06.34,0,.69-.1.94-.3l.63,1.65Z" fill="#cf4654"/><path d="M381.11,272.3v8.07h-2.22v-.96c-.61.71-1.51,1.08-2.5,1.08-2.02,0-3.45-1.14-3.45-3.63v-4.56h2.34v4.21c0,1.35.6,1.95,1.63,1.95s1.86-.69,1.86-2.17v-3.99h2.34Z" fill="#cf4654"/><path d="M392.07,276.33c0,2.54-1.75,4.16-4.02,4.16-1,0-1.83-.32-2.43-.97v3.76h-2.34v-10.98h2.23v.93c.58-.71,1.46-1.05,2.54-1.05,2.26,0,4.02,1.62,4.02,4.15ZM389.71,276.33c0-1.39-.89-2.23-2.06-2.23s-2.05.84-2.05,2.23.88,2.24,2.05,2.24,2.06-.84,2.06-2.24Z" fill="#cf4654"/><path d="M395.87,279.01c0,.39-.06.67-.41,1.5l-.85,2.16h-1.49l.66-2.38c-.5-.19-.81-.66-.81-1.27,0-.87.63-1.44,1.45-1.44s1.44.58,1.44,1.44Z" fill="#cf4654"/><path d="M244.3,298.26v4.6h-2.19v-1c-.43.74-1.27,1.12-2.46,1.12-1.89,0-3.02-1.05-3.02-2.45s1-2.42,3.46-2.42h1.86c0-1-.6-1.59-1.86-1.59-.85,0-1.74.29-2.32.75l-.84-1.63c.89-.63,2.19-.97,3.48-.97,2.46,0,3.88,1.14,3.88,3.58ZM241.96,300.31v-.83h-1.61c-1.09,0-1.44.41-1.44.95,0,.58.5.97,1.32.97.78,0,1.45-.36,1.72-1.09Z" fill="#cf4654"/><path d="M254.54,294.8v8.07h-2.22v-.96c-.61.71-1.51,1.08-2.5,1.08-2.02,0-3.45-1.14-3.45-3.63v-4.56h2.34v4.21c0,1.35.6,1.95,1.63,1.95s1.86-.69,1.86-2.17v-3.99h2.34Z" fill="#cf4654"/><path d="M261.92,302.47c-.48.34-1.19.51-1.91.51-1.91,0-3.01-.97-3.01-2.89v-3.32h-1.25v-1.8h1.25v-1.96h2.34v1.96h2.01v1.8h-2.01v3.29c0,.69.38,1.06,1,1.06.34,0,.69-.1.94-.3l.63,1.65Z" fill="#cf4654"/><path d="M262.39,298.83c0-2.43,1.88-4.15,4.44-4.15s4.42,1.72,4.42,4.15-1.86,4.16-4.42,4.16-4.44-1.72-4.44-4.16ZM268.88,298.83c0-1.39-.88-2.23-2.05-2.23s-2.07.84-2.07,2.23.9,2.24,2.07,2.24,2.05-.84,2.05-2.24Z" fill="#cf4654"/><path d="M286.45,298.24v4.62h-2.34v-4.26c0-1.3-.58-1.91-1.53-1.91-1.05,0-1.79.67-1.79,2.12v4.05h-2.34v-4.26c0-1.3-.55-1.91-1.53-1.91-1.03,0-1.77.67-1.77,2.12v4.05h-2.34v-8.07h2.23v.93c.6-.69,1.5-1.05,2.54-1.05,1.12,0,2.08.43,2.66,1.32.64-.82,1.69-1.32,2.91-1.32,1.92,0,3.3,1.11,3.3,3.57Z" fill="#cf4654"/><path d="M295.69,298.26v4.6h-2.19v-1c-.43.74-1.27,1.12-2.46,1.12-1.89,0-3.02-1.05-3.02-2.45s1-2.42,3.46-2.42h1.86c0-1-.6-1.59-1.86-1.59-.85,0-1.74.29-2.32.75l-.84-1.63c.89-.63,2.19-.97,3.48-.97,2.46,0,3.88,1.14,3.88,3.58ZM293.35,300.31v-.83h-1.61c-1.09,0-1.44.41-1.44.95,0,.58.5.97,1.32.97.78,0,1.45-.36,1.72-1.09Z" fill="#cf4654"/><path d="M303.01,302.47c-.48.34-1.19.51-1.91.51-1.91,0-3.01-.97-3.01-2.89v-3.32h-1.25v-1.8h1.25v-1.96h2.34v1.96h2.01v1.8h-2.01v3.29c0,.69.38,1.06,1,1.06.34,0,.69-.1.94-.3l.63,1.65Z" fill="#cf4654"/><path d="M304.04,292.36c0-.73.58-1.3,1.46-1.3s1.46.54,1.46,1.26c0,.78-.58,1.35-1.46,1.35s-1.46-.57-1.46-1.31ZM304.33,294.8h2.34v8.07h-2.34v-8.07Z" fill="#cf4654"/><path d="M308.24,298.83c0-2.43,1.87-4.15,4.5-4.15,1.7,0,3.03.73,3.62,2.05l-1.82.97c-.43-.76-1.08-1.11-1.81-1.11-1.18,0-2.12.83-2.12,2.23s.93,2.24,2.12,2.24c.74,0,1.38-.33,1.81-1.11l1.82.99c-.58,1.29-1.92,2.04-3.62,2.04-2.62,0-4.5-1.72-4.5-4.16Z" fill="#cf4654"/><path d="M324.85,298.26v4.6h-2.19v-1c-.43.74-1.27,1.12-2.46,1.12-1.89,0-3.02-1.05-3.02-2.45s1-2.42,3.46-2.42h1.86c0-1-.6-1.59-1.86-1.59-.85,0-1.74.29-2.32.75l-.84-1.63c.89-.63,2.19-.97,3.48-.97,2.46,0,3.88,1.14,3.88,3.58ZM322.51,300.31v-.83h-1.61c-1.09,0-1.44.41-1.44.95,0,.58.5.97,1.32.97.78,0,1.45-.36,1.72-1.09Z" fill="#cf4654"/><path d="M326.96,291.73h2.34v11.13h-2.34v-11.13Z" fill="#cf4654"/><path d="M331.48,291.73h2.34v11.13h-2.34v-11.13Z" fill="#cf4654"/><path d="M344,294.8l-3.65,8.56c-.78,1.95-1.89,2.54-3.34,2.54-.82,0-1.72-.27-2.25-.74l.86-1.67c.36.32.85.51,1.32.51.64,0,1-.29,1.32-1l.03-.08-3.5-8.13h2.42l2.26,5.47,2.28-5.47h2.25Z" fill="#cf4654"/><path d="M357.99,298.83c0,2.54-1.75,4.16-4.02,4.16-1.08,0-1.95-.34-2.54-1.05v.93h-2.23v-11.13h2.34v3.92c.6-.66,1.42-.97,2.43-.97,2.26,0,4.02,1.62,4.02,4.15ZM355.63,298.83c0-1.39-.89-2.23-2.06-2.23s-2.05.84-2.05,2.23.88,2.24,2.05,2.24,2.06-.84,2.06-2.24Z" fill="#cf4654"/><path d="M367.41,299.49h-6.1c.22,1,1.08,1.62,2.31,1.62.86,0,1.47-.25,2.03-.78l1.25,1.35c-.75.85-1.88,1.3-3.33,1.3-2.79,0-4.61-1.75-4.61-4.16s1.85-4.15,4.31-4.15,4.2,1.59,4.2,4.18c0,.18-.03.43-.04.63ZM361.28,298.12h3.97c-.17-1.02-.93-1.68-1.98-1.68s-1.83.65-2,1.68Z" fill="#cf4654"/><path d="M377.34,294.8v6.72c0,3-1.62,4.38-4.53,4.38-1.53,0-3.01-.38-3.96-1.11l.93-1.68c.69.55,1.82.92,2.85.92,1.65,0,2.37-.75,2.37-2.21v-.34c-.61.67-1.5,1-2.55,1-2.23,0-4.04-1.54-4.04-3.9s1.8-3.9,4.04-3.9c1.12,0,2.05.38,2.67,1.15v-1.03h2.22ZM375.03,298.57c0-1.18-.88-1.98-2.12-1.98s-2.13.79-2.13,1.98.9,1.98,2.13,1.98,2.12-.79,2.12-1.98Z" fill="#cf4654"/><path d="M379.23,292.36c0-.73.58-1.3,1.46-1.3s1.46.54,1.46,1.26c0,.78-.58,1.35-1.46,1.35s-1.46-.57-1.46-1.31ZM379.52,294.8h2.34v8.07h-2.34v-8.07Z" fill="#cf4654"/><path d="M392.28,298.24v4.62h-2.34v-4.26c0-1.3-.6-1.91-1.63-1.91-1.12,0-1.93.69-1.93,2.17v3.99h-2.34v-8.07h2.23v.94c.63-.69,1.58-1.06,2.67-1.06,1.91,0,3.35,1.11,3.35,3.57Z" fill="#cf4654"/><path d="M242.17,317.18v2.16c-.2-.02-.34-.03-.53-.03-1.29,0-2.14.71-2.14,2.25v3.81h-2.34v-8.07h2.23v1.06c.57-.78,1.53-1.18,2.78-1.18Z" fill="#cf4654"/><path d="M251.35,321.99h-6.1c.22,1,1.08,1.62,2.31,1.62.86,0,1.47-.25,2.03-.78l1.25,1.35c-.75.85-1.88,1.3-3.33,1.3-2.79,0-4.61-1.75-4.61-4.16s1.85-4.15,4.31-4.15,4.2,1.59,4.2,4.18c0,.18-.03.43-.04.63ZM245.21,320.62h3.97c-.17-1.02-.93-1.68-1.98-1.68s-1.83.65-2,1.68Z" fill="#cf4654"/><path d="M261.28,317.3v6.72c0,3-1.62,4.38-4.53,4.38-1.53,0-3.01-.38-3.96-1.11l.93-1.68c.69.55,1.82.92,2.85.92,1.65,0,2.37-.75,2.37-2.21v-.34c-.61.67-1.5,1-2.55,1-2.23,0-4.04-1.54-4.04-3.9s1.8-3.9,4.04-3.9c1.12,0,2.05.38,2.67,1.15v-1.03h2.22ZM258.97,321.07c0-1.18-.88-1.98-2.12-1.98s-2.13.79-2.13,1.98.9,1.98,2.13,1.98,2.12-.79,2.12-1.98Z" fill="#cf4654"/><path d="M263.17,314.86c0-.73.58-1.3,1.46-1.3s1.46.54,1.46,1.26c0,.78-.58,1.35-1.46,1.35s-1.46-.57-1.46-1.31ZM263.45,317.3h2.34v8.07h-2.34v-8.07Z" fill="#cf4654"/><path d="M267.19,324.61l.78-1.68c.72.46,1.81.78,2.8.78,1.08,0,1.49-.28,1.49-.73,0-1.32-4.88.03-4.88-3.2,0-1.53,1.38-2.61,3.73-2.61,1.11,0,2.34.25,3.11.71l-.78,1.67c-.79-.45-1.59-.6-2.33-.6-1.05,0-1.5.33-1.5.75,0,1.38,4.88.04,4.88,3.22,0,1.5-1.39,2.57-3.81,2.57-1.37,0-2.75-.38-3.5-.87Z" fill="#cf4654"/><path d="M281.14,324.97c-.48.34-1.19.51-1.91.51-1.91,0-3.01-.97-3.01-2.89v-3.32h-1.25v-1.8h1.25v-1.96h2.34v1.96h2.01v1.8h-2.01v3.29c0,.69.38,1.06,1,1.06.34,0,.69-.1.94-.3l.63,1.65Z" fill="#cf4654"/><path d="M287.47,317.18v2.16c-.2-.02-.34-.03-.53-.03-1.29,0-2.14.71-2.14,2.25v3.81h-2.34v-8.07h2.23v1.06c.57-.78,1.53-1.18,2.78-1.18Z" fill="#cf4654"/><path d="M295.96,320.76v4.6h-2.19v-1c-.43.74-1.27,1.12-2.46,1.12-1.89,0-3.02-1.05-3.02-2.45s1-2.42,3.46-2.42h1.86c0-1-.6-1.59-1.86-1.59-.85,0-1.74.29-2.32.75l-.84-1.63c.89-.63,2.19-.97,3.48-.97,2.46,0,3.88,1.14,3.88,3.58ZM293.62,322.81v-.83h-1.61c-1.09,0-1.44.41-1.44.95,0,.58.5.97,1.32.97.78,0,1.45-.36,1.72-1.09Z" fill="#cf4654"/><path d="M303.28,324.97c-.48.34-1.19.51-1.91.51-1.91,0-3.01-.97-3.01-2.89v-3.32h-1.25v-1.8h1.25v-1.96h2.34v1.96h2.01v1.8h-2.01v3.29c0,.69.38,1.06,1,1.06.34,0,.69-.1.94-.3l.63,1.65Z" fill="#cf4654"/><path d="M304.31,314.86c0-.73.58-1.3,1.46-1.3s1.46.54,1.46,1.26c0,.78-.58,1.35-1.46,1.35s-1.46-.57-1.46-1.31ZM304.6,317.3h2.34v8.07h-2.34v-8.07Z" fill="#cf4654"/><path d="M308.51,321.33c0-2.43,1.88-4.15,4.44-4.15s4.42,1.72,4.42,4.15-1.86,4.16-4.42,4.16-4.44-1.72-4.44-4.16ZM315.01,321.33c0-1.39-.88-2.23-2.05-2.23s-2.07.84-2.07,2.23.9,2.24,2.07,2.24,2.05-.84,2.05-2.24Z" fill="#cf4654"/><path d="M327.19,320.74v4.62h-2.34v-4.26c0-1.3-.6-1.91-1.63-1.91-1.12,0-1.93.69-1.93,2.17v3.99h-2.34v-8.07h2.23v.94c.63-.69,1.58-1.06,2.67-1.06,1.91,0,3.35,1.11,3.35,3.57Z" fill="#cf4654"/><path d="M336.11,317.47h2.07v1.8h-2.01v6.09h-2.34v-6.09h-1.25v-1.8h1.25v-.36c0-1.81,1.11-3,3.12-3,.66,0,1.35.14,1.79.44l-.62,1.69c-.25-.18-.58-.28-.94-.28-.69,0-1.07.38-1.07,1.17v.34Z" fill="#cf4654"/><path d="M338.65,321.33c0-2.43,1.88-4.15,4.44-4.15s4.42,1.72,4.42,4.15-1.86,4.16-4.42,4.16-4.44-1.72-4.44-4.16ZM345.14,321.33c0-1.39-.88-2.23-2.05-2.23s-2.07.84-2.07,2.23.9,2.24,2.07,2.24,2.05-.84,2.05-2.24Z" fill="#cf4654"/><path d="M354.08,317.18v2.16c-.2-.02-.34-.03-.53-.03-1.29,0-2.14.71-2.14,2.25v3.81h-2.34v-8.07h2.23v1.06c.57-.78,1.53-1.18,2.78-1.18Z" fill="#cf4654"/><path d="M364.99,324.97c-.48.34-1.19.51-1.91.51-1.91,0-3.01-.97-3.01-2.89v-3.32h-1.25v-1.8h1.25v-1.96h2.34v1.96h2.01v1.8h-2.01v3.29c0,.69.38,1.06,1,1.06.34,0,.69-.1.94-.3l.63,1.65Z" fill="#cf4654"/><path d="M373.45,320.76v4.6h-2.19v-1c-.43.74-1.27,1.12-2.46,1.12-1.89,0-3.02-1.05-3.02-2.45s1-2.42,3.46-2.42h1.86c0-1-.6-1.59-1.86-1.59-.85,0-1.74.29-2.32.75l-.84-1.63c.89-.63,2.19-.97,3.48-.97,2.46,0,3.88,1.14,3.88,3.58ZM371.11,322.81v-.83h-1.61c-1.09,0-1.44.41-1.44.95,0,.58.5.97,1.32.97.78,0,1.45-.36,1.72-1.09Z" fill="#cf4654"/><path d="M380.57,317.18v2.16c-.2-.02-.34-.03-.53-.03-1.29,0-2.14.71-2.14,2.25v3.81h-2.34v-8.07h2.23v1.06c.57-.78,1.53-1.18,2.78-1.18Z" fill="#cf4654"/><path d="M390.22,317.3v6.72c0,3-1.62,4.38-4.53,4.38-1.53,0-3.01-.38-3.96-1.11l.93-1.68c.69.55,1.82.92,2.85.92,1.65,0,2.37-.75,2.37-2.21v-.34c-.61.67-1.5,1-2.55,1-2.23,0-4.04-1.54-4.04-3.9s1.8-3.9,4.04-3.9c1.12,0,2.05.38,2.67,1.15v-1.03h2.22ZM387.91,321.07c0-1.18-.88-1.98-2.12-1.98s-2.13.79-2.13,1.98.9,1.98,2.13,1.98,2.12-.79,2.12-1.98Z" fill="#cf4654"/><path d="M400.25,321.99h-6.1c.22,1,1.08,1.62,2.31,1.62.86,0,1.47-.25,2.03-.78l1.25,1.35c-.75.85-1.88,1.3-3.33,1.3-2.79,0-4.61-1.75-4.61-4.16s1.85-4.15,4.31-4.15,4.2,1.59,4.2,4.18c0,.18-.03.43-.04.63ZM394.12,320.62h3.97c-.17-1.02-.93-1.68-1.98-1.68s-1.83.65-2,1.68Z" fill="#cf4654"/><path d="M407.06,324.97c-.48.34-1.19.51-1.91.51-1.91,0-3.01-.97-3.01-2.89v-3.32h-1.25v-1.8h1.25v-1.96h2.34v1.96h2.01v1.8h-2.01v3.29c0,.69.38,1.06,1,1.06.34,0,.69-.1.94-.3l.63,1.65Z" fill="#cf4654"/><path d="M236.56,343.83c0-2.43,1.88-4.15,4.5-4.15,1.7,0,3.03.73,3.62,2.05l-1.82.97c-.43-.76-1.08-1.11-1.81-1.11-1.18,0-2.12.83-2.12,2.23s.93,2.24,2.12,2.24c.74,0,1.38-.33,1.81-1.11l1.82.99c-.58,1.29-1.92,2.04-3.62,2.04-2.62,0-4.5-1.72-4.5-4.16Z" fill="#cf4654"/><path d="M245.32,343.83c0-2.43,1.88-4.15,4.44-4.15s4.42,1.72,4.42,4.15-1.86,4.16-4.42,4.16-4.44-1.72-4.44-4.16ZM251.81,343.83c0-1.39-.88-2.23-2.05-2.23s-2.07.84-2.07,2.23.9,2.24,2.07,2.24,2.05-.84,2.05-2.24Z" fill="#cf4654"/><path d="M263.99,343.24v4.62h-2.34v-4.26c0-1.3-.6-1.91-1.63-1.91-1.12,0-1.93.69-1.93,2.17v3.99h-2.34v-8.07h2.23v.94c.63-.69,1.58-1.06,2.67-1.06,1.91,0,3.35,1.11,3.35,3.57Z" fill="#cf4654"/><path d="M271.31,347.47c-.48.34-1.19.51-1.91.51-1.91,0-3.01-.97-3.01-2.89v-3.32h-1.25v-1.8h1.25v-1.96h2.34v1.96h2.01v1.8h-2.01v3.29c0,.69.38,1.06,1,1.06.34,0,.69-.1.94-.3l.63,1.65Z" fill="#cf4654"/><path d="M280.24,344.49h-6.1c.22,1,1.08,1.62,2.31,1.62.86,0,1.47-.25,2.03-.78l1.25,1.35c-.75.85-1.88,1.3-3.33,1.3-2.79,0-4.6-1.75-4.6-4.16s1.84-4.15,4.3-4.15,4.2,1.59,4.2,4.18c0,.18-.03.43-.04.63ZM274.1,343.12h3.97c-.17-1.02-.93-1.68-1.98-1.68s-1.83.65-2,1.68Z" fill="#cf4654"/><path d="M281.06,347.11l.78-1.68c.72.46,1.81.78,2.8.78,1.08,0,1.49-.28,1.49-.73,0-1.32-4.88.03-4.88-3.2,0-1.53,1.38-2.61,3.73-2.61,1.11,0,2.34.25,3.11.71l-.78,1.67c-.79-.45-1.59-.6-2.33-.6-1.05,0-1.5.33-1.5.75,0,1.38,4.88.04,4.88,3.22,0,1.5-1.39,2.57-3.81,2.57-1.37,0-2.75-.38-3.5-.87Z" fill="#cf4654"/><path d="M295.01,347.47c-.48.34-1.19.51-1.91.51-1.91,0-3.01-.97-3.01-2.89v-3.32h-1.25v-1.8h1.25v-1.96h2.34v1.96h2.01v1.8h-2.01v3.29c0,.69.38,1.06,1,1.06.34,0,.69-.1.94-.3l.63,1.65Z" fill="#cf4654"/><polyline points="173.05 107.39 213.17 107.39 228.06 107.39" fill="none" stroke="#cf4654" stroke-miterlimit="10" stroke-width="3"/><polyline points="407.15 276.6 420.34 276.6 421.11 180.43 437.96 180.43" fill="none" stroke="#cf4654" stroke-miterlimit="10" stroke-width="3"/><circle cx="173.05" cy="107.39" r="6.07" fill="#cf4654"/><circle cx="437.96" cy="180.43" r="6.07" fill="#cf4654"/><circle cx="199.86" cy="252.81" r="6.07" fill="#cf4654"/><polyline points="199.49 252.39 219.14 252.39 219.14 186.64 229.85 186.64" fill="none" stroke="#cf4654" stroke-miterlimit="10" stroke-width="3"/><path d="M242.51,88.52l-2.02-2.92h-2.24v2.92h-2.43v-10.5h4.54c2.8,0,4.56,1.46,4.56,3.81,0,1.57-.79,2.73-2.16,3.31l2.36,3.38h-2.61ZM240.23,80h-1.98v3.66h1.98c1.49,0,2.24-.69,2.24-1.83s-.75-1.83-2.24-1.83Z" fill="#cf4654"/><path d="M254.54,85.14h-6.1c.22,1,1.08,1.62,2.31,1.62.86,0,1.47-.25,2.03-.78l1.25,1.35c-.75.85-1.88,1.3-3.33,1.3-2.79,0-4.6-1.75-4.6-4.16s1.84-4.15,4.3-4.15,4.2,1.59,4.2,4.18c0,.18-.03.43-.04.63ZM248.41,83.78h3.97c-.17-1.02-.93-1.68-1.98-1.68s-1.83.65-2,1.68Z" fill="#cf4654"/><path d="M264.37,77.39v11.13h-2.24v-.93c-.58.71-1.44,1.05-2.52,1.05-2.28,0-4.04-1.62-4.04-4.16s1.75-4.15,4.04-4.15c.99,0,1.83.31,2.42.97v-3.92h2.34ZM262.07,84.48c0-1.39-.9-2.23-2.05-2.23s-2.07.84-2.07,2.23.9,2.24,2.07,2.24,2.05-.84,2.05-2.24Z" fill="#cf4654"/><path d="M274.66,80.45v8.07h-2.22v-.96c-.61.71-1.51,1.08-2.5,1.08-2.02,0-3.45-1.14-3.45-3.63v-4.56h2.34v4.21c0,1.35.6,1.95,1.63,1.95s1.86-.69,1.86-2.17v-3.99h2.34Z" fill="#cf4654"/><path d="M276.23,84.48c0-2.43,1.88-4.15,4.5-4.15,1.7,0,3.03.73,3.62,2.05l-1.82.97c-.43-.76-1.08-1.11-1.81-1.11-1.18,0-2.12.83-2.12,2.23s.93,2.24,2.12,2.24c.74,0,1.38-.33,1.81-1.11l1.82.99c-.58,1.29-1.92,2.04-3.62,2.04-2.62,0-4.5-1.72-4.5-4.16Z" fill="#cf4654"/><path d="M293.45,85.14h-6.1c.22,1,1.08,1.62,2.31,1.62.86,0,1.47-.25,2.03-.78l1.25,1.35c-.75.85-1.88,1.3-3.33,1.3-2.79,0-4.6-1.75-4.6-4.16s1.84-4.15,4.3-4.15,4.2,1.59,4.2,4.18c0,.18-.03.43-.04.63ZM287.32,83.78h3.97c-.17-1.02-.93-1.68-1.98-1.68s-1.83.65-2,1.68Z" fill="#cf4654"/><path d="M307.55,83.9v4.62h-2.34v-4.26c0-1.3-.6-1.91-1.63-1.91-1.12,0-1.93.69-1.93,2.17v3.99h-2.34v-11.13h2.34v3.9c.63-.63,1.53-.96,2.56-.96,1.91,0,3.35,1.11,3.35,3.57Z" fill="#cf4654"/><path d="M317.62,85.14h-6.1c.22,1,1.08,1.62,2.31,1.62.86,0,1.47-.25,2.03-.78l1.25,1.35c-.75.85-1.88,1.3-3.33,1.3-2.79,0-4.61-1.75-4.61-4.16s1.85-4.15,4.31-4.15,4.2,1.59,4.2,4.18c0,.18-.03.43-.04.63ZM311.48,83.78h3.97c-.17-1.02-.93-1.68-1.98-1.68s-1.83.65-2,1.68Z" fill="#cf4654"/><path d="M326.14,83.92v4.6h-2.19v-1c-.43.74-1.27,1.12-2.46,1.12-1.89,0-3.02-1.05-3.02-2.45s1-2.42,3.46-2.42h1.86c0-1-.6-1.59-1.86-1.59-.85,0-1.74.29-2.32.75l-.84-1.63c.89-.63,2.19-.97,3.48-.97,2.46,0,3.88,1.14,3.88,3.58ZM323.8,85.97v-.83h-1.61c-1.09,0-1.44.41-1.44.95,0,.58.5.97,1.32.97.78,0,1.45-.36,1.72-1.09Z" fill="#cf4654"/><path d="M336.56,77.39v11.13h-2.24v-.93c-.58.71-1.44,1.05-2.52,1.05-2.28,0-4.04-1.62-4.04-4.16s1.75-4.15,4.04-4.15c.99,0,1.83.31,2.42.97v-3.92h2.34ZM334.26,84.48c0-1.39-.9-2.23-2.05-2.23s-2.07.84-2.07,2.23.9,2.24,2.07,2.24,2.05-.84,2.05-2.24Z" fill="#cf4654"/><path d="M346.58,85.14h-6.1c.22,1,1.08,1.62,2.31,1.62.86,0,1.47-.25,2.03-.78l1.25,1.35c-.75.85-1.88,1.3-3.33,1.3-2.79,0-4.6-1.75-4.6-4.16s1.84-4.15,4.3-4.15,4.2,1.59,4.2,4.18c0,.18-.03.43-.04.63ZM340.44,83.78h3.97c-.17-1.02-.93-1.68-1.98-1.68s-1.83.65-2,1.68Z" fill="#cf4654"/><path d="M353.19,80.33v2.16c-.2-.02-.34-.03-.53-.03-1.29,0-2.14.71-2.14,2.25v3.81h-2.34v-8.07h2.23v1.06c.57-.78,1.53-1.18,2.78-1.18Z" fill="#cf4654"/><path d="M243.91,106.4v4.62h-2.34v-4.26c0-1.3-.6-1.91-1.63-1.91-1.12,0-1.93.69-1.93,2.17v3.99h-2.34v-11.13h2.34v3.9c.63-.63,1.53-.96,2.56-.96,1.91,0,3.35,1.11,3.35,3.57Z" fill="#cf4654"/><path d="M253.97,107.64h-6.1c.22,1,1.08,1.62,2.31,1.62.86,0,1.47-.25,2.03-.78l1.25,1.35c-.75.85-1.88,1.3-3.33,1.3-2.79,0-4.61-1.75-4.61-4.16s1.85-4.15,4.31-4.15,4.2,1.59,4.2,4.18c0,.18-.03.43-.04.63ZM247.84,106.28h3.97c-.17-1.02-.93-1.68-1.98-1.68s-1.83.65-2,1.68Z" fill="#cf4654"/><path d="M255.29,100.52c0-.73.58-1.3,1.46-1.3s1.46.54,1.46,1.26c0,.78-.58,1.35-1.46,1.35s-1.46-.57-1.46-1.31ZM255.58,102.95h2.34v8.07h-2.34v-8.07Z" fill="#cf4654"/><path d="M268.42,102.95v6.72c0,3-1.62,4.38-4.53,4.38-1.53,0-3.01-.38-3.96-1.11l.93-1.68c.69.55,1.82.92,2.85.92,1.65,0,2.37-.75,2.37-2.21v-.34c-.61.67-1.5,1-2.55,1-2.23,0-4.03-1.54-4.03-3.9s1.8-3.9,4.03-3.9c1.12,0,2.05.38,2.67,1.15v-1.03h2.22ZM266.11,106.73c0-1.18-.88-1.98-2.12-1.98s-2.13.79-2.13,1.98.9,1.98,2.13,1.98,2.12-.79,2.12-1.98Z" fill="#cf4654"/><path d="M278.84,106.4v4.62h-2.34v-4.26c0-1.3-.6-1.91-1.63-1.91-1.12,0-1.93.69-1.93,2.17v3.99h-2.34v-11.13h2.34v3.9c.63-.63,1.53-.96,2.56-.96,1.91,0,3.35,1.11,3.35,3.57Z" fill="#cf4654"/><path d="M286.16,110.63c-.48.34-1.19.51-1.91.51-1.91,0-3.01-.97-3.01-2.89v-3.32h-1.25v-1.8h1.25v-1.96h2.34v1.96h2.01v1.8h-2.01v3.29c0,.69.38,1.06,1,1.06.34,0,.69-.1.94-.3l.63,1.65Z" fill="#cf4654"/><path d="M296.93,110.63c-.48.34-1.19.51-1.91.51-1.91,0-3.01-.97-3.01-2.89v-3.32h-1.25v-1.8h1.25v-1.96h2.34v1.96h2.01v1.8h-2.01v3.29c0,.69.38,1.06,1,1.06.34,0,.69-.1.94-.3l.63,1.65Z" fill="#cf4654"/><path d="M297.4,106.98c0-2.43,1.87-4.15,4.44-4.15s4.42,1.72,4.42,4.15-1.86,4.16-4.42,4.16-4.44-1.72-4.44-4.16ZM303.89,106.98c0-1.39-.88-2.23-2.05-2.23s-2.07.84-2.07,2.23.9,2.24,2.07,2.24,2.05-.84,2.05-2.24Z" fill="#cf4654"/><path d="M319.93,107.64h-6.1c.22,1,1.08,1.62,2.31,1.62.86,0,1.47-.25,2.03-.78l1.25,1.35c-.75.85-1.88,1.3-3.33,1.3-2.79,0-4.6-1.75-4.6-4.16s1.84-4.15,4.3-4.15,4.2,1.59,4.2,4.18c0,.18-.03.43-.04.63ZM313.79,106.28h3.97c-.17-1.02-.93-1.68-1.98-1.68s-1.83.65-2,1.68Z" fill="#cf4654"/><path d="M326.44,111.02l-1.77-2.47-1.83,2.47h-2.55l3.11-4.06-3-4h2.62l1.71,2.35,1.75-2.35h2.49l-3,3.94,3.12,4.12h-2.65Z" fill="#cf4654"/><path d="M339.02,106.98c0,2.54-1.75,4.16-4.02,4.16-1,0-1.83-.32-2.43-.97v3.76h-2.34v-10.98h2.23v.93c.58-.71,1.46-1.05,2.54-1.05,2.26,0,4.02,1.62,4.02,4.15ZM336.65,106.98c0-1.39-.89-2.23-2.06-2.23s-2.05.84-2.05,2.23.88,2.24,2.05,2.24,2.06-.84,2.06-2.24Z" fill="#cf4654"/><path d="M339.98,106.98c0-2.43,1.88-4.15,4.44-4.15s4.42,1.72,4.42,4.15-1.86,4.16-4.42,4.16-4.44-1.72-4.44-4.16ZM346.48,106.98c0-1.39-.88-2.23-2.05-2.23s-2.07.84-2.07,2.23.9,2.24,2.07,2.24,2.05-.84,2.05-2.24Z" fill="#cf4654"/><path d="M349.63,110.27l.78-1.68c.72.46,1.81.78,2.8.78,1.08,0,1.49-.28,1.49-.73,0-1.32-4.88.03-4.88-3.2,0-1.53,1.38-2.61,3.73-2.61,1.11,0,2.34.25,3.11.71l-.78,1.67c-.79-.45-1.59-.6-2.33-.6-1.05,0-1.5.33-1.5.75,0,1.38,4.88.04,4.88,3.22,0,1.5-1.39,2.57-3.81,2.57-1.37,0-2.75-.38-3.5-.87Z" fill="#cf4654"/><path d="M366.23,107.64h-6.1c.22,1,1.08,1.62,2.31,1.62.86,0,1.47-.25,2.03-.78l1.25,1.35c-.75.85-1.88,1.3-3.33,1.3-2.79,0-4.6-1.75-4.6-4.16s1.84-4.15,4.3-4.15,4.2,1.59,4.2,4.18c0,.18-.03.43-.04.63ZM360.1,106.28h3.97c-.17-1.02-.93-1.68-1.98-1.68s-1.83.65-2,1.68Z" fill="#cf4654"/><path d="M249.29,128.9v4.62h-2.34v-4.26c0-1.3-.58-1.91-1.53-1.91-1.05,0-1.79.67-1.79,2.12v4.05h-2.34v-4.26c0-1.3-.55-1.91-1.53-1.91-1.03,0-1.77.67-1.77,2.12v4.05h-2.34v-8.07h2.23v.93c.6-.69,1.5-1.05,2.54-1.05,1.12,0,2.08.43,2.66,1.32.64-.82,1.69-1.32,2.91-1.32,1.92,0,3.3,1.11,3.3,3.57Z" fill="#cf4654"/><path d="M250.88,129.48c0-2.43,1.87-4.15,4.44-4.15s4.42,1.72,4.42,4.15-1.86,4.16-4.42,4.16-4.44-1.72-4.44-4.16ZM257.38,129.48c0-1.39-.88-2.23-2.05-2.23s-2.07.84-2.07,2.23.9,2.24,2.07,2.24,2.05-.84,2.05-2.24Z" fill="#cf4654"/><path d="M266.32,125.33v2.16c-.2-.02-.34-.03-.53-.03-1.29,0-2.14.71-2.14,2.25v3.81h-2.34v-8.07h2.23v1.06c.57-.78,1.53-1.18,2.78-1.18Z" fill="#cf4654"/><path d="M275.5,130.14h-6.1c.22,1,1.08,1.62,2.31,1.62.86,0,1.47-.25,2.03-.78l1.25,1.35c-.75.85-1.88,1.3-3.33,1.3-2.79,0-4.61-1.75-4.61-4.16s1.85-4.15,4.31-4.15,4.2,1.59,4.2,4.18c0,.18-.03.43-.04.63ZM269.36,128.78h3.97c-.17-1.02-.93-1.68-1.98-1.68s-1.83.65-2,1.68Z" fill="#cf4654"/><path d="M280.75,129.48c0-2.43,1.87-4.15,4.5-4.15,1.7,0,3.03.73,3.62,2.05l-1.82.97c-.43-.76-1.08-1.11-1.81-1.11-1.18,0-2.12.83-2.12,2.23s.93,2.24,2.12,2.24c.74,0,1.38-.33,1.81-1.11l1.82.99c-.58,1.29-1.92,2.04-3.62,2.04-2.62,0-4.5-1.72-4.5-4.16Z" fill="#cf4654"/><path d="M289.51,129.48c0-2.43,1.88-4.15,4.44-4.15s4.42,1.72,4.42,4.15-1.86,4.16-4.42,4.16-4.44-1.72-4.44-4.16ZM296,129.48c0-1.39-.88-2.23-2.05-2.23s-2.07.84-2.07,2.23.9,2.24,2.07,2.24,2.05-.84,2.05-2.24Z" fill="#cf4654"/><path d="M308.18,128.9v4.62h-2.34v-4.26c0-1.3-.6-1.91-1.63-1.91-1.12,0-1.93.69-1.93,2.17v3.99h-2.34v-8.07h2.23v.94c.63-.69,1.58-1.06,2.67-1.06,1.91,0,3.35,1.11,3.35,3.57Z" fill="#cf4654"/><path d="M315.5,133.13c-.48.34-1.19.51-1.91.51-1.91,0-3.01-.97-3.01-2.89v-3.32h-1.25v-1.8h1.25v-1.96h2.34v1.96h2.01v1.8h-2.01v3.29c0,.69.38,1.06,1,1.06.34,0,.69-.1.94-.3l.63,1.65Z" fill="#cf4654"/><path d="M324.43,130.14h-6.1c.22,1,1.08,1.62,2.31,1.62.86,0,1.47-.25,2.03-.78l1.25,1.35c-.75.85-1.88,1.3-3.33,1.3-2.79,0-4.61-1.75-4.61-4.16s1.85-4.15,4.31-4.15,4.2,1.59,4.2,4.18c0,.18-.03.43-.04.63ZM318.29,128.78h3.97c-.17-1.02-.93-1.68-1.98-1.68s-1.83.65-2,1.68Z" fill="#cf4654"/><path d="M334.28,128.9v4.62h-2.34v-4.26c0-1.3-.6-1.91-1.63-1.91-1.12,0-1.93.69-1.93,2.17v3.99h-2.34v-8.07h2.23v.94c.63-.69,1.58-1.06,2.67-1.06,1.91,0,3.35,1.11,3.35,3.57Z" fill="#cf4654"/><path d="M341.6,133.13c-.48.34-1.19.51-1.91.51-1.91,0-3.01-.97-3.01-2.89v-3.32h-1.25v-1.8h1.25v-1.96h2.34v1.96h2.01v1.8h-2.01v3.29c0,.69.38,1.06,1,1.06.34,0,.69-.1.94-.3l.63,1.65Z" fill="#cf4654"/><path d="M355.96,129.48c0,2.54-1.75,4.16-4.02,4.16-1.08,0-1.95-.34-2.54-1.05v.93h-2.23v-11.13h2.34v3.92c.6-.66,1.42-.97,2.43-.97,2.26,0,4.02,1.62,4.02,4.15ZM353.59,129.48c0-1.39-.89-2.23-2.06-2.23s-2.05.84-2.05,2.23.88,2.24,2.05,2.24,2.06-.84,2.06-2.24Z" fill="#cf4654"/><path d="M365.38,130.14h-6.1c.22,1,1.08,1.62,2.31,1.62.86,0,1.47-.25,2.03-.78l1.25,1.35c-.75.85-1.88,1.3-3.33,1.3-2.79,0-4.6-1.75-4.6-4.16s1.84-4.15,4.3-4.15,4.2,1.59,4.2,4.18c0,.18-.03.43-.04.63ZM359.24,128.78h3.97c-.17-1.02-.93-1.68-1.98-1.68s-1.83.65-2,1.68Z" fill="#cf4654"/><path d="M366.98,122.39h2.34v11.13h-2.34v-11.13Z" fill="#cf4654"/><path d="M370.9,129.48c0-2.43,1.88-4.15,4.44-4.15s4.42,1.72,4.42,4.15-1.86,4.16-4.42,4.16-4.44-1.72-4.44-4.16ZM377.39,129.48c0-1.39-.88-2.23-2.05-2.23s-2.07.84-2.07,2.23.9,2.24,2.07,2.24,2.05-.84,2.05-2.24Z" fill="#cf4654"/><path d="M394.06,125.45l-2.92,8.07h-2.25l-1.81-5.01-1.88,5.01h-2.25l-2.91-8.07h2.21l1.91,5.46,1.98-5.46h1.98l1.92,5.46,1.96-5.46h2.07Z" fill="#cf4654"/></svg>