<?xml version="1.0" encoding="UTF-8"?><svg id="Layer_1" xmlns="http://www.w3.org/2000/svg" xmlns:xlink="http://www.w3.org/1999/xlink" viewBox="0 0 276.52 184.18"><defs><clipPath id="clippath"><circle cx="59.47" cy="58.32" r="10.03" fill="none"/></clipPath><clipPath id="clippath-1"><circle cx="107.28" cy="108.12" r="10.03" fill="none"/></clipPath></defs><path d="M184.23,76.63H63.68s-6.22,8.81-6.22,8.81c-.8,1.14-2.59.59-2.63-.8l-.19-8.01h-12.48c-1.24,0-2.25-1.01-2.25-2.25v-31.5c0-1.24,1.01-2.25,2.25-2.25h142.05c1.24,0,2.25,1.01,2.25,2.25v31.5c0,1.24-1.01,2.25-2.25,2.25Z" fill="none" opacity=".5" stroke="#86a0bc" stroke-miterlimit="10"/><g clip-path="url(#clippath)"><circle cx="59.47" cy="58.32" r="10.03" fill="#038179" opacity=".5"/><path d="M64.5,71.43l-1-8.43c-.08-.69-.71-1.19-1.41-1.11-.02,0-.03,0-.05.01h-.95c0-.24-.2-.44-.44-.44h-.3v-.88c1.18-.35,2.07-1.39,2.18-2.67l.05-.54c.06,0,.12.02.18.02.62,0,1.12-.5,1.12-1.12s-.49-1.1-1.09-1.12l.19-2.08h.01l.02-.16c.24-1.94-1.25-3.71-3.53-2.26-2.27,1.45-.02.01-.03.02-.71.45-2.12.77-2.97.92-.39.07-.65.43-.61.82l.04.38.22,2.35s-.03,0-.05,0c-.62,0-1.12.5-1.12,1.12s.5,1.12,1.12,1.12c.09,0,.17-.01.25-.03l.05.55c.12,1.28,1.01,2.32,2.18,2.67v.88h-.12c-.24,0-.44.2-.44.44h-1.25s0,0,0,0c-.67-.05-1.27.43-1.35,1.11l-1,8.43c-.08.69.41,1.32,1.11,1.41.69.08,1.32-.41,1.41-1.11l.34-2.89c.09.07.2.1.31.1h3.77c.11,0,.21-.04.3-.1l.34,2.87c.08.69.71,1.19,1.41,1.11.69-.08,1.19-.71,1.11-1.41Z" fill="#05172e" opacity=".3"/></g><path d="M86.08,53.66v9.1h-1.69v-3.9h-4.71v3.9h-1.69v-9.1h1.69v3.76h4.71v-3.76h1.69Z" fill="#05172e"/><path d="M94.87,59.81h-5.45c.2,1.01,1.04,1.66,2.25,1.66.78,0,1.39-.25,1.88-.75l.87,1c-.62.74-1.6,1.13-2.79,1.13-2.33,0-3.83-1.5-3.83-3.56s1.52-3.55,3.59-3.55,3.51,1.42,3.51,3.59c0,.13-.01.33-.03.48ZM89.41,58.74h3.94c-.13-1-.9-1.69-1.96-1.69s-1.82.68-1.98,1.69Z" fill="#05172e"/><path d="M96.46,53.12h1.62v9.65h-1.62v-9.65Z" fill="#05172e"/><path d="M107.59,59.29c0,2.16-1.5,3.56-3.52,3.56-.88,0-1.66-.3-2.22-.94v3.37h-1.62v-9.46h1.55v.91c.55-.66,1.35-.99,2.3-.99,2.03,0,3.52,1.4,3.52,3.55ZM105.93,59.29c0-1.33-.88-2.17-2.05-2.17s-2.07.85-2.07,2.17.9,2.17,2.07,2.17,2.05-.85,2.05-2.17Z" fill="#05172e"/><path d="M108.83,61.84c0-.56.44-1,1.05-1s1.03.44,1.03,1-.43,1.01-1.03,1.01-1.05-.46-1.05-1.01ZM108.92,53.66h1.92l-.33,6.08h-1.29l-.31-6.08Z" fill="#05172e"/><path d="M116.49,53.66h1.69v9.1h-1.69v-9.1Z" fill="#05172e"/><path d="M122.07,54.09c0,.3-.05.52-.29,1.12l-.68,1.85h-1.05l.52-2c-.36-.14-.61-.48-.61-.96,0-.64.46-1.07,1.05-1.07s1.05.44,1.05,1.07Z" fill="#05172e"/><path d="M135.26,58.79v3.98h-1.62v-3.77c0-1.23-.57-1.83-1.56-1.83-1.07,0-1.81.7-1.81,2.08v3.52h-1.62v-3.77c0-1.23-.57-1.83-1.56-1.83-1.08,0-1.81.7-1.81,2.08v3.52h-1.62v-6.94h1.55v.88c.52-.62,1.33-.96,2.28-.96,1.01,0,1.86.38,2.34,1.16.56-.71,1.5-1.16,2.6-1.16,1.68,0,2.85.95,2.85,3.04Z" fill="#05172e"/><path d="M140.93,53.12h1.62v9.65h-1.62v-9.65Z" fill="#05172e"/><path d="M144.11,59.29c0-2.08,1.56-3.55,3.69-3.55s3.71,1.47,3.71,3.55-1.55,3.56-3.71,3.56-3.69-1.48-3.69-3.56ZM149.87,59.29c0-1.33-.88-2.17-2.07-2.17s-2.05.85-2.05,2.17.88,2.17,2.05,2.17,2.07-.85,2.07-2.17Z" fill="#05172e"/><path d="M152.28,62.08l.62-1.23c.61.4,1.55.69,2.42.69,1.03,0,1.46-.29,1.46-.77,0-1.33-4.29-.08-4.29-2.85,0-1.31,1.18-2.17,3.05-2.17.92,0,1.98.22,2.6.6l-.62,1.23c-.66-.39-1.33-.52-1.99-.52-.99,0-1.46.33-1.46.78,0,1.4,4.29.16,4.29,2.87,0,1.3-1.2,2.14-3.15,2.14-1.16,0-2.31-.34-2.94-.78Z" fill="#05172e"/><path d="M163.94,62.39c-.39.31-.97.47-1.56.47-1.52,0-2.39-.81-2.39-2.34v-3.34h-1.14v-1.3h1.14v-1.59h1.62v1.59h1.86v1.3h-1.86v3.3c0,.68.34,1.04.96,1.04.34,0,.66-.09.91-.29l.46,1.16Z" fill="#05172e"/><path d="M164.98,61.84c0-.56.44-1,1.05-1s1.03.44,1.03,1-.43,1.01-1.03,1.01-1.05-.46-1.05-1.01ZM165.07,53.66h1.92l-.33,6.08h-1.29l-.31-6.08Z" fill="#05172e"/><path d="M89.98,138.44h120.54s6.22,8.81,6.22,8.81c.8,1.14,2.59.59,2.63-.8l.19-8.01h12.48c1.24,0,2.25-1.01,2.25-2.25v-43.5c0-1.24-1.01-2.25-2.25-2.25H89.98c-1.24,0-2.25,1.01-2.25,2.25v43.5c0,1.24,1.01,2.25,2.25,2.25Z" fill="none" opacity=".5" stroke="#86a0bc" stroke-miterlimit="10"/><g clip-path="url(#clippath-1)"><circle cx="107.28" cy="108.12" r="10.03" fill="#9a60c4" opacity=".5"/><path d="M112.31,121.24l-1-8.43c-.08-.69-.71-1.19-1.41-1.11-.02,0-.03,0-.05.01h-.95c0-.24-.2-.44-.44-.44h-.3v-.88c1.18-.35,2.07-1.39,2.18-2.67l.05-.54c.06,0,.12.02.18.02.62,0,1.12-.5,1.12-1.12s-.49-1.1-1.09-1.12l.19-2.08h.01l.02-.16c.24-1.94-1.25-3.71-3.53-2.26-2.27,1.45-.02.01-.03.02-.71.45-2.12.77-2.97.92-.39.07-.65.43-.61.82l.04.38.22,2.35s-.03,0-.05,0c-.62,0-1.12.5-1.12,1.12s.5,1.12,1.12,1.12c.09,0,.17-.01.25-.03l.05.55c.12,1.28,1.01,2.32,2.18,2.67v.88h-.12c-.24,0-.44.2-.44.44h-1.25s0,0,0,0c-.67-.05-1.27.43-1.35,1.11l-1,8.43c-.08.69.41,1.32,1.11,1.41.69.08,1.32-.41,1.41-1.11l.34-2.89c.09.07.2.1.31.1h3.77c.11,0,.21-.04.3-.1l.34,2.87c.08.69.71,1.19,1.41,1.11.69-.08,1.19-.71,1.11-1.41Z" fill="#05172e" opacity=".3"/></g><path d="M126.23,101.62h1.69v9.1h-1.69v-9.1Z" fill="#05172e"/><path d="M140.61,101.08v9.65h-1.56v-.9c-.55.66-1.35.99-2.3.99-2.01,0-3.51-1.4-3.51-3.56s1.5-3.55,3.51-3.55c.9,0,1.69.3,2.24.94v-3.56h1.62ZM139.01,107.25c0-1.33-.9-2.17-2.07-2.17s-2.07.85-2.07,2.17.9,2.17,2.07,2.17,2.07-.85,2.07-2.17Z" fill="#05172e"/><path d="M142.17,107.25c0-2.08,1.56-3.55,3.69-3.55s3.71,1.47,3.71,3.55-1.55,3.56-3.71,3.56-3.69-1.48-3.69-3.56ZM147.93,107.25c0-1.33-.88-2.17-2.07-2.17s-2.05.85-2.05,2.17.88,2.17,2.05,2.17,2.07-.85,2.07-2.17Z" fill="#05172e"/><path d="M157.97,106.75v3.98h-1.62v-3.77c0-1.23-.61-1.83-1.65-1.83-1.16,0-1.94.7-1.94,2.09v3.51h-1.62v-6.94h1.55v.9c.53-.64,1.38-.98,2.39-.98,1.66,0,2.9.95,2.9,3.04Z" fill="#05172e"/><path d="M161.56,102.05c0,.3-.05.52-.29,1.12l-.68,1.85h-1.05l.52-2c-.36-.14-.61-.48-.61-.96,0-.64.46-1.07,1.05-1.07s1.05.44,1.05,1.07Z" fill="#05172e"/><path d="M167.38,110.35c-.39.31-.98.47-1.56.47-1.52,0-2.39-.81-2.39-2.34v-3.34h-1.14v-1.3h1.14v-1.59h1.62v1.59h1.86v1.3h-1.86v3.3c0,.68.34,1.04.96,1.04.34,0,.66-.09.91-.29l.46,1.16Z" fill="#05172e"/><path d="M175.14,107.75l-1.21,1.14v1.83h-1.62v-9.65h1.62v5.82l3.37-3.12h1.95l-2.9,2.91,3.17,4.03h-1.98l-2.41-2.98Z" fill="#05172e"/><path d="M187.35,106.75v3.98h-1.62v-3.77c0-1.23-.61-1.83-1.65-1.83-1.16,0-1.94.7-1.94,2.09v3.51h-1.62v-6.94h1.55v.9c.53-.64,1.38-.98,2.39-.98,1.66,0,2.9.95,2.9,3.04Z" fill="#05172e"/><path d="M188.91,107.25c0-2.08,1.56-3.55,3.69-3.55s3.71,1.47,3.71,3.55-1.55,3.56-3.71,3.56-3.69-1.48-3.69-3.56ZM194.67,107.25c0-1.33-.88-2.17-2.07-2.17s-2.05.85-2.05,2.17.88,2.17,2.05,2.17,2.07-.85,2.07-2.17Z" fill="#05172e"/><path d="M208.5,103.78l-2.56,6.94h-1.56l-1.79-4.78-1.82,4.78h-1.56l-2.55-6.94h1.53l1.83,5.12,1.91-5.12h1.37l1.87,5.15,1.88-5.15h1.44Z" fill="#05172e"/><path d="M136.91,119.38l-2.56,6.94h-1.56l-1.79-4.78-1.82,4.78h-1.56l-2.55-6.94h1.53l1.83,5.12,1.91-5.12h1.37l1.87,5.15,1.88-5.15h1.44Z" fill="#05172e"/><path d="M144.86,122.35v3.98h-1.62v-3.77c0-1.23-.61-1.83-1.65-1.83-1.16,0-1.94.7-1.94,2.09v3.51h-1.62v-9.65h1.62v3.51c.53-.57,1.35-.88,2.31-.88,1.66,0,2.9.95,2.9,3.04Z" fill="#05172e"/><path d="M153.5,123.37h-5.45c.2,1.01,1.04,1.66,2.25,1.66.78,0,1.39-.25,1.88-.75l.87,1c-.62.74-1.6,1.13-2.79,1.13-2.33,0-3.83-1.5-3.83-3.56s1.52-3.55,3.59-3.55,3.51,1.42,3.51,3.59c0,.13-.01.33-.03.48ZM148.04,122.29h3.94c-.13-1-.9-1.69-1.96-1.69s-1.82.68-1.98,1.69Z" fill="#05172e"/><path d="M159.1,119.3v1.55c-.14-.03-.26-.04-.38-.04-1.24,0-2.01.73-2.01,2.15v3.37h-1.62v-6.94h1.55v1.01c.47-.73,1.31-1.09,2.47-1.09Z" fill="#05172e"/><path d="M166.91,123.37h-5.45c.2,1.01,1.04,1.66,2.25,1.66.78,0,1.39-.25,1.88-.75l.87,1c-.62.74-1.6,1.13-2.79,1.13-2.33,0-3.83-1.5-3.83-3.56s1.52-3.55,3.59-3.55,3.51,1.42,3.51,3.59c0,.13-.01.33-.03.48ZM161.45,122.29h3.94c-.13-1-.9-1.69-1.96-1.69s-1.82.68-1.98,1.69Z" fill="#05172e"/><path d="M176.26,125.95c-.39.31-.97.47-1.56.47-1.52,0-2.39-.81-2.39-2.34v-3.34h-1.14v-1.3h1.14v-1.59h1.62v1.59h1.86v1.3h-1.86v3.3c0,.68.34,1.04.96,1.04.34,0,.66-.09.91-.29l.46,1.16Z" fill="#05172e"/><path d="M176.79,122.85c0-2.08,1.56-3.55,3.69-3.55s3.71,1.47,3.71,3.55-1.55,3.56-3.71,3.56-3.69-1.48-3.69-3.56ZM182.55,122.85c0-1.33-.88-2.17-2.07-2.17s-2.05.85-2.05,2.17.88,2.17,2.05,2.17,2.07-.85,2.07-2.17Z" fill="#05172e"/><path d="M196.23,119.38v5.89c0,2.52-1.31,3.67-3.74,3.67-1.3,0-2.59-.34-3.38-.99l.73-1.22c.61.51,1.6.83,2.56.83,1.53,0,2.21-.7,2.21-2.11v-.36c-.57.62-1.39.92-2.33.92-1.99,0-3.51-1.35-3.51-3.37s1.52-3.34,3.51-3.34c.98,0,1.83.31,2.41,1v-.92h1.55ZM194.63,122.65c0-1.17-.88-1.96-2.11-1.96s-2.12.79-2.12,1.96.88,1.99,2.12,1.99,2.11-.81,2.11-1.99Z" fill="#05172e"/><path d="M197.79,122.85c0-2.08,1.56-3.55,3.69-3.55s3.71,1.47,3.71,3.55-1.55,3.56-3.71,3.56-3.69-1.48-3.69-3.56ZM203.55,122.85c0-1.33-.88-2.17-2.07-2.17s-2.05.85-2.05,2.17.88,2.17,2.05,2.17,2.07-.85,2.07-2.17Z" fill="#05172e"/><path d="M206.07,125.34c0-.65.48-1.08,1.07-1.08s1.07.43,1.07,1.08-.48,1.08-1.07,1.08-1.07-.46-1.07-1.08Z" fill="#05172e"/><path d="M209.24,125.34c0-.65.48-1.08,1.07-1.08s1.07.43,1.07,1.08-.48,1.08-1.07,1.08-1.07-.46-1.07-1.08Z" fill="#05172e"/><path d="M212.41,125.34c0-.65.48-1.08,1.07-1.08s1.07.43,1.07,1.08-.48,1.08-1.07,1.08-1.07-.46-1.07-1.08Z" fill="#05172e"/><rect x="20.21" y="22.65" width="15.78" height="15.78" rx="2.23" ry="2.23" transform="translate(69.15 24.51) rotate(124.27)" fill="#3cbbc4" opacity=".75"/><rect x="7.39" y="13.09" width="10.68" height="10.68" rx="1.51" ry="1.51" transform="translate(33.4 27.03) rotate(147.23)" fill="#3cbbc4" opacity=".5"/><rect x="24.34" y="6.62" width="7.71" height="7.71" rx="1.09" ry="1.09" transform="translate(36.18 -18.53) rotate(85.01)" fill="#3cbbc4" opacity=".25"/><rect x="236.39" y="141.85" width="15.78" height="15.78" rx="2.23" ry="2.23" transform="translate(-9.72 282.32) rotate(-59.07)" fill="#3cbbc4" opacity=".75"/><rect x="254.99" y="155.59" width="10.68" height="10.68" rx="1.51" ry="1.51" transform="translate(-44.83 184.35) rotate(-36.11)" fill="#3cbbc4" opacity=".5"/><rect x="241.49" y="165.92" width="7.71" height="7.71" rx="1.09" ry="1.09" transform="translate(112.93 437.14) rotate(-98.33)" fill="#3cbbc4" opacity=".25"/></svg>