<?xml version="1.0" encoding="UTF-8"?><svg id="Layer_1" xmlns="http://www.w3.org/2000/svg" xmlns:xlink="http://www.w3.org/1999/xlink" viewBox="0 0 929.02 704.64"><defs><clipPath id="clippath"><path d="M405.93,35.88h205.69c21.14,0,38.3,17.16,38.3,38.3v527.14c0,23.06-18.72,41.78-41.78,41.78h-198.74c-23.06,0-41.78-18.72-41.78-41.78V74.18c0-21.14,17.16-38.3,38.3-38.3Z" transform="translate(34.31 -46.5) rotate(5.42)" fill="none"/></clipPath><clipPath id="clippath-1"><rect x="362.45" y="156.88" width="281.68" height="487.52" transform="translate(40.06 -45.71) rotate(5.42)" fill="none"/></clipPath><clipPath id="clippath-2"><polygon points="320.68 473.78 283.7 487.52 282.9 480.93 320.83 470.45 320.68 473.78" fill="none"/></clipPath></defs><rect x="191" y="185.46" width="635.61" height="307.42" rx="50.11" ry="50.11" transform="translate(123.12 813.7) rotate(-84.58)" fill="#202121"/><g clip-path="url(#clippath)"><rect x="203.11" y="197.77" width="611.44" height="282.3" transform="translate(123.4 813.5) rotate(-84.58)" fill="#fff"/><rect x="403.34" y="78.88" width="257.57" height="33.82" rx="16.91" ry="16.91" transform="translate(11.42 -49.79) rotate(5.42)" fill="#86a0bc" opacity=".5"/><rect x="386.54" y="120.05" width="282.3" height="39.78" transform="translate(15.56 -49.18) rotate(5.42)" fill="#05172e"/><g clip-path="url(#clippath-1)"><rect x="259.53" y="259.8" width="487.52" height="281.68" transform="translate(56.94 863.87) rotate(-84.58)" fill="#f0f2f6"/><rect x="381.74" y="157.79" width="281.68" height="78.66" transform="translate(20.94 -48.44) rotate(5.42)" fill="#fff"/><rect x="394.27" y="160.07" width="53.2" height="53.2" rx="6.71" ry="6.71" transform="translate(19.5 -38.89) rotate(5.42)" fill="#86a0bc" opacity=".5"/><rect x="461.27" y="175.3" width="186.09" height="20.51" rx="3.57" ry="3.57" transform="translate(19.99 -51.49) rotate(5.42)" fill="#86a0bc" opacity=".5"/><rect x="458.79" y="200.95" width="56.93" height="13.4" rx="1.59" ry="1.59" transform="translate(21.77 -45.06) rotate(5.42)" fill="#86a0bc" opacity=".5"/><rect x="525.1" y="207.24" width="56.93" height="13.4" rx="1.59" ry="1.59" transform="translate(22.66 -51.29) rotate(5.42)" fill="#86a0bc" opacity=".5"/><rect x="373.95" y="252.37" width="257.57" height="306.92" rx="6.87" ry="6.87" transform="translate(40.54 -45.63) rotate(5.42)" fill="#fff"/><rect x="430.09" y="304.19" width="110.95" height="20.51" rx="2.76" ry="2.76" transform="translate(31.84 -44.42) rotate(5.42)" fill="#038179" opacity=".25"/><rect x="396.79" y="297.36" width="19.15" height="19.15" rx="2.82" ry="2.82" transform="translate(30.78 -36.98) rotate(5.42)" fill="#038179"/><rect x="426.63" y="339.78" width="110.95" height="20.51" rx="2.76" ry="2.76" transform="translate(35.19 -43.94) rotate(5.42)" fill="#86a0bc" opacity=".5"/><rect x="393.31" y="332.95" width="19.15" height="19.15" rx="2.82" ry="2.82" transform="translate(34.12 -36.49) rotate(5.42)" fill="none" opacity=".25" stroke="#86a0bc" stroke-miterlimit="10" stroke-width="2"/><rect x="434.12" y="269.23" width="110.95" height="20.51" rx="2.76" ry="2.76" transform="translate(28.56 -44.96) rotate(5.42)" fill="#86a0bc" opacity=".5"/><rect x="400.95" y="262.41" width="19.15" height="19.15" rx="2.82" ry="2.82" transform="translate(27.5 -37.53) rotate(5.42)" fill="none" opacity=".25" stroke="#86a0bc" stroke-miterlimit="10" stroke-width="2"/><rect x="423.16" y="375.37" width="110.95" height="20.51" rx="2.76" ry="2.76" transform="translate(38.53 -43.45) rotate(5.42)" fill="#86a0bc" opacity=".5"/><rect x="389.83" y="368.54" width="19.15" height="19.15" rx="2.82" ry="2.82" transform="translate(37.47 -36.01) rotate(5.42)" fill="none" opacity=".25" stroke="#86a0bc" stroke-miterlimit="10" stroke-width="2"/><rect x="419.7" y="410.96" width="110.95" height="20.51" rx="2.76" ry="2.76" transform="translate(41.87 -42.96) rotate(5.42)" fill="#86a0bc" opacity=".5"/><rect x="386.34" y="404.13" width="19.15" height="19.15" rx="2.82" ry="2.82" transform="translate(40.81 -35.52) rotate(5.42)" fill="none" opacity=".25" stroke="#86a0bc" stroke-miterlimit="10" stroke-width="2"/><rect x="416.23" y="446.55" width="110.95" height="20.51" rx="2.76" ry="2.76" transform="translate(45.22 -42.48) rotate(5.42)" fill="#86a0bc" opacity=".5"/><rect x="382.86" y="439.71" width="19.15" height="19.15" rx="2.82" ry="2.82" transform="translate(44.15 -35.03) rotate(5.42)" fill="none" opacity=".25" stroke="#86a0bc" stroke-miterlimit="10" stroke-width="2"/><rect x="412.77" y="482.14" width="110.95" height="20.51" rx="2.76" ry="2.76" transform="translate(48.56 -41.99) rotate(5.42)" fill="#86a0bc" opacity=".5"/><rect x="379.38" y="475.3" width="19.15" height="19.15" rx="2.82" ry="2.82" transform="translate(47.5 -34.54) rotate(5.42)" fill="none" opacity=".25" stroke="#86a0bc" stroke-miterlimit="10" stroke-width="2"/><rect x="408.73" y="520.68" width="110.95" height="20.51" rx="2.76" ry="2.76" transform="translate(52.18 -41.44) rotate(5.42)" fill="#86a0bc" opacity=".5"/><rect x="589.28" y="315.66" width="37.28" height="20.51" rx="1.6" ry="1.6" transform="translate(33.47 -55.92) rotate(5.42)" fill="#038179" opacity=".25"/><rect x="585.87" y="351.25" width="37.28" height="20.51" rx="1.6" ry="1.6" transform="translate(36.82 -55.44) rotate(5.42)" fill="#86a0bc" opacity=".5"/><rect x="592.83" y="280.65" width="37.28" height="20.51" rx="1.6" ry="1.6" transform="translate(30.18 -56.41) rotate(5.42)" fill="#86a0bc" opacity=".5"/><rect x="582.47" y="386.85" width="37.28" height="20.51" rx="1.6" ry="1.6" transform="translate(40.16 -54.96) rotate(5.42)" fill="#86a0bc" opacity=".5"/><rect x="579.06" y="422.45" width="37.28" height="20.51" rx="1.6" ry="1.6" transform="translate(43.5 -54.48) rotate(5.42)" fill="#86a0bc" opacity=".5"/><rect x="575.66" y="458.04" width="37.28" height="20.51" rx="1.6" ry="1.6" transform="translate(46.85 -54) rotate(5.42)" fill="#86a0bc" opacity=".5"/><rect x="572.25" y="493.64" width="37.28" height="20.51" rx="1.6" ry="1.6" transform="translate(50.19 -53.52) rotate(5.42)" fill="#86a0bc" opacity=".5"/><rect x="568.47" y="532.2" width="37.28" height="20.51" rx="1.6" ry="1.6" transform="translate(53.82 -52.99) rotate(5.42)" fill="#86a0bc" opacity=".5"/><rect x="375.27" y="513.84" width="19.15" height="19.15" rx="2.82" ry="2.82" transform="translate(51.12 -33.98) rotate(5.42)" fill="none" opacity=".25" stroke="#86a0bc" stroke-miterlimit="10" stroke-width="2"/></g></g><rect x="488.07" y="44.57" width="94.51" height="27.27" rx="13.64" ry="13.64" transform="translate(7.88 -50.26) rotate(5.42)"/><rect x="384.72" y="314.74" width="8.31" height="19.14" rx="3.72" ry="3.72" transform="translate(-1.27 647.09) rotate(-79.43)" fill="#ffc5b4"/><rect x="390.2" y="300.87" width="8.31" height="23.99" rx="4.15" ry="4.15" transform="translate(544.45 793.35) rotate(-145.78)" fill="#ffc5b4"/><rect x="378.45" y="307.41" width="14.41" height="25.52" rx="4.69" ry="4.69" transform="translate(524.46 801.81) rotate(-145.78)" fill="#ffc5b4"/><circle cx="203.49" cy="478.94" r="10.82" fill="#ffc5b4"/><path d="M270.73,563.83l38.1-57.63c2.95-6.15-5.36-22.17-10.84-24.79h0c-5.48-2.62-10.91-.92-13.86,5.23l-33.25,67.69c-2.96,6.18-.87,13.33,4.66,15.92h0c5.47,2.57,12.26-.3,15.19-6.42Z" fill="#c69c6d"/><path d="M238.31,632.79l31.71-66.61c2.93-6.16.86-13.27-4.62-15.88h0c-5.49-2.61-12.31.26-15.24,6.42l-31.71,66.61c-2.95,6.19-.84,13.33,4.69,15.91h0c5.48,2.56,12.26-.32,15.18-6.45Z" fill="#c69c6d"/><rect x="202.49" y="624.32" width="35.57" height="21" rx="10.5" ry="10.5" transform="translate(95.98 1295.18) rotate(-150.2)" fill="#754c24"/><rect x="288.07" y="370.52" width="15.55" height="26.59" rx="5.96" ry="5.96" transform="translate(643.84 721.07) rotate(171.73)" fill="#ffc5b4"/><path d="M310.35,371.79h0c14.93-8.06,20.74-27.12,13.41-43.95l-24.29-55.78c-2.49-4.61-7.97-6.49-12.23-4.19l-51.13,27.62c-4.26,2.3-5.69,7.91-3.2,12.52l33.33,50.9c10.06,15.36,29.18,20.95,44.11,12.89Z" fill="#ffc5b4"/><circle cx="253.04" cy="344.42" r="10.82" fill="#ffc5b4"/><path d="M304.44,307.38c-2.46,1.76-4.91,6.04-3.68,9.17.38-.25,3.68-4.29,8.94-4.38" fill="none" stroke="#db8e73" stroke-linecap="round" stroke-linejoin="round" stroke-width="3.06"/><rect x="274.69" y="315.54" width="17.38" height="18.29" rx="8.69" ry="8.69" transform="translate(-135.55 223.57) rotate(-35.32)" fill="#fff"/><circle cx="286.26" cy="322.81" r="2.69" fill="#4b4b4b"/><path d="M306.39,331.29l-38.56,13.66-2.89-8.15s3.99-6.21,17.69-10.81c13.7-4.6,20.87-2.85,20.87-2.85l2.89,8.15Z" fill="#ffc5b4"/><path d="M295.49,318.21l-28.01,7.58-2.35-8.67s2.77-5.62,12.73-8.05c9.96-2.44,15.28.47,15.28.47l2.35,8.67Z" fill="#ffc5b4"/><path d="M308.06,334.18l-3.06,2.76-6.61-12.16c-.49-.89.53-1.85,1.4-1.31l7.75,4.85c2.07,1.3,2.33,4.22.52,5.86Z" fill="#db8e73"/><path d="M297.48,355.89c-.34,2.43-1.98,5.03-4.61,6.9-4.21,2.98-9.37,2.95-11.51-.07-2.14-3.03-.47-7.9,3.75-10.88,2.85,3.7,7.25,4.86,12.38,4.06Z" fill="#db8e73"/><path d="M301.01,275.48c-8.31-20.73-31.89-31.06-45.22-4.98-13.33,26.08-.13.25-.19.37-4.19,8.16-15.62,18.42-22.65,24.25-3.22,2.68-3.74,7.63-1.2,11.36l4.24,6.21,65.7-35.48-.69-1.71Z" fill="#c69c6d"/><circle cx="305.65" cy="488.74" r="20.57" fill="#c69c6d"/><rect x="318.08" y="359.27" width="21.79" height="65.39" rx="10.73" ry="10.73" transform="translate(344.12 903.46) rotate(-141.69)" fill="#d9eef9"/><rect x="349.7" y="319.58" width="21.79" height="66.86" rx="10.9" ry="10.9" transform="translate(424.71 853.55) rotate(-141.69)" fill="#d9eef9"/><rect x="251.64" y="394.88" width="22.48" height="65.39" rx="11.24" ry="11.24" transform="translate(100.79 902.6) rotate(-129.58)" fill="#d9eef9"/><rect x="218.62" y="421.71" width="21.79" height="66.86" rx="10.89" ry="10.89" transform="translate(24.92 922.02) rotate(-129.58)" fill="#d9eef9"/><path d="M392.94,494.34l-83.51,8.36c-6.82.22-2.72-10.55-2.92-16.62h0c-.19-6.07,5.18-11.17,12-11.39l73.73-2.34c6.85-.22,12.55,4.57,12.7,10.68h0c.15,6.05-5.21,11.1-12,11.31Z" fill="#c69c6d"/><path d="M372.02,557.05l11.28-72.9c1.04-6.74,6.76-11.45,12.76-10.52h0c6,.93,10.03,7.15,8.98,13.89l-11.28,72.9c-1.05,6.77-6.81,11.49-12.83,10.51h0c-5.97-.97-9.95-7.17-8.91-13.88Z" fill="#c69c6d"/><path d="M320.68,473.78l5.85-65.62c.19-7.52-2.98-14.34-6.54-14.08l-44.14,9.09c-3.56.26-5.72,7.47-4.45,14.88l12.37,67.97,36.91-12.23Z" fill="#d9eef9"/><rect x="366.06" y="558.53" width="42.09" height="21" rx="10.5" ry="10.5" fill="#754c24"/><g clip-path="url(#clippath-2)"><rect x="280.83" y="473.2" width="42.22" height="13.54" transform="translate(-165.96 159.65) rotate(-23.43)" fill="#754c24"/><rect x="303.48" y="472.49" width="8.33" height="10.39" transform="translate(-114.12 96.97) rotate(-15.15)" fill="#c9c9c9"/><rect x="316.48" y="471.17" width="1.64" height="10.39" transform="translate(-113.44 99.45) rotate(-15.15)" fill="#c69c6d"/><rect x="293.12" y="476.55" width="2.38" height="10.39" transform="translate(-115.64 93.63) rotate(-15.15)" fill="#c69c6d"/></g><rect x="286.04" y="390.41" width="23.47" height="10.88" rx="5.44" ry="5.44" transform="translate(-27.78 22.51) rotate(-4.14)" fill="#d9eef9"/><circle cx="302.16" cy="410.52" r="2.01" fill="#b3d1eb"/><circle cx="302.99" cy="422.01" r="2.01" fill="#b3d1eb"/><circle cx="303.88" cy="434.35" r="2.01" fill="#b3d1eb"/><circle cx="304.65" cy="444.92" r="2.01" fill="#b3d1eb"/><circle cx="305.48" cy="456.37" r="2.01" fill="#b3d1eb"/><path d="M604.75,627.55l-121.34-11.5-123.23,1.43c-2.23-.21-3.86-2.19-3.65-4.41l-.51-29.59c.21-2.23,2.19-3.86,4.41-3.65l122.97-1.8,124.91,11.84c2.23.21,3.86,2.19,3.65,4.41l-2.81,29.63c-.21,2.23-2.19,3.86-4.41,3.65Z" fill="#038179"/><rect x="188.43" y="651.91" width="23.2" height="23.2" rx="3.27" ry="3.27" transform="translate(-132.46 55.48) rotate(-11.89)" fill="#038179" opacity=".75"/><rect x="686.57" y="23.15" width="19.88" height="19.88" rx="2.81" ry="2.81" transform="translate(8.14 144.27) rotate(-11.89)" fill="#038179" opacity=".75"/><rect x="196.15" y="684.16" width="15.7" height="15.7" rx="2.22" ry="2.22" transform="translate(136.6 -26.29) rotate(11.06)" fill="#038179" opacity=".5"/><rect x="717.43" y="41.62" width="13.46" height="13.46" rx="1.9" ry="1.9" transform="translate(22.74 -138.08) rotate(11.06)" fill="#038179" opacity=".5"/><rect x="173.82" y="679.02" width="11.34" height="11.34" rx="1.6" ry="1.6" transform="translate(-466.36 395.06) rotate(-51.16)" fill="#038179" opacity=".25"/><rect x="719.3" y="16.83" width="9.71" height="9.71" rx="1.37" ry="1.37" transform="translate(253.08 572.11) rotate(-51.16)" fill="#038179" opacity=".25"/></svg>