<?xml version="1.0" encoding="UTF-8"?><svg id="Layer_1" xmlns="http://www.w3.org/2000/svg" xmlns:xlink="http://www.w3.org/1999/xlink" viewBox="0 0 431.24 413.36"><defs><style>.cls-1,.cls-2,.cls-3{fill:none;}.cls-4{fill:#b3d1eb;}.cls-5{fill:#d9eef9;}.cls-2{stroke-width:4px;}.cls-2,.cls-3{stroke-linecap:round;}.cls-2,.cls-3,.cls-6{stroke-miterlimit:10;}.cls-2,.cls-6{stroke:#bacddd;}.cls-7{fill:#f7c7b7;}.cls-8{fill:#3d3d3d;}.cls-3{stroke:#db8e73;stroke-width:2px;}.cls-9{fill:#c9c9c9;}.cls-10,.cls-6{fill:#fff;}.cls-11{fill:#db8e73;}.cls-12{fill:#c69c6d;}.cls-13{fill:#ad3b3b;}.cls-14{fill:#754c24;}.cls-15{clip-path:url(#clippath);}.cls-6{stroke-width:.99px;}</style><clipPath id="clippath"><path class="cls-1" d="M194.92,122.41s11.19-5.16,19.34,6.54c5.99,8.59-4,12.28-5.85,9.87-.5-.65-2.97-3.88-5.96-5.49-3.86-2.07-8.54-2.31-8.54-2.31-1.52-.82-2.47-2.42-2.45-4.15h0c.02-2.1,1.44-3.93,3.47-4.46Z"/></clipPath></defs><rect class="cls-5" x="202.43" y="132.02" width="25.14" height="11.65" rx="5.82" ry="5.82"/><path class="cls-6" d="M320.85,396.38c.4,1.02,1.45,1.63,2.54,1.48,4.14-.59,14.76-2.29,27.02-5.69,11.84-3.29,21.56-7.16,25.67-8.88,1.18-.5,1.76-1.84,1.3-3.03-1.96-5.1-7.02-18.64-10.8-32.28-3.68-13.28-6.61-28.24-7.77-34.45-.28-1.49-1.85-2.34-3.25-1.75-4.18,1.77-13.01,5.25-25.09,8.6-12.55,3.49-22.16,5.05-26.44,5.64-1.34.18-2.24,1.44-2,2.76,1.01,5.62,3.76,20.08,7.88,34.94,4.23,15.25,9.15,28.15,10.94,32.67Z"/><path class="cls-2" d="M354.03,325.1s-10.38,4.23-20.45,7.03-21.18,4.38-21.18,4.38"/><path class="cls-2" d="M320.29,345.5c-3.67.67-6.15,1.02-6.15,1.02"/><path class="cls-2" d="M335.32,342.14c-2.78.77-5.63,1.45-8.32,2.03"/><path class="cls-2" d="M355.77,335.11s-2.43.99-6.08,2.33c-1.76.64-3.8,1.37-5.99,2.11"/><path class="cls-2" d="M357.51,345.12s-3.73,1.52-8.89,3.34c-2.99,1.05-6.45,2.21-9.94,3.23-.54.16-1.08.31-1.61.46-10.07,2.8-21.18,4.38-21.18,4.38"/><path class="cls-2" d="M325.93,365.03c-1.98.37-3.68.66-4.95.87-1.5.24-2.39.37-2.39.37"/><path class="cls-2" d="M360.22,354.86s-3.67,1.5-8.77,3.3c-3.47,1.23-7.6,2.59-11.68,3.73-2.41.67-4.88,1.27-7.24,1.79"/><path class="cls-2" d="M349.69,369.48c-2.03.66-4.15,1.3-6.25,1.89-2.84.79-5.75,1.48-8.49,2.07-1.2.26-2.36.49-3.46.71-5.31,1.04-9.24,1.6-9.24,1.6"/><path class="cls-2" d="M363.89,364.34s-1.15.47-3.06,1.2"/><path class="cls-2" d="M334.96,383.66c-5.2,1.02-9.03,1.56-9.03,1.56"/><path class="cls-2" d="M367.56,373.81s-7.98,3.25-16.73,5.94c-1.23.38-2.48.74-3.72,1.09"/><path class="cls-6" d="M119.59,392.84c-.36,1.04-1.39,1.69-2.48,1.57-4.16-.43-14.84-1.71-27.22-4.64s-21.82-6.31-26-7.88c-1.2-.45-1.83-1.77-1.41-2.98,1.76-5.17,6.29-18.9,9.54-32.67s5.51-28.48,6.43-34.73c.22-1.5,1.76-2.41,3.18-1.87,4.25,1.61,13.2,4.74,25.4,7.62s22.34,4.18,26.63,4.61c1.34.13,2.3,1.35,2.11,2.68-.79,5.66-2.97,20.21-6.52,35.22-3.64,15.4-8.05,28.49-9.66,33.07Z"/><path class="cls-2" d="M83.66,322.91s3.15,1.14,7.66,2.57c1.87.59,3.98,1.23,6.2,1.86s4.54,1.25,6.85,1.79c1.46.34,2.93.66,4.39.96,4.1.82,8.07,1.44,11.14,1.87,3.48.49,5.8.73,5.8.73"/><path class="cls-2" d="M82.31,332.98s4.49,1.63,10.43,3.43c1.6.49,3.31.98,5.07,1.46s3.47.92,5.21,1.34c3.06.72,6.22,1.33,9.13,1.83,2.13.37,4.14.67,5.88.92,3.78.54,6.33.8,6.33.8"/><path class="cls-2" d="M101.67,349.27c1.83.43,3.7.83,5.53,1.18,8.31,1.6,15.81,2.37,15.81,2.37"/><path class="cls-2" d="M80.96,343.05s4.31,1.56,10.08,3.32c1.26.38,2.58.77,3.94,1.16"/><path class="cls-2" d="M117.38,362.27c2.05.26,3.3.39,3.3.39"/><path class="cls-2" d="M78.64,352.89s2.21.8,5.58,1.9c1.97.64,4.34,1.39,6.89,2.13,1.61.47,3.3.94,5,1.39,1.07.28,2.15.55,3.23.81,1.77.42,3.58.8,5.34,1.14,2.19.42,4.33.79,6.29,1.1"/><path class="cls-2" d="M99.07,369.4c1.28.27,2.56.52,3.81.75.61.11,1.21.22,1.81.32,1.72.3,3.37.56,4.87.79,4.58.68,7.83,1.02,7.83,1.02"/><path class="cls-2" d="M75.34,362.5s.87.32,2.35.82c.43.15.92.31,1.46.49.41.14.85.28,1.31.43,1.51.5,3.27,1.06,5.2,1.64"/><path class="cls-2" d="M102.45,380.26c1.53.26,2.99.48,4.32.68.76.11,1.48.21,2.15.3,3.13.43,5.17.64,5.17.64"/><path class="cls-2" d="M85.29,376.37c.96.28,1.94.55,2.93.82"/><path class="cls-2" d="M72.04,372.11s1.57.57,4.08,1.41"/><path class="cls-6" d="M332.66,293.02c.74.82.81,2.03.19,2.93-2.37,3.44-8.63,12.2-17.14,21.65-8.22,9.14-16.01,16.11-19.39,19.03-.97.84-2.43.75-3.29-.19-3.69-4.03-13.56-14.59-24.08-24.05s-22.34-18.51-27.38-22.31c-1.21-.91-1.27-2.7-.12-3.69,3.45-2.96,10.49-9.31,18.88-18.63s14.39-17.59,16.83-21.15c.76-1.11,2.28-1.37,3.37-.56,4.58,3.41,16.31,12.31,27.76,22.62s21.12,20.74,24.38,24.35Z"/><path class="cls-2" d="M254.07,290.96s2.51-2.21,5.93-5.49c1.42-1.36,2.99-2.9,4.61-4.54s3.28-3.39,4.86-5.15c1-1.11,1.99-2.25,2.95-3.4,2.69-3.2,5.14-6.39,6.99-8.88,2.1-2.82,3.42-4.74,3.42-4.74"/><path class="cls-2" d="M262.25,296.98s3.58-3.15,8.01-7.5c1.19-1.17,2.45-2.43,3.72-3.74s2.47-2.6,3.67-3.93c2.11-2.34,4.15-4.81,5.99-7.13,1.34-1.7,2.58-3.31,3.63-4.72,2.28-3.05,3.74-5.17,3.74-5.17"/><path class="cls-2" d="M285.84,287.83c1.26-1.4,2.5-2.85,3.69-4.28,5.39-6.52,9.67-12.73,9.67-12.73"/><path class="cls-2" d="M270.44,303s3.44-3.03,7.75-7.25c.94-.92,1.92-1.89,2.91-2.9"/><path class="cls-2" d="M304.79,280.28c1.21-1.67,1.93-2.71,1.93-2.71"/><path class="cls-2" d="M277.96,309.77s1.76-1.55,4.35-3.98c1.51-1.42,3.3-3.14,5.18-5.02,1.19-1.19,2.41-2.44,3.62-3.72.76-.81,1.52-1.63,2.26-2.45,1.22-1.35,2.42-2.75,3.57-4.14,1.42-1.72,2.77-3.42,3.99-4.99"/><path class="cls-2" d="M302.25,299.76c.85-.99,1.68-1.99,2.48-2.98.39-.48.78-.96,1.15-1.43,1.09-1.37,2.11-2.68,3.02-3.89,2.8-3.69,4.65-6.38,4.65-6.38"/><path class="cls-2" d="M284.8,317.27s.7-.61,1.85-1.67c.34-.31.72-.66,1.13-1.04.32-.29.65-.61,1.01-.94,1.16-1.09,2.5-2.36,3.93-3.77"/><path class="cls-2" d="M313.4,302.02c.96-1.22,1.86-2.39,2.67-3.46.46-.61.9-1.19,1.3-1.74,1.88-2.54,3.04-4.23,3.04-4.23"/><path class="cls-2" d="M301.75,315.2c.7-.71,1.41-1.43,2.12-2.18"/><path class="cls-2" d="M291.65,324.78s1.25-1.1,3.2-2.91"/><path class="cls-6" d="M266.64,282.83c.74.82.81,2.03.19,2.93-2.37,3.44-8.63,12.2-17.14,21.65-8.22,9.14-16.01,16.11-19.39,19.03-.97.84-2.43.75-3.29-.19-3.69-4.03-13.56-14.59-24.08-24.05-10.25-9.21-22.34-18.51-27.38-22.31-1.21-.91-1.27-2.7-.12-3.69,3.45-2.96,10.49-9.31,18.88-18.63,8.71-9.69,14.39-17.59,16.83-21.15.76-1.11,2.28-1.37,3.37-.56,4.58,3.41,16.31,12.31,27.76,22.62,11.76,10.58,21.12,20.74,24.38,24.35Z"/><path class="cls-2" d="M188.04,280.78s2.51-2.21,5.93-5.49c1.42-1.36,2.99-2.9,4.61-4.54s3.28-3.39,4.86-5.15c1-1.11,1.99-2.25,2.95-3.4,2.69-3.2,5.14-6.39,6.99-8.88,2.1-2.82,3.42-4.74,3.42-4.74"/><path class="cls-2" d="M196.23,286.8s3.58-3.15,8.01-7.5c1.19-1.17,2.45-2.43,3.72-3.74s2.47-2.6,3.67-3.93c2.11-2.34,4.15-4.81,5.99-7.13,1.34-1.7,2.58-3.31,3.63-4.72,2.28-3.05,3.74-5.17,3.74-5.17"/><path class="cls-2" d="M219.82,277.64c1.26-1.4,2.5-2.85,3.69-4.28,5.39-6.52,9.67-12.73,9.67-12.73"/><path class="cls-2" d="M204.42,292.82s3.44-3.03,7.75-7.25c.94-.92,1.92-1.89,2.91-2.9"/><path class="cls-2" d="M238.76,270.1c1.21-1.67,1.93-2.71,1.93-2.71"/><path class="cls-2" d="M211.93,299.58s1.76-1.55,4.35-3.98c1.51-1.42,3.3-3.14,5.18-5.02,1.19-1.19,2.41-2.44,3.62-3.72.76-.81,1.52-1.63,2.26-2.45,1.22-1.35,2.42-2.75,3.57-4.14,1.42-1.72,2.77-3.42,3.99-4.99"/><path class="cls-2" d="M236.23,289.58c.85-.99,1.68-1.99,2.48-2.98.39-.48.78-.96,1.15-1.43,1.09-1.37,2.11-2.68,3.02-3.89,2.8-3.69,4.65-6.38,4.65-6.38"/><path class="cls-2" d="M218.78,307.09s.7-.61,1.85-1.67c.34-.31.72-.66,1.13-1.04.32-.29.65-.61,1.01-.94,1.16-1.09,2.5-2.36,3.93-3.77"/><path class="cls-2" d="M247.38,291.83c.96-1.22,1.86-2.39,2.67-3.46.46-.61.9-1.19,1.3-1.74,1.88-2.54,3.04-4.23,3.04-4.23"/><path class="cls-2" d="M235.72,305.01c.7-.71,1.41-1.43,2.12-2.18"/><path class="cls-2" d="M225.63,314.59s1.25-1.1,3.2-2.91"/><path class="cls-6" d="M326.06,364.15c-.87.68-2.08.67-2.94-.02-3.27-2.61-11.56-9.47-20.39-18.62-8.53-8.85-14.94-17.11-17.61-20.69-.77-1.03-.58-2.47.42-3.27,4.28-3.4,15.51-12.49,25.69-22.33s20.04-20.98,24.19-25.74c1-1.14,2.78-1.07,3.69.14,2.7,3.65,8.54,11.12,17.25,20.15s16.53,15.6,19.91,18.28c1.06.84,1.2,2.37.32,3.4-3.72,4.33-13.43,15.39-24.53,26.1s-22.18,19.61-26.01,22.6Z"/><path class="cls-2" d="M333.66,285.9s2.03,2.66,5.05,6.3c1.26,1.51,2.68,3.19,4.21,4.92s3.15,3.51,4.79,5.21c1.04,1.08,2.11,2.14,3.18,3.18,3,2.91,6.01,5.58,8.36,7.6,2.67,2.29,4.49,3.75,4.49,3.75"/><path class="cls-2" d="M327.08,293.64s2.89,3.79,6.92,8.52c1.09,1.27,2.25,2.62,3.47,3.97s2.42,2.65,3.66,3.94c2.19,2.27,4.51,4.48,6.69,6.48,1.6,1.46,3.12,2.8,4.45,3.95,2.89,2.49,4.89,4.09,4.89,4.09"/><path class="cls-2" d="M334.55,317.81c1.31,1.36,2.67,2.7,4.01,3.98,6.12,5.84,12.01,10.55,12.01,10.55"/><path class="cls-2" d="M320.49,301.37s2.78,3.65,6.68,8.24c.85,1,1.75,2.05,2.69,3.11"/><path class="cls-2" d="M340.73,337.24c1.58,1.33,2.56,2.11,2.56,2.11"/><path class="cls-2" d="M313.22,308.4s1.43,1.87,3.67,4.62c1.31,1.61,2.9,3.51,4.64,5.52,1.1,1.27,2.26,2.57,3.46,3.87.75.82,1.51,1.63,2.28,2.43,1.26,1.31,2.58,2.61,3.88,3.85,1.61,1.54,3.21,3.01,4.7,4.33"/><path class="cls-2" d="M321.48,333.33c.93.92,1.87,1.82,2.8,2.69.45.42.9.84,1.35,1.25,1.29,1.18,2.53,2.29,3.67,3.29,3.49,3.05,6.03,5.09,6.03,5.09"/><path class="cls-2" d="M305.25,314.7s.56.74,1.53,1.97c.29.36.61.76.96,1.2.27.34.56.7.87,1.07,1,1.23,2.18,2.66,3.48,4.19"/><path class="cls-2" d="M318.44,344.3c1.15,1.04,2.25,2.02,3.26,2.91.58.5,1.13.98,1.64,1.42,2.4,2.05,4,3.33,4,3.33"/><path class="cls-2" d="M306.12,331.74c.66.75,1.33,1.51,2.02,2.27"/><path class="cls-2" d="M297.27,321s1.01,1.33,2.67,3.39"/><path class="cls-6" d="M188.15,345.35c-1.1.08-2.1-.6-2.43-1.65-1.26-3.99-4.34-14.29-6.59-26.81-2.18-12.1-2.91-22.53-3.14-26.99-.07-1.28.89-2.38,2.17-2.48,5.45-.44,19.84-1.76,33.77-4.27,13.56-2.45,28.32-6.3,34.41-7.94,1.46-.4,2.91.65,2.98,2.17.22,4.54.92,13.99,3.14,26.33,2.31,12.82,5.07,22.16,6.39,26.26.41,1.28-.32,2.64-1.62,3-5.5,1.53-19.72,5.33-34.9,8.06-15.57,2.8-29.33,3.97-34.18,4.32Z"/><path class="cls-2" d="M237.97,284.53s.21,3.34.7,8.05c.2,1.95.46,4.14.76,6.43s.67,4.66,1.09,7c.26,1.47.56,2.95.87,4.41.88,4.08,1.89,7.98,2.72,10.97.94,3.39,1.65,5.61,1.65,5.61"/><path class="cls-2" d="M228.2,287.3s.3,4.76,1.01,10.93c.19,1.66.42,3.43.68,5.23s.53,3.55.85,5.31c.56,3.1,1.25,6.23,1.96,9.1.51,2.1,1.03,4.06,1.5,5.76,1.01,3.68,1.79,6.12,1.79,6.12"/><path class="cls-2" d="M220.97,311.55c.33,1.85.72,3.72,1.12,5.54,1.84,8.26,4.12,15.45,4.12,15.45"/><path class="cls-2" d="M218.42,290.08s.28,4.58.97,10.56c.15,1.3.32,2.67.51,4.08"/><path class="cls-2" d="M215.3,331.14c.58,1.98.96,3.18.96,3.18"/><path class="cls-2" d="M208.47,291.87s.15,2.35.48,5.88c.2,2.06.46,4.53.79,7.17.21,1.66.45,3.4.72,5.14.17,1.1.35,2.2.55,3.29.32,1.79.69,3.6,1.08,5.36.48,2.18,1,4.28,1.5,6.21"/><path class="cls-2" d="M201.47,317.19c.26,1.28.54,2.55.83,3.79.14.6.28,1.2.42,1.79.41,1.7.83,3.31,1.22,4.78,1.2,4.48,2.19,7.59,2.19,7.59"/><path class="cls-2" d="M198.34,292.67s.06.92.18,2.49c.04.46.08.97.13,1.53.04.43.08.89.12,1.37.15,1.58.33,3.43.57,5.42"/><path class="cls-2" d="M192.85,324.62c.37,1.51.75,2.93,1.1,4.23.2.74.39,1.44.58,2.09.85,3.04,1.48,5,1.48,5"/><path class="cls-2" d="M189.59,307.33c.13.99.27,1.99.42,3.01"/><path class="cls-2" d="M188.21,293.48s.1,1.67.34,4.31"/><path class="cls-6" d="M249.88,383.88c-1.06.31-2.18-.14-2.73-1.1-2.08-3.63-7.26-13.05-12.1-24.82-4.68-11.37-7.6-21.41-8.76-25.72-.33-1.24.37-2.51,1.6-2.89,5.23-1.58,19.02-5.91,32.11-11.3,12.74-5.25,26.35-12.13,31.96-15.03,1.35-.7,2.98.03,3.37,1.49,1.17,4.39,3.85,13.49,8.62,25.08,4.96,12.05,9.63,20.59,11.79,24.32.67,1.17.24,2.65-.95,3.28-5.06,2.66-18.16,9.37-32.41,15.24-14.63,6.02-27.84,10.07-32.5,11.44Z"/><path class="cls-2" d="M285.74,313.92s.91,3.22,2.38,7.72c.61,1.87,1.32,3.95,2.1,6.12.78,2.17,1.63,4.42,2.54,6.61.57,1.38,1.17,2.77,1.79,4.13,1.72,3.81,3.54,7.4,4.98,10.15,1.64,3.11,2.79,5.13,2.79,5.13"/><path class="cls-2" d="M276.77,318.69s1.29,4.59,3.3,10.47c.54,1.58,1.13,3.26,1.77,4.97s1.27,3.36,1.95,5.01c1.2,2.91,2.54,5.83,3.83,8.49.95,1.95,1.87,3.75,2.68,5.31,1.77,3.38,3.04,5.61,3.04,5.61"/><path class="cls-2" d="M274.82,343.92c.72,1.74,1.49,3.49,2.27,5.18,3.54,7.68,7.29,14.23,7.29,14.23"/><path class="cls-2" d="M267.81,323.47s1.24,4.41,3.18,10.12c.42,1.24.88,2.55,1.36,3.88"/><path class="cls-2" d="M273.42,364.26c.98,1.82,1.61,2.91,1.61,2.91"/><path class="cls-2" d="M258.46,327.31s.64,2.26,1.71,5.64c.63,1.97,1.4,4.33,2.29,6.84.56,1.58,1.16,3.23,1.79,4.87.4,1.04.81,2.07,1.23,3.1.69,1.68,1.44,3.37,2.19,5.01.93,2.03,1.88,3.98,2.77,5.75"/><path class="cls-2" d="M256.96,353.54c.53,1.2,1.07,2.38,1.61,3.53.26.56.53,1.12.79,1.66.76,1.57,1.51,3.06,2.2,4.41,2.12,4.12,3.74,6.95,3.74,6.95"/><path class="cls-2" d="M248.72,330.24s.25.89.7,2.39c.13.44.28.93.45,1.47.13.41.26.85.41,1.32.48,1.51,1.05,3.28,1.7,5.18"/><path class="cls-2" d="M250.1,362.62c.68,1.39,1.35,2.71,1.96,3.9.35.68.69,1.33,1,1.92,1.48,2.79,2.5,4.57,2.5,4.57"/><path class="cls-2" d="M243.26,346.41c.33.94.68,1.89,1.04,2.85"/><path class="cls-2" d="M238.99,333.16s.45,1.61,1.24,4.14"/><path class="cls-6" d="M173.88,378.04c-1.01-.44-1.58-1.51-1.38-2.59.74-4.12,2.83-14.67,6.68-26.79,3.72-11.72,7.94-21.28,9.82-25.33.54-1.16,1.9-1.69,3.08-1.18,5.02,2.15,18.37,7.7,31.86,11.98,13.14,4.17,27.98,7.65,34.14,9.03,1.48.33,2.27,1.94,1.63,3.31-1.92,4.11-5.72,12.81-9.52,24.75-3.94,12.42-5.86,21.96-6.6,26.21-.23,1.33-1.52,2.19-2.83,1.9-5.58-1.21-19.93-4.49-34.62-9.16s-27.8-10.18-32.25-12.13Z"/><path class="cls-2" d="M246.32,347.5s-1.38,3.05-3.14,7.44c-.73,1.82-1.53,3.88-2.33,6.04-.8,2.16-1.59,4.44-2.3,6.69-.45,1.43-.88,2.87-1.28,4.31-1.13,4.02-2.05,7.94-2.71,10.97-.75,3.44-1.16,5.73-1.16,5.73"/><path class="cls-2" d="M236.38,345.39s-1.96,4.35-4.2,10.14c-.6,1.56-1.23,3.23-1.84,4.94s-1.18,3.39-1.73,5.1c-.95,3-1.8,6.1-2.52,8.97-.53,2.1-.98,4.07-1.36,5.79-.82,3.72-1.28,6.25-1.28,6.25"/><path class="cls-2" d="M218.67,363.46c-.57,1.8-1.1,3.63-1.59,5.42-2.22,8.16-3.56,15.58-3.56,15.58"/><path class="cls-2" d="M226.44,343.28s-1.88,4.18-4.07,9.8c-.48,1.22-.97,2.51-1.45,3.84"/><path class="cls-2" d="M204.52,378.14c-.42,2.02-.64,3.26-.64,3.26"/><path class="cls-2" d="M216.81,340.22s-.97,2.14-2.32,5.42c-.79,1.92-1.71,4.22-2.65,6.71-.59,1.57-1.19,3.21-1.76,4.88-.36,1.05-.71,2.11-1.05,3.16-.55,1.74-1.07,3.51-1.54,5.24-.59,2.15-1.12,4.26-1.58,6.19"/><path class="cls-2" d="M198.8,359.35c-.37,1.26-.71,2.51-1.04,3.74-.16.6-.31,1.19-.46,1.78-.43,1.69-.81,3.31-1.15,4.79-1.03,4.52-1.61,7.73-1.61,7.73"/><path class="cls-2" d="M207.47,336.2s-.38.84-1,2.28c-.18.42-.38.9-.6,1.41-.17.4-.35.82-.53,1.27-.61,1.47-1.3,3.19-2.03,5.06"/><path class="cls-2" d="M187.71,361.9c-.37,1.51-.71,2.94-1,4.25-.17.75-.32,1.46-.47,2.12-.66,3.09-1.03,5.11-1.03,5.11"/><path class="cls-2" d="M192.89,345.08c-.35.93-.69,1.89-1.04,2.86"/><path class="cls-2" d="M198.14,332.19s-.69,1.52-1.71,3.97"/><path class="cls-6" d="M92,338.08c-1.01-.44-1.58-1.51-1.38-2.59.74-4.12,2.83-14.67,6.68-26.79,3.72-11.72,7.94-21.28,9.82-25.33.54-1.16,1.9-1.69,3.08-1.18,5.02,2.15,18.37,7.7,31.86,11.98,13.14,4.17,27.98,7.65,34.14,9.03,1.48.33,2.27,1.94,1.63,3.31-1.92,4.11-5.72,12.81-9.52,24.75-3.94,12.42-5.86,21.96-6.6,26.21-.23,1.33-1.52,2.19-2.83,1.9-5.58-1.21-19.93-4.49-34.62-9.16s-27.8-10.18-32.25-12.13Z"/><path class="cls-2" d="M164.45,307.53s-1.38,3.05-3.14,7.44c-.73,1.82-1.53,3.88-2.33,6.04-.8,2.16-1.59,4.44-2.3,6.69-.45,1.43-.88,2.87-1.28,4.31-1.13,4.02-2.05,7.94-2.71,10.97-.75,3.44-1.16,5.73-1.16,5.73"/><path class="cls-2" d="M154.51,305.42s-1.96,4.35-4.2,10.14c-.6,1.56-1.23,3.23-1.84,4.94s-1.18,3.39-1.73,5.1c-.95,3-1.8,6.1-2.52,8.97-.53,2.1-.98,4.07-1.36,5.79-.82,3.72-1.28,6.25-1.28,6.25"/><path class="cls-2" d="M136.8,323.49c-.57,1.8-1.1,3.63-1.59,5.42-2.22,8.16-3.56,15.58-3.56,15.58"/><path class="cls-2" d="M144.57,303.32s-1.88,4.18-4.07,9.8c-.48,1.22-.97,2.51-1.45,3.84"/><path class="cls-2" d="M122.65,338.18c-.42,2.02-.64,3.26-.64,3.26"/><path class="cls-2" d="M134.93,300.25s-.97,2.14-2.32,5.42c-.79,1.92-1.71,4.22-2.65,6.71-.59,1.57-1.19,3.21-1.76,4.88-.36,1.05-.71,2.11-1.05,3.16-.55,1.74-1.07,3.51-1.54,5.24-.59,2.15-1.12,4.26-1.58,6.19"/><path class="cls-2" d="M116.93,319.39c-.37,1.26-.71,2.51-1.04,3.74-.16.6-.31,1.19-.46,1.78-.43,1.69-.81,3.31-1.15,4.79-1.03,4.52-1.61,7.73-1.61,7.73"/><path class="cls-2" d="M125.6,296.24s-.38.84-1,2.28c-.18.42-.38.9-.6,1.41-.17.4-.35.82-.53,1.27-.61,1.47-1.3,3.19-2.03,5.06"/><path class="cls-2" d="M105.84,321.93c-.37,1.51-.71,2.94-1,4.25-.17.75-.32,1.46-.47,2.12-.66,3.09-1.03,5.11-1.03,5.11"/><path class="cls-2" d="M111.02,305.12c-.35.93-.69,1.89-1.04,2.86"/><path class="cls-2" d="M116.26,292.23s-.69,1.52-1.71,3.97"/><path class="cls-6" d="M96.66,343.99c-.85.7-1.11,1.88-.63,2.87,1.83,3.76,6.69,13.35,13.68,23.98,6.75,10.27,13.4,18.34,16.31,21.73.83.97,2.29,1.11,3.28.31,4.25-3.43,15.6-12.38,27.43-20.15,11.52-7.57,24.87-14.93,30.43-17.93,1.33-.72,1.66-2.48.67-3.63-2.96-3.44-8.97-10.78-15.86-21.26-7.16-10.89-11.58-19.56-13.45-23.45-.58-1.22-2.05-1.7-3.24-1.06-5.05,2.68-17.97,9.72-30.85,18.19s-24.01,17.32-27.76,20.4Z"/><path class="cls-2" d="M174.67,353.79s-7.2-8.59-12.94-17.32c-5.74-8.73-10.65-18.83-10.65-18.83"/><path class="cls-2" d="M144.94,327.91c-1.76-3.29-2.85-5.54-2.85-5.54"/><path class="cls-2" d="M152.73,341.19c-1.58-2.41-3.1-4.92-4.47-7.3"/><path class="cls-2" d="M165.67,358.51s-1.68-2.01-4.07-5.07c-1.15-1.48-2.47-3.2-3.83-5.06"/><path class="cls-2" d="M156.68,363.23s-2.59-3.09-5.9-7.44c-1.92-2.52-4.07-5.47-6.11-8.48-.31-.46-.62-.93-.93-1.39-5.74-8.73-10.65-18.83-10.65-18.83"/><path class="cls-2" d="M128.06,339.24c-.96-1.77-1.76-3.31-2.34-4.45-.69-1.35-1.08-2.16-1.08-2.16"/><path class="cls-2" d="M148.23,368.79s-2.55-3.04-5.82-7.34c-2.23-2.93-4.79-6.44-7.12-9.98-1.37-2.09-2.7-4.26-3.92-6.35"/><path class="cls-2" d="M131.1,363.23c-1.25-1.73-2.51-3.55-3.71-5.38-1.62-2.46-3.17-5.03-4.56-7.45-.61-1.06-1.19-2.09-1.73-3.07-2.62-4.73-4.35-8.31-4.35-8.31"/><path class="cls-2" d="M140.33,375.18s-.8-.95-2.08-2.55"/><path class="cls-2" d="M113.09,353.53c-2.56-4.64-4.25-8.12-4.25-8.12"/><path class="cls-2" d="M132.43,381.57s-5.53-6.6-10.76-14.11c-.74-1.06-1.47-2.13-2.18-3.21"/><rect class="cls-7" x="110.66" y="122.78" width="14.95" height="29.71" rx="5.1" ry="5.1" transform="translate(297.09 167.15) rotate(140)"/><rect class="cls-7" x="310.12" y="122.02" width="14.95" height="29.71" rx="5.1" ry="5.1" transform="translate(162.27 -172.12) rotate(40)"/><path class="cls-12" d="M270.04,283.71h-66.89c-6.19,0-11.2-4.47-11.2-9.98h0c0-5.51,5.01-9.98,11.2-9.98h66.89c6.21,0,11.24,4.51,11.2,10.04h0c-.04,5.48-5.04,9.91-11.2,9.91Z"/><rect class="cls-14" x="176.22" y="267.85" width="38.09" height="22.49" rx="11.24" ry="11.24" transform="translate(-83.83 474.37) rotate(-90)"/><path class="cls-12" d="M164.16,281.62l66.39,8.18c6.14.76,11.66-3.06,12.34-8.53h0c.67-5.47-3.76-10.51-9.9-11.27l-66.39-8.18c-6.17-.76-11.71,3.1-12.34,8.6h0c-.63,5.45,3.79,10.45,9.9,11.21Z"/><rect class="cls-14" x="220.28" y="277.3" width="38.09" height="22.49" rx="11.24" ry="11.24" transform="translate(-105.92 434.63) rotate(-73.26)"/><rect class="cls-7" x="205.56" y="113.86" width="16.65" height="28.48" rx="6.38" ry="6.38" transform="translate(441.4 230.04) rotate(173.21)"/><circle class="cls-12" cx="217.3" cy="239.7" r="22.03"/><rect class="cls-5" x="160.54" y="134.16" width="27.26" height="70.03" rx="13.63" ry="13.63" transform="translate(187.94 411.59) rotate(-137.42)"/><rect class="cls-5" x="132.2" y="132.82" width="25.37" height="71.61" rx="12.68" ry="12.68" transform="translate(-74.57 133.02) rotate(-40.12)"/><rect class="cls-5" x="245.2" y="134.69" width="27.26" height="70.03" rx="13.63" ry="13.63" transform="translate(-46.58 219.87) rotate(-42.58)"/><rect class="cls-5" x="275.43" y="132.82" width="25.37" height="71.61" rx="12.68" ry="12.68" transform="translate(399.8 483.23) rotate(-139.88)"/><rect class="cls-12" x="148.56" y="244.97" width="73.73" height="20.71" rx="10.36" ry="10.36" transform="translate(-115.04 158.91) rotate(-36.22)"/><rect class="cls-12" x="212.99" y="246.97" width="73.73" height="20.71" rx="10.36" ry="10.36" transform="translate(299.37 612.57) rotate(-143.78)"/><path class="cls-5" d="M196.29,238.55l37.13-.26c5.16-.04,9.46-3.79,9.99-8.71l7.92-74.35c.93-8.01-2.45-15.55-6.99-15.55h-56.55c-4.53,0-7.92,7.53-6.99,15.55l8.5,73.07c.69,5.97,3.61,10.25,6.99,10.25Z"/><rect class="cls-14" x="190.24" y="232.46" width="52.71" height="7.24"/><rect class="cls-9" x="210.34" y="232.46" width="10.39" height="7.24"/><rect class="cls-12" x="230.48" y="232.46" width="2.97" height="7.24"/><rect class="cls-12" x="197.5" y="232.46" width="2.97" height="7.24"/><path class="cls-6" d="M363.72,165.69c-.36,1.04-1.39,1.69-2.48,1.57-4.16-.43-14.84-1.71-27.22-4.64s-21.82-6.31-26-7.88c-1.2-.45-1.83-1.77-1.41-2.98,1.76-5.17,6.29-18.9,9.54-32.67s5.51-28.48,6.43-34.73c.22-1.5,1.76-2.41,3.18-1.87,4.25,1.61,13.2,4.74,25.4,7.62s22.34,4.18,26.63,4.61c1.34.13,2.3,1.35,2.11,2.68-.79,5.66-2.97,20.21-6.52,35.22-3.64,15.4-8.05,28.49-9.66,33.07Z"/><path class="cls-2" d="M327.79,95.76s3.15,1.14,7.66,2.57c1.87.59,3.98,1.23,6.2,1.86s4.54,1.25,6.85,1.79c1.46.34,2.93.66,4.39.96,4.1.82,8.07,1.44,11.14,1.87,3.48.49,5.8.73,5.8.73"/><path class="cls-2" d="M326.44,105.83s4.49,1.63,10.43,3.43c1.6.49,3.31.98,5.07,1.46s3.47.92,5.21,1.34c3.06.72,6.22,1.33,9.13,1.83,2.13.37,4.14.67,5.88.92,3.78.54,6.33.8,6.33.8"/><path class="cls-2" d="M345.8,122.12c1.83.43,3.7.83,5.53,1.18,8.31,1.6,15.81,2.37,15.81,2.37"/><path class="cls-2" d="M325.09,115.9s4.31,1.56,10.08,3.32c1.26.38,2.58.77,3.94,1.16"/><path class="cls-2" d="M361.51,135.12c2.05.26,3.3.39,3.3.39"/><path class="cls-2" d="M322.76,125.74s2.21.8,5.58,1.9c1.97.64,4.34,1.39,6.89,2.13,1.61.47,3.3.94,5,1.39,1.07.28,2.15.55,3.23.81,1.77.42,3.58.8,5.34,1.14,2.19.42,4.33.79,6.29,1.1"/><path class="cls-2" d="M343.2,142.25c1.28.27,2.56.52,3.81.75.61.11,1.21.22,1.81.32,1.72.3,3.37.56,4.87.79,4.58.68,7.83,1.02,7.83,1.02"/><path class="cls-2" d="M319.47,135.35s.87.32,2.35.82c.43.15.92.31,1.46.49.41.14.85.28,1.31.43,1.51.5,3.27,1.06,5.2,1.64"/><path class="cls-2" d="M346.58,153.11c1.53.26,2.99.48,4.32.68.76.11,1.48.21,2.15.3,3.13.43,5.17.64,5.17.64"/><path class="cls-2" d="M329.42,149.22c.96.28,1.94.55,2.93.82"/><path class="cls-2" d="M316.17,144.96s1.57.57,4.08,1.41"/><path class="cls-6" d="M70.18,163.1c.4,1.02,1.45,1.63,2.54,1.48,4.14-.59,14.76-2.29,27.02-5.69,11.84-3.29,21.56-7.16,25.67-8.88,1.18-.5,1.76-1.84,1.3-3.03-1.96-5.1-7.02-18.64-10.8-32.28-3.68-13.28-6.61-28.24-7.77-34.45-.28-1.49-1.85-2.34-3.25-1.75-4.18,1.77-13.01,5.25-25.09,8.6-12.55,3.49-22.16,5.05-26.44,5.64-1.34.18-2.24,1.44-2,2.76,1.01,5.62,3.76,20.08,7.88,34.94,4.23,15.25,9.15,28.15,10.94,32.67Z"/><path class="cls-2" d="M103.36,91.82s-10.38,4.23-20.45,7.03-21.18,4.38-21.18,4.38"/><path class="cls-2" d="M69.62,112.22c-3.67.67-6.15,1.02-6.15,1.02"/><path class="cls-2" d="M84.65,108.86c-2.78.77-5.63,1.45-8.32,2.03"/><path class="cls-2" d="M105.1,101.83s-2.43.99-6.08,2.33c-1.76.64-3.8,1.37-5.99,2.11"/><path class="cls-2" d="M106.85,111.84s-3.73,1.52-8.89,3.34c-2.99,1.05-6.45,2.21-9.94,3.23-.54.16-1.08.31-1.61.46-10.07,2.8-21.18,4.38-21.18,4.38"/><path class="cls-2" d="M75.26,131.75c-1.98.37-3.68.66-4.95.87-1.5.24-2.39.37-2.39.37"/><path class="cls-2" d="M109.55,121.59s-3.67,1.5-8.77,3.3c-3.47,1.23-7.6,2.59-11.68,3.73-2.41.67-4.88,1.27-7.24,1.79"/><path class="cls-2" d="M99.03,136.2c-2.03.66-4.15,1.3-6.25,1.89-2.84.79-5.75,1.48-8.49,2.07-1.2.26-2.36.49-3.46.71-5.31,1.04-9.24,1.6-9.24,1.6"/><path class="cls-2" d="M113.22,131.06s-1.15.47-3.06,1.2"/><path class="cls-2" d="M84.29,150.38c-5.2,1.02-9.03,1.56-9.03,1.56"/><path class="cls-2" d="M116.89,140.54s-7.98,3.25-16.73,5.94c-1.23.38-2.48.74-3.72,1.09"/><rect class="cls-7" x="308.55" y="120.18" width="8.9" height="15.67" rx="4.45" ry="4.45" transform="translate(34.06 -63.16) rotate(12.18)"/><rect class="cls-7" x="116.28" y="120.94" width="8.9" height="15.67" rx="4.45" ry="4.45" transform="translate(265.91 229.18) rotate(167.82)"/><path class="cls-6" d="M179.36,342.18c.97.52,2.16.31,2.89-.51,2.79-3.12,9.81-11.26,16.99-21.76,6.94-10.15,11.88-19.36,13.91-23.34.58-1.14.16-2.54-.96-3.15-4.79-2.63-17.38-9.73-29.06-17.72-11.37-7.78-23.26-17.34-28.14-21.34-1.17-.96-2.92-.59-3.61.76-2.06,4.05-6.57,12.39-13.64,22.74-7.35,10.76-13.69,18.14-16.58,21.35-.9,1-.79,2.54.25,3.4,4.39,3.65,15.81,12.94,28.54,21.64s25.14,15.63,29.42,17.94Z"/><path class="cls-2" d="M158.81,266.29s-5.21,9.92-11.11,18.55c-5.9,8.62-13.38,17-13.38,17"/><path class="cls-2" d="M146.15,303.63c-2.38,2.88-4.05,4.74-4.05,4.74"/><path class="cls-2" d="M155.48,291.37c-1.63,2.38-3.37,4.74-5.05,6.91"/><path class="cls-2" d="M166.59,272.82s-1.22,2.32-3.15,5.7c-.93,1.63-2.02,3.49-3.22,5.47"/><path class="cls-2" d="M174.37,279.36s-1.87,3.57-4.65,8.28c-1.6,2.73-3.51,5.84-5.53,8.87-.31.47-.62.93-.94,1.39-5.9,8.62-13.38,17-13.38,17"/><path class="cls-2" d="M163.04,314.93c-1.27,1.56-2.39,2.88-3.23,3.85-.99,1.15-1.59,1.82-1.59,1.82"/><path class="cls-2" d="M182.72,285.06s-1.85,3.51-4.58,8.17c-1.86,3.17-4.14,6.88-6.53,10.38-1.41,2.06-2.91,4.11-4.38,6.04"/><path class="cls-2" d="M184.08,303.02c-1.13,1.81-2.33,3.67-3.57,5.47-1.66,2.43-3.45,4.84-5.16,7.05-.75.97-1.48,1.9-2.19,2.77-3.39,4.22-6.03,7.18-6.03,7.18"/><path class="cls-2" d="M191.63,289.95s-.58,1.1-1.57,2.89"/><path class="cls-2" d="M181.95,323.36c-3.32,4.13-5.9,7.01-5.9,7.01"/><path class="cls-2" d="M200.54,294.83s-4.01,7.63-8.97,15.32c-.7,1.08-1.42,2.17-2.14,3.23"/><path class="cls-7" d="M213.27,151.32h0c18.04-2.15,31.34-18.83,30.67-38.48l-2.21-65.12c-.66-5.58-5.38-9.6-10.53-8.99l-61.8,7.35c-5.15.61-8.79,5.63-8.12,11.21l13.14,63.82c3.96,19.26,20.81,32.36,38.85,30.21Z"/><circle class="cls-7" cx="246.63" cy="92.24" r="11.59"/><circle class="cls-7" cx="166.98" cy="101.48" r="11.59"/><path class="cls-12" d="M242.17,53.54c.35-23.91-18.7-43.85-42.62-23.58-23.93,20.27-.23.19-.34.29-7.51,6.34-23.03,11.75-32.39,14.62-4.29,1.31-6.84,6-5.87,10.73l1.63,7.88,79.55-7.96.03-1.98Z"/><g class="cls-15"><polygon class="cls-13" points="214.33 146.11 185.83 126.87 198.6 108.66 226.22 128.03 214.33 146.11"/><ellipse class="cls-11" cx="202.18" cy="132.85" rx="4.73" ry="6.59" transform="translate(-10.55 248.05) rotate(-61.75)"/></g><path class="cls-11" d="M210.63,115.86h0c-2.27.27-4.38-1.77-4.71-4.55l1.4-9.3c.22-1.43,2.16-1.71,2.77-.4l3.93,8.46c.08.17.13.35.15.54.2,2.67-1.34,4.98-3.54,5.25Z"/><circle class="cls-10" cx="197.36" cy="91.85" r="7.86"/><circle class="cls-8" cx="198.99" cy="90.12" r="3.9"/><circle class="cls-10" cx="216.68" cy="89.73" r="7.86"/><circle class="cls-8" cx="215" cy="88.34" r="3.9"/><rect class="cls-7" x="183.58" y="80.91" width="41.96" height="7.05" transform="translate(-8.54 24.76) rotate(-6.79)"/><circle class="cls-4" cx="216.4" cy="153.89" r="2.16"/><circle class="cls-4" cx="216.4" cy="166.19" r="2.16"/><circle class="cls-4" cx="216.4" cy="178.48" r="2.16"/><circle class="cls-4" cx="216.4" cy="190.78" r="2.16"/><circle class="cls-4" cx="216.4" cy="203.08" r="2.16"/><path class="cls-3" d="M224.87,89.89c0,4.36-3.53,7.89-7.89,7.89-2.99,0-5.6-1.67-6.93-4.12"/><path class="cls-3" d="M204.97,94.12c-.7,4.3-4.75,7.22-9.05,6.52-2.95-.48-5.26-2.54-6.18-5.18"/></svg>