<?xml version="1.0" encoding="UTF-8"?><svg id="Layer_1" xmlns="http://www.w3.org/2000/svg" xmlns:xlink="http://www.w3.org/1999/xlink" viewBox="0 0 980.9 441.54"><defs><clipPath id="clippath"><path d="M260.6,76.47h117.03c12.03,0,21.79,9.77,21.79,21.79v299.93c0,13.12-10.65,23.77-23.77,23.77h-113.08c-13.12,0-23.77-10.65-23.77-23.77V98.26c0-12.03,9.77-21.79,21.79-21.79Z" fill="none"/></clipPath><clipPath id="clippath-1"><rect x="239.16" y="145.45" width="160.27" height="277.38" fill="none"/></clipPath><clipPath id="clippath-2"><circle cx="319.12" cy="197.79" r="35.57" fill="none"/></clipPath><clipPath id="clippath-3"><path d="M250.3,139.36l-.73.49-.73-.49c-1.7-1.14-2.71-3.05-2.71-5.09v-1.32s.34-.09.34-.09c2.03-.52,4.17-.52,6.2,0l.33.08v1.32c0,2.04-1.01,3.94-2.7,5.09Z" fill="none"/></clipPath><clipPath id="clippath-4"><path d="M645.13,72.27h57.55c5.91,0,10.72,4.8,10.72,10.72v147.48c0,6.45-5.24,11.69-11.69,11.69h-55.6c-6.45,0-11.69-5.24-11.69-11.69V82.99c0-5.91,4.8-10.72,10.72-10.72Z" fill="none"/></clipPath><clipPath id="clippath-5"><rect x="634.59" y="106.19" width="78.81" height="136.4" fill="none"/></clipPath><clipPath id="clippath-6"><path d="M640.07,103.2l-.36.24-.36-.24c-.83-.56-1.33-1.5-1.33-2.5v-.65s.17-.04.17-.04c1-.26,2.05-.25,3.05,0l.16.04v.65c0,1-.5,1.94-1.33,2.5Z" fill="none"/></clipPath><clipPath id="clippath-7"><path d="M743.46,71.22h42.71c4.39,0,7.95,3.56,7.95,7.95v109.46c0,4.79-3.89,8.68-8.68,8.68h-41.27c-4.79,0-8.68-3.89-8.68-8.68v-109.46c0-4.39,3.56-7.95,7.95-7.95Z" fill="none"/></clipPath><clipPath id="clippath-8"><rect x="735.64" y="96.4" width="58.49" height="101.23" fill="none"/></clipPath><clipPath id="clippath-9"><path d="M739.7,94.18l-.26.18-.27-.18c-.62-.42-.99-1.11-.99-1.86v-.48s.12-.03.12-.03c.74-.19,1.52-.19,2.26,0l.12.03v.48c0,.74-.37,1.44-.99,1.86Z" fill="none"/></clipPath><clipPath id="clippath-10"><path d="M492.02,74.26h85.71c8.81,0,15.96,7.15,15.96,15.96v219.65c0,9.61-7.8,17.41-17.41,17.41h-82.81c-9.61,0-17.41-7.8-17.41-17.41V90.22c0-8.81,7.15-15.96,15.96-15.96Z" fill="none"/></clipPath><clipPath id="clippath-11"><rect x="489.44" y="124.78" width="118.9" height="203.14" fill="none"/></clipPath><clipPath id="clippath-12"><path d="M484.48,120.32l-.53.36-.54-.36c-1.24-.84-1.99-2.23-1.99-3.73v-.96s.25-.06.25-.06c1.49-.38,3.05-.38,4.54,0l.24.06v.97c0,1.49-.74,2.89-1.98,3.72Z" fill="none"/></clipPath></defs><path d="M378.07,427.27c2.01,0,4.01,0,6,0" fill="none" stroke="#000" stroke-linecap="round" stroke-miterlimit="10" stroke-width="3"/><path d="M396.18,427.27c182.23-.16,272.1-3.32,296.03-39.49,24.7-37.34-60.9-60.56-162.88-57.18-101.98,3.38-187.93-21.66-162.58-52.51,25.35-30.85,226.36-34.45,308.74-33.72,45.31.4,120.81-7.92,143.43-15.13,36.94-11.78,7.13-25.18-35.33-28.96" fill="none" stroke="#000" stroke-dasharray="12.12 12.12" stroke-linecap="round" stroke-miterlimit="10" stroke-width="3"/><path d="M777.54,199.81c-1.98-.13-3.98-.24-5.99-.33" fill="none" stroke="#000" stroke-linecap="round" stroke-miterlimit="10" stroke-width="3"/><rect x="231.66" y="68.21" width="174.91" height="361.64" rx="28.51" ry="28.51" fill="#202121"/><g clip-path="url(#clippath)"><rect x="238.81" y="74.94" width="160.62" height="347.89" fill="#fff"/><rect x="245.99" y="100.3" width="146.55" height="19.24" rx="9.62" ry="9.62" fill="#86a0bc" opacity=".5"/><rect x="238.81" y="123.84" width="160.62" height="22.63" fill="#05172e"/><g clip-path="url(#clippath-1)"><rect x="239.16" y="145.45" width="160.27" height="277.38" fill="#f0f2f6"/><rect x="245.55" y="244.8" width="146.55" height="42.54" rx="2.44" ry="2.44" fill="#fff"/><rect x="287.26" y="253.6" width="63.13" height="11.67" rx="1.57" ry="1.57" fill="#86a0bc" opacity=".25"/><rect x="280.02" y="270.35" width="36.35" height="7.94" rx="1.08" ry="1.08" fill="#86a0bc" opacity=".25"/><rect x="321.29" y="270.35" width="36.35" height="7.94" rx="1.08" ry="1.08" fill="#86a0bc" opacity=".25"/><g clip-path="url(#clippath-2)"><circle cx="319.12" cy="197.79" r="35.57" fill="#fff"/><path d="M336.96,244.32l-3.56-29.91c-.29-2.46-2.53-4.22-4.99-3.93-.06,0-.11.03-.16.04h-3.38c0-.87-.7-1.57-1.57-1.57h-1.05v-3.12c4.17-1.26,7.33-4.94,7.74-9.48l.17-1.9c.2.03.41.06.62.06,2.2,0,3.98-1.78,3.98-3.98s-1.73-3.92-3.88-3.97l.68-7.37h.04l.07-.57c.85-6.87-4.45-13.15-12.52-8.01-8.07,5.14-.08.05-.11.07-2.53,1.61-7.52,2.72-10.52,3.27-1.37.25-2.31,1.53-2.16,2.92l.15,1.36.76,8.32c-.06,0-.12-.02-.18-.02-2.2,0-3.98,1.78-3.98,3.98s1.78,3.98,3.98,3.98c.31,0,.61-.04.9-.11l.18,1.95c.42,4.54,3.57,8.22,7.74,9.48v3.12h-.41c-.87,0-1.57.7-1.57,1.57h-4.42s-.02,0-.03,0c-2.38-.17-4.49,1.54-4.78,3.93l-3.56,29.91c-.29,2.46,1.47,4.7,3.93,4.99,2.46.29,4.7-1.47,4.99-3.93l1.22-10.26c.33.23.71.37,1.11.37h13.38c.38,0,.74-.13,1.06-.34l1.21,10.18c.29,2.46,2.53,4.22,4.99,3.93,2.46-.29,4.22-2.53,3.93-4.99Z" fill="#86a0bc" opacity=".25"/></g></g></g><rect x="292.17" y="80.7" width="53.77" height="15.52" rx="7.76" ry="7.76"/><path d="M252.67,132.87c-.64-.16-1.29-.28-1.94-.34v-.02s.78-.9.78-.9c.05-.06.05-.15,0-.21l-.77-.91-.75-.09c-.27-.03-.54-.03-.81,0l-.75.09-.77.91c-.05.06-.05.15,0,.21l.77.9v.02c-.65.06-1.3.17-1.94.34l-.34.09v1.32c0,2.04,1.02,3.95,2.71,5.09l.73.49.73-.49c1.69-1.14,2.7-3.05,2.7-5.09v-1.32s-.33-.08-.33-.08Z" fill="#fff"/><path d="M252.67,132.87c-.64-.16-1.29-.28-1.94-.34v-.02s.78-.9.78-.9c.05-.06.05-.15,0-.21l-.77-.91-.75-.09c-.27-.03-.54-.03-.81,0l-.75.09-.77.91c-.05.06-.05.15,0,.21l.77.9v.02c-.65.06-1.3.17-1.94.34l-.34.09v1.32c0,2.04,1.02,3.95,2.71,5.09l.73.49.73-.49c1.69-1.14,2.7-3.05,2.7-5.09v-1.32s-.33-.08-.33-.08Z" fill="none" stroke="#122343" stroke-miterlimit="10" stroke-width=".02"/><path d="M249.57,130.37c.14,0,.27,0,.41.03l.75.09.77.91c.05.06.05.15,0,.21l-.77.9v.02c.65.06,1.3.17,1.94.34l.33.08v1.32c0,2.04-1.01,3.94-2.7,5.09l-.73.49-.73-.49c-1.7-1.14-2.71-3.05-2.71-5.09v-1.32l.34-.09c.64-.16,1.29-.28,1.95-.34v-.02s-.78-.9-.78-.9c-.05-.06-.05-.15,0-.21l.77-.91.75-.09c.14-.02.27-.03.41-.03M249.57,129.73c-.16,0-.33.01-.49.03l-.75.09-.25.03-.16.19-.77.91c-.25.3-.25.74,0,1.04l.03.03c-.29.05-.58.12-.87.19l-.34.09-.48.12v1.81c0,2.26,1.12,4.36,2.99,5.62l.73.49.36.24.36-.24.73-.49c1.87-1.26,2.98-3.36,2.98-5.62v-1.82l-.48-.12-.33-.08c-.29-.07-.58-.14-.87-.19l.03-.03c.26-.3.26-.74,0-1.04l-.77-.91-.16-.19-.25-.03-.75-.09c-.16-.02-.32-.03-.49-.03h0Z" fill="#b1b5be"/><g clip-path="url(#clippath-3)"><rect x="246.12" y="132.42" width=".48" height="9.34" fill="#cf4654"/><rect x="247.08" y="132.42" width=".48" height="9.34" fill="#cf4654"/><rect x="248.04" y="132.42" width=".48" height="9.34" fill="#cf4654"/><rect x="250.61" y="132.41" width=".48" height="9.34" fill="#cf4654"/><rect x="251.57" y="132.41" width=".48" height="9.34" fill="#cf4654"/><rect x="252.53" y="132.28" width=".48" height="9.34" fill="#cf4654"/><rect x="249.16" y="135.79" width=".85" height="4.34" fill="#b1b5be"/><path d="M249.85,135.95v4.03h-.53v-4.03h.53M250.16,135.63h-1.17v4.66h1.17v-4.66h0Z" fill="#122343"/></g><path d="M249.57,132.47c1.04,0,2.09.13,3.11.39l.33.08v1.32c0,2.04-1.01,3.94-2.7,5.09l-.73.49-.73-.49c-1.7-1.14-2.71-3.05-2.71-5.09v-1.32l.34-.09c1.02-.26,2.06-.39,3.09-.39M249.57,132.15c-1.07,0-2.14.13-3.17.4l-.34.09-.24.06v1.56c0,2.15,1.07,4.16,2.85,5.36l.73.49.18.12.18-.12.73-.49c1.78-1.2,2.84-3.2,2.84-5.35v-1.57l-.24-.06-.33-.08c-1.04-.27-2.11-.4-3.19-.4h0Z" fill="#122343"/><path d="M248.69,136.11l-.43-3.58-.74-.82c-.1-.12-.1-.29,0-.41l.81-.96.81-.1c.14-.02.28-.03.43-.03s.29,0,.43.03l.81.1.82.96c.1.12.1.29,0,.41l-.77.9-.41,3.5h-1.75Z" fill="#fff"/><path d="M249.57,130.37c.14,0,.27,0,.41.03l.75.09.77.91c.05.06.05.15,0,.21l-.77.9-.43,3.44h-1.47l-.42-3.44-.77-.9c-.05-.06-.05-.15,0-.21l.77-.91.75-.09c.14-.02.27-.03.41-.03M249.57,130.05c-.15,0-.3,0-.45.03l-.75.09-.12.02-.08.09-.77.91c-.15.18-.15.44,0,.62l.71.83.4,3.35.03.28h2.03l.04-.28.42-3.35.71-.83c.15-.18.15-.44,0-.62l-.77-.91-.08-.09-.12-.02-.75-.09c-.15-.02-.3-.03-.45-.03h0Z" fill="#122343"/><path d="M256.78,138.91l.9-5.67h-1.27s.31-1.93.31-1.93h4.66s-.31,1.93-.31,1.93h-1.26s-.9,5.67-.9,5.67h-2.13Z" fill="#fff"/><path d="M263.96,131.31l-.2,4.5,1.4-4.5h1.71s-.02,4.5-.02,4.5l1.22-4.5h2.11s-2.68,7.6-2.68,7.6h-1.95s.02-4.75.02-4.75l-1.48,4.75h-1.95s-.28-7.6-.28-7.6h2.11Z" fill="#fff"/><path d="M270.91,131.31h2.12s-1.2,7.6-1.2,7.6h-2.12s1.2-7.6,1.2-7.6Z" fill="#fff"/><path d="M274.3,131.31h1.79c1.93,0,2.96.33,2.96,1.95,0,1.25-.55,2.07-1.57,2.32l.94,3.33h-2.25s-.48-3.07-.48-3.07l-.48,3.07h-2.12s1.2-7.6,1.2-7.6ZM276,134.7c.65,0,1-.43,1-1.18,0-.45-.22-.64-.68-.64-.04,0-.1.01-.15.01l-.29,1.81h.12Z" fill="#fff"/><path d="M280.35,131.31h2.13s-.91,5.71-.91,5.71h1.56s-.3,1.89-.3,1.89h-3.69s1.2-7.6,1.2-7.6Z" fill="#fff"/><path d="M285.38,138.91h-1.82s1.75-7.6,1.75-7.6h2.48s.02,4.01.02,4.01l1.29-4.01h2.47s-.65,7.6-.65,7.6h-1.83s.69-5.63.69-5.63l-1.8,5.63h-1.44s-.09-5.64-.09-5.64l-1.08,5.64Z" fill="#fff"/><path d="M294.11,131.31h2.5s.53,7.6.53,7.6h-2.14s.01-1.12.01-1.12h-1.26s-.33,1.12-.33,1.12h-2.17s2.86-7.6,2.86-7.6ZM295.06,136.26l.02-2.81-.87,2.81h.85Z" fill="#fff"/><path d="M298.34,138.91l.9-5.67h-1.27s.31-1.93.31-1.93h4.66s-.31,1.93-.31,1.93h-1.26s-.9,5.67-.9,5.67h-2.13Z" fill="#fff"/><path d="M303.94,131.31h3.76s-.29,1.84-.29,1.84h-1.64s-.16.97-.16.97h1.48s-.28,1.78-.28,1.78h-1.48s-.17,1.04-.17,1.04h1.64s-.31,1.96-.31,1.96h-3.76s1.2-7.6,1.2-7.6Z" fill="#fff"/><path d="M256.78,138.91l.9-5.67h-1.27s.31-1.93.31-1.93h4.66s-.31,1.93-.31,1.93h-1.26s-.9,5.67-.9,5.67h-2.13Z" fill="#fff"/><path d="M263.96,131.31l-.2,4.5,1.4-4.5h1.71s-.02,4.5-.02,4.5l1.22-4.5h2.11s-2.68,7.6-2.68,7.6h-1.95s.02-4.75.02-4.75l-1.48,4.75h-1.95s-.28-7.6-.28-7.6h2.11Z" fill="#fff"/><path d="M270.91,131.31h2.12s-1.2,7.6-1.2,7.6h-2.12s1.2-7.6,1.2-7.6Z" fill="#fff"/><path d="M274.3,131.31h1.79c1.93,0,2.96.33,2.96,1.95,0,1.25-.55,2.07-1.57,2.32l.94,3.33h-2.25s-.48-3.07-.48-3.07l-.48,3.07h-2.12s1.2-7.6,1.2-7.6ZM276,134.7c.65,0,1-.43,1-1.18,0-.45-.22-.64-.68-.64-.04,0-.1.01-.15.01l-.29,1.81h.12Z" fill="#fff"/><path d="M280.35,131.31h2.13s-.91,5.71-.91,5.71h1.56s-.3,1.89-.3,1.89h-3.69s1.2-7.6,1.2-7.6Z" fill="#fff"/><path d="M285.38,138.91h-1.82s1.75-7.6,1.75-7.6h2.48s.02,4.01.02,4.01l1.29-4.01h2.47s-.65,7.6-.65,7.6h-1.83s.69-5.63.69-5.63l-1.8,5.63h-1.44s-.09-5.64-.09-5.64l-1.08,5.64Z" fill="#fff"/><path d="M294.11,131.31h2.5s.53,7.6.53,7.6h-2.14s.01-1.12.01-1.12h-1.26s-.33,1.12-.33,1.12h-2.17s2.86-7.6,2.86-7.6ZM295.06,136.26l.02-2.81-.87,2.81h.85Z" fill="#fff"/><path d="M298.34,138.91l.9-5.67h-1.27s.31-1.93.31-1.93h4.66s-.31,1.93-.31,1.93h-1.26s-.9,5.67-.9,5.67h-2.13Z" fill="#fff"/><path d="M303.94,131.31h3.76s-.29,1.84-.29,1.84h-1.64s-.16.97-.16.97h1.48s-.28,1.78-.28,1.78h-1.48s-.17,1.04-.17,1.04h1.64s-.31,1.96-.31,1.96h-3.76s1.2-7.6,1.2-7.6Z" fill="#fff"/><rect x="379.06" y="128.97" width="12.83" height="2.22" rx="1.11" ry="1.11" fill="#fff"/><rect x="379.06" y="133.69" width="12.83" height="2.2" rx="1.1" ry="1.1" fill="#fff"/><rect x="379.06" y="138.39" width="12.83" height="2.2" rx="1.1" ry="1.1" fill="#fff"/><rect x="630.9" y="68.21" width="86.01" height="177.83" rx="14.02" ry="14.02" fill="#202121"/><g clip-path="url(#clippath-4)"><rect x="634.42" y="71.52" width="78.98" height="171.07" fill="#fff"/><rect x="637.95" y="83.99" width="72.06" height="9.46" rx="4.73" ry="4.73" fill="#86a0bc" opacity=".5"/><rect x="634.42" y="95.57" width="78.98" height="11.13" fill="#05172e"/><g clip-path="url(#clippath-5)"><rect x="634.59" y="106.19" width="78.81" height="136.4" fill="#f0f2f6"/><rect x="634.59" y="106.19" width="78.81" height="20.13" fill="#fff"/><rect x="637.95" y="130.67" width="72.06" height="20.92" rx="1.2" ry="1.2" fill="#fff"/><rect x="658.36" y="134.99" width="31.04" height="5.74" rx=".77" ry=".77" fill="#86a0bc" opacity=".25"/><rect x="658.49" y="143.23" width="17.87" height="3.9" rx=".53" ry=".53" fill="#86a0bc" opacity=".25"/><rect x="678.78" y="143.23" width="17.87" height="3.9" rx=".53" ry=".53" fill="#86a0bc" opacity=".25"/><rect x="642.16" y="135.31" width="11.91" height="11.91" rx="1.75" ry="1.75" fill="#038179" opacity=".5"/><path d="M646.9,137.11c0-.22-.18-.4-.4-.4s-.4.18-.4.4v.67s-.67,0-.67,0c-.59,0-1.08.48-1.08,1.08v.27s0,.81,0,.81v4.31c0,.59.48,1.08,1.08,1.08h5.39c.59,0,1.08-.48,1.08-1.08v-4.31s0-.81,0-.81v-.27c0-.59-.48-1.08-1.08-1.08h-.67s0-.67,0-.67c0-.22-.18-.4-.4-.4s-.4.18-.4.4v.67s-2.42,0-2.42,0v-.67ZM645.15,139.94h5.93s0,4.31,0,4.31c0,.15-.12.27-.27.27h-5.39c-.15,0-.27-.12-.27-.27v-4.31Z" fill="#05172e" opacity=".3"/><rect x="637.88" y="155.22" width="72.06" height="20.92" rx="1.2" ry="1.2" fill="#fff"/><rect x="658.29" y="159.54" width="31.04" height="5.74" rx=".77" ry=".77" fill="#86a0bc" opacity=".25"/><rect x="658.42" y="167.78" width="17.87" height="3.9" rx=".53" ry=".53" fill="#86a0bc" opacity=".25"/><rect x="678.71" y="167.78" width="17.87" height="3.9" rx=".53" ry=".53" fill="#86a0bc" opacity=".25"/><rect x="642.09" y="159.86" width="11.91" height="11.91" rx="1.75" ry="1.75" fill="#ff7bac" opacity=".5"/><path d="M646.83,161.66c0-.22-.18-.4-.4-.4s-.4.18-.4.4v.67s-.67,0-.67,0c-.59,0-1.08.48-1.08,1.08v.27s0,.81,0,.81v4.31c0,.59.48,1.08,1.08,1.08h5.39c.59,0,1.08-.48,1.08-1.08v-4.31s0-.81,0-.81v-.27c0-.59-.48-1.08-1.08-1.08h-.67s0-.67,0-.67c0-.22-.18-.4-.4-.4s-.4.18-.4.4v.67s-2.42,0-2.42,0v-.67ZM645.08,164.49h5.93s0,4.31,0,4.31c0,.15-.12.27-.27.27h-5.39c-.15,0-.27-.12-.27-.27v-4.31Z" fill="#05172e" opacity=".3"/><rect x="637.81" y="179.77" width="72.06" height="20.92" rx="1.2" ry="1.2" fill="#fff"/><rect x="658.22" y="184.09" width="31.04" height="5.74" rx=".77" ry=".77" fill="#86a0bc" opacity=".25"/><rect x="658.35" y="192.33" width="17.87" height="3.9" rx=".53" ry=".53" fill="#86a0bc" opacity=".25"/><rect x="678.64" y="192.33" width="17.87" height="3.9" rx=".53" ry=".53" fill="#86a0bc" opacity=".25"/><rect x="642.02" y="184.4" width="11.91" height="11.91" rx="1.75" ry="1.75" fill="#ffc500" opacity=".5"/><path d="M646.76,186.21c0-.22-.18-.4-.4-.4s-.4.18-.4.4v.67s-.67,0-.67,0c-.59,0-1.08.48-1.08,1.08v.27s0,.81,0,.81v4.31c0,.59.48,1.08,1.08,1.08h5.39c.59,0,1.08-.48,1.08-1.08v-4.31s0-.81,0-.81v-.27c0-.59-.48-1.08-1.08-1.08h-.67s0-.67,0-.67c0-.22-.18-.4-.4-.4s-.4.18-.4.4v.67s-2.42,0-2.42,0v-.67ZM645.01,189.04h5.93s0,4.31,0,4.31c0,.15-.12.27-.27.27h-5.39c-.15,0-.27-.12-.27-.27v-4.31Z" fill="#05172e" opacity=".3"/><rect x="637.74" y="204.31" width="72.06" height="20.92" rx="1.2" ry="1.2" fill="#fff"/><rect x="658.15" y="208.64" width="31.04" height="5.74" rx=".77" ry=".77" fill="#86a0bc" opacity=".25"/><rect x="658.28" y="216.87" width="17.87" height="3.9" rx=".53" ry=".53" fill="#86a0bc" opacity=".25"/><rect x="678.57" y="216.87" width="17.87" height="3.9" rx=".53" ry=".53" fill="#86a0bc" opacity=".25"/><rect x="641.95" y="208.95" width="11.91" height="11.91" rx="1.75" ry="1.75" fill="#3cbbc4" opacity=".5"/><path d="M646.69,210.76c0-.22-.18-.4-.4-.4s-.4.18-.4.4v.67s-.67,0-.67,0c-.59,0-1.08.48-1.08,1.08v.27s0,.81,0,.81v4.31c0,.59.48,1.08,1.08,1.08h5.39c.59,0,1.08-.48,1.08-1.08v-4.31s0-.81,0-.81v-.27c0-.59-.48-1.08-1.08-1.08h-.67s0-.67,0-.67c0-.22-.18-.4-.4-.4s-.4.18-.4.4v.67s-2.42,0-2.42,0v-.67ZM644.94,213.58h5.93s0,4.31,0,4.31c0,.15-.12.27-.27.27h-5.39c-.15,0-.27-.12-.27-.27v-4.31Z" fill="#05172e" opacity=".3"/><rect x="637.67" y="228.86" width="72.06" height="20.92" rx="1.2" ry="1.2" fill="#fff"/><rect x="658.08" y="233.19" width="31.04" height="5.74" rx=".77" ry=".77" fill="#86a0bc" opacity=".25"/><rect x="658.21" y="241.42" width="17.87" height="3.9" rx=".53" ry=".53" fill="#86a0bc" opacity=".25"/><rect x="678.5" y="241.42" width="17.87" height="3.9" rx=".53" ry=".53" fill="#86a0bc" opacity=".25"/><rect x="641.88" y="233.5" width="11.91" height="11.91" rx="1.75" ry="1.75" fill="#9a60c4" opacity=".5"/><path d="M646.62,235.31c0-.22-.18-.4-.4-.4s-.4.18-.4.4v.67s-.67,0-.67,0c-.59,0-1.08.48-1.08,1.08v.27s0,.81,0,.81v4.31c0,.59.48,1.08,1.08,1.08h5.39c.59,0,1.08-.48,1.08-1.08v-4.31s0-.81,0-.81v-.27c0-.59-.48-1.08-1.08-1.08h-.67s0-.67,0-.67c0-.22-.18-.4-.4-.4s-.4.18-.4.4v.67s-2.42,0-2.42,0v-.67ZM644.87,238.13h5.93s0,4.31,0,4.31c0,.15-.12.27-.27.27h-5.39c-.15,0-.27-.12-.27-.27v-4.31Z" fill="#05172e" opacity=".3"/></g></g><rect x="660.65" y="74.35" width="26.44" height="7.63" rx="3.82" ry="3.82"/><path d="M641.24,100c-.31-.08-.63-.14-.96-.17h0s.38-.45.38-.45c.03-.03.03-.07,0-.1l-.38-.45-.37-.05c-.13-.02-.27-.02-.4,0l-.37.05-.38.45s-.02.07,0,.1l.38.44h0c-.32.04-.64.09-.96.17l-.17.04v.65c0,1,.5,1.94,1.33,2.5l.36.24.36-.24c.83-.56,1.33-1.5,1.33-2.5v-.65s-.16-.04-.16-.04Z" fill="#fff"/><path d="M641.24,100c-.31-.08-.63-.14-.96-.17h0s.38-.45.38-.45c.03-.03.03-.07,0-.1l-.38-.45-.37-.05c-.13-.02-.27-.02-.4,0l-.37.05-.38.45s-.02.07,0,.1l.38.44h0c-.32.04-.64.09-.96.17l-.17.04v.65c0,1,.5,1.94,1.33,2.5l.36.24.36-.24c.83-.56,1.33-1.5,1.33-2.5v-.65s-.16-.04-.16-.04Z" fill="none" stroke="#122343" stroke-miterlimit="10" stroke-width="0"/><path d="M639.71,98.78c.07,0,.13,0,.2.01l.37.05.38.45s.03.07,0,.1l-.38.44h0c.32.04.64.09.96.17l.16.04v.65c0,1-.5,1.94-1.33,2.5l-.36.24-.36-.24c-.83-.56-1.33-1.5-1.33-2.5v-.65l.17-.04c.31-.08.63-.14.96-.17h0s-.38-.45-.38-.45c-.02-.03-.03-.07,0-.1l.38-.45.37-.05c.07,0,.13-.01.2-.01M639.71,98.46c-.08,0-.16,0-.24.01l-.37.05-.12.02-.08.09-.38.45c-.13.15-.13.36,0,.51v.02c-.13.03-.27.06-.41.09l-.17.04-.24.06v.89c0,1.11.55,2.14,1.47,2.77l.36.24.18.12.18-.12.36-.24c.92-.62,1.47-1.65,1.47-2.76v-.89l-.24-.06-.16-.04c-.14-.04-.28-.07-.43-.09v-.02c.14-.14.14-.37.01-.51l-.38-.45-.08-.09-.12-.02-.37-.05c-.08,0-.16-.01-.24-.01h0Z" fill="#b1b5be"/><g clip-path="url(#clippath-6)"><rect x="638.02" y="99.78" width=".24" height="4.59" fill="#cf4654"/><rect x="638.49" y="99.78" width=".24" height="4.59" fill="#cf4654"/><rect x="638.96" y="99.78" width=".24" height="4.59" fill="#cf4654"/><rect x="640.22" y="99.78" width=".24" height="4.59" fill="#cf4654"/><rect x="640.69" y="99.78" width=".24" height="4.59" fill="#cf4654"/><rect x="641.16" y="99.71" width=".24" height="4.59" fill="#cf4654"/><rect x="639.51" y="101.44" width=".42" height="2.14" fill="#b1b5be"/><path d="M639.84,101.52v1.98h-.26v-1.98h.26M640,101.36h-.57v2.29h.57v-2.29h0Z" fill="#122343"/></g><path d="M639.71,99.81c.51,0,1.03.06,1.53.19l.16.04v.65c0,1-.5,1.94-1.33,2.5l-.36.24-.36-.24c-.83-.56-1.33-1.5-1.33-2.5v-.65l.17-.04c.5-.13,1.01-.19,1.52-.19M639.71,99.65c-.53,0-1.05.07-1.56.2l-.17.04-.12.03v.77c0,1.06.52,2.04,1.4,2.63l.36.24.09.06.09-.06.36-.24c.88-.59,1.4-1.57,1.4-2.63v-.77l-.12-.03-.16-.04c-.51-.13-1.04-.2-1.57-.2h0Z" fill="#122343"/><path d="M639.28,101.6l-.21-1.76-.36-.4c-.05-.06-.05-.14,0-.2l.38-.45.42-.07c.07,0,.14-.01.21-.01s.14,0,.21.01l.37.05.43.48c.05.06.05.14,0,.2l-.38.44-.2,1.72h-.86Z" fill="#fff"/><path d="M639.71,98.78c.07,0,.13,0,.2.01l.37.05.38.45s.03.07,0,.1l-.38.44-.21,1.69h-.72l-.2-1.69-.38-.44s-.03-.07,0-.1l.38-.45.37-.05c.07,0,.13-.01.2-.01M639.71,98.62c-.07,0-.15,0-.22.01l-.37.05h-.06s-.04.05-.04.05l-.38.45c-.08.09-.08.22,0,.31l.35.41.2,1.65.02.14h1l.02-.14.21-1.65.35-.41c.08-.09.08-.22,0-.31l-.38-.45-.04-.05h-.06s-.37-.05-.37-.05c-.07,0-.15-.01-.22-.01h0Z" fill="#122343"/><path d="M643.25,102.98l.44-2.79h-.62s.15-.95.15-.95h2.29s-.15.95-.15.95h-.62s-.44,2.79-.44,2.79h-1.05Z" fill="#fff"/><path d="M646.78,99.24l-.1,2.21.69-2.21h.84s-.01,2.21-.01,2.21l.6-2.21h1.04s-1.32,3.74-1.32,3.74h-.96s.01-2.34.01-2.34l-.73,2.34h-.96s-.14-3.74-.14-3.74h1.04Z" fill="#fff"/><path d="M650.2,99.24h1.04s-.59,3.74-.59,3.74h-1.04s.59-3.74.59-3.74Z" fill="#fff"/><path d="M651.87,99.24h.88c.95,0,1.46.16,1.46.96,0,.61-.27,1.02-.77,1.14l.46,1.64h-1.11s-.24-1.51-.24-1.51l-.24,1.51h-1.04s.59-3.74.59-3.74ZM652.71,100.91c.32,0,.49-.21.49-.58,0-.22-.11-.31-.34-.31-.02,0-.05,0-.07,0l-.14.89h.06Z" fill="#fff"/><path d="M654.85,99.24h1.05s-.45,2.81-.45,2.81h.77s-.15.93-.15.93h-1.81s.59-3.74.59-3.74Z" fill="#fff"/><path d="M657.32,102.98h-.9s.86-3.74.86-3.74h1.22s.01,1.97.01,1.97l.63-1.97h1.22s-.32,3.74-.32,3.74h-.9s.34-2.77.34-2.77l-.89,2.77h-.71s-.04-2.77-.04-2.77l-.53,2.77Z" fill="#fff"/><path d="M661.61,99.24h1.23s.26,3.74.26,3.74h-1.05s0-.55,0-.55h-.62s-.16.55-.16.55h-1.07s1.4-3.74,1.4-3.74ZM662.08,101.67v-1.38s-.42,1.38-.42,1.38h.42Z" fill="#fff"/><path d="M663.69,102.98l.44-2.79h-.62s.15-.95.15-.95h2.29s-.15.95-.15.95h-.62s-.44,2.79-.44,2.79h-1.05Z" fill="#fff"/><path d="M666.44,99.24h1.85s-.14.91-.14.91h-.81s-.08.48-.08.48h.73s-.14.88-.14.88h-.73s-.08.51-.08.51h.81s-.15.96-.15.96h-1.85s.59-3.74.59-3.74Z" fill="#fff"/><path d="M643.25,102.98l.44-2.79h-.62s.15-.95.15-.95h2.29s-.15.95-.15.95h-.62s-.44,2.79-.44,2.79h-1.05Z" fill="#fff"/><path d="M646.78,99.24l-.1,2.21.69-2.21h.84s-.01,2.21-.01,2.21l.6-2.21h1.04s-1.32,3.74-1.32,3.74h-.96s.01-2.34.01-2.34l-.73,2.34h-.96s-.14-3.74-.14-3.74h1.04Z" fill="#fff"/><path d="M650.2,99.24h1.04s-.59,3.74-.59,3.74h-1.04s.59-3.74.59-3.74Z" fill="#fff"/><path d="M651.87,99.24h.88c.95,0,1.46.16,1.46.96,0,.61-.27,1.02-.77,1.14l.46,1.64h-1.11s-.24-1.51-.24-1.51l-.24,1.51h-1.04s.59-3.74.59-3.74ZM652.71,100.91c.32,0,.49-.21.49-.58,0-.22-.11-.31-.34-.31-.02,0-.05,0-.07,0l-.14.89h.06Z" fill="#fff"/><path d="M654.85,99.24h1.05s-.45,2.81-.45,2.81h.77s-.15.93-.15.93h-1.81s.59-3.74.59-3.74Z" fill="#fff"/><path d="M657.32,102.98h-.9s.86-3.74.86-3.74h1.22s.01,1.97.01,1.97l.63-1.97h1.22s-.32,3.74-.32,3.74h-.9s.34-2.77.34-2.77l-.89,2.77h-.71s-.04-2.77-.04-2.77l-.53,2.77Z" fill="#fff"/><path d="M661.61,99.24h1.23s.26,3.74.26,3.74h-1.05s0-.55,0-.55h-.62s-.16.55-.16.55h-1.07s1.4-3.74,1.4-3.74ZM662.08,101.67v-1.38s-.42,1.38-.42,1.38h.42Z" fill="#fff"/><path d="M663.69,102.98l.44-2.79h-.62s.15-.95.15-.95h2.29s-.15.95-.15.95h-.62s-.44,2.79-.44,2.79h-1.05Z" fill="#fff"/><path d="M666.44,99.24h1.85s-.14.91-.14.91h-.81s-.08.48-.08.48h.73s-.14.88-.14.88h-.73s-.08.51-.08.51h.81s-.15.96-.15.96h-1.85s.59-3.74.59-3.74Z" fill="#fff"/><rect x="655.61" y="112.65" width="36.6" height="7.76" rx=".97" ry=".97" fill="#86a0bc" opacity=".25"/><rect x="732.9" y="68.21" width="63.83" height="131.98" rx="10.4" ry="10.4" fill="#202121"/><g clip-path="url(#clippath-7)"><rect x="735.51" y="70.67" width="58.62" height="126.96" fill="#fff"/><rect x="738.13" y="79.92" width="53.48" height="7.02" rx="3.51" ry="3.51" fill="#86a0bc" opacity=".5"/><rect x="735.51" y="88.51" width="58.62" height="8.26" fill="#05172e"/><g clip-path="url(#clippath-8)"><rect x="735.64" y="96.4" width="58.49" height="101.23" fill="#f0f2f6"/><rect x="735.64" y="96.4" width="58.49" height="14.94" fill="#fff"/><rect x="738.13" y="114.56" width="53.48" height="15.52" rx=".89" ry=".89" fill="#fff"/><rect x="741.25" y="118.01" width="47.55" height="8.84" rx=".96" ry=".96" fill="#038179" opacity=".5"/><rect x="738.08" y="132.78" width="53.48" height="49.58" rx="1.59" ry="1.59" fill="#fff"/><rect x="740.82" y="135.99" width="23.04" height="4.26" rx=".73" ry=".73" fill="#86a0bc" opacity=".25"/><rect x="740.91" y="143.56" width="13.27" height="2.9" rx=".36" ry=".36" fill="#86a0bc" opacity=".25"/><rect x="755.97" y="143.56" width="13.27" height="2.9" rx=".36" ry=".36" fill="#86a0bc" opacity=".25"/><rect x="771.19" y="143.56" width="17.85" height="2.9" rx=".36" ry=".36" fill="#86a0bc" opacity=".25"/><rect x="740.91" y="148.27" width="21.69" height="2.9" rx=".36" ry=".36" fill="#86a0bc" opacity=".25"/><rect x="764.82" y="148.27" width="24.22" height="2.9" rx=".36" ry=".36" fill="#86a0bc" opacity=".25"/><rect x="740.91" y="152.97" width="13.27" height="2.9" rx=".36" ry=".36" fill="#86a0bc" opacity=".25"/><rect x="755.97" y="152.97" width="13.27" height="2.9" rx=".36" ry=".36" fill="#86a0bc" opacity=".25"/><rect x="771.19" y="152.97" width="17.85" height="2.9" rx=".36" ry=".36" fill="#86a0bc" opacity=".25"/><rect x="740.91" y="157.68" width="28.33" height="2.9" rx=".36" ry=".36" fill="#86a0bc" opacity=".25"/><rect x="771.19" y="157.68" width="17.85" height="2.9" rx=".36" ry=".36" fill="#86a0bc" opacity=".25"/><rect x="740.91" y="162.38" width="13.27" height="2.9" rx=".36" ry=".36" fill="#86a0bc" opacity=".25"/><rect x="755.97" y="162.38" width="33.07" height="2.9" rx=".36" ry=".36" fill="#86a0bc" opacity=".25"/><rect x="740.91" y="167.08" width="13.27" height="2.9" rx=".36" ry=".36" fill="#86a0bc" opacity=".25"/><rect x="755.97" y="167.08" width="13.27" height="2.9" rx=".36" ry=".36" fill="#86a0bc" opacity=".25"/><rect x="771.19" y="167.08" width="17.85" height="2.9" rx=".36" ry=".36" fill="#86a0bc" opacity=".25"/><rect x="740.91" y="171.79" width="23.91" height="2.9" rx=".36" ry=".36" fill="#86a0bc" opacity=".25"/><rect x="766.52" y="171.79" width="22.52" height="2.9" rx=".36" ry=".36" fill="#86a0bc" opacity=".25"/><rect x="740.91" y="176.49" width="13.27" height="2.9" rx=".36" ry=".36" fill="#86a0bc" opacity=".25"/><rect x="755.97" y="176.49" width="13.27" height="2.9" rx=".36" ry=".36" fill="#86a0bc" opacity=".25"/><rect x="771.19" y="176.49" width="17.85" height="2.9" rx=".36" ry=".36" fill="#86a0bc" opacity=".25"/><rect x="738.08" y="185.81" width="53.48" height="49.58" rx="1.59" ry="1.59" fill="#fff"/><rect x="740.82" y="189.02" width="23.04" height="4.26" rx=".73" ry=".73" fill="#86a0bc" opacity=".25"/><rect x="740.91" y="196.59" width="13.27" height="2.9" rx=".36" ry=".36" fill="#86a0bc" opacity=".25"/><rect x="755.97" y="196.59" width="13.27" height="2.9" rx=".36" ry=".36" fill="#86a0bc" opacity=".25"/><rect x="771.19" y="196.59" width="17.85" height="2.9" rx=".36" ry=".36" fill="#86a0bc" opacity=".25"/><rect x="740.91" y="201.3" width="21.69" height="2.9" rx=".36" ry=".36" fill="#86a0bc" opacity=".25"/><rect x="764.82" y="201.3" width="24.22" height="2.9" rx=".36" ry=".36" fill="#86a0bc" opacity=".25"/><rect x="740.91" y="206" width="13.27" height="2.9" rx=".36" ry=".36" fill="#86a0bc" opacity=".25"/><rect x="755.97" y="206" width="13.27" height="2.9" rx=".36" ry=".36" fill="#86a0bc" opacity=".25"/><rect x="771.19" y="206" width="17.85" height="2.9" rx=".36" ry=".36" fill="#86a0bc" opacity=".25"/><rect x="740.91" y="210.7" width="28.33" height="2.9" rx=".36" ry=".36" fill="#86a0bc" opacity=".25"/><rect x="771.19" y="210.7" width="17.85" height="2.9" rx=".36" ry=".36" fill="#86a0bc" opacity=".25"/><rect x="740.91" y="215.41" width="13.27" height="2.9" rx=".36" ry=".36" fill="#86a0bc" opacity=".25"/><rect x="755.97" y="215.41" width="33.07" height="2.9" rx=".36" ry=".36" fill="#86a0bc" opacity=".25"/><rect x="740.91" y="220.11" width="13.27" height="2.9" rx=".36" ry=".36" fill="#86a0bc" opacity=".25"/><rect x="755.97" y="220.11" width="13.27" height="2.9" rx=".36" ry=".36" fill="#86a0bc" opacity=".25"/><rect x="771.19" y="220.11" width="17.85" height="2.9" rx=".36" ry=".36" fill="#86a0bc" opacity=".25"/><rect x="740.91" y="224.81" width="23.91" height="2.9" rx=".36" ry=".36" fill="#86a0bc" opacity=".25"/><rect x="766.52" y="224.81" width="22.52" height="2.9" rx=".36" ry=".36" fill="#86a0bc" opacity=".25"/><rect x="740.91" y="229.52" width="13.27" height="2.9" rx=".36" ry=".36" fill="#86a0bc" opacity=".25"/><rect x="755.97" y="229.52" width="13.27" height="2.9" rx=".36" ry=".36" fill="#86a0bc" opacity=".25"/><rect x="771.19" y="229.52" width="17.85" height="2.9" rx=".36" ry=".36" fill="#86a0bc" opacity=".25"/></g><rect x="750.71" y="99.51" width="23.04" height="4.26" rx=".57" ry=".57" fill="#86a0bc" opacity=".25"/><rect x="750.81" y="105.62" width="13.27" height="2.9" rx=".39" ry=".39" fill="#86a0bc" opacity=".25"/><rect x="765.87" y="105.62" width="13.27" height="2.9" rx=".39" ry=".39" fill="#86a0bc" opacity=".25"/><rect x="738.69" y="99.75" width="8.84" height="8.84" rx="1.3" ry="1.3" fill="#038179" opacity=".5"/><path d="M742.21,101.08c0-.17-.13-.3-.3-.3s-.3.13-.3.3v.5s-.5,0-.5,0c-.44,0-.8.36-.8.8v.2s0,.6,0,.6v3.2c0,.44.36.8.8.8h4c.44,0,.8-.36.8-.8v-3.2s0-.6,0-.6v-.2c0-.44-.36-.8-.8-.8h-.5s0-.5,0-.5c0-.17-.13-.3-.3-.3s-.3.13-.3.3v.5s-1.8,0-1.8,0v-.5ZM740.91,103.18h4.4s0,3.2,0,3.2c0,.11-.09.2-.2.2h-4c-.11,0-.2-.09-.2-.2v-3.2Z" fill="#05172e" opacity=".3"/></g><rect x="754.98" y="72.77" width="19.62" height="5.66" rx="2.83" ry="2.83"/><path d="M740.57,91.81c-.23-.06-.47-.1-.71-.12h0s.28-.34.28-.34c.02-.02.02-.05,0-.08l-.28-.33-.27-.03c-.1-.01-.2-.01-.3,0l-.27.03-.28.33s-.02.05,0,.08l.28.33h0c-.24.03-.48.07-.71.13l-.12.03v.48c0,.75.37,1.44.99,1.86l.27.18.26-.18c.62-.42.99-1.11.99-1.86v-.48s-.12-.03-.12-.03Z" fill="#fff"/><path d="M740.57,91.81c-.23-.06-.47-.1-.71-.12h0s.28-.34.28-.34c.02-.02.02-.05,0-.08l-.28-.33-.27-.03c-.1-.01-.2-.01-.3,0l-.27.03-.28.33s-.02.05,0,.08l.28.33h0c-.24.03-.48.07-.71.13l-.12.03v.48c0,.75.37,1.44.99,1.86l.27.18.26-.18c.62-.42.99-1.11.99-1.86v-.48s-.12-.03-.12-.03Z" fill="none" stroke="#122343" stroke-miterlimit="10" stroke-width="0"/><path d="M739.44,90.9s.1,0,.15,0l.27.03.28.33s.02.05,0,.08l-.28.33h0c.24.03.48.07.71.13l.12.03v.48c0,.74-.37,1.44-.99,1.86l-.27.18-.27-.18c-.62-.42-.99-1.11-.99-1.86v-.48l.12-.03c.23-.06.47-.1.71-.12h0s-.28-.34-.28-.34c-.02-.02-.02-.05,0-.08l.28-.33.27-.03s.1,0,.15,0M739.44,90.66c-.06,0-.12,0-.18.01l-.27.03h-.09s-.06.08-.06.08l-.28.33c-.09.11-.09.27,0,.38h0c-.11.03-.21.05-.32.08l-.12.03-.18.04v.66c0,.82.41,1.59,1.09,2.05l.27.18.13.09.13-.09.27-.18c.68-.46,1.09-1.23,1.09-2.05v-.66l-.18-.04-.12-.03c-.1-.03-.21-.05-.32-.07h0c.09-.12.09-.28,0-.39l-.28-.33-.06-.07h-.09s-.27-.05-.27-.05c-.06,0-.12-.01-.18-.01h0Z" fill="#b1b5be"/><g clip-path="url(#clippath-9)"><rect x="738.18" y="91.64" width=".17" height="3.41" fill="#cf4654"/><rect x="738.53" y="91.64" width=".17" height="3.41" fill="#cf4654"/><rect x="738.88" y="91.64" width=".17" height="3.41" fill="#cf4654"/><rect x="739.82" y="91.64" width=".17" height="3.41" fill="#cf4654"/><rect x="740.17" y="91.64" width=".17" height="3.41" fill="#cf4654"/><rect x="740.52" y="91.59" width=".17" height="3.41" fill="#cf4654"/><polygon points="739.34 94.46 739.29 92.93 739.54 92.87 739.6 94.46 739.34 94.46" fill="#b1b5be"/><path d="M739.54,92.93v1.47h-.19v-1.47h.19M739.65,92.82h-.43v1.7h.43v-1.7h0Z" fill="#122343"/></g><path d="M739.44,91.66c.38,0,.76.05,1.13.14l.12.03v.48c0,.74-.37,1.44-.99,1.86l-.27.18-.27-.18c-.62-.42-.99-1.11-.99-1.86v-.48l.12-.03c.37-.09.75-.14,1.13-.14M739.44,91.55c-.39,0-.78.05-1.16.15l-.12.03-.09.02v.57c0,.79.39,1.52,1.04,1.96l.27.18.06.04.07-.04.27-.18c.65-.44,1.04-1.17,1.04-1.95v-.57l-.09-.02-.12-.03c-.38-.1-.77-.15-1.16-.15h0Z" fill="#122343"/><path d="M739.17,92.99l-.21-1.31-.3-.34.03-.11.28-.33.31-.05c.05,0,.1,0,.16,0s.1,0,.16,0l.27.03.35.39-.03.11-.28.33-.15,1.28h-.59Z" fill="#fff"/><path d="M739.44,90.9s.1,0,.15,0l.27.03.28.33s.02.05,0,.08l-.28.33-.16,1.26h-.54l-.15-1.26-.28-.33s-.02-.05,0-.08l.28-.33.27-.03s.1,0,.15,0M739.44,90.78c-.05,0-.11,0-.16.01l-.27.03h-.05s-.03.04-.03.04l-.28.33c-.06.07-.06.16,0,.23l.26.3.15,1.22v.1h.76v-.1s.17-1.22.17-1.22l.26-.3c.06-.07.06-.16,0-.23l-.28-.33-.03-.03h-.05s-.27-.04-.27-.04c-.05,0-.11-.01-.16-.01h0Z" fill="#122343"/><path d="M742.07,94.01l.33-2.07h-.46s.11-.7.11-.7h1.7s-.11.7-.11.7h-.46s-.33,2.07-.33,2.07h-.78Z" fill="#fff"/><path d="M744.69,91.24l-.07,1.64.51-1.64h.62s0,1.64,0,1.64l.44-1.64h.77s-.98,2.77-.98,2.77h-.71s0-1.73,0-1.73l-.54,1.73h-.71s-.1-2.77-.1-2.77h.77Z" fill="#fff"/><path d="M747.22,91.24h.77s-.44,2.77-.44,2.77h-.77s.44-2.77.44-2.77Z" fill="#fff"/><path d="M748.46,91.24h.65c.7,0,1.08.12,1.08.71,0,.46-.2.75-.57.85l.34,1.21h-.82s-.18-1.12-.18-1.12l-.18,1.12h-.77s.44-2.77.44-2.77ZM749.08,92.48c.24,0,.37-.16.37-.43,0-.16-.08-.23-.25-.23-.02,0-.04,0-.05,0l-.11.66h.04Z" fill="#fff"/><path d="M750.67,91.24h.78s-.33,2.08-.33,2.08h.57s-.11.69-.11.69h-1.35s.44-2.77.44-2.77Z" fill="#fff"/><path d="M752.51,94.01h-.67s.64-2.77.64-2.77h.91s0,1.46,0,1.46l.47-1.46h.9s-.24,2.77-.24,2.77h-.67s.25-2.05.25-2.05l-.66,2.05h-.53s-.03-2.06-.03-2.06l-.39,2.06Z" fill="#fff"/><path d="M755.69,91.24h.91s.19,2.77.19,2.77h-.78s0-.41,0-.41h-.46s-.12.41-.12.41h-.79s1.04-2.77,1.04-2.77ZM756.04,93.04v-1.03s-.31,1.03-.31,1.03h.31Z" fill="#fff"/><path d="M757.24,94.01l.33-2.07h-.46s.11-.7.11-.7h1.7s-.11.7-.11.7h-.46s-.33,2.07-.33,2.07h-.78Z" fill="#fff"/><path d="M759.28,91.24h1.37s-.11.67-.11.67h-.6s-.06.35-.06.35h.54s-.1.65-.1.65h-.54s-.06.38-.06.38h.6s-.11.72-.11.72h-1.37s.44-2.77.44-2.77Z" fill="#fff"/><path d="M742.07,94.01l.33-2.07h-.46s.11-.7.11-.7h1.7s-.11.7-.11.7h-.46s-.33,2.07-.33,2.07h-.78Z" fill="#fff"/><path d="M744.69,91.24l-.07,1.64.51-1.64h.62s0,1.64,0,1.64l.44-1.64h.77s-.98,2.77-.98,2.77h-.71s0-1.73,0-1.73l-.54,1.73h-.71s-.1-2.77-.1-2.77h.77Z" fill="#fff"/><path d="M747.22,91.24h.77s-.44,2.77-.44,2.77h-.77s.44-2.77.44-2.77Z" fill="#fff"/><path d="M748.46,91.24h.65c.7,0,1.08.12,1.08.71,0,.46-.2.75-.57.85l.34,1.21h-.82s-.18-1.12-.18-1.12l-.18,1.12h-.77s.44-2.77.44-2.77ZM749.08,92.48c.24,0,.37-.16.37-.43,0-.16-.08-.23-.25-.23-.02,0-.04,0-.05,0l-.11.66h.04Z" fill="#fff"/><path d="M750.67,91.24h.78s-.33,2.08-.33,2.08h.57s-.11.69-.11.69h-1.35s.44-2.77.44-2.77Z" fill="#fff"/><path d="M752.51,94.01h-.67s.64-2.77.64-2.77h.91s0,1.46,0,1.46l.47-1.46h.9s-.24,2.77-.24,2.77h-.67s.25-2.05.25-2.05l-.66,2.05h-.53s-.03-2.06-.03-2.06l-.39,2.06Z" fill="#fff"/><path d="M755.69,91.24h.91s.19,2.77.19,2.77h-.78s0-.41,0-.41h-.46s-.12.41-.12.41h-.79s1.04-2.77,1.04-2.77ZM756.04,93.04v-1.03s-.31,1.03-.31,1.03h.31Z" fill="#fff"/><path d="M757.24,94.01l.33-2.07h-.46s.11-.7.11-.7h1.7s-.11.7-.11.7h-.46s-.33,2.07-.33,2.07h-.78Z" fill="#fff"/><path d="M759.28,91.24h1.37s-.11.67-.11.67h-.6s-.06.35-.06.35h.54s-.1.65-.1.65h-.54s-.06.38-.06.38h.6s-.11.72-.11.72h-1.37s.44-2.77.44-2.77Z" fill="#fff"/><path d="M754.6,123.69l-.49-.71h-.54v.71h-.59v-2.55h1.11c.68,0,1.11.35,1.11.93,0,.38-.19.66-.53.81l.57.82h-.63ZM754.04,121.62h-.48v.89h.48c.36,0,.54-.17.54-.45s-.18-.44-.54-.44Z" fill="#fff"/><path d="M757.52,122.87h-1.48c.05.24.26.39.56.39.21,0,.36-.06.49-.19l.3.33c-.18.21-.46.32-.81.32-.68,0-1.12-.43-1.12-1.01s.45-1.01,1.05-1.01,1.02.39,1.02,1.02c0,.04,0,.11-.01.15ZM756.03,122.54h.97c-.04-.25-.23-.41-.48-.41s-.45.16-.49.41Z" fill="#fff"/><path d="M759.94,121.73v1.63c0,.73-.39,1.06-1.1,1.06-.37,0-.73-.09-.96-.27l.23-.41c.17.13.44.22.69.22.4,0,.58-.18.58-.54v-.08c-.15.16-.36.24-.62.24-.54,0-.98-.38-.98-.95s.44-.95.98-.95c.27,0,.5.09.65.28v-.25h.54ZM759.38,122.65c0-.29-.22-.48-.51-.48s-.52.19-.52.48.22.48.52.48.51-.19.51-.48Z" fill="#fff"/><path d="M760.4,121.14c0-.18.14-.32.35-.32s.35.13.35.31c0,.19-.14.33-.35.33s-.35-.14-.35-.32ZM760.47,121.73h.57v1.96h-.57v-1.96Z" fill="#fff"/><path d="M761.38,123.51l.19-.41c.17.11.44.19.68.19.26,0,.36-.07.36-.18,0-.32-1.19,0-1.19-.78,0-.37.34-.63.91-.63.27,0,.57.06.76.17l-.19.4c-.19-.11-.39-.15-.57-.15-.26,0-.36.08-.36.18,0,.34,1.19.01,1.19.78,0,.36-.34.62-.93.62-.33,0-.67-.09-.85-.21Z" fill="#fff"/><path d="M764.77,123.6c-.12.08-.29.12-.46.12-.46,0-.73-.24-.73-.7v-.81h-.3v-.44h.3v-.48h.57v.48h.49v.44h-.49v.8c0,.17.09.26.24.26.08,0,.17-.03.23-.07l.15.4Z" fill="#fff"/><path d="M766.94,122.87h-1.48c.05.24.26.39.56.39.21,0,.36-.06.49-.19l.3.33c-.18.21-.46.32-.81.32-.68,0-1.12-.43-1.12-1.01s.45-1.01,1.05-1.01,1.02.39,1.02,1.02c0,.04,0,.11-.01.15ZM765.45,122.54h.97c-.04-.25-.23-.41-.48-.41s-.45.16-.49.41Z" fill="#fff"/><path d="M768.55,121.7v.53s-.08,0-.13,0c-.31,0-.52.17-.52.55v.93h-.57v-1.96h.54v.26c.14-.19.37-.29.67-.29Z" fill="#fff"/><path d="M772.32,121.14v2.55h-.49l-1.27-1.55v1.55h-.58v-2.55h.49l1.27,1.55v-1.55h.58Z" fill="#fff"/><path d="M772.74,122.71c0-.59.46-1.01,1.08-1.01s1.08.42,1.08,1.01-.45,1.01-1.08,1.01-1.08-.42-1.08-1.01ZM774.32,122.71c0-.34-.22-.54-.5-.54s-.5.2-.5.54.22.54.5.54.5-.2.5-.54Z" fill="#fff"/><path d="M778.38,121.73l-.71,1.96h-.55l-.44-1.22-.46,1.22h-.55l-.71-1.96h.54l.46,1.33.48-1.33h.48l.47,1.33.48-1.33h.5Z" fill="#fff"/><rect x="470.83" y="68.21" width="128.1" height="264.85" rx="20.88" ry="20.88" fill="#202121"/><g clip-path="url(#clippath-10)"><rect x="476.06" y="73.14" width="117.63" height="254.78" fill="#fff"/><rect x="474.05" y="124.77" width="120.81" height="203.14" fill="#f0f2f6"/><rect x="481.32" y="91.71" width="107.33" height="14.09" rx="7.05" ry="7.05" fill="#86a0bc" opacity=".5"/><rect x="476.06" y="108.95" width="117.63" height="16.58" fill="#05172e"/><g clip-path="url(#clippath-11)"><rect x="489.44" y="124.78" width="118.9" height="203.14" fill="#f0f2f6"/><rect x="488.7" y="124.77" width="120.81" height="203.14" fill="#05172e"/></g></g><rect x="515.14" y="77.36" width="39.38" height="11.36" rx="5.68" ry="5.68"/><path d="M486.22,115.56c-.47-.12-.95-.2-1.42-.25h0s.57-.67.57-.67c.04-.04.04-.11,0-.15l-.57-.67-.55-.07c-.2-.02-.4-.02-.6,0l-.55.07-.57.67s-.04.11,0,.15l.57.66h0c-.48.06-.96.14-1.43.26l-.25.06v.96c0,1.5.74,2.89,1.99,3.73l.54.36.53-.36c1.24-.84,1.98-2.23,1.98-3.72v-.97s-.24-.06-.24-.06Z" fill="#fff"/><path d="M486.22,115.56c-.47-.12-.95-.2-1.42-.25h0s.57-.67.57-.67c.04-.04.04-.11,0-.15l-.57-.67-.55-.07c-.2-.02-.4-.02-.6,0l-.55.07-.57.67s-.04.11,0,.15l.57.66h0c-.48.06-.96.14-1.43.26l-.25.06v.96c0,1.5.74,2.89,1.99,3.73l.54.36.53-.36c1.24-.84,1.98-2.23,1.98-3.72v-.97s-.24-.06-.24-.06Z" fill="none" stroke="#122343" stroke-miterlimit="10" stroke-width=".01"/><path d="M483.95,113.73c.1,0,.2,0,.3.02l.55.07.57.67s.04.11,0,.15l-.57.66h0c.48.06.96.14,1.42.26l.24.06v.97c0,1.49-.74,2.89-1.98,3.72l-.53.36-.54-.36c-1.24-.84-1.99-2.23-1.99-3.73v-.96l.25-.06c.47-.12.95-.2,1.42-.25h0s-.57-.67-.57-.67c-.04-.04-.04-.11,0-.15l.57-.67.55-.07c.1-.01.2-.02.3-.02M483.95,113.27c-.12,0-.24,0-.36.02l-.55.07-.18.02-.12.14-.57.67c-.19.22-.19.54,0,.76l.02.02c-.21.04-.43.09-.64.14l-.25.06-.35.09v1.33c0,1.65.82,3.19,2.19,4.12l.54.36.26.18.26-.18.53-.36c1.37-.92,2.18-2.46,2.18-4.11v-1.33l-.35-.09-.24-.06c-.21-.05-.42-.1-.64-.14l.02-.02c.19-.22.19-.54,0-.76l-.57-.67-.12-.14-.18-.02-.55-.07c-.12-.01-.24-.02-.36-.02h0Z" fill="#b1b5be"/><g clip-path="url(#clippath-12)"><rect x="481.42" y="115.23" width=".35" height="6.84" fill="#cf4654"/><rect x="482.12" y="115.23" width=".35" height="6.84" fill="#cf4654"/><rect x="482.83" y="115.23" width=".35" height="6.84" fill="#cf4654"/><rect x="484.71" y="115.23" width=".35" height="6.84" fill="#cf4654"/><rect x="485.41" y="115.23" width=".35" height="6.84" fill="#cf4654"/><rect x="486.11" y="115.13" width=".35" height="6.84" fill="#cf4654"/><rect x="483.64" y="117.7" width=".62" height="3.18" fill="#b1b5be"/><path d="M484.15,117.82v2.95h-.39v-2.95h.39M484.38,117.59h-.85v3.42h.85v-3.42h0Z" fill="#122343"/></g><path d="M483.94,115.27c.76,0,1.53.1,2.28.29l.24.06v.97c0,1.49-.74,2.89-1.98,3.72l-.53.36-.54-.36c-1.24-.84-1.99-2.23-1.99-3.73v-.96l.25-.06c.74-.19,1.5-.28,2.27-.28M483.94,115.04c-.78,0-1.56.1-2.32.29l-.25.06-.18.04v1.15c0,1.58.78,3.04,2.09,3.92l.54.36.13.09.13-.09.53-.36c1.3-.88,2.08-2.35,2.08-3.92v-1.15l-.18-.05-.24-.06c-.76-.2-1.55-.29-2.33-.29h0Z" fill="#122343"/><path d="M483.3,117.94l-.32-2.62-.54-.6c-.08-.09-.08-.22,0-.3l.57-.67.62-.11c.1-.01.21-.02.31-.02s.21,0,.31.02l.55.07.64.71c.08.09.08.22,0,.3l-.57.66-.3,2.56h-1.28Z" fill="#fff"/><path d="M483.95,113.73c.1,0,.2,0,.3.02l.55.07.57.67s.04.11,0,.15l-.57.66-.32,2.52h-1.08l-.3-2.52-.57-.66s-.04-.11,0-.15l.57-.67.55-.07c.1-.01.2-.02.3-.02M483.95,113.5c-.11,0-.22,0-.33.02l-.55.07h-.09s-.06.08-.06.08l-.57.67c-.11.13-.11.32,0,.46l.52.61.3,2.45.02.21h1.49l.03-.2.31-2.45.52-.61c.11-.13.11-.32,0-.46l-.57-.67-.06-.07h-.09s-.55-.08-.55-.08c-.11-.01-.22-.02-.33-.02h0Z" fill="#122343"/><path d="M489.22,119.99l.66-4.15h-.93s.23-1.41.23-1.41h3.41s-.23,1.41-.23,1.41h-.92s-.66,4.15-.66,4.15h-1.56Z" fill="#fff"/><path d="M494.48,114.42l-.15,3.29,1.02-3.29h1.25s-.02,3.29-.02,3.29l.89-3.29h1.55s-1.96,5.57-1.96,5.57h-1.43s.02-3.48.02-3.48l-1.08,3.48h-1.43s-.2-5.57-.2-5.57h1.55Z" fill="#fff"/><path d="M499.57,114.42h1.55s-.88,5.57-.88,5.57h-1.55s.88-5.57.88-5.57Z" fill="#fff"/><path d="M502.05,114.42h1.31c1.41,0,2.17.24,2.17,1.43,0,.91-.41,1.51-1.15,1.7l.69,2.44h-1.65s-.35-2.25-.35-2.25l-.35,2.25h-1.55s.88-5.57.88-5.57ZM503.3,116.9c.48,0,.73-.31.73-.87,0-.33-.16-.47-.5-.47-.03,0-.07,0-.11,0l-.21,1.33h.09Z" fill="#fff"/><path d="M506.49,114.42h1.56s-.66,4.18-.66,4.18h1.14s-.22,1.38-.22,1.38h-2.7s.88-5.57.88-5.57Z" fill="#fff"/><path d="M510.17,119.99h-1.33s1.28-5.57,1.28-5.57h1.82s.02,2.93.02,2.93l.94-2.93h1.81s-.48,5.57-.48,5.57h-1.34s.51-4.12.51-4.12l-1.32,4.12h-1.05s-.06-4.13-.06-4.13l-.79,4.13Z" fill="#fff"/><path d="M516.56,114.42h1.83s.39,5.57.39,5.57h-1.57s0-.82,0-.82h-.92s-.24.82-.24.82h-1.59s2.09-5.57,2.09-5.57ZM517.26,118.04l.02-2.06-.64,2.06h.62Z" fill="#fff"/><path d="M519.66,119.99l.66-4.15h-.93s.23-1.41.23-1.41h3.41s-.23,1.41-.23,1.41h-.92s-.66,4.15-.66,4.15h-1.56Z" fill="#fff"/><path d="M523.76,114.42h2.76s-.21,1.35-.21,1.35h-1.2s-.12.71-.12.71h1.09s-.2,1.3-.2,1.3h-1.08s-.12.76-.12.76h1.2s-.23,1.44-.23,1.44h-2.76s.88-5.57.88-5.57Z" fill="#fff"/><path d="M489.22,119.99l.66-4.15h-.93s.23-1.41.23-1.41h3.41s-.23,1.41-.23,1.41h-.92s-.66,4.15-.66,4.15h-1.56Z" fill="#fff"/><path d="M494.48,114.42l-.15,3.29,1.02-3.29h1.25s-.02,3.29-.02,3.29l.89-3.29h1.55s-1.96,5.57-1.96,5.57h-1.43s.02-3.48.02-3.48l-1.08,3.48h-1.43s-.2-5.57-.2-5.57h1.55Z" fill="#fff"/><path d="M499.57,114.42h1.55s-.88,5.57-.88,5.57h-1.55s.88-5.57.88-5.57Z" fill="#fff"/><path d="M502.05,114.42h1.31c1.41,0,2.17.24,2.17,1.43,0,.91-.41,1.51-1.15,1.7l.69,2.44h-1.65s-.35-2.25-.35-2.25l-.35,2.25h-1.55s.88-5.57.88-5.57ZM503.3,116.9c.48,0,.73-.31.73-.87,0-.33-.16-.47-.5-.47-.03,0-.07,0-.11,0l-.21,1.33h.09Z" fill="#fff"/><path d="M506.49,114.42h1.56s-.66,4.18-.66,4.18h1.14s-.22,1.38-.22,1.38h-2.7s.88-5.57.88-5.57Z" fill="#fff"/><path d="M510.17,119.99h-1.33s1.28-5.57,1.28-5.57h1.82s.02,2.93.02,2.93l.94-2.93h1.81s-.48,5.57-.48,5.57h-1.34s.51-4.12.51-4.12l-1.32,4.12h-1.05s-.06-4.13-.06-4.13l-.79,4.13Z" fill="#fff"/><path d="M516.56,114.42h1.83s.39,5.57.39,5.57h-1.57s0-.82,0-.82h-.92s-.24.82-.24.82h-1.59s2.09-5.57,2.09-5.57ZM517.26,118.04l.02-2.06-.64,2.06h.62Z" fill="#fff"/><path d="M519.66,119.99l.66-4.15h-.93s.23-1.41.23-1.41h3.41s-.23,1.41-.23,1.41h-.92s-.66,4.15-.66,4.15h-1.56Z" fill="#fff"/><path d="M523.76,114.42h2.76s-.21,1.35-.21,1.35h-1.2s-.12.71-.12.71h1.09s-.2,1.3-.2,1.3h-1.08s-.12.76-.12.76h1.2s-.23,1.44-.23,1.44h-2.76s.88-5.57.88-5.57Z" fill="#fff"/><rect x="495.64" y="146" width="46.23" height="8.55" rx="1.15" ry="1.15" fill="#86a0bc" opacity=".25"/><rect x="495.64" y="160.51" width="49.05" height="8.55" rx="1.18" ry="1.18" fill="#86a0bc" opacity=".25"/><rect x="495.64" y="175.02" width="53.89" height="8.55" rx="1.24" ry="1.24" fill="#86a0bc" opacity=".25"/><rect x="495.64" y="189.53" width="46.23" height="8.55" rx="1.15" ry="1.15" fill="#86a0bc" opacity=".25"/><line x1="489.44" y1="126.26" x2="593.69" y2="126.26" fill="none" opacity=".25" stroke="#86a0bc" stroke-miterlimit="10" stroke-width="1.46"/><path d="M585.79,117.56l1.88-1.88c.29-.29.29-.75,0-1.04s-.75-.29-1.04,0l-1.88,1.88-1.88-1.88c-.29-.29-.75-.29-1.04,0s-.29.75,0,1.04l1.88,1.88-1.88,1.88c-.29.29-.29.75,0,1.04.14.14.33.21.52.21s.37-.07.52-.21l1.88-1.88,1.88,1.88c.14.14.33.21.52.21s.37-.07.52-.21c.29-.29.29-.75,0-1.04l-1.88-1.88Z" fill="#86a0bc" opacity=".25"/><path d="M499.3,139.35v.76h-3.17v-4.1h3.1v.76h-2.15v.89h1.9v.74h-1.9v.95h2.23Z" fill="#f0f2f6"/><path d="M503.09,136.96l-1.33,3.15h-.94l-1.32-3.15h.94l.87,2.14.9-2.14h.88Z" fill="#f0f2f6"/><path d="M506.45,138.79h-2.38c.09.39.42.63.9.63.33,0,.57-.1.79-.3l.49.53c-.29.33-.73.51-1.3.51-1.09,0-1.8-.68-1.8-1.62s.72-1.62,1.68-1.62,1.64.62,1.64,1.63c0,.07-.01.17-.02.25ZM504.05,138.26h1.55c-.06-.4-.36-.66-.77-.66s-.71.25-.78.66Z" fill="#f0f2f6"/><path d="M510.3,138.3v1.8h-.91v-1.66c0-.51-.23-.74-.64-.74-.44,0-.76.27-.76.85v1.56h-.91v-3.15h.87v.37c.25-.27.62-.42,1.04-.42.74,0,1.31.43,1.31,1.39Z" fill="#f0f2f6"/><path d="M513.16,139.96c-.19.13-.46.2-.74.2-.74,0-1.18-.38-1.18-1.13v-1.29h-.49v-.7h.49v-.77h.91v.77h.78v.7h-.78v1.28c0,.27.15.42.39.42.13,0,.27-.04.37-.12l.25.64Z" fill="#f0f2f6"/><path d="M513.37,139.82l.3-.66c.28.18.71.3,1.1.3.42,0,.58-.11.58-.29,0-.51-1.9.01-1.9-1.25,0-.6.54-1.02,1.46-1.02.43,0,.91.1,1.21.27l-.3.65c-.31-.18-.62-.23-.91-.23-.41,0-.59.13-.59.29,0,.54,1.9.02,1.9,1.26,0,.59-.54,1-1.49,1-.53,0-1.07-.15-1.36-.34Z" fill="#f0f2f6"/><rect x="246.13" y="296.84" width="146.39" height="24.21" rx="2.79" ry="2.79" fill="none" stroke="#cf4654" stroke-dasharray="6.23 6.23" stroke-miterlimit="10" stroke-width="2.1"/><path d="M52.93,278.54h-6.5l-1.24,3h-3.32l6.24-14h3.2l6.26,14h-3.4l-1.24-3ZM51.91,276.08l-2.22-5.36-2.22,5.36h4.44Z" fill="#cf4654"/><path d="M62.23,271.02h2.76v2.4h-2.68v8.12h-3.12v-8.12h-1.66v-2.4h1.66v-.48c0-2.42,1.48-4,4.16-4,.88,0,1.8.18,2.38.58l-.82,2.26c-.34-.24-.78-.38-1.26-.38-.92,0-1.42.5-1.42,1.56v.46Z" fill="#cf4654"/><path d="M73.49,281.02c-.64.46-1.58.68-2.54.68-2.54,0-4.02-1.3-4.02-3.86v-4.42h-1.66v-2.4h1.66v-2.62h3.12v2.62h2.68v2.4h-2.68v4.38c0,.92.5,1.42,1.34,1.42.46,0,.92-.14,1.26-.4l.84,2.2Z" fill="#cf4654"/><path d="M85.39,277.04h-8.14c.3,1.34,1.44,2.16,3.08,2.16,1.14,0,1.96-.34,2.7-1.04l1.66,1.8c-1,1.14-2.5,1.74-4.44,1.74-3.72,0-6.14-2.34-6.14-5.54s2.46-5.54,5.74-5.54,5.6,2.12,5.6,5.58c0,.24-.04.58-.06.84ZM77.21,275.22h5.3c-.22-1.36-1.24-2.24-2.64-2.24s-2.44.86-2.66,2.24Z" fill="#cf4654"/><path d="M94.21,270.62v2.88c-.26-.02-.46-.04-.7-.04-1.72,0-2.86.94-2.86,3v5.08h-3.12v-10.76h2.98v1.42c.76-1.04,2.04-1.58,3.7-1.58Z" fill="#cf4654"/><path d="M101.01,276.16c0-3.24,2.5-5.54,6-5.54,2.26,0,4.04.98,4.82,2.74l-2.42,1.3c-.58-1.02-1.44-1.48-2.42-1.48-1.58,0-2.82,1.1-2.82,2.98s1.24,2.98,2.82,2.98c.98,0,1.84-.44,2.42-1.48l2.42,1.32c-.78,1.72-2.56,2.72-4.82,2.72-3.5,0-6-2.3-6-5.54Z" fill="#cf4654"/><path d="M120.31,270.62v2.88c-.26-.02-.46-.04-.7-.04-1.72,0-2.86.94-2.86,3v5.08h-3.12v-10.76h2.98v1.42c.76-1.04,2.04-1.58,3.7-1.58Z" fill="#cf4654"/><path d="M132.55,277.04h-8.14c.3,1.34,1.44,2.16,3.08,2.16,1.14,0,1.96-.34,2.7-1.04l1.66,1.8c-1,1.14-2.5,1.74-4.44,1.74-3.72,0-6.14-2.34-6.14-5.54s2.46-5.54,5.74-5.54,5.6,2.12,5.6,5.58c0,.24-.04.58-.06.84ZM124.37,275.22h5.3c-.22-1.36-1.24-2.24-2.64-2.24s-2.44.86-2.66,2.24Z" fill="#cf4654"/><path d="M143.91,275.4v6.14h-2.92v-1.34c-.58.98-1.7,1.5-3.28,1.5-2.52,0-4.02-1.4-4.02-3.26s1.34-3.22,4.62-3.22h2.48c0-1.34-.8-2.12-2.48-2.12-1.14,0-2.32.38-3.1,1l-1.12-2.18c1.18-.84,2.92-1.3,4.64-1.3,3.28,0,5.18,1.52,5.18,4.78ZM140.79,278.14v-1.1h-2.14c-1.46,0-1.92.54-1.92,1.26,0,.78.66,1.3,1.76,1.3,1.04,0,1.94-.48,2.3-1.46Z" fill="#cf4654"/><path d="M153.67,281.02c-.64.46-1.58.68-2.54.68-2.54,0-4.02-1.3-4.02-3.86v-4.42h-1.66v-2.4h1.66v-2.62h3.12v2.62h2.68v2.4h-2.68v4.38c0,.92.5,1.42,1.34,1.42.46,0,.92-.14,1.26-.4l.84,2.2Z" fill="#cf4654"/><path d="M155.05,267.54c0-.98.78-1.74,1.94-1.74s1.94.72,1.94,1.68c0,1.04-.78,1.8-1.94,1.8s-1.94-.76-1.94-1.74ZM155.43,270.78h3.12v10.76h-3.12v-10.76Z" fill="#cf4654"/><path d="M172.45,275.38v6.16h-3.12v-5.68c0-1.74-.8-2.54-2.18-2.54-1.5,0-2.58.92-2.58,2.9v5.32h-3.12v-10.76h2.98v1.26c.84-.92,2.1-1.42,3.56-1.42,2.54,0,4.46,1.48,4.46,4.76Z" fill="#cf4654"/><path d="M186.49,270.78v8.96c0,4-2.16,5.84-6.04,5.84-2.04,0-4.02-.5-5.28-1.48l1.24-2.24c.92.74,2.42,1.22,3.8,1.22,2.2,0,3.16-1,3.16-2.94v-.46c-.82.9-2,1.34-3.4,1.34-2.98,0-5.38-2.06-5.38-5.2s2.4-5.2,5.38-5.2c1.5,0,2.74.5,3.56,1.54v-1.38h2.96ZM183.41,275.82c0-1.58-1.18-2.64-2.82-2.64s-2.84,1.06-2.84,2.64,1.2,2.64,2.84,2.64,2.82-1.06,2.82-2.64Z" fill="#cf4654"/><path d="M76.47,299.4v6.14h-2.92v-1.34c-.58.98-1.7,1.5-3.28,1.5-2.52,0-4.02-1.4-4.02-3.26s1.34-3.22,4.62-3.22h2.48c0-1.34-.8-2.12-2.48-2.12-1.14,0-2.32.38-3.1,1l-1.12-2.18c1.18-.84,2.92-1.3,4.64-1.3,3.28,0,5.18,1.52,5.18,4.78ZM73.35,302.14v-1.1h-2.14c-1.46,0-1.92.54-1.92,1.26,0,.78.66,1.3,1.76,1.3,1.04,0,1.94-.48,2.3-1.46Z" fill="#cf4654"/><path d="M90.29,299.38v6.16h-3.12v-5.68c0-1.74-.8-2.54-2.18-2.54-1.5,0-2.58.92-2.58,2.9v5.32h-3.12v-10.76h2.98v1.26c.84-.92,2.1-1.42,3.56-1.42,2.54,0,4.46,1.48,4.46,4.76Z" fill="#cf4654"/><path d="M108.29,299.4v6.14h-2.92v-1.34c-.58.98-1.7,1.5-3.28,1.5-2.52,0-4.02-1.4-4.02-3.26s1.34-3.22,4.62-3.22h2.48c0-1.34-.8-2.12-2.48-2.12-1.14,0-2.32.38-3.1,1l-1.12-2.18c1.18-.84,2.92-1.3,4.64-1.3,3.28,0,5.18,1.52,5.18,4.78ZM105.17,302.14v-1.1h-2.14c-1.46,0-1.92.54-1.92,1.26,0,.78.66,1.3,1.76,1.3,1.04,0,1.94-.48,2.3-1.46Z" fill="#cf4654"/><path d="M110.43,300.16c0-3.24,2.5-5.54,6-5.54,2.26,0,4.04.98,4.82,2.74l-2.42,1.3c-.58-1.02-1.44-1.48-2.42-1.48-1.58,0-2.82,1.1-2.82,2.98s1.24,2.98,2.82,2.98c.98,0,1.84-.44,2.42-1.48l2.42,1.32c-.78,1.72-2.56,2.72-4.82,2.72-3.5,0-6-2.3-6-5.54Z" fill="#cf4654"/><path d="M122.11,300.16c0-3.24,2.5-5.54,6-5.54,2.26,0,4.04.98,4.82,2.74l-2.42,1.3c-.58-1.02-1.44-1.48-2.42-1.48-1.58,0-2.82,1.1-2.82,2.98s1.24,2.98,2.82,2.98c.98,0,1.84-.44,2.42-1.48l2.42,1.32c-.78,1.72-2.56,2.72-4.82,2.72-3.5,0-6-2.3-6-5.54Z" fill="#cf4654"/><path d="M133.79,300.16c0-3.24,2.5-5.54,5.92-5.54s5.9,2.3,5.9,5.54-2.48,5.54-5.9,5.54-5.92-2.3-5.92-5.54ZM142.45,300.16c0-1.86-1.18-2.98-2.74-2.98s-2.76,1.12-2.76,2.98,1.2,2.98,2.76,2.98,2.74-1.12,2.74-2.98Z" fill="#cf4654"/><path d="M158.53,294.78v10.76h-2.96v-1.28c-.82.94-2.02,1.44-3.34,1.44-2.7,0-4.6-1.52-4.6-4.84v-6.08h3.12v5.62c0,1.8.8,2.6,2.18,2.6s2.48-.92,2.48-2.9v-5.32h3.12Z" fill="#cf4654"/><path d="M172.43,299.38v6.16h-3.12v-5.68c0-1.74-.8-2.54-2.18-2.54-1.5,0-2.58.92-2.58,2.9v5.32h-3.12v-10.76h2.98v1.26c.84-.92,2.1-1.42,3.56-1.42,2.54,0,4.46,1.48,4.46,4.76Z" fill="#cf4654"/><path d="M182.19,305.02c-.64.46-1.58.68-2.54.68-2.54,0-4.02-1.3-4.02-3.86v-4.42h-1.66v-2.4h1.66v-2.62h3.12v2.62h2.68v2.4h-2.68v4.38c0,.92.5,1.42,1.34,1.42.46,0,.92-.14,1.26-.4l.84,2.2Z" fill="#cf4654"/><path d="M187.27,303.74c0,.52-.08.9-.54,2l-1.14,2.88h-1.98l.88-3.18c-.66-.26-1.08-.88-1.08-1.7,0-1.16.84-1.92,1.94-1.92s1.92.78,1.92,1.92Z" fill="#cf4654"/><path d="M60.31,329.02c-.64.46-1.58.68-2.54.68-2.54,0-4.02-1.3-4.02-3.86v-4.42h-1.66v-2.4h1.66v-2.62h3.12v2.62h2.68v2.4h-2.68v4.38c0,.92.5,1.42,1.34,1.42.46,0,.92-.14,1.26-.4l.84,2.2Z" fill="#cf4654"/><path d="M73.07,323.38v6.16h-3.12v-5.68c0-1.74-.8-2.54-2.18-2.54-1.5,0-2.58.92-2.58,2.9v5.32h-3.12v-14.84h3.12v5.2c.84-.84,2.04-1.28,3.42-1.28,2.54,0,4.46,1.48,4.46,4.76Z" fill="#cf4654"/><path d="M86.49,325.04h-8.14c.3,1.34,1.44,2.16,3.08,2.16,1.14,0,1.96-.34,2.7-1.04l1.66,1.8c-1,1.14-2.5,1.74-4.44,1.74-3.72,0-6.14-2.34-6.14-5.54s2.46-5.54,5.74-5.54,5.6,2.12,5.6,5.58c0,.24-.04.58-.06.84ZM78.31,323.22h5.3c-.22-1.36-1.24-2.24-2.64-2.24s-2.44.86-2.66,2.24Z" fill="#cf4654"/><path d="M95.31,318.62v2.88c-.26-.02-.46-.04-.7-.04-1.72,0-2.86.94-2.86,3v5.08h-3.12v-10.76h2.98v1.42c.76-1.04,2.04-1.58,3.7-1.58Z" fill="#cf4654"/><path d="M107.55,325.04h-8.14c.3,1.34,1.44,2.16,3.08,2.16,1.14,0,1.96-.34,2.7-1.04l1.66,1.8c-1,1.14-2.5,1.74-4.44,1.74-3.72,0-6.14-2.34-6.14-5.54s2.46-5.54,5.74-5.54,5.6,2.12,5.6,5.58c0,.24-.04.58-.06.84ZM99.37,323.22h5.3c-.22-1.36-1.24-2.24-2.64-2.24s-2.44.86-2.66,2.24Z" fill="#cf4654"/><path d="M132.63,318.78l-3.9,10.76h-3l-2.42-6.68-2.5,6.68h-3l-3.88-10.76h2.94l2.54,7.28,2.64-7.28h2.64l2.56,7.28,2.62-7.28h2.76Z" fill="#cf4654"/><path d="M143.25,323.4v6.14h-2.92v-1.34c-.58.98-1.7,1.5-3.28,1.5-2.52,0-4.02-1.4-4.02-3.26s1.34-3.22,4.62-3.22h2.48c0-1.34-.8-2.12-2.48-2.12-1.14,0-2.32.38-3.1,1l-1.12-2.18c1.18-.84,2.92-1.3,4.64-1.3,3.28,0,5.18,1.52,5.18,4.78ZM140.13,326.14v-1.1h-2.14c-1.46,0-1.92.54-1.92,1.26,0,.78.66,1.3,1.76,1.3,1.04,0,1.94-.48,2.3-1.46Z" fill="#cf4654"/><path d="M145.03,328.54l1.04-2.24c.96.62,2.42,1.04,3.74,1.04,1.44,0,1.98-.38,1.98-.98,0-1.76-6.5.04-6.5-4.26,0-2.04,1.84-3.48,4.98-3.48,1.48,0,3.12.34,4.14.94l-1.04,2.22c-1.06-.6-2.12-.8-3.1-.8-1.4,0-2,.44-2,1,0,1.84,6.5.06,6.5,4.3,0,2-1.86,3.42-5.08,3.42-1.82,0-3.66-.5-4.66-1.16Z" fill="#cf4654"/><path d="M173.35,323.38v6.16h-3.12v-5.68c0-1.74-.8-2.54-2.18-2.54-1.5,0-2.58.92-2.58,2.9v5.32h-3.12v-10.76h2.98v1.26c.84-.92,2.1-1.42,3.56-1.42,2.54,0,4.46,1.48,4.46,4.76Z" fill="#cf4654"/><path d="M175.49,324.16c0-3.24,2.5-5.54,5.92-5.54s5.9,2.3,5.9,5.54-2.48,5.54-5.9,5.54-5.92-2.3-5.92-5.54ZM184.15,324.16c0-1.86-1.18-2.98-2.74-2.98s-2.76,1.12-2.76,2.98,1.2,2.98,2.76,2.98,2.74-1.12,2.74-2.98Z" fill="#cf4654"/><path d="M33.97,348.16c0-3.24,2.5-5.54,6-5.54,2.26,0,4.04.98,4.82,2.74l-2.42,1.3c-.58-1.02-1.44-1.48-2.42-1.48-1.58,0-2.82,1.1-2.82,2.98s1.24,2.98,2.82,2.98c.98,0,1.84-.44,2.42-1.48l2.42,1.32c-.78,1.72-2.56,2.72-4.82,2.72-3.5,0-6-2.3-6-5.54Z" fill="#cf4654"/><path d="M46.51,338.7h3.12v14.84h-3.12v-14.84Z" fill="#cf4654"/><path d="M63.01,349.04h-8.14c.3,1.34,1.44,2.16,3.08,2.16,1.14,0,1.96-.34,2.7-1.04l1.66,1.8c-1,1.14-2.5,1.74-4.44,1.74-3.72,0-6.14-2.34-6.14-5.54s2.46-5.54,5.74-5.54,5.6,2.12,5.6,5.58c0,.24-.04.58-.06.84ZM54.83,347.22h5.3c-.22-1.36-1.24-2.24-2.64-2.24s-2.44.86-2.66,2.24Z" fill="#cf4654"/><path d="M74.37,347.4v6.14h-2.92v-1.34c-.58.98-1.7,1.5-3.28,1.5-2.52,0-4.02-1.4-4.02-3.26s1.34-3.22,4.62-3.22h2.48c0-1.34-.8-2.12-2.48-2.12-1.14,0-2.32.38-3.1,1l-1.12-2.18c1.18-.84,2.92-1.3,4.64-1.3,3.28,0,5.18,1.52,5.18,4.78ZM71.25,350.14v-1.1h-2.14c-1.46,0-1.92.54-1.92,1.26,0,.78.66,1.3,1.76,1.3,1.04,0,1.94-.48,2.3-1.46Z" fill="#cf4654"/><path d="M83.87,342.62v2.88c-.26-.02-.46-.04-.7-.04-1.72,0-2.86.94-2.86,3v5.08h-3.12v-10.76h2.98v1.42c.76-1.04,2.04-1.58,3.7-1.58Z" fill="#cf4654"/><path d="M102.47,347.38v6.16h-3.12v-5.68c0-1.74-.8-2.54-2.18-2.54-1.5,0-2.58.92-2.58,2.9v5.32h-3.12v-10.76h2.98v1.26c.84-.92,2.1-1.42,3.56-1.42,2.54,0,4.46,1.48,4.46,4.76Z" fill="#cf4654"/><path d="M115.89,349.04h-8.14c.3,1.34,1.44,2.16,3.08,2.16,1.14,0,1.96-.34,2.7-1.04l1.66,1.8c-1,1.14-2.5,1.74-4.44,1.74-3.72,0-6.14-2.34-6.14-5.54s2.46-5.54,5.74-5.54,5.6,2.12,5.6,5.58c0,.24-.04.58-.06.84ZM107.71,347.22h5.3c-.22-1.36-1.24-2.24-2.64-2.24s-2.44.86-2.66,2.24Z" fill="#cf4654"/><path d="M124.57,353.54l-2.36-3.3-2.44,3.3h-3.4l4.14-5.42-4-5.34h3.5l2.28,3.14,2.34-3.14h3.32l-4,5.26,4.16,5.5h-3.54Z" fill="#cf4654"/><path d="M136.57,353.02c-.64.46-1.58.68-2.54.68-2.54,0-4.02-1.3-4.02-3.86v-4.42h-1.66v-2.4h1.66v-2.62h3.12v2.62h2.68v2.4h-2.68v4.38c0,.92.5,1.42,1.34,1.42.46,0,.92-.14,1.26-.4l.84,2.2Z" fill="#cf4654"/><path d="M142.95,352.54l1.04-2.24c.96.62,2.42,1.04,3.74,1.04,1.44,0,1.98-.38,1.98-.98,0-1.76-6.5.04-6.5-4.26,0-2.04,1.84-3.48,4.98-3.48,1.48,0,3.12.34,4.14.94l-1.04,2.22c-1.06-.6-2.12-.8-3.1-.8-1.4,0-2,.44-2,1,0,1.84,6.5.06,6.5,4.3,0,2-1.86,3.42-5.08,3.42-1.82,0-3.66-.5-4.66-1.16Z" fill="#cf4654"/><path d="M161.55,353.02c-.64.46-1.58.68-2.54.68-2.54,0-4.02-1.3-4.02-3.86v-4.42h-1.66v-2.4h1.66v-2.62h3.12v2.62h2.68v2.4h-2.68v4.38c0,.92.5,1.42,1.34,1.42.46,0,.92-.14,1.26-.4l.84,2.2Z" fill="#cf4654"/><path d="M173.45,349.04h-8.14c.3,1.34,1.44,2.16,3.08,2.16,1.14,0,1.96-.34,2.7-1.04l1.66,1.8c-1,1.14-2.5,1.74-4.44,1.74-3.72,0-6.14-2.34-6.14-5.54s2.46-5.54,5.74-5.54,5.6,2.12,5.6,5.58c0,.24-.04.58-.06.84ZM165.27,347.22h5.3c-.22-1.36-1.24-2.24-2.64-2.24s-2.44.86-2.66,2.24Z" fill="#cf4654"/><path d="M187.31,348.16c0,3.38-2.34,5.54-5.36,5.54-1.34,0-2.44-.42-3.24-1.3v5.02h-3.12v-14.64h2.98v1.24c.78-.94,1.94-1.4,3.38-1.4,3.02,0,5.36,2.16,5.36,5.54ZM184.15,348.16c0-1.86-1.18-2.98-2.74-2.98s-2.74,1.12-2.74,2.98,1.18,2.98,2.74,2.98,2.74-1.12,2.74-2.98Z" fill="#cf4654"/><path d="M369.95,21.77h-4.48v-2.64h12.2v2.64h-4.48v11.36h-3.24v-11.36Z" fill="#cf4654"/><path d="M388.17,26.99v6.14h-2.92v-1.34c-.58.98-1.7,1.5-3.28,1.5-2.52,0-4.02-1.4-4.02-3.26s1.34-3.22,4.62-3.22h2.48c0-1.34-.8-2.12-2.48-2.12-1.14,0-2.32.38-3.1,1l-1.12-2.18c1.18-.84,2.92-1.3,4.64-1.3,3.28,0,5.18,1.52,5.18,4.78ZM385.05,29.73v-1.1h-2.14c-1.46,0-1.92.54-1.92,1.26,0,.78.66,1.3,1.76,1.3,1.04,0,1.94-.48,2.3-1.46Z" fill="#cf4654"/><path d="M397.67,22.21v2.88c-.26-.02-.46-.04-.7-.04-1.72,0-2.86.94-2.86,3v5.08h-3.12v-10.76h2.98v1.42c.76-1.04,2.04-1.58,3.7-1.58Z" fill="#cf4654"/><path d="M410.54,22.37v8.96c0,4-2.16,5.84-6.04,5.84-2.04,0-4.02-.5-5.28-1.48l1.24-2.24c.92.74,2.42,1.22,3.8,1.22,2.2,0,3.16-1,3.16-2.94v-.46c-.82.9-2,1.34-3.4,1.34-2.98,0-5.38-2.06-5.38-5.2s2.4-5.2,5.38-5.2c1.5,0,2.74.5,3.56,1.54v-1.38h2.96ZM407.45,27.41c0-1.58-1.18-2.64-2.82-2.64s-2.84,1.06-2.84,2.64,1.2,2.64,2.84,2.64,2.82-1.06,2.82-2.64Z" fill="#cf4654"/><path d="M423.91,28.63h-8.14c.3,1.34,1.44,2.16,3.08,2.16,1.14,0,1.96-.34,2.7-1.04l1.66,1.8c-1,1.14-2.5,1.74-4.44,1.74-3.72,0-6.14-2.34-6.14-5.54s2.46-5.54,5.74-5.54,5.6,2.12,5.6,5.58c0,.24-.04.58-.06.84ZM415.73,26.81h5.3c-.22-1.36-1.24-2.24-2.64-2.24s-2.44.86-2.66,2.24Z" fill="#cf4654"/><path d="M432.99,32.61c-.64.46-1.58.68-2.54.68-2.54,0-4.02-1.3-4.02-3.86v-4.42h-1.66v-2.4h1.66v-2.62h3.12v2.62h2.68v2.4h-2.68v4.38c0,.92.5,1.42,1.34,1.42.46,0,.92-.14,1.26-.4l.84,2.2Z" fill="#cf4654"/><path d="M449.93,26.99v6.14h-2.92v-1.34c-.58.98-1.7,1.5-3.28,1.5-2.52,0-4.02-1.4-4.02-3.26s1.34-3.22,4.62-3.22h2.48c0-1.34-.8-2.12-2.48-2.12-1.14,0-2.32.38-3.1,1l-1.12-2.18c1.18-.84,2.92-1.3,4.64-1.3,3.28,0,5.18,1.52,5.18,4.78ZM446.81,29.73v-1.1h-2.14c-1.46,0-1.92.54-1.92,1.26,0,.78.66,1.3,1.76,1.3,1.04,0,1.94-.48,2.3-1.46Z" fill="#cf4654"/><path d="M452.07,27.75c0-3.24,2.5-5.54,6-5.54,2.26,0,4.04.98,4.82,2.74l-2.42,1.3c-.58-1.02-1.44-1.48-2.42-1.48-1.58,0-2.82,1.1-2.82,2.98s1.24,2.98,2.82,2.98c.98,0,1.84-.44,2.42-1.48l2.42,1.32c-.78,1.72-2.56,2.72-4.82,2.72-3.5,0-6-2.3-6-5.54Z" fill="#cf4654"/><path d="M471.79,32.61c-.64.46-1.58.68-2.54.68-2.54,0-4.02-1.3-4.02-3.86v-4.42h-1.66v-2.4h1.66v-2.62h3.12v2.62h2.68v2.4h-2.68v4.38c0,.92.5,1.42,1.34,1.42.46,0,.92-.14,1.26-.4l.84,2.2Z" fill="#cf4654"/><path d="M473.17,19.13c0-.98.78-1.74,1.94-1.74s1.94.72,1.94,1.68c0,1.04-.78,1.8-1.94,1.8s-1.94-.76-1.94-1.74ZM473.55,22.37h3.12v10.76h-3.12v-10.76Z" fill="#cf4654"/><path d="M478.77,27.75c0-3.24,2.5-5.54,5.92-5.54s5.9,2.3,5.9,5.54-2.48,5.54-5.9,5.54-5.92-2.3-5.92-5.54ZM487.43,27.75c0-1.86-1.18-2.98-2.74-2.98s-2.76,1.12-2.76,2.98,1.2,2.98,2.76,2.98,2.74-1.12,2.74-2.98Z" fill="#cf4654"/><path d="M503.67,26.97v6.16h-3.12v-5.68c0-1.74-.8-2.54-2.18-2.54-1.5,0-2.58.92-2.58,2.9v5.32h-3.12v-10.76h2.98v1.26c.84-.92,2.1-1.42,3.56-1.42,2.54,0,4.46,1.48,4.46,4.76Z" fill="#cf4654"/><path d="M529.43,22.37l-3.9,10.76h-3l-2.42-6.68-2.5,6.68h-3l-3.88-10.76h2.94l2.54,7.28,2.64-7.28h2.64l2.56,7.28,2.62-7.28h2.76Z" fill="#cf4654"/><path d="M540.05,26.99v6.14h-2.92v-1.34c-.58.98-1.7,1.5-3.28,1.5-2.52,0-4.02-1.4-4.02-3.26s1.34-3.22,4.62-3.22h2.48c0-1.34-.8-2.12-2.48-2.12-1.14,0-2.32.38-3.1,1l-1.12-2.18c1.18-.84,2.92-1.3,4.64-1.3,3.28,0,5.18,1.52,5.18,4.78ZM536.93,29.73v-1.1h-2.14c-1.46,0-1.92.54-1.92,1.26,0,.78.66,1.3,1.76,1.3,1.04,0,1.94-.48,2.3-1.46Z" fill="#cf4654"/><path d="M541.83,32.13l1.04-2.24c.96.62,2.42,1.04,3.74,1.04,1.44,0,1.98-.38,1.98-.98,0-1.76-6.5.04-6.5-4.26,0-2.04,1.84-3.48,4.98-3.48,1.48,0,3.12.34,4.14.94l-1.04,2.22c-1.06-.6-2.12-.8-3.1-.8-1.4,0-2,.44-2,1,0,1.84,6.5.06,6.5,4.3,0,2-1.86,3.42-5.08,3.42-1.82,0-3.66-.5-4.66-1.16Z" fill="#cf4654"/><path d="M571.31,30.19h-2.28v2.94h-3.16v-2.94h-7.54v-2.18l6.6-8.88h3.4l-6.12,8.42h3.76v-2.62h3.06v2.62h2.28v2.64Z" fill="#cf4654"/><path d="M577.79,27.75c0-3.24,2.5-5.54,6-5.54,2.26,0,4.04.98,4.82,2.74l-2.42,1.3c-.58-1.02-1.44-1.48-2.42-1.48-1.58,0-2.82,1.1-2.82,2.98s1.24,2.98,2.82,2.98c.98,0,1.84-.44,2.42-1.48l2.42,1.32c-.78,1.72-2.56,2.72-4.82,2.72-3.5,0-6-2.3-6-5.54Z" fill="#cf4654"/><path d="M590.33,18.29h3.12v14.84h-3.12v-14.84Z" fill="#cf4654"/><path d="M595.97,19.13c0-.98.78-1.74,1.94-1.74s1.94.72,1.94,1.68c0,1.04-.78,1.8-1.94,1.8s-1.94-.76-1.94-1.74ZM596.35,22.37h3.12v10.76h-3.12v-10.76Z" fill="#cf4654"/><path d="M601.57,27.75c0-3.24,2.5-5.54,6-5.54,2.26,0,4.04.98,4.82,2.74l-2.42,1.3c-.58-1.02-1.44-1.48-2.42-1.48-1.58,0-2.82,1.1-2.82,2.98s1.24,2.98,2.82,2.98c.98,0,1.84-.44,2.42-1.48l2.42,1.32c-.78,1.72-2.56,2.72-4.82,2.72-3.5,0-6-2.3-6-5.54Z" fill="#cf4654"/><path d="M618.73,28.91l-1.5,1.48v2.74h-3.12v-14.84h3.12v8.4l4.56-4.32h3.72l-4.48,4.56,4.88,6.2h-3.78l-3.4-4.22Z" fill="#cf4654"/><path d="M625.91,32.13l1.04-2.24c.96.62,2.42,1.04,3.74,1.04,1.44,0,1.98-.38,1.98-.98,0-1.76-6.5.04-6.5-4.26,0-2.04,1.84-3.48,4.98-3.48,1.48,0,3.12.34,4.14.94l-1.04,2.22c-1.06-.6-2.12-.8-3.1-.8-1.4,0-2,.44-2,1,0,1.84,6.5.06,6.5,4.3,0,2-1.86,3.42-5.08,3.42-1.82,0-3.66-.5-4.66-1.16Z" fill="#cf4654"/><path d="M652.75,26.99v6.14h-2.92v-1.34c-.58.98-1.7,1.5-3.28,1.5-2.52,0-4.02-1.4-4.02-3.26s1.34-3.22,4.62-3.22h2.48c0-1.34-.8-2.12-2.48-2.12-1.14,0-2.32.38-3.1,1l-1.12-2.18c1.18-.84,2.92-1.3,4.64-1.3,3.28,0,5.18,1.52,5.18,4.78ZM649.63,29.73v-1.1h-2.14c-1.46,0-1.92.54-1.92,1.26,0,.78.66,1.3,1.76,1.3,1.04,0,1.94-.48,2.3-1.46Z" fill="#cf4654"/><path d="M672.65,22.37l-3.9,10.76h-3l-2.42-6.68-2.5,6.68h-3l-3.88-10.76h2.94l2.54,7.28,2.64-7.28h2.64l2.56,7.28,2.62-7.28h2.76Z" fill="#cf4654"/><path d="M683.27,26.99v6.14h-2.92v-1.34c-.58.98-1.7,1.5-3.28,1.5-2.52,0-4.02-1.4-4.02-3.26s1.34-3.22,4.62-3.22h2.48c0-1.34-.8-2.12-2.48-2.12-1.14,0-2.32.38-3.1,1l-1.12-2.18c1.18-.84,2.92-1.3,4.64-1.3,3.28,0,5.18,1.52,5.18,4.78ZM680.15,29.73v-1.1h-2.14c-1.46,0-1.92.54-1.92,1.26,0,.78.66,1.3,1.76,1.3,1.04,0,1.94-.48,2.3-1.46Z" fill="#cf4654"/><path d="M696.57,22.37l-4.86,11.42c-1.04,2.6-2.52,3.38-4.46,3.38-1.1,0-2.3-.36-3-.98l1.14-2.22c.48.42,1.14.68,1.76.68.86,0,1.34-.38,1.76-1.34l.04-.1-4.66-10.84h3.22l3.02,7.3,3.04-7.3h3Z" fill="#cf4654"/><circle cx="246.13" cy="308.94" r="6.07" fill="#cf4654"/><line x1="202.72" y1="308.94" x2="247.18" y2="308.94" fill="none" stroke="#cf4654" stroke-miterlimit="10" stroke-width="3"/><polyline points="319.05 68.21 319.05 46.42 765.27 46.42 765.27 68.21" fill="none" stroke="#cf4654" stroke-miterlimit="10" stroke-width="3"/><circle cx="319.05" cy="68.21" r="6.07" fill="#cf4654"/><circle cx="765.27" cy="68.21" r="3.87" fill="#cf4654"/></svg>