<?xml version="1.0" encoding="UTF-8"?><svg id="Layer_1" xmlns="http://www.w3.org/2000/svg" width="680.1" height="463.94" xmlns:xlink="http://www.w3.org/1999/xlink" viewBox="0 0 680.1 463.94"><defs><clipPath id="clippath"><rect x="-440.79" y="17.79" width="381.3" height="413.07" fill="none"/></clipPath><clipPath id="clippath-1"><path d="M77.94,59.52h55.85c5.74,0,10.4,4.66,10.4,10.4v143.13c0,6.26-5.08,11.34-11.34,11.34h-53.96c-6.26,0-11.34-5.08-11.34-11.34V69.92c0-5.74,4.66-10.4,10.4-10.4Z" fill="none"/></clipPath><clipPath id="clippath-2"><rect x="67.7" y="92.44" width="76.48" height="132.37" fill="none"/></clipPath><clipPath id="clippath-3"><rect x="67.7" y="92.44" width="76.48" height="132.37" fill="none"/></clipPath><clipPath id="clippath-4"><path d="M73.02,89.53l-.35.23-.35-.23c-.81-.54-1.29-1.46-1.29-2.43v-.63s.16-.04.16-.04c.97-.25,1.99-.25,2.96,0l.16.04v.63c0,.97-.48,1.88-1.29,2.43Z" fill="none"/></clipPath><clipPath id="clippath-5"><path d="M473.08,59.87h117.03c12.03,0,21.79,9.77,21.79,21.79v299.93c0,13.12-10.65,23.77-23.77,23.77h-113.08c-13.12,0-23.77-10.65-23.77-23.77V81.66c0-12.03,9.77-21.79,21.79-21.79Z" fill="none"/></clipPath><clipPath id="clippath-6"><rect x="451.64" y="128.85" width="160.27" height="277.38" fill="none"/></clipPath><clipPath id="clippath-7"><rect x="451.64" y="128.85" width="160.27" height="277.38" fill="none"/></clipPath><clipPath id="clippath-8"><path d="M462.78,122.76l-.73.49-.73-.49c-1.7-1.14-2.71-3.05-2.71-5.09v-1.32s.34-.09.34-.09c2.03-.52,4.17-.52,6.2,0l.33.08v1.32c0,2.04-1.01,3.94-2.7,5.09Z" fill="none"/></clipPath><clipPath id="clippath-9"><path d="M370.59,126.85s-6.34-1.52-5.89-9.06c.33-5.53,5.69-3.79,5.66-2.18,0,.43-.04,2.59.68,4.23.92,2.13,2.79,3.76,2.79,3.76.36.84.23,1.81-.34,2.53h0c-.7.87-1.89,1.16-2.9.72Z" fill="none"/></clipPath></defs><path d="M597.13,412.48l-133.11-.56S282.95,242.32,77.73,228.16c20.13,0,13.43,0,56.26,0,320.03,30.21,463.14,184.32,463.14,184.32Z" fill="#cf4654"/><g clip-path="url(#clippath)"><g opacity=".3"><rect x="-558.44" y="-116.5" width="620.72" height="663.46"/></g><rect x="-558.44" y="-116.5" width="620.72" height="663.46"/></g><g opacity=".5"><ellipse cx="170.92" cy="240.17" rx="3.29" ry="1.49" fill="#202121"/></g><g opacity=".5"><ellipse cx="149.9" cy="233.02" rx="2.3" ry="1.04" fill="#202121"/></g><g opacity=".5"><ellipse cx="213.85" cy="243.81" rx="4.74" ry="2.15" fill="#202121"/></g><g opacity=".5"><ellipse cx="241.47" cy="262.09" rx="6.57" ry="2.98" fill="#202121"/></g><g opacity=".5"><ellipse cx="301.71" cy="265.06" rx="8.21" ry="3.72" fill="#202121"/></g><g opacity=".5"><ellipse cx="325.92" cy="302.1" rx="8.56" ry="3.88" fill="#202121"/></g><rect x="615.16" y="35.88" width="15.78" height="15.78" rx="2.23" ry="2.23" transform="translate(974.85 559.85) rotate(-128.3)" fill="#ffc500"/><rect x="633.87" y="27.39" width="10.68" height="10.68" rx="1.51" ry="1.51" transform="translate(776.74 657.82) rotate(-105.34)" fill="#ffc500" opacity=".5"/><rect x="638.31" y="46.02" width="7.71" height="7.71" rx="1.09" ry="1.09" transform="translate(1258.51 236.89) rotate(-167.56)" fill="#ffc500" opacity=".25"/><rect x="418.94" y="402.16" width="15.78" height="15.78" rx="2.23" ry="2.23" transform="translate(254.47 -156.18) rotate(29.22)" fill="#ffc500"/><rect x="410.78" y="421.09" width="10.68" height="10.68" rx="1.51" ry="1.51" transform="translate(497.79 -163.76) rotate(52.18)" fill="#ffc500" opacity=".5"/><rect x="402.98" y="407.86" width="7.71" height="7.71" rx="1.09" ry="1.09" transform="translate(-65.57 77.26) rotate(-10.04)" fill="#ffc500" opacity=".25"/><rect x="619.4" y="407.98" width="15.78" height="15.78" rx="2.23" ry="2.23" transform="translate(172.21 1015.31) rotate(-86.34)" fill="#ffc500"/><rect x="641.35" y="413.12" width="10.68" height="10.68" rx="1.51" ry="1.51" transform="translate(-17.19 809.08) rotate(-63.38)" fill="#ffc500" opacity=".5"/><rect x="633.56" y="429.33" width="7.71" height="7.71" rx="1.09" ry="1.09" transform="translate(656.26 1203.64) rotate(-125.6)" fill="#ffc500" opacity=".25"/><rect x="431.68" y="36.66" width="15.78" height="15.78" rx="2.23" ry="2.23" transform="translate(649.57 -344.18) rotate(112.59)" fill="#ffc500"/><rect x="416.73" y="30.47" width="10.68" height="10.68" rx="1.51" ry="1.51" transform="translate(748.44 -234.21) rotate(135.55)" fill="#ffc500" opacity=".5"/><rect x="415.98" y="50.27" width="7.71" height="7.71" rx="1.09" ry="1.09" transform="translate(351.25 -363.59) rotate(73.33)" fill="#ffc500" opacity=".25"/><rect x="186.93" y="168.45" width="4.58" height="65.61" rx="2.29" ry="2.29" fill="#ffc500"/><rect x="232.61" y="164.56" width="5.38" height="77.1" rx="2.69" ry="2.69" fill="#ffc500"/><rect x="295.55" y="157.87" width="6.91" height="98.94" rx="3.45" ry="3.45" fill="#ffc500"/><rect x="403.38" y="150.2" width="9.99" height="143.08" rx="4.99" ry="4.99" fill="#ffc500"/><path d="M464.43,201.45c-.12,0-.24,0-.36,0-20.96-.14-39.94-12.18-56.5-35.8-9.51,8.98-19.62,16.42-29.48,21.69-14.12,7.54-27.59,10.64-40.04,9.22-14.94-1.71-27.88-9.83-38.57-24.17-2.06,3.37-4.75,7.18-8.09,10.74-6.83,7.29-14.24,8.33-22.04,9.03-11.05.98-23.9-4.59-34.45-17.1-3.36,7.61-8.78,14.04-18.46,15.55-9.18,1.44-16.73-1.58-27.22-14.78-10.55,9.53-23.02,19.12-35.89,19.14-.03,0,.03,0,0,0-28.69,0-46.49-30.85-47.47-31.87-1.9-2-.07-3.99,1.84-1.99h0c.21.22,21.26,29.96,45.61,29.96.04,0,.07,0,.11,0,11.74-.03,22.35-7.62,31.95-17.78,1.02-1.08,2.47-1.64,3.97-1.55,1.49.1,2.85.86,3.72,2.07,9.05,12.57,17.47,13.42,23.32,12.5,5.29-.83,10.02-1.55,14.07-14l.09-.28c.59-1.8,2.14-3.12,4.02-3.4,1.87-.28,3.75.53,4.83,2.08,10.08,14.42,19.85,15.29,29.07,14.49,11.26-1,21.04-9.85,25.99-20.55.77-1.67,2.4-2.78,4.24-2.89,1.87-.11,3.59.8,4.55,2.37,9.82,15.98,21.91,20.9,35.93,22.5,27.44,3.13,55.03-21.52,65.62-32.27,1.07-1.08,2.57-1.62,4.08-1.46,1.51.16,2.87.99,3.69,2.27,15.39,23.95,32.74,36.16,51.56,36.29.1,0,.2,0,.29,0,28.83,0,53.76-28.13,60.96-39.01,1.52-2.3,4.62-2.93,6.93-1.41,2.3,1.52,2.93,4.63,1.41,6.93-9.98,15.08-37.26,43.49-69.3,43.49Z" fill="#cf4654"/><rect x="184.21" y="231.51" width="10.02" height="3.49" rx="1.75" ry="1.75" fill="#ffc500"/><rect x="229.13" y="239.08" width="12.34" height="4.3" rx="2.15" ry="2.15" fill="#ffc500"/><rect x="290.14" y="253.72" width="17.72" height="6.17" rx="3.09" ry="3.09" fill="#ffc500"/><rect x="394.12" y="288.31" width="28.51" height="9.93" rx="4.96" ry="4.96" fill="#ffc500"/><circle cx="189.22" cy="169.78" r="3.57" fill="#ffc500"/><circle cx="235.3" cy="165.9" r="4.71" fill="#ffc500"/><circle cx="299" cy="159.21" r="6.1" fill="#ffc500"/><circle cx="408.89" cy="154.23" r="9.31" fill="#ffc500"/><rect x="64.12" y="55.58" width="83.47" height="172.58" rx="13.61" ry="13.61" fill="#202121"/><g clip-path="url(#clippath-1)"><rect x="67.53" y="58.79" width="76.65" height="166.02" fill="#fff"/><rect x="70.96" y="70.89" width="69.94" height="9.18" rx="4.59" ry="4.59" fill="#86a0bc" opacity=".5"/><rect x="67.53" y="82.13" width="76.65" height="10.8" fill="#05172e"/><g clip-path="url(#clippath-2)"><rect x="67.7" y="92.44" width="76.48" height="132.37" fill="#f0f2f6"/><rect x="70.75" y="116.21" width="69.94" height="64.53" rx="2.08" ry="2.08" fill="#fff"/><rect x="73.62" y="119.66" width="30.13" height="5.57" rx=".75" ry=".75" fill="#86a0bc" opacity=".25"/><rect x="73.61" y="128.18" width="64.08" height="7.4" rx=".73" ry=".73" fill="#fff" opacity=".25" stroke="#86a0bc" stroke-miterlimit="10" stroke-width=".4"/><rect x="73.83" y="142.59" width="30.13" height="5.57" rx=".75" ry=".75" fill="#86a0bc" opacity=".25"/><rect x="73.82" y="151.11" width="64.08" height="7.4" rx=".73" ry=".73" fill="#fff" opacity=".25" stroke="#86a0bc" stroke-miterlimit="10" stroke-width=".4"/><path d="M136.42,165.51h-60.59c-.7,0-1.27.57-1.27,1.27v9.02c0,.7.57,1.27,1.27,1.27h60.59c.7,0,1.27-.57,1.27-1.27v-9.02c0-.7-.57-1.27-1.27-1.27" fill="#038179"/><path d="M97.53,172.44l.26-.58c.28.21.7.35,1.1.35.46,0,.64-.15.64-.36,0-.62-1.94-.2-1.94-1.44,0-.57.46-1.04,1.41-1.04.42,0,.85.1,1.16.3l-.24.59c-.31-.18-.63-.26-.93-.26-.46,0-.63.17-.63.38,0,.62,1.94.19,1.94,1.42,0,.56-.46,1.04-1.42,1.04-.53,0-1.06-.16-1.36-.39Z" fill="#fff"/><path d="M100.69,169.43c0-.23.19-.41.46-.41s.46.17.46.4c0,.25-.19.43-.46.43s-.46-.18-.46-.41ZM100.78,170.2h.74v2.57h-.74v-2.57Z" fill="#fff"/><path d="M104.87,170.2v2.14c0,.95-.51,1.39-1.44,1.39-.49,0-.96-.12-1.26-.35l.3-.53c.22.18.58.29.91.29.52,0,.75-.24.75-.7v-.11c-.2.21-.48.32-.81.32-.71,0-1.28-.49-1.28-1.24s.57-1.24,1.28-1.24c.36,0,.65.12.85.37v-.33h.71ZM104.13,171.4c0-.38-.28-.63-.67-.63s-.68.25-.68.63.29.63.68.63.67-.25.67-.63Z" fill="#fff"/><path d="M108.18,171.3v1.47h-.74v-1.35c0-.41-.19-.61-.52-.61-.36,0-.62.22-.62.69v1.27h-.74v-2.57h.71v.3c.2-.22.5-.34.85-.34.61,0,1.06.35,1.06,1.14Z" fill="#fff"/><path d="M110.23,171.3v-1.87h.77v1.84c0,.63.28.9.74.9s.74-.26.74-.9v-1.84h.76v1.87c0,.98-.56,1.53-1.51,1.53s-1.51-.54-1.51-1.53Z" fill="#fff"/><path d="M116.76,171.48c0,.81-.56,1.32-1.28,1.32-.32,0-.58-.1-.77-.31v1.2h-.74v-3.49h.71v.3c.19-.22.46-.33.81-.33.72,0,1.28.51,1.28,1.32ZM116.01,171.48c0-.44-.28-.71-.65-.71s-.65.27-.65.71.28.71.65.71.65-.27.65-.71Z" fill="#fff"/><g clip-path="url(#clippath-3)"><rect x="67.7" y="92.44" width="76.48" height="19.53" fill="#fff"/></g><rect x="87.41" y="96.51" width="30.13" height="5.57" rx=".75" ry=".75" fill="#86a0bc" opacity=".25"/><rect x="87.54" y="104.5" width="17.35" height="3.79" rx=".51" ry=".51" fill="#86a0bc" opacity=".25"/><rect x="107.23" y="104.5" width="17.35" height="3.79" rx=".51" ry=".51" fill="#86a0bc" opacity=".25"/><path d="M81.55,96.81h-8.16c-.94,0-1.7.76-1.7,1.7v8.16c0,.94.76,1.7,1.7,1.7h8.16c.94,0,1.7-.76,1.7-1.7v-8.16c0-.94-.76-1.7-1.7-1.7" fill="#81c0bc"/><path d="M76.29,98.56c0-.22-.17-.39-.39-.39s-.39.17-.39.39v.65s-.65,0-.65,0c-.58,0-1.05.47-1.05,1.05v.26s0,.78,0,.78v4.18c0,.58.47,1.05,1.05,1.05h5.23c.58,0,1.05-.47,1.05-1.05v-4.18s0-.78,0-.78v-.26c0-.58-.47-1.05-1.05-1.05h-.65s0-.65,0-.65c0-.22-.17-.39-.39-.39s-.39.17-.39.39v.65s-2.35,0-2.35,0v-.65ZM74.6,101.31h5.75s0,4.18,0,4.18c0,.14-.12.26-.26.26h-5.23c-.14,0-.26-.12-.26-.26v-4.18Z" fill="#05172e" opacity=".3"/></g></g><rect x="93" y="61.54" width="25.66" height="7.41" rx="3.7" ry="3.7"/><path d="M74.15,86.43c-.31-.08-.62-.13-.93-.16h0s.37-.44.37-.44c.02-.03.02-.07,0-.1l-.37-.43-.36-.04c-.13-.02-.26-.02-.39,0l-.36.04-.37.43s-.02.07,0,.1l.37.43h0c-.31.04-.62.09-.93.17l-.16.04v.63c0,.98.49,1.89,1.29,2.43l.35.23.35-.23c.81-.54,1.29-1.45,1.29-2.43v-.63s-.16-.04-.16-.04Z" fill="#fff"/><path d="M74.15,86.43c-.31-.08-.62-.13-.93-.16h0s.37-.44.37-.44c.02-.03.02-.07,0-.1l-.37-.43-.36-.04c-.13-.02-.26-.02-.39,0l-.36.04-.37.43s-.02.07,0,.1l.37.43h0c-.31.04-.62.09-.93.17l-.16.04v.63c0,.98.49,1.89,1.29,2.43l.35.23.35-.23c.81-.54,1.29-1.45,1.29-2.43v-.63s-.16-.04-.16-.04Z" fill="none" stroke="#122343" stroke-miterlimit="10" stroke-width="0"/><path d="M72.67,85.24c.06,0,.13,0,.19.01l.36.04.37.43s.02.07,0,.1l-.37.43h0c.31.04.62.09.93.17l.16.04v.63c0,.97-.48,1.88-1.29,2.43l-.35.23-.35-.23c-.81-.54-1.29-1.46-1.29-2.43v-.63l.16-.04c.31-.08.62-.13.93-.16h0s-.37-.44-.37-.44c-.02-.03-.02-.07,0-.1l.37-.43.36-.04c.06,0,.13-.01.19-.01M72.67,84.94c-.08,0-.15,0-.23.01l-.36.04h-.12s-.08.1-.08.1l-.37.43c-.12.14-.12.35,0,.5h.01c-.14.04-.28.07-.41.1l-.16.04-.23.06v.86c0,1.08.53,2.08,1.43,2.68l.35.23.17.11.17-.12.35-.23c.89-.6,1.42-1.6,1.42-2.68v-.87l-.23-.06-.16-.04c-.14-.04-.28-.07-.42-.09v-.02c.14-.15.14-.35.01-.5l-.37-.43-.08-.09h-.12s-.36-.06-.36-.06c-.08,0-.15-.01-.23-.01h0Z" fill="#b1b5be"/><g clip-path="url(#clippath-4)"><rect x="71.03" y="86.22" width=".23" height="4.46" fill="#cf4654"/><rect x="71.48" y="86.22" width=".23" height="4.46" fill="#cf4654"/><rect x="71.94" y="86.22" width=".23" height="4.46" fill="#cf4654"/><rect x="73.17" y="86.21" width=".23" height="4.46" fill="#cf4654"/><rect x="73.62" y="86.21" width=".23" height="4.46" fill="#cf4654"/><rect x="74.08" y="86.15" width=".23" height="4.46" fill="#cf4654"/><rect x="72.47" y="87.83" width=".4" height="2.07" fill="#b1b5be"/><path d="M72.8,87.91v1.92h-.25v-1.92h.25M72.95,87.75h-.56v2.23h.56v-2.23h0Z" fill="#122343"/></g><path d="M72.67,86.25c.5,0,1,.06,1.48.19l.16.04v.63c0,.97-.48,1.88-1.29,2.43l-.35.23-.35-.23c-.81-.54-1.29-1.46-1.29-2.43v-.63l.16-.04c.48-.12.98-.19,1.48-.19M72.67,86.09c-.51,0-1.02.06-1.51.19l-.16.04-.11.03v.75c0,1.03.51,1.98,1.36,2.56l.35.23.08.06.09-.06.35-.23c.85-.57,1.36-1.53,1.36-2.55v-.75l-.11-.03-.16-.04c-.5-.13-1.01-.19-1.52-.19h0Z" fill="#122343"/><path d="M72.25,87.98l-.21-1.71-.39-.44.04-.15.37-.44.41-.07c.07,0,.14-.01.2-.01s.14,0,.2.01l.36.04.46.51-.04.15-.37.43-.2,1.67h-.84Z" fill="#fff"/><path d="M72.67,85.24c.06,0,.13,0,.19.01l.36.04.37.43s.02.07,0,.1l-.37.43-.21,1.64h-.7l-.2-1.64-.37-.43s-.02-.07,0-.1l.37-.43.36-.04c.06,0,.13-.01.19-.01M72.67,85.09c-.07,0-.14,0-.21.01l-.36.04h-.06s-.04.05-.04.05l-.37.43c-.07.09-.07.21,0,.3l.34.4.19,1.6.02.13h.97l.02-.13.2-1.6.34-.4c.07-.09.07-.21,0-.3l-.37-.43-.04-.05h-.06s-.36-.05-.36-.05c-.07,0-.14-.01-.21-.01h0Z" fill="#122343"/><path d="M76.11,89.32l.43-2.71h-.61s.15-.92.15-.92h2.22s-.15.92-.15.92h-.6s-.43,2.71-.43,2.71h-1.02Z" fill="#fff"/><path d="M79.54,85.69l-.1,2.15.67-2.15h.81s-.01,2.15-.01,2.15l.58-2.15h1.01s-1.28,3.63-1.28,3.63h-.93s.01-2.27.01-2.27l-.71,2.27h-.93s-.13-3.63-.13-3.63h1.01Z" fill="#fff"/><path d="M82.85,85.69h1.01s-.57,3.63-.57,3.63h-1.01s.57-3.63.57-3.63Z" fill="#fff"/><path d="M84.47,85.69h.85c.92,0,1.41.16,1.41.93,0,.6-.26.99-.75,1.11l.45,1.59h-1.07s-.23-1.46-.23-1.46l-.23,1.46h-1.01s.57-3.63.57-3.63ZM85.28,87.31c.31,0,.48-.2.48-.56,0-.21-.11-.31-.33-.31-.02,0-.05,0-.07,0l-.14.86h.06Z" fill="#fff"/><path d="M87.36,85.69h1.02s-.43,2.73-.43,2.73h.74s-.14.9-.14.9h-1.76s.57-3.63.57-3.63Z" fill="#fff"/><path d="M89.76,89.32h-.87s.83-3.63.83-3.63h1.19s.01,1.91.01,1.91l.62-1.91h1.18s-.31,3.63-.31,3.63h-.87s.33-2.69.33-2.69l-.86,2.69h-.69s-.04-2.69-.04-2.69l-.51,2.69Z" fill="#fff"/><path d="M93.93,85.69h1.2s.25,3.63.25,3.63h-1.02s0-.53,0-.53h-.6s-.16.53-.16.53h-1.04s1.36-3.63,1.36-3.63ZM94.38,88.05v-1.34s-.41,1.34-.41,1.34h.41Z" fill="#fff"/><path d="M95.95,89.32l.43-2.71h-.61s.15-.92.15-.92h2.22s-.15.92-.15.92h-.6s-.43,2.71-.43,2.71h-1.02Z" fill="#fff"/><path d="M98.62,85.69h1.8s-.14.88-.14.88h-.78s-.08.46-.08.46h.71s-.13.85-.13.85h-.71s-.08.5-.08.5h.78s-.15.94-.15.94h-1.8s.57-3.63.57-3.63Z" fill="#fff"/><path d="M76.11,89.32l.43-2.71h-.61s.15-.92.15-.92h2.22s-.15.92-.15.92h-.6s-.43,2.71-.43,2.71h-1.02Z" fill="#fff"/><path d="M79.54,85.69l-.1,2.15.67-2.15h.81s-.01,2.15-.01,2.15l.58-2.15h1.01s-1.28,3.63-1.28,3.63h-.93s.01-2.27.01-2.27l-.71,2.27h-.93s-.13-3.63-.13-3.63h1.01Z" fill="#fff"/><path d="M82.85,85.69h1.01s-.57,3.63-.57,3.63h-1.01s.57-3.63.57-3.63Z" fill="#fff"/><path d="M84.47,85.69h.85c.92,0,1.41.16,1.41.93,0,.6-.26.99-.75,1.11l.45,1.59h-1.07s-.23-1.46-.23-1.46l-.23,1.46h-1.01s.57-3.63.57-3.63ZM85.28,87.31c.31,0,.48-.2.48-.56,0-.21-.11-.31-.33-.31-.02,0-.05,0-.07,0l-.14.86h.06Z" fill="#fff"/><path d="M87.36,85.69h1.02s-.43,2.73-.43,2.73h.74s-.14.9-.14.9h-1.76s.57-3.63.57-3.63Z" fill="#fff"/><path d="M89.76,89.32h-.87s.83-3.63.83-3.63h1.19s.01,1.91.01,1.91l.62-1.91h1.18s-.31,3.63-.31,3.63h-.87s.33-2.69.33-2.69l-.86,2.69h-.69s-.04-2.69-.04-2.69l-.51,2.69Z" fill="#fff"/><path d="M93.93,85.69h1.2s.25,3.63.25,3.63h-1.02s0-.53,0-.53h-.6s-.16.53-.16.53h-1.04s1.36-3.63,1.36-3.63ZM94.38,88.05v-1.34s-.41,1.34-.41,1.34h.41Z" fill="#fff"/><path d="M95.95,89.32l.43-2.71h-.61s.15-.92.15-.92h2.22s-.15.92-.15.92h-.6s-.43,2.71-.43,2.71h-1.02Z" fill="#fff"/><path d="M98.62,85.69h1.8s-.14.88-.14.88h-.78s-.08.46-.08.46h.71s-.13.85-.13.85h-.71s-.08.5-.08.5h.78s-.15.94-.15.94h-1.8s.57-3.63.57-3.63Z" fill="#fff"/><rect x="444.14" y="51.61" width="174.91" height="361.64" rx="28.51" ry="28.51" fill="#202121"/><g clip-path="url(#clippath-5)"><rect x="451.29" y="58.34" width="160.62" height="347.89" fill="#fff"/><rect x="458.46" y="83.7" width="146.55" height="19.24" rx="9.62" ry="9.62" fill="#86a0bc" opacity=".5"/><rect x="451.29" y="107.25" width="160.62" height="22.63" fill="#05172e"/><g clip-path="url(#clippath-6)"><rect x="451.64" y="128.85" width="160.27" height="277.38" fill="#f0f2f6"/><rect x="458.03" y="178.67" width="146.55" height="59.36" rx="2.89" ry="2.89" fill="#fff"/><rect x="500.59" y="185.89" width="63.13" height="11.67" rx="1.57" ry="1.57" fill="#86a0bc" opacity=".25"/><path d="M595.64,205.97h-126.97c-1.47,0-2.66,1.19-2.66,2.66v18.9c0,1.47,1.19,2.66,2.66,2.66h126.97c1.47,0,2.66-1.19,2.66-2.66v-18.9c0-1.47-1.19-2.66-2.66-2.66" fill="#038179"/><path d="M488.64,220.49l.55-1.22c.59.43,1.47.73,2.31.73.96,0,1.35-.32,1.35-.75,0-1.31-4.07-.41-4.07-3.01,0-1.19.96-2.18,2.95-2.18.88,0,1.78.21,2.43.62l-.5,1.23c-.65-.37-1.32-.55-1.94-.55-.96,0-1.33.36-1.33.8,0,1.29,4.07.4,4.07,2.97,0,1.17-.97,2.17-2.97,2.17-1.11,0-2.23-.33-2.85-.81Z" fill="#fff"/><path d="M498.93,220.91c-.32.23-.79.34-1.27.34-1.27,0-2.01-.65-2.01-1.93v-2.21h-.83v-1.2h.83v-1.31h1.56v1.31h1.34v1.2h-1.34v2.19c0,.46.25.71.67.71.23,0,.46-.07.63-.2l.42,1.1Z" fill="#fff"/><path d="M504.57,218.11v3.07h-1.46v-.67c-.29.49-.85.75-1.64.75-1.26,0-2.01-.7-2.01-1.63s.67-1.61,2.31-1.61h1.24c0-.67-.4-1.06-1.24-1.06-.57,0-1.16.19-1.55.5l-.56-1.09c.59-.42,1.46-.65,2.32-.65,1.64,0,2.59.76,2.59,2.39ZM503.01,219.48v-.55h-1.07c-.73,0-.96.27-.96.63,0,.39.33.65.88.65.52,0,.97-.24,1.15-.73Z" fill="#fff"/><path d="M509.32,215.72v1.44c-.13,0-.23-.02-.35-.02-.86,0-1.43.47-1.43,1.5v2.54h-1.56v-5.38h1.49v.71c.38-.52,1.02-.79,1.85-.79Z" fill="#fff"/><path d="M513.91,220.91c-.32.23-.79.34-1.27.34-1.27,0-2.01-.65-2.01-1.93v-2.21h-.83v-1.2h.83v-1.31h1.56v1.31h1.34v1.2h-1.34v2.19c0,.46.25.71.67.71.23,0,.46-.07.63-.2l.42,1.1Z" fill="#fff"/><path d="M522.19,221.17l-1.35-1.95h-1.49v1.95h-1.62v-7h3.03c1.87,0,3.04.97,3.04,2.54,0,1.05-.53,1.82-1.44,2.21l1.57,2.25h-1.74ZM520.67,215.5h-1.32v2.44h1.32c.99,0,1.49-.46,1.49-1.22s-.5-1.22-1.49-1.22Z" fill="#fff"/><path d="M530.21,218.93h-4.07c.15.67.72,1.08,1.54,1.08.57,0,.98-.17,1.35-.52l.83.9c-.5.57-1.25.87-2.22.87-1.86,0-3.07-1.17-3.07-2.77s1.23-2.77,2.87-2.77,2.8,1.06,2.8,2.79c0,.12-.02.29-.03.42ZM526.12,218.02h2.65c-.11-.68-.62-1.12-1.32-1.12s-1.22.43-1.33,1.12Z" fill="#fff"/><path d="M536.83,215.8v4.48c0,2-1.08,2.92-3.02,2.92-1.02,0-2.01-.25-2.64-.74l.62-1.12c.46.37,1.21.61,1.9.61,1.1,0,1.58-.5,1.58-1.47v-.23c-.41.45-1,.67-1.7.67-1.49,0-2.69-1.03-2.69-2.6s1.2-2.6,2.69-2.6c.75,0,1.37.25,1.78.77v-.69h1.48ZM535.29,218.32c0-.79-.59-1.32-1.41-1.32s-1.42.53-1.42,1.32.6,1.32,1.42,1.32,1.41-.53,1.41-1.32Z" fill="#fff"/><path d="M538.09,214.18c0-.49.39-.87.97-.87s.97.36.97.84c0,.52-.39.9-.97.9s-.97-.38-.97-.87ZM538.28,215.8h1.56v5.38h-1.56v-5.38Z" fill="#fff"/><path d="M540.77,220.67l.52-1.12c.48.31,1.21.52,1.87.52.72,0,.99-.19.99-.49,0-.88-3.25.02-3.25-2.13,0-1.02.92-1.74,2.49-1.74.74,0,1.56.17,2.07.47l-.52,1.11c-.53-.3-1.06-.4-1.55-.4-.7,0-1,.22-1,.5,0,.92,3.25.03,3.25,2.15,0,1-.93,1.71-2.54,1.71-.91,0-1.83-.25-2.33-.58Z" fill="#fff"/><path d="M550.07,220.91c-.32.23-.79.34-1.27.34-1.27,0-2.01-.65-2.01-1.93v-2.21h-.83v-1.2h.83v-1.31h1.56v1.31h1.34v1.2h-1.34v2.19c0,.46.25.71.67.71.23,0,.46-.07.63-.2l.42,1.1Z" fill="#fff"/><path d="M554.29,215.72v1.44c-.13,0-.23-.02-.35-.02-.86,0-1.43.47-1.43,1.5v2.54h-1.56v-5.38h1.49v.71c.38-.52,1.02-.79,1.85-.79Z" fill="#fff"/><path d="M559.95,218.11v3.07h-1.46v-.67c-.29.49-.85.75-1.64.75-1.26,0-2.01-.7-2.01-1.63s.67-1.61,2.31-1.61h1.24c0-.67-.4-1.06-1.24-1.06-.57,0-1.16.19-1.55.5l-.56-1.09c.59-.42,1.46-.65,2.32-.65,1.64,0,2.59.76,2.59,2.39ZM558.39,219.48v-.55h-1.07c-.73,0-.96.27-.96.63,0,.39.33.65.88.65.52,0,.97-.24,1.15-.73Z" fill="#fff"/><path d="M564.83,220.91c-.32.23-.79.34-1.27.34-1.27,0-2.01-.65-2.01-1.93v-2.21h-.83v-1.2h.83v-1.31h1.56v1.31h1.34v1.2h-1.34v2.19c0,.46.25.71.67.71.23,0,.46-.07.63-.2l.42,1.1Z" fill="#fff"/><path d="M565.52,214.18c0-.49.39-.87.97-.87s.97.36.97.84c0,.52-.39.9-.97.9s-.97-.38-.97-.87ZM565.71,215.8h1.56v5.38h-1.56v-5.38Z" fill="#fff"/><path d="M568.32,218.49c0-1.62,1.25-2.77,2.96-2.77s2.95,1.15,2.95,2.77-1.24,2.77-2.95,2.77-2.96-1.15-2.96-2.77ZM572.65,218.49c0-.93-.59-1.49-1.37-1.49s-1.38.56-1.38,1.49.6,1.49,1.38,1.49,1.37-.56,1.37-1.49Z" fill="#fff"/><path d="M580.77,218.1v3.08h-1.56v-2.84c0-.87-.4-1.27-1.09-1.27-.75,0-1.29.46-1.29,1.45v2.66h-1.56v-5.38h1.49v.63c.42-.46,1.05-.71,1.78-.71,1.27,0,2.23.74,2.23,2.38Z" fill="#fff"/><g clip-path="url(#clippath-7)"><rect x="451.64" y="128.85" width="160.27" height="40.93" fill="#fff"/></g><rect x="492.94" y="137.38" width="63.13" height="11.67" rx="1.57" ry="1.57" fill="#86a0bc" opacity=".25"/><rect x="493.21" y="154.13" width="36.35" height="7.94" rx="1.08" ry="1.08" fill="#86a0bc" opacity=".25"/><rect x="534.47" y="154.13" width="36.35" height="7.94" rx="1.08" ry="1.08" fill="#86a0bc" opacity=".25"/><path d="M480.65,138.02h-17.09c-1.97,0-3.56,1.59-3.56,3.56v17.09c0,1.97,1.59,3.56,3.56,3.56h17.09c1.97,0,3.56-1.59,3.56-3.56v-17.09c0-1.97-1.59-3.56-3.56-3.56" fill="#81c0bc"/><path d="M469.64,141.69c0-.46-.37-.82-.82-.82s-.82.37-.82.82v1.37s-1.37,0-1.37,0c-1.21,0-2.19.98-2.19,2.19v.55s0,1.64,0,1.64v8.76c0,1.21.98,2.19,2.19,2.19h10.96c1.21,0,2.19-.98,2.19-2.19v-8.76s0-1.64,0-1.64v-.55c0-1.21-.98-2.19-2.19-2.19h-1.37s0-1.37,0-1.37c0-.46-.37-.82-.82-.82s-.82.37-.82.82v1.37s-4.93,0-4.93,0v-1.37ZM466.08,147.44h12.05s0,8.76,0,8.76c0,.3-.25.55-.55.55h-10.96c-.3,0-.55-.25-.55-.55v-8.76Z" fill="#05172e" opacity=".3"/></g></g><rect x="504.64" y="64.1" width="53.77" height="15.52" rx="7.76" ry="7.76"/><path d="M465.15,116.27c-.64-.16-1.29-.28-1.94-.34v-.02s.78-.9.78-.9c.05-.06.05-.15,0-.21l-.77-.91-.75-.09c-.27-.03-.54-.03-.81,0l-.75.09-.77.91c-.05.06-.05.15,0,.21l.77.9v.02c-.65.06-1.3.17-1.94.34l-.34.09v1.32c0,2.04,1.02,3.95,2.71,5.09l.73.49.73-.49c1.69-1.14,2.7-3.05,2.7-5.09v-1.32s-.33-.08-.33-.08Z" fill="#fff"/><path d="M465.15,116.27c-.64-.16-1.29-.28-1.94-.34v-.02s.78-.9.78-.9c.05-.06.05-.15,0-.21l-.77-.91-.75-.09c-.27-.03-.54-.03-.81,0l-.75.09-.77.91c-.05.06-.05.15,0,.21l.77.9v.02c-.65.06-1.3.17-1.94.34l-.34.09v1.32c0,2.04,1.02,3.95,2.71,5.09l.73.49.73-.49c1.69-1.14,2.7-3.05,2.7-5.09v-1.32s-.33-.08-.33-.08Z" fill="none" stroke="#122343" stroke-miterlimit="10" stroke-width=".02"/><path d="M462.05,113.77c.14,0,.27,0,.41.03l.75.09.77.91c.05.06.05.15,0,.21l-.77.9v.02c.65.06,1.3.17,1.94.34l.33.08v1.32c0,2.04-1.01,3.94-2.7,5.09l-.73.49-.73-.49c-1.7-1.14-2.71-3.05-2.71-5.09v-1.32l.34-.09c.64-.16,1.29-.28,1.95-.34v-.02s-.78-.9-.78-.9c-.05-.06-.05-.15,0-.21l.77-.91.75-.09c.14-.02.27-.03.41-.03M462.05,113.14c-.16,0-.33.01-.49.03l-.75.09-.25.03-.16.19-.77.91c-.25.3-.25.74,0,1.04l.03.03c-.29.05-.58.12-.87.19l-.34.09-.48.12v1.81c0,2.26,1.12,4.36,2.99,5.62l.73.49.36.24.36-.24.73-.49c1.87-1.26,2.98-3.36,2.98-5.62v-1.82l-.48-.12-.33-.08c-.29-.07-.58-.14-.87-.19l.03-.03c.26-.3.26-.74,0-1.04l-.77-.91-.16-.19-.25-.03-.75-.09c-.16-.02-.32-.03-.49-.03h0Z" fill="#b1b5be"/><g clip-path="url(#clippath-8)"><rect x="458.6" y="115.82" width=".48" height="9.34" fill="#cf4654"/><rect x="459.56" y="115.82" width=".48" height="9.34" fill="#cf4654"/><rect x="460.52" y="115.82" width=".48" height="9.34" fill="#cf4654"/><rect x="463.09" y="115.81" width=".48" height="9.34" fill="#cf4654"/><rect x="464.05" y="115.81" width=".48" height="9.34" fill="#cf4654"/><rect x="465" y="115.68" width=".48" height="9.34" fill="#cf4654"/><rect x="461.63" y="119.19" width=".85" height="4.35" fill="#b1b5be"/><path d="M462.32,119.36v4.03h-.53v-4.03h.53M462.64,119.04h-1.17v4.66h1.17v-4.66h0Z" fill="#122343"/></g><path d="M462.04,115.88c1.04,0,2.09.13,3.11.39l.33.08v1.32c0,2.04-1.01,3.94-2.7,5.09l-.73.49-.73-.49c-1.7-1.14-2.71-3.05-2.71-5.09v-1.32l.34-.09c1.02-.26,2.06-.39,3.09-.39M462.04,115.56c-1.07,0-2.14.13-3.17.4l-.34.09-.24.06v1.56c0,2.15,1.07,4.16,2.85,5.36l.73.49.18.12.18-.12.73-.49c1.78-1.2,2.84-3.2,2.84-5.35v-1.57l-.24-.06-.33-.08c-1.04-.27-2.11-.4-3.19-.4h0Z" fill="#122343"/><path d="M461.17,119.52l-.43-3.58-.74-.82c-.1-.12-.1-.29,0-.41l.81-.96.81-.1c.14-.02.28-.03.43-.03s.29,0,.43.03l.81.1.82.96c.1.12.1.29,0,.41l-.77.9-.41,3.5h-1.75Z" fill="#fff"/><path d="M462.05,113.77c.14,0,.27,0,.41.03l.75.09.77.91c.05.06.05.15,0,.21l-.77.9-.43,3.44h-1.47l-.42-3.44-.77-.9c-.05-.06-.05-.15,0-.21l.77-.91.75-.09c.14-.02.27-.03.41-.03M462.05,113.45c-.15,0-.3,0-.45.03l-.75.09-.12.02-.08.09-.77.91c-.15.18-.15.44,0,.62l.71.83.4,3.35.03.28h2.03l.04-.28.42-3.35.71-.83c.15-.18.15-.44,0-.62l-.77-.91-.08-.09-.12-.02-.75-.09c-.15-.02-.3-.03-.45-.03h0Z" fill="#122343"/><path d="M469.25,122.31l.9-5.67h-1.27s.31-1.93.31-1.93h4.66s-.31,1.93-.31,1.93h-1.26s-.9,5.67-.9,5.67h-2.13Z" fill="#fff"/><path d="M476.44,114.71l-.2,4.5,1.4-4.5h1.71s-.02,4.5-.02,4.5l1.22-4.5h2.11s-2.68,7.6-2.68,7.6h-1.95s.02-4.75.02-4.75l-1.48,4.75h-1.95s-.28-7.6-.28-7.6h2.11Z" fill="#fff"/><path d="M483.38,114.71h2.12s-1.2,7.6-1.2,7.6h-2.12s1.2-7.6,1.2-7.6Z" fill="#fff"/><path d="M486.77,114.71h1.79c1.93,0,2.96.33,2.96,1.95,0,1.25-.55,2.07-1.57,2.32l.94,3.33h-2.25s-.48-3.07-.48-3.07l-.48,3.07h-2.12s1.2-7.6,1.2-7.6ZM488.48,118.1c.65,0,1-.43,1-1.18,0-.45-.22-.64-.68-.64-.04,0-.1.01-.15.01l-.29,1.81h.12Z" fill="#fff"/><path d="M492.83,114.71h2.13s-.91,5.71-.91,5.71h1.56s-.3,1.89-.3,1.89h-3.69s1.2-7.6,1.2-7.6Z" fill="#fff"/><path d="M497.86,122.31h-1.82s1.75-7.6,1.75-7.6h2.48s.02,4.01.02,4.01l1.29-4.01h2.47s-.65,7.6-.65,7.6h-1.83s.69-5.63.69-5.63l-1.8,5.63h-1.44s-.09-5.64-.09-5.64l-1.08,5.64Z" fill="#fff"/><path d="M506.59,114.71h2.5s.53,7.6.53,7.6h-2.14s.01-1.12.01-1.12h-1.26s-.33,1.12-.33,1.12h-2.17s2.86-7.6,2.86-7.6ZM507.54,119.66l.02-2.81-.87,2.81h.85Z" fill="#fff"/><path d="M510.82,122.31l.9-5.67h-1.27s.31-1.93.31-1.93h4.66s-.31,1.93-.31,1.93h-1.26s-.9,5.67-.9,5.67h-2.13Z" fill="#fff"/><path d="M516.41,114.71h3.76s-.29,1.84-.29,1.84h-1.64s-.16.97-.16.97h1.48s-.28,1.78-.28,1.78h-1.48s-.17,1.04-.17,1.04h1.64s-.31,1.96-.31,1.96h-3.76s1.2-7.6,1.2-7.6Z" fill="#fff"/><path d="M469.25,122.31l.9-5.67h-1.27s.31-1.93.31-1.93h4.66s-.31,1.93-.31,1.93h-1.26s-.9,5.67-.9,5.67h-2.13Z" fill="#fff"/><path d="M476.44,114.71l-.2,4.5,1.4-4.5h1.71s-.02,4.5-.02,4.5l1.22-4.5h2.11s-2.68,7.6-2.68,7.6h-1.95s.02-4.75.02-4.75l-1.48,4.75h-1.95s-.28-7.6-.28-7.6h2.11Z" fill="#fff"/><path d="M483.38,114.71h2.12s-1.2,7.6-1.2,7.6h-2.12s1.2-7.6,1.2-7.6Z" fill="#fff"/><path d="M486.77,114.71h1.79c1.93,0,2.96.33,2.96,1.95,0,1.25-.55,2.07-1.57,2.32l.94,3.33h-2.25s-.48-3.07-.48-3.07l-.48,3.07h-2.12s1.2-7.6,1.2-7.6ZM488.48,118.1c.65,0,1-.43,1-1.18,0-.45-.22-.64-.68-.64-.04,0-.1.01-.15.01l-.29,1.81h.12Z" fill="#fff"/><path d="M492.83,114.71h2.13s-.91,5.71-.91,5.71h1.56s-.3,1.89-.3,1.89h-3.69s1.2-7.6,1.2-7.6Z" fill="#fff"/><path d="M497.86,122.31h-1.82s1.75-7.6,1.75-7.6h2.48s.02,4.01.02,4.01l1.29-4.01h2.47s-.65,7.6-.65,7.6h-1.83s.69-5.63.69-5.63l-1.8,5.63h-1.44s-.09-5.64-.09-5.64l-1.08,5.64Z" fill="#fff"/><path d="M506.59,114.71h2.5s.53,7.6.53,7.6h-2.14s.01-1.12.01-1.12h-1.26s-.33,1.12-.33,1.12h-2.17s2.86-7.6,2.86-7.6ZM507.54,119.66l.02-2.81-.87,2.81h.85Z" fill="#fff"/><path d="M510.82,122.31l.9-5.67h-1.27s.31-1.93.31-1.93h4.66s-.31,1.93-.31,1.93h-1.26s-.9,5.67-.9,5.67h-2.13Z" fill="#fff"/><path d="M516.41,114.71h3.76s-.29,1.84-.29,1.84h-1.64s-.16.97-.16.97h1.48s-.28,1.78-.28,1.78h-1.48s-.17,1.04-.17,1.04h1.64s-.31,1.96-.31,1.96h-3.76s1.2-7.6,1.2-7.6Z" fill="#fff"/><path d="M384.12,142.54c0,2.33-1.89,4.23-4.23,4.23h-2.58c-2.33,0-4.23-1.89-4.23-4.23v-10.41c0-2.33,1.89-4.23,4.23-4.23h2.58c2.33,0,4.23,1.89,4.23,4.23" fill="#f7c7b7"/><rect x="369.69" y="137.18" width="17.86" height="8.28" rx="4.14" ry="4.14" fill="#d9eef9"/><circle cx="433.31" cy="148.27" r="7.16" fill="#f7c7b7"/><circle cx="337.34" cy="193.66" r="7.16" fill="#f7c7b7"/><rect x="350.03" y="248.76" width="15.05" height="24.08" rx="7.52" ry="7.52" transform="translate(715.1 521.59) rotate(-180)" fill="#754c24"/><path d="M393.36,251.34l-13.77-47.37c-1.27-4.38.86-8.85,4.76-9.99h0c3.9-1.13,8.1,1.5,9.37,5.88l13.77,47.37c1.28,4.4-.88,8.89-4.81,10h0c-3.89,1.1-8.06-1.53-9.32-5.89Z" fill="#c69c6d"/><path d="M352.11,247.46l12.99-47.59c1.2-4.4,5.35-7.1,9.27-6.03h0c3.92,1.07,6.12,5.51,4.92,9.91l-12.99,47.59c-1.21,4.42-5.39,7.12-9.32,6.02h0c-3.89-1.09-6.07-5.51-4.88-9.89Z" fill="#c69c6d"/><path d="M393.59,300.5v-49.33c0-4.56,3.29-8.26,7.36-8.26h0c4.06,0,7.36,3.7,7.36,8.26v49.33c0,4.58-3.32,8.29-7.41,8.26h0c-4.04-.03-7.31-3.72-7.31-8.26Z" fill="#c69c6d"/><path d="M392.61,203.24c0,7.6-6.16,13.75-13.75,13.75-7.6,0-13.75-6.16-13.75-13.75s6.16-13.75,13.75-13.75,13.75,6.16,13.75,13.75Z" fill="#c69c6d"/><path d="M369.05,198.44l19.57-.16c2.72-.02,4.64,1.71,4.92-1.36l4.17-46.43c.49-5-1.29-9.71-3.68-9.71h-29.81c-2.39,0-4.18,4.7-3.68,9.71l4.58,45.3c.37,3.73,2.15,2.65,3.93,2.65Z" fill="#d9eef9"/><rect x="347.78" y="136.99" width="17.02" height="40" rx="8.51" ry="8.51" transform="translate(480.37 526.03) rotate(-132.36)" fill="#d9eef9"/><rect x="392.69" y="137.74" width="17.02" height="43.73" rx="8.51" ry="8.51" transform="translate(-2.78 312.02) rotate(-42.36)" fill="#d9eef9"/><rect x="335.64" y="156.31" width="17.28" height="37.1" rx="8.64" ry="8.64" transform="translate(615.15 450.05) rotate(-161.47)" fill="#d9eef9"/><rect x="410.51" y="145.19" width="15.84" height="34.61" rx="7.92" ry="7.92" transform="translate(235.48 -247.4) rotate(44.72)" fill="#d9eef9"/><rect x="393.43" y="298.08" width="15.05" height="24.08" rx="7.52" ry="7.52" transform="translate(711.07 -90.83) rotate(90)" fill="#754c24"/><rect x="365.08" y="195.52" width="28.51" height="4.2" fill="#754c24"/><rect x="375.95" y="195.52" width="5.62" height="4.2" fill="#c9c9c9"/><rect x="386.85" y="195.52" width="1.61" height="4.2" fill="#c69c6d"/><rect x="369.01" y="195.52" width="1.61" height="4.2" fill="#c69c6d"/><circle cx="378.77" cy="158.09" r="1.25" fill="#b3d1eb"/><circle cx="378.77" cy="165.23" r="1.25" fill="#b3d1eb"/><circle cx="378.77" cy="172.37" r="1.25" fill="#b3d1eb"/><circle cx="378.77" cy="179.5" r="1.25" fill="#b3d1eb"/><circle cx="378.77" cy="186.64" r="1.25" fill="#b3d1eb"/><path d="M374.22,136h0c11.11,2.32,22.29-4.92,25.81-16.68l11.64-38.99c.72-3.43-1.27-6.75-4.44-7.41l-38.05-7.93c-3.17-.66-6.32,1.59-7.04,5.02l-4.91,40.39c-1.48,12.19,5.88,23.29,16.99,25.61Z" fill="#f7c7b7"/><circle cx="405.71" cy="107.66" r="7.23" fill="#f7c7b7"/><circle cx="356.73" cy="97.3" r="7.23" fill="#f7c7b7"/><g clip-path="url(#clippath-9)"><polygon points="372.31 127.6 359.42 122.89 368.6 111.15 374.42 124.97 372.31 127.6" fill="#ad3b3b"/><ellipse cx="365.35" cy="121.33" rx="2.5" ry="3.49" transform="translate(41.8 329.94) rotate(-51.18)" fill="#db8e73"/><rect x="361.53" y="123.22" width="12.46" height="2.42" transform="translate(84.75 -141.34) rotate(24.51)" fill="#fff"/></g><path d="M410.77,83.35c4.55-14.16-3.16-29.48-21.08-21.77-17.92,7.71-.17.07-.25.11-5.62,2.41-15.84,2.81-21.92,2.81-2.79,0-5.16,2.32-5.44,5.32l-.46,4.99,48.78,9.71.38-1.17Z" fill="#c69c6d"/><circle cx="375.39" cy="99.73" r="5.55" fill="#fff"/><circle cx="377.03" cy="98.7" r="2.75" fill="#3d3d3d"/><circle cx="388.57" cy="103.54" r="5.55" fill="#fff"/><circle cx="389.51" cy="102.11" r="2.75" fill="#3d3d3d"/><path d="M379.14,106.63s2.93-3.29,10.25-2.48c7.32.81,9.21,4.35,9.21,4.35l-.48,4.95-19.47-1.88.48-4.95Z" fill="#f7c7b7"/><path d="M362.5,100.51s3.56-2.59,10.55-.24c6.98,2.35,8.07,6.22,8.07,6.22l-1.52,4.74-18.62-5.98,1.52-4.74Z" fill="#f7c7b7"/><path d="M377.6,118.96h0c-1.55-.43-2.38-2.33-1.85-4.23l3.41-5.69c.52-.88,1.87-.54,1.91.48l.29,6.58c0,.13,0,.27-.05.39-.59,1.79-2.22,2.89-3.72,2.47Z" fill="#db8e73"/></svg>